%TF.GenerationSoftware,KiCad,Pcbnew,9.0.3*%
%TF.CreationDate,2026-02-24T03:06:21-05:00*%
%TF.ProjectId,ShamanLink_Rev1,5368616d-616e-44c6-996e-6b5f52657631,rev?*%
%TF.SameCoordinates,Original*%
%TF.FileFunction,Legend,Bot*%
%TF.FilePolarity,Positive*%
%FSLAX46Y46*%
G04 Gerber Fmt 4.6, Leading zero omitted, Abs format (unit mm)*
G04 Created by KiCad (PCBNEW 9.0.3) date 2026-02-24 03:06:21*
%MOMM*%
%LPD*%
G01*
G04 APERTURE LIST*
%ADD10C,0.152400*%
%ADD11C,0.120000*%
G04 APERTURE END LIST*
D10*
X98006213Y-106092603D02*
X98006213Y-105279803D01*
X98006213Y-105279803D02*
X97812689Y-105279803D01*
X97812689Y-105279803D02*
X97696575Y-105318508D01*
X97696575Y-105318508D02*
X97619165Y-105395918D01*
X97619165Y-105395918D02*
X97580460Y-105473327D01*
X97580460Y-105473327D02*
X97541756Y-105628146D01*
X97541756Y-105628146D02*
X97541756Y-105744260D01*
X97541756Y-105744260D02*
X97580460Y-105899079D01*
X97580460Y-105899079D02*
X97619165Y-105976489D01*
X97619165Y-105976489D02*
X97696575Y-106053899D01*
X97696575Y-106053899D02*
X97812689Y-106092603D01*
X97812689Y-106092603D02*
X98006213Y-106092603D01*
X96883775Y-106053899D02*
X96961184Y-106092603D01*
X96961184Y-106092603D02*
X97116003Y-106092603D01*
X97116003Y-106092603D02*
X97193413Y-106053899D01*
X97193413Y-106053899D02*
X97232117Y-105976489D01*
X97232117Y-105976489D02*
X97232117Y-105666851D01*
X97232117Y-105666851D02*
X97193413Y-105589441D01*
X97193413Y-105589441D02*
X97116003Y-105550737D01*
X97116003Y-105550737D02*
X96961184Y-105550737D01*
X96961184Y-105550737D02*
X96883775Y-105589441D01*
X96883775Y-105589441D02*
X96845070Y-105666851D01*
X96845070Y-105666851D02*
X96845070Y-105744260D01*
X96845070Y-105744260D02*
X97232117Y-105821670D01*
X96535431Y-106053899D02*
X96458022Y-106092603D01*
X96458022Y-106092603D02*
X96303203Y-106092603D01*
X96303203Y-106092603D02*
X96225793Y-106053899D01*
X96225793Y-106053899D02*
X96187089Y-105976489D01*
X96187089Y-105976489D02*
X96187089Y-105937784D01*
X96187089Y-105937784D02*
X96225793Y-105860375D01*
X96225793Y-105860375D02*
X96303203Y-105821670D01*
X96303203Y-105821670D02*
X96419317Y-105821670D01*
X96419317Y-105821670D02*
X96496727Y-105782965D01*
X96496727Y-105782965D02*
X96535431Y-105705556D01*
X96535431Y-105705556D02*
X96535431Y-105666851D01*
X96535431Y-105666851D02*
X96496727Y-105589441D01*
X96496727Y-105589441D02*
X96419317Y-105550737D01*
X96419317Y-105550737D02*
X96303203Y-105550737D01*
X96303203Y-105550737D02*
X96225793Y-105589441D01*
X95838746Y-106092603D02*
X95838746Y-105550737D01*
X95838746Y-105279803D02*
X95877450Y-105318508D01*
X95877450Y-105318508D02*
X95838746Y-105357213D01*
X95838746Y-105357213D02*
X95800041Y-105318508D01*
X95800041Y-105318508D02*
X95838746Y-105279803D01*
X95838746Y-105279803D02*
X95838746Y-105357213D01*
X95103355Y-105550737D02*
X95103355Y-106208718D01*
X95103355Y-106208718D02*
X95142060Y-106286127D01*
X95142060Y-106286127D02*
X95180764Y-106324832D01*
X95180764Y-106324832D02*
X95258174Y-106363537D01*
X95258174Y-106363537D02*
X95374288Y-106363537D01*
X95374288Y-106363537D02*
X95451698Y-106324832D01*
X95103355Y-106053899D02*
X95180764Y-106092603D01*
X95180764Y-106092603D02*
X95335583Y-106092603D01*
X95335583Y-106092603D02*
X95412993Y-106053899D01*
X95412993Y-106053899D02*
X95451698Y-106015194D01*
X95451698Y-106015194D02*
X95490402Y-105937784D01*
X95490402Y-105937784D02*
X95490402Y-105705556D01*
X95490402Y-105705556D02*
X95451698Y-105628146D01*
X95451698Y-105628146D02*
X95412993Y-105589441D01*
X95412993Y-105589441D02*
X95335583Y-105550737D01*
X95335583Y-105550737D02*
X95180764Y-105550737D01*
X95180764Y-105550737D02*
X95103355Y-105589441D01*
X94716308Y-105550737D02*
X94716308Y-106092603D01*
X94716308Y-105628146D02*
X94677603Y-105589441D01*
X94677603Y-105589441D02*
X94600193Y-105550737D01*
X94600193Y-105550737D02*
X94484079Y-105550737D01*
X94484079Y-105550737D02*
X94406670Y-105589441D01*
X94406670Y-105589441D02*
X94367965Y-105666851D01*
X94367965Y-105666851D02*
X94367965Y-106092603D01*
X93671280Y-106053899D02*
X93748689Y-106092603D01*
X93748689Y-106092603D02*
X93903508Y-106092603D01*
X93903508Y-106092603D02*
X93980918Y-106053899D01*
X93980918Y-106053899D02*
X94019622Y-105976489D01*
X94019622Y-105976489D02*
X94019622Y-105666851D01*
X94019622Y-105666851D02*
X93980918Y-105589441D01*
X93980918Y-105589441D02*
X93903508Y-105550737D01*
X93903508Y-105550737D02*
X93748689Y-105550737D01*
X93748689Y-105550737D02*
X93671280Y-105589441D01*
X93671280Y-105589441D02*
X93632575Y-105666851D01*
X93632575Y-105666851D02*
X93632575Y-105744260D01*
X93632575Y-105744260D02*
X94019622Y-105821670D01*
X92935889Y-106092603D02*
X92935889Y-105279803D01*
X92935889Y-106053899D02*
X93013298Y-106092603D01*
X93013298Y-106092603D02*
X93168117Y-106092603D01*
X93168117Y-106092603D02*
X93245527Y-106053899D01*
X93245527Y-106053899D02*
X93284232Y-106015194D01*
X93284232Y-106015194D02*
X93322936Y-105937784D01*
X93322936Y-105937784D02*
X93322936Y-105705556D01*
X93322936Y-105705556D02*
X93284232Y-105628146D01*
X93284232Y-105628146D02*
X93245527Y-105589441D01*
X93245527Y-105589441D02*
X93168117Y-105550737D01*
X93168117Y-105550737D02*
X93013298Y-105550737D01*
X93013298Y-105550737D02*
X92935889Y-105589441D01*
X91929566Y-106092603D02*
X91929566Y-105279803D01*
X91929566Y-105589441D02*
X91852156Y-105550737D01*
X91852156Y-105550737D02*
X91697337Y-105550737D01*
X91697337Y-105550737D02*
X91619928Y-105589441D01*
X91619928Y-105589441D02*
X91581223Y-105628146D01*
X91581223Y-105628146D02*
X91542518Y-105705556D01*
X91542518Y-105705556D02*
X91542518Y-105937784D01*
X91542518Y-105937784D02*
X91581223Y-106015194D01*
X91581223Y-106015194D02*
X91619928Y-106053899D01*
X91619928Y-106053899D02*
X91697337Y-106092603D01*
X91697337Y-106092603D02*
X91852156Y-106092603D01*
X91852156Y-106092603D02*
X91929566Y-106053899D01*
X91271585Y-105550737D02*
X91078061Y-106092603D01*
X90884538Y-105550737D02*
X91078061Y-106092603D01*
X91078061Y-106092603D02*
X91155471Y-106286127D01*
X91155471Y-106286127D02*
X91194176Y-106324832D01*
X91194176Y-106324832D02*
X91271585Y-106363537D01*
X89955624Y-106092603D02*
X89955624Y-105279803D01*
X89955624Y-105279803D02*
X89762100Y-105279803D01*
X89762100Y-105279803D02*
X89645986Y-105318508D01*
X89645986Y-105318508D02*
X89568576Y-105395918D01*
X89568576Y-105395918D02*
X89529871Y-105473327D01*
X89529871Y-105473327D02*
X89491167Y-105628146D01*
X89491167Y-105628146D02*
X89491167Y-105744260D01*
X89491167Y-105744260D02*
X89529871Y-105899079D01*
X89529871Y-105899079D02*
X89568576Y-105976489D01*
X89568576Y-105976489D02*
X89645986Y-106053899D01*
X89645986Y-106053899D02*
X89762100Y-106092603D01*
X89762100Y-106092603D02*
X89955624Y-106092603D01*
X89026709Y-106092603D02*
X89104119Y-106053899D01*
X89104119Y-106053899D02*
X89142824Y-106015194D01*
X89142824Y-106015194D02*
X89181528Y-105937784D01*
X89181528Y-105937784D02*
X89181528Y-105705556D01*
X89181528Y-105705556D02*
X89142824Y-105628146D01*
X89142824Y-105628146D02*
X89104119Y-105589441D01*
X89104119Y-105589441D02*
X89026709Y-105550737D01*
X89026709Y-105550737D02*
X88910595Y-105550737D01*
X88910595Y-105550737D02*
X88833186Y-105589441D01*
X88833186Y-105589441D02*
X88794481Y-105628146D01*
X88794481Y-105628146D02*
X88755776Y-105705556D01*
X88755776Y-105705556D02*
X88755776Y-105937784D01*
X88755776Y-105937784D02*
X88794481Y-106015194D01*
X88794481Y-106015194D02*
X88833186Y-106053899D01*
X88833186Y-106053899D02*
X88910595Y-106092603D01*
X88910595Y-106092603D02*
X89026709Y-106092603D01*
X88407434Y-106092603D02*
X88407434Y-105550737D01*
X88407434Y-105628146D02*
X88368729Y-105589441D01*
X88368729Y-105589441D02*
X88291319Y-105550737D01*
X88291319Y-105550737D02*
X88175205Y-105550737D01*
X88175205Y-105550737D02*
X88097796Y-105589441D01*
X88097796Y-105589441D02*
X88059091Y-105666851D01*
X88059091Y-105666851D02*
X88059091Y-106092603D01*
X88059091Y-105666851D02*
X88020386Y-105589441D01*
X88020386Y-105589441D02*
X87942977Y-105550737D01*
X87942977Y-105550737D02*
X87826862Y-105550737D01*
X87826862Y-105550737D02*
X87749453Y-105589441D01*
X87749453Y-105589441D02*
X87710748Y-105666851D01*
X87710748Y-105666851D02*
X87710748Y-106092603D01*
X86704425Y-106092603D02*
X86704425Y-105279803D01*
X86704425Y-105279803D02*
X86433491Y-105860375D01*
X86433491Y-105860375D02*
X86162558Y-105279803D01*
X86162558Y-105279803D02*
X86162558Y-106092603D01*
X85427168Y-105550737D02*
X85427168Y-106092603D01*
X85775511Y-105550737D02*
X85775511Y-105976489D01*
X85775511Y-105976489D02*
X85736806Y-106053899D01*
X85736806Y-106053899D02*
X85659396Y-106092603D01*
X85659396Y-106092603D02*
X85543282Y-106092603D01*
X85543282Y-106092603D02*
X85465873Y-106053899D01*
X85465873Y-106053899D02*
X85427168Y-106015194D01*
X85040121Y-106092603D02*
X85040121Y-105550737D01*
X85040121Y-105705556D02*
X85001416Y-105628146D01*
X85001416Y-105628146D02*
X84962711Y-105589441D01*
X84962711Y-105589441D02*
X84885302Y-105550737D01*
X84885302Y-105550737D02*
X84807892Y-105550737D01*
X84536959Y-105550737D02*
X84536959Y-106363537D01*
X84536959Y-105589441D02*
X84459549Y-105550737D01*
X84459549Y-105550737D02*
X84304730Y-105550737D01*
X84304730Y-105550737D02*
X84227321Y-105589441D01*
X84227321Y-105589441D02*
X84188616Y-105628146D01*
X84188616Y-105628146D02*
X84149911Y-105705556D01*
X84149911Y-105705556D02*
X84149911Y-105937784D01*
X84149911Y-105937784D02*
X84188616Y-106015194D01*
X84188616Y-106015194D02*
X84227321Y-106053899D01*
X84227321Y-106053899D02*
X84304730Y-106092603D01*
X84304730Y-106092603D02*
X84459549Y-106092603D01*
X84459549Y-106092603D02*
X84536959Y-106053899D01*
X83801569Y-106092603D02*
X83801569Y-105279803D01*
X83453226Y-106092603D02*
X83453226Y-105666851D01*
X83453226Y-105666851D02*
X83491931Y-105589441D01*
X83491931Y-105589441D02*
X83569340Y-105550737D01*
X83569340Y-105550737D02*
X83685454Y-105550737D01*
X83685454Y-105550737D02*
X83762864Y-105589441D01*
X83762864Y-105589441D02*
X83801569Y-105628146D01*
X83143588Y-105550737D02*
X82950064Y-106092603D01*
X82756541Y-105550737D02*
X82950064Y-106092603D01*
X82950064Y-106092603D02*
X83027474Y-106286127D01*
X83027474Y-106286127D02*
X83066179Y-106324832D01*
X83066179Y-106324832D02*
X83143588Y-106363537D01*
X101006213Y-107892603D02*
X101006213Y-107079803D01*
X100657870Y-107892603D02*
X100657870Y-107466851D01*
X100657870Y-107466851D02*
X100696575Y-107389441D01*
X100696575Y-107389441D02*
X100773984Y-107350737D01*
X100773984Y-107350737D02*
X100890098Y-107350737D01*
X100890098Y-107350737D02*
X100967508Y-107389441D01*
X100967508Y-107389441D02*
X101006213Y-107428146D01*
X100386937Y-107350737D02*
X100077299Y-107350737D01*
X100270823Y-107079803D02*
X100270823Y-107776489D01*
X100270823Y-107776489D02*
X100232118Y-107853899D01*
X100232118Y-107853899D02*
X100154708Y-107892603D01*
X100154708Y-107892603D02*
X100077299Y-107892603D01*
X99922480Y-107350737D02*
X99612842Y-107350737D01*
X99806366Y-107079803D02*
X99806366Y-107776489D01*
X99806366Y-107776489D02*
X99767661Y-107853899D01*
X99767661Y-107853899D02*
X99690251Y-107892603D01*
X99690251Y-107892603D02*
X99612842Y-107892603D01*
X99341909Y-107350737D02*
X99341909Y-108163537D01*
X99341909Y-107389441D02*
X99264499Y-107350737D01*
X99264499Y-107350737D02*
X99109680Y-107350737D01*
X99109680Y-107350737D02*
X99032271Y-107389441D01*
X99032271Y-107389441D02*
X98993566Y-107428146D01*
X98993566Y-107428146D02*
X98954861Y-107505556D01*
X98954861Y-107505556D02*
X98954861Y-107737784D01*
X98954861Y-107737784D02*
X98993566Y-107815194D01*
X98993566Y-107815194D02*
X99032271Y-107853899D01*
X99032271Y-107853899D02*
X99109680Y-107892603D01*
X99109680Y-107892603D02*
X99264499Y-107892603D01*
X99264499Y-107892603D02*
X99341909Y-107853899D01*
X98645223Y-107853899D02*
X98567814Y-107892603D01*
X98567814Y-107892603D02*
X98412995Y-107892603D01*
X98412995Y-107892603D02*
X98335585Y-107853899D01*
X98335585Y-107853899D02*
X98296881Y-107776489D01*
X98296881Y-107776489D02*
X98296881Y-107737784D01*
X98296881Y-107737784D02*
X98335585Y-107660375D01*
X98335585Y-107660375D02*
X98412995Y-107621670D01*
X98412995Y-107621670D02*
X98529109Y-107621670D01*
X98529109Y-107621670D02*
X98606519Y-107582965D01*
X98606519Y-107582965D02*
X98645223Y-107505556D01*
X98645223Y-107505556D02*
X98645223Y-107466851D01*
X98645223Y-107466851D02*
X98606519Y-107389441D01*
X98606519Y-107389441D02*
X98529109Y-107350737D01*
X98529109Y-107350737D02*
X98412995Y-107350737D01*
X98412995Y-107350737D02*
X98335585Y-107389441D01*
X97948538Y-107815194D02*
X97909833Y-107853899D01*
X97909833Y-107853899D02*
X97948538Y-107892603D01*
X97948538Y-107892603D02*
X97987242Y-107853899D01*
X97987242Y-107853899D02*
X97948538Y-107815194D01*
X97948538Y-107815194D02*
X97948538Y-107892603D01*
X97948538Y-107389441D02*
X97909833Y-107428146D01*
X97909833Y-107428146D02*
X97948538Y-107466851D01*
X97948538Y-107466851D02*
X97987242Y-107428146D01*
X97987242Y-107428146D02*
X97948538Y-107389441D01*
X97948538Y-107389441D02*
X97948538Y-107466851D01*
X96980918Y-107041099D02*
X97677604Y-108086127D01*
X96129413Y-107041099D02*
X96826099Y-108086127D01*
X95510137Y-107350737D02*
X95510137Y-108008718D01*
X95510137Y-108008718D02*
X95548842Y-108086127D01*
X95548842Y-108086127D02*
X95587546Y-108124832D01*
X95587546Y-108124832D02*
X95664956Y-108163537D01*
X95664956Y-108163537D02*
X95781070Y-108163537D01*
X95781070Y-108163537D02*
X95858480Y-108124832D01*
X95510137Y-107853899D02*
X95587546Y-107892603D01*
X95587546Y-107892603D02*
X95742365Y-107892603D01*
X95742365Y-107892603D02*
X95819775Y-107853899D01*
X95819775Y-107853899D02*
X95858480Y-107815194D01*
X95858480Y-107815194D02*
X95897184Y-107737784D01*
X95897184Y-107737784D02*
X95897184Y-107505556D01*
X95897184Y-107505556D02*
X95858480Y-107428146D01*
X95858480Y-107428146D02*
X95819775Y-107389441D01*
X95819775Y-107389441D02*
X95742365Y-107350737D01*
X95742365Y-107350737D02*
X95587546Y-107350737D01*
X95587546Y-107350737D02*
X95510137Y-107389441D01*
X95123090Y-107892603D02*
X95123090Y-107350737D01*
X95123090Y-107079803D02*
X95161794Y-107118508D01*
X95161794Y-107118508D02*
X95123090Y-107157213D01*
X95123090Y-107157213D02*
X95084385Y-107118508D01*
X95084385Y-107118508D02*
X95123090Y-107079803D01*
X95123090Y-107079803D02*
X95123090Y-107157213D01*
X94852156Y-107350737D02*
X94542518Y-107350737D01*
X94736042Y-107079803D02*
X94736042Y-107776489D01*
X94736042Y-107776489D02*
X94697337Y-107853899D01*
X94697337Y-107853899D02*
X94619927Y-107892603D01*
X94619927Y-107892603D02*
X94542518Y-107892603D01*
X94271585Y-107892603D02*
X94271585Y-107079803D01*
X93923242Y-107892603D02*
X93923242Y-107466851D01*
X93923242Y-107466851D02*
X93961947Y-107389441D01*
X93961947Y-107389441D02*
X94039356Y-107350737D01*
X94039356Y-107350737D02*
X94155470Y-107350737D01*
X94155470Y-107350737D02*
X94232880Y-107389441D01*
X94232880Y-107389441D02*
X94271585Y-107428146D01*
X93187852Y-107350737D02*
X93187852Y-107892603D01*
X93536195Y-107350737D02*
X93536195Y-107776489D01*
X93536195Y-107776489D02*
X93497490Y-107853899D01*
X93497490Y-107853899D02*
X93420080Y-107892603D01*
X93420080Y-107892603D02*
X93303966Y-107892603D01*
X93303966Y-107892603D02*
X93226557Y-107853899D01*
X93226557Y-107853899D02*
X93187852Y-107815194D01*
X92800805Y-107892603D02*
X92800805Y-107079803D01*
X92800805Y-107389441D02*
X92723395Y-107350737D01*
X92723395Y-107350737D02*
X92568576Y-107350737D01*
X92568576Y-107350737D02*
X92491167Y-107389441D01*
X92491167Y-107389441D02*
X92452462Y-107428146D01*
X92452462Y-107428146D02*
X92413757Y-107505556D01*
X92413757Y-107505556D02*
X92413757Y-107737784D01*
X92413757Y-107737784D02*
X92452462Y-107815194D01*
X92452462Y-107815194D02*
X92491167Y-107853899D01*
X92491167Y-107853899D02*
X92568576Y-107892603D01*
X92568576Y-107892603D02*
X92723395Y-107892603D01*
X92723395Y-107892603D02*
X92800805Y-107853899D01*
X92065415Y-107815194D02*
X92026710Y-107853899D01*
X92026710Y-107853899D02*
X92065415Y-107892603D01*
X92065415Y-107892603D02*
X92104119Y-107853899D01*
X92104119Y-107853899D02*
X92065415Y-107815194D01*
X92065415Y-107815194D02*
X92065415Y-107892603D01*
X91330024Y-107853899D02*
X91407433Y-107892603D01*
X91407433Y-107892603D02*
X91562252Y-107892603D01*
X91562252Y-107892603D02*
X91639662Y-107853899D01*
X91639662Y-107853899D02*
X91678367Y-107815194D01*
X91678367Y-107815194D02*
X91717071Y-107737784D01*
X91717071Y-107737784D02*
X91717071Y-107505556D01*
X91717071Y-107505556D02*
X91678367Y-107428146D01*
X91678367Y-107428146D02*
X91639662Y-107389441D01*
X91639662Y-107389441D02*
X91562252Y-107350737D01*
X91562252Y-107350737D02*
X91407433Y-107350737D01*
X91407433Y-107350737D02*
X91330024Y-107389441D01*
X90865566Y-107892603D02*
X90942976Y-107853899D01*
X90942976Y-107853899D02*
X90981681Y-107815194D01*
X90981681Y-107815194D02*
X91020385Y-107737784D01*
X91020385Y-107737784D02*
X91020385Y-107505556D01*
X91020385Y-107505556D02*
X90981681Y-107428146D01*
X90981681Y-107428146D02*
X90942976Y-107389441D01*
X90942976Y-107389441D02*
X90865566Y-107350737D01*
X90865566Y-107350737D02*
X90749452Y-107350737D01*
X90749452Y-107350737D02*
X90672043Y-107389441D01*
X90672043Y-107389441D02*
X90633338Y-107428146D01*
X90633338Y-107428146D02*
X90594633Y-107505556D01*
X90594633Y-107505556D02*
X90594633Y-107737784D01*
X90594633Y-107737784D02*
X90633338Y-107815194D01*
X90633338Y-107815194D02*
X90672043Y-107853899D01*
X90672043Y-107853899D02*
X90749452Y-107892603D01*
X90749452Y-107892603D02*
X90865566Y-107892603D01*
X90246291Y-107892603D02*
X90246291Y-107350737D01*
X90246291Y-107428146D02*
X90207586Y-107389441D01*
X90207586Y-107389441D02*
X90130176Y-107350737D01*
X90130176Y-107350737D02*
X90014062Y-107350737D01*
X90014062Y-107350737D02*
X89936653Y-107389441D01*
X89936653Y-107389441D02*
X89897948Y-107466851D01*
X89897948Y-107466851D02*
X89897948Y-107892603D01*
X89897948Y-107466851D02*
X89859243Y-107389441D01*
X89859243Y-107389441D02*
X89781834Y-107350737D01*
X89781834Y-107350737D02*
X89665719Y-107350737D01*
X89665719Y-107350737D02*
X89588310Y-107389441D01*
X89588310Y-107389441D02*
X89549605Y-107466851D01*
X89549605Y-107466851D02*
X89549605Y-107892603D01*
X88581986Y-107041099D02*
X89278672Y-108086127D01*
X88311053Y-107892603D02*
X88311053Y-107079803D01*
X88311053Y-107079803D02*
X88117529Y-107079803D01*
X88117529Y-107079803D02*
X88001415Y-107118508D01*
X88001415Y-107118508D02*
X87924005Y-107195918D01*
X87924005Y-107195918D02*
X87885300Y-107273327D01*
X87885300Y-107273327D02*
X87846596Y-107428146D01*
X87846596Y-107428146D02*
X87846596Y-107544260D01*
X87846596Y-107544260D02*
X87885300Y-107699079D01*
X87885300Y-107699079D02*
X87924005Y-107776489D01*
X87924005Y-107776489D02*
X88001415Y-107853899D01*
X88001415Y-107853899D02*
X88117529Y-107892603D01*
X88117529Y-107892603D02*
X88311053Y-107892603D01*
X87382138Y-107892603D02*
X87459548Y-107853899D01*
X87459548Y-107853899D02*
X87498253Y-107815194D01*
X87498253Y-107815194D02*
X87536957Y-107737784D01*
X87536957Y-107737784D02*
X87536957Y-107505556D01*
X87536957Y-107505556D02*
X87498253Y-107428146D01*
X87498253Y-107428146D02*
X87459548Y-107389441D01*
X87459548Y-107389441D02*
X87382138Y-107350737D01*
X87382138Y-107350737D02*
X87266024Y-107350737D01*
X87266024Y-107350737D02*
X87188615Y-107389441D01*
X87188615Y-107389441D02*
X87149910Y-107428146D01*
X87149910Y-107428146D02*
X87111205Y-107505556D01*
X87111205Y-107505556D02*
X87111205Y-107737784D01*
X87111205Y-107737784D02*
X87149910Y-107815194D01*
X87149910Y-107815194D02*
X87188615Y-107853899D01*
X87188615Y-107853899D02*
X87266024Y-107892603D01*
X87266024Y-107892603D02*
X87382138Y-107892603D01*
X86762863Y-107892603D02*
X86762863Y-107350737D01*
X86762863Y-107428146D02*
X86724158Y-107389441D01*
X86724158Y-107389441D02*
X86646748Y-107350737D01*
X86646748Y-107350737D02*
X86530634Y-107350737D01*
X86530634Y-107350737D02*
X86453225Y-107389441D01*
X86453225Y-107389441D02*
X86414520Y-107466851D01*
X86414520Y-107466851D02*
X86414520Y-107892603D01*
X86414520Y-107466851D02*
X86375815Y-107389441D01*
X86375815Y-107389441D02*
X86298406Y-107350737D01*
X86298406Y-107350737D02*
X86182291Y-107350737D01*
X86182291Y-107350737D02*
X86104882Y-107389441D01*
X86104882Y-107389441D02*
X86066177Y-107466851D01*
X86066177Y-107466851D02*
X86066177Y-107892603D01*
X85679130Y-107892603D02*
X85679130Y-107079803D01*
X85679130Y-107079803D02*
X85408196Y-107660375D01*
X85408196Y-107660375D02*
X85137263Y-107079803D01*
X85137263Y-107079803D02*
X85137263Y-107892603D01*
X84401873Y-107350737D02*
X84401873Y-107892603D01*
X84750216Y-107350737D02*
X84750216Y-107776489D01*
X84750216Y-107776489D02*
X84711511Y-107853899D01*
X84711511Y-107853899D02*
X84634101Y-107892603D01*
X84634101Y-107892603D02*
X84517987Y-107892603D01*
X84517987Y-107892603D02*
X84440578Y-107853899D01*
X84440578Y-107853899D02*
X84401873Y-107815194D01*
X84014826Y-107892603D02*
X84014826Y-107350737D01*
X84014826Y-107505556D02*
X83976121Y-107428146D01*
X83976121Y-107428146D02*
X83937416Y-107389441D01*
X83937416Y-107389441D02*
X83860007Y-107350737D01*
X83860007Y-107350737D02*
X83782597Y-107350737D01*
X83511664Y-107350737D02*
X83511664Y-108163537D01*
X83511664Y-107389441D02*
X83434254Y-107350737D01*
X83434254Y-107350737D02*
X83279435Y-107350737D01*
X83279435Y-107350737D02*
X83202026Y-107389441D01*
X83202026Y-107389441D02*
X83163321Y-107428146D01*
X83163321Y-107428146D02*
X83124616Y-107505556D01*
X83124616Y-107505556D02*
X83124616Y-107737784D01*
X83124616Y-107737784D02*
X83163321Y-107815194D01*
X83163321Y-107815194D02*
X83202026Y-107853899D01*
X83202026Y-107853899D02*
X83279435Y-107892603D01*
X83279435Y-107892603D02*
X83434254Y-107892603D01*
X83434254Y-107892603D02*
X83511664Y-107853899D01*
X82776274Y-107892603D02*
X82776274Y-107079803D01*
X82427931Y-107892603D02*
X82427931Y-107466851D01*
X82427931Y-107466851D02*
X82466636Y-107389441D01*
X82466636Y-107389441D02*
X82544045Y-107350737D01*
X82544045Y-107350737D02*
X82660159Y-107350737D01*
X82660159Y-107350737D02*
X82737569Y-107389441D01*
X82737569Y-107389441D02*
X82776274Y-107428146D01*
X82118293Y-107350737D02*
X81924769Y-107892603D01*
X81731246Y-107350737D02*
X81924769Y-107892603D01*
X81924769Y-107892603D02*
X82002179Y-108086127D01*
X82002179Y-108086127D02*
X82040884Y-108124832D01*
X82040884Y-108124832D02*
X82118293Y-108163537D01*
X81421608Y-107582965D02*
X80802332Y-107582965D01*
X80066941Y-107350737D02*
X80066941Y-108008718D01*
X80066941Y-108008718D02*
X80105646Y-108086127D01*
X80105646Y-108086127D02*
X80144350Y-108124832D01*
X80144350Y-108124832D02*
X80221760Y-108163537D01*
X80221760Y-108163537D02*
X80337874Y-108163537D01*
X80337874Y-108163537D02*
X80415284Y-108124832D01*
X80066941Y-107853899D02*
X80144350Y-107892603D01*
X80144350Y-107892603D02*
X80299169Y-107892603D01*
X80299169Y-107892603D02*
X80376579Y-107853899D01*
X80376579Y-107853899D02*
X80415284Y-107815194D01*
X80415284Y-107815194D02*
X80453988Y-107737784D01*
X80453988Y-107737784D02*
X80453988Y-107505556D01*
X80453988Y-107505556D02*
X80415284Y-107428146D01*
X80415284Y-107428146D02*
X80376579Y-107389441D01*
X80376579Y-107389441D02*
X80299169Y-107350737D01*
X80299169Y-107350737D02*
X80144350Y-107350737D01*
X80144350Y-107350737D02*
X80066941Y-107389441D01*
X79679894Y-107892603D02*
X79679894Y-107350737D01*
X79679894Y-107079803D02*
X79718598Y-107118508D01*
X79718598Y-107118508D02*
X79679894Y-107157213D01*
X79679894Y-107157213D02*
X79641189Y-107118508D01*
X79641189Y-107118508D02*
X79679894Y-107079803D01*
X79679894Y-107079803D02*
X79679894Y-107157213D01*
X79408960Y-107350737D02*
X79099322Y-107350737D01*
X79292846Y-107079803D02*
X79292846Y-107776489D01*
X79292846Y-107776489D02*
X79254141Y-107853899D01*
X79254141Y-107853899D02*
X79176731Y-107892603D01*
X79176731Y-107892603D02*
X79099322Y-107892603D01*
D11*
%TO.C,R38*%
X117740835Y-92080282D02*
X117419718Y-91759165D01*
X118780282Y-91040835D02*
X118459165Y-90719718D01*
%TO.C,R1*%
X98027064Y-114065000D02*
X97572936Y-114065000D01*
X98027064Y-115535000D02*
X97572936Y-115535000D01*
%TO.C,R2*%
X98027064Y-116165000D02*
X97572936Y-116165000D01*
X98027064Y-117635000D02*
X97572936Y-117635000D01*
%TO.C,C29*%
X107065000Y-95338748D02*
X107065000Y-95861252D01*
X108535000Y-95338748D02*
X108535000Y-95861252D01*
%TO.C,C23*%
X120265000Y-111938747D02*
X120265000Y-112461253D01*
X121735000Y-111938747D02*
X121735000Y-112461253D01*
%TO.C,C6*%
X101959464Y-94646398D02*
X100953602Y-93640536D01*
X103246398Y-93359464D02*
X102240536Y-92353602D01*
%TO.C,R27*%
X124527064Y-84965000D02*
X124072936Y-84965000D01*
X124527064Y-86435000D02*
X124072936Y-86435000D01*
%TO.C,R16*%
X109772936Y-76265000D02*
X110227064Y-76265000D01*
X109772936Y-77735000D02*
X110227064Y-77735000D01*
%TO.C,C7*%
X111265000Y-91098752D02*
X111265000Y-90576248D01*
X112735000Y-91098752D02*
X112735000Y-90576248D01*
%TO.C,FB1*%
X94477500Y-90454724D02*
X94477500Y-89945276D01*
X95522500Y-90454724D02*
X95522500Y-89945276D01*
%TO.C,C35*%
X105461253Y-91165000D02*
X104938747Y-91165000D01*
X105461253Y-92635000D02*
X104938747Y-92635000D01*
%TO.C,C30*%
X104965000Y-95638748D02*
X104965000Y-96161252D01*
X106435000Y-95638748D02*
X106435000Y-96161252D01*
%TO.C,C8*%
X111990000Y-94488748D02*
X111990000Y-95911252D01*
X113810000Y-94488748D02*
X113810000Y-95911252D01*
%TO.C,C20*%
X121788748Y-108190000D02*
X123211252Y-108190000D01*
X121788748Y-110010000D02*
X123211252Y-110010000D01*
%TO.C,C5*%
X109361252Y-91165000D02*
X108838748Y-91165000D01*
X109361252Y-92635000D02*
X108838748Y-92635000D01*
%TO.C,C14*%
X96465000Y-90461252D02*
X96465000Y-89938748D01*
X97935000Y-90461252D02*
X97935000Y-89938748D01*
%TO.C,C32*%
X106361252Y-88365000D02*
X105838748Y-88365000D01*
X106361252Y-89835000D02*
X105838748Y-89835000D01*
%TO.C,C13*%
X104738748Y-81865000D02*
X105261252Y-81865000D01*
X104738748Y-83335000D02*
X105261252Y-83335000D01*
%TO.C,C26*%
X86738747Y-84765000D02*
X87261253Y-84765000D01*
X86738747Y-86235000D02*
X87261253Y-86235000D01*
%TO.C,FB5*%
X99645276Y-87877500D02*
X100154724Y-87877500D01*
X99645276Y-88922500D02*
X100154724Y-88922500D01*
%TO.C,R31*%
X104927064Y-76365000D02*
X104472936Y-76365000D01*
X104927064Y-77835000D02*
X104472936Y-77835000D01*
%TO.C,R32*%
X100572936Y-76265000D02*
X101027064Y-76265000D01*
X100572936Y-77735000D02*
X101027064Y-77735000D01*
%TD*%
M02*
