%TF.GenerationSoftware,KiCad,Pcbnew,9.0.3*%
%TF.CreationDate,2026-02-24T03:06:21-05:00*%
%TF.ProjectId,ShamanLink_Rev1,5368616d-616e-44c6-996e-6b5f52657631,rev?*%
%TF.SameCoordinates,Original*%
%TF.FileFunction,Legend,Top*%
%TF.FilePolarity,Positive*%
%FSLAX46Y46*%
G04 Gerber Fmt 4.6, Leading zero omitted, Abs format (unit mm)*
G04 Created by KiCad (PCBNEW 9.0.3) date 2026-02-24 03:06:21*
%MOMM*%
%LPD*%
G01*
G04 APERTURE LIST*
%ADD10C,0.152400*%
%ADD11C,0.150000*%
%ADD12C,0.200000*%
%ADD13C,0.120000*%
%ADD14C,0.127000*%
%ADD15C,0.100000*%
%ADD16C,0.000000*%
G04 APERTURE END LIST*
D10*
X135592603Y-110606213D02*
X134779803Y-110606213D01*
X135592603Y-110257870D02*
X135166851Y-110257870D01*
X135166851Y-110257870D02*
X135089441Y-110296575D01*
X135089441Y-110296575D02*
X135050737Y-110373984D01*
X135050737Y-110373984D02*
X135050737Y-110490098D01*
X135050737Y-110490098D02*
X135089441Y-110567508D01*
X135089441Y-110567508D02*
X135128146Y-110606213D01*
X135050737Y-109986937D02*
X135050737Y-109677299D01*
X134779803Y-109870823D02*
X135476489Y-109870823D01*
X135476489Y-109870823D02*
X135553899Y-109832118D01*
X135553899Y-109832118D02*
X135592603Y-109754708D01*
X135592603Y-109754708D02*
X135592603Y-109677299D01*
X135050737Y-109522480D02*
X135050737Y-109212842D01*
X134779803Y-109406366D02*
X135476489Y-109406366D01*
X135476489Y-109406366D02*
X135553899Y-109367661D01*
X135553899Y-109367661D02*
X135592603Y-109290251D01*
X135592603Y-109290251D02*
X135592603Y-109212842D01*
X135050737Y-108941909D02*
X135863537Y-108941909D01*
X135089441Y-108941909D02*
X135050737Y-108864499D01*
X135050737Y-108864499D02*
X135050737Y-108709680D01*
X135050737Y-108709680D02*
X135089441Y-108632271D01*
X135089441Y-108632271D02*
X135128146Y-108593566D01*
X135128146Y-108593566D02*
X135205556Y-108554861D01*
X135205556Y-108554861D02*
X135437784Y-108554861D01*
X135437784Y-108554861D02*
X135515194Y-108593566D01*
X135515194Y-108593566D02*
X135553899Y-108632271D01*
X135553899Y-108632271D02*
X135592603Y-108709680D01*
X135592603Y-108709680D02*
X135592603Y-108864499D01*
X135592603Y-108864499D02*
X135553899Y-108941909D01*
X135553899Y-108245223D02*
X135592603Y-108167814D01*
X135592603Y-108167814D02*
X135592603Y-108012995D01*
X135592603Y-108012995D02*
X135553899Y-107935585D01*
X135553899Y-107935585D02*
X135476489Y-107896881D01*
X135476489Y-107896881D02*
X135437784Y-107896881D01*
X135437784Y-107896881D02*
X135360375Y-107935585D01*
X135360375Y-107935585D02*
X135321670Y-108012995D01*
X135321670Y-108012995D02*
X135321670Y-108129109D01*
X135321670Y-108129109D02*
X135282965Y-108206519D01*
X135282965Y-108206519D02*
X135205556Y-108245223D01*
X135205556Y-108245223D02*
X135166851Y-108245223D01*
X135166851Y-108245223D02*
X135089441Y-108206519D01*
X135089441Y-108206519D02*
X135050737Y-108129109D01*
X135050737Y-108129109D02*
X135050737Y-108012995D01*
X135050737Y-108012995D02*
X135089441Y-107935585D01*
X135515194Y-107548538D02*
X135553899Y-107509833D01*
X135553899Y-107509833D02*
X135592603Y-107548538D01*
X135592603Y-107548538D02*
X135553899Y-107587242D01*
X135553899Y-107587242D02*
X135515194Y-107548538D01*
X135515194Y-107548538D02*
X135592603Y-107548538D01*
X135089441Y-107548538D02*
X135128146Y-107509833D01*
X135128146Y-107509833D02*
X135166851Y-107548538D01*
X135166851Y-107548538D02*
X135128146Y-107587242D01*
X135128146Y-107587242D02*
X135089441Y-107548538D01*
X135089441Y-107548538D02*
X135166851Y-107548538D01*
X134741099Y-106580918D02*
X135786127Y-107277604D01*
X134741099Y-105729413D02*
X135786127Y-106426099D01*
X135050737Y-105110137D02*
X135708718Y-105110137D01*
X135708718Y-105110137D02*
X135786127Y-105148842D01*
X135786127Y-105148842D02*
X135824832Y-105187546D01*
X135824832Y-105187546D02*
X135863537Y-105264956D01*
X135863537Y-105264956D02*
X135863537Y-105381070D01*
X135863537Y-105381070D02*
X135824832Y-105458480D01*
X135553899Y-105110137D02*
X135592603Y-105187546D01*
X135592603Y-105187546D02*
X135592603Y-105342365D01*
X135592603Y-105342365D02*
X135553899Y-105419775D01*
X135553899Y-105419775D02*
X135515194Y-105458480D01*
X135515194Y-105458480D02*
X135437784Y-105497184D01*
X135437784Y-105497184D02*
X135205556Y-105497184D01*
X135205556Y-105497184D02*
X135128146Y-105458480D01*
X135128146Y-105458480D02*
X135089441Y-105419775D01*
X135089441Y-105419775D02*
X135050737Y-105342365D01*
X135050737Y-105342365D02*
X135050737Y-105187546D01*
X135050737Y-105187546D02*
X135089441Y-105110137D01*
X135592603Y-104723090D02*
X135050737Y-104723090D01*
X134779803Y-104723090D02*
X134818508Y-104761794D01*
X134818508Y-104761794D02*
X134857213Y-104723090D01*
X134857213Y-104723090D02*
X134818508Y-104684385D01*
X134818508Y-104684385D02*
X134779803Y-104723090D01*
X134779803Y-104723090D02*
X134857213Y-104723090D01*
X135050737Y-104452156D02*
X135050737Y-104142518D01*
X134779803Y-104336042D02*
X135476489Y-104336042D01*
X135476489Y-104336042D02*
X135553899Y-104297337D01*
X135553899Y-104297337D02*
X135592603Y-104219927D01*
X135592603Y-104219927D02*
X135592603Y-104142518D01*
X135592603Y-103871585D02*
X134779803Y-103871585D01*
X135592603Y-103523242D02*
X135166851Y-103523242D01*
X135166851Y-103523242D02*
X135089441Y-103561947D01*
X135089441Y-103561947D02*
X135050737Y-103639356D01*
X135050737Y-103639356D02*
X135050737Y-103755470D01*
X135050737Y-103755470D02*
X135089441Y-103832880D01*
X135089441Y-103832880D02*
X135128146Y-103871585D01*
X135050737Y-102787852D02*
X135592603Y-102787852D01*
X135050737Y-103136195D02*
X135476489Y-103136195D01*
X135476489Y-103136195D02*
X135553899Y-103097490D01*
X135553899Y-103097490D02*
X135592603Y-103020080D01*
X135592603Y-103020080D02*
X135592603Y-102903966D01*
X135592603Y-102903966D02*
X135553899Y-102826557D01*
X135553899Y-102826557D02*
X135515194Y-102787852D01*
X135592603Y-102400805D02*
X134779803Y-102400805D01*
X135089441Y-102400805D02*
X135050737Y-102323395D01*
X135050737Y-102323395D02*
X135050737Y-102168576D01*
X135050737Y-102168576D02*
X135089441Y-102091167D01*
X135089441Y-102091167D02*
X135128146Y-102052462D01*
X135128146Y-102052462D02*
X135205556Y-102013757D01*
X135205556Y-102013757D02*
X135437784Y-102013757D01*
X135437784Y-102013757D02*
X135515194Y-102052462D01*
X135515194Y-102052462D02*
X135553899Y-102091167D01*
X135553899Y-102091167D02*
X135592603Y-102168576D01*
X135592603Y-102168576D02*
X135592603Y-102323395D01*
X135592603Y-102323395D02*
X135553899Y-102400805D01*
X135515194Y-101665415D02*
X135553899Y-101626710D01*
X135553899Y-101626710D02*
X135592603Y-101665415D01*
X135592603Y-101665415D02*
X135553899Y-101704119D01*
X135553899Y-101704119D02*
X135515194Y-101665415D01*
X135515194Y-101665415D02*
X135592603Y-101665415D01*
X135553899Y-100930024D02*
X135592603Y-101007433D01*
X135592603Y-101007433D02*
X135592603Y-101162252D01*
X135592603Y-101162252D02*
X135553899Y-101239662D01*
X135553899Y-101239662D02*
X135515194Y-101278367D01*
X135515194Y-101278367D02*
X135437784Y-101317071D01*
X135437784Y-101317071D02*
X135205556Y-101317071D01*
X135205556Y-101317071D02*
X135128146Y-101278367D01*
X135128146Y-101278367D02*
X135089441Y-101239662D01*
X135089441Y-101239662D02*
X135050737Y-101162252D01*
X135050737Y-101162252D02*
X135050737Y-101007433D01*
X135050737Y-101007433D02*
X135089441Y-100930024D01*
X135592603Y-100465566D02*
X135553899Y-100542976D01*
X135553899Y-100542976D02*
X135515194Y-100581681D01*
X135515194Y-100581681D02*
X135437784Y-100620385D01*
X135437784Y-100620385D02*
X135205556Y-100620385D01*
X135205556Y-100620385D02*
X135128146Y-100581681D01*
X135128146Y-100581681D02*
X135089441Y-100542976D01*
X135089441Y-100542976D02*
X135050737Y-100465566D01*
X135050737Y-100465566D02*
X135050737Y-100349452D01*
X135050737Y-100349452D02*
X135089441Y-100272043D01*
X135089441Y-100272043D02*
X135128146Y-100233338D01*
X135128146Y-100233338D02*
X135205556Y-100194633D01*
X135205556Y-100194633D02*
X135437784Y-100194633D01*
X135437784Y-100194633D02*
X135515194Y-100233338D01*
X135515194Y-100233338D02*
X135553899Y-100272043D01*
X135553899Y-100272043D02*
X135592603Y-100349452D01*
X135592603Y-100349452D02*
X135592603Y-100465566D01*
X135592603Y-99846291D02*
X135050737Y-99846291D01*
X135128146Y-99846291D02*
X135089441Y-99807586D01*
X135089441Y-99807586D02*
X135050737Y-99730176D01*
X135050737Y-99730176D02*
X135050737Y-99614062D01*
X135050737Y-99614062D02*
X135089441Y-99536653D01*
X135089441Y-99536653D02*
X135166851Y-99497948D01*
X135166851Y-99497948D02*
X135592603Y-99497948D01*
X135166851Y-99497948D02*
X135089441Y-99459243D01*
X135089441Y-99459243D02*
X135050737Y-99381834D01*
X135050737Y-99381834D02*
X135050737Y-99265719D01*
X135050737Y-99265719D02*
X135089441Y-99188310D01*
X135089441Y-99188310D02*
X135166851Y-99149605D01*
X135166851Y-99149605D02*
X135592603Y-99149605D01*
X134741099Y-98181986D02*
X135786127Y-98878672D01*
X135592603Y-97911053D02*
X134779803Y-97911053D01*
X134779803Y-97911053D02*
X135360375Y-97640119D01*
X135360375Y-97640119D02*
X134779803Y-97369186D01*
X134779803Y-97369186D02*
X135592603Y-97369186D01*
X135592603Y-96633796D02*
X135166851Y-96633796D01*
X135166851Y-96633796D02*
X135089441Y-96672501D01*
X135089441Y-96672501D02*
X135050737Y-96749910D01*
X135050737Y-96749910D02*
X135050737Y-96904729D01*
X135050737Y-96904729D02*
X135089441Y-96982139D01*
X135553899Y-96633796D02*
X135592603Y-96711205D01*
X135592603Y-96711205D02*
X135592603Y-96904729D01*
X135592603Y-96904729D02*
X135553899Y-96982139D01*
X135553899Y-96982139D02*
X135476489Y-97020843D01*
X135476489Y-97020843D02*
X135399079Y-97020843D01*
X135399079Y-97020843D02*
X135321670Y-96982139D01*
X135321670Y-96982139D02*
X135282965Y-96904729D01*
X135282965Y-96904729D02*
X135282965Y-96711205D01*
X135282965Y-96711205D02*
X135244260Y-96633796D01*
X135592603Y-96246749D02*
X134779803Y-96246749D01*
X135282965Y-96169339D02*
X135592603Y-95937111D01*
X135050737Y-95937111D02*
X135360375Y-96246749D01*
X135553899Y-95279130D02*
X135592603Y-95356539D01*
X135592603Y-95356539D02*
X135592603Y-95511358D01*
X135592603Y-95511358D02*
X135553899Y-95588768D01*
X135553899Y-95588768D02*
X135476489Y-95627472D01*
X135476489Y-95627472D02*
X135166851Y-95627472D01*
X135166851Y-95627472D02*
X135089441Y-95588768D01*
X135089441Y-95588768D02*
X135050737Y-95511358D01*
X135050737Y-95511358D02*
X135050737Y-95356539D01*
X135050737Y-95356539D02*
X135089441Y-95279130D01*
X135089441Y-95279130D02*
X135166851Y-95240425D01*
X135166851Y-95240425D02*
X135244260Y-95240425D01*
X135244260Y-95240425D02*
X135321670Y-95627472D01*
X135050737Y-94969491D02*
X135592603Y-94775967D01*
X135050737Y-94582444D02*
X135592603Y-94775967D01*
X135592603Y-94775967D02*
X135786127Y-94853377D01*
X135786127Y-94853377D02*
X135824832Y-94892082D01*
X135824832Y-94892082D02*
X135863537Y-94969491D01*
X135592603Y-94272806D02*
X134779803Y-94272806D01*
X134779803Y-94272806D02*
X134779803Y-94079282D01*
X134779803Y-94079282D02*
X134818508Y-93963168D01*
X134818508Y-93963168D02*
X134895918Y-93885758D01*
X134895918Y-93885758D02*
X134973327Y-93847053D01*
X134973327Y-93847053D02*
X135128146Y-93808349D01*
X135128146Y-93808349D02*
X135244260Y-93808349D01*
X135244260Y-93808349D02*
X135399079Y-93847053D01*
X135399079Y-93847053D02*
X135476489Y-93885758D01*
X135476489Y-93885758D02*
X135553899Y-93963168D01*
X135553899Y-93963168D02*
X135592603Y-94079282D01*
X135592603Y-94079282D02*
X135592603Y-94272806D01*
X135592603Y-93343891D02*
X135553899Y-93421301D01*
X135553899Y-93421301D02*
X135515194Y-93460006D01*
X135515194Y-93460006D02*
X135437784Y-93498710D01*
X135437784Y-93498710D02*
X135205556Y-93498710D01*
X135205556Y-93498710D02*
X135128146Y-93460006D01*
X135128146Y-93460006D02*
X135089441Y-93421301D01*
X135089441Y-93421301D02*
X135050737Y-93343891D01*
X135050737Y-93343891D02*
X135050737Y-93227777D01*
X135050737Y-93227777D02*
X135089441Y-93150368D01*
X135089441Y-93150368D02*
X135128146Y-93111663D01*
X135128146Y-93111663D02*
X135205556Y-93072958D01*
X135205556Y-93072958D02*
X135437784Y-93072958D01*
X135437784Y-93072958D02*
X135515194Y-93111663D01*
X135515194Y-93111663D02*
X135553899Y-93150368D01*
X135553899Y-93150368D02*
X135592603Y-93227777D01*
X135592603Y-93227777D02*
X135592603Y-93343891D01*
X135592603Y-92608501D02*
X135553899Y-92685911D01*
X135553899Y-92685911D02*
X135515194Y-92724616D01*
X135515194Y-92724616D02*
X135437784Y-92763320D01*
X135437784Y-92763320D02*
X135205556Y-92763320D01*
X135205556Y-92763320D02*
X135128146Y-92724616D01*
X135128146Y-92724616D02*
X135089441Y-92685911D01*
X135089441Y-92685911D02*
X135050737Y-92608501D01*
X135050737Y-92608501D02*
X135050737Y-92492387D01*
X135050737Y-92492387D02*
X135089441Y-92414978D01*
X135089441Y-92414978D02*
X135128146Y-92376273D01*
X135128146Y-92376273D02*
X135205556Y-92337568D01*
X135205556Y-92337568D02*
X135437784Y-92337568D01*
X135437784Y-92337568D02*
X135515194Y-92376273D01*
X135515194Y-92376273D02*
X135553899Y-92414978D01*
X135553899Y-92414978D02*
X135592603Y-92492387D01*
X135592603Y-92492387D02*
X135592603Y-92608501D01*
X135553899Y-91679588D02*
X135592603Y-91756997D01*
X135592603Y-91756997D02*
X135592603Y-91911816D01*
X135592603Y-91911816D02*
X135553899Y-91989226D01*
X135553899Y-91989226D02*
X135476489Y-92027930D01*
X135476489Y-92027930D02*
X135166851Y-92027930D01*
X135166851Y-92027930D02*
X135089441Y-91989226D01*
X135089441Y-91989226D02*
X135050737Y-91911816D01*
X135050737Y-91911816D02*
X135050737Y-91756997D01*
X135050737Y-91756997D02*
X135089441Y-91679588D01*
X135089441Y-91679588D02*
X135166851Y-91640883D01*
X135166851Y-91640883D02*
X135244260Y-91640883D01*
X135244260Y-91640883D02*
X135321670Y-92027930D01*
X135050737Y-91369949D02*
X135592603Y-91176425D01*
X135050737Y-90982902D02*
X135592603Y-91176425D01*
X135592603Y-91176425D02*
X135786127Y-91253835D01*
X135786127Y-91253835D02*
X135824832Y-91292540D01*
X135824832Y-91292540D02*
X135863537Y-91369949D01*
D11*
X133674580Y-108591792D02*
X133722200Y-108639411D01*
X133722200Y-108639411D02*
X133769819Y-108782268D01*
X133769819Y-108782268D02*
X133769819Y-108877506D01*
X133769819Y-108877506D02*
X133722200Y-109020363D01*
X133722200Y-109020363D02*
X133626961Y-109115601D01*
X133626961Y-109115601D02*
X133531723Y-109163220D01*
X133531723Y-109163220D02*
X133341247Y-109210839D01*
X133341247Y-109210839D02*
X133198390Y-109210839D01*
X133198390Y-109210839D02*
X133007914Y-109163220D01*
X133007914Y-109163220D02*
X132912676Y-109115601D01*
X132912676Y-109115601D02*
X132817438Y-109020363D01*
X132817438Y-109020363D02*
X132769819Y-108877506D01*
X132769819Y-108877506D02*
X132769819Y-108782268D01*
X132769819Y-108782268D02*
X132817438Y-108639411D01*
X132817438Y-108639411D02*
X132865057Y-108591792D01*
X133769819Y-108163220D02*
X132769819Y-108163220D01*
X133769819Y-107734649D02*
X133246009Y-107734649D01*
X133246009Y-107734649D02*
X133150771Y-107782268D01*
X133150771Y-107782268D02*
X133103152Y-107877506D01*
X133103152Y-107877506D02*
X133103152Y-108020363D01*
X133103152Y-108020363D02*
X133150771Y-108115601D01*
X133150771Y-108115601D02*
X133198390Y-108163220D01*
X133722200Y-106877506D02*
X133769819Y-106972744D01*
X133769819Y-106972744D02*
X133769819Y-107163220D01*
X133769819Y-107163220D02*
X133722200Y-107258458D01*
X133722200Y-107258458D02*
X133626961Y-107306077D01*
X133626961Y-107306077D02*
X133246009Y-107306077D01*
X133246009Y-107306077D02*
X133150771Y-107258458D01*
X133150771Y-107258458D02*
X133103152Y-107163220D01*
X133103152Y-107163220D02*
X133103152Y-106972744D01*
X133103152Y-106972744D02*
X133150771Y-106877506D01*
X133150771Y-106877506D02*
X133246009Y-106829887D01*
X133246009Y-106829887D02*
X133341247Y-106829887D01*
X133341247Y-106829887D02*
X133436485Y-107306077D01*
X133722200Y-105972744D02*
X133769819Y-106067982D01*
X133769819Y-106067982D02*
X133769819Y-106258458D01*
X133769819Y-106258458D02*
X133722200Y-106353696D01*
X133722200Y-106353696D02*
X133674580Y-106401315D01*
X133674580Y-106401315D02*
X133579342Y-106448934D01*
X133579342Y-106448934D02*
X133293628Y-106448934D01*
X133293628Y-106448934D02*
X133198390Y-106401315D01*
X133198390Y-106401315D02*
X133150771Y-106353696D01*
X133150771Y-106353696D02*
X133103152Y-106258458D01*
X133103152Y-106258458D02*
X133103152Y-106067982D01*
X133103152Y-106067982D02*
X133150771Y-105972744D01*
X133769819Y-105544172D02*
X132769819Y-105544172D01*
X133388866Y-105448934D02*
X133769819Y-105163220D01*
X133103152Y-105163220D02*
X133484104Y-105544172D01*
X133769819Y-103829886D02*
X133722200Y-103925124D01*
X133722200Y-103925124D02*
X133674580Y-103972743D01*
X133674580Y-103972743D02*
X133579342Y-104020362D01*
X133579342Y-104020362D02*
X133293628Y-104020362D01*
X133293628Y-104020362D02*
X133198390Y-103972743D01*
X133198390Y-103972743D02*
X133150771Y-103925124D01*
X133150771Y-103925124D02*
X133103152Y-103829886D01*
X133103152Y-103829886D02*
X133103152Y-103687029D01*
X133103152Y-103687029D02*
X133150771Y-103591791D01*
X133150771Y-103591791D02*
X133198390Y-103544172D01*
X133198390Y-103544172D02*
X133293628Y-103496553D01*
X133293628Y-103496553D02*
X133579342Y-103496553D01*
X133579342Y-103496553D02*
X133674580Y-103544172D01*
X133674580Y-103544172D02*
X133722200Y-103591791D01*
X133722200Y-103591791D02*
X133769819Y-103687029D01*
X133769819Y-103687029D02*
X133769819Y-103829886D01*
X133103152Y-102639410D02*
X133769819Y-102639410D01*
X133103152Y-103067981D02*
X133626961Y-103067981D01*
X133626961Y-103067981D02*
X133722200Y-103020362D01*
X133722200Y-103020362D02*
X133769819Y-102925124D01*
X133769819Y-102925124D02*
X133769819Y-102782267D01*
X133769819Y-102782267D02*
X133722200Y-102687029D01*
X133722200Y-102687029D02*
X133674580Y-102639410D01*
X133103152Y-102306076D02*
X133103152Y-101925124D01*
X132769819Y-102163219D02*
X133626961Y-102163219D01*
X133626961Y-102163219D02*
X133722200Y-102115600D01*
X133722200Y-102115600D02*
X133769819Y-102020362D01*
X133769819Y-102020362D02*
X133769819Y-101925124D01*
X133769819Y-100687028D02*
X133722200Y-100782266D01*
X133722200Y-100782266D02*
X133674580Y-100829885D01*
X133674580Y-100829885D02*
X133579342Y-100877504D01*
X133579342Y-100877504D02*
X133293628Y-100877504D01*
X133293628Y-100877504D02*
X133198390Y-100829885D01*
X133198390Y-100829885D02*
X133150771Y-100782266D01*
X133150771Y-100782266D02*
X133103152Y-100687028D01*
X133103152Y-100687028D02*
X133103152Y-100544171D01*
X133103152Y-100544171D02*
X133150771Y-100448933D01*
X133150771Y-100448933D02*
X133198390Y-100401314D01*
X133198390Y-100401314D02*
X133293628Y-100353695D01*
X133293628Y-100353695D02*
X133579342Y-100353695D01*
X133579342Y-100353695D02*
X133674580Y-100401314D01*
X133674580Y-100401314D02*
X133722200Y-100448933D01*
X133722200Y-100448933D02*
X133769819Y-100544171D01*
X133769819Y-100544171D02*
X133769819Y-100687028D01*
X133103152Y-99496552D02*
X133769819Y-99496552D01*
X133103152Y-99925123D02*
X133626961Y-99925123D01*
X133626961Y-99925123D02*
X133722200Y-99877504D01*
X133722200Y-99877504D02*
X133769819Y-99782266D01*
X133769819Y-99782266D02*
X133769819Y-99639409D01*
X133769819Y-99639409D02*
X133722200Y-99544171D01*
X133722200Y-99544171D02*
X133674580Y-99496552D01*
X133769819Y-99020361D02*
X133103152Y-99020361D01*
X133293628Y-99020361D02*
X133198390Y-98972742D01*
X133198390Y-98972742D02*
X133150771Y-98925123D01*
X133150771Y-98925123D02*
X133103152Y-98829885D01*
X133103152Y-98829885D02*
X133103152Y-98734647D01*
X133103152Y-97639408D02*
X134103152Y-97639408D01*
X133150771Y-97639408D02*
X133103152Y-97544170D01*
X133103152Y-97544170D02*
X133103152Y-97353694D01*
X133103152Y-97353694D02*
X133150771Y-97258456D01*
X133150771Y-97258456D02*
X133198390Y-97210837D01*
X133198390Y-97210837D02*
X133293628Y-97163218D01*
X133293628Y-97163218D02*
X133579342Y-97163218D01*
X133579342Y-97163218D02*
X133674580Y-97210837D01*
X133674580Y-97210837D02*
X133722200Y-97258456D01*
X133722200Y-97258456D02*
X133769819Y-97353694D01*
X133769819Y-97353694D02*
X133769819Y-97544170D01*
X133769819Y-97544170D02*
X133722200Y-97639408D01*
X133769819Y-96591789D02*
X133722200Y-96687027D01*
X133722200Y-96687027D02*
X133626961Y-96734646D01*
X133626961Y-96734646D02*
X132769819Y-96734646D01*
X133769819Y-95782265D02*
X133246009Y-95782265D01*
X133246009Y-95782265D02*
X133150771Y-95829884D01*
X133150771Y-95829884D02*
X133103152Y-95925122D01*
X133103152Y-95925122D02*
X133103152Y-96115598D01*
X133103152Y-96115598D02*
X133150771Y-96210836D01*
X133722200Y-95782265D02*
X133769819Y-95877503D01*
X133769819Y-95877503D02*
X133769819Y-96115598D01*
X133769819Y-96115598D02*
X133722200Y-96210836D01*
X133722200Y-96210836D02*
X133626961Y-96258455D01*
X133626961Y-96258455D02*
X133531723Y-96258455D01*
X133531723Y-96258455D02*
X133436485Y-96210836D01*
X133436485Y-96210836D02*
X133388866Y-96115598D01*
X133388866Y-96115598D02*
X133388866Y-95877503D01*
X133388866Y-95877503D02*
X133341247Y-95782265D01*
X133103152Y-95448931D02*
X133103152Y-95067979D01*
X132769819Y-95306074D02*
X133626961Y-95306074D01*
X133626961Y-95306074D02*
X133722200Y-95258455D01*
X133722200Y-95258455D02*
X133769819Y-95163217D01*
X133769819Y-95163217D02*
X133769819Y-95067979D01*
X133103152Y-94877502D02*
X133103152Y-94496550D01*
X133769819Y-94734645D02*
X132912676Y-94734645D01*
X132912676Y-94734645D02*
X132817438Y-94687026D01*
X132817438Y-94687026D02*
X132769819Y-94591788D01*
X132769819Y-94591788D02*
X132769819Y-94496550D01*
X133769819Y-94020359D02*
X133722200Y-94115597D01*
X133722200Y-94115597D02*
X133674580Y-94163216D01*
X133674580Y-94163216D02*
X133579342Y-94210835D01*
X133579342Y-94210835D02*
X133293628Y-94210835D01*
X133293628Y-94210835D02*
X133198390Y-94163216D01*
X133198390Y-94163216D02*
X133150771Y-94115597D01*
X133150771Y-94115597D02*
X133103152Y-94020359D01*
X133103152Y-94020359D02*
X133103152Y-93877502D01*
X133103152Y-93877502D02*
X133150771Y-93782264D01*
X133150771Y-93782264D02*
X133198390Y-93734645D01*
X133198390Y-93734645D02*
X133293628Y-93687026D01*
X133293628Y-93687026D02*
X133579342Y-93687026D01*
X133579342Y-93687026D02*
X133674580Y-93734645D01*
X133674580Y-93734645D02*
X133722200Y-93782264D01*
X133722200Y-93782264D02*
X133769819Y-93877502D01*
X133769819Y-93877502D02*
X133769819Y-94020359D01*
X133769819Y-93258454D02*
X133103152Y-93258454D01*
X133293628Y-93258454D02*
X133198390Y-93210835D01*
X133198390Y-93210835D02*
X133150771Y-93163216D01*
X133150771Y-93163216D02*
X133103152Y-93067978D01*
X133103152Y-93067978D02*
X133103152Y-92972740D01*
X133769819Y-92639406D02*
X133103152Y-92639406D01*
X133198390Y-92639406D02*
X133150771Y-92591787D01*
X133150771Y-92591787D02*
X133103152Y-92496549D01*
X133103152Y-92496549D02*
X133103152Y-92353692D01*
X133103152Y-92353692D02*
X133150771Y-92258454D01*
X133150771Y-92258454D02*
X133246009Y-92210835D01*
X133246009Y-92210835D02*
X133769819Y-92210835D01*
X133246009Y-92210835D02*
X133150771Y-92163216D01*
X133150771Y-92163216D02*
X133103152Y-92067978D01*
X133103152Y-92067978D02*
X133103152Y-91925121D01*
X133103152Y-91925121D02*
X133150771Y-91829882D01*
X133150771Y-91829882D02*
X133246009Y-91782263D01*
X133246009Y-91782263D02*
X133769819Y-91782263D01*
X133674580Y-91306073D02*
X133722200Y-91258454D01*
X133722200Y-91258454D02*
X133769819Y-91306073D01*
X133769819Y-91306073D02*
X133722200Y-91353692D01*
X133722200Y-91353692D02*
X133674580Y-91306073D01*
X133674580Y-91306073D02*
X133769819Y-91306073D01*
X133388866Y-91306073D02*
X132817438Y-91353692D01*
X132817438Y-91353692D02*
X132769819Y-91306073D01*
X132769819Y-91306073D02*
X132817438Y-91258454D01*
X132817438Y-91258454D02*
X133388866Y-91306073D01*
X133388866Y-91306073D02*
X132769819Y-91306073D01*
D10*
X79064991Y-105284041D02*
X79064991Y-104471241D01*
X79064991Y-104471241D02*
X79335925Y-105051813D01*
X79335925Y-105051813D02*
X79606858Y-104471241D01*
X79606858Y-104471241D02*
X79606858Y-105284041D01*
X80342248Y-105284041D02*
X80342248Y-104858289D01*
X80342248Y-104858289D02*
X80303543Y-104780879D01*
X80303543Y-104780879D02*
X80226134Y-104742175D01*
X80226134Y-104742175D02*
X80071315Y-104742175D01*
X80071315Y-104742175D02*
X79993905Y-104780879D01*
X80342248Y-105245337D02*
X80264839Y-105284041D01*
X80264839Y-105284041D02*
X80071315Y-105284041D01*
X80071315Y-105284041D02*
X79993905Y-105245337D01*
X79993905Y-105245337D02*
X79955201Y-105167927D01*
X79955201Y-105167927D02*
X79955201Y-105090517D01*
X79955201Y-105090517D02*
X79993905Y-105013108D01*
X79993905Y-105013108D02*
X80071315Y-104974403D01*
X80071315Y-104974403D02*
X80264839Y-104974403D01*
X80264839Y-104974403D02*
X80342248Y-104935698D01*
X80729295Y-105284041D02*
X80729295Y-104471241D01*
X80806705Y-104974403D02*
X81038933Y-105284041D01*
X81038933Y-104742175D02*
X80729295Y-105051813D01*
X81696914Y-105245337D02*
X81619505Y-105284041D01*
X81619505Y-105284041D02*
X81464686Y-105284041D01*
X81464686Y-105284041D02*
X81387276Y-105245337D01*
X81387276Y-105245337D02*
X81348572Y-105167927D01*
X81348572Y-105167927D02*
X81348572Y-104858289D01*
X81348572Y-104858289D02*
X81387276Y-104780879D01*
X81387276Y-104780879D02*
X81464686Y-104742175D01*
X81464686Y-104742175D02*
X81619505Y-104742175D01*
X81619505Y-104742175D02*
X81696914Y-104780879D01*
X81696914Y-104780879D02*
X81735619Y-104858289D01*
X81735619Y-104858289D02*
X81735619Y-104935698D01*
X81735619Y-104935698D02*
X81348572Y-105013108D01*
X82006553Y-104742175D02*
X82200077Y-105284041D01*
X82393600Y-104742175D02*
X82200077Y-105284041D01*
X82200077Y-105284041D02*
X82122667Y-105477565D01*
X82122667Y-105477565D02*
X82083962Y-105516270D01*
X82083962Y-105516270D02*
X82006553Y-105554975D01*
X82703238Y-105284041D02*
X82703238Y-104471241D01*
X82703238Y-104471241D02*
X82896762Y-104471241D01*
X82896762Y-104471241D02*
X83012876Y-104509946D01*
X83012876Y-104509946D02*
X83090286Y-104587356D01*
X83090286Y-104587356D02*
X83128991Y-104664765D01*
X83128991Y-104664765D02*
X83167695Y-104819584D01*
X83167695Y-104819584D02*
X83167695Y-104935698D01*
X83167695Y-104935698D02*
X83128991Y-105090517D01*
X83128991Y-105090517D02*
X83090286Y-105167927D01*
X83090286Y-105167927D02*
X83012876Y-105245337D01*
X83012876Y-105245337D02*
X82896762Y-105284041D01*
X82896762Y-105284041D02*
X82703238Y-105284041D01*
X83632153Y-105284041D02*
X83554743Y-105245337D01*
X83554743Y-105245337D02*
X83516038Y-105206632D01*
X83516038Y-105206632D02*
X83477334Y-105129222D01*
X83477334Y-105129222D02*
X83477334Y-104896994D01*
X83477334Y-104896994D02*
X83516038Y-104819584D01*
X83516038Y-104819584D02*
X83554743Y-104780879D01*
X83554743Y-104780879D02*
X83632153Y-104742175D01*
X83632153Y-104742175D02*
X83748267Y-104742175D01*
X83748267Y-104742175D02*
X83825676Y-104780879D01*
X83825676Y-104780879D02*
X83864381Y-104819584D01*
X83864381Y-104819584D02*
X83903086Y-104896994D01*
X83903086Y-104896994D02*
X83903086Y-105129222D01*
X83903086Y-105129222D02*
X83864381Y-105206632D01*
X83864381Y-105206632D02*
X83825676Y-105245337D01*
X83825676Y-105245337D02*
X83748267Y-105284041D01*
X83748267Y-105284041D02*
X83632153Y-105284041D01*
X84367543Y-105284041D02*
X84290133Y-105245337D01*
X84290133Y-105245337D02*
X84251428Y-105206632D01*
X84251428Y-105206632D02*
X84212724Y-105129222D01*
X84212724Y-105129222D02*
X84212724Y-104896994D01*
X84212724Y-104896994D02*
X84251428Y-104819584D01*
X84251428Y-104819584D02*
X84290133Y-104780879D01*
X84290133Y-104780879D02*
X84367543Y-104742175D01*
X84367543Y-104742175D02*
X84483657Y-104742175D01*
X84483657Y-104742175D02*
X84561066Y-104780879D01*
X84561066Y-104780879D02*
X84599771Y-104819584D01*
X84599771Y-104819584D02*
X84638476Y-104896994D01*
X84638476Y-104896994D02*
X84638476Y-105129222D01*
X84638476Y-105129222D02*
X84599771Y-105206632D01*
X84599771Y-105206632D02*
X84561066Y-105245337D01*
X84561066Y-105245337D02*
X84483657Y-105284041D01*
X84483657Y-105284041D02*
X84367543Y-105284041D01*
X85296456Y-105245337D02*
X85219047Y-105284041D01*
X85219047Y-105284041D02*
X85064228Y-105284041D01*
X85064228Y-105284041D02*
X84986818Y-105245337D01*
X84986818Y-105245337D02*
X84948114Y-105167927D01*
X84948114Y-105167927D02*
X84948114Y-104858289D01*
X84948114Y-104858289D02*
X84986818Y-104780879D01*
X84986818Y-104780879D02*
X85064228Y-104742175D01*
X85064228Y-104742175D02*
X85219047Y-104742175D01*
X85219047Y-104742175D02*
X85296456Y-104780879D01*
X85296456Y-104780879D02*
X85335161Y-104858289D01*
X85335161Y-104858289D02*
X85335161Y-104935698D01*
X85335161Y-104935698D02*
X84948114Y-105013108D01*
X85606095Y-104742175D02*
X85799619Y-105284041D01*
X85993142Y-104742175D02*
X85799619Y-105284041D01*
X85799619Y-105284041D02*
X85722209Y-105477565D01*
X85722209Y-105477565D02*
X85683504Y-105516270D01*
X85683504Y-105516270D02*
X85606095Y-105554975D01*
X78290897Y-106553899D02*
X78407011Y-106592603D01*
X78407011Y-106592603D02*
X78600535Y-106592603D01*
X78600535Y-106592603D02*
X78677944Y-106553899D01*
X78677944Y-106553899D02*
X78716649Y-106515194D01*
X78716649Y-106515194D02*
X78755354Y-106437784D01*
X78755354Y-106437784D02*
X78755354Y-106360375D01*
X78755354Y-106360375D02*
X78716649Y-106282965D01*
X78716649Y-106282965D02*
X78677944Y-106244260D01*
X78677944Y-106244260D02*
X78600535Y-106205556D01*
X78600535Y-106205556D02*
X78445716Y-106166851D01*
X78445716Y-106166851D02*
X78368306Y-106128146D01*
X78368306Y-106128146D02*
X78329601Y-106089441D01*
X78329601Y-106089441D02*
X78290897Y-106012032D01*
X78290897Y-106012032D02*
X78290897Y-105934622D01*
X78290897Y-105934622D02*
X78329601Y-105857213D01*
X78329601Y-105857213D02*
X78368306Y-105818508D01*
X78368306Y-105818508D02*
X78445716Y-105779803D01*
X78445716Y-105779803D02*
X78639239Y-105779803D01*
X78639239Y-105779803D02*
X78755354Y-105818508D01*
X79103696Y-106592603D02*
X79103696Y-105779803D01*
X79452039Y-106592603D02*
X79452039Y-106166851D01*
X79452039Y-106166851D02*
X79413334Y-106089441D01*
X79413334Y-106089441D02*
X79335925Y-106050737D01*
X79335925Y-106050737D02*
X79219811Y-106050737D01*
X79219811Y-106050737D02*
X79142401Y-106089441D01*
X79142401Y-106089441D02*
X79103696Y-106128146D01*
X80187429Y-106592603D02*
X80187429Y-106166851D01*
X80187429Y-106166851D02*
X80148724Y-106089441D01*
X80148724Y-106089441D02*
X80071315Y-106050737D01*
X80071315Y-106050737D02*
X79916496Y-106050737D01*
X79916496Y-106050737D02*
X79839086Y-106089441D01*
X80187429Y-106553899D02*
X80110020Y-106592603D01*
X80110020Y-106592603D02*
X79916496Y-106592603D01*
X79916496Y-106592603D02*
X79839086Y-106553899D01*
X79839086Y-106553899D02*
X79800382Y-106476489D01*
X79800382Y-106476489D02*
X79800382Y-106399079D01*
X79800382Y-106399079D02*
X79839086Y-106321670D01*
X79839086Y-106321670D02*
X79916496Y-106282965D01*
X79916496Y-106282965D02*
X80110020Y-106282965D01*
X80110020Y-106282965D02*
X80187429Y-106244260D01*
X80574476Y-106592603D02*
X80574476Y-106050737D01*
X80574476Y-106128146D02*
X80613181Y-106089441D01*
X80613181Y-106089441D02*
X80690591Y-106050737D01*
X80690591Y-106050737D02*
X80806705Y-106050737D01*
X80806705Y-106050737D02*
X80884114Y-106089441D01*
X80884114Y-106089441D02*
X80922819Y-106166851D01*
X80922819Y-106166851D02*
X80922819Y-106592603D01*
X80922819Y-106166851D02*
X80961524Y-106089441D01*
X80961524Y-106089441D02*
X81038933Y-106050737D01*
X81038933Y-106050737D02*
X81155048Y-106050737D01*
X81155048Y-106050737D02*
X81232457Y-106089441D01*
X81232457Y-106089441D02*
X81271162Y-106166851D01*
X81271162Y-106166851D02*
X81271162Y-106592603D01*
X82006552Y-106592603D02*
X82006552Y-106166851D01*
X82006552Y-106166851D02*
X81967847Y-106089441D01*
X81967847Y-106089441D02*
X81890438Y-106050737D01*
X81890438Y-106050737D02*
X81735619Y-106050737D01*
X81735619Y-106050737D02*
X81658209Y-106089441D01*
X82006552Y-106553899D02*
X81929143Y-106592603D01*
X81929143Y-106592603D02*
X81735619Y-106592603D01*
X81735619Y-106592603D02*
X81658209Y-106553899D01*
X81658209Y-106553899D02*
X81619505Y-106476489D01*
X81619505Y-106476489D02*
X81619505Y-106399079D01*
X81619505Y-106399079D02*
X81658209Y-106321670D01*
X81658209Y-106321670D02*
X81735619Y-106282965D01*
X81735619Y-106282965D02*
X81929143Y-106282965D01*
X81929143Y-106282965D02*
X82006552Y-106244260D01*
X82393599Y-106050737D02*
X82393599Y-106592603D01*
X82393599Y-106128146D02*
X82432304Y-106089441D01*
X82432304Y-106089441D02*
X82509714Y-106050737D01*
X82509714Y-106050737D02*
X82625828Y-106050737D01*
X82625828Y-106050737D02*
X82703237Y-106089441D01*
X82703237Y-106089441D02*
X82741942Y-106166851D01*
X82741942Y-106166851D02*
X82741942Y-106592603D01*
X83516037Y-106592603D02*
X83128989Y-106592603D01*
X83128989Y-106592603D02*
X83128989Y-105779803D01*
X83786970Y-106592603D02*
X83786970Y-106050737D01*
X83786970Y-105779803D02*
X83748266Y-105818508D01*
X83748266Y-105818508D02*
X83786970Y-105857213D01*
X83786970Y-105857213D02*
X83825675Y-105818508D01*
X83825675Y-105818508D02*
X83786970Y-105779803D01*
X83786970Y-105779803D02*
X83786970Y-105857213D01*
X84174018Y-106050737D02*
X84174018Y-106592603D01*
X84174018Y-106128146D02*
X84212723Y-106089441D01*
X84212723Y-106089441D02*
X84290133Y-106050737D01*
X84290133Y-106050737D02*
X84406247Y-106050737D01*
X84406247Y-106050737D02*
X84483656Y-106089441D01*
X84483656Y-106089441D02*
X84522361Y-106166851D01*
X84522361Y-106166851D02*
X84522361Y-106592603D01*
X84909408Y-106592603D02*
X84909408Y-105779803D01*
X84986818Y-106282965D02*
X85219046Y-106592603D01*
X85219046Y-106050737D02*
X84909408Y-106360375D01*
X86070551Y-105779803D02*
X86341484Y-106592603D01*
X86341484Y-106592603D02*
X86612418Y-105779803D01*
X87309104Y-106592603D02*
X86844647Y-106592603D01*
X87076875Y-106592603D02*
X87076875Y-105779803D01*
X87076875Y-105779803D02*
X86999466Y-105895918D01*
X86999466Y-105895918D02*
X86922056Y-105973327D01*
X86922056Y-105973327D02*
X86844647Y-106012032D01*
D11*
X112128571Y-70954819D02*
X112699999Y-70954819D01*
X112414285Y-71954819D02*
X112414285Y-70954819D01*
X113033333Y-71431009D02*
X113366666Y-71431009D01*
X113509523Y-71954819D02*
X113033333Y-71954819D01*
X113033333Y-71954819D02*
X113033333Y-70954819D01*
X113033333Y-70954819D02*
X113509523Y-70954819D01*
X113890476Y-71907200D02*
X114033333Y-71954819D01*
X114033333Y-71954819D02*
X114271428Y-71954819D01*
X114271428Y-71954819D02*
X114366666Y-71907200D01*
X114366666Y-71907200D02*
X114414285Y-71859580D01*
X114414285Y-71859580D02*
X114461904Y-71764342D01*
X114461904Y-71764342D02*
X114461904Y-71669104D01*
X114461904Y-71669104D02*
X114414285Y-71573866D01*
X114414285Y-71573866D02*
X114366666Y-71526247D01*
X114366666Y-71526247D02*
X114271428Y-71478628D01*
X114271428Y-71478628D02*
X114080952Y-71431009D01*
X114080952Y-71431009D02*
X113985714Y-71383390D01*
X113985714Y-71383390D02*
X113938095Y-71335771D01*
X113938095Y-71335771D02*
X113890476Y-71240533D01*
X113890476Y-71240533D02*
X113890476Y-71145295D01*
X113890476Y-71145295D02*
X113938095Y-71050057D01*
X113938095Y-71050057D02*
X113985714Y-71002438D01*
X113985714Y-71002438D02*
X114080952Y-70954819D01*
X114080952Y-70954819D02*
X114319047Y-70954819D01*
X114319047Y-70954819D02*
X114461904Y-71002438D01*
X114747619Y-70954819D02*
X115319047Y-70954819D01*
X115033333Y-71954819D02*
X115033333Y-70954819D01*
X116176190Y-71954819D02*
X115604762Y-71954819D01*
X115890476Y-71954819D02*
X115890476Y-70954819D01*
X115890476Y-70954819D02*
X115795238Y-71097676D01*
X115795238Y-71097676D02*
X115700000Y-71192914D01*
X115700000Y-71192914D02*
X115604762Y-71240533D01*
X92000000Y-83554819D02*
X92000000Y-83792914D01*
X91761905Y-83697676D02*
X92000000Y-83792914D01*
X92000000Y-83792914D02*
X92238095Y-83697676D01*
X91857143Y-83983390D02*
X92000000Y-83792914D01*
X92000000Y-83792914D02*
X92142857Y-83983390D01*
X86752380Y-69754819D02*
X86419047Y-69278628D01*
X86180952Y-69754819D02*
X86180952Y-68754819D01*
X86180952Y-68754819D02*
X86561904Y-68754819D01*
X86561904Y-68754819D02*
X86657142Y-68802438D01*
X86657142Y-68802438D02*
X86704761Y-68850057D01*
X86704761Y-68850057D02*
X86752380Y-68945295D01*
X86752380Y-68945295D02*
X86752380Y-69088152D01*
X86752380Y-69088152D02*
X86704761Y-69183390D01*
X86704761Y-69183390D02*
X86657142Y-69231009D01*
X86657142Y-69231009D02*
X86561904Y-69278628D01*
X86561904Y-69278628D02*
X86180952Y-69278628D01*
X87133333Y-69707200D02*
X87276190Y-69754819D01*
X87276190Y-69754819D02*
X87514285Y-69754819D01*
X87514285Y-69754819D02*
X87609523Y-69707200D01*
X87609523Y-69707200D02*
X87657142Y-69659580D01*
X87657142Y-69659580D02*
X87704761Y-69564342D01*
X87704761Y-69564342D02*
X87704761Y-69469104D01*
X87704761Y-69469104D02*
X87657142Y-69373866D01*
X87657142Y-69373866D02*
X87609523Y-69326247D01*
X87609523Y-69326247D02*
X87514285Y-69278628D01*
X87514285Y-69278628D02*
X87323809Y-69231009D01*
X87323809Y-69231009D02*
X87228571Y-69183390D01*
X87228571Y-69183390D02*
X87180952Y-69135771D01*
X87180952Y-69135771D02*
X87133333Y-69040533D01*
X87133333Y-69040533D02*
X87133333Y-68945295D01*
X87133333Y-68945295D02*
X87180952Y-68850057D01*
X87180952Y-68850057D02*
X87228571Y-68802438D01*
X87228571Y-68802438D02*
X87323809Y-68754819D01*
X87323809Y-68754819D02*
X87561904Y-68754819D01*
X87561904Y-68754819D02*
X87704761Y-68802438D01*
X88561904Y-69088152D02*
X88561904Y-69754819D01*
X88323809Y-68707200D02*
X88085714Y-69421485D01*
X88085714Y-69421485D02*
X88704761Y-69421485D01*
X89228571Y-69183390D02*
X89133333Y-69135771D01*
X89133333Y-69135771D02*
X89085714Y-69088152D01*
X89085714Y-69088152D02*
X89038095Y-68992914D01*
X89038095Y-68992914D02*
X89038095Y-68945295D01*
X89038095Y-68945295D02*
X89085714Y-68850057D01*
X89085714Y-68850057D02*
X89133333Y-68802438D01*
X89133333Y-68802438D02*
X89228571Y-68754819D01*
X89228571Y-68754819D02*
X89419047Y-68754819D01*
X89419047Y-68754819D02*
X89514285Y-68802438D01*
X89514285Y-68802438D02*
X89561904Y-68850057D01*
X89561904Y-68850057D02*
X89609523Y-68945295D01*
X89609523Y-68945295D02*
X89609523Y-68992914D01*
X89609523Y-68992914D02*
X89561904Y-69088152D01*
X89561904Y-69088152D02*
X89514285Y-69135771D01*
X89514285Y-69135771D02*
X89419047Y-69183390D01*
X89419047Y-69183390D02*
X89228571Y-69183390D01*
X89228571Y-69183390D02*
X89133333Y-69231009D01*
X89133333Y-69231009D02*
X89085714Y-69278628D01*
X89085714Y-69278628D02*
X89038095Y-69373866D01*
X89038095Y-69373866D02*
X89038095Y-69564342D01*
X89038095Y-69564342D02*
X89085714Y-69659580D01*
X89085714Y-69659580D02*
X89133333Y-69707200D01*
X89133333Y-69707200D02*
X89228571Y-69754819D01*
X89228571Y-69754819D02*
X89419047Y-69754819D01*
X89419047Y-69754819D02*
X89514285Y-69707200D01*
X89514285Y-69707200D02*
X89561904Y-69659580D01*
X89561904Y-69659580D02*
X89609523Y-69564342D01*
X89609523Y-69564342D02*
X89609523Y-69373866D01*
X89609523Y-69373866D02*
X89561904Y-69278628D01*
X89561904Y-69278628D02*
X89514285Y-69231009D01*
X89514285Y-69231009D02*
X89419047Y-69183390D01*
X90514285Y-68754819D02*
X90038095Y-68754819D01*
X90038095Y-68754819D02*
X89990476Y-69231009D01*
X89990476Y-69231009D02*
X90038095Y-69183390D01*
X90038095Y-69183390D02*
X90133333Y-69135771D01*
X90133333Y-69135771D02*
X90371428Y-69135771D01*
X90371428Y-69135771D02*
X90466666Y-69183390D01*
X90466666Y-69183390D02*
X90514285Y-69231009D01*
X90514285Y-69231009D02*
X90561904Y-69326247D01*
X90561904Y-69326247D02*
X90561904Y-69564342D01*
X90561904Y-69564342D02*
X90514285Y-69659580D01*
X90514285Y-69659580D02*
X90466666Y-69707200D01*
X90466666Y-69707200D02*
X90371428Y-69754819D01*
X90371428Y-69754819D02*
X90133333Y-69754819D01*
X90133333Y-69754819D02*
X90038095Y-69707200D01*
X90038095Y-69707200D02*
X89990476Y-69659580D01*
X91561904Y-69754819D02*
X91228571Y-69278628D01*
X90990476Y-69754819D02*
X90990476Y-68754819D01*
X90990476Y-68754819D02*
X91371428Y-68754819D01*
X91371428Y-68754819D02*
X91466666Y-68802438D01*
X91466666Y-68802438D02*
X91514285Y-68850057D01*
X91514285Y-68850057D02*
X91561904Y-68945295D01*
X91561904Y-68945295D02*
X91561904Y-69088152D01*
X91561904Y-69088152D02*
X91514285Y-69183390D01*
X91514285Y-69183390D02*
X91466666Y-69231009D01*
X91466666Y-69231009D02*
X91371428Y-69278628D01*
X91371428Y-69278628D02*
X90990476Y-69278628D01*
X91895238Y-68754819D02*
X92561904Y-69754819D01*
X92561904Y-68754819D02*
X91895238Y-69754819D01*
X93466666Y-69754819D02*
X92895238Y-69754819D01*
X93180952Y-69754819D02*
X93180952Y-68754819D01*
X93180952Y-68754819D02*
X93085714Y-68897676D01*
X93085714Y-68897676D02*
X92990476Y-68992914D01*
X92990476Y-68992914D02*
X92895238Y-69040533D01*
X125854819Y-104166666D02*
X125854819Y-104642856D01*
X125854819Y-104642856D02*
X126331009Y-104690475D01*
X126331009Y-104690475D02*
X126283390Y-104642856D01*
X126283390Y-104642856D02*
X126235771Y-104547618D01*
X126235771Y-104547618D02*
X126235771Y-104309523D01*
X126235771Y-104309523D02*
X126283390Y-104214285D01*
X126283390Y-104214285D02*
X126331009Y-104166666D01*
X126331009Y-104166666D02*
X126426247Y-104119047D01*
X126426247Y-104119047D02*
X126664342Y-104119047D01*
X126664342Y-104119047D02*
X126759580Y-104166666D01*
X126759580Y-104166666D02*
X126807200Y-104214285D01*
X126807200Y-104214285D02*
X126854819Y-104309523D01*
X126854819Y-104309523D02*
X126854819Y-104547618D01*
X126854819Y-104547618D02*
X126807200Y-104642856D01*
X126807200Y-104642856D02*
X126759580Y-104690475D01*
X125854819Y-103833332D02*
X126854819Y-103499999D01*
X126854819Y-103499999D02*
X125854819Y-103166666D01*
X126854819Y-102309523D02*
X126854819Y-102880951D01*
X126854819Y-102595237D02*
X125854819Y-102595237D01*
X125854819Y-102595237D02*
X125997676Y-102690475D01*
X125997676Y-102690475D02*
X126092914Y-102785713D01*
X126092914Y-102785713D02*
X126140533Y-102880951D01*
X87869849Y-103313061D02*
X88576955Y-102605954D01*
X88576955Y-102605954D02*
X88307581Y-103346733D01*
X88307581Y-103346733D02*
X89048360Y-103077359D01*
X89048360Y-103077359D02*
X88341253Y-103784465D01*
X88677971Y-104121183D02*
X89385077Y-103414076D01*
X89486092Y-104794617D02*
X89418749Y-104794617D01*
X89418749Y-104794617D02*
X89284062Y-104727274D01*
X89284062Y-104727274D02*
X89216718Y-104659930D01*
X89216718Y-104659930D02*
X89149375Y-104525243D01*
X89149375Y-104525243D02*
X89149375Y-104390556D01*
X89149375Y-104390556D02*
X89183046Y-104289541D01*
X89183046Y-104289541D02*
X89284062Y-104121182D01*
X89284062Y-104121182D02*
X89385077Y-104020167D01*
X89385077Y-104020167D02*
X89553436Y-103919152D01*
X89553436Y-103919152D02*
X89654451Y-103885480D01*
X89654451Y-103885480D02*
X89789138Y-103885480D01*
X89789138Y-103885480D02*
X89923825Y-103952824D01*
X89923825Y-103952824D02*
X89991168Y-104020167D01*
X89991168Y-104020167D02*
X90058512Y-104154854D01*
X90058512Y-104154854D02*
X90058512Y-104222198D01*
X90125855Y-105569068D02*
X90226871Y-104996648D01*
X89721794Y-105165007D02*
X90428901Y-104457900D01*
X90428901Y-104457900D02*
X90698275Y-104727274D01*
X90698275Y-104727274D02*
X90731947Y-104828289D01*
X90731947Y-104828289D02*
X90731947Y-104895633D01*
X90731947Y-104895633D02*
X90698275Y-104996648D01*
X90698275Y-104996648D02*
X90597260Y-105097663D01*
X90597260Y-105097663D02*
X90496245Y-105131335D01*
X90496245Y-105131335D02*
X90428901Y-105131335D01*
X90428901Y-105131335D02*
X90327886Y-105097663D01*
X90327886Y-105097663D02*
X90058512Y-104828289D01*
X91270695Y-105299694D02*
X91405382Y-105434381D01*
X91405382Y-105434381D02*
X91439054Y-105535396D01*
X91439054Y-105535396D02*
X91439054Y-105670083D01*
X91439054Y-105670083D02*
X91338039Y-105838442D01*
X91338039Y-105838442D02*
X91102336Y-106074144D01*
X91102336Y-106074144D02*
X90933978Y-106175159D01*
X90933978Y-106175159D02*
X90799291Y-106175159D01*
X90799291Y-106175159D02*
X90698275Y-106141488D01*
X90698275Y-106141488D02*
X90563588Y-106006801D01*
X90563588Y-106006801D02*
X90529917Y-105905785D01*
X90529917Y-105905785D02*
X90529917Y-105771098D01*
X90529917Y-105771098D02*
X90630932Y-105602740D01*
X90630932Y-105602740D02*
X90866634Y-105367037D01*
X90866634Y-105367037D02*
X91034993Y-105266022D01*
X91034993Y-105266022D02*
X91169680Y-105266022D01*
X91169680Y-105266022D02*
X91270695Y-105299694D01*
X91169680Y-106545549D02*
X91237023Y-106680236D01*
X91237023Y-106680236D02*
X91405382Y-106848594D01*
X91405382Y-106848594D02*
X91506397Y-106882266D01*
X91506397Y-106882266D02*
X91573741Y-106882266D01*
X91573741Y-106882266D02*
X91674756Y-106848594D01*
X91674756Y-106848594D02*
X91742100Y-106781251D01*
X91742100Y-106781251D02*
X91775771Y-106680236D01*
X91775771Y-106680236D02*
X91775771Y-106612892D01*
X91775771Y-106612892D02*
X91742100Y-106511877D01*
X91742100Y-106511877D02*
X91641084Y-106343518D01*
X91641084Y-106343518D02*
X91607413Y-106242503D01*
X91607413Y-106242503D02*
X91607413Y-106175159D01*
X91607413Y-106175159D02*
X91641084Y-106074144D01*
X91641084Y-106074144D02*
X91708428Y-106006800D01*
X91708428Y-106006800D02*
X91809443Y-105973129D01*
X91809443Y-105973129D02*
X91876787Y-105973129D01*
X91876787Y-105973129D02*
X91977802Y-106006800D01*
X91977802Y-106006800D02*
X92146161Y-106175159D01*
X92146161Y-106175159D02*
X92213504Y-106309846D01*
X91843115Y-107286327D02*
X92550222Y-106579220D01*
X92550222Y-106579220D02*
X92718580Y-106747579D01*
X92718580Y-106747579D02*
X92785924Y-106882266D01*
X92785924Y-106882266D02*
X92785924Y-107016953D01*
X92785924Y-107016953D02*
X92752252Y-107117968D01*
X92752252Y-107117968D02*
X92651237Y-107286327D01*
X92651237Y-107286327D02*
X92550222Y-107387342D01*
X92550222Y-107387342D02*
X92381863Y-107488358D01*
X92381863Y-107488358D02*
X92280848Y-107522029D01*
X92280848Y-107522029D02*
X92146161Y-107522029D01*
X92146161Y-107522029D02*
X92011474Y-107454686D01*
X92011474Y-107454686D02*
X91843115Y-107286327D01*
X92920611Y-108363823D02*
X92516550Y-107959762D01*
X92718580Y-108161793D02*
X93425687Y-107454686D01*
X93425687Y-107454686D02*
X93257328Y-107488358D01*
X93257328Y-107488358D02*
X93122641Y-107488358D01*
X93122641Y-107488358D02*
X93021626Y-107454686D01*
X130554819Y-112957142D02*
X130554819Y-112338095D01*
X130554819Y-112338095D02*
X130935771Y-112671428D01*
X130935771Y-112671428D02*
X130935771Y-112528571D01*
X130935771Y-112528571D02*
X130983390Y-112433333D01*
X130983390Y-112433333D02*
X131031009Y-112385714D01*
X131031009Y-112385714D02*
X131126247Y-112338095D01*
X131126247Y-112338095D02*
X131364342Y-112338095D01*
X131364342Y-112338095D02*
X131459580Y-112385714D01*
X131459580Y-112385714D02*
X131507200Y-112433333D01*
X131507200Y-112433333D02*
X131554819Y-112528571D01*
X131554819Y-112528571D02*
X131554819Y-112814285D01*
X131554819Y-112814285D02*
X131507200Y-112909523D01*
X131507200Y-112909523D02*
X131459580Y-112957142D01*
X130554819Y-112052380D02*
X131554819Y-111719047D01*
X131554819Y-111719047D02*
X130554819Y-111385714D01*
X130554819Y-111147618D02*
X130554819Y-110528571D01*
X130554819Y-110528571D02*
X130935771Y-110861904D01*
X130935771Y-110861904D02*
X130935771Y-110719047D01*
X130935771Y-110719047D02*
X130983390Y-110623809D01*
X130983390Y-110623809D02*
X131031009Y-110576190D01*
X131031009Y-110576190D02*
X131126247Y-110528571D01*
X131126247Y-110528571D02*
X131364342Y-110528571D01*
X131364342Y-110528571D02*
X131459580Y-110576190D01*
X131459580Y-110576190D02*
X131507200Y-110623809D01*
X131507200Y-110623809D02*
X131554819Y-110719047D01*
X131554819Y-110719047D02*
X131554819Y-111004761D01*
X131554819Y-111004761D02*
X131507200Y-111099999D01*
X131507200Y-111099999D02*
X131459580Y-111147618D01*
X130554819Y-110242856D02*
X130554819Y-109671428D01*
X131554819Y-109957142D02*
X130554819Y-109957142D01*
X131269104Y-109385713D02*
X131269104Y-108909523D01*
X131554819Y-109480951D02*
X130554819Y-109147618D01*
X130554819Y-109147618D02*
X131554819Y-108814285D01*
X131554819Y-107909523D02*
X131078628Y-108242856D01*
X131554819Y-108480951D02*
X130554819Y-108480951D01*
X130554819Y-108480951D02*
X130554819Y-108099999D01*
X130554819Y-108099999D02*
X130602438Y-108004761D01*
X130602438Y-108004761D02*
X130650057Y-107957142D01*
X130650057Y-107957142D02*
X130745295Y-107909523D01*
X130745295Y-107909523D02*
X130888152Y-107909523D01*
X130888152Y-107909523D02*
X130983390Y-107957142D01*
X130983390Y-107957142D02*
X131031009Y-108004761D01*
X131031009Y-108004761D02*
X131078628Y-108099999D01*
X131078628Y-108099999D02*
X131078628Y-108480951D01*
X130602438Y-106957142D02*
X130554819Y-107052380D01*
X130554819Y-107052380D02*
X130554819Y-107195237D01*
X130554819Y-107195237D02*
X130602438Y-107338094D01*
X130602438Y-107338094D02*
X130697676Y-107433332D01*
X130697676Y-107433332D02*
X130792914Y-107480951D01*
X130792914Y-107480951D02*
X130983390Y-107528570D01*
X130983390Y-107528570D02*
X131126247Y-107528570D01*
X131126247Y-107528570D02*
X131316723Y-107480951D01*
X131316723Y-107480951D02*
X131411961Y-107433332D01*
X131411961Y-107433332D02*
X131507200Y-107338094D01*
X131507200Y-107338094D02*
X131554819Y-107195237D01*
X131554819Y-107195237D02*
X131554819Y-107099999D01*
X131554819Y-107099999D02*
X131507200Y-106957142D01*
X131507200Y-106957142D02*
X131459580Y-106909523D01*
X131459580Y-106909523D02*
X131126247Y-106909523D01*
X131126247Y-106909523D02*
X131126247Y-107099999D01*
X131031009Y-106480951D02*
X131031009Y-106147618D01*
X131554819Y-106004761D02*
X131554819Y-106480951D01*
X131554819Y-106480951D02*
X130554819Y-106480951D01*
X130554819Y-106480951D02*
X130554819Y-106004761D01*
X130554819Y-105719046D02*
X130554819Y-105147618D01*
X131554819Y-105433332D02*
X130554819Y-105433332D01*
X131554819Y-104290475D02*
X131554819Y-104861903D01*
X131554819Y-104576189D02*
X130554819Y-104576189D01*
X130554819Y-104576189D02*
X130697676Y-104671427D01*
X130697676Y-104671427D02*
X130792914Y-104766665D01*
X130792914Y-104766665D02*
X130840533Y-104861903D01*
X89954000Y-93956620D02*
X89954000Y-94194715D01*
X89715905Y-94099477D02*
X89954000Y-94194715D01*
X89954000Y-94194715D02*
X90192095Y-94099477D01*
X89811143Y-94385191D02*
X89954000Y-94194715D01*
X89954000Y-94194715D02*
X90096857Y-94385191D01*
X99500000Y-79954819D02*
X99500000Y-80192914D01*
X99261905Y-80097676D02*
X99500000Y-80192914D01*
X99500000Y-80192914D02*
X99738095Y-80097676D01*
X99357143Y-80383390D02*
X99500000Y-80192914D01*
X99500000Y-80192914D02*
X99642857Y-80383390D01*
X90100000Y-89254819D02*
X90100000Y-89492914D01*
X89861905Y-89397676D02*
X90100000Y-89492914D01*
X90100000Y-89492914D02*
X90338095Y-89397676D01*
X89957143Y-89683390D02*
X90100000Y-89492914D01*
X90100000Y-89492914D02*
X90242857Y-89683390D01*
X98845180Y-100582200D02*
X98607085Y-100582200D01*
X98702323Y-100344105D02*
X98607085Y-100582200D01*
X98607085Y-100582200D02*
X98702323Y-100820295D01*
X98416609Y-100439343D02*
X98607085Y-100582200D01*
X98607085Y-100582200D02*
X98416609Y-100725057D01*
X102454819Y-108999999D02*
X102692914Y-108999999D01*
X102597676Y-109238094D02*
X102692914Y-108999999D01*
X102692914Y-108999999D02*
X102597676Y-108761904D01*
X102883390Y-109142856D02*
X102692914Y-108999999D01*
X102692914Y-108999999D02*
X102883390Y-108857142D01*
X122785714Y-118054819D02*
X123404761Y-118054819D01*
X123404761Y-118054819D02*
X123071428Y-118435771D01*
X123071428Y-118435771D02*
X123214285Y-118435771D01*
X123214285Y-118435771D02*
X123309523Y-118483390D01*
X123309523Y-118483390D02*
X123357142Y-118531009D01*
X123357142Y-118531009D02*
X123404761Y-118626247D01*
X123404761Y-118626247D02*
X123404761Y-118864342D01*
X123404761Y-118864342D02*
X123357142Y-118959580D01*
X123357142Y-118959580D02*
X123309523Y-119007200D01*
X123309523Y-119007200D02*
X123214285Y-119054819D01*
X123214285Y-119054819D02*
X122928571Y-119054819D01*
X122928571Y-119054819D02*
X122833333Y-119007200D01*
X122833333Y-119007200D02*
X122785714Y-118959580D01*
X123690476Y-118054819D02*
X124023809Y-119054819D01*
X124023809Y-119054819D02*
X124357142Y-118054819D01*
X124595238Y-118054819D02*
X125214285Y-118054819D01*
X125214285Y-118054819D02*
X124880952Y-118435771D01*
X124880952Y-118435771D02*
X125023809Y-118435771D01*
X125023809Y-118435771D02*
X125119047Y-118483390D01*
X125119047Y-118483390D02*
X125166666Y-118531009D01*
X125166666Y-118531009D02*
X125214285Y-118626247D01*
X125214285Y-118626247D02*
X125214285Y-118864342D01*
X125214285Y-118864342D02*
X125166666Y-118959580D01*
X125166666Y-118959580D02*
X125119047Y-119007200D01*
X125119047Y-119007200D02*
X125023809Y-119054819D01*
X125023809Y-119054819D02*
X124738095Y-119054819D01*
X124738095Y-119054819D02*
X124642857Y-119007200D01*
X124642857Y-119007200D02*
X124595238Y-118959580D01*
X125642857Y-118054819D02*
X125642857Y-118864342D01*
X125642857Y-118864342D02*
X125690476Y-118959580D01*
X125690476Y-118959580D02*
X125738095Y-119007200D01*
X125738095Y-119007200D02*
X125833333Y-119054819D01*
X125833333Y-119054819D02*
X126023809Y-119054819D01*
X126023809Y-119054819D02*
X126119047Y-119007200D01*
X126119047Y-119007200D02*
X126166666Y-118959580D01*
X126166666Y-118959580D02*
X126214285Y-118864342D01*
X126214285Y-118864342D02*
X126214285Y-118054819D01*
X126642857Y-119007200D02*
X126785714Y-119054819D01*
X126785714Y-119054819D02*
X127023809Y-119054819D01*
X127023809Y-119054819D02*
X127119047Y-119007200D01*
X127119047Y-119007200D02*
X127166666Y-118959580D01*
X127166666Y-118959580D02*
X127214285Y-118864342D01*
X127214285Y-118864342D02*
X127214285Y-118769104D01*
X127214285Y-118769104D02*
X127166666Y-118673866D01*
X127166666Y-118673866D02*
X127119047Y-118626247D01*
X127119047Y-118626247D02*
X127023809Y-118578628D01*
X127023809Y-118578628D02*
X126833333Y-118531009D01*
X126833333Y-118531009D02*
X126738095Y-118483390D01*
X126738095Y-118483390D02*
X126690476Y-118435771D01*
X126690476Y-118435771D02*
X126642857Y-118340533D01*
X126642857Y-118340533D02*
X126642857Y-118245295D01*
X126642857Y-118245295D02*
X126690476Y-118150057D01*
X126690476Y-118150057D02*
X126738095Y-118102438D01*
X126738095Y-118102438D02*
X126833333Y-118054819D01*
X126833333Y-118054819D02*
X127071428Y-118054819D01*
X127071428Y-118054819D02*
X127214285Y-118102438D01*
X127976190Y-118531009D02*
X128119047Y-118578628D01*
X128119047Y-118578628D02*
X128166666Y-118626247D01*
X128166666Y-118626247D02*
X128214285Y-118721485D01*
X128214285Y-118721485D02*
X128214285Y-118864342D01*
X128214285Y-118864342D02*
X128166666Y-118959580D01*
X128166666Y-118959580D02*
X128119047Y-119007200D01*
X128119047Y-119007200D02*
X128023809Y-119054819D01*
X128023809Y-119054819D02*
X127642857Y-119054819D01*
X127642857Y-119054819D02*
X127642857Y-118054819D01*
X127642857Y-118054819D02*
X127976190Y-118054819D01*
X127976190Y-118054819D02*
X128071428Y-118102438D01*
X128071428Y-118102438D02*
X128119047Y-118150057D01*
X128119047Y-118150057D02*
X128166666Y-118245295D01*
X128166666Y-118245295D02*
X128166666Y-118340533D01*
X128166666Y-118340533D02*
X128119047Y-118435771D01*
X128119047Y-118435771D02*
X128071428Y-118483390D01*
X128071428Y-118483390D02*
X127976190Y-118531009D01*
X127976190Y-118531009D02*
X127642857Y-118531009D01*
X129166666Y-119054819D02*
X128595238Y-119054819D01*
X128880952Y-119054819D02*
X128880952Y-118054819D01*
X128880952Y-118054819D02*
X128785714Y-118197676D01*
X128785714Y-118197676D02*
X128690476Y-118292914D01*
X128690476Y-118292914D02*
X128595238Y-118340533D01*
X83650793Y-76892418D02*
X83078373Y-76791402D01*
X83246732Y-77296479D02*
X82539625Y-76589372D01*
X82539625Y-76589372D02*
X82808999Y-76319998D01*
X82808999Y-76319998D02*
X82910014Y-76286326D01*
X82910014Y-76286326D02*
X82977358Y-76286326D01*
X82977358Y-76286326D02*
X83078373Y-76319998D01*
X83078373Y-76319998D02*
X83179388Y-76421013D01*
X83179388Y-76421013D02*
X83213060Y-76522028D01*
X83213060Y-76522028D02*
X83213060Y-76589372D01*
X83213060Y-76589372D02*
X83179388Y-76690387D01*
X83179388Y-76690387D02*
X82910014Y-76959761D01*
X83886495Y-76589372D02*
X84021182Y-76522028D01*
X84021182Y-76522028D02*
X84189541Y-76353670D01*
X84189541Y-76353670D02*
X84223212Y-76252654D01*
X84223212Y-76252654D02*
X84223212Y-76185311D01*
X84223212Y-76185311D02*
X84189541Y-76084296D01*
X84189541Y-76084296D02*
X84122197Y-76016952D01*
X84122197Y-76016952D02*
X84021182Y-75983280D01*
X84021182Y-75983280D02*
X83953838Y-75983280D01*
X83953838Y-75983280D02*
X83852823Y-76016952D01*
X83852823Y-76016952D02*
X83684464Y-76117967D01*
X83684464Y-76117967D02*
X83583449Y-76151639D01*
X83583449Y-76151639D02*
X83516106Y-76151639D01*
X83516106Y-76151639D02*
X83415090Y-76117967D01*
X83415090Y-76117967D02*
X83347747Y-76050624D01*
X83347747Y-76050624D02*
X83314075Y-75949609D01*
X83314075Y-75949609D02*
X83314075Y-75882265D01*
X83314075Y-75882265D02*
X83347747Y-75781250D01*
X83347747Y-75781250D02*
X83516106Y-75612891D01*
X83516106Y-75612891D02*
X83650793Y-75545548D01*
X84458915Y-75141487D02*
X84930319Y-75612891D01*
X84021182Y-75040471D02*
X84357899Y-75713906D01*
X84357899Y-75713906D02*
X84795632Y-75276174D01*
X84997663Y-74737426D02*
X84896647Y-74771097D01*
X84896647Y-74771097D02*
X84829304Y-74771097D01*
X84829304Y-74771097D02*
X84728289Y-74737426D01*
X84728289Y-74737426D02*
X84694617Y-74703754D01*
X84694617Y-74703754D02*
X84660945Y-74602739D01*
X84660945Y-74602739D02*
X84660945Y-74535395D01*
X84660945Y-74535395D02*
X84694617Y-74434380D01*
X84694617Y-74434380D02*
X84829304Y-74299693D01*
X84829304Y-74299693D02*
X84930319Y-74266021D01*
X84930319Y-74266021D02*
X84997663Y-74266021D01*
X84997663Y-74266021D02*
X85098678Y-74299693D01*
X85098678Y-74299693D02*
X85132350Y-74333365D01*
X85132350Y-74333365D02*
X85166021Y-74434380D01*
X85166021Y-74434380D02*
X85166021Y-74501723D01*
X85166021Y-74501723D02*
X85132350Y-74602739D01*
X85132350Y-74602739D02*
X84997663Y-74737426D01*
X84997663Y-74737426D02*
X84963991Y-74838441D01*
X84963991Y-74838441D02*
X84963991Y-74905784D01*
X84963991Y-74905784D02*
X84997663Y-75006800D01*
X84997663Y-75006800D02*
X85132350Y-75141487D01*
X85132350Y-75141487D02*
X85233365Y-75175158D01*
X85233365Y-75175158D02*
X85300708Y-75175158D01*
X85300708Y-75175158D02*
X85401724Y-75141487D01*
X85401724Y-75141487D02*
X85536411Y-75006800D01*
X85536411Y-75006800D02*
X85570082Y-74905784D01*
X85570082Y-74905784D02*
X85570082Y-74838441D01*
X85570082Y-74838441D02*
X85536411Y-74737426D01*
X85536411Y-74737426D02*
X85401724Y-74602739D01*
X85401724Y-74602739D02*
X85300708Y-74569067D01*
X85300708Y-74569067D02*
X85233365Y-74569067D01*
X85233365Y-74569067D02*
X85132350Y-74602739D01*
X85603754Y-73525242D02*
X85267037Y-73861960D01*
X85267037Y-73861960D02*
X85570083Y-74232349D01*
X85570083Y-74232349D02*
X85570083Y-74165006D01*
X85570083Y-74165006D02*
X85603754Y-74063990D01*
X85603754Y-74063990D02*
X85772113Y-73895632D01*
X85772113Y-73895632D02*
X85873128Y-73861960D01*
X85873128Y-73861960D02*
X85940472Y-73861960D01*
X85940472Y-73861960D02*
X86041487Y-73895632D01*
X86041487Y-73895632D02*
X86209846Y-74063990D01*
X86209846Y-74063990D02*
X86243518Y-74165006D01*
X86243518Y-74165006D02*
X86243518Y-74232349D01*
X86243518Y-74232349D02*
X86209846Y-74333364D01*
X86209846Y-74333364D02*
X86041487Y-74501723D01*
X86041487Y-74501723D02*
X85940472Y-74535395D01*
X85940472Y-74535395D02*
X85873128Y-74535395D01*
X85839457Y-73289540D02*
X86243518Y-72885479D01*
X86748594Y-73794616D02*
X86041487Y-73087510D01*
X86411877Y-72717120D02*
X87590388Y-72952822D01*
X86883281Y-72245716D02*
X87118983Y-73424227D01*
X88230151Y-72313059D02*
X87826090Y-72717120D01*
X88028121Y-72515090D02*
X87321014Y-71807983D01*
X87321014Y-71807983D02*
X87354686Y-71976342D01*
X87354686Y-71976342D02*
X87354686Y-72111029D01*
X87354686Y-72111029D02*
X87321014Y-72212044D01*
D12*
%TO.C,J6*%
X100410000Y-115030000D02*
X100410000Y-116280000D01*
X100410000Y-119000000D02*
X100410000Y-120280000D01*
X109350000Y-115030000D02*
X109350000Y-116280000D01*
X109350000Y-120280000D02*
X109350000Y-119000000D01*
X100980000Y-111680000D02*
G75*
G02*
X100780000Y-111680000I-100000J0D01*
G01*
X100780000Y-111680000D02*
G75*
G02*
X100980000Y-111680000I100000J0D01*
G01*
%TO.C,U2*%
X118125000Y-78235000D02*
X122325002Y-78235000D01*
X120525000Y-83235000D02*
X122325002Y-83235000D01*
%TO.C,J3*%
X77675000Y-80000000D02*
X77675000Y-88650000D01*
X81675000Y-78700000D02*
X83125000Y-78700000D01*
X83125000Y-90100000D02*
X81275000Y-90100000D01*
%TO.C,TEST1*%
X120000000Y-70200000D02*
X120800000Y-70200000D01*
X120000000Y-73200000D02*
X120800000Y-73200000D01*
D10*
%TO.C,U4*%
X120375299Y-111681901D02*
X121924699Y-111681901D01*
X121924699Y-109218101D02*
X120375299Y-109218101D01*
X122271598Y-111600001D02*
G75*
G02*
X122068400Y-111600001I-101599J0D01*
G01*
X122068400Y-111600001D02*
G75*
G02*
X122271598Y-111600001I101599J0D01*
G01*
D13*
%TO.C,FB2*%
X111777500Y-92145276D02*
X111777500Y-92654724D01*
X112822500Y-92145276D02*
X112822500Y-92654724D01*
%TO.C,C4*%
X112838747Y-99165000D02*
X113361253Y-99165000D01*
X112838747Y-100635000D02*
X113361253Y-100635000D01*
%TO.C,C37*%
X132961253Y-86265000D02*
X132438747Y-86265000D01*
X132961253Y-87735000D02*
X132438747Y-87735000D01*
%TO.C,J2*%
X98160000Y-69350000D02*
X111080000Y-69350000D01*
X98160000Y-72000000D02*
X98160000Y-69350000D01*
X98160000Y-74650000D02*
X98160001Y-73270000D01*
X99540000Y-74649999D02*
X98160000Y-74650000D01*
X100810000Y-72000000D02*
X98160000Y-72000000D01*
X100810000Y-74650000D02*
X100810000Y-72000000D01*
X100810000Y-74650000D02*
X111080000Y-74650000D01*
X111080000Y-74650000D02*
X111080000Y-69350000D01*
%TO.C,C34*%
X100265000Y-107361253D02*
X100265000Y-106838747D01*
X101735000Y-107361253D02*
X101735000Y-106838747D01*
%TO.C,C36*%
X112265000Y-115261253D02*
X112265000Y-114738747D01*
X113735000Y-115261253D02*
X113735000Y-114738747D01*
%TO.C,R33*%
X114365000Y-115227064D02*
X114365000Y-114772936D01*
X115835000Y-115227064D02*
X115835000Y-114772936D01*
%TO.C,C27*%
X123461253Y-75965000D02*
X122938747Y-75965000D01*
X123461253Y-77435000D02*
X122938747Y-77435000D01*
%TO.C,C3*%
X100561252Y-109365000D02*
X100038748Y-109365000D01*
X100561252Y-110835000D02*
X100038748Y-110835000D01*
%TO.C,C17*%
X111161252Y-107165000D02*
X110638748Y-107165000D01*
X111161252Y-108635000D02*
X110638748Y-108635000D01*
%TO.C,R8*%
X91865000Y-90972936D02*
X91865000Y-91427064D01*
X93335000Y-90972936D02*
X93335000Y-91427064D01*
%TO.C,C16*%
X109065000Y-102638747D02*
X109065000Y-103161253D01*
X110535000Y-102638747D02*
X110535000Y-103161253D01*
%TO.C,R9*%
X89965000Y-85372936D02*
X89965000Y-85827064D01*
X91435000Y-85372936D02*
X91435000Y-85827064D01*
%TO.C,C18*%
X112061252Y-109365000D02*
X111538748Y-109365000D01*
X112061252Y-110835000D02*
X111538748Y-110835000D01*
D10*
%TO.C,CR1*%
X88229850Y-83300999D02*
X90236450Y-83300999D01*
X90236450Y-79998999D02*
X88229850Y-79998999D01*
%TO.C,U3*%
X112944500Y-101474300D02*
X112944500Y-101800560D01*
X112944500Y-105999440D02*
X112944500Y-106325700D01*
X112944500Y-106325700D02*
X115789300Y-106325700D01*
X115789300Y-101474300D02*
X112944500Y-101474300D01*
X115789300Y-101800560D02*
X115789300Y-101474300D01*
X115789300Y-103262460D02*
X115789300Y-102999440D01*
X115789300Y-104800560D02*
X115789300Y-104537540D01*
X115789300Y-106325700D02*
X115789300Y-105999440D01*
X116729101Y-107468700D02*
G75*
G02*
X116475099Y-107468700I-127001J0D01*
G01*
X116475099Y-107468700D02*
G75*
G02*
X116729101Y-107468700I127001J0D01*
G01*
D13*
%TO.C,FB6*%
X80754724Y-76377500D02*
X80245276Y-76377500D01*
X80754724Y-77422500D02*
X80245276Y-77422500D01*
%TO.C,R18*%
X121627064Y-94665000D02*
X121172936Y-94665000D01*
X121627064Y-96135000D02*
X121172936Y-96135000D01*
%TO.C,C41*%
X115238748Y-88565000D02*
X115761252Y-88565000D01*
X115238748Y-90035000D02*
X115761252Y-90035000D01*
%TO.C,RS485RX1*%
X89914071Y-75671716D02*
X91936396Y-77694041D01*
X91936396Y-77694041D02*
X93294041Y-76336396D01*
X93294041Y-76336396D02*
X91271716Y-74314071D01*
%TO.C,5V1*%
X123340000Y-102400000D02*
X123340000Y-105260000D01*
X123340000Y-105260000D02*
X125260000Y-105260000D01*
X125260000Y-105260000D02*
X125260000Y-102400000D01*
%TO.C,C12*%
X95765000Y-84861252D02*
X95765000Y-84338748D01*
X97235000Y-84861252D02*
X97235000Y-84338748D01*
%TO.C,R14*%
X113465000Y-80827064D02*
X113465000Y-80372936D01*
X114935000Y-80827064D02*
X114935000Y-80372936D01*
%TO.C,C28*%
X113138747Y-74865000D02*
X113661253Y-74865000D01*
X113138747Y-76335000D02*
X113661253Y-76335000D01*
D10*
%TO.C,L2*%
X104173001Y-102023987D02*
X104173001Y-102732413D01*
X105827001Y-102732413D02*
X105827001Y-102023987D01*
D14*
%TO.C,Y1*%
X95511954Y-97340381D02*
X97491853Y-99320280D01*
X100320280Y-96491853D02*
X98340381Y-94511954D01*
X95511954Y-97340381D02*
G75*
G02*
X95582666Y-94582666I1414210J1343502D01*
G01*
X95582665Y-94582665D02*
G75*
G02*
X98340382Y-94511953I1414214J-1343499D01*
G01*
X100249569Y-99249569D02*
G75*
G02*
X97491852Y-99320281I-1414214J1343499D01*
G01*
X100320280Y-96491853D02*
G75*
G02*
X100249569Y-99249570I-1414214J-1343503D01*
G01*
D13*
%TO.C,C24*%
X124165000Y-111038747D02*
X124165000Y-111561253D01*
X125635000Y-111038747D02*
X125635000Y-111561253D01*
D15*
%TO.C,L1*%
X108600000Y-94800000D02*
X108600000Y-95800000D01*
X109600000Y-94800000D02*
X108600000Y-94800000D01*
X111600000Y-96800000D02*
X111600000Y-97800000D01*
X111600000Y-97800000D02*
X110600000Y-97800000D01*
D13*
%TO.C,R21*%
X96527064Y-80065000D02*
X96072936Y-80065000D01*
X96527064Y-81535000D02*
X96072936Y-81535000D01*
%TO.C,R7*%
X119172936Y-106865000D02*
X119627064Y-106865000D01*
X119172936Y-108335000D02*
X119627064Y-108335000D01*
%TO.C,C9*%
X96261252Y-89865000D02*
X95738748Y-89865000D01*
X96261252Y-91335000D02*
X95738748Y-91335000D01*
%TO.C,R35*%
X117865000Y-96527064D02*
X117865000Y-96072936D01*
X119335000Y-96527064D02*
X119335000Y-96072936D01*
%TO.C,R11*%
X92665000Y-82472936D02*
X92665000Y-82927064D01*
X94135000Y-82472936D02*
X94135000Y-82927064D01*
%TO.C,R17*%
X113627064Y-72865000D02*
X113172936Y-72865000D01*
X113627064Y-74335000D02*
X113172936Y-74335000D01*
%TO.C,R6*%
X123172936Y-106865000D02*
X123627064Y-106865000D01*
X123172936Y-108335000D02*
X123627064Y-108335000D01*
%TO.C,MICROSD1*%
X93271716Y-105685929D02*
X95294041Y-103663604D01*
X93936396Y-102305959D02*
X91914071Y-104328284D01*
X95294041Y-103663604D02*
X93936396Y-102305959D01*
%TO.C,R26*%
X119427064Y-84165000D02*
X118972936Y-84165000D01*
X119427064Y-85635000D02*
X118972936Y-85635000D01*
%TO.C,C33*%
X106065000Y-95638748D02*
X106065000Y-96161252D01*
X107535000Y-95638748D02*
X107535000Y-96161252D01*
%TO.C,C21*%
X114165000Y-109261253D02*
X114165000Y-108738747D01*
X115635000Y-109261253D02*
X115635000Y-108738747D01*
%TO.C,C42*%
X126795543Y-89265010D02*
X127165010Y-88895543D01*
X127834990Y-90304457D02*
X128204457Y-89934990D01*
%TO.C,SW1*%
X82590000Y-94620000D02*
X89050000Y-94620000D01*
X82590000Y-94650000D02*
X82590000Y-94620000D01*
X82590000Y-96550000D02*
X82590000Y-99150000D01*
X82590000Y-101080000D02*
X82590000Y-101050000D01*
X82590000Y-101080000D02*
X89050000Y-101080000D01*
X89050000Y-94620000D02*
X89050000Y-94650000D01*
X89050000Y-96550000D02*
X89050000Y-99150000D01*
X89050000Y-101080000D02*
X89050000Y-101050000D01*
%TO.C,FB4*%
X98577500Y-106454724D02*
X98577500Y-105945276D01*
X99622500Y-106454724D02*
X99622500Y-105945276D01*
%TO.C,3V3TARGET1*%
X128340000Y-114300000D02*
X128340000Y-117160000D01*
X128340000Y-117160000D02*
X130260000Y-117160000D01*
X130260000Y-117160000D02*
X130260000Y-114300000D01*
%TO.C,R4*%
X101765000Y-102272936D02*
X101765000Y-102727064D01*
X103235000Y-102272936D02*
X103235000Y-102727064D01*
%TO.C,R19*%
X120027064Y-92765000D02*
X119572936Y-92765000D01*
X120027064Y-94235000D02*
X119572936Y-94235000D01*
%TO.C,C39*%
X95965000Y-74138747D02*
X95965000Y-74661253D01*
X97435000Y-74138747D02*
X97435000Y-74661253D01*
D10*
%TO.C,CR3*%
X87229850Y-93501001D02*
X89236450Y-93501001D01*
X89236450Y-90199001D02*
X87229850Y-90199001D01*
D13*
%TO.C,C31*%
X102761252Y-76265000D02*
X102238748Y-76265000D01*
X102761252Y-77735000D02*
X102238748Y-77735000D01*
%TO.C,R30*%
X91526621Y-102205504D02*
X91205504Y-102526621D01*
X92566068Y-103244951D02*
X92244951Y-103566068D01*
%TO.C,R28*%
X85919718Y-77759165D02*
X86240835Y-78080282D01*
X86959165Y-76719718D02*
X87280282Y-77040835D01*
%TO.C,R13*%
X126490000Y-81627064D02*
X126490000Y-80172936D01*
X128310000Y-81627064D02*
X128310000Y-80172936D01*
%TO.C,C40*%
X93665000Y-74138747D02*
X93665000Y-74661253D01*
X95135000Y-74138747D02*
X95135000Y-74661253D01*
%TO.C,R34*%
X79972936Y-91265000D02*
X80427064Y-91265000D01*
X79972936Y-92735000D02*
X80427064Y-92735000D01*
%TO.C,C25*%
X86738748Y-83965000D02*
X87261252Y-83965000D01*
X86738748Y-85435000D02*
X87261252Y-85435000D01*
D16*
%TO.C,G\u002A\u002A\u002A*%
G36*
X89951120Y-110371636D02*
G01*
X89983069Y-110372911D01*
X90011378Y-110374977D01*
X90030064Y-110377167D01*
X90109262Y-110391832D01*
X90185285Y-110412349D01*
X90258207Y-110438746D01*
X90328100Y-110471053D01*
X90395036Y-110509298D01*
X90436784Y-110537206D01*
X90485512Y-110574712D01*
X90533441Y-110617315D01*
X90579041Y-110663483D01*
X90620781Y-110711685D01*
X90650620Y-110751042D01*
X90692393Y-110815619D01*
X90728195Y-110882765D01*
X90758010Y-110952086D01*
X90781821Y-111023189D01*
X90799614Y-111095679D01*
X90811371Y-111169162D01*
X90817079Y-111243245D01*
X90816719Y-111317532D01*
X90810278Y-111391631D01*
X90797738Y-111465147D01*
X90779085Y-111537685D01*
X90754301Y-111608853D01*
X90723373Y-111678255D01*
X90690319Y-111738799D01*
X90647659Y-111803927D01*
X90600195Y-111864566D01*
X90548221Y-111920522D01*
X90492031Y-111971605D01*
X90431918Y-112017621D01*
X90368177Y-112058378D01*
X90301102Y-112093684D01*
X90230986Y-112123345D01*
X90158124Y-112147171D01*
X90082810Y-112164967D01*
X90025064Y-112174220D01*
X90004544Y-112176400D01*
X89980076Y-112178285D01*
X89953503Y-112179797D01*
X89926666Y-112180859D01*
X89901409Y-112181395D01*
X89879574Y-112181326D01*
X89866709Y-112180842D01*
X89788439Y-112172838D01*
X89711869Y-112158548D01*
X89637330Y-112138120D01*
X89565152Y-112111698D01*
X89495664Y-112079431D01*
X89429195Y-112041464D01*
X89366077Y-111997944D01*
X89306638Y-111949018D01*
X89272462Y-111916715D01*
X89220658Y-111860473D01*
X89173899Y-111800061D01*
X89132408Y-111735910D01*
X89096406Y-111668453D01*
X89066115Y-111598122D01*
X89041757Y-111525350D01*
X89023553Y-111450568D01*
X89018220Y-111421257D01*
X89009027Y-111345214D01*
X89006395Y-111268852D01*
X89010262Y-111192597D01*
X89020123Y-111120108D01*
X89922395Y-111120108D01*
X89925166Y-111146410D01*
X89931283Y-111171260D01*
X89941262Y-111197056D01*
X89949109Y-111213568D01*
X89957822Y-111230104D01*
X89966114Y-111243396D01*
X89975572Y-111255610D01*
X89987785Y-111268914D01*
X89995053Y-111276284D01*
X90009348Y-111290123D01*
X90021461Y-111300468D01*
X90033548Y-111308886D01*
X90047770Y-111316944D01*
X90058794Y-111322539D01*
X90082179Y-111333357D01*
X90102782Y-111340889D01*
X90122768Y-111345603D01*
X90144301Y-111347962D01*
X90169546Y-111348433D01*
X90178417Y-111348269D01*
X90198077Y-111347546D01*
X90213194Y-111346288D01*
X90225889Y-111344180D01*
X90238282Y-111340908D01*
X90246759Y-111338153D01*
X90283358Y-111322538D01*
X90316398Y-111301658D01*
X90345382Y-111276387D01*
X90372054Y-111245210D01*
X90392903Y-111211140D01*
X90407787Y-111174756D01*
X90416565Y-111136637D01*
X90419095Y-111097363D01*
X90415234Y-111057513D01*
X90407018Y-111024232D01*
X90395962Y-110995566D01*
X90381482Y-110969621D01*
X90362498Y-110944684D01*
X90345106Y-110926065D01*
X90319716Y-110903013D01*
X90294563Y-110885285D01*
X90267965Y-110871818D01*
X90247237Y-110864247D01*
X90207105Y-110854848D01*
X90167193Y-110851979D01*
X90128039Y-110855507D01*
X90090178Y-110865304D01*
X90054146Y-110881237D01*
X90020481Y-110903176D01*
X89994784Y-110925789D01*
X89968173Y-110956266D01*
X89947880Y-110988389D01*
X89933634Y-111022769D01*
X89925165Y-111060019D01*
X89922453Y-111089958D01*
X89922395Y-111120108D01*
X89020123Y-111120108D01*
X89020563Y-111116874D01*
X89037234Y-111042110D01*
X89060212Y-110968730D01*
X89089432Y-110897159D01*
X89100247Y-110874392D01*
X89137172Y-110806727D01*
X89179276Y-110743081D01*
X89226265Y-110683665D01*
X89277844Y-110628688D01*
X89333720Y-110578363D01*
X89393599Y-110532898D01*
X89457187Y-110492504D01*
X89524190Y-110457391D01*
X89594313Y-110427771D01*
X89667264Y-110403853D01*
X89742747Y-110385847D01*
X89795033Y-110377135D01*
X89820212Y-110374451D01*
X89850076Y-110372560D01*
X89882958Y-110371461D01*
X89917194Y-110371153D01*
X89951120Y-110371636D01*
G37*
G36*
X91586416Y-112876530D02*
G01*
X91607836Y-112878122D01*
X91618588Y-112879652D01*
X91665326Y-112891278D01*
X91708768Y-112908319D01*
X91748665Y-112930298D01*
X91784773Y-112956736D01*
X91816844Y-112987155D01*
X91844632Y-113021078D01*
X91867891Y-113058026D01*
X91886374Y-113097522D01*
X91899834Y-113139087D01*
X91908026Y-113182244D01*
X91910701Y-113226515D01*
X91907615Y-113271422D01*
X91898521Y-113316486D01*
X91883171Y-113361231D01*
X91875645Y-113378053D01*
X91861970Y-113403581D01*
X91845556Y-113429239D01*
X91827780Y-113453088D01*
X91810022Y-113473187D01*
X91803864Y-113479162D01*
X91795909Y-113486736D01*
X91790396Y-113492445D01*
X91788628Y-113494831D01*
X91790466Y-113498021D01*
X91795453Y-113505439D01*
X91802798Y-113515935D01*
X91810560Y-113526768D01*
X91848919Y-113583869D01*
X91883278Y-113643359D01*
X91913132Y-113704172D01*
X91937978Y-113765242D01*
X91957314Y-113825504D01*
X91964056Y-113851955D01*
X91967562Y-113867700D01*
X91970068Y-113881296D01*
X91971741Y-113894497D01*
X91972752Y-113909060D01*
X91973268Y-113926743D01*
X91973458Y-113949301D01*
X91973460Y-113949795D01*
X91973234Y-113977039D01*
X91972197Y-113999109D01*
X91970099Y-114017478D01*
X91966687Y-114033617D01*
X91961712Y-114048996D01*
X91954920Y-114065087D01*
X91953097Y-114068995D01*
X91936573Y-114096326D01*
X91914994Y-114119752D01*
X91889138Y-114138595D01*
X91859784Y-114152181D01*
X91855804Y-114153509D01*
X91836377Y-114157841D01*
X91812777Y-114160204D01*
X91787212Y-114160562D01*
X91761888Y-114158878D01*
X91740289Y-114155403D01*
X91694383Y-114142300D01*
X91647029Y-114123063D01*
X91598708Y-114097940D01*
X91549900Y-114067182D01*
X91503474Y-114032930D01*
X91488992Y-114020812D01*
X91471305Y-114004983D01*
X91451642Y-113986640D01*
X91431234Y-113966980D01*
X91411309Y-113947202D01*
X91393097Y-113928502D01*
X91377829Y-113912078D01*
X91369318Y-113902298D01*
X91360618Y-113892214D01*
X91353362Y-113884465D01*
X91348679Y-113880232D01*
X91347751Y-113879786D01*
X91343879Y-113881536D01*
X91335964Y-113886206D01*
X91325447Y-113892928D01*
X91320916Y-113895941D01*
X91292613Y-113914369D01*
X91259553Y-113934868D01*
X91223031Y-113956705D01*
X91184340Y-113979146D01*
X91144773Y-114001460D01*
X91105622Y-114022912D01*
X91068183Y-114042770D01*
X91033747Y-114060301D01*
X91014195Y-114069811D01*
X90995055Y-114079166D01*
X90981636Y-114086344D01*
X90973463Y-114091632D01*
X90970062Y-114095314D01*
X90969950Y-114096481D01*
X90971519Y-114101332D01*
X90974900Y-114111144D01*
X90979637Y-114124606D01*
X90985270Y-114140412D01*
X90986854Y-114144821D01*
X91011290Y-114221852D01*
X91029147Y-114298717D01*
X91040404Y-114375298D01*
X91045039Y-114451483D01*
X91045170Y-114466102D01*
X91043308Y-114518541D01*
X91037758Y-114566925D01*
X91028657Y-114611031D01*
X91016140Y-114650635D01*
X91000345Y-114685515D01*
X90981407Y-114715448D01*
X90959464Y-114740212D01*
X90934651Y-114759583D01*
X90907104Y-114773339D01*
X90876961Y-114781257D01*
X90851043Y-114783238D01*
X90816045Y-114780158D01*
X90781009Y-114770860D01*
X90745762Y-114755258D01*
X90710129Y-114733265D01*
X90673934Y-114704795D01*
X90652323Y-114684999D01*
X90637564Y-114670395D01*
X90622483Y-114654794D01*
X90608772Y-114639987D01*
X90598123Y-114627763D01*
X90597414Y-114626901D01*
X90566064Y-114585263D01*
X90535457Y-114538220D01*
X90506260Y-114487033D01*
X90479139Y-114432962D01*
X90454761Y-114377270D01*
X90433792Y-114321217D01*
X90430263Y-114310676D01*
X90426154Y-114298357D01*
X90422873Y-114288890D01*
X90420924Y-114283717D01*
X90420625Y-114283172D01*
X90417337Y-114283861D01*
X90408762Y-114285748D01*
X90396114Y-114288563D01*
X90380610Y-114292036D01*
X90376726Y-114292910D01*
X90285351Y-114311560D01*
X90190782Y-114327248D01*
X90094745Y-114339779D01*
X89998964Y-114348956D01*
X89905165Y-114354583D01*
X89817687Y-114356464D01*
X89741995Y-114356515D01*
X89740354Y-114367350D01*
X89739471Y-114375305D01*
X89738431Y-114387886D01*
X89737394Y-114403061D01*
X89736836Y-114412592D01*
X89731993Y-114465748D01*
X89723383Y-114520364D01*
X89711398Y-114574920D01*
X89696426Y-114627897D01*
X89678859Y-114677776D01*
X89659087Y-114723037D01*
X89654956Y-114731297D01*
X89632542Y-114770498D01*
X89607917Y-114805124D01*
X89581513Y-114834728D01*
X89553762Y-114858862D01*
X89525098Y-114877081D01*
X89505483Y-114885796D01*
X89487651Y-114890800D01*
X89467185Y-114894135D01*
X89446496Y-114895596D01*
X89427994Y-114894976D01*
X89418024Y-114893294D01*
X89383973Y-114881186D01*
X89351840Y-114862696D01*
X89321624Y-114837824D01*
X89293323Y-114806568D01*
X89266936Y-114768927D01*
X89243372Y-114726719D01*
X89221310Y-114677927D01*
X89202724Y-114626121D01*
X89187490Y-114570740D01*
X89175483Y-114511224D01*
X89166579Y-114447013D01*
X89160653Y-114377547D01*
X89159028Y-114346779D01*
X89156616Y-114292036D01*
X89106610Y-114280909D01*
X88994010Y-114254320D01*
X88886434Y-114225720D01*
X88782432Y-114194688D01*
X88680553Y-114160807D01*
X88638722Y-114145872D01*
X88620972Y-114139483D01*
X88605542Y-114134071D01*
X88593457Y-114129984D01*
X88585740Y-114127570D01*
X88583382Y-114127089D01*
X88582268Y-114130578D01*
X88579980Y-114139050D01*
X88576915Y-114151007D01*
X88575169Y-114158015D01*
X88560008Y-114212251D01*
X88541464Y-114266516D01*
X88520156Y-114319338D01*
X88496703Y-114369242D01*
X88471725Y-114414755D01*
X88458123Y-114436526D01*
X88428313Y-114478322D01*
X88397562Y-114514407D01*
X88366077Y-114544679D01*
X88334066Y-114569036D01*
X88301737Y-114587378D01*
X88269297Y-114599602D01*
X88236956Y-114605608D01*
X88204920Y-114605294D01*
X88173397Y-114598560D01*
X88147595Y-114587931D01*
X88127359Y-114574832D01*
X88106792Y-114556311D01*
X88086826Y-114533491D01*
X88068393Y-114507499D01*
X88052425Y-114479457D01*
X88045588Y-114464863D01*
X88029702Y-114423613D01*
X88017245Y-114380626D01*
X88008080Y-114335043D01*
X88002072Y-114286006D01*
X87999085Y-114232656D01*
X87998984Y-114174135D01*
X87999060Y-114170713D01*
X88002625Y-114101176D01*
X88010166Y-114035074D01*
X88022016Y-113970256D01*
X88038510Y-113904571D01*
X88042640Y-113890313D01*
X88050874Y-113862501D01*
X88028670Y-113848684D01*
X87997999Y-113829315D01*
X87966609Y-113808970D01*
X87935199Y-113788138D01*
X87904466Y-113767311D01*
X87875111Y-113746978D01*
X87847830Y-113727630D01*
X87823324Y-113709758D01*
X87802291Y-113693851D01*
X87785429Y-113680400D01*
X87773437Y-113669895D01*
X87772140Y-113668642D01*
X87740280Y-113632750D01*
X87714010Y-113593382D01*
X87693530Y-113550982D01*
X87679039Y-113505996D01*
X87670734Y-113458868D01*
X87669100Y-113437764D01*
X87669816Y-113388251D01*
X87676802Y-113340993D01*
X87690021Y-113296081D01*
X87709436Y-113253607D01*
X87735010Y-113213663D01*
X87766707Y-113176340D01*
X87779541Y-113163628D01*
X87815177Y-113133873D01*
X87853656Y-113109690D01*
X87895783Y-113090632D01*
X87931031Y-113079217D01*
X87952854Y-113074723D01*
X87979116Y-113071695D01*
X88007744Y-113070179D01*
X88036664Y-113070219D01*
X88063800Y-113071861D01*
X88087079Y-113075150D01*
X88090008Y-113075765D01*
X88137881Y-113089550D01*
X88182199Y-113108910D01*
X88222804Y-113133750D01*
X88259538Y-113163973D01*
X88292245Y-113199482D01*
X88292284Y-113199531D01*
X88306528Y-113218857D01*
X88320359Y-113240496D01*
X88332730Y-113262590D01*
X88342593Y-113283283D01*
X88348448Y-113299132D01*
X88350297Y-113304608D01*
X88352772Y-113309491D01*
X88356544Y-113314280D01*
X88362284Y-113319476D01*
X88370663Y-113325577D01*
X88382351Y-113333085D01*
X88398018Y-113342498D01*
X88418335Y-113354316D01*
X88436498Y-113364754D01*
X88520759Y-113411310D01*
X88604274Y-113453774D01*
X88689401Y-113493287D01*
X88778499Y-113530988D01*
X88790993Y-113536014D01*
X88888997Y-113572714D01*
X88991851Y-113606499D01*
X89098268Y-113637058D01*
X89206961Y-113664082D01*
X89316641Y-113687259D01*
X89426021Y-113706280D01*
X89533814Y-113720834D01*
X89576671Y-113725382D01*
X89602184Y-113727379D01*
X89633052Y-113728995D01*
X89668132Y-113730231D01*
X89706282Y-113731085D01*
X89746359Y-113731559D01*
X89787219Y-113731653D01*
X89827719Y-113731366D01*
X89866716Y-113730699D01*
X89903067Y-113729651D01*
X89935630Y-113728223D01*
X89963260Y-113726415D01*
X89975057Y-113725350D01*
X90092050Y-113710787D01*
X90205106Y-113691214D01*
X90314900Y-113666438D01*
X90422102Y-113636264D01*
X90527387Y-113600502D01*
X90631426Y-113558958D01*
X90734894Y-113511439D01*
X90753492Y-113502244D01*
X90862421Y-113444197D01*
X90967435Y-113380830D01*
X91068953Y-113311877D01*
X91160475Y-113242596D01*
X91208021Y-113204754D01*
X91211769Y-113179118D01*
X91221961Y-113131403D01*
X91237959Y-113086486D01*
X91259383Y-113044767D01*
X91285855Y-113006645D01*
X91316993Y-112972520D01*
X91352417Y-112942792D01*
X91391749Y-112917861D01*
X91434609Y-112898126D01*
X91480615Y-112883987D01*
X91495256Y-112880841D01*
X91514260Y-112878205D01*
X91537323Y-112876593D01*
X91562143Y-112876028D01*
X91586416Y-112876530D01*
G37*
G36*
X89769423Y-107348341D02*
G01*
X89826557Y-107355368D01*
X89838208Y-107357599D01*
X89894090Y-107372326D01*
X89947604Y-107393237D01*
X89998489Y-107420189D01*
X90046485Y-107453041D01*
X90091331Y-107491651D01*
X90100206Y-107500360D01*
X90138003Y-107542063D01*
X90170051Y-107585809D01*
X90196749Y-107632338D01*
X90218496Y-107682391D01*
X90235690Y-107736710D01*
X90242463Y-107764605D01*
X90246335Y-107787950D01*
X90248932Y-107816009D01*
X90250254Y-107846952D01*
X90250303Y-107878946D01*
X90249078Y-107910161D01*
X90246581Y-107938768D01*
X90242811Y-107962933D01*
X90242407Y-107964840D01*
X90226824Y-108022280D01*
X90205845Y-108076808D01*
X90179752Y-108127943D01*
X90148828Y-108175200D01*
X90113354Y-108218096D01*
X90073614Y-108256150D01*
X90070605Y-108258681D01*
X90045066Y-108279984D01*
X90045066Y-108571222D01*
X90045066Y-108862461D01*
X90545132Y-108862461D01*
X91045197Y-108862461D01*
X91045197Y-108594498D01*
X91045197Y-108326535D01*
X91027695Y-108312964D01*
X90994067Y-108283403D01*
X90961960Y-108248416D01*
X90932216Y-108209213D01*
X90905679Y-108167000D01*
X90883192Y-108122987D01*
X90867119Y-108082851D01*
X90858192Y-108055781D01*
X90851426Y-108031698D01*
X90846550Y-108008863D01*
X90843291Y-107985540D01*
X90841379Y-107959992D01*
X90840540Y-107930481D01*
X90840437Y-107912336D01*
X90840541Y-107887333D01*
X90840919Y-107867582D01*
X90841674Y-107851673D01*
X90842908Y-107838193D01*
X90844721Y-107825730D01*
X90847216Y-107812872D01*
X90847799Y-107810164D01*
X90863312Y-107752500D01*
X90883958Y-107698930D01*
X90909967Y-107649029D01*
X90941567Y-107602373D01*
X90978990Y-107558538D01*
X90990030Y-107547222D01*
X91033361Y-107508069D01*
X91079014Y-107474922D01*
X91127561Y-107447468D01*
X91179570Y-107425398D01*
X91235611Y-107408400D01*
X91250765Y-107404806D01*
X91263037Y-107402244D01*
X91274710Y-107400338D01*
X91287105Y-107398994D01*
X91301543Y-107398117D01*
X91319345Y-107397615D01*
X91341832Y-107397391D01*
X91355238Y-107397355D01*
X91380249Y-107397403D01*
X91399933Y-107397680D01*
X91415628Y-107398283D01*
X91428675Y-107399307D01*
X91440412Y-107400849D01*
X91452178Y-107403006D01*
X91461520Y-107405017D01*
X91516648Y-107419960D01*
X91567270Y-107439292D01*
X91614297Y-107463513D01*
X91658638Y-107493120D01*
X91701204Y-107528615D01*
X91720516Y-107547134D01*
X91754269Y-107583287D01*
X91782521Y-107619205D01*
X91806222Y-107656339D01*
X91826322Y-107696145D01*
X91840356Y-107730646D01*
X91857662Y-107786735D01*
X91868507Y-107843704D01*
X91872949Y-107901055D01*
X91871046Y-107958290D01*
X91862857Y-108014912D01*
X91848441Y-108070422D01*
X91827856Y-108124322D01*
X91801160Y-108176115D01*
X91784967Y-108201923D01*
X91773900Y-108217178D01*
X91759722Y-108234791D01*
X91743601Y-108253486D01*
X91726703Y-108271989D01*
X91710193Y-108289026D01*
X91695238Y-108303321D01*
X91683004Y-108313599D01*
X91682388Y-108314056D01*
X91668770Y-108324057D01*
X91668691Y-108593259D01*
X91668613Y-108862461D01*
X92059518Y-108862461D01*
X92122030Y-108862467D01*
X92178278Y-108862495D01*
X92228665Y-108862557D01*
X92273593Y-108862668D01*
X92313466Y-108862841D01*
X92348686Y-108863088D01*
X92379658Y-108863423D01*
X92406782Y-108863860D01*
X92430464Y-108864412D01*
X92451105Y-108865092D01*
X92469109Y-108865914D01*
X92484879Y-108866891D01*
X92498818Y-108868036D01*
X92511329Y-108869363D01*
X92522815Y-108870885D01*
X92533679Y-108872616D01*
X92544324Y-108874568D01*
X92555152Y-108876756D01*
X92566568Y-108879191D01*
X92566950Y-108879274D01*
X92636725Y-108897728D01*
X92703714Y-108922154D01*
X92767637Y-108952345D01*
X92828216Y-108988097D01*
X92885173Y-109029204D01*
X92938228Y-109075458D01*
X92987103Y-109126654D01*
X93031518Y-109182587D01*
X93071195Y-109243049D01*
X93080058Y-109258348D01*
X93106044Y-109309723D01*
X93128791Y-109365742D01*
X93147827Y-109424982D01*
X93162682Y-109486022D01*
X93170857Y-109532549D01*
X93171791Y-109539598D01*
X93172625Y-109547504D01*
X93173366Y-109556689D01*
X93174023Y-109567573D01*
X93174604Y-109580580D01*
X93175116Y-109596131D01*
X93175567Y-109614647D01*
X93175966Y-109636551D01*
X93176320Y-109662264D01*
X93176638Y-109692207D01*
X93176926Y-109726804D01*
X93177194Y-109766475D01*
X93177449Y-109811642D01*
X93177698Y-109862728D01*
X93177894Y-109906765D01*
X93179336Y-110242642D01*
X93416893Y-110242642D01*
X93460202Y-110242675D01*
X93504676Y-110242769D01*
X93549365Y-110242920D01*
X93593319Y-110243121D01*
X93635587Y-110243367D01*
X93675220Y-110243652D01*
X93711267Y-110243970D01*
X93742777Y-110244316D01*
X93768800Y-110244685D01*
X93774177Y-110244777D01*
X93893905Y-110246911D01*
X93916705Y-110220070D01*
X93951792Y-110183380D01*
X93992035Y-110149448D01*
X94036201Y-110119115D01*
X94083059Y-110093221D01*
X94131378Y-110072608D01*
X94134069Y-110071638D01*
X94147138Y-110067400D01*
X94164278Y-110062431D01*
X94183045Y-110057417D01*
X94197410Y-110053876D01*
X94211404Y-110050681D01*
X94223379Y-110048305D01*
X94234738Y-110046626D01*
X94246882Y-110045527D01*
X94261211Y-110044888D01*
X94279127Y-110044589D01*
X94302031Y-110044511D01*
X94307292Y-110044512D01*
X94332451Y-110044617D01*
X94352295Y-110044976D01*
X94368174Y-110045684D01*
X94381437Y-110046837D01*
X94393436Y-110048532D01*
X94405521Y-110050864D01*
X94409834Y-110051807D01*
X94468245Y-110068034D01*
X94523324Y-110089770D01*
X94574783Y-110116798D01*
X94622333Y-110148901D01*
X94665684Y-110185861D01*
X94704547Y-110227461D01*
X94738634Y-110273483D01*
X94765438Y-110319368D01*
X94789470Y-110372699D01*
X94807456Y-110427729D01*
X94819279Y-110483824D01*
X94824824Y-110540350D01*
X94823976Y-110596674D01*
X94821110Y-110624626D01*
X94810181Y-110682791D01*
X94793292Y-110738422D01*
X94770702Y-110791156D01*
X94742667Y-110840628D01*
X94709445Y-110886476D01*
X94671292Y-110928335D01*
X94628467Y-110965843D01*
X94581225Y-110998634D01*
X94540656Y-111021113D01*
X94492761Y-111042620D01*
X94446243Y-111058540D01*
X94399508Y-111069255D01*
X94350964Y-111075147D01*
X94308959Y-111076647D01*
X94250111Y-111073550D01*
X94192610Y-111064102D01*
X94136930Y-111048452D01*
X94083544Y-111026751D01*
X94032926Y-110999149D01*
X94004720Y-110980277D01*
X93988287Y-110967494D01*
X93969250Y-110951140D01*
X93949268Y-110932772D01*
X93929997Y-110913947D01*
X93913098Y-110896221D01*
X93903596Y-110885336D01*
X93890571Y-110869610D01*
X93534691Y-110867319D01*
X93178811Y-110865029D01*
X93178811Y-111360061D01*
X93178811Y-111855094D01*
X93381337Y-111857304D01*
X93423881Y-111857733D01*
X93469516Y-111858130D01*
X93516896Y-111858487D01*
X93564673Y-111858796D01*
X93611498Y-111859049D01*
X93656025Y-111859238D01*
X93696905Y-111859356D01*
X93732791Y-111859395D01*
X93740551Y-111859392D01*
X93897238Y-111859268D01*
X93908907Y-111844119D01*
X93927310Y-111822845D01*
X93950484Y-111800172D01*
X93977035Y-111777241D01*
X94005567Y-111755191D01*
X94034686Y-111735164D01*
X94062260Y-111718701D01*
X94101716Y-111699890D01*
X94145175Y-111684010D01*
X94190996Y-111671426D01*
X94237538Y-111662507D01*
X94283160Y-111657617D01*
X94326220Y-111657124D01*
X94335542Y-111657668D01*
X94395955Y-111665191D01*
X94453763Y-111678719D01*
X94508739Y-111698148D01*
X94560653Y-111723373D01*
X94609276Y-111754289D01*
X94654380Y-111790791D01*
X94679310Y-111814970D01*
X94717646Y-111859342D01*
X94750305Y-111906917D01*
X94777185Y-111957245D01*
X94798186Y-112009872D01*
X94813205Y-112064347D01*
X94822142Y-112120216D01*
X94824895Y-112177030D01*
X94821362Y-112234334D01*
X94811443Y-112291677D01*
X94797378Y-112341732D01*
X94778228Y-112390791D01*
X94754437Y-112436407D01*
X94725420Y-112479508D01*
X94690592Y-112521021D01*
X94672562Y-112539738D01*
X94633504Y-112575728D01*
X94594015Y-112605879D01*
X94552842Y-112630967D01*
X94508737Y-112651770D01*
X94469049Y-112666326D01*
X94437022Y-112676018D01*
X94407817Y-112683014D01*
X94379204Y-112687658D01*
X94348952Y-112690296D01*
X94314831Y-112691271D01*
X94307292Y-112691297D01*
X94249001Y-112688478D01*
X94193680Y-112679887D01*
X94140669Y-112665325D01*
X94089309Y-112644589D01*
X94038939Y-112617481D01*
X94015585Y-112602591D01*
X94000252Y-112591437D01*
X93982508Y-112577091D01*
X93963662Y-112560753D01*
X93945024Y-112543627D01*
X93927904Y-112526913D01*
X93913612Y-112511813D01*
X93903906Y-112500137D01*
X93897727Y-112492511D01*
X93891999Y-112488239D01*
X93884243Y-112486061D01*
X93873902Y-112484890D01*
X93867806Y-112484628D01*
X93855522Y-112484355D01*
X93837530Y-112484074D01*
X93814307Y-112483790D01*
X93786334Y-112483506D01*
X93754090Y-112483227D01*
X93718055Y-112482957D01*
X93678706Y-112482699D01*
X93636525Y-112482458D01*
X93591989Y-112482237D01*
X93545579Y-112482040D01*
X93516355Y-112481933D01*
X93178811Y-112480773D01*
X93178811Y-113054724D01*
X93178811Y-113628675D01*
X93289369Y-113630881D01*
X93311708Y-113631254D01*
X93339841Y-113631604D01*
X93372896Y-113631928D01*
X93410001Y-113632219D01*
X93450283Y-113632472D01*
X93492869Y-113632682D01*
X93536886Y-113632845D01*
X93581462Y-113632954D01*
X93625725Y-113633005D01*
X93648583Y-113633007D01*
X93897238Y-113632927D01*
X93916478Y-113609731D01*
X93949600Y-113574488D01*
X93988008Y-113541795D01*
X94030598Y-113512292D01*
X94076267Y-113486619D01*
X94123912Y-113465418D01*
X94172430Y-113449329D01*
X94206225Y-113441470D01*
X94265593Y-113433368D01*
X94323901Y-113431845D01*
X94381249Y-113436911D01*
X94437740Y-113448583D01*
X94493475Y-113466872D01*
X94537322Y-113486149D01*
X94575694Y-113506784D01*
X94610466Y-113529653D01*
X94643589Y-113556163D01*
X94674053Y-113584747D01*
X94713057Y-113628016D01*
X94746107Y-113674083D01*
X94773428Y-113723340D01*
X94795244Y-113776182D01*
X94808921Y-113821445D01*
X94820134Y-113878013D01*
X94824875Y-113934904D01*
X94823288Y-113991604D01*
X94815517Y-114047598D01*
X94801703Y-114102374D01*
X94781991Y-114155415D01*
X94756524Y-114206210D01*
X94725446Y-114254243D01*
X94688898Y-114299001D01*
X94670463Y-114318177D01*
X94626812Y-114356693D01*
X94579272Y-114389803D01*
X94527888Y-114417481D01*
X94472710Y-114439703D01*
X94413785Y-114456443D01*
X94409834Y-114457339D01*
X94397418Y-114459906D01*
X94385541Y-114461804D01*
X94372853Y-114463128D01*
X94358003Y-114463975D01*
X94339642Y-114464441D01*
X94316418Y-114464620D01*
X94307292Y-114464634D01*
X94283225Y-114464585D01*
X94264424Y-114464339D01*
X94249491Y-114463776D01*
X94237024Y-114462777D01*
X94225625Y-114461224D01*
X94213892Y-114458996D01*
X94200425Y-114455976D01*
X94197534Y-114455297D01*
X94139015Y-114438455D01*
X94084597Y-114416424D01*
X94034058Y-114389094D01*
X93987177Y-114356352D01*
X93966517Y-114339215D01*
X93952475Y-114326279D01*
X93937296Y-114311206D01*
X93922432Y-114295539D01*
X93909336Y-114280819D01*
X93899460Y-114268589D01*
X93897760Y-114266236D01*
X93892547Y-114258793D01*
X93535919Y-114256814D01*
X93179292Y-114254835D01*
X93177894Y-114641553D01*
X93177672Y-114702748D01*
X93177460Y-114757688D01*
X93177241Y-114806785D01*
X93176997Y-114850451D01*
X93176711Y-114889097D01*
X93176364Y-114923137D01*
X93175940Y-114952981D01*
X93175421Y-114979043D01*
X93174789Y-115001733D01*
X93174027Y-115021465D01*
X93173117Y-115038651D01*
X93172042Y-115053702D01*
X93170783Y-115067030D01*
X93169324Y-115079048D01*
X93167647Y-115090168D01*
X93165735Y-115100802D01*
X93163569Y-115111361D01*
X93161132Y-115122259D01*
X93158407Y-115133906D01*
X93156581Y-115141618D01*
X93136878Y-115210714D01*
X93111292Y-115276933D01*
X93080081Y-115339978D01*
X93043502Y-115399552D01*
X93001814Y-115455357D01*
X92955275Y-115507098D01*
X92904143Y-115554475D01*
X92848676Y-115597193D01*
X92789132Y-115634954D01*
X92725770Y-115667461D01*
X92684794Y-115684803D01*
X92641136Y-115700066D01*
X92592631Y-115713787D01*
X92541017Y-115725482D01*
X92532059Y-115727234D01*
X92525945Y-115728381D01*
X92520022Y-115729403D01*
X92513882Y-115730309D01*
X92507119Y-115731108D01*
X92499325Y-115731807D01*
X92490095Y-115732416D01*
X92479020Y-115732943D01*
X92465696Y-115733397D01*
X92449713Y-115733786D01*
X92430667Y-115734119D01*
X92408150Y-115734405D01*
X92381755Y-115734651D01*
X92351076Y-115734867D01*
X92315705Y-115735062D01*
X92275236Y-115735243D01*
X92229262Y-115735420D01*
X92177377Y-115735601D01*
X92127839Y-115735765D01*
X91761958Y-115736971D01*
X91762084Y-116029372D01*
X91762211Y-116321773D01*
X91777318Y-116333441D01*
X91793187Y-116347031D01*
X91811319Y-116364734D01*
X91830364Y-116385062D01*
X91848975Y-116406524D01*
X91865802Y-116427629D01*
X91878167Y-116444877D01*
X91908474Y-116495991D01*
X91932533Y-116549096D01*
X91950313Y-116603773D01*
X91961785Y-116659605D01*
X91966918Y-116716176D01*
X91965681Y-116773068D01*
X91958044Y-116829864D01*
X91943977Y-116886147D01*
X91923449Y-116941499D01*
X91915539Y-116958887D01*
X91887833Y-117009486D01*
X91854875Y-117056249D01*
X91817085Y-117098843D01*
X91774883Y-117136938D01*
X91728687Y-117170203D01*
X91678920Y-117198306D01*
X91625998Y-117220917D01*
X91570344Y-117237704D01*
X91558812Y-117240357D01*
X91501593Y-117249484D01*
X91444114Y-117252079D01*
X91386861Y-117248235D01*
X91330317Y-117238046D01*
X91274967Y-117221605D01*
X91221295Y-117199006D01*
X91169786Y-117170343D01*
X91158546Y-117163068D01*
X91136813Y-117147069D01*
X91113083Y-117126950D01*
X91088791Y-117104144D01*
X91065373Y-117080083D01*
X91044263Y-117056197D01*
X91026896Y-117033917D01*
X91022140Y-117027023D01*
X90991074Y-116974387D01*
X90966260Y-116919535D01*
X90947549Y-116862113D01*
X90941150Y-116835666D01*
X90938468Y-116822322D01*
X90936511Y-116809645D01*
X90935171Y-116796186D01*
X90934342Y-116780492D01*
X90933919Y-116761111D01*
X90933795Y-116736593D01*
X90933795Y-116735161D01*
X90934240Y-116701916D01*
X90935760Y-116673465D01*
X90938628Y-116647980D01*
X90943120Y-116623634D01*
X90949511Y-116598601D01*
X90958076Y-116571054D01*
X90958837Y-116568766D01*
X90977939Y-116520646D01*
X91002471Y-116473632D01*
X91031606Y-116428947D01*
X91064520Y-116387812D01*
X91100387Y-116351448D01*
X91113004Y-116340476D01*
X91138543Y-116319173D01*
X91138543Y-116027935D01*
X91138543Y-115736696D01*
X90591805Y-115736696D01*
X90045066Y-115736696D01*
X90045066Y-116027935D01*
X90045066Y-116319173D01*
X90070605Y-116340476D01*
X90110641Y-116378163D01*
X90146430Y-116420728D01*
X90177690Y-116467688D01*
X90204140Y-116518560D01*
X90225495Y-116572862D01*
X90241474Y-116630108D01*
X90242407Y-116634317D01*
X90246340Y-116658349D01*
X90248962Y-116687057D01*
X90250272Y-116718584D01*
X90250272Y-116751068D01*
X90248960Y-116782650D01*
X90246337Y-116811471D01*
X90242404Y-116835666D01*
X90226776Y-116893268D01*
X90205470Y-116947946D01*
X90178710Y-116999267D01*
X90146722Y-117046799D01*
X90110481Y-117089327D01*
X90066696Y-117130638D01*
X90020065Y-117165923D01*
X89970553Y-117195197D01*
X89918125Y-117218477D01*
X89862746Y-117235780D01*
X89804383Y-117247122D01*
X89774366Y-117250537D01*
X89719897Y-117252088D01*
X89664783Y-117247371D01*
X89609859Y-117236616D01*
X89555963Y-117220057D01*
X89503930Y-117197925D01*
X89454598Y-117170451D01*
X89432655Y-117155811D01*
X89411223Y-117139200D01*
X89387868Y-117118583D01*
X89364224Y-117095594D01*
X89341925Y-117071867D01*
X89322603Y-117049035D01*
X89312709Y-117035864D01*
X89281757Y-116986442D01*
X89256823Y-116934753D01*
X89237897Y-116881298D01*
X89224966Y-116826578D01*
X89218021Y-116771092D01*
X89217050Y-116715341D01*
X89222043Y-116659825D01*
X89232988Y-116605046D01*
X89249874Y-116551502D01*
X89272691Y-116499695D01*
X89301427Y-116450126D01*
X89326292Y-116415440D01*
X89334857Y-116405133D01*
X89345908Y-116392798D01*
X89358563Y-116379313D01*
X89371940Y-116365557D01*
X89385158Y-116352409D01*
X89397334Y-116340746D01*
X89407587Y-116331448D01*
X89415036Y-116325392D01*
X89418645Y-116323440D01*
X89419136Y-116320168D01*
X89419595Y-116310600D01*
X89420018Y-116295107D01*
X89420400Y-116274059D01*
X89420739Y-116247829D01*
X89421031Y-116216787D01*
X89421271Y-116181305D01*
X89421456Y-116141753D01*
X89421581Y-116098504D01*
X89421644Y-116051927D01*
X89421651Y-116030068D01*
X89421651Y-115736696D01*
X88876579Y-115736696D01*
X88331508Y-115736696D01*
X88331508Y-116028617D01*
X88331508Y-116320537D01*
X88342343Y-116329392D01*
X88385937Y-116369155D01*
X88424280Y-116412657D01*
X88457237Y-116459438D01*
X88484672Y-116509038D01*
X88506449Y-116560999D01*
X88522434Y-116614860D01*
X88532491Y-116670163D01*
X88536484Y-116726446D01*
X88534279Y-116783252D01*
X88525741Y-116840119D01*
X88510733Y-116896590D01*
X88510009Y-116898792D01*
X88500772Y-116923293D01*
X88488515Y-116950832D01*
X88474350Y-116979216D01*
X88459387Y-117006248D01*
X88444738Y-117029734D01*
X88441023Y-117035122D01*
X88423671Y-117057476D01*
X88402292Y-117081635D01*
X88378552Y-117105934D01*
X88354114Y-117128706D01*
X88330647Y-117148286D01*
X88319762Y-117156383D01*
X88282594Y-117179910D01*
X88241178Y-117201299D01*
X88197631Y-117219632D01*
X88154073Y-117233992D01*
X88123147Y-117241508D01*
X88077644Y-117248987D01*
X88034505Y-117252334D01*
X87990983Y-117251700D01*
X87968156Y-117249930D01*
X87932335Y-117245017D01*
X87895256Y-117236882D01*
X87858112Y-117226125D01*
X87804955Y-117205778D01*
X87754723Y-117179657D01*
X87707822Y-117148160D01*
X87664660Y-117111688D01*
X87625641Y-117070639D01*
X87591173Y-117025412D01*
X87561661Y-116976406D01*
X87537512Y-116924022D01*
X87529962Y-116903705D01*
X87520896Y-116876251D01*
X87514061Y-116851743D01*
X87509176Y-116828392D01*
X87505958Y-116804413D01*
X87504124Y-116778016D01*
X87503393Y-116747415D01*
X87503345Y-116735161D01*
X87503790Y-116701916D01*
X87505310Y-116673465D01*
X87508178Y-116647980D01*
X87512670Y-116623634D01*
X87519061Y-116598601D01*
X87527625Y-116571054D01*
X87528387Y-116568766D01*
X87547489Y-116520646D01*
X87572021Y-116473632D01*
X87601156Y-116428947D01*
X87634070Y-116387812D01*
X87669937Y-116351448D01*
X87682554Y-116340476D01*
X87708093Y-116319173D01*
X87708093Y-116027935D01*
X87708093Y-115736696D01*
X87417201Y-115736696D01*
X87362415Y-115736681D01*
X87313811Y-115736621D01*
X87270900Y-115736497D01*
X87233197Y-115736288D01*
X87200214Y-115735975D01*
X87171465Y-115735537D01*
X87146464Y-115734954D01*
X87124723Y-115734206D01*
X87105756Y-115733274D01*
X87089076Y-115732136D01*
X87074196Y-115730774D01*
X87060630Y-115729166D01*
X87047891Y-115727292D01*
X87035492Y-115725134D01*
X87022947Y-115722670D01*
X87009779Y-115719883D01*
X86941445Y-115701748D01*
X86875695Y-115677671D01*
X86812851Y-115647956D01*
X86753234Y-115612907D01*
X86697167Y-115572829D01*
X86644972Y-115528026D01*
X86596971Y-115478802D01*
X86553487Y-115425462D01*
X86514841Y-115368310D01*
X86481356Y-115307651D01*
X86453354Y-115243789D01*
X86431158Y-115177029D01*
X86429718Y-115171848D01*
X86425376Y-115155794D01*
X86421503Y-115140780D01*
X86418070Y-115126345D01*
X86415052Y-115112029D01*
X86412421Y-115097370D01*
X86410151Y-115081910D01*
X86408216Y-115065187D01*
X86406588Y-115046740D01*
X86405240Y-115026109D01*
X86404147Y-115002834D01*
X86403281Y-114976454D01*
X86402615Y-114946508D01*
X86402124Y-114912537D01*
X86401779Y-114874079D01*
X86401555Y-114830673D01*
X86401424Y-114781860D01*
X86401360Y-114727179D01*
X86401341Y-114682933D01*
X86401255Y-114364266D01*
X86270692Y-114362058D01*
X86242867Y-114361650D01*
X86209472Y-114361267D01*
X86171605Y-114360915D01*
X86130362Y-114360601D01*
X86086842Y-114360333D01*
X86042141Y-114360117D01*
X85997358Y-114359960D01*
X85953588Y-114359869D01*
X85922863Y-114359849D01*
X85705598Y-114359849D01*
X85682544Y-114386910D01*
X85646517Y-114424414D01*
X85605365Y-114458720D01*
X85560151Y-114489120D01*
X85511934Y-114514909D01*
X85461775Y-114535379D01*
X85457504Y-114536834D01*
X85429309Y-114545658D01*
X85403366Y-114552216D01*
X85377611Y-114556859D01*
X85349982Y-114559936D01*
X85318417Y-114561794D01*
X85307778Y-114562170D01*
X85284288Y-114562756D01*
X85265580Y-114562808D01*
X85249783Y-114562228D01*
X85235024Y-114560915D01*
X85219433Y-114558773D01*
X85208194Y-114556928D01*
X85151706Y-114544072D01*
X85097285Y-114525319D01*
X85045535Y-114501004D01*
X84997061Y-114471457D01*
X84952467Y-114437014D01*
X84912359Y-114398005D01*
X84905347Y-114390165D01*
X84869178Y-114343999D01*
X84838950Y-114295386D01*
X84814612Y-114244777D01*
X84796111Y-114192627D01*
X84783395Y-114139390D01*
X84776410Y-114085519D01*
X84775105Y-114031468D01*
X84779427Y-113977691D01*
X84789324Y-113924641D01*
X84804742Y-113872773D01*
X84825630Y-113822539D01*
X84851935Y-113774394D01*
X84883604Y-113728792D01*
X84920585Y-113686185D01*
X84962826Y-113647028D01*
X84994145Y-113622876D01*
X85036066Y-113596426D01*
X85082472Y-113573477D01*
X85131845Y-113554623D01*
X85182670Y-113540458D01*
X85223777Y-113532843D01*
X85240853Y-113531233D01*
X85262574Y-113530390D01*
X85287273Y-113530266D01*
X85313284Y-113530809D01*
X85338940Y-113531968D01*
X85362576Y-113533695D01*
X85382524Y-113535937D01*
X85394456Y-113538012D01*
X85417373Y-113543801D01*
X85443090Y-113551520D01*
X85469489Y-113560438D01*
X85494456Y-113569824D01*
X85515872Y-113578947D01*
X85523180Y-113582465D01*
X85562833Y-113604890D01*
X85601747Y-113631511D01*
X85638275Y-113661040D01*
X85670772Y-113692190D01*
X85687461Y-113710895D01*
X85708763Y-113736434D01*
X86055009Y-113736434D01*
X86401255Y-113736434D01*
X86401255Y-113176906D01*
X86401255Y-112617379D01*
X86213730Y-112615169D01*
X86172556Y-112614720D01*
X86128203Y-112614302D01*
X86082095Y-112613924D01*
X86035658Y-112613594D01*
X85990315Y-112613324D01*
X85947492Y-112613121D01*
X85908613Y-112612995D01*
X85877817Y-112612956D01*
X85729429Y-112612953D01*
X85714635Y-112631493D01*
X85683899Y-112665519D01*
X85647797Y-112697761D01*
X85607560Y-112727387D01*
X85564420Y-112753562D01*
X85519611Y-112775454D01*
X85479250Y-112790683D01*
X85454873Y-112798318D01*
X85433986Y-112804159D01*
X85414999Y-112808437D01*
X85396318Y-112811381D01*
X85376352Y-112813221D01*
X85353509Y-112814189D01*
X85326196Y-112814515D01*
X85314445Y-112814518D01*
X85289889Y-112814411D01*
X85270654Y-112814116D01*
X85255394Y-112813523D01*
X85242765Y-112812522D01*
X85231420Y-112811005D01*
X85220015Y-112808862D01*
X85207202Y-112805983D01*
X85205935Y-112805684D01*
X85147845Y-112788735D01*
X85093201Y-112766254D01*
X85042260Y-112738443D01*
X84995279Y-112705503D01*
X84952517Y-112667634D01*
X84914230Y-112625039D01*
X84880676Y-112577916D01*
X84854474Y-112531276D01*
X84838256Y-112496351D01*
X84825679Y-112463592D01*
X84815789Y-112430335D01*
X84810851Y-112409507D01*
X84801824Y-112352935D01*
X87024626Y-112352935D01*
X87024630Y-112469149D01*
X87024639Y-112585082D01*
X87024654Y-112700539D01*
X87024674Y-112815328D01*
X87024700Y-112929257D01*
X87024732Y-113042131D01*
X87024769Y-113153758D01*
X87024811Y-113263945D01*
X87024859Y-113372499D01*
X87024913Y-113479226D01*
X87024972Y-113583934D01*
X87025037Y-113686429D01*
X87025107Y-113786520D01*
X87025183Y-113884011D01*
X87025265Y-113978712D01*
X87025352Y-114070427D01*
X87025444Y-114158966D01*
X87025542Y-114244133D01*
X87025646Y-114325737D01*
X87025755Y-114403584D01*
X87025870Y-114477482D01*
X87025991Y-114547236D01*
X87026117Y-114612655D01*
X87026248Y-114673545D01*
X87026385Y-114729713D01*
X87026528Y-114780966D01*
X87026676Y-114827112D01*
X87026830Y-114867956D01*
X87026990Y-114903306D01*
X87027155Y-114932969D01*
X87027326Y-114956751D01*
X87027502Y-114974461D01*
X87027684Y-114985904D01*
X87027871Y-114990888D01*
X87027886Y-114991001D01*
X87035897Y-115019900D01*
X87050094Y-115046383D01*
X87066209Y-115066185D01*
X87088859Y-115086215D01*
X87113380Y-115100394D01*
X87135033Y-115108005D01*
X87136742Y-115108301D01*
X87139714Y-115108585D01*
X87144082Y-115108857D01*
X87149978Y-115109117D01*
X87157534Y-115109367D01*
X87166882Y-115109605D01*
X87178155Y-115109833D01*
X87191485Y-115110050D01*
X87207005Y-115110258D01*
X87224846Y-115110455D01*
X87245141Y-115110643D01*
X87268023Y-115110822D01*
X87293623Y-115110991D01*
X87322074Y-115111151D01*
X87353508Y-115111303D01*
X87388057Y-115111447D01*
X87425854Y-115111582D01*
X87467032Y-115111709D01*
X87511721Y-115111829D01*
X87560055Y-115111942D01*
X87612166Y-115112047D01*
X87668187Y-115112146D01*
X87728249Y-115112238D01*
X87792484Y-115112323D01*
X87861026Y-115112403D01*
X87934006Y-115112476D01*
X88011557Y-115112544D01*
X88093811Y-115112607D01*
X88180900Y-115112664D01*
X88272956Y-115112717D01*
X88370113Y-115112765D01*
X88472501Y-115112809D01*
X88580255Y-115112849D01*
X88693504Y-115112885D01*
X88812383Y-115112917D01*
X88937024Y-115112946D01*
X89067558Y-115112972D01*
X89204118Y-115112995D01*
X89346836Y-115113015D01*
X89495844Y-115113033D01*
X89651276Y-115113050D01*
X89788499Y-115113062D01*
X89948697Y-115113074D01*
X90102362Y-115113084D01*
X90249630Y-115113091D01*
X90390635Y-115113096D01*
X90525512Y-115113097D01*
X90654396Y-115113094D01*
X90777422Y-115113088D01*
X90894726Y-115113078D01*
X91006441Y-115113063D01*
X91112703Y-115113044D01*
X91213647Y-115113020D01*
X91309408Y-115112992D01*
X91400120Y-115112958D01*
X91485919Y-115112918D01*
X91566940Y-115112873D01*
X91643317Y-115112822D01*
X91715186Y-115112765D01*
X91782681Y-115112701D01*
X91845937Y-115112630D01*
X91905089Y-115112552D01*
X91960273Y-115112467D01*
X92011623Y-115112375D01*
X92059274Y-115112275D01*
X92103361Y-115112167D01*
X92144019Y-115112050D01*
X92181382Y-115111925D01*
X92215587Y-115111792D01*
X92246767Y-115111649D01*
X92275058Y-115111497D01*
X92300594Y-115111336D01*
X92323511Y-115111165D01*
X92343944Y-115110984D01*
X92362027Y-115110792D01*
X92377895Y-115110591D01*
X92391684Y-115110378D01*
X92403528Y-115110154D01*
X92413562Y-115109920D01*
X92421921Y-115109673D01*
X92428740Y-115109415D01*
X92434154Y-115109145D01*
X92438298Y-115108863D01*
X92441307Y-115108568D01*
X92443316Y-115108260D01*
X92443847Y-115108139D01*
X92471970Y-115097493D01*
X92497173Y-115081086D01*
X92518895Y-115059393D01*
X92536573Y-115032890D01*
X92539491Y-115027223D01*
X92550395Y-115005074D01*
X92550395Y-112299579D01*
X92550395Y-109594083D01*
X92538987Y-109570817D01*
X92523309Y-109545681D01*
X92503049Y-109523930D01*
X92479339Y-109506451D01*
X92453310Y-109494128D01*
X92434512Y-109489080D01*
X92429307Y-109488743D01*
X92417543Y-109488428D01*
X92399327Y-109488137D01*
X92374766Y-109487870D01*
X92343970Y-109487626D01*
X92307045Y-109487406D01*
X92264100Y-109487211D01*
X92215242Y-109487040D01*
X92160579Y-109486894D01*
X92100219Y-109486773D01*
X92034270Y-109486678D01*
X91962840Y-109486608D01*
X91886036Y-109486564D01*
X91803966Y-109486546D01*
X91716739Y-109486555D01*
X91624461Y-109486590D01*
X91527242Y-109486652D01*
X91470583Y-109486699D01*
X90524122Y-109487543D01*
X90562131Y-109503919D01*
X90653468Y-109546545D01*
X90744297Y-109595348D01*
X90833993Y-109649840D01*
X90921929Y-109709533D01*
X91007481Y-109773938D01*
X91090024Y-109842567D01*
X91168933Y-109914930D01*
X91243582Y-109990539D01*
X91313347Y-110068905D01*
X91362165Y-110129294D01*
X91428385Y-110220222D01*
X91488952Y-110314480D01*
X91543750Y-110411794D01*
X91592661Y-110511892D01*
X91635571Y-110614501D01*
X91672362Y-110719347D01*
X91702920Y-110826157D01*
X91727127Y-110934660D01*
X91741638Y-111021077D01*
X91753835Y-111126185D01*
X91760233Y-111231995D01*
X91760812Y-111338871D01*
X91755549Y-111447177D01*
X91744422Y-111557279D01*
X91727411Y-111669541D01*
X91704494Y-111784327D01*
X91693631Y-111831184D01*
X91665676Y-111939687D01*
X91635285Y-112042731D01*
X91602108Y-112141191D01*
X91565797Y-112235941D01*
X91526004Y-112327855D01*
X91482379Y-112417807D01*
X91434574Y-112506671D01*
X91401101Y-112564251D01*
X91387841Y-112586173D01*
X91374576Y-112607546D01*
X91360753Y-112629202D01*
X91345819Y-112651972D01*
X91329221Y-112676688D01*
X91310406Y-112704183D01*
X91288819Y-112735289D01*
X91263909Y-112770839D01*
X91260647Y-112775474D01*
X91203752Y-112856318D01*
X89798467Y-112856249D01*
X88393183Y-112856179D01*
X88316506Y-112785126D01*
X88263479Y-112734787D01*
X88215315Y-112686436D01*
X88170985Y-112638944D01*
X88129457Y-112591182D01*
X88089703Y-112542019D01*
X88063700Y-112507939D01*
X88000241Y-112417508D01*
X87942917Y-112324462D01*
X87891726Y-112228802D01*
X87846669Y-112130529D01*
X87807746Y-112029644D01*
X87774959Y-111926149D01*
X87748307Y-111820044D01*
X87727791Y-111711331D01*
X87717640Y-111638379D01*
X87714963Y-111611340D01*
X87712701Y-111579049D01*
X87710881Y-111542912D01*
X87709532Y-111504335D01*
X87708682Y-111464722D01*
X87708568Y-111450791D01*
X88333009Y-111450791D01*
X88333415Y-111485383D01*
X88334375Y-111518115D01*
X88335889Y-111547619D01*
X88337959Y-111572528D01*
X88339200Y-111582818D01*
X88353916Y-111669037D01*
X88373815Y-111751439D01*
X88399119Y-111830661D01*
X88430051Y-111907339D01*
X88466831Y-111982112D01*
X88496459Y-112034128D01*
X88516312Y-112065750D01*
X88538499Y-112098743D01*
X88561949Y-112131647D01*
X88585591Y-112163001D01*
X88608353Y-112191344D01*
X88629165Y-112215214D01*
X88629262Y-112215319D01*
X88642398Y-112229569D01*
X89758530Y-112229569D01*
X90874663Y-112229569D01*
X90896775Y-112189690D01*
X90930175Y-112126809D01*
X90960501Y-112063960D01*
X90988151Y-112000089D01*
X91013521Y-111934141D01*
X91037011Y-111865061D01*
X91059018Y-111791793D01*
X91079940Y-111713282D01*
X91086644Y-111686165D01*
X91108368Y-111585408D01*
X91123960Y-111487147D01*
X91133418Y-111391245D01*
X91136734Y-111297565D01*
X91133904Y-111205969D01*
X91124923Y-111116319D01*
X91109786Y-111028479D01*
X91088487Y-110942311D01*
X91061022Y-110857677D01*
X91054837Y-110841050D01*
X91043977Y-110814217D01*
X91030435Y-110783490D01*
X91015055Y-110750596D01*
X90998683Y-110717263D01*
X90982165Y-110685216D01*
X90966347Y-110656182D01*
X90953665Y-110634475D01*
X90903225Y-110558141D01*
X90846904Y-110484605D01*
X90785004Y-110414167D01*
X90717827Y-110347127D01*
X90645674Y-110283787D01*
X90568847Y-110224448D01*
X90487649Y-110169411D01*
X90486309Y-110168563D01*
X90407308Y-110122504D01*
X90325607Y-110082486D01*
X90241407Y-110048545D01*
X90154907Y-110020718D01*
X90066306Y-109999042D01*
X89975804Y-109983553D01*
X89883601Y-109974287D01*
X89789896Y-109971280D01*
X89694888Y-109974571D01*
X89598778Y-109984194D01*
X89533332Y-109994296D01*
X89437686Y-110014430D01*
X89344731Y-110040627D01*
X89254620Y-110072802D01*
X89167504Y-110110871D01*
X89083533Y-110154747D01*
X89002858Y-110204348D01*
X88925630Y-110259588D01*
X88852000Y-110320381D01*
X88782119Y-110386645D01*
X88724613Y-110448536D01*
X88663157Y-110523480D01*
X88605981Y-110602985D01*
X88553358Y-110686453D01*
X88505562Y-110773280D01*
X88462863Y-110862867D01*
X88425536Y-110954613D01*
X88393853Y-111047917D01*
X88368086Y-111142179D01*
X88348508Y-111236796D01*
X88339285Y-111297780D01*
X88336924Y-111321166D01*
X88335116Y-111349526D01*
X88333860Y-111381496D01*
X88333158Y-111415706D01*
X88333009Y-111450791D01*
X87708568Y-111450791D01*
X87708360Y-111425478D01*
X87708593Y-111388010D01*
X87709409Y-111353721D01*
X87710839Y-111324017D01*
X87711199Y-111318768D01*
X87722850Y-111203875D01*
X87740946Y-111090542D01*
X87765458Y-110978921D01*
X87783210Y-110912920D01*
X87820018Y-110796107D01*
X87862234Y-110682438D01*
X87909712Y-110572104D01*
X87962308Y-110465297D01*
X88019876Y-110362209D01*
X88082272Y-110263030D01*
X88149349Y-110167953D01*
X88220963Y-110077169D01*
X88296969Y-109990870D01*
X88377221Y-109909247D01*
X88461575Y-109832492D01*
X88549885Y-109760796D01*
X88642005Y-109694351D01*
X88737792Y-109633349D01*
X88764898Y-109617471D01*
X88790497Y-109603198D01*
X88820058Y-109587457D01*
X88852119Y-109570970D01*
X88885215Y-109554461D01*
X88917881Y-109538654D01*
X88948653Y-109524272D01*
X88976066Y-109512038D01*
X88991331Y-109505606D01*
X89035572Y-109487543D01*
X88097630Y-109486675D01*
X87993305Y-109486589D01*
X87895548Y-109486527D01*
X87804260Y-109486492D01*
X87719339Y-109486482D01*
X87640688Y-109486499D01*
X87568206Y-109486542D01*
X87501794Y-109486612D01*
X87441351Y-109486710D01*
X87386778Y-109486835D01*
X87337977Y-109486988D01*
X87294845Y-109487168D01*
X87257286Y-109487377D01*
X87225197Y-109487615D01*
X87198481Y-109487882D01*
X87177037Y-109488178D01*
X87160765Y-109488503D01*
X87149567Y-109488858D01*
X87143341Y-109489243D01*
X87142287Y-109489391D01*
X87114910Y-109498277D01*
X87089673Y-109512727D01*
X87067468Y-109531817D01*
X87049186Y-109554625D01*
X87035720Y-109580227D01*
X87027961Y-109607701D01*
X87027956Y-109607729D01*
X87027768Y-109612196D01*
X87027585Y-109623137D01*
X87027408Y-109640360D01*
X87027236Y-109663671D01*
X87027070Y-109692878D01*
X87026909Y-109727787D01*
X87026754Y-109768205D01*
X87026604Y-109813939D01*
X87026459Y-109864797D01*
X87026320Y-109920585D01*
X87026187Y-109981110D01*
X87026058Y-110046179D01*
X87025936Y-110115599D01*
X87025819Y-110189177D01*
X87025707Y-110266720D01*
X87025601Y-110348034D01*
X87025500Y-110432928D01*
X87025405Y-110521208D01*
X87025315Y-110612680D01*
X87025231Y-110707152D01*
X87025152Y-110804431D01*
X87025078Y-110904323D01*
X87025011Y-111006636D01*
X87024948Y-111111177D01*
X87024891Y-111217752D01*
X87024840Y-111326169D01*
X87024794Y-111436234D01*
X87024754Y-111547755D01*
X87024719Y-111660538D01*
X87024690Y-111774390D01*
X87024666Y-111889118D01*
X87024648Y-112004530D01*
X87024635Y-112120432D01*
X87024628Y-112236631D01*
X87024626Y-112352935D01*
X84801824Y-112352935D01*
X84801713Y-112352242D01*
X84799083Y-112294688D01*
X84802854Y-112237408D01*
X84812919Y-112180963D01*
X84829172Y-112125915D01*
X84851508Y-112072825D01*
X84879820Y-112022256D01*
X84885839Y-112013018D01*
X84921229Y-111965825D01*
X84961066Y-111923501D01*
X85005034Y-111886251D01*
X85052817Y-111854278D01*
X85104098Y-111827788D01*
X85158562Y-111806984D01*
X85215891Y-111792071D01*
X85232768Y-111788919D01*
X85264161Y-111785028D01*
X85299167Y-111783196D01*
X85335689Y-111783368D01*
X85371632Y-111785490D01*
X85404898Y-111789507D01*
X85427794Y-111793958D01*
X85486663Y-111811068D01*
X85541472Y-111833459D01*
X85592260Y-111861154D01*
X85639070Y-111894179D01*
X85681940Y-111932557D01*
X85707088Y-111959661D01*
X85732834Y-111989438D01*
X86061771Y-111989488D01*
X86108115Y-111989515D01*
X86152620Y-111989580D01*
X86194828Y-111989681D01*
X86234279Y-111989814D01*
X86270514Y-111989976D01*
X86303075Y-111990165D01*
X86331502Y-111990378D01*
X86355336Y-111990612D01*
X86374119Y-111990864D01*
X86387392Y-111991132D01*
X86394695Y-111991412D01*
X86395981Y-111991561D01*
X86396659Y-111991404D01*
X86397276Y-111990195D01*
X86397836Y-111987643D01*
X86398341Y-111983457D01*
X86398795Y-111977347D01*
X86399199Y-111969022D01*
X86399558Y-111958192D01*
X86399872Y-111944565D01*
X86400146Y-111927851D01*
X86400382Y-111907760D01*
X86400583Y-111884000D01*
X86400751Y-111856280D01*
X86400889Y-111824311D01*
X86401001Y-111787801D01*
X86401088Y-111746460D01*
X86401153Y-111699997D01*
X86401200Y-111648121D01*
X86401230Y-111590541D01*
X86401248Y-111526967D01*
X86401254Y-111457108D01*
X86401255Y-111433680D01*
X86401255Y-110873774D01*
X86343747Y-110871593D01*
X86331369Y-110871252D01*
X86312956Y-110870928D01*
X86289140Y-110870625D01*
X86260554Y-110870345D01*
X86227830Y-110870095D01*
X86191600Y-110869877D01*
X86152497Y-110869695D01*
X86111153Y-110869555D01*
X86068201Y-110869460D01*
X86024272Y-110869414D01*
X86007870Y-110869410D01*
X85729500Y-110869409D01*
X85707159Y-110895833D01*
X85671913Y-110932767D01*
X85631482Y-110966695D01*
X85586942Y-110996899D01*
X85539370Y-111022660D01*
X85489845Y-111043262D01*
X85481887Y-111046006D01*
X85455913Y-111054310D01*
X85432965Y-111060590D01*
X85411310Y-111065110D01*
X85389218Y-111068132D01*
X85364958Y-111069917D01*
X85336800Y-111070727D01*
X85317779Y-111070854D01*
X85292880Y-111070782D01*
X85273243Y-111070435D01*
X85257465Y-111069713D01*
X85244143Y-111068516D01*
X85231873Y-111066744D01*
X85219251Y-111064297D01*
X85215884Y-111063569D01*
X85159336Y-111048552D01*
X85107401Y-111029158D01*
X85059328Y-111004972D01*
X85014368Y-110975582D01*
X84971770Y-110940572D01*
X84943684Y-110913255D01*
X84905630Y-110869185D01*
X84873138Y-110821736D01*
X84846346Y-110771400D01*
X84825395Y-110718666D01*
X84810423Y-110664025D01*
X84801569Y-110607965D01*
X84798974Y-110550977D01*
X84802776Y-110493551D01*
X84810851Y-110446088D01*
X84826404Y-110389942D01*
X84847779Y-110336564D01*
X84874632Y-110286337D01*
X84906618Y-110239646D01*
X84943395Y-110196876D01*
X84984617Y-110158412D01*
X85029942Y-110124638D01*
X85079025Y-110095940D01*
X85131522Y-110072700D01*
X85150716Y-110065902D01*
X85183119Y-110055901D01*
X85212587Y-110048620D01*
X85241975Y-110043471D01*
X85274137Y-110039869D01*
X85279490Y-110039417D01*
X85335230Y-110038171D01*
X85391198Y-110043336D01*
X85446693Y-110054721D01*
X85501012Y-110072133D01*
X85553452Y-110095382D01*
X85603312Y-110124276D01*
X85612013Y-110130098D01*
X85630950Y-110144109D01*
X85651639Y-110161196D01*
X85672521Y-110179922D01*
X85692040Y-110198853D01*
X85708637Y-110216555D01*
X85717667Y-110227427D01*
X85731978Y-110245976D01*
X86066458Y-110245976D01*
X86400939Y-110245976D01*
X86402147Y-109900097D01*
X86402353Y-109843671D01*
X86402559Y-109793500D01*
X86402772Y-109749175D01*
X86403000Y-109710284D01*
X86403250Y-109676416D01*
X86403529Y-109647159D01*
X86403846Y-109622103D01*
X86404208Y-109600836D01*
X86404622Y-109582947D01*
X86405096Y-109568025D01*
X86405636Y-109555658D01*
X86406252Y-109545436D01*
X86406949Y-109536947D01*
X86407737Y-109529780D01*
X86408621Y-109523525D01*
X86409056Y-109520881D01*
X86424588Y-109447463D01*
X86445449Y-109377981D01*
X86471737Y-109312235D01*
X86503551Y-109250027D01*
X86540988Y-109191158D01*
X86584146Y-109135429D01*
X86617141Y-109098883D01*
X86668685Y-109049647D01*
X86723556Y-109006089D01*
X86781874Y-108968146D01*
X86843759Y-108935756D01*
X86909330Y-108908855D01*
X86978707Y-108887380D01*
X87049673Y-108871690D01*
X87056631Y-108870460D01*
X87063381Y-108869375D01*
X87070378Y-108868425D01*
X87078074Y-108867598D01*
X87086924Y-108866883D01*
X87097381Y-108866270D01*
X87109898Y-108865748D01*
X87124929Y-108865305D01*
X87142928Y-108864931D01*
X87164347Y-108864615D01*
X87189640Y-108864346D01*
X87219261Y-108864114D01*
X87253664Y-108863906D01*
X87293301Y-108863713D01*
X87338627Y-108863523D01*
X87390095Y-108863326D01*
X87398886Y-108863293D01*
X87708093Y-108862141D01*
X87708093Y-108594515D01*
X87708093Y-108326888D01*
X87686816Y-108309625D01*
X87646290Y-108272494D01*
X87610022Y-108230469D01*
X87578278Y-108183999D01*
X87551324Y-108133530D01*
X87529425Y-108079510D01*
X87512847Y-108022386D01*
X87510815Y-108013484D01*
X87507389Y-107992906D01*
X87504900Y-107967628D01*
X87503364Y-107939358D01*
X87502796Y-107909804D01*
X87503212Y-107880672D01*
X87504627Y-107853670D01*
X87507058Y-107830506D01*
X87509045Y-107818991D01*
X87523245Y-107763894D01*
X87542178Y-107711932D01*
X87556469Y-107680639D01*
X87584754Y-107630507D01*
X87618180Y-107584372D01*
X87656351Y-107542517D01*
X87698870Y-107505225D01*
X87745340Y-107472780D01*
X87795365Y-107445465D01*
X87848547Y-107423565D01*
X87904491Y-107407362D01*
X87951005Y-107398687D01*
X87973877Y-107396536D01*
X88001274Y-107395699D01*
X88031235Y-107396090D01*
X88061799Y-107397621D01*
X88091007Y-107400205D01*
X88116900Y-107403755D01*
X88131694Y-107406697D01*
X88188976Y-107423441D01*
X88242938Y-107445792D01*
X88293296Y-107473420D01*
X88339762Y-107505995D01*
X88382052Y-107543189D01*
X88419878Y-107584671D01*
X88452955Y-107630112D01*
X88480996Y-107679184D01*
X88503716Y-107731557D01*
X88520828Y-107786900D01*
X88532047Y-107844886D01*
X88535033Y-107871053D01*
X88536706Y-107925903D01*
X88532033Y-107981302D01*
X88521209Y-108036505D01*
X88504430Y-108090770D01*
X88481891Y-108143353D01*
X88453787Y-108193511D01*
X88447912Y-108202588D01*
X88434399Y-108221252D01*
X88417186Y-108241841D01*
X88395623Y-108265104D01*
X88379301Y-108281680D01*
X88331508Y-108329315D01*
X88331508Y-108595888D01*
X88331508Y-108862461D01*
X88876579Y-108862461D01*
X89421651Y-108862461D01*
X89421572Y-108569922D01*
X89421493Y-108277384D01*
X89407875Y-108267383D01*
X89395849Y-108257391D01*
X89381030Y-108243306D01*
X89364585Y-108226404D01*
X89347679Y-108207958D01*
X89331477Y-108189241D01*
X89317144Y-108171528D01*
X89305848Y-108156092D01*
X89305281Y-108155250D01*
X89275106Y-108104323D01*
X89251133Y-108051311D01*
X89233395Y-107996654D01*
X89221923Y-107940791D01*
X89216749Y-107884164D01*
X89217905Y-107827210D01*
X89225423Y-107770372D01*
X89239333Y-107714088D01*
X89259670Y-107658799D01*
X89268070Y-107640270D01*
X89295606Y-107589930D01*
X89328127Y-107543668D01*
X89365173Y-107501711D01*
X89406287Y-107464287D01*
X89451009Y-107431623D01*
X89498880Y-107403947D01*
X89549442Y-107381486D01*
X89602237Y-107364467D01*
X89656804Y-107353118D01*
X89712686Y-107347667D01*
X89769423Y-107348341D01*
G37*
D13*
%TO.C,C22*%
X116365000Y-110838748D02*
X116365000Y-111361252D01*
X117835000Y-110838748D02*
X117835000Y-111361252D01*
%TO.C,C2*%
X99101248Y-91965000D02*
X99623752Y-91965000D01*
X99101248Y-93435000D02*
X99623752Y-93435000D01*
%TO.C,C11*%
X107738748Y-76265000D02*
X108261252Y-76265000D01*
X107738748Y-77735000D02*
X108261252Y-77735000D01*
D10*
%TO.C,U1*%
X100619200Y-80869200D02*
X100619200Y-81777560D01*
X100619200Y-90222440D02*
X100619200Y-91130800D01*
X100619200Y-91130800D02*
X101527560Y-91130800D01*
X101527560Y-80869200D02*
X100619200Y-80869200D01*
X109972440Y-91130800D02*
X110880800Y-91130800D01*
X110880800Y-80869200D02*
X109972440Y-80869200D01*
X110880800Y-81777560D02*
X110880800Y-80869200D01*
X110880800Y-91130800D02*
X110880800Y-90222440D01*
D16*
G36*
X98942800Y-86940501D02*
G01*
X98688800Y-86940501D01*
X98688800Y-86559501D01*
X98942800Y-86559501D01*
X98942800Y-86940501D01*
G37*
G36*
X103690499Y-93061200D02*
G01*
X103309499Y-93061200D01*
X103309499Y-92807200D01*
X103690499Y-92807200D01*
X103690499Y-93061200D01*
G37*
G36*
X104190501Y-79192800D02*
G01*
X103809501Y-79192800D01*
X103809501Y-78938800D01*
X104190501Y-78938800D01*
X104190501Y-79192800D01*
G37*
G36*
X108690500Y-93061200D02*
G01*
X108309500Y-93061200D01*
X108309500Y-92807200D01*
X108690500Y-92807200D01*
X108690500Y-93061200D01*
G37*
G36*
X109190501Y-79192800D02*
G01*
X108809501Y-79192800D01*
X108809501Y-78938800D01*
X109190501Y-78938800D01*
X109190501Y-79192800D01*
G37*
G36*
X112811200Y-86440500D02*
G01*
X112557200Y-86440500D01*
X112557200Y-86059499D01*
X112811200Y-86059499D01*
X112811200Y-86440500D01*
G37*
D10*
%TO.C,CR2*%
X86096700Y-89400999D02*
X88103300Y-89400999D01*
X88103300Y-86098999D02*
X86096700Y-86098999D01*
D13*
%TO.C,R37*%
X128640835Y-90419718D02*
X128319718Y-90740835D01*
X129680282Y-91459165D02*
X129359165Y-91780282D01*
%TO.C,C10*%
X114538747Y-83765000D02*
X115061253Y-83765000D01*
X114538747Y-85235000D02*
X115061253Y-85235000D01*
D10*
%TO.C,F1*%
X95684000Y-102274987D02*
X95684000Y-104325013D01*
X97716000Y-102274987D02*
X97716000Y-104325013D01*
D13*
%TO.C,R36*%
X118019718Y-90140835D02*
X118340835Y-89819718D01*
X119059165Y-91180282D02*
X119380282Y-90859165D01*
D10*
%TO.C,CR4*%
X103398999Y-106229850D02*
X103398999Y-108236450D01*
X106700999Y-108236450D02*
X106700999Y-106229850D01*
D13*
%TO.C,R15*%
X114872936Y-76865000D02*
X115327064Y-76865000D01*
X114872936Y-78335000D02*
X115327064Y-78335000D01*
%TO.C,C15*%
X95861252Y-86865000D02*
X95338748Y-86865000D01*
X95861252Y-88335000D02*
X95338748Y-88335000D01*
%TO.C,3V3USB1*%
X119600000Y-119260000D02*
X122460000Y-119260000D01*
X122460000Y-117340000D02*
X119600000Y-117340000D01*
X122460000Y-119260000D02*
X122460000Y-117340000D01*
%TO.C,R29*%
X89619718Y-72259165D02*
X89940835Y-72580282D01*
X90659165Y-71219718D02*
X90980282Y-71540835D01*
%TO.C,R24*%
X128565000Y-111172936D02*
X128565000Y-111627064D01*
X130035000Y-111172936D02*
X130035000Y-111627064D01*
%TO.C,C19*%
X126265000Y-111038747D02*
X126265000Y-111561253D01*
X127735000Y-111038747D02*
X127735000Y-111561253D01*
%TO.C,R3*%
X99565000Y-102727064D02*
X99565000Y-102272936D01*
X101035000Y-102727064D02*
X101035000Y-102272936D01*
%TO.C,C38*%
X132961253Y-84165000D02*
X132438747Y-84165000D01*
X132961253Y-85635000D02*
X132438747Y-85635000D01*
%TO.C,D2*%
X130640000Y-79320000D02*
X130640000Y-80250000D01*
X130640000Y-79320000D02*
X132100000Y-79320000D01*
X130640000Y-82480000D02*
X130640000Y-81550000D01*
X131440000Y-82480000D02*
X130640000Y-82480000D01*
X131440000Y-82480000D02*
X132240000Y-82480000D01*
X132980000Y-82840000D02*
X132500000Y-82840000D01*
X132740000Y-82510000D01*
X132980000Y-82840000D01*
G36*
X132980000Y-82840000D02*
G01*
X132500000Y-82840000D01*
X132740000Y-82510000D01*
X132980000Y-82840000D01*
G37*
%TO.C,R10*%
X98465000Y-77972936D02*
X98465000Y-78427064D01*
X99935000Y-77972936D02*
X99935000Y-78427064D01*
%TO.C,J5*%
X126370440Y-92484189D02*
X126819453Y-92933202D01*
X126819453Y-92933202D02*
X126370440Y-93382215D01*
%TO.C,FB3*%
X110577500Y-115454724D02*
X110577500Y-114945276D01*
X111622500Y-115454724D02*
X111622500Y-114945276D01*
%TO.C,R25*%
X125527064Y-84965000D02*
X125072936Y-84965000D01*
X125527064Y-86435000D02*
X125072936Y-86435000D01*
%TO.C,C1*%
X101365000Y-97861252D02*
X101365000Y-97338748D01*
X102835000Y-97861252D02*
X102835000Y-97338748D01*
D14*
%TO.C,J1*%
X134900000Y-69950000D02*
X134900000Y-70850000D01*
X134900000Y-70850000D02*
X139400000Y-70850000D01*
X134900000Y-86450000D02*
X134900000Y-87350000D01*
X134900000Y-87350000D02*
X146400000Y-87350000D01*
X139400000Y-70850000D02*
X139400000Y-86450000D01*
X139400000Y-86450000D02*
X134900000Y-86450000D01*
X146400000Y-69950000D02*
X134900000Y-69950000D01*
D12*
X137300000Y-87900000D02*
G75*
G02*
X137100000Y-87900000I-100000J0D01*
G01*
X137100000Y-87900000D02*
G75*
G02*
X137300000Y-87900000I100000J0D01*
G01*
D13*
%TO.C,RS485TX1*%
X88414071Y-77271716D02*
X90436396Y-79294041D01*
X90436396Y-79294041D02*
X91794041Y-77936396D01*
X91794041Y-77936396D02*
X89771716Y-75914071D01*
%TO.C,R20*%
X123827064Y-86865000D02*
X123372936Y-86865000D01*
X123827064Y-88335000D02*
X123372936Y-88335000D01*
%TO.C,R22*%
X120765000Y-103627064D02*
X120765000Y-103172936D01*
X122235000Y-103627064D02*
X122235000Y-103172936D01*
%TO.C,R12*%
X91865000Y-87727064D02*
X91865000Y-87272936D01*
X93335000Y-87727064D02*
X93335000Y-87272936D01*
%TO.C,R5*%
X91665000Y-95827064D02*
X91665000Y-95372936D01*
X93135000Y-95827064D02*
X93135000Y-95372936D01*
%TO.C,R23*%
X116565000Y-117172936D02*
X116565000Y-117627064D01*
X118035000Y-117172936D02*
X118035000Y-117627064D01*
%TO.C,RST1*%
X119265000Y-114427064D02*
X119265000Y-113972936D01*
X120735000Y-114427064D02*
X120735000Y-113972936D01*
%TD*%
M02*
