M48
; DRILL file {KiCad 9.0.3} date 2026-02-24T03:06:24-0500
; FORMAT={-:-/ absolute / metric / decimal}
; #@! TF.CreationDate,2026-02-24T03:06:24-05:00
; #@! TF.GenerationSoftware,Kicad,Pcbnew,9.0.3
; #@! TF.FileFunction,Plated,1,4,PTH
FMAT,2
METRIC
; #@! TA.AperFunction,Plated,PTH,ViaDrill
T1C0.300
; #@! TA.AperFunction,Plated,PTH,ViaDrill
T2C0.400
; #@! TA.AperFunction,Plated,PTH,ComponentDrill
T3C0.600
; #@! TA.AperFunction,Plated,PTH,ComponentDrill
T4C0.630
; #@! TA.AperFunction,Plated,PTH,ComponentDrill
T5C1.000
; #@! TA.AperFunction,Plated,PTH,ComponentDrill
T6C3.000
%
G90
G05
T1
X81.6Y-101.6
X82.0Y-90.6
X82.4Y-77.7
X83.671Y-86.081
X84.0Y-83.7
X84.2Y-82.4
X85.0Y-85.4
X85.4Y-91.9
X85.5Y-92.8
X86.4Y-81.7
X86.7Y-90.0
X87.0Y-87.7
X88.8Y-83.7
X89.3Y-84.5
X89.7Y-87.9
X90.675Y-91.725
X90.9Y-88.0
X91.0Y-90.4
X91.8Y-100.1
X91.9Y-81.7
X92.2Y-85.0
X92.4Y-97.8
X93.5Y-85.4
X93.784Y-90.184
X93.9Y-80.4
X93.9Y-91.2
X93.9Y-92.5
X94.0Y-94.6
X94.3Y-86.2
X94.8Y-82.2
X94.9Y-83.7
X95.1Y-85.5
X95.4Y-114.8
X95.4Y-116.9
X95.8Y-82.6
X95.9Y-88.888
X96.0Y-91.9
X97.8Y-77.2
X97.9Y-109.4
X98.1Y-84.4
X98.1Y-87.6
X98.5Y-91.2
X98.7Y-101.5
X98.8Y-103.5
X99.55Y-90.65
X100.1Y-80.801
X100.2Y-111.7
X100.6Y-94.1
X100.8Y-78.0
X100.8Y-80.1
X101.4Y-90.5
X101.9Y-87.9
X102.4Y-106.4
X102.5Y-104.9
X102.6Y-109.9
X103.0Y-90.4
X103.1Y-75.7
X103.2Y-96.5
X103.6Y-114.3
X103.608Y-109.96
X103.93Y-110.821
X104.038Y-90.031
X104.2Y-93.5
X104.4Y-84.6
X104.4Y-85.5
X104.4Y-86.4
X104.4Y-87.3
X104.4Y-88.3
X104.852Y-90.416
X104.9Y-114.6
X105.2Y-84.6
X105.2Y-85.5
X105.2Y-86.4
X105.2Y-87.3
X105.6Y-107.5
X105.816Y-90.483
X105.845Y-110.345
X106.05Y-98.1
X106.2Y-84.6
X106.2Y-85.5
X106.2Y-86.4
X106.2Y-87.3
X106.25Y-114.55
X106.428Y-93.863
X106.589Y-109.839
X106.8Y-98.1
X107.1Y-84.6
X107.1Y-85.5
X107.1Y-86.4
X107.1Y-87.3
X107.196Y-90.457
X107.2Y-93.4
X107.5Y-75.7
X107.5Y-110.4
X108.1Y-88.2
X108.4Y-107.9
X108.5Y-89.8
X108.504Y-79.028
X108.538Y-90.551
X108.6Y-110.6
X109.4Y-90.2
X109.4Y-95.5
X109.4Y-105.3
X109.4Y-109.7
X109.7Y-89.237
X110.5Y-99.9
X110.6Y-90.4
X111.1Y-93.3
X111.1Y-113.0
X112.2Y-103.4
X112.2Y-104.4
X112.6Y-103.9
X112.7Y-77.6
X113.0Y-103.4
X113.0Y-104.4
X113.0Y-112.6
X113.1Y-78.7
X113.3Y-89.2
X113.4Y-103.9
X113.6Y-92.0
X113.8Y-103.4
X113.8Y-104.4
X114.3Y-103.9
X114.4Y-92.0
X114.6Y-96.7
X115.0Y-112.6
X115.2Y-111.3
X115.4Y-99.9
X116.4Y-82.5
X116.5Y-107.9
X116.7Y-79.5
X117.1Y-113.6
X117.3Y-108.6
X117.3Y-114.8
X118.1Y-103.9
X118.1Y-105.4
X118.5Y-109.2
X118.5Y-111.1
X120.4Y-79.7
X120.4Y-80.7
X120.4Y-81.6
X120.7Y-76.6
X121.4Y-79.7
X121.4Y-80.7
X121.4Y-81.7
X121.5Y-105.8
X121.5Y-115.2
X122.5Y-79.7
X122.5Y-80.6
X122.5Y-81.7
X122.5Y-113.5
X122.6Y-116.7
X123.0Y-112.5
X123.6Y-111.2
X124.2Y-75.1
X124.3Y-84.3
X124.3Y-105.9
X124.9Y-113.8
X125.7Y-107.6
X125.8Y-108.7
X127.0Y-113.7
X127.4Y-109.0
X128.1Y-80.9
X129.3Y-108.9
X129.5Y-117.9
X130.3Y-84.9
X130.3Y-87.0
X133.4Y-89.0
X134.3Y-88.6
X134.9Y-77.1
X134.9Y-77.9
T2
X78.9Y-88.1
X84.7Y-89.9
X84.9Y-77.7
X85.3Y-81.1
X88.1Y-71.4
X91.674Y-101.259
X91.9Y-78.9
X92.9Y-73.4
X93.299Y-99.599
X93.3Y-77.7
X94.4Y-76.8
X96.2Y-76.8
X96.9Y-82.3
X98.0Y-82.7
X98.2Y-76.2
X101.4Y-75.2
X101.7Y-82.6
X101.8Y-89.2
X102.6Y-81.9
X104.37Y-75.83
X104.7Y-81.8
X105.6Y-78.6
X105.9Y-72.0
X105.9Y-74.9
X106.75Y-81.596
X107.5Y-82.3
X107.963Y-78.05
X108.4Y-84.05
X108.452Y-81.991
X108.6Y-75.5
X109.307Y-74.793
X109.45Y-82.05
X110.0Y-75.7
X110.2Y-78.5
X111.15Y-80.6
X111.6Y-78.8
X113.196Y-80.6
X113.92Y-85.68
X115.8Y-73.6
X115.9Y-75.6
X116.3Y-87.7
X116.8Y-71.0
X116.8Y-84.9
X116.95Y-94.55
X117.0Y-92.2
X117.9Y-89.3
X118.5Y-112.0
X118.8Y-73.8
X120.0Y-97.3
X120.3Y-88.9
X120.3Y-92.1
X121.0Y-86.2
X121.3Y-88.0
X121.5Y-84.9
X122.1Y-74.5
X122.1Y-90.0
X124.0Y-71.0
X126.3Y-84.1
X126.6Y-91.9
X127.6Y-93.3
X129.2Y-87.9
X130.6Y-89.4
T4
X97.032Y-96.032
X98.8Y-97.8
T5
X99.54Y-70.73
X99.54Y-73.27
X102.08Y-70.73
X102.08Y-73.27
X104.62Y-73.27
X104.62Y-70.73
X107.16Y-70.73
X107.16Y-73.27
X109.7Y-70.73
X109.7Y-73.27
X137.2Y-72.4
X137.2Y-74.9
X137.2Y-77.4
X137.2Y-79.9
X137.2Y-82.4
X137.2Y-84.9
T6
X80.9Y-71.2
X80.9Y-116.4
X130.9Y-71.3
X134.1Y-116.4
T3
G00X100.56Y-112.95
M15
G01X100.56Y-114.05
M16
G05
G00X100.56Y-117.28
M15
G01X100.56Y-118.08
M16
G05
G00X109.2Y-112.95
M15
G01X109.2Y-114.05
M16
G05
G00X109.2Y-117.28
M15
G01X109.2Y-118.08
M16
G05
M30
