%TF.GenerationSoftware,KiCad,Pcbnew,9.0.3*%
%TF.CreationDate,2026-02-24T03:06:21-05:00*%
%TF.ProjectId,ShamanLink_Rev1,5368616d-616e-44c6-996e-6b5f52657631,rev?*%
%TF.SameCoordinates,Original*%
%TF.FileFunction,Soldermask,Bot*%
%TF.FilePolarity,Negative*%
%FSLAX46Y46*%
G04 Gerber Fmt 4.6, Leading zero omitted, Abs format (unit mm)*
G04 Created by KiCad (PCBNEW 9.0.3) date 2026-02-24 03:06:21*
%MOMM*%
%LPD*%
G01*
G04 APERTURE LIST*
G04 Aperture macros list*
%AMRoundRect*
0 Rectangle with rounded corners*
0 $1 Rounding radius*
0 $2 $3 $4 $5 $6 $7 $8 $9 X,Y pos of 4 corners*
0 Add a 4 corners polygon primitive as box body*
4,1,4,$2,$3,$4,$5,$6,$7,$8,$9,$2,$3,0*
0 Add four circle primitives for the rounded corners*
1,1,$1+$1,$2,$3*
1,1,$1+$1,$4,$5*
1,1,$1+$1,$6,$7*
1,1,$1+$1,$8,$9*
0 Add four rect primitives between the rounded corners*
20,1,$1+$1,$2,$3,$4,$5,0*
20,1,$1+$1,$4,$5,$6,$7,0*
20,1,$1+$1,$6,$7,$8,$9,0*
20,1,$1+$1,$8,$9,$2,$3,0*%
G04 Aperture macros list end*
%ADD10C,0.650000*%
%ADD11O,1.204000X2.304000*%
%ADD12O,1.204000X2.004000*%
%ADD13C,3.400000*%
%ADD14R,1.700000X1.700000*%
%ADD15C,1.700000*%
%ADD16C,1.234000*%
%ADD17C,0.990600*%
%ADD18RoundRect,0.102000X0.754000X-0.754000X0.754000X0.754000X-0.754000X0.754000X-0.754000X-0.754000X0*%
%ADD19C,1.712000*%
%ADD20RoundRect,0.250000X0.565685X0.070711X0.070711X0.565685X-0.565685X-0.070711X-0.070711X-0.565685X0*%
%ADD21RoundRect,0.250000X0.350000X0.450000X-0.350000X0.450000X-0.350000X-0.450000X0.350000X-0.450000X0*%
%ADD22RoundRect,0.250000X-0.475000X0.337500X-0.475000X-0.337500X0.475000X-0.337500X0.475000X0.337500X0*%
%ADD23RoundRect,0.250000X0.751301X0.167938X0.167938X0.751301X-0.751301X-0.167938X-0.167938X-0.751301X0*%
%ADD24RoundRect,0.250000X-0.350000X-0.450000X0.350000X-0.450000X0.350000X0.450000X-0.350000X0.450000X0*%
%ADD25RoundRect,0.250000X0.475000X-0.337500X0.475000X0.337500X-0.475000X0.337500X-0.475000X-0.337500X0*%
%ADD26RoundRect,0.237500X0.237500X-0.250000X0.237500X0.250000X-0.237500X0.250000X-0.237500X-0.250000X0*%
%ADD27RoundRect,0.250000X0.337500X0.475000X-0.337500X0.475000X-0.337500X-0.475000X0.337500X-0.475000X0*%
%ADD28RoundRect,0.250000X-0.650000X0.412500X-0.650000X-0.412500X0.650000X-0.412500X0.650000X0.412500X0*%
%ADD29RoundRect,0.250000X-0.412500X-0.650000X0.412500X-0.650000X0.412500X0.650000X-0.412500X0.650000X0*%
%ADD30RoundRect,0.250000X-0.337500X-0.475000X0.337500X-0.475000X0.337500X0.475000X-0.337500X0.475000X0*%
%ADD31RoundRect,0.237500X-0.250000X-0.237500X0.250000X-0.237500X0.250000X0.237500X-0.250000X0.237500X0*%
G04 APERTURE END LIST*
D10*
%TO.C,J6*%
X101990000Y-114000000D03*
X107770000Y-114000000D03*
D11*
X100560000Y-113500000D03*
X109200000Y-113500000D03*
D12*
X100560000Y-117680000D03*
X109200000Y-117680000D03*
%TD*%
D13*
%TO.C,H4*%
X80900000Y-71200000D03*
%TD*%
D14*
%TO.C,J2*%
X99540000Y-73270000D03*
D15*
X99540000Y-70730000D03*
X102080000Y-73270000D03*
X102080000Y-70730000D03*
X104619999Y-73270000D03*
X104620000Y-70730000D03*
X107160000Y-73270000D03*
X107160000Y-70730000D03*
X109700000Y-73270000D03*
X109700000Y-70730000D03*
%TD*%
D16*
%TO.C,Y1*%
X97032234Y-96032234D03*
X98800000Y-97800000D03*
%TD*%
D13*
%TO.C,H3*%
X134100000Y-116400000D03*
%TD*%
%TO.C,H1*%
X130900000Y-71300000D03*
%TD*%
D17*
%TO.C,J5*%
X126370440Y-94280240D03*
X122059917Y-91406558D03*
X123496758Y-89969717D03*
%TD*%
D18*
%TO.C,J1*%
X137200000Y-84900000D03*
D19*
X137200000Y-82400000D03*
X137200000Y-79900000D03*
X137200000Y-77400000D03*
X137200000Y-74900000D03*
X137200000Y-72400000D03*
%TD*%
D13*
%TO.C,H2*%
X80900000Y-116400000D03*
%TD*%
D20*
%TO.C,R38*%
X118807107Y-92107107D03*
X117392893Y-90692893D03*
%TD*%
D21*
%TO.C,R1*%
X98800000Y-114800000D03*
X96800000Y-114800000D03*
%TD*%
%TO.C,R2*%
X98800000Y-116900000D03*
X96800000Y-116900000D03*
%TD*%
D22*
%TO.C,C29*%
X107800000Y-94562500D03*
X107800000Y-96637500D03*
%TD*%
%TO.C,C23*%
X121000000Y-111162500D03*
X121000000Y-113237500D03*
%TD*%
D23*
%TO.C,C6*%
X103204854Y-94604854D03*
X100995146Y-92395146D03*
%TD*%
D21*
%TO.C,R27*%
X125300000Y-85700000D03*
X123300000Y-85700000D03*
%TD*%
D24*
%TO.C,R16*%
X109000000Y-77000000D03*
X111000000Y-77000000D03*
%TD*%
D25*
%TO.C,C7*%
X112000000Y-91875000D03*
X112000000Y-89800000D03*
%TD*%
D26*
%TO.C,FB1*%
X95000000Y-91112500D03*
X95000000Y-89287500D03*
%TD*%
D27*
%TO.C,C35*%
X106237500Y-91900000D03*
X104162500Y-91900000D03*
%TD*%
D22*
%TO.C,C30*%
X105700000Y-94862500D03*
X105700000Y-96937500D03*
%TD*%
D28*
%TO.C,C8*%
X112900000Y-93637500D03*
X112900000Y-96762500D03*
%TD*%
D29*
%TO.C,C20*%
X120937500Y-109100000D03*
X124062500Y-109100000D03*
%TD*%
D27*
%TO.C,C5*%
X110137500Y-91900000D03*
X108062500Y-91900000D03*
%TD*%
D25*
%TO.C,C14*%
X97200000Y-91237500D03*
X97200000Y-89162500D03*
%TD*%
D27*
%TO.C,C32*%
X107137500Y-89100000D03*
X105062500Y-89100000D03*
%TD*%
D30*
%TO.C,C13*%
X103962500Y-82600000D03*
X106037500Y-82600000D03*
%TD*%
%TO.C,C26*%
X85962500Y-85500000D03*
X88037500Y-85500000D03*
%TD*%
D31*
%TO.C,FB5*%
X98987500Y-88400000D03*
X100812500Y-88400000D03*
%TD*%
D21*
%TO.C,R31*%
X105700000Y-77100000D03*
X103700000Y-77100000D03*
%TD*%
D24*
%TO.C,R32*%
X99800000Y-77000000D03*
X101800000Y-77000000D03*
%TD*%
M02*
