%TF.GenerationSoftware,KiCad,Pcbnew,9.0.3*%
%TF.CreationDate,2026-04-08T11:21:53-04:00*%
%TF.ProjectId,MainTotem_Rev1,4d61696e-546f-4746-956d-5f526576312e,rev?*%
%TF.SameCoordinates,Original*%
%TF.FileFunction,Legend,Top*%
%TF.FilePolarity,Positive*%
%FSLAX46Y46*%
G04 Gerber Fmt 4.6, Leading zero omitted, Abs format (unit mm)*
G04 Created by KiCad (PCBNEW 9.0.3) date 2026-04-08 11:21:53*
%MOMM*%
%LPD*%
G01*
G04 APERTURE LIST*
%ADD10C,0.152400*%
%ADD11C,0.200000*%
%ADD12C,0.150000*%
%ADD13C,0.120000*%
%ADD14C,0.127000*%
%ADD15C,0.000000*%
G04 APERTURE END LIST*
D10*
X118733371Y-68480318D02*
X119308107Y-67905581D01*
X119034423Y-68179265D02*
X119362844Y-68507686D01*
X119061792Y-68808738D02*
X119636528Y-68234002D01*
X119855475Y-68452949D02*
X120238633Y-68836107D01*
X120238633Y-68836107D02*
X119417581Y-69164528D01*
X120320738Y-70067685D02*
X120895474Y-69492948D01*
X120895474Y-69492948D02*
X121114421Y-69711895D01*
X121114421Y-69711895D02*
X121141790Y-69794001D01*
X121141790Y-69794001D02*
X121141790Y-69848737D01*
X121141790Y-69848737D02*
X121114421Y-69930843D01*
X121114421Y-69930843D02*
X121032316Y-70012948D01*
X121032316Y-70012948D02*
X120950211Y-70040316D01*
X120950211Y-70040316D02*
X120895474Y-70040316D01*
X120895474Y-70040316D02*
X120813369Y-70012948D01*
X120813369Y-70012948D02*
X120594422Y-69794001D01*
X120895474Y-70642421D02*
X121470211Y-70067685D01*
X121169159Y-70916105D02*
X121743895Y-70341369D01*
X121743895Y-70341369D02*
X121497579Y-71244526D01*
X121497579Y-71244526D02*
X122072316Y-70669790D01*
X122209158Y-71956105D02*
X122783894Y-71381368D01*
X122510210Y-71655052D02*
X122838631Y-71983473D01*
X122537579Y-72284525D02*
X123112315Y-71709789D01*
X123112315Y-72257157D02*
X123303894Y-72448736D01*
X123084947Y-72831893D02*
X122811263Y-72558209D01*
X122811263Y-72558209D02*
X123385999Y-71983473D01*
X123385999Y-71983473D02*
X123659683Y-72257157D01*
X123468104Y-72886630D02*
X123741788Y-73160314D01*
X123249157Y-72996104D02*
X124015472Y-72612946D01*
X124015472Y-72612946D02*
X123632314Y-73379261D01*
X123823893Y-73570840D02*
X124398630Y-72996104D01*
X124398630Y-72996104D02*
X124535472Y-73132946D01*
X124535472Y-73132946D02*
X124590209Y-73242419D01*
X124590209Y-73242419D02*
X124590209Y-73351893D01*
X124590209Y-73351893D02*
X124562840Y-73433998D01*
X124562840Y-73433998D02*
X124480735Y-73570840D01*
X124480735Y-73570840D02*
X124398630Y-73652945D01*
X124398630Y-73652945D02*
X124261788Y-73735051D01*
X124261788Y-73735051D02*
X124179683Y-73762419D01*
X124179683Y-73762419D02*
X124070209Y-73762419D01*
X124070209Y-73762419D02*
X123960735Y-73707682D01*
X123960735Y-73707682D02*
X123823893Y-73570840D01*
X124699682Y-73844524D02*
X124891261Y-74036103D01*
X124672314Y-74419261D02*
X124398630Y-74145577D01*
X124398630Y-74145577D02*
X124973366Y-73570840D01*
X124973366Y-73570840D02*
X125247050Y-73844524D01*
X125247050Y-74993997D02*
X125329155Y-74528734D01*
X124918629Y-74665576D02*
X125493365Y-74090839D01*
X125493365Y-74090839D02*
X125712313Y-74309787D01*
X125712313Y-74309787D02*
X125739681Y-74391892D01*
X125739681Y-74391892D02*
X125739681Y-74446629D01*
X125739681Y-74446629D02*
X125712313Y-74528734D01*
X125712313Y-74528734D02*
X125630207Y-74610839D01*
X125630207Y-74610839D02*
X125548102Y-74638207D01*
X125548102Y-74638207D02*
X125493365Y-74638207D01*
X125493365Y-74638207D02*
X125411260Y-74610839D01*
X125411260Y-74610839D02*
X125192313Y-74391892D01*
X121160707Y-71608767D02*
X120777549Y-72375082D01*
X120777549Y-72375082D02*
X121543865Y-71991925D01*
X121160707Y-72703503D02*
X121215444Y-72812977D01*
X121215444Y-72812977D02*
X121352286Y-72949819D01*
X121352286Y-72949819D02*
X121434391Y-72977187D01*
X121434391Y-72977187D02*
X121489128Y-72977187D01*
X121489128Y-72977187D02*
X121571233Y-72949819D01*
X121571233Y-72949819D02*
X121625970Y-72895082D01*
X121625970Y-72895082D02*
X121653338Y-72812977D01*
X121653338Y-72812977D02*
X121653338Y-72758240D01*
X121653338Y-72758240D02*
X121625970Y-72676135D01*
X121625970Y-72676135D02*
X121543865Y-72539293D01*
X121543865Y-72539293D02*
X121516496Y-72457188D01*
X121516496Y-72457188D02*
X121516496Y-72402451D01*
X121516496Y-72402451D02*
X121543865Y-72320346D01*
X121543865Y-72320346D02*
X121598602Y-72265609D01*
X121598602Y-72265609D02*
X121680707Y-72238240D01*
X121680707Y-72238240D02*
X121735444Y-72238240D01*
X121735444Y-72238240D02*
X121817549Y-72265609D01*
X121817549Y-72265609D02*
X121954391Y-72402451D01*
X121954391Y-72402451D02*
X122009128Y-72511924D01*
X117115417Y-70508799D02*
X117170153Y-70618272D01*
X117170153Y-70618272D02*
X117306995Y-70755114D01*
X117306995Y-70755114D02*
X117389101Y-70782483D01*
X117389101Y-70782483D02*
X117443837Y-70782483D01*
X117443837Y-70782483D02*
X117525943Y-70755114D01*
X117525943Y-70755114D02*
X117580679Y-70700377D01*
X117580679Y-70700377D02*
X117608048Y-70618272D01*
X117608048Y-70618272D02*
X117608048Y-70563535D01*
X117608048Y-70563535D02*
X117580679Y-70481430D01*
X117580679Y-70481430D02*
X117498574Y-70344588D01*
X117498574Y-70344588D02*
X117471206Y-70262483D01*
X117471206Y-70262483D02*
X117471206Y-70207746D01*
X117471206Y-70207746D02*
X117498574Y-70125641D01*
X117498574Y-70125641D02*
X117553311Y-70070904D01*
X117553311Y-70070904D02*
X117635416Y-70043536D01*
X117635416Y-70043536D02*
X117690153Y-70043536D01*
X117690153Y-70043536D02*
X117772258Y-70070904D01*
X117772258Y-70070904D02*
X117909100Y-70207746D01*
X117909100Y-70207746D02*
X117963837Y-70317220D01*
X118155416Y-70454062D02*
X118483836Y-70782482D01*
X117744890Y-71193008D02*
X118319626Y-70618272D01*
X118100679Y-71548797D02*
X118675415Y-70974061D01*
X118675415Y-70974061D02*
X118456468Y-71576166D01*
X118456468Y-71576166D02*
X119058573Y-71357219D01*
X119058573Y-71357219D02*
X118483836Y-71931955D01*
X119277520Y-71576166D02*
X119633309Y-71931955D01*
X119633309Y-71931955D02*
X119222783Y-71959323D01*
X119222783Y-71959323D02*
X119304888Y-72041428D01*
X119304888Y-72041428D02*
X119332256Y-72123534D01*
X119332256Y-72123534D02*
X119332256Y-72178270D01*
X119332256Y-72178270D02*
X119304888Y-72260376D01*
X119304888Y-72260376D02*
X119168046Y-72397218D01*
X119168046Y-72397218D02*
X119085941Y-72424586D01*
X119085941Y-72424586D02*
X119031204Y-72424586D01*
X119031204Y-72424586D02*
X118949099Y-72397218D01*
X118949099Y-72397218D02*
X118784888Y-72233007D01*
X118784888Y-72233007D02*
X118757520Y-72150902D01*
X118757520Y-72150902D02*
X118757520Y-72096165D01*
X119797519Y-72205639D02*
X119852256Y-72205639D01*
X119852256Y-72205639D02*
X119934361Y-72233007D01*
X119934361Y-72233007D02*
X120071203Y-72369849D01*
X120071203Y-72369849D02*
X120098571Y-72451954D01*
X120098571Y-72451954D02*
X120098571Y-72506691D01*
X120098571Y-72506691D02*
X120071203Y-72588796D01*
X120071203Y-72588796D02*
X120016466Y-72643533D01*
X120016466Y-72643533D02*
X119906993Y-72698270D01*
X119906993Y-72698270D02*
X119250151Y-72698270D01*
X119250151Y-72698270D02*
X119605940Y-73054059D01*
X120700676Y-73054059D02*
X120673308Y-72971954D01*
X120673308Y-72971954D02*
X120591202Y-72889848D01*
X120591202Y-72889848D02*
X120481729Y-72835112D01*
X120481729Y-72835112D02*
X120372255Y-72835112D01*
X120372255Y-72835112D02*
X120290150Y-72862480D01*
X120290150Y-72862480D02*
X120153308Y-72944585D01*
X120153308Y-72944585D02*
X120071203Y-73026690D01*
X120071203Y-73026690D02*
X119989098Y-73163532D01*
X119989098Y-73163532D02*
X119961729Y-73245638D01*
X119961729Y-73245638D02*
X119961729Y-73355111D01*
X119961729Y-73355111D02*
X120016466Y-73464585D01*
X120016466Y-73464585D02*
X120071203Y-73519322D01*
X120071203Y-73519322D02*
X120180677Y-73574058D01*
X120180677Y-73574058D02*
X120235413Y-73574058D01*
X120235413Y-73574058D02*
X120426992Y-73382480D01*
X120426992Y-73382480D02*
X120317519Y-73273006D01*
X121111202Y-73409848D02*
X121165939Y-73464585D01*
X121165939Y-73464585D02*
X121193307Y-73546690D01*
X121193307Y-73546690D02*
X121193307Y-73601427D01*
X121193307Y-73601427D02*
X121165939Y-73683532D01*
X121165939Y-73683532D02*
X121083834Y-73820374D01*
X121083834Y-73820374D02*
X120946992Y-73957216D01*
X120946992Y-73957216D02*
X120810150Y-74039321D01*
X120810150Y-74039321D02*
X120728044Y-74066690D01*
X120728044Y-74066690D02*
X120673308Y-74066690D01*
X120673308Y-74066690D02*
X120591202Y-74039321D01*
X120591202Y-74039321D02*
X120536466Y-73984584D01*
X120536466Y-73984584D02*
X120509097Y-73902479D01*
X120509097Y-73902479D02*
X120509097Y-73847742D01*
X120509097Y-73847742D02*
X120536466Y-73765637D01*
X120536466Y-73765637D02*
X120618571Y-73628795D01*
X120618571Y-73628795D02*
X120755413Y-73491953D01*
X120755413Y-73491953D02*
X120892255Y-73409848D01*
X120892255Y-73409848D02*
X120974360Y-73382480D01*
X120974360Y-73382480D02*
X121029097Y-73382480D01*
X121029097Y-73382480D02*
X121111202Y-73409848D01*
X121412254Y-74860373D02*
X121986991Y-74285637D01*
X121986991Y-74285637D02*
X122205938Y-74504584D01*
X122205938Y-74504584D02*
X122233306Y-74586689D01*
X122233306Y-74586689D02*
X122233306Y-74641426D01*
X122233306Y-74641426D02*
X122205938Y-74723531D01*
X122205938Y-74723531D02*
X122123833Y-74805636D01*
X122123833Y-74805636D02*
X122041727Y-74833005D01*
X122041727Y-74833005D02*
X121986991Y-74833005D01*
X121986991Y-74833005D02*
X121904885Y-74805636D01*
X121904885Y-74805636D02*
X121685938Y-74586689D01*
X121986991Y-75435109D02*
X122561727Y-74860373D01*
X122260675Y-75708794D02*
X122835411Y-75134057D01*
X122835411Y-75134057D02*
X122589096Y-76037214D01*
X122589096Y-76037214D02*
X123163832Y-75462478D01*
X122862780Y-76256162D02*
X122917517Y-76365635D01*
X122917517Y-76365635D02*
X123054359Y-76502477D01*
X123054359Y-76502477D02*
X123136464Y-76529846D01*
X123136464Y-76529846D02*
X123191201Y-76529846D01*
X123191201Y-76529846D02*
X123273306Y-76502477D01*
X123273306Y-76502477D02*
X123328043Y-76447741D01*
X123328043Y-76447741D02*
X123355411Y-76365635D01*
X123355411Y-76365635D02*
X123355411Y-76310899D01*
X123355411Y-76310899D02*
X123328043Y-76228793D01*
X123328043Y-76228793D02*
X123245937Y-76091951D01*
X123245937Y-76091951D02*
X123218569Y-76009846D01*
X123218569Y-76009846D02*
X123218569Y-75955109D01*
X123218569Y-75955109D02*
X123245937Y-75873004D01*
X123245937Y-75873004D02*
X123300674Y-75818267D01*
X123300674Y-75818267D02*
X123382779Y-75790899D01*
X123382779Y-75790899D02*
X123437516Y-75790899D01*
X123437516Y-75790899D02*
X123519621Y-75818267D01*
X123519621Y-75818267D02*
X123656463Y-75955109D01*
X123656463Y-75955109D02*
X123711200Y-76064583D01*
X89792572Y-57742900D02*
X89710467Y-57770268D01*
X89710467Y-57770268D02*
X89628362Y-57852373D01*
X89628362Y-57852373D02*
X89573625Y-57961847D01*
X89573625Y-57961847D02*
X89573625Y-58071321D01*
X89573625Y-58071321D02*
X89600993Y-58153426D01*
X89600993Y-58153426D02*
X89683098Y-58290268D01*
X89683098Y-58290268D02*
X89765204Y-58372373D01*
X89765204Y-58372373D02*
X89902046Y-58454478D01*
X89902046Y-58454478D02*
X89984151Y-58481847D01*
X89984151Y-58481847D02*
X90093624Y-58481847D01*
X90093624Y-58481847D02*
X90203098Y-58427110D01*
X90203098Y-58427110D02*
X90257835Y-58372373D01*
X90257835Y-58372373D02*
X90312572Y-58262899D01*
X90312572Y-58262899D02*
X90312572Y-58208163D01*
X90312572Y-58208163D02*
X90120993Y-58016584D01*
X90120993Y-58016584D02*
X90011519Y-58126057D01*
X90148361Y-57332374D02*
X90203098Y-57277637D01*
X90203098Y-57277637D02*
X90285203Y-57250269D01*
X90285203Y-57250269D02*
X90339940Y-57250269D01*
X90339940Y-57250269D02*
X90422045Y-57277637D01*
X90422045Y-57277637D02*
X90558887Y-57359742D01*
X90558887Y-57359742D02*
X90695729Y-57496584D01*
X90695729Y-57496584D02*
X90777834Y-57633426D01*
X90777834Y-57633426D02*
X90805203Y-57715531D01*
X90805203Y-57715531D02*
X90805203Y-57770268D01*
X90805203Y-57770268D02*
X90777834Y-57852373D01*
X90777834Y-57852373D02*
X90723098Y-57907110D01*
X90723098Y-57907110D02*
X90640992Y-57934479D01*
X90640992Y-57934479D02*
X90586256Y-57934479D01*
X90586256Y-57934479D02*
X90504150Y-57907110D01*
X90504150Y-57907110D02*
X90367308Y-57825005D01*
X90367308Y-57825005D02*
X90230466Y-57688163D01*
X90230466Y-57688163D02*
X90148361Y-57551321D01*
X90148361Y-57551321D02*
X90120993Y-57469216D01*
X90120993Y-57469216D02*
X90120993Y-57414479D01*
X90120993Y-57414479D02*
X90148361Y-57332374D01*
X91078887Y-57660795D02*
X91516781Y-57222900D01*
X91024150Y-56456585D02*
X91489412Y-56921848D01*
X91489412Y-56921848D02*
X91571518Y-56949217D01*
X91571518Y-56949217D02*
X91626254Y-56949217D01*
X91626254Y-56949217D02*
X91708360Y-56921848D01*
X91708360Y-56921848D02*
X91817833Y-56812375D01*
X91817833Y-56812375D02*
X91845202Y-56730269D01*
X91845202Y-56730269D02*
X91845202Y-56675533D01*
X91845202Y-56675533D02*
X91817833Y-56593427D01*
X91817833Y-56593427D02*
X91352570Y-56128165D01*
X92009412Y-56292375D02*
X92283096Y-56018691D01*
X92118886Y-56511322D02*
X91735728Y-55745007D01*
X91735728Y-55745007D02*
X92502043Y-56128164D01*
X93022043Y-55608165D02*
X92556780Y-55526059D01*
X92693622Y-55936585D02*
X92118886Y-55361849D01*
X92118886Y-55361849D02*
X92337833Y-55142902D01*
X92337833Y-55142902D02*
X92419938Y-55115533D01*
X92419938Y-55115533D02*
X92474675Y-55115533D01*
X92474675Y-55115533D02*
X92556780Y-55142902D01*
X92556780Y-55142902D02*
X92638886Y-55225007D01*
X92638886Y-55225007D02*
X92666254Y-55307112D01*
X92666254Y-55307112D02*
X92666254Y-55361849D01*
X92666254Y-55361849D02*
X92638886Y-55443954D01*
X92638886Y-55443954D02*
X92419938Y-55662901D01*
X92611517Y-54869218D02*
X92939938Y-54540797D01*
X93350464Y-55279744D02*
X92775728Y-54705007D01*
X93514674Y-53911324D02*
X93760990Y-55142902D01*
X94253621Y-54321850D02*
X94363095Y-54267113D01*
X94363095Y-54267113D02*
X94499937Y-54130271D01*
X94499937Y-54130271D02*
X94527305Y-54048166D01*
X94527305Y-54048166D02*
X94527305Y-53993429D01*
X94527305Y-53993429D02*
X94499937Y-53911324D01*
X94499937Y-53911324D02*
X94445200Y-53856587D01*
X94445200Y-53856587D02*
X94363095Y-53829219D01*
X94363095Y-53829219D02*
X94308358Y-53829219D01*
X94308358Y-53829219D02*
X94226253Y-53856587D01*
X94226253Y-53856587D02*
X94089411Y-53938692D01*
X94089411Y-53938692D02*
X94007306Y-53966061D01*
X94007306Y-53966061D02*
X93952569Y-53966061D01*
X93952569Y-53966061D02*
X93870464Y-53938692D01*
X93870464Y-53938692D02*
X93815727Y-53883955D01*
X93815727Y-53883955D02*
X93788358Y-53801850D01*
X93788358Y-53801850D02*
X93788358Y-53747113D01*
X93788358Y-53747113D02*
X93815727Y-53665008D01*
X93815727Y-53665008D02*
X93952569Y-53528166D01*
X93952569Y-53528166D02*
X94062042Y-53473429D01*
X94226253Y-53254482D02*
X94937831Y-53692377D01*
X94937831Y-53692377D02*
X94636779Y-53172377D01*
X94636779Y-53172377D02*
X95156778Y-53473430D01*
X95156778Y-53473430D02*
X94718884Y-52761851D01*
X95512567Y-53117641D02*
X94937831Y-52542904D01*
X94937831Y-52542904D02*
X95074673Y-52406062D01*
X95074673Y-52406062D02*
X95184146Y-52351325D01*
X95184146Y-52351325D02*
X95293620Y-52351325D01*
X95293620Y-52351325D02*
X95375725Y-52378694D01*
X95375725Y-52378694D02*
X95512567Y-52460799D01*
X95512567Y-52460799D02*
X95594672Y-52542904D01*
X95594672Y-52542904D02*
X95676778Y-52679746D01*
X95676778Y-52679746D02*
X95704146Y-52761851D01*
X95704146Y-52761851D02*
X95704146Y-52871325D01*
X95704146Y-52871325D02*
X95649409Y-52980799D01*
X95649409Y-52980799D02*
X95512567Y-53117641D01*
X82583243Y-70773069D02*
X82544539Y-70811774D01*
X82544539Y-70811774D02*
X82428424Y-70850478D01*
X82428424Y-70850478D02*
X82351015Y-70850478D01*
X82351015Y-70850478D02*
X82234901Y-70811774D01*
X82234901Y-70811774D02*
X82157491Y-70734364D01*
X82157491Y-70734364D02*
X82118786Y-70656954D01*
X82118786Y-70656954D02*
X82080082Y-70502135D01*
X82080082Y-70502135D02*
X82080082Y-70386021D01*
X82080082Y-70386021D02*
X82118786Y-70231202D01*
X82118786Y-70231202D02*
X82157491Y-70153793D01*
X82157491Y-70153793D02*
X82234901Y-70076383D01*
X82234901Y-70076383D02*
X82351015Y-70037678D01*
X82351015Y-70037678D02*
X82428424Y-70037678D01*
X82428424Y-70037678D02*
X82544539Y-70076383D01*
X82544539Y-70076383D02*
X82583243Y-70115088D01*
X83318634Y-70850478D02*
X82931586Y-70850478D01*
X82931586Y-70850478D02*
X82931586Y-70037678D01*
X83744386Y-70037678D02*
X83899205Y-70037678D01*
X83899205Y-70037678D02*
X83976615Y-70076383D01*
X83976615Y-70076383D02*
X84054024Y-70153793D01*
X84054024Y-70153793D02*
X84092729Y-70308612D01*
X84092729Y-70308612D02*
X84092729Y-70579545D01*
X84092729Y-70579545D02*
X84054024Y-70734364D01*
X84054024Y-70734364D02*
X83976615Y-70811774D01*
X83976615Y-70811774D02*
X83899205Y-70850478D01*
X83899205Y-70850478D02*
X83744386Y-70850478D01*
X83744386Y-70850478D02*
X83666977Y-70811774D01*
X83666977Y-70811774D02*
X83589567Y-70734364D01*
X83589567Y-70734364D02*
X83550863Y-70579545D01*
X83550863Y-70579545D02*
X83550863Y-70308612D01*
X83550863Y-70308612D02*
X83589567Y-70153793D01*
X83589567Y-70153793D02*
X83666977Y-70076383D01*
X83666977Y-70076383D02*
X83744386Y-70037678D01*
X84402368Y-70811774D02*
X84518482Y-70850478D01*
X84518482Y-70850478D02*
X84712006Y-70850478D01*
X84712006Y-70850478D02*
X84789415Y-70811774D01*
X84789415Y-70811774D02*
X84828120Y-70773069D01*
X84828120Y-70773069D02*
X84866825Y-70695659D01*
X84866825Y-70695659D02*
X84866825Y-70618250D01*
X84866825Y-70618250D02*
X84828120Y-70540840D01*
X84828120Y-70540840D02*
X84789415Y-70502135D01*
X84789415Y-70502135D02*
X84712006Y-70463431D01*
X84712006Y-70463431D02*
X84557187Y-70424726D01*
X84557187Y-70424726D02*
X84479777Y-70386021D01*
X84479777Y-70386021D02*
X84441072Y-70347316D01*
X84441072Y-70347316D02*
X84402368Y-70269907D01*
X84402368Y-70269907D02*
X84402368Y-70192497D01*
X84402368Y-70192497D02*
X84441072Y-70115088D01*
X84441072Y-70115088D02*
X84479777Y-70076383D01*
X84479777Y-70076383D02*
X84557187Y-70037678D01*
X84557187Y-70037678D02*
X84750710Y-70037678D01*
X84750710Y-70037678D02*
X84866825Y-70076383D01*
X85215167Y-70424726D02*
X85486101Y-70424726D01*
X85602215Y-70850478D02*
X85215167Y-70850478D01*
X85215167Y-70850478D02*
X85215167Y-70037678D01*
X85215167Y-70037678D02*
X85602215Y-70037678D01*
X86569833Y-70850478D02*
X86569833Y-70037678D01*
X87227815Y-70424726D02*
X86956881Y-70424726D01*
X86956881Y-70850478D02*
X86956881Y-70037678D01*
X86956881Y-70037678D02*
X87343929Y-70037678D01*
X82002672Y-71346240D02*
X82467129Y-71346240D01*
X82234901Y-72159040D02*
X82234901Y-71346240D01*
X82892881Y-71346240D02*
X83047700Y-71346240D01*
X83047700Y-71346240D02*
X83125110Y-71384945D01*
X83125110Y-71384945D02*
X83202519Y-71462355D01*
X83202519Y-71462355D02*
X83241224Y-71617174D01*
X83241224Y-71617174D02*
X83241224Y-71888107D01*
X83241224Y-71888107D02*
X83202519Y-72042926D01*
X83202519Y-72042926D02*
X83125110Y-72120336D01*
X83125110Y-72120336D02*
X83047700Y-72159040D01*
X83047700Y-72159040D02*
X82892881Y-72159040D01*
X82892881Y-72159040D02*
X82815472Y-72120336D01*
X82815472Y-72120336D02*
X82738062Y-72042926D01*
X82738062Y-72042926D02*
X82699358Y-71888107D01*
X82699358Y-71888107D02*
X82699358Y-71617174D01*
X82699358Y-71617174D02*
X82738062Y-71462355D01*
X82738062Y-71462355D02*
X82815472Y-71384945D01*
X82815472Y-71384945D02*
X82892881Y-71346240D01*
X83473453Y-71346240D02*
X83937910Y-71346240D01*
X83705682Y-72159040D02*
X83705682Y-71346240D01*
X84208843Y-71733288D02*
X84479777Y-71733288D01*
X84595891Y-72159040D02*
X84208843Y-72159040D01*
X84208843Y-72159040D02*
X84208843Y-71346240D01*
X84208843Y-71346240D02*
X84595891Y-71346240D01*
X84944233Y-72159040D02*
X84944233Y-71346240D01*
X84944233Y-71346240D02*
X85215167Y-71926812D01*
X85215167Y-71926812D02*
X85486100Y-71346240D01*
X85486100Y-71346240D02*
X85486100Y-72159040D01*
X86492423Y-72159040D02*
X86492423Y-71346240D01*
X86492423Y-71346240D02*
X86802061Y-71346240D01*
X86802061Y-71346240D02*
X86879471Y-71384945D01*
X86879471Y-71384945D02*
X86918176Y-71423650D01*
X86918176Y-71423650D02*
X86956880Y-71501059D01*
X86956880Y-71501059D02*
X86956880Y-71617174D01*
X86956880Y-71617174D02*
X86918176Y-71694583D01*
X86918176Y-71694583D02*
X86879471Y-71733288D01*
X86879471Y-71733288D02*
X86802061Y-71771993D01*
X86802061Y-71771993D02*
X86492423Y-71771993D01*
X87460042Y-71346240D02*
X87614861Y-71346240D01*
X87614861Y-71346240D02*
X87692271Y-71384945D01*
X87692271Y-71384945D02*
X87769680Y-71462355D01*
X87769680Y-71462355D02*
X87808385Y-71617174D01*
X87808385Y-71617174D02*
X87808385Y-71888107D01*
X87808385Y-71888107D02*
X87769680Y-72042926D01*
X87769680Y-72042926D02*
X87692271Y-72120336D01*
X87692271Y-72120336D02*
X87614861Y-72159040D01*
X87614861Y-72159040D02*
X87460042Y-72159040D01*
X87460042Y-72159040D02*
X87382633Y-72120336D01*
X87382633Y-72120336D02*
X87305223Y-72042926D01*
X87305223Y-72042926D02*
X87266519Y-71888107D01*
X87266519Y-71888107D02*
X87266519Y-71617174D01*
X87266519Y-71617174D02*
X87305223Y-71462355D01*
X87305223Y-71462355D02*
X87382633Y-71384945D01*
X87382633Y-71384945D02*
X87460042Y-71346240D01*
X88543776Y-72159040D02*
X88156728Y-72159040D01*
X88156728Y-72159040D02*
X88156728Y-71346240D01*
X88814709Y-71733288D02*
X89085643Y-71733288D01*
X89201757Y-72159040D02*
X88814709Y-72159040D01*
X88814709Y-72159040D02*
X88814709Y-71346240D01*
X88814709Y-71346240D02*
X89201757Y-71346240D01*
X82002672Y-72654802D02*
X82467129Y-72654802D01*
X82234901Y-73467602D02*
X82234901Y-72654802D01*
X82738062Y-73041850D02*
X83008996Y-73041850D01*
X83125110Y-73467602D02*
X82738062Y-73467602D01*
X82738062Y-73467602D02*
X82738062Y-72654802D01*
X82738062Y-72654802D02*
X83125110Y-72654802D01*
X83937909Y-73467602D02*
X83666976Y-73080555D01*
X83473452Y-73467602D02*
X83473452Y-72654802D01*
X83473452Y-72654802D02*
X83783090Y-72654802D01*
X83783090Y-72654802D02*
X83860500Y-72693507D01*
X83860500Y-72693507D02*
X83899205Y-72732212D01*
X83899205Y-72732212D02*
X83937909Y-72809621D01*
X83937909Y-72809621D02*
X83937909Y-72925736D01*
X83937909Y-72925736D02*
X83899205Y-73003145D01*
X83899205Y-73003145D02*
X83860500Y-73041850D01*
X83860500Y-73041850D02*
X83783090Y-73080555D01*
X83783090Y-73080555D02*
X83473452Y-73080555D01*
X84286252Y-73467602D02*
X84286252Y-72654802D01*
X84286252Y-72654802D02*
X84557186Y-73235374D01*
X84557186Y-73235374D02*
X84828119Y-72654802D01*
X84828119Y-72654802D02*
X84828119Y-73467602D01*
X85215166Y-73467602D02*
X85215166Y-72654802D01*
X85602214Y-73467602D02*
X85602214Y-72654802D01*
X85602214Y-72654802D02*
X86066671Y-73467602D01*
X86066671Y-73467602D02*
X86066671Y-72654802D01*
X86415015Y-73235374D02*
X86802062Y-73235374D01*
X86337605Y-73467602D02*
X86608538Y-72654802D01*
X86608538Y-72654802D02*
X86879472Y-73467602D01*
X87034291Y-72654802D02*
X87498748Y-72654802D01*
X87266520Y-73467602D02*
X87266520Y-72654802D01*
X87924500Y-72654802D02*
X88079319Y-72654802D01*
X88079319Y-72654802D02*
X88156729Y-72693507D01*
X88156729Y-72693507D02*
X88234138Y-72770917D01*
X88234138Y-72770917D02*
X88272843Y-72925736D01*
X88272843Y-72925736D02*
X88272843Y-73196669D01*
X88272843Y-73196669D02*
X88234138Y-73351488D01*
X88234138Y-73351488D02*
X88156729Y-73428898D01*
X88156729Y-73428898D02*
X88079319Y-73467602D01*
X88079319Y-73467602D02*
X87924500Y-73467602D01*
X87924500Y-73467602D02*
X87847091Y-73428898D01*
X87847091Y-73428898D02*
X87769681Y-73351488D01*
X87769681Y-73351488D02*
X87730977Y-73196669D01*
X87730977Y-73196669D02*
X87730977Y-72925736D01*
X87730977Y-72925736D02*
X87769681Y-72770917D01*
X87769681Y-72770917D02*
X87847091Y-72693507D01*
X87847091Y-72693507D02*
X87924500Y-72654802D01*
X89085643Y-73467602D02*
X88814710Y-73080555D01*
X88621186Y-73467602D02*
X88621186Y-72654802D01*
X88621186Y-72654802D02*
X88930824Y-72654802D01*
X88930824Y-72654802D02*
X89008234Y-72693507D01*
X89008234Y-72693507D02*
X89046939Y-72732212D01*
X89046939Y-72732212D02*
X89085643Y-72809621D01*
X89085643Y-72809621D02*
X89085643Y-72925736D01*
X89085643Y-72925736D02*
X89046939Y-73003145D01*
X89046939Y-73003145D02*
X89008234Y-73041850D01*
X89008234Y-73041850D02*
X88930824Y-73080555D01*
X88930824Y-73080555D02*
X88621186Y-73080555D01*
X113968786Y-54109041D02*
X113968786Y-53296241D01*
X113968786Y-53296241D02*
X114239720Y-53876813D01*
X114239720Y-53876813D02*
X114510653Y-53296241D01*
X114510653Y-53296241D02*
X114510653Y-54109041D01*
X115246043Y-54109041D02*
X115246043Y-53683289D01*
X115246043Y-53683289D02*
X115207338Y-53605879D01*
X115207338Y-53605879D02*
X115129929Y-53567175D01*
X115129929Y-53567175D02*
X114975110Y-53567175D01*
X114975110Y-53567175D02*
X114897700Y-53605879D01*
X115246043Y-54070337D02*
X115168634Y-54109041D01*
X115168634Y-54109041D02*
X114975110Y-54109041D01*
X114975110Y-54109041D02*
X114897700Y-54070337D01*
X114897700Y-54070337D02*
X114858996Y-53992927D01*
X114858996Y-53992927D02*
X114858996Y-53915517D01*
X114858996Y-53915517D02*
X114897700Y-53838108D01*
X114897700Y-53838108D02*
X114975110Y-53799403D01*
X114975110Y-53799403D02*
X115168634Y-53799403D01*
X115168634Y-53799403D02*
X115246043Y-53760698D01*
X115633090Y-54109041D02*
X115633090Y-53296241D01*
X115710500Y-53799403D02*
X115942728Y-54109041D01*
X115942728Y-53567175D02*
X115633090Y-53876813D01*
X116600709Y-54070337D02*
X116523300Y-54109041D01*
X116523300Y-54109041D02*
X116368481Y-54109041D01*
X116368481Y-54109041D02*
X116291071Y-54070337D01*
X116291071Y-54070337D02*
X116252367Y-53992927D01*
X116252367Y-53992927D02*
X116252367Y-53683289D01*
X116252367Y-53683289D02*
X116291071Y-53605879D01*
X116291071Y-53605879D02*
X116368481Y-53567175D01*
X116368481Y-53567175D02*
X116523300Y-53567175D01*
X116523300Y-53567175D02*
X116600709Y-53605879D01*
X116600709Y-53605879D02*
X116639414Y-53683289D01*
X116639414Y-53683289D02*
X116639414Y-53760698D01*
X116639414Y-53760698D02*
X116252367Y-53838108D01*
X116910348Y-53567175D02*
X117103872Y-54109041D01*
X117297395Y-53567175D02*
X117103872Y-54109041D01*
X117103872Y-54109041D02*
X117026462Y-54302565D01*
X117026462Y-54302565D02*
X116987757Y-54341270D01*
X116987757Y-54341270D02*
X116910348Y-54379975D01*
X117607033Y-54109041D02*
X117607033Y-53296241D01*
X117607033Y-53296241D02*
X117800557Y-53296241D01*
X117800557Y-53296241D02*
X117916671Y-53334946D01*
X117916671Y-53334946D02*
X117994081Y-53412356D01*
X117994081Y-53412356D02*
X118032786Y-53489765D01*
X118032786Y-53489765D02*
X118071490Y-53644584D01*
X118071490Y-53644584D02*
X118071490Y-53760698D01*
X118071490Y-53760698D02*
X118032786Y-53915517D01*
X118032786Y-53915517D02*
X117994081Y-53992927D01*
X117994081Y-53992927D02*
X117916671Y-54070337D01*
X117916671Y-54070337D02*
X117800557Y-54109041D01*
X117800557Y-54109041D02*
X117607033Y-54109041D01*
X118535948Y-54109041D02*
X118458538Y-54070337D01*
X118458538Y-54070337D02*
X118419833Y-54031632D01*
X118419833Y-54031632D02*
X118381129Y-53954222D01*
X118381129Y-53954222D02*
X118381129Y-53721994D01*
X118381129Y-53721994D02*
X118419833Y-53644584D01*
X118419833Y-53644584D02*
X118458538Y-53605879D01*
X118458538Y-53605879D02*
X118535948Y-53567175D01*
X118535948Y-53567175D02*
X118652062Y-53567175D01*
X118652062Y-53567175D02*
X118729471Y-53605879D01*
X118729471Y-53605879D02*
X118768176Y-53644584D01*
X118768176Y-53644584D02*
X118806881Y-53721994D01*
X118806881Y-53721994D02*
X118806881Y-53954222D01*
X118806881Y-53954222D02*
X118768176Y-54031632D01*
X118768176Y-54031632D02*
X118729471Y-54070337D01*
X118729471Y-54070337D02*
X118652062Y-54109041D01*
X118652062Y-54109041D02*
X118535948Y-54109041D01*
X119271338Y-54109041D02*
X119193928Y-54070337D01*
X119193928Y-54070337D02*
X119155223Y-54031632D01*
X119155223Y-54031632D02*
X119116519Y-53954222D01*
X119116519Y-53954222D02*
X119116519Y-53721994D01*
X119116519Y-53721994D02*
X119155223Y-53644584D01*
X119155223Y-53644584D02*
X119193928Y-53605879D01*
X119193928Y-53605879D02*
X119271338Y-53567175D01*
X119271338Y-53567175D02*
X119387452Y-53567175D01*
X119387452Y-53567175D02*
X119464861Y-53605879D01*
X119464861Y-53605879D02*
X119503566Y-53644584D01*
X119503566Y-53644584D02*
X119542271Y-53721994D01*
X119542271Y-53721994D02*
X119542271Y-53954222D01*
X119542271Y-53954222D02*
X119503566Y-54031632D01*
X119503566Y-54031632D02*
X119464861Y-54070337D01*
X119464861Y-54070337D02*
X119387452Y-54109041D01*
X119387452Y-54109041D02*
X119271338Y-54109041D01*
X120200251Y-54070337D02*
X120122842Y-54109041D01*
X120122842Y-54109041D02*
X119968023Y-54109041D01*
X119968023Y-54109041D02*
X119890613Y-54070337D01*
X119890613Y-54070337D02*
X119851909Y-53992927D01*
X119851909Y-53992927D02*
X119851909Y-53683289D01*
X119851909Y-53683289D02*
X119890613Y-53605879D01*
X119890613Y-53605879D02*
X119968023Y-53567175D01*
X119968023Y-53567175D02*
X120122842Y-53567175D01*
X120122842Y-53567175D02*
X120200251Y-53605879D01*
X120200251Y-53605879D02*
X120238956Y-53683289D01*
X120238956Y-53683289D02*
X120238956Y-53760698D01*
X120238956Y-53760698D02*
X119851909Y-53838108D01*
X120509890Y-53567175D02*
X120703414Y-54109041D01*
X120896937Y-53567175D02*
X120703414Y-54109041D01*
X120703414Y-54109041D02*
X120626004Y-54302565D01*
X120626004Y-54302565D02*
X120587299Y-54341270D01*
X120587299Y-54341270D02*
X120509890Y-54379975D01*
X113968786Y-55417603D02*
X113968786Y-54604803D01*
X113968786Y-54604803D02*
X114239720Y-55185375D01*
X114239720Y-55185375D02*
X114510653Y-54604803D01*
X114510653Y-54604803D02*
X114510653Y-55417603D01*
X115246043Y-55417603D02*
X115246043Y-54991851D01*
X115246043Y-54991851D02*
X115207338Y-54914441D01*
X115207338Y-54914441D02*
X115129929Y-54875737D01*
X115129929Y-54875737D02*
X114975110Y-54875737D01*
X114975110Y-54875737D02*
X114897700Y-54914441D01*
X115246043Y-55378899D02*
X115168634Y-55417603D01*
X115168634Y-55417603D02*
X114975110Y-55417603D01*
X114975110Y-55417603D02*
X114897700Y-55378899D01*
X114897700Y-55378899D02*
X114858996Y-55301489D01*
X114858996Y-55301489D02*
X114858996Y-55224079D01*
X114858996Y-55224079D02*
X114897700Y-55146670D01*
X114897700Y-55146670D02*
X114975110Y-55107965D01*
X114975110Y-55107965D02*
X115168634Y-55107965D01*
X115168634Y-55107965D02*
X115246043Y-55069260D01*
X115633090Y-55417603D02*
X115633090Y-54875737D01*
X115633090Y-54604803D02*
X115594386Y-54643508D01*
X115594386Y-54643508D02*
X115633090Y-54682213D01*
X115633090Y-54682213D02*
X115671795Y-54643508D01*
X115671795Y-54643508D02*
X115633090Y-54604803D01*
X115633090Y-54604803D02*
X115633090Y-54682213D01*
X116020138Y-54875737D02*
X116020138Y-55417603D01*
X116020138Y-54953146D02*
X116058843Y-54914441D01*
X116058843Y-54914441D02*
X116136253Y-54875737D01*
X116136253Y-54875737D02*
X116252367Y-54875737D01*
X116252367Y-54875737D02*
X116329776Y-54914441D01*
X116329776Y-54914441D02*
X116368481Y-54991851D01*
X116368481Y-54991851D02*
X116368481Y-55417603D01*
X117258690Y-54604803D02*
X117723147Y-54604803D01*
X117490919Y-55417603D02*
X117490919Y-54604803D01*
X118110195Y-55417603D02*
X118032785Y-55378899D01*
X118032785Y-55378899D02*
X117994080Y-55340194D01*
X117994080Y-55340194D02*
X117955376Y-55262784D01*
X117955376Y-55262784D02*
X117955376Y-55030556D01*
X117955376Y-55030556D02*
X117994080Y-54953146D01*
X117994080Y-54953146D02*
X118032785Y-54914441D01*
X118032785Y-54914441D02*
X118110195Y-54875737D01*
X118110195Y-54875737D02*
X118226309Y-54875737D01*
X118226309Y-54875737D02*
X118303718Y-54914441D01*
X118303718Y-54914441D02*
X118342423Y-54953146D01*
X118342423Y-54953146D02*
X118381128Y-55030556D01*
X118381128Y-55030556D02*
X118381128Y-55262784D01*
X118381128Y-55262784D02*
X118342423Y-55340194D01*
X118342423Y-55340194D02*
X118303718Y-55378899D01*
X118303718Y-55378899D02*
X118226309Y-55417603D01*
X118226309Y-55417603D02*
X118110195Y-55417603D01*
X118613356Y-54875737D02*
X118922994Y-54875737D01*
X118729470Y-54604803D02*
X118729470Y-55301489D01*
X118729470Y-55301489D02*
X118768175Y-55378899D01*
X118768175Y-55378899D02*
X118845585Y-55417603D01*
X118845585Y-55417603D02*
X118922994Y-55417603D01*
X119503565Y-55378899D02*
X119426156Y-55417603D01*
X119426156Y-55417603D02*
X119271337Y-55417603D01*
X119271337Y-55417603D02*
X119193927Y-55378899D01*
X119193927Y-55378899D02*
X119155223Y-55301489D01*
X119155223Y-55301489D02*
X119155223Y-54991851D01*
X119155223Y-54991851D02*
X119193927Y-54914441D01*
X119193927Y-54914441D02*
X119271337Y-54875737D01*
X119271337Y-54875737D02*
X119426156Y-54875737D01*
X119426156Y-54875737D02*
X119503565Y-54914441D01*
X119503565Y-54914441D02*
X119542270Y-54991851D01*
X119542270Y-54991851D02*
X119542270Y-55069260D01*
X119542270Y-55069260D02*
X119155223Y-55146670D01*
X119890613Y-55417603D02*
X119890613Y-54875737D01*
X119890613Y-54953146D02*
X119929318Y-54914441D01*
X119929318Y-54914441D02*
X120006728Y-54875737D01*
X120006728Y-54875737D02*
X120122842Y-54875737D01*
X120122842Y-54875737D02*
X120200251Y-54914441D01*
X120200251Y-54914441D02*
X120238956Y-54991851D01*
X120238956Y-54991851D02*
X120238956Y-55417603D01*
X120238956Y-54991851D02*
X120277661Y-54914441D01*
X120277661Y-54914441D02*
X120355070Y-54875737D01*
X120355070Y-54875737D02*
X120471185Y-54875737D01*
X120471185Y-54875737D02*
X120548594Y-54914441D01*
X120548594Y-54914441D02*
X120587299Y-54991851D01*
X120587299Y-54991851D02*
X120587299Y-55417603D01*
X121477508Y-54604803D02*
X121748441Y-55417603D01*
X121748441Y-55417603D02*
X122019375Y-54604803D01*
X122716061Y-55417603D02*
X122251604Y-55417603D01*
X122483832Y-55417603D02*
X122483832Y-54604803D01*
X122483832Y-54604803D02*
X122406423Y-54720918D01*
X122406423Y-54720918D02*
X122329013Y-54798327D01*
X122329013Y-54798327D02*
X122251604Y-54837032D01*
X114708243Y-59431632D02*
X114669539Y-59470337D01*
X114669539Y-59470337D02*
X114553424Y-59509041D01*
X114553424Y-59509041D02*
X114476015Y-59509041D01*
X114476015Y-59509041D02*
X114359901Y-59470337D01*
X114359901Y-59470337D02*
X114282491Y-59392927D01*
X114282491Y-59392927D02*
X114243786Y-59315517D01*
X114243786Y-59315517D02*
X114205082Y-59160698D01*
X114205082Y-59160698D02*
X114205082Y-59044584D01*
X114205082Y-59044584D02*
X114243786Y-58889765D01*
X114243786Y-58889765D02*
X114282491Y-58812356D01*
X114282491Y-58812356D02*
X114359901Y-58734946D01*
X114359901Y-58734946D02*
X114476015Y-58696241D01*
X114476015Y-58696241D02*
X114553424Y-58696241D01*
X114553424Y-58696241D02*
X114669539Y-58734946D01*
X114669539Y-58734946D02*
X114708243Y-58773651D01*
X115056586Y-59509041D02*
X115056586Y-58696241D01*
X115404929Y-59509041D02*
X115404929Y-59083289D01*
X115404929Y-59083289D02*
X115366224Y-59005879D01*
X115366224Y-59005879D02*
X115288815Y-58967175D01*
X115288815Y-58967175D02*
X115172701Y-58967175D01*
X115172701Y-58967175D02*
X115095291Y-59005879D01*
X115095291Y-59005879D02*
X115056586Y-59044584D01*
X116101614Y-59470337D02*
X116024205Y-59509041D01*
X116024205Y-59509041D02*
X115869386Y-59509041D01*
X115869386Y-59509041D02*
X115791976Y-59470337D01*
X115791976Y-59470337D02*
X115753272Y-59392927D01*
X115753272Y-59392927D02*
X115753272Y-59083289D01*
X115753272Y-59083289D02*
X115791976Y-59005879D01*
X115791976Y-59005879D02*
X115869386Y-58967175D01*
X115869386Y-58967175D02*
X116024205Y-58967175D01*
X116024205Y-58967175D02*
X116101614Y-59005879D01*
X116101614Y-59005879D02*
X116140319Y-59083289D01*
X116140319Y-59083289D02*
X116140319Y-59160698D01*
X116140319Y-59160698D02*
X115753272Y-59238108D01*
X116837005Y-59470337D02*
X116759596Y-59509041D01*
X116759596Y-59509041D02*
X116604777Y-59509041D01*
X116604777Y-59509041D02*
X116527367Y-59470337D01*
X116527367Y-59470337D02*
X116488662Y-59431632D01*
X116488662Y-59431632D02*
X116449958Y-59354222D01*
X116449958Y-59354222D02*
X116449958Y-59121994D01*
X116449958Y-59121994D02*
X116488662Y-59044584D01*
X116488662Y-59044584D02*
X116527367Y-59005879D01*
X116527367Y-59005879D02*
X116604777Y-58967175D01*
X116604777Y-58967175D02*
X116759596Y-58967175D01*
X116759596Y-58967175D02*
X116837005Y-59005879D01*
X117185348Y-59509041D02*
X117185348Y-58696241D01*
X117262758Y-59199403D02*
X117494986Y-59509041D01*
X117494986Y-58967175D02*
X117185348Y-59276813D01*
X118578720Y-59509041D02*
X118501310Y-59470337D01*
X118501310Y-59470337D02*
X118462605Y-59431632D01*
X118462605Y-59431632D02*
X118423901Y-59354222D01*
X118423901Y-59354222D02*
X118423901Y-59121994D01*
X118423901Y-59121994D02*
X118462605Y-59044584D01*
X118462605Y-59044584D02*
X118501310Y-59005879D01*
X118501310Y-59005879D02*
X118578720Y-58967175D01*
X118578720Y-58967175D02*
X118694834Y-58967175D01*
X118694834Y-58967175D02*
X118772243Y-59005879D01*
X118772243Y-59005879D02*
X118810948Y-59044584D01*
X118810948Y-59044584D02*
X118849653Y-59121994D01*
X118849653Y-59121994D02*
X118849653Y-59354222D01*
X118849653Y-59354222D02*
X118810948Y-59431632D01*
X118810948Y-59431632D02*
X118772243Y-59470337D01*
X118772243Y-59470337D02*
X118694834Y-59509041D01*
X118694834Y-59509041D02*
X118578720Y-59509041D01*
X119546338Y-58967175D02*
X119546338Y-59509041D01*
X119197995Y-58967175D02*
X119197995Y-59392927D01*
X119197995Y-59392927D02*
X119236700Y-59470337D01*
X119236700Y-59470337D02*
X119314110Y-59509041D01*
X119314110Y-59509041D02*
X119430224Y-59509041D01*
X119430224Y-59509041D02*
X119507633Y-59470337D01*
X119507633Y-59470337D02*
X119546338Y-59431632D01*
X119817271Y-58967175D02*
X120126909Y-58967175D01*
X119933385Y-58696241D02*
X119933385Y-59392927D01*
X119933385Y-59392927D02*
X119972090Y-59470337D01*
X119972090Y-59470337D02*
X120049500Y-59509041D01*
X120049500Y-59509041D02*
X120126909Y-59509041D01*
X121133233Y-59509041D02*
X121055823Y-59470337D01*
X121055823Y-59470337D02*
X121017118Y-59431632D01*
X121017118Y-59431632D02*
X120978414Y-59354222D01*
X120978414Y-59354222D02*
X120978414Y-59121994D01*
X120978414Y-59121994D02*
X121017118Y-59044584D01*
X121017118Y-59044584D02*
X121055823Y-59005879D01*
X121055823Y-59005879D02*
X121133233Y-58967175D01*
X121133233Y-58967175D02*
X121249347Y-58967175D01*
X121249347Y-58967175D02*
X121326756Y-59005879D01*
X121326756Y-59005879D02*
X121365461Y-59044584D01*
X121365461Y-59044584D02*
X121404166Y-59121994D01*
X121404166Y-59121994D02*
X121404166Y-59354222D01*
X121404166Y-59354222D02*
X121365461Y-59431632D01*
X121365461Y-59431632D02*
X121326756Y-59470337D01*
X121326756Y-59470337D02*
X121249347Y-59509041D01*
X121249347Y-59509041D02*
X121133233Y-59509041D01*
X122100851Y-58967175D02*
X122100851Y-59509041D01*
X121752508Y-58967175D02*
X121752508Y-59392927D01*
X121752508Y-59392927D02*
X121791213Y-59470337D01*
X121791213Y-59470337D02*
X121868623Y-59509041D01*
X121868623Y-59509041D02*
X121984737Y-59509041D01*
X121984737Y-59509041D02*
X122062146Y-59470337D01*
X122062146Y-59470337D02*
X122100851Y-59431632D01*
X122487898Y-59509041D02*
X122487898Y-58967175D01*
X122487898Y-59121994D02*
X122526603Y-59044584D01*
X122526603Y-59044584D02*
X122565308Y-59005879D01*
X122565308Y-59005879D02*
X122642717Y-58967175D01*
X122642717Y-58967175D02*
X122720127Y-58967175D01*
X123610336Y-58967175D02*
X123610336Y-59779975D01*
X123610336Y-59005879D02*
X123687746Y-58967175D01*
X123687746Y-58967175D02*
X123842565Y-58967175D01*
X123842565Y-58967175D02*
X123919974Y-59005879D01*
X123919974Y-59005879D02*
X123958679Y-59044584D01*
X123958679Y-59044584D02*
X123997384Y-59121994D01*
X123997384Y-59121994D02*
X123997384Y-59354222D01*
X123997384Y-59354222D02*
X123958679Y-59431632D01*
X123958679Y-59431632D02*
X123919974Y-59470337D01*
X123919974Y-59470337D02*
X123842565Y-59509041D01*
X123842565Y-59509041D02*
X123687746Y-59509041D01*
X123687746Y-59509041D02*
X123610336Y-59470337D01*
X124461841Y-59509041D02*
X124384431Y-59470337D01*
X124384431Y-59470337D02*
X124345726Y-59392927D01*
X124345726Y-59392927D02*
X124345726Y-58696241D01*
X125119821Y-59509041D02*
X125119821Y-59083289D01*
X125119821Y-59083289D02*
X125081116Y-59005879D01*
X125081116Y-59005879D02*
X125003707Y-58967175D01*
X125003707Y-58967175D02*
X124848888Y-58967175D01*
X124848888Y-58967175D02*
X124771478Y-59005879D01*
X125119821Y-59470337D02*
X125042412Y-59509041D01*
X125042412Y-59509041D02*
X124848888Y-59509041D01*
X124848888Y-59509041D02*
X124771478Y-59470337D01*
X124771478Y-59470337D02*
X124732774Y-59392927D01*
X124732774Y-59392927D02*
X124732774Y-59315517D01*
X124732774Y-59315517D02*
X124771478Y-59238108D01*
X124771478Y-59238108D02*
X124848888Y-59199403D01*
X124848888Y-59199403D02*
X125042412Y-59199403D01*
X125042412Y-59199403D02*
X125119821Y-59160698D01*
X125390754Y-58967175D02*
X125700392Y-58967175D01*
X125506868Y-58696241D02*
X125506868Y-59392927D01*
X125506868Y-59392927D02*
X125545573Y-59470337D01*
X125545573Y-59470337D02*
X125622983Y-59509041D01*
X125622983Y-59509041D02*
X125700392Y-59509041D01*
X125855211Y-58967175D02*
X126164849Y-58967175D01*
X125971325Y-59509041D02*
X125971325Y-58812356D01*
X125971325Y-58812356D02*
X126010030Y-58734946D01*
X126010030Y-58734946D02*
X126087440Y-58696241D01*
X126087440Y-58696241D02*
X126164849Y-58696241D01*
X126551897Y-59509041D02*
X126474487Y-59470337D01*
X126474487Y-59470337D02*
X126435782Y-59431632D01*
X126435782Y-59431632D02*
X126397078Y-59354222D01*
X126397078Y-59354222D02*
X126397078Y-59121994D01*
X126397078Y-59121994D02*
X126435782Y-59044584D01*
X126435782Y-59044584D02*
X126474487Y-59005879D01*
X126474487Y-59005879D02*
X126551897Y-58967175D01*
X126551897Y-58967175D02*
X126668011Y-58967175D01*
X126668011Y-58967175D02*
X126745420Y-59005879D01*
X126745420Y-59005879D02*
X126784125Y-59044584D01*
X126784125Y-59044584D02*
X126822830Y-59121994D01*
X126822830Y-59121994D02*
X126822830Y-59354222D01*
X126822830Y-59354222D02*
X126784125Y-59431632D01*
X126784125Y-59431632D02*
X126745420Y-59470337D01*
X126745420Y-59470337D02*
X126668011Y-59509041D01*
X126668011Y-59509041D02*
X126551897Y-59509041D01*
X127171172Y-59509041D02*
X127171172Y-58967175D01*
X127171172Y-59121994D02*
X127209877Y-59044584D01*
X127209877Y-59044584D02*
X127248582Y-59005879D01*
X127248582Y-59005879D02*
X127325991Y-58967175D01*
X127325991Y-58967175D02*
X127403401Y-58967175D01*
X127674334Y-59509041D02*
X127674334Y-58967175D01*
X127674334Y-59044584D02*
X127713039Y-59005879D01*
X127713039Y-59005879D02*
X127790449Y-58967175D01*
X127790449Y-58967175D02*
X127906563Y-58967175D01*
X127906563Y-58967175D02*
X127983972Y-59005879D01*
X127983972Y-59005879D02*
X128022677Y-59083289D01*
X128022677Y-59083289D02*
X128022677Y-59509041D01*
X128022677Y-59083289D02*
X128061382Y-59005879D01*
X128061382Y-59005879D02*
X128138791Y-58967175D01*
X128138791Y-58967175D02*
X128254906Y-58967175D01*
X128254906Y-58967175D02*
X128332315Y-59005879D01*
X128332315Y-59005879D02*
X128371020Y-59083289D01*
X128371020Y-59083289D02*
X128371020Y-59509041D01*
X128758067Y-59431632D02*
X128796772Y-59470337D01*
X128796772Y-59470337D02*
X128758067Y-59509041D01*
X128758067Y-59509041D02*
X128719363Y-59470337D01*
X128719363Y-59470337D02*
X128758067Y-59431632D01*
X128758067Y-59431632D02*
X128758067Y-59509041D01*
X128758067Y-59199403D02*
X128719363Y-58734946D01*
X128719363Y-58734946D02*
X128758067Y-58696241D01*
X128758067Y-58696241D02*
X128796772Y-58734946D01*
X128796772Y-58734946D02*
X128758067Y-59199403D01*
X128758067Y-59199403D02*
X128758067Y-58696241D01*
X114243786Y-60817603D02*
X114243786Y-60004803D01*
X114592129Y-60817603D02*
X114592129Y-60391851D01*
X114592129Y-60391851D02*
X114553424Y-60314441D01*
X114553424Y-60314441D02*
X114476015Y-60275737D01*
X114476015Y-60275737D02*
X114359901Y-60275737D01*
X114359901Y-60275737D02*
X114282491Y-60314441D01*
X114282491Y-60314441D02*
X114243786Y-60353146D01*
X114863062Y-60275737D02*
X115172700Y-60275737D01*
X114979176Y-60004803D02*
X114979176Y-60701489D01*
X114979176Y-60701489D02*
X115017881Y-60778899D01*
X115017881Y-60778899D02*
X115095291Y-60817603D01*
X115095291Y-60817603D02*
X115172700Y-60817603D01*
X115327519Y-60275737D02*
X115637157Y-60275737D01*
X115443633Y-60004803D02*
X115443633Y-60701489D01*
X115443633Y-60701489D02*
X115482338Y-60778899D01*
X115482338Y-60778899D02*
X115559748Y-60817603D01*
X115559748Y-60817603D02*
X115637157Y-60817603D01*
X115908090Y-60275737D02*
X115908090Y-61088537D01*
X115908090Y-60314441D02*
X115985500Y-60275737D01*
X115985500Y-60275737D02*
X116140319Y-60275737D01*
X116140319Y-60275737D02*
X116217728Y-60314441D01*
X116217728Y-60314441D02*
X116256433Y-60353146D01*
X116256433Y-60353146D02*
X116295138Y-60430556D01*
X116295138Y-60430556D02*
X116295138Y-60662784D01*
X116295138Y-60662784D02*
X116256433Y-60740194D01*
X116256433Y-60740194D02*
X116217728Y-60778899D01*
X116217728Y-60778899D02*
X116140319Y-60817603D01*
X116140319Y-60817603D02*
X115985500Y-60817603D01*
X115985500Y-60817603D02*
X115908090Y-60778899D01*
X116604776Y-60778899D02*
X116682185Y-60817603D01*
X116682185Y-60817603D02*
X116837004Y-60817603D01*
X116837004Y-60817603D02*
X116914414Y-60778899D01*
X116914414Y-60778899D02*
X116953118Y-60701489D01*
X116953118Y-60701489D02*
X116953118Y-60662784D01*
X116953118Y-60662784D02*
X116914414Y-60585375D01*
X116914414Y-60585375D02*
X116837004Y-60546670D01*
X116837004Y-60546670D02*
X116720890Y-60546670D01*
X116720890Y-60546670D02*
X116643480Y-60507965D01*
X116643480Y-60507965D02*
X116604776Y-60430556D01*
X116604776Y-60430556D02*
X116604776Y-60391851D01*
X116604776Y-60391851D02*
X116643480Y-60314441D01*
X116643480Y-60314441D02*
X116720890Y-60275737D01*
X116720890Y-60275737D02*
X116837004Y-60275737D01*
X116837004Y-60275737D02*
X116914414Y-60314441D01*
X117301461Y-60740194D02*
X117340166Y-60778899D01*
X117340166Y-60778899D02*
X117301461Y-60817603D01*
X117301461Y-60817603D02*
X117262757Y-60778899D01*
X117262757Y-60778899D02*
X117301461Y-60740194D01*
X117301461Y-60740194D02*
X117301461Y-60817603D01*
X117301461Y-60314441D02*
X117340166Y-60353146D01*
X117340166Y-60353146D02*
X117301461Y-60391851D01*
X117301461Y-60391851D02*
X117262757Y-60353146D01*
X117262757Y-60353146D02*
X117301461Y-60314441D01*
X117301461Y-60314441D02*
X117301461Y-60391851D01*
X118269081Y-59966099D02*
X117572395Y-61011127D01*
X119120586Y-59966099D02*
X118423900Y-61011127D01*
X119739862Y-60275737D02*
X119739862Y-60933718D01*
X119739862Y-60933718D02*
X119701157Y-61011127D01*
X119701157Y-61011127D02*
X119662453Y-61049832D01*
X119662453Y-61049832D02*
X119585043Y-61088537D01*
X119585043Y-61088537D02*
X119468929Y-61088537D01*
X119468929Y-61088537D02*
X119391519Y-61049832D01*
X119739862Y-60778899D02*
X119662453Y-60817603D01*
X119662453Y-60817603D02*
X119507634Y-60817603D01*
X119507634Y-60817603D02*
X119430224Y-60778899D01*
X119430224Y-60778899D02*
X119391519Y-60740194D01*
X119391519Y-60740194D02*
X119352815Y-60662784D01*
X119352815Y-60662784D02*
X119352815Y-60430556D01*
X119352815Y-60430556D02*
X119391519Y-60353146D01*
X119391519Y-60353146D02*
X119430224Y-60314441D01*
X119430224Y-60314441D02*
X119507634Y-60275737D01*
X119507634Y-60275737D02*
X119662453Y-60275737D01*
X119662453Y-60275737D02*
X119739862Y-60314441D01*
X120126909Y-60817603D02*
X120126909Y-60275737D01*
X120126909Y-60004803D02*
X120088205Y-60043508D01*
X120088205Y-60043508D02*
X120126909Y-60082213D01*
X120126909Y-60082213D02*
X120165614Y-60043508D01*
X120165614Y-60043508D02*
X120126909Y-60004803D01*
X120126909Y-60004803D02*
X120126909Y-60082213D01*
X120397843Y-60275737D02*
X120707481Y-60275737D01*
X120513957Y-60004803D02*
X120513957Y-60701489D01*
X120513957Y-60701489D02*
X120552662Y-60778899D01*
X120552662Y-60778899D02*
X120630072Y-60817603D01*
X120630072Y-60817603D02*
X120707481Y-60817603D01*
X120978414Y-60817603D02*
X120978414Y-60004803D01*
X121326757Y-60817603D02*
X121326757Y-60391851D01*
X121326757Y-60391851D02*
X121288052Y-60314441D01*
X121288052Y-60314441D02*
X121210643Y-60275737D01*
X121210643Y-60275737D02*
X121094529Y-60275737D01*
X121094529Y-60275737D02*
X121017119Y-60314441D01*
X121017119Y-60314441D02*
X120978414Y-60353146D01*
X122062147Y-60275737D02*
X122062147Y-60817603D01*
X121713804Y-60275737D02*
X121713804Y-60701489D01*
X121713804Y-60701489D02*
X121752509Y-60778899D01*
X121752509Y-60778899D02*
X121829919Y-60817603D01*
X121829919Y-60817603D02*
X121946033Y-60817603D01*
X121946033Y-60817603D02*
X122023442Y-60778899D01*
X122023442Y-60778899D02*
X122062147Y-60740194D01*
X122449194Y-60817603D02*
X122449194Y-60004803D01*
X122449194Y-60314441D02*
X122526604Y-60275737D01*
X122526604Y-60275737D02*
X122681423Y-60275737D01*
X122681423Y-60275737D02*
X122758832Y-60314441D01*
X122758832Y-60314441D02*
X122797537Y-60353146D01*
X122797537Y-60353146D02*
X122836242Y-60430556D01*
X122836242Y-60430556D02*
X122836242Y-60662784D01*
X122836242Y-60662784D02*
X122797537Y-60740194D01*
X122797537Y-60740194D02*
X122758832Y-60778899D01*
X122758832Y-60778899D02*
X122681423Y-60817603D01*
X122681423Y-60817603D02*
X122526604Y-60817603D01*
X122526604Y-60817603D02*
X122449194Y-60778899D01*
X123184584Y-60740194D02*
X123223289Y-60778899D01*
X123223289Y-60778899D02*
X123184584Y-60817603D01*
X123184584Y-60817603D02*
X123145880Y-60778899D01*
X123145880Y-60778899D02*
X123184584Y-60740194D01*
X123184584Y-60740194D02*
X123184584Y-60817603D01*
X123919975Y-60778899D02*
X123842566Y-60817603D01*
X123842566Y-60817603D02*
X123687747Y-60817603D01*
X123687747Y-60817603D02*
X123610337Y-60778899D01*
X123610337Y-60778899D02*
X123571632Y-60740194D01*
X123571632Y-60740194D02*
X123532928Y-60662784D01*
X123532928Y-60662784D02*
X123532928Y-60430556D01*
X123532928Y-60430556D02*
X123571632Y-60353146D01*
X123571632Y-60353146D02*
X123610337Y-60314441D01*
X123610337Y-60314441D02*
X123687747Y-60275737D01*
X123687747Y-60275737D02*
X123842566Y-60275737D01*
X123842566Y-60275737D02*
X123919975Y-60314441D01*
X124384433Y-60817603D02*
X124307023Y-60778899D01*
X124307023Y-60778899D02*
X124268318Y-60740194D01*
X124268318Y-60740194D02*
X124229614Y-60662784D01*
X124229614Y-60662784D02*
X124229614Y-60430556D01*
X124229614Y-60430556D02*
X124268318Y-60353146D01*
X124268318Y-60353146D02*
X124307023Y-60314441D01*
X124307023Y-60314441D02*
X124384433Y-60275737D01*
X124384433Y-60275737D02*
X124500547Y-60275737D01*
X124500547Y-60275737D02*
X124577956Y-60314441D01*
X124577956Y-60314441D02*
X124616661Y-60353146D01*
X124616661Y-60353146D02*
X124655366Y-60430556D01*
X124655366Y-60430556D02*
X124655366Y-60662784D01*
X124655366Y-60662784D02*
X124616661Y-60740194D01*
X124616661Y-60740194D02*
X124577956Y-60778899D01*
X124577956Y-60778899D02*
X124500547Y-60817603D01*
X124500547Y-60817603D02*
X124384433Y-60817603D01*
X125003708Y-60817603D02*
X125003708Y-60275737D01*
X125003708Y-60353146D02*
X125042413Y-60314441D01*
X125042413Y-60314441D02*
X125119823Y-60275737D01*
X125119823Y-60275737D02*
X125235937Y-60275737D01*
X125235937Y-60275737D02*
X125313346Y-60314441D01*
X125313346Y-60314441D02*
X125352051Y-60391851D01*
X125352051Y-60391851D02*
X125352051Y-60817603D01*
X125352051Y-60391851D02*
X125390756Y-60314441D01*
X125390756Y-60314441D02*
X125468165Y-60275737D01*
X125468165Y-60275737D02*
X125584280Y-60275737D01*
X125584280Y-60275737D02*
X125661689Y-60314441D01*
X125661689Y-60314441D02*
X125700394Y-60391851D01*
X125700394Y-60391851D02*
X125700394Y-60817603D01*
X126668013Y-59966099D02*
X125971327Y-61011127D01*
X126938946Y-60817603D02*
X126938946Y-60004803D01*
X126938946Y-60004803D02*
X127209880Y-60585375D01*
X127209880Y-60585375D02*
X127480813Y-60004803D01*
X127480813Y-60004803D02*
X127480813Y-60817603D01*
X128216203Y-60817603D02*
X128216203Y-60391851D01*
X128216203Y-60391851D02*
X128177498Y-60314441D01*
X128177498Y-60314441D02*
X128100089Y-60275737D01*
X128100089Y-60275737D02*
X127945270Y-60275737D01*
X127945270Y-60275737D02*
X127867860Y-60314441D01*
X128216203Y-60778899D02*
X128138794Y-60817603D01*
X128138794Y-60817603D02*
X127945270Y-60817603D01*
X127945270Y-60817603D02*
X127867860Y-60778899D01*
X127867860Y-60778899D02*
X127829156Y-60701489D01*
X127829156Y-60701489D02*
X127829156Y-60624079D01*
X127829156Y-60624079D02*
X127867860Y-60546670D01*
X127867860Y-60546670D02*
X127945270Y-60507965D01*
X127945270Y-60507965D02*
X128138794Y-60507965D01*
X128138794Y-60507965D02*
X128216203Y-60469260D01*
X128603250Y-60817603D02*
X128603250Y-60004803D01*
X128680660Y-60507965D02*
X128912888Y-60817603D01*
X128912888Y-60275737D02*
X128603250Y-60585375D01*
X129570869Y-60778899D02*
X129493460Y-60817603D01*
X129493460Y-60817603D02*
X129338641Y-60817603D01*
X129338641Y-60817603D02*
X129261231Y-60778899D01*
X129261231Y-60778899D02*
X129222527Y-60701489D01*
X129222527Y-60701489D02*
X129222527Y-60391851D01*
X129222527Y-60391851D02*
X129261231Y-60314441D01*
X129261231Y-60314441D02*
X129338641Y-60275737D01*
X129338641Y-60275737D02*
X129493460Y-60275737D01*
X129493460Y-60275737D02*
X129570869Y-60314441D01*
X129570869Y-60314441D02*
X129609574Y-60391851D01*
X129609574Y-60391851D02*
X129609574Y-60469260D01*
X129609574Y-60469260D02*
X129222527Y-60546670D01*
X129880508Y-60275737D02*
X130074032Y-60817603D01*
X130267555Y-60275737D02*
X130074032Y-60817603D01*
X130074032Y-60817603D02*
X129996622Y-61011127D01*
X129996622Y-61011127D02*
X129957917Y-61049832D01*
X129957917Y-61049832D02*
X129880508Y-61088537D01*
X130577193Y-60817603D02*
X130577193Y-60004803D01*
X130577193Y-60004803D02*
X130770717Y-60004803D01*
X130770717Y-60004803D02*
X130886831Y-60043508D01*
X130886831Y-60043508D02*
X130964241Y-60120918D01*
X130964241Y-60120918D02*
X131002946Y-60198327D01*
X131002946Y-60198327D02*
X131041650Y-60353146D01*
X131041650Y-60353146D02*
X131041650Y-60469260D01*
X131041650Y-60469260D02*
X131002946Y-60624079D01*
X131002946Y-60624079D02*
X130964241Y-60701489D01*
X130964241Y-60701489D02*
X130886831Y-60778899D01*
X130886831Y-60778899D02*
X130770717Y-60817603D01*
X130770717Y-60817603D02*
X130577193Y-60817603D01*
X131506108Y-60817603D02*
X131428698Y-60778899D01*
X131428698Y-60778899D02*
X131389993Y-60740194D01*
X131389993Y-60740194D02*
X131351289Y-60662784D01*
X131351289Y-60662784D02*
X131351289Y-60430556D01*
X131351289Y-60430556D02*
X131389993Y-60353146D01*
X131389993Y-60353146D02*
X131428698Y-60314441D01*
X131428698Y-60314441D02*
X131506108Y-60275737D01*
X131506108Y-60275737D02*
X131622222Y-60275737D01*
X131622222Y-60275737D02*
X131699631Y-60314441D01*
X131699631Y-60314441D02*
X131738336Y-60353146D01*
X131738336Y-60353146D02*
X131777041Y-60430556D01*
X131777041Y-60430556D02*
X131777041Y-60662784D01*
X131777041Y-60662784D02*
X131738336Y-60740194D01*
X131738336Y-60740194D02*
X131699631Y-60778899D01*
X131699631Y-60778899D02*
X131622222Y-60817603D01*
X131622222Y-60817603D02*
X131506108Y-60817603D01*
X132241498Y-60817603D02*
X132164088Y-60778899D01*
X132164088Y-60778899D02*
X132125383Y-60740194D01*
X132125383Y-60740194D02*
X132086679Y-60662784D01*
X132086679Y-60662784D02*
X132086679Y-60430556D01*
X132086679Y-60430556D02*
X132125383Y-60353146D01*
X132125383Y-60353146D02*
X132164088Y-60314441D01*
X132164088Y-60314441D02*
X132241498Y-60275737D01*
X132241498Y-60275737D02*
X132357612Y-60275737D01*
X132357612Y-60275737D02*
X132435021Y-60314441D01*
X132435021Y-60314441D02*
X132473726Y-60353146D01*
X132473726Y-60353146D02*
X132512431Y-60430556D01*
X132512431Y-60430556D02*
X132512431Y-60662784D01*
X132512431Y-60662784D02*
X132473726Y-60740194D01*
X132473726Y-60740194D02*
X132435021Y-60778899D01*
X132435021Y-60778899D02*
X132357612Y-60817603D01*
X132357612Y-60817603D02*
X132241498Y-60817603D01*
X133170411Y-60778899D02*
X133093002Y-60817603D01*
X133093002Y-60817603D02*
X132938183Y-60817603D01*
X132938183Y-60817603D02*
X132860773Y-60778899D01*
X132860773Y-60778899D02*
X132822069Y-60701489D01*
X132822069Y-60701489D02*
X132822069Y-60391851D01*
X132822069Y-60391851D02*
X132860773Y-60314441D01*
X132860773Y-60314441D02*
X132938183Y-60275737D01*
X132938183Y-60275737D02*
X133093002Y-60275737D01*
X133093002Y-60275737D02*
X133170411Y-60314441D01*
X133170411Y-60314441D02*
X133209116Y-60391851D01*
X133209116Y-60391851D02*
X133209116Y-60469260D01*
X133209116Y-60469260D02*
X132822069Y-60546670D01*
X133480050Y-60275737D02*
X133673574Y-60817603D01*
X133867097Y-60275737D02*
X133673574Y-60817603D01*
X133673574Y-60817603D02*
X133596164Y-61011127D01*
X133596164Y-61011127D02*
X133557459Y-61049832D01*
X133557459Y-61049832D02*
X133480050Y-61088537D01*
X86093786Y-101534041D02*
X86093786Y-100721241D01*
X86093786Y-100721241D02*
X86287310Y-100721241D01*
X86287310Y-100721241D02*
X86403424Y-100759946D01*
X86403424Y-100759946D02*
X86480834Y-100837356D01*
X86480834Y-100837356D02*
X86519539Y-100914765D01*
X86519539Y-100914765D02*
X86558243Y-101069584D01*
X86558243Y-101069584D02*
X86558243Y-101185698D01*
X86558243Y-101185698D02*
X86519539Y-101340517D01*
X86519539Y-101340517D02*
X86480834Y-101417927D01*
X86480834Y-101417927D02*
X86403424Y-101495337D01*
X86403424Y-101495337D02*
X86287310Y-101534041D01*
X86287310Y-101534041D02*
X86093786Y-101534041D01*
X87216224Y-101495337D02*
X87138815Y-101534041D01*
X87138815Y-101534041D02*
X86983996Y-101534041D01*
X86983996Y-101534041D02*
X86906586Y-101495337D01*
X86906586Y-101495337D02*
X86867882Y-101417927D01*
X86867882Y-101417927D02*
X86867882Y-101108289D01*
X86867882Y-101108289D02*
X86906586Y-101030879D01*
X86906586Y-101030879D02*
X86983996Y-100992175D01*
X86983996Y-100992175D02*
X87138815Y-100992175D01*
X87138815Y-100992175D02*
X87216224Y-101030879D01*
X87216224Y-101030879D02*
X87254929Y-101108289D01*
X87254929Y-101108289D02*
X87254929Y-101185698D01*
X87254929Y-101185698D02*
X86867882Y-101263108D01*
X87564568Y-101495337D02*
X87641977Y-101534041D01*
X87641977Y-101534041D02*
X87796796Y-101534041D01*
X87796796Y-101534041D02*
X87874206Y-101495337D01*
X87874206Y-101495337D02*
X87912910Y-101417927D01*
X87912910Y-101417927D02*
X87912910Y-101379222D01*
X87912910Y-101379222D02*
X87874206Y-101301813D01*
X87874206Y-101301813D02*
X87796796Y-101263108D01*
X87796796Y-101263108D02*
X87680682Y-101263108D01*
X87680682Y-101263108D02*
X87603272Y-101224403D01*
X87603272Y-101224403D02*
X87564568Y-101146994D01*
X87564568Y-101146994D02*
X87564568Y-101108289D01*
X87564568Y-101108289D02*
X87603272Y-101030879D01*
X87603272Y-101030879D02*
X87680682Y-100992175D01*
X87680682Y-100992175D02*
X87796796Y-100992175D01*
X87796796Y-100992175D02*
X87874206Y-101030879D01*
X88261253Y-101534041D02*
X88261253Y-100992175D01*
X88261253Y-100721241D02*
X88222549Y-100759946D01*
X88222549Y-100759946D02*
X88261253Y-100798651D01*
X88261253Y-100798651D02*
X88299958Y-100759946D01*
X88299958Y-100759946D02*
X88261253Y-100721241D01*
X88261253Y-100721241D02*
X88261253Y-100798651D01*
X88996644Y-100992175D02*
X88996644Y-101650156D01*
X88996644Y-101650156D02*
X88957939Y-101727565D01*
X88957939Y-101727565D02*
X88919235Y-101766270D01*
X88919235Y-101766270D02*
X88841825Y-101804975D01*
X88841825Y-101804975D02*
X88725711Y-101804975D01*
X88725711Y-101804975D02*
X88648301Y-101766270D01*
X88996644Y-101495337D02*
X88919235Y-101534041D01*
X88919235Y-101534041D02*
X88764416Y-101534041D01*
X88764416Y-101534041D02*
X88687006Y-101495337D01*
X88687006Y-101495337D02*
X88648301Y-101456632D01*
X88648301Y-101456632D02*
X88609597Y-101379222D01*
X88609597Y-101379222D02*
X88609597Y-101146994D01*
X88609597Y-101146994D02*
X88648301Y-101069584D01*
X88648301Y-101069584D02*
X88687006Y-101030879D01*
X88687006Y-101030879D02*
X88764416Y-100992175D01*
X88764416Y-100992175D02*
X88919235Y-100992175D01*
X88919235Y-100992175D02*
X88996644Y-101030879D01*
X89383691Y-100992175D02*
X89383691Y-101534041D01*
X89383691Y-101069584D02*
X89422396Y-101030879D01*
X89422396Y-101030879D02*
X89499806Y-100992175D01*
X89499806Y-100992175D02*
X89615920Y-100992175D01*
X89615920Y-100992175D02*
X89693329Y-101030879D01*
X89693329Y-101030879D02*
X89732034Y-101108289D01*
X89732034Y-101108289D02*
X89732034Y-101534041D01*
X90428719Y-101495337D02*
X90351310Y-101534041D01*
X90351310Y-101534041D02*
X90196491Y-101534041D01*
X90196491Y-101534041D02*
X90119081Y-101495337D01*
X90119081Y-101495337D02*
X90080377Y-101417927D01*
X90080377Y-101417927D02*
X90080377Y-101108289D01*
X90080377Y-101108289D02*
X90119081Y-101030879D01*
X90119081Y-101030879D02*
X90196491Y-100992175D01*
X90196491Y-100992175D02*
X90351310Y-100992175D01*
X90351310Y-100992175D02*
X90428719Y-101030879D01*
X90428719Y-101030879D02*
X90467424Y-101108289D01*
X90467424Y-101108289D02*
X90467424Y-101185698D01*
X90467424Y-101185698D02*
X90080377Y-101263108D01*
X91164110Y-101534041D02*
X91164110Y-100721241D01*
X91164110Y-101495337D02*
X91086701Y-101534041D01*
X91086701Y-101534041D02*
X90931882Y-101534041D01*
X90931882Y-101534041D02*
X90854472Y-101495337D01*
X90854472Y-101495337D02*
X90815767Y-101456632D01*
X90815767Y-101456632D02*
X90777063Y-101379222D01*
X90777063Y-101379222D02*
X90777063Y-101146994D01*
X90777063Y-101146994D02*
X90815767Y-101069584D01*
X90815767Y-101069584D02*
X90854472Y-101030879D01*
X90854472Y-101030879D02*
X90931882Y-100992175D01*
X90931882Y-100992175D02*
X91086701Y-100992175D01*
X91086701Y-100992175D02*
X91164110Y-101030879D01*
X92170433Y-101534041D02*
X92170433Y-100721241D01*
X92170433Y-101030879D02*
X92247843Y-100992175D01*
X92247843Y-100992175D02*
X92402662Y-100992175D01*
X92402662Y-100992175D02*
X92480071Y-101030879D01*
X92480071Y-101030879D02*
X92518776Y-101069584D01*
X92518776Y-101069584D02*
X92557481Y-101146994D01*
X92557481Y-101146994D02*
X92557481Y-101379222D01*
X92557481Y-101379222D02*
X92518776Y-101456632D01*
X92518776Y-101456632D02*
X92480071Y-101495337D01*
X92480071Y-101495337D02*
X92402662Y-101534041D01*
X92402662Y-101534041D02*
X92247843Y-101534041D01*
X92247843Y-101534041D02*
X92170433Y-101495337D01*
X92828414Y-100992175D02*
X93021938Y-101534041D01*
X93215461Y-100992175D02*
X93021938Y-101534041D01*
X93021938Y-101534041D02*
X92944528Y-101727565D01*
X92944528Y-101727565D02*
X92905823Y-101766270D01*
X92905823Y-101766270D02*
X92828414Y-101804975D01*
X94144375Y-101534041D02*
X94144375Y-100721241D01*
X94144375Y-100721241D02*
X94337899Y-100721241D01*
X94337899Y-100721241D02*
X94454013Y-100759946D01*
X94454013Y-100759946D02*
X94531423Y-100837356D01*
X94531423Y-100837356D02*
X94570128Y-100914765D01*
X94570128Y-100914765D02*
X94608832Y-101069584D01*
X94608832Y-101069584D02*
X94608832Y-101185698D01*
X94608832Y-101185698D02*
X94570128Y-101340517D01*
X94570128Y-101340517D02*
X94531423Y-101417927D01*
X94531423Y-101417927D02*
X94454013Y-101495337D01*
X94454013Y-101495337D02*
X94337899Y-101534041D01*
X94337899Y-101534041D02*
X94144375Y-101534041D01*
X95073290Y-101534041D02*
X94995880Y-101495337D01*
X94995880Y-101495337D02*
X94957175Y-101456632D01*
X94957175Y-101456632D02*
X94918471Y-101379222D01*
X94918471Y-101379222D02*
X94918471Y-101146994D01*
X94918471Y-101146994D02*
X94957175Y-101069584D01*
X94957175Y-101069584D02*
X94995880Y-101030879D01*
X94995880Y-101030879D02*
X95073290Y-100992175D01*
X95073290Y-100992175D02*
X95189404Y-100992175D01*
X95189404Y-100992175D02*
X95266813Y-101030879D01*
X95266813Y-101030879D02*
X95305518Y-101069584D01*
X95305518Y-101069584D02*
X95344223Y-101146994D01*
X95344223Y-101146994D02*
X95344223Y-101379222D01*
X95344223Y-101379222D02*
X95305518Y-101456632D01*
X95305518Y-101456632D02*
X95266813Y-101495337D01*
X95266813Y-101495337D02*
X95189404Y-101534041D01*
X95189404Y-101534041D02*
X95073290Y-101534041D01*
X95692565Y-101534041D02*
X95692565Y-100992175D01*
X95692565Y-101069584D02*
X95731270Y-101030879D01*
X95731270Y-101030879D02*
X95808680Y-100992175D01*
X95808680Y-100992175D02*
X95924794Y-100992175D01*
X95924794Y-100992175D02*
X96002203Y-101030879D01*
X96002203Y-101030879D02*
X96040908Y-101108289D01*
X96040908Y-101108289D02*
X96040908Y-101534041D01*
X96040908Y-101108289D02*
X96079613Y-101030879D01*
X96079613Y-101030879D02*
X96157022Y-100992175D01*
X96157022Y-100992175D02*
X96273137Y-100992175D01*
X96273137Y-100992175D02*
X96350546Y-101030879D01*
X96350546Y-101030879D02*
X96389251Y-101108289D01*
X96389251Y-101108289D02*
X96389251Y-101534041D01*
X97395574Y-101534041D02*
X97395574Y-100721241D01*
X97395574Y-100721241D02*
X97666508Y-101301813D01*
X97666508Y-101301813D02*
X97937441Y-100721241D01*
X97937441Y-100721241D02*
X97937441Y-101534041D01*
X98672831Y-100992175D02*
X98672831Y-101534041D01*
X98324488Y-100992175D02*
X98324488Y-101417927D01*
X98324488Y-101417927D02*
X98363193Y-101495337D01*
X98363193Y-101495337D02*
X98440603Y-101534041D01*
X98440603Y-101534041D02*
X98556717Y-101534041D01*
X98556717Y-101534041D02*
X98634126Y-101495337D01*
X98634126Y-101495337D02*
X98672831Y-101456632D01*
X99059878Y-101534041D02*
X99059878Y-100992175D01*
X99059878Y-101146994D02*
X99098583Y-101069584D01*
X99098583Y-101069584D02*
X99137288Y-101030879D01*
X99137288Y-101030879D02*
X99214697Y-100992175D01*
X99214697Y-100992175D02*
X99292107Y-100992175D01*
X99563040Y-100992175D02*
X99563040Y-101804975D01*
X99563040Y-101030879D02*
X99640450Y-100992175D01*
X99640450Y-100992175D02*
X99795269Y-100992175D01*
X99795269Y-100992175D02*
X99872678Y-101030879D01*
X99872678Y-101030879D02*
X99911383Y-101069584D01*
X99911383Y-101069584D02*
X99950088Y-101146994D01*
X99950088Y-101146994D02*
X99950088Y-101379222D01*
X99950088Y-101379222D02*
X99911383Y-101456632D01*
X99911383Y-101456632D02*
X99872678Y-101495337D01*
X99872678Y-101495337D02*
X99795269Y-101534041D01*
X99795269Y-101534041D02*
X99640450Y-101534041D01*
X99640450Y-101534041D02*
X99563040Y-101495337D01*
X100298430Y-101534041D02*
X100298430Y-100721241D01*
X100646773Y-101534041D02*
X100646773Y-101108289D01*
X100646773Y-101108289D02*
X100608068Y-101030879D01*
X100608068Y-101030879D02*
X100530659Y-100992175D01*
X100530659Y-100992175D02*
X100414545Y-100992175D01*
X100414545Y-100992175D02*
X100337135Y-101030879D01*
X100337135Y-101030879D02*
X100298430Y-101069584D01*
X100956411Y-100992175D02*
X101149935Y-101534041D01*
X101343458Y-100992175D02*
X101149935Y-101534041D01*
X101149935Y-101534041D02*
X101072525Y-101727565D01*
X101072525Y-101727565D02*
X101033820Y-101766270D01*
X101033820Y-101766270D02*
X100956411Y-101804975D01*
X86093786Y-102842603D02*
X86093786Y-102029803D01*
X86442129Y-102842603D02*
X86442129Y-102416851D01*
X86442129Y-102416851D02*
X86403424Y-102339441D01*
X86403424Y-102339441D02*
X86326015Y-102300737D01*
X86326015Y-102300737D02*
X86209901Y-102300737D01*
X86209901Y-102300737D02*
X86132491Y-102339441D01*
X86132491Y-102339441D02*
X86093786Y-102378146D01*
X86713062Y-102300737D02*
X87022700Y-102300737D01*
X86829176Y-102029803D02*
X86829176Y-102726489D01*
X86829176Y-102726489D02*
X86867881Y-102803899D01*
X86867881Y-102803899D02*
X86945291Y-102842603D01*
X86945291Y-102842603D02*
X87022700Y-102842603D01*
X87177519Y-102300737D02*
X87487157Y-102300737D01*
X87293633Y-102029803D02*
X87293633Y-102726489D01*
X87293633Y-102726489D02*
X87332338Y-102803899D01*
X87332338Y-102803899D02*
X87409748Y-102842603D01*
X87409748Y-102842603D02*
X87487157Y-102842603D01*
X87758090Y-102300737D02*
X87758090Y-103113537D01*
X87758090Y-102339441D02*
X87835500Y-102300737D01*
X87835500Y-102300737D02*
X87990319Y-102300737D01*
X87990319Y-102300737D02*
X88067728Y-102339441D01*
X88067728Y-102339441D02*
X88106433Y-102378146D01*
X88106433Y-102378146D02*
X88145138Y-102455556D01*
X88145138Y-102455556D02*
X88145138Y-102687784D01*
X88145138Y-102687784D02*
X88106433Y-102765194D01*
X88106433Y-102765194D02*
X88067728Y-102803899D01*
X88067728Y-102803899D02*
X87990319Y-102842603D01*
X87990319Y-102842603D02*
X87835500Y-102842603D01*
X87835500Y-102842603D02*
X87758090Y-102803899D01*
X88454776Y-102803899D02*
X88532185Y-102842603D01*
X88532185Y-102842603D02*
X88687004Y-102842603D01*
X88687004Y-102842603D02*
X88764414Y-102803899D01*
X88764414Y-102803899D02*
X88803118Y-102726489D01*
X88803118Y-102726489D02*
X88803118Y-102687784D01*
X88803118Y-102687784D02*
X88764414Y-102610375D01*
X88764414Y-102610375D02*
X88687004Y-102571670D01*
X88687004Y-102571670D02*
X88570890Y-102571670D01*
X88570890Y-102571670D02*
X88493480Y-102532965D01*
X88493480Y-102532965D02*
X88454776Y-102455556D01*
X88454776Y-102455556D02*
X88454776Y-102416851D01*
X88454776Y-102416851D02*
X88493480Y-102339441D01*
X88493480Y-102339441D02*
X88570890Y-102300737D01*
X88570890Y-102300737D02*
X88687004Y-102300737D01*
X88687004Y-102300737D02*
X88764414Y-102339441D01*
X89151461Y-102765194D02*
X89190166Y-102803899D01*
X89190166Y-102803899D02*
X89151461Y-102842603D01*
X89151461Y-102842603D02*
X89112757Y-102803899D01*
X89112757Y-102803899D02*
X89151461Y-102765194D01*
X89151461Y-102765194D02*
X89151461Y-102842603D01*
X89151461Y-102339441D02*
X89190166Y-102378146D01*
X89190166Y-102378146D02*
X89151461Y-102416851D01*
X89151461Y-102416851D02*
X89112757Y-102378146D01*
X89112757Y-102378146D02*
X89151461Y-102339441D01*
X89151461Y-102339441D02*
X89151461Y-102416851D01*
X90119081Y-101991099D02*
X89422395Y-103036127D01*
X90970586Y-101991099D02*
X90273900Y-103036127D01*
X91589862Y-102300737D02*
X91589862Y-102958718D01*
X91589862Y-102958718D02*
X91551157Y-103036127D01*
X91551157Y-103036127D02*
X91512453Y-103074832D01*
X91512453Y-103074832D02*
X91435043Y-103113537D01*
X91435043Y-103113537D02*
X91318929Y-103113537D01*
X91318929Y-103113537D02*
X91241519Y-103074832D01*
X91589862Y-102803899D02*
X91512453Y-102842603D01*
X91512453Y-102842603D02*
X91357634Y-102842603D01*
X91357634Y-102842603D02*
X91280224Y-102803899D01*
X91280224Y-102803899D02*
X91241519Y-102765194D01*
X91241519Y-102765194D02*
X91202815Y-102687784D01*
X91202815Y-102687784D02*
X91202815Y-102455556D01*
X91202815Y-102455556D02*
X91241519Y-102378146D01*
X91241519Y-102378146D02*
X91280224Y-102339441D01*
X91280224Y-102339441D02*
X91357634Y-102300737D01*
X91357634Y-102300737D02*
X91512453Y-102300737D01*
X91512453Y-102300737D02*
X91589862Y-102339441D01*
X91976909Y-102842603D02*
X91976909Y-102300737D01*
X91976909Y-102029803D02*
X91938205Y-102068508D01*
X91938205Y-102068508D02*
X91976909Y-102107213D01*
X91976909Y-102107213D02*
X92015614Y-102068508D01*
X92015614Y-102068508D02*
X91976909Y-102029803D01*
X91976909Y-102029803D02*
X91976909Y-102107213D01*
X92247843Y-102300737D02*
X92557481Y-102300737D01*
X92363957Y-102029803D02*
X92363957Y-102726489D01*
X92363957Y-102726489D02*
X92402662Y-102803899D01*
X92402662Y-102803899D02*
X92480072Y-102842603D01*
X92480072Y-102842603D02*
X92557481Y-102842603D01*
X92828414Y-102842603D02*
X92828414Y-102029803D01*
X93176757Y-102842603D02*
X93176757Y-102416851D01*
X93176757Y-102416851D02*
X93138052Y-102339441D01*
X93138052Y-102339441D02*
X93060643Y-102300737D01*
X93060643Y-102300737D02*
X92944529Y-102300737D01*
X92944529Y-102300737D02*
X92867119Y-102339441D01*
X92867119Y-102339441D02*
X92828414Y-102378146D01*
X93912147Y-102300737D02*
X93912147Y-102842603D01*
X93563804Y-102300737D02*
X93563804Y-102726489D01*
X93563804Y-102726489D02*
X93602509Y-102803899D01*
X93602509Y-102803899D02*
X93679919Y-102842603D01*
X93679919Y-102842603D02*
X93796033Y-102842603D01*
X93796033Y-102842603D02*
X93873442Y-102803899D01*
X93873442Y-102803899D02*
X93912147Y-102765194D01*
X94299194Y-102842603D02*
X94299194Y-102029803D01*
X94299194Y-102339441D02*
X94376604Y-102300737D01*
X94376604Y-102300737D02*
X94531423Y-102300737D01*
X94531423Y-102300737D02*
X94608832Y-102339441D01*
X94608832Y-102339441D02*
X94647537Y-102378146D01*
X94647537Y-102378146D02*
X94686242Y-102455556D01*
X94686242Y-102455556D02*
X94686242Y-102687784D01*
X94686242Y-102687784D02*
X94647537Y-102765194D01*
X94647537Y-102765194D02*
X94608832Y-102803899D01*
X94608832Y-102803899D02*
X94531423Y-102842603D01*
X94531423Y-102842603D02*
X94376604Y-102842603D01*
X94376604Y-102842603D02*
X94299194Y-102803899D01*
X95034584Y-102765194D02*
X95073289Y-102803899D01*
X95073289Y-102803899D02*
X95034584Y-102842603D01*
X95034584Y-102842603D02*
X94995880Y-102803899D01*
X94995880Y-102803899D02*
X95034584Y-102765194D01*
X95034584Y-102765194D02*
X95034584Y-102842603D01*
X95769975Y-102803899D02*
X95692566Y-102842603D01*
X95692566Y-102842603D02*
X95537747Y-102842603D01*
X95537747Y-102842603D02*
X95460337Y-102803899D01*
X95460337Y-102803899D02*
X95421632Y-102765194D01*
X95421632Y-102765194D02*
X95382928Y-102687784D01*
X95382928Y-102687784D02*
X95382928Y-102455556D01*
X95382928Y-102455556D02*
X95421632Y-102378146D01*
X95421632Y-102378146D02*
X95460337Y-102339441D01*
X95460337Y-102339441D02*
X95537747Y-102300737D01*
X95537747Y-102300737D02*
X95692566Y-102300737D01*
X95692566Y-102300737D02*
X95769975Y-102339441D01*
X96234433Y-102842603D02*
X96157023Y-102803899D01*
X96157023Y-102803899D02*
X96118318Y-102765194D01*
X96118318Y-102765194D02*
X96079614Y-102687784D01*
X96079614Y-102687784D02*
X96079614Y-102455556D01*
X96079614Y-102455556D02*
X96118318Y-102378146D01*
X96118318Y-102378146D02*
X96157023Y-102339441D01*
X96157023Y-102339441D02*
X96234433Y-102300737D01*
X96234433Y-102300737D02*
X96350547Y-102300737D01*
X96350547Y-102300737D02*
X96427956Y-102339441D01*
X96427956Y-102339441D02*
X96466661Y-102378146D01*
X96466661Y-102378146D02*
X96505366Y-102455556D01*
X96505366Y-102455556D02*
X96505366Y-102687784D01*
X96505366Y-102687784D02*
X96466661Y-102765194D01*
X96466661Y-102765194D02*
X96427956Y-102803899D01*
X96427956Y-102803899D02*
X96350547Y-102842603D01*
X96350547Y-102842603D02*
X96234433Y-102842603D01*
X96853708Y-102842603D02*
X96853708Y-102300737D01*
X96853708Y-102378146D02*
X96892413Y-102339441D01*
X96892413Y-102339441D02*
X96969823Y-102300737D01*
X96969823Y-102300737D02*
X97085937Y-102300737D01*
X97085937Y-102300737D02*
X97163346Y-102339441D01*
X97163346Y-102339441D02*
X97202051Y-102416851D01*
X97202051Y-102416851D02*
X97202051Y-102842603D01*
X97202051Y-102416851D02*
X97240756Y-102339441D01*
X97240756Y-102339441D02*
X97318165Y-102300737D01*
X97318165Y-102300737D02*
X97434280Y-102300737D01*
X97434280Y-102300737D02*
X97511689Y-102339441D01*
X97511689Y-102339441D02*
X97550394Y-102416851D01*
X97550394Y-102416851D02*
X97550394Y-102842603D01*
X98518013Y-101991099D02*
X97821327Y-103036127D01*
X98788946Y-102842603D02*
X98788946Y-102029803D01*
X98788946Y-102029803D02*
X98982470Y-102029803D01*
X98982470Y-102029803D02*
X99098584Y-102068508D01*
X99098584Y-102068508D02*
X99175994Y-102145918D01*
X99175994Y-102145918D02*
X99214699Y-102223327D01*
X99214699Y-102223327D02*
X99253403Y-102378146D01*
X99253403Y-102378146D02*
X99253403Y-102494260D01*
X99253403Y-102494260D02*
X99214699Y-102649079D01*
X99214699Y-102649079D02*
X99175994Y-102726489D01*
X99175994Y-102726489D02*
X99098584Y-102803899D01*
X99098584Y-102803899D02*
X98982470Y-102842603D01*
X98982470Y-102842603D02*
X98788946Y-102842603D01*
X99717861Y-102842603D02*
X99640451Y-102803899D01*
X99640451Y-102803899D02*
X99601746Y-102765194D01*
X99601746Y-102765194D02*
X99563042Y-102687784D01*
X99563042Y-102687784D02*
X99563042Y-102455556D01*
X99563042Y-102455556D02*
X99601746Y-102378146D01*
X99601746Y-102378146D02*
X99640451Y-102339441D01*
X99640451Y-102339441D02*
X99717861Y-102300737D01*
X99717861Y-102300737D02*
X99833975Y-102300737D01*
X99833975Y-102300737D02*
X99911384Y-102339441D01*
X99911384Y-102339441D02*
X99950089Y-102378146D01*
X99950089Y-102378146D02*
X99988794Y-102455556D01*
X99988794Y-102455556D02*
X99988794Y-102687784D01*
X99988794Y-102687784D02*
X99950089Y-102765194D01*
X99950089Y-102765194D02*
X99911384Y-102803899D01*
X99911384Y-102803899D02*
X99833975Y-102842603D01*
X99833975Y-102842603D02*
X99717861Y-102842603D01*
X100337136Y-102842603D02*
X100337136Y-102300737D01*
X100337136Y-102378146D02*
X100375841Y-102339441D01*
X100375841Y-102339441D02*
X100453251Y-102300737D01*
X100453251Y-102300737D02*
X100569365Y-102300737D01*
X100569365Y-102300737D02*
X100646774Y-102339441D01*
X100646774Y-102339441D02*
X100685479Y-102416851D01*
X100685479Y-102416851D02*
X100685479Y-102842603D01*
X100685479Y-102416851D02*
X100724184Y-102339441D01*
X100724184Y-102339441D02*
X100801593Y-102300737D01*
X100801593Y-102300737D02*
X100917708Y-102300737D01*
X100917708Y-102300737D02*
X100995117Y-102339441D01*
X100995117Y-102339441D02*
X101033822Y-102416851D01*
X101033822Y-102416851D02*
X101033822Y-102842603D01*
X101420869Y-102842603D02*
X101420869Y-102029803D01*
X101420869Y-102029803D02*
X101691803Y-102610375D01*
X101691803Y-102610375D02*
X101962736Y-102029803D01*
X101962736Y-102029803D02*
X101962736Y-102842603D01*
X102698126Y-102300737D02*
X102698126Y-102842603D01*
X102349783Y-102300737D02*
X102349783Y-102726489D01*
X102349783Y-102726489D02*
X102388488Y-102803899D01*
X102388488Y-102803899D02*
X102465898Y-102842603D01*
X102465898Y-102842603D02*
X102582012Y-102842603D01*
X102582012Y-102842603D02*
X102659421Y-102803899D01*
X102659421Y-102803899D02*
X102698126Y-102765194D01*
X103085173Y-102842603D02*
X103085173Y-102300737D01*
X103085173Y-102455556D02*
X103123878Y-102378146D01*
X103123878Y-102378146D02*
X103162583Y-102339441D01*
X103162583Y-102339441D02*
X103239992Y-102300737D01*
X103239992Y-102300737D02*
X103317402Y-102300737D01*
X103588335Y-102300737D02*
X103588335Y-103113537D01*
X103588335Y-102339441D02*
X103665745Y-102300737D01*
X103665745Y-102300737D02*
X103820564Y-102300737D01*
X103820564Y-102300737D02*
X103897973Y-102339441D01*
X103897973Y-102339441D02*
X103936678Y-102378146D01*
X103936678Y-102378146D02*
X103975383Y-102455556D01*
X103975383Y-102455556D02*
X103975383Y-102687784D01*
X103975383Y-102687784D02*
X103936678Y-102765194D01*
X103936678Y-102765194D02*
X103897973Y-102803899D01*
X103897973Y-102803899D02*
X103820564Y-102842603D01*
X103820564Y-102842603D02*
X103665745Y-102842603D01*
X103665745Y-102842603D02*
X103588335Y-102803899D01*
X104323725Y-102842603D02*
X104323725Y-102029803D01*
X104672068Y-102842603D02*
X104672068Y-102416851D01*
X104672068Y-102416851D02*
X104633363Y-102339441D01*
X104633363Y-102339441D02*
X104555954Y-102300737D01*
X104555954Y-102300737D02*
X104439840Y-102300737D01*
X104439840Y-102300737D02*
X104362430Y-102339441D01*
X104362430Y-102339441D02*
X104323725Y-102378146D01*
X104981706Y-102300737D02*
X105175230Y-102842603D01*
X105368753Y-102300737D02*
X105175230Y-102842603D01*
X105175230Y-102842603D02*
X105097820Y-103036127D01*
X105097820Y-103036127D02*
X105059115Y-103074832D01*
X105059115Y-103074832D02*
X104981706Y-103113537D01*
X105678391Y-102532965D02*
X106297668Y-102532965D01*
X107033058Y-102300737D02*
X107033058Y-102958718D01*
X107033058Y-102958718D02*
X106994353Y-103036127D01*
X106994353Y-103036127D02*
X106955649Y-103074832D01*
X106955649Y-103074832D02*
X106878239Y-103113537D01*
X106878239Y-103113537D02*
X106762125Y-103113537D01*
X106762125Y-103113537D02*
X106684715Y-103074832D01*
X107033058Y-102803899D02*
X106955649Y-102842603D01*
X106955649Y-102842603D02*
X106800830Y-102842603D01*
X106800830Y-102842603D02*
X106723420Y-102803899D01*
X106723420Y-102803899D02*
X106684715Y-102765194D01*
X106684715Y-102765194D02*
X106646011Y-102687784D01*
X106646011Y-102687784D02*
X106646011Y-102455556D01*
X106646011Y-102455556D02*
X106684715Y-102378146D01*
X106684715Y-102378146D02*
X106723420Y-102339441D01*
X106723420Y-102339441D02*
X106800830Y-102300737D01*
X106800830Y-102300737D02*
X106955649Y-102300737D01*
X106955649Y-102300737D02*
X107033058Y-102339441D01*
X107420105Y-102842603D02*
X107420105Y-102300737D01*
X107420105Y-102029803D02*
X107381401Y-102068508D01*
X107381401Y-102068508D02*
X107420105Y-102107213D01*
X107420105Y-102107213D02*
X107458810Y-102068508D01*
X107458810Y-102068508D02*
X107420105Y-102029803D01*
X107420105Y-102029803D02*
X107420105Y-102107213D01*
X107691039Y-102300737D02*
X108000677Y-102300737D01*
X107807153Y-102029803D02*
X107807153Y-102726489D01*
X107807153Y-102726489D02*
X107845858Y-102803899D01*
X107845858Y-102803899D02*
X107923268Y-102842603D01*
X107923268Y-102842603D02*
X108000677Y-102842603D01*
D11*
X125660458Y-69830004D02*
X126118394Y-70287940D01*
X126118394Y-70287940D02*
X126199206Y-70314878D01*
X126199206Y-70314878D02*
X126253081Y-70314878D01*
X126253081Y-70314878D02*
X126333893Y-70287940D01*
X126333893Y-70287940D02*
X126441642Y-70180191D01*
X126441642Y-70180191D02*
X126468580Y-70099378D01*
X126468580Y-70099378D02*
X126468580Y-70045504D01*
X126468580Y-70045504D02*
X126441642Y-69964691D01*
X126441642Y-69964691D02*
X125983707Y-69506756D01*
X126764891Y-69803067D02*
X126872641Y-69749192D01*
X126872641Y-69749192D02*
X127007328Y-69614505D01*
X127007328Y-69614505D02*
X127034265Y-69533693D01*
X127034265Y-69533693D02*
X127034265Y-69479818D01*
X127034265Y-69479818D02*
X127007328Y-69399006D01*
X127007328Y-69399006D02*
X126953453Y-69345131D01*
X126953453Y-69345131D02*
X126872641Y-69318194D01*
X126872641Y-69318194D02*
X126818766Y-69318194D01*
X126818766Y-69318194D02*
X126737954Y-69345131D01*
X126737954Y-69345131D02*
X126603267Y-69425943D01*
X126603267Y-69425943D02*
X126522454Y-69452881D01*
X126522454Y-69452881D02*
X126468580Y-69452881D01*
X126468580Y-69452881D02*
X126387767Y-69425943D01*
X126387767Y-69425943D02*
X126333893Y-69372069D01*
X126333893Y-69372069D02*
X126306955Y-69291256D01*
X126306955Y-69291256D02*
X126306955Y-69237382D01*
X126306955Y-69237382D02*
X126333893Y-69156569D01*
X126333893Y-69156569D02*
X126468580Y-69021882D01*
X126468580Y-69021882D02*
X126576329Y-68968008D01*
X127061203Y-68968008D02*
X127249764Y-68779446D01*
X127626888Y-68994945D02*
X127357514Y-69264319D01*
X127357514Y-69264319D02*
X126791829Y-68698633D01*
X126791829Y-68698633D02*
X127061203Y-68429259D01*
X128192574Y-68429259D02*
X127734638Y-68348447D01*
X127869325Y-68752508D02*
X127303640Y-68186823D01*
X127303640Y-68186823D02*
X127519139Y-67971323D01*
X127519139Y-67971323D02*
X127599951Y-67944386D01*
X127599951Y-67944386D02*
X127653826Y-67944386D01*
X127653826Y-67944386D02*
X127734638Y-67971323D01*
X127734638Y-67971323D02*
X127815450Y-68052136D01*
X127815450Y-68052136D02*
X127842388Y-68132948D01*
X127842388Y-68132948D02*
X127842388Y-68186823D01*
X127842388Y-68186823D02*
X127815450Y-68267635D01*
X127815450Y-68267635D02*
X127599951Y-68483134D01*
X129135383Y-67486450D02*
X128866009Y-67755824D01*
X128866009Y-67755824D02*
X128300324Y-67190139D01*
X129027633Y-67001577D02*
X129216195Y-66813015D01*
X129593319Y-67028514D02*
X129323945Y-67297888D01*
X129323945Y-67297888D02*
X128758259Y-66732203D01*
X128758259Y-66732203D02*
X129027633Y-66462829D01*
X129835756Y-66786077D02*
X129270070Y-66220392D01*
X129270070Y-66220392D02*
X129404757Y-66085705D01*
X129404757Y-66085705D02*
X129512507Y-66031830D01*
X129512507Y-66031830D02*
X129620256Y-66031830D01*
X129620256Y-66031830D02*
X129701069Y-66058767D01*
X129701069Y-66058767D02*
X129835756Y-66139580D01*
X129835756Y-66139580D02*
X129916568Y-66220392D01*
X129916568Y-66220392D02*
X129997380Y-66355079D01*
X129997380Y-66355079D02*
X130024318Y-66435891D01*
X130024318Y-66435891D02*
X130024318Y-66543641D01*
X130024318Y-66543641D02*
X129970443Y-66651390D01*
X129970443Y-66651390D02*
X129835756Y-66786077D01*
X130347566Y-66220392D02*
X130455316Y-66166517D01*
X130455316Y-66166517D02*
X130590003Y-66031830D01*
X130590003Y-66031830D02*
X130616940Y-65951018D01*
X130616940Y-65951018D02*
X130616940Y-65897143D01*
X130616940Y-65897143D02*
X130590003Y-65816331D01*
X130590003Y-65816331D02*
X130536128Y-65762456D01*
X130536128Y-65762456D02*
X130455316Y-65735519D01*
X130455316Y-65735519D02*
X130401441Y-65735519D01*
X130401441Y-65735519D02*
X130320629Y-65762456D01*
X130320629Y-65762456D02*
X130185942Y-65843268D01*
X130185942Y-65843268D02*
X130105130Y-65870206D01*
X130105130Y-65870206D02*
X130051255Y-65870206D01*
X130051255Y-65870206D02*
X129970443Y-65843268D01*
X129970443Y-65843268D02*
X129916568Y-65789393D01*
X129916568Y-65789393D02*
X129889631Y-65708581D01*
X129889631Y-65708581D02*
X129889631Y-65654706D01*
X129889631Y-65654706D02*
X129916568Y-65573894D01*
X129916568Y-65573894D02*
X130051255Y-65439207D01*
X130051255Y-65439207D02*
X130159005Y-65385332D01*
D12*
X172660952Y-86729820D02*
X172660952Y-85729820D01*
X172660952Y-86206010D02*
X173232380Y-86206010D01*
X173232380Y-86729820D02*
X173232380Y-85729820D01*
X173613333Y-85729820D02*
X174279999Y-85729820D01*
X174279999Y-85729820D02*
X173851428Y-86729820D01*
X175232380Y-86729820D02*
X174899047Y-86253629D01*
X174660952Y-86729820D02*
X174660952Y-85729820D01*
X174660952Y-85729820D02*
X175041904Y-85729820D01*
X175041904Y-85729820D02*
X175137142Y-85777439D01*
X175137142Y-85777439D02*
X175184761Y-85825058D01*
X175184761Y-85825058D02*
X175232380Y-85920296D01*
X175232380Y-85920296D02*
X175232380Y-86063153D01*
X175232380Y-86063153D02*
X175184761Y-86158391D01*
X175184761Y-86158391D02*
X175137142Y-86206010D01*
X175137142Y-86206010D02*
X175041904Y-86253629D01*
X175041904Y-86253629D02*
X174660952Y-86253629D01*
X175613333Y-86682201D02*
X175756190Y-86729820D01*
X175756190Y-86729820D02*
X175994285Y-86729820D01*
X175994285Y-86729820D02*
X176089523Y-86682201D01*
X176089523Y-86682201D02*
X176137142Y-86634581D01*
X176137142Y-86634581D02*
X176184761Y-86539343D01*
X176184761Y-86539343D02*
X176184761Y-86444105D01*
X176184761Y-86444105D02*
X176137142Y-86348867D01*
X176137142Y-86348867D02*
X176089523Y-86301248D01*
X176089523Y-86301248D02*
X175994285Y-86253629D01*
X175994285Y-86253629D02*
X175803809Y-86206010D01*
X175803809Y-86206010D02*
X175708571Y-86158391D01*
X175708571Y-86158391D02*
X175660952Y-86110772D01*
X175660952Y-86110772D02*
X175613333Y-86015534D01*
X175613333Y-86015534D02*
X175613333Y-85920296D01*
X175613333Y-85920296D02*
X175660952Y-85825058D01*
X175660952Y-85825058D02*
X175708571Y-85777439D01*
X175708571Y-85777439D02*
X175803809Y-85729820D01*
X175803809Y-85729820D02*
X176041904Y-85729820D01*
X176041904Y-85729820D02*
X176184761Y-85777439D01*
X176470476Y-85729820D02*
X177041904Y-85729820D01*
X176756190Y-86729820D02*
X176756190Y-85729820D01*
X170683333Y-108229819D02*
X171302380Y-108229819D01*
X171302380Y-108229819D02*
X170969047Y-108610771D01*
X170969047Y-108610771D02*
X171111904Y-108610771D01*
X171111904Y-108610771D02*
X171207142Y-108658390D01*
X171207142Y-108658390D02*
X171254761Y-108706009D01*
X171254761Y-108706009D02*
X171302380Y-108801247D01*
X171302380Y-108801247D02*
X171302380Y-109039342D01*
X171302380Y-109039342D02*
X171254761Y-109134580D01*
X171254761Y-109134580D02*
X171207142Y-109182200D01*
X171207142Y-109182200D02*
X171111904Y-109229819D01*
X171111904Y-109229819D02*
X170826190Y-109229819D01*
X170826190Y-109229819D02*
X170730952Y-109182200D01*
X170730952Y-109182200D02*
X170683333Y-109134580D01*
X171588095Y-108229819D02*
X171921428Y-109229819D01*
X171921428Y-109229819D02*
X172254761Y-108229819D01*
X172492857Y-108229819D02*
X173111904Y-108229819D01*
X173111904Y-108229819D02*
X172778571Y-108610771D01*
X172778571Y-108610771D02*
X172921428Y-108610771D01*
X172921428Y-108610771D02*
X173016666Y-108658390D01*
X173016666Y-108658390D02*
X173064285Y-108706009D01*
X173064285Y-108706009D02*
X173111904Y-108801247D01*
X173111904Y-108801247D02*
X173111904Y-109039342D01*
X173111904Y-109039342D02*
X173064285Y-109134580D01*
X173064285Y-109134580D02*
X173016666Y-109182200D01*
X173016666Y-109182200D02*
X172921428Y-109229819D01*
X172921428Y-109229819D02*
X172635714Y-109229819D01*
X172635714Y-109229819D02*
X172540476Y-109182200D01*
X172540476Y-109182200D02*
X172492857Y-109134580D01*
X173492857Y-109182200D02*
X173635714Y-109229819D01*
X173635714Y-109229819D02*
X173873809Y-109229819D01*
X173873809Y-109229819D02*
X173969047Y-109182200D01*
X173969047Y-109182200D02*
X174016666Y-109134580D01*
X174016666Y-109134580D02*
X174064285Y-109039342D01*
X174064285Y-109039342D02*
X174064285Y-108944104D01*
X174064285Y-108944104D02*
X174016666Y-108848866D01*
X174016666Y-108848866D02*
X173969047Y-108801247D01*
X173969047Y-108801247D02*
X173873809Y-108753628D01*
X173873809Y-108753628D02*
X173683333Y-108706009D01*
X173683333Y-108706009D02*
X173588095Y-108658390D01*
X173588095Y-108658390D02*
X173540476Y-108610771D01*
X173540476Y-108610771D02*
X173492857Y-108515533D01*
X173492857Y-108515533D02*
X173492857Y-108420295D01*
X173492857Y-108420295D02*
X173540476Y-108325057D01*
X173540476Y-108325057D02*
X173588095Y-108277438D01*
X173588095Y-108277438D02*
X173683333Y-108229819D01*
X173683333Y-108229819D02*
X173921428Y-108229819D01*
X173921428Y-108229819D02*
X174064285Y-108277438D01*
X174635714Y-109229819D02*
X174540476Y-109182200D01*
X174540476Y-109182200D02*
X174492857Y-109134580D01*
X174492857Y-109134580D02*
X174445238Y-109039342D01*
X174445238Y-109039342D02*
X174445238Y-108753628D01*
X174445238Y-108753628D02*
X174492857Y-108658390D01*
X174492857Y-108658390D02*
X174540476Y-108610771D01*
X174540476Y-108610771D02*
X174635714Y-108563152D01*
X174635714Y-108563152D02*
X174778571Y-108563152D01*
X174778571Y-108563152D02*
X174873809Y-108610771D01*
X174873809Y-108610771D02*
X174921428Y-108658390D01*
X174921428Y-108658390D02*
X174969047Y-108753628D01*
X174969047Y-108753628D02*
X174969047Y-109039342D01*
X174969047Y-109039342D02*
X174921428Y-109134580D01*
X174921428Y-109134580D02*
X174873809Y-109182200D01*
X174873809Y-109182200D02*
X174778571Y-109229819D01*
X174778571Y-109229819D02*
X174635714Y-109229819D01*
X175969047Y-109134580D02*
X175921428Y-109182200D01*
X175921428Y-109182200D02*
X175778571Y-109229819D01*
X175778571Y-109229819D02*
X175683333Y-109229819D01*
X175683333Y-109229819D02*
X175540476Y-109182200D01*
X175540476Y-109182200D02*
X175445238Y-109086961D01*
X175445238Y-109086961D02*
X175397619Y-108991723D01*
X175397619Y-108991723D02*
X175350000Y-108801247D01*
X175350000Y-108801247D02*
X175350000Y-108658390D01*
X175350000Y-108658390D02*
X175397619Y-108467914D01*
X175397619Y-108467914D02*
X175445238Y-108372676D01*
X175445238Y-108372676D02*
X175540476Y-108277438D01*
X175540476Y-108277438D02*
X175683333Y-108229819D01*
X175683333Y-108229819D02*
X175778571Y-108229819D01*
X175778571Y-108229819D02*
X175921428Y-108277438D01*
X175921428Y-108277438D02*
X175969047Y-108325057D01*
X80554761Y-67104819D02*
X80221428Y-66628628D01*
X79983333Y-67104819D02*
X79983333Y-66104819D01*
X79983333Y-66104819D02*
X80364285Y-66104819D01*
X80364285Y-66104819D02*
X80459523Y-66152438D01*
X80459523Y-66152438D02*
X80507142Y-66200057D01*
X80507142Y-66200057D02*
X80554761Y-66295295D01*
X80554761Y-66295295D02*
X80554761Y-66438152D01*
X80554761Y-66438152D02*
X80507142Y-66533390D01*
X80507142Y-66533390D02*
X80459523Y-66581009D01*
X80459523Y-66581009D02*
X80364285Y-66628628D01*
X80364285Y-66628628D02*
X79983333Y-66628628D01*
X80935714Y-67057200D02*
X81078571Y-67104819D01*
X81078571Y-67104819D02*
X81316666Y-67104819D01*
X81316666Y-67104819D02*
X81411904Y-67057200D01*
X81411904Y-67057200D02*
X81459523Y-67009580D01*
X81459523Y-67009580D02*
X81507142Y-66914342D01*
X81507142Y-66914342D02*
X81507142Y-66819104D01*
X81507142Y-66819104D02*
X81459523Y-66723866D01*
X81459523Y-66723866D02*
X81411904Y-66676247D01*
X81411904Y-66676247D02*
X81316666Y-66628628D01*
X81316666Y-66628628D02*
X81126190Y-66581009D01*
X81126190Y-66581009D02*
X81030952Y-66533390D01*
X81030952Y-66533390D02*
X80983333Y-66485771D01*
X80983333Y-66485771D02*
X80935714Y-66390533D01*
X80935714Y-66390533D02*
X80935714Y-66295295D01*
X80935714Y-66295295D02*
X80983333Y-66200057D01*
X80983333Y-66200057D02*
X81030952Y-66152438D01*
X81030952Y-66152438D02*
X81126190Y-66104819D01*
X81126190Y-66104819D02*
X81364285Y-66104819D01*
X81364285Y-66104819D02*
X81507142Y-66152438D01*
X82364285Y-66438152D02*
X82364285Y-67104819D01*
X82126190Y-66057200D02*
X81888095Y-66771485D01*
X81888095Y-66771485D02*
X82507142Y-66771485D01*
X83030952Y-66533390D02*
X82935714Y-66485771D01*
X82935714Y-66485771D02*
X82888095Y-66438152D01*
X82888095Y-66438152D02*
X82840476Y-66342914D01*
X82840476Y-66342914D02*
X82840476Y-66295295D01*
X82840476Y-66295295D02*
X82888095Y-66200057D01*
X82888095Y-66200057D02*
X82935714Y-66152438D01*
X82935714Y-66152438D02*
X83030952Y-66104819D01*
X83030952Y-66104819D02*
X83221428Y-66104819D01*
X83221428Y-66104819D02*
X83316666Y-66152438D01*
X83316666Y-66152438D02*
X83364285Y-66200057D01*
X83364285Y-66200057D02*
X83411904Y-66295295D01*
X83411904Y-66295295D02*
X83411904Y-66342914D01*
X83411904Y-66342914D02*
X83364285Y-66438152D01*
X83364285Y-66438152D02*
X83316666Y-66485771D01*
X83316666Y-66485771D02*
X83221428Y-66533390D01*
X83221428Y-66533390D02*
X83030952Y-66533390D01*
X83030952Y-66533390D02*
X82935714Y-66581009D01*
X82935714Y-66581009D02*
X82888095Y-66628628D01*
X82888095Y-66628628D02*
X82840476Y-66723866D01*
X82840476Y-66723866D02*
X82840476Y-66914342D01*
X82840476Y-66914342D02*
X82888095Y-67009580D01*
X82888095Y-67009580D02*
X82935714Y-67057200D01*
X82935714Y-67057200D02*
X83030952Y-67104819D01*
X83030952Y-67104819D02*
X83221428Y-67104819D01*
X83221428Y-67104819D02*
X83316666Y-67057200D01*
X83316666Y-67057200D02*
X83364285Y-67009580D01*
X83364285Y-67009580D02*
X83411904Y-66914342D01*
X83411904Y-66914342D02*
X83411904Y-66723866D01*
X83411904Y-66723866D02*
X83364285Y-66628628D01*
X83364285Y-66628628D02*
X83316666Y-66581009D01*
X83316666Y-66581009D02*
X83221428Y-66533390D01*
X84316666Y-66104819D02*
X83840476Y-66104819D01*
X83840476Y-66104819D02*
X83792857Y-66581009D01*
X83792857Y-66581009D02*
X83840476Y-66533390D01*
X83840476Y-66533390D02*
X83935714Y-66485771D01*
X83935714Y-66485771D02*
X84173809Y-66485771D01*
X84173809Y-66485771D02*
X84269047Y-66533390D01*
X84269047Y-66533390D02*
X84316666Y-66581009D01*
X84316666Y-66581009D02*
X84364285Y-66676247D01*
X84364285Y-66676247D02*
X84364285Y-66914342D01*
X84364285Y-66914342D02*
X84316666Y-67009580D01*
X84316666Y-67009580D02*
X84269047Y-67057200D01*
X84269047Y-67057200D02*
X84173809Y-67104819D01*
X84173809Y-67104819D02*
X83935714Y-67104819D01*
X83935714Y-67104819D02*
X83840476Y-67057200D01*
X83840476Y-67057200D02*
X83792857Y-67009580D01*
X173662830Y-54158143D02*
X173157754Y-54663219D01*
X173157754Y-54663219D02*
X173023067Y-54730563D01*
X173023067Y-54730563D02*
X172888380Y-54730563D01*
X172888380Y-54730563D02*
X172753693Y-54663219D01*
X172753693Y-54663219D02*
X172686349Y-54595876D01*
X174336265Y-54831578D02*
X173999548Y-54494861D01*
X173999548Y-54494861D02*
X173629159Y-54797906D01*
X173629159Y-54797906D02*
X173696502Y-54797906D01*
X173696502Y-54797906D02*
X173797517Y-54831578D01*
X173797517Y-54831578D02*
X173965876Y-54999937D01*
X173965876Y-54999937D02*
X173999548Y-55100952D01*
X173999548Y-55100952D02*
X173999548Y-55168296D01*
X173999548Y-55168296D02*
X173965876Y-55269311D01*
X173965876Y-55269311D02*
X173797517Y-55437670D01*
X173797517Y-55437670D02*
X173696502Y-55471341D01*
X173696502Y-55471341D02*
X173629159Y-55471341D01*
X173629159Y-55471341D02*
X173528143Y-55437670D01*
X173528143Y-55437670D02*
X173359785Y-55269311D01*
X173359785Y-55269311D02*
X173326113Y-55168296D01*
X173326113Y-55168296D02*
X173326113Y-55100952D01*
X79936905Y-62454819D02*
X79936905Y-63264342D01*
X79936905Y-63264342D02*
X79984524Y-63359580D01*
X79984524Y-63359580D02*
X80032143Y-63407200D01*
X80032143Y-63407200D02*
X80127381Y-63454819D01*
X80127381Y-63454819D02*
X80317857Y-63454819D01*
X80317857Y-63454819D02*
X80413095Y-63407200D01*
X80413095Y-63407200D02*
X80460714Y-63359580D01*
X80460714Y-63359580D02*
X80508333Y-63264342D01*
X80508333Y-63264342D02*
X80508333Y-62454819D01*
X80984524Y-63454819D02*
X80984524Y-62454819D01*
X80984524Y-62931009D02*
X81555952Y-62931009D01*
X81555952Y-63454819D02*
X81555952Y-62454819D01*
X81794048Y-63550057D02*
X82555952Y-63550057D01*
X82984524Y-62454819D02*
X83175000Y-62454819D01*
X83175000Y-62454819D02*
X83270238Y-62502438D01*
X83270238Y-62502438D02*
X83365476Y-62597676D01*
X83365476Y-62597676D02*
X83413095Y-62788152D01*
X83413095Y-62788152D02*
X83413095Y-63121485D01*
X83413095Y-63121485D02*
X83365476Y-63311961D01*
X83365476Y-63311961D02*
X83270238Y-63407200D01*
X83270238Y-63407200D02*
X83175000Y-63454819D01*
X83175000Y-63454819D02*
X82984524Y-63454819D01*
X82984524Y-63454819D02*
X82889286Y-63407200D01*
X82889286Y-63407200D02*
X82794048Y-63311961D01*
X82794048Y-63311961D02*
X82746429Y-63121485D01*
X82746429Y-63121485D02*
X82746429Y-62788152D01*
X82746429Y-62788152D02*
X82794048Y-62597676D01*
X82794048Y-62597676D02*
X82889286Y-62502438D01*
X82889286Y-62502438D02*
X82984524Y-62454819D01*
X83841667Y-63454819D02*
X83841667Y-62454819D01*
X83841667Y-62931009D02*
X84413095Y-62931009D01*
X84413095Y-63454819D02*
X84413095Y-62454819D01*
X163884524Y-94554819D02*
X164503571Y-94554819D01*
X164503571Y-94554819D02*
X164170238Y-94935771D01*
X164170238Y-94935771D02*
X164313095Y-94935771D01*
X164313095Y-94935771D02*
X164408333Y-94983390D01*
X164408333Y-94983390D02*
X164455952Y-95031009D01*
X164455952Y-95031009D02*
X164503571Y-95126247D01*
X164503571Y-95126247D02*
X164503571Y-95364342D01*
X164503571Y-95364342D02*
X164455952Y-95459580D01*
X164455952Y-95459580D02*
X164408333Y-95507200D01*
X164408333Y-95507200D02*
X164313095Y-95554819D01*
X164313095Y-95554819D02*
X164027381Y-95554819D01*
X164027381Y-95554819D02*
X163932143Y-95507200D01*
X163932143Y-95507200D02*
X163884524Y-95459580D01*
X164789286Y-94554819D02*
X165122619Y-95554819D01*
X165122619Y-95554819D02*
X165455952Y-94554819D01*
X165694048Y-94554819D02*
X166313095Y-94554819D01*
X166313095Y-94554819D02*
X165979762Y-94935771D01*
X165979762Y-94935771D02*
X166122619Y-94935771D01*
X166122619Y-94935771D02*
X166217857Y-94983390D01*
X166217857Y-94983390D02*
X166265476Y-95031009D01*
X166265476Y-95031009D02*
X166313095Y-95126247D01*
X166313095Y-95126247D02*
X166313095Y-95364342D01*
X166313095Y-95364342D02*
X166265476Y-95459580D01*
X166265476Y-95459580D02*
X166217857Y-95507200D01*
X166217857Y-95507200D02*
X166122619Y-95554819D01*
X166122619Y-95554819D02*
X165836905Y-95554819D01*
X165836905Y-95554819D02*
X165741667Y-95507200D01*
X165741667Y-95507200D02*
X165694048Y-95459580D01*
X166741667Y-95554819D02*
X166741667Y-94554819D01*
X166741667Y-95031009D02*
X167313095Y-95031009D01*
X167313095Y-95554819D02*
X167313095Y-94554819D01*
X167789286Y-95554819D02*
X167789286Y-94554819D01*
X167789286Y-94554819D02*
X168170238Y-94554819D01*
X168170238Y-94554819D02*
X168265476Y-94602438D01*
X168265476Y-94602438D02*
X168313095Y-94650057D01*
X168313095Y-94650057D02*
X168360714Y-94745295D01*
X168360714Y-94745295D02*
X168360714Y-94888152D01*
X168360714Y-94888152D02*
X168313095Y-94983390D01*
X168313095Y-94983390D02*
X168265476Y-95031009D01*
X168265476Y-95031009D02*
X168170238Y-95078628D01*
X168170238Y-95078628D02*
X167789286Y-95078628D01*
X168741667Y-95507200D02*
X168884524Y-95554819D01*
X168884524Y-95554819D02*
X169122619Y-95554819D01*
X169122619Y-95554819D02*
X169217857Y-95507200D01*
X169217857Y-95507200D02*
X169265476Y-95459580D01*
X169265476Y-95459580D02*
X169313095Y-95364342D01*
X169313095Y-95364342D02*
X169313095Y-95269104D01*
X169313095Y-95269104D02*
X169265476Y-95173866D01*
X169265476Y-95173866D02*
X169217857Y-95126247D01*
X169217857Y-95126247D02*
X169122619Y-95078628D01*
X169122619Y-95078628D02*
X168932143Y-95031009D01*
X168932143Y-95031009D02*
X168836905Y-94983390D01*
X168836905Y-94983390D02*
X168789286Y-94935771D01*
X168789286Y-94935771D02*
X168741667Y-94840533D01*
X168741667Y-94840533D02*
X168741667Y-94745295D01*
X168741667Y-94745295D02*
X168789286Y-94650057D01*
X168789286Y-94650057D02*
X168836905Y-94602438D01*
X168836905Y-94602438D02*
X168932143Y-94554819D01*
X168932143Y-94554819D02*
X169170238Y-94554819D01*
X169170238Y-94554819D02*
X169313095Y-94602438D01*
X169884524Y-95554819D02*
X169789286Y-95507200D01*
X169789286Y-95507200D02*
X169741667Y-95459580D01*
X169741667Y-95459580D02*
X169694048Y-95364342D01*
X169694048Y-95364342D02*
X169694048Y-95078628D01*
X169694048Y-95078628D02*
X169741667Y-94983390D01*
X169741667Y-94983390D02*
X169789286Y-94935771D01*
X169789286Y-94935771D02*
X169884524Y-94888152D01*
X169884524Y-94888152D02*
X170027381Y-94888152D01*
X170027381Y-94888152D02*
X170122619Y-94935771D01*
X170122619Y-94935771D02*
X170170238Y-94983390D01*
X170170238Y-94983390D02*
X170217857Y-95078628D01*
X170217857Y-95078628D02*
X170217857Y-95364342D01*
X170217857Y-95364342D02*
X170170238Y-95459580D01*
X170170238Y-95459580D02*
X170122619Y-95507200D01*
X170122619Y-95507200D02*
X170027381Y-95554819D01*
X170027381Y-95554819D02*
X169884524Y-95554819D01*
X171217857Y-95459580D02*
X171170238Y-95507200D01*
X171170238Y-95507200D02*
X171027381Y-95554819D01*
X171027381Y-95554819D02*
X170932143Y-95554819D01*
X170932143Y-95554819D02*
X170789286Y-95507200D01*
X170789286Y-95507200D02*
X170694048Y-95411961D01*
X170694048Y-95411961D02*
X170646429Y-95316723D01*
X170646429Y-95316723D02*
X170598810Y-95126247D01*
X170598810Y-95126247D02*
X170598810Y-94983390D01*
X170598810Y-94983390D02*
X170646429Y-94792914D01*
X170646429Y-94792914D02*
X170694048Y-94697676D01*
X170694048Y-94697676D02*
X170789286Y-94602438D01*
X170789286Y-94602438D02*
X170932143Y-94554819D01*
X170932143Y-94554819D02*
X171027381Y-94554819D01*
X171027381Y-94554819D02*
X171170238Y-94602438D01*
X171170238Y-94602438D02*
X171217857Y-94650057D01*
X150885714Y-113379819D02*
X150885714Y-114189342D01*
X150885714Y-114189342D02*
X150933333Y-114284580D01*
X150933333Y-114284580D02*
X150980952Y-114332200D01*
X150980952Y-114332200D02*
X151076190Y-114379819D01*
X151076190Y-114379819D02*
X151266666Y-114379819D01*
X151266666Y-114379819D02*
X151361904Y-114332200D01*
X151361904Y-114332200D02*
X151409523Y-114284580D01*
X151409523Y-114284580D02*
X151457142Y-114189342D01*
X151457142Y-114189342D02*
X151457142Y-113379819D01*
X151885714Y-114332200D02*
X152028571Y-114379819D01*
X152028571Y-114379819D02*
X152266666Y-114379819D01*
X152266666Y-114379819D02*
X152361904Y-114332200D01*
X152361904Y-114332200D02*
X152409523Y-114284580D01*
X152409523Y-114284580D02*
X152457142Y-114189342D01*
X152457142Y-114189342D02*
X152457142Y-114094104D01*
X152457142Y-114094104D02*
X152409523Y-113998866D01*
X152409523Y-113998866D02*
X152361904Y-113951247D01*
X152361904Y-113951247D02*
X152266666Y-113903628D01*
X152266666Y-113903628D02*
X152076190Y-113856009D01*
X152076190Y-113856009D02*
X151980952Y-113808390D01*
X151980952Y-113808390D02*
X151933333Y-113760771D01*
X151933333Y-113760771D02*
X151885714Y-113665533D01*
X151885714Y-113665533D02*
X151885714Y-113570295D01*
X151885714Y-113570295D02*
X151933333Y-113475057D01*
X151933333Y-113475057D02*
X151980952Y-113427438D01*
X151980952Y-113427438D02*
X152076190Y-113379819D01*
X152076190Y-113379819D02*
X152314285Y-113379819D01*
X152314285Y-113379819D02*
X152457142Y-113427438D01*
X152885714Y-113856009D02*
X153219047Y-113856009D01*
X153361904Y-114379819D02*
X152885714Y-114379819D01*
X152885714Y-114379819D02*
X152885714Y-113379819D01*
X152885714Y-113379819D02*
X153361904Y-113379819D01*
X154361904Y-114379819D02*
X154028571Y-113903628D01*
X153790476Y-114379819D02*
X153790476Y-113379819D01*
X153790476Y-113379819D02*
X154171428Y-113379819D01*
X154171428Y-113379819D02*
X154266666Y-113427438D01*
X154266666Y-113427438D02*
X154314285Y-113475057D01*
X154314285Y-113475057D02*
X154361904Y-113570295D01*
X154361904Y-113570295D02*
X154361904Y-113713152D01*
X154361904Y-113713152D02*
X154314285Y-113808390D01*
X154314285Y-113808390D02*
X154266666Y-113856009D01*
X154266666Y-113856009D02*
X154171428Y-113903628D01*
X154171428Y-113903628D02*
X153790476Y-113903628D01*
X157611905Y-99431819D02*
X158230952Y-99431819D01*
X158230952Y-99431819D02*
X157897619Y-99812771D01*
X157897619Y-99812771D02*
X158040476Y-99812771D01*
X158040476Y-99812771D02*
X158135714Y-99860390D01*
X158135714Y-99860390D02*
X158183333Y-99908009D01*
X158183333Y-99908009D02*
X158230952Y-100003247D01*
X158230952Y-100003247D02*
X158230952Y-100241342D01*
X158230952Y-100241342D02*
X158183333Y-100336580D01*
X158183333Y-100336580D02*
X158135714Y-100384200D01*
X158135714Y-100384200D02*
X158040476Y-100431819D01*
X158040476Y-100431819D02*
X157754762Y-100431819D01*
X157754762Y-100431819D02*
X157659524Y-100384200D01*
X157659524Y-100384200D02*
X157611905Y-100336580D01*
X158516667Y-99431819D02*
X158850000Y-100431819D01*
X158850000Y-100431819D02*
X159183333Y-99431819D01*
X159421429Y-99431819D02*
X160040476Y-99431819D01*
X160040476Y-99431819D02*
X159707143Y-99812771D01*
X159707143Y-99812771D02*
X159850000Y-99812771D01*
X159850000Y-99812771D02*
X159945238Y-99860390D01*
X159945238Y-99860390D02*
X159992857Y-99908009D01*
X159992857Y-99908009D02*
X160040476Y-100003247D01*
X160040476Y-100003247D02*
X160040476Y-100241342D01*
X160040476Y-100241342D02*
X159992857Y-100336580D01*
X159992857Y-100336580D02*
X159945238Y-100384200D01*
X159945238Y-100384200D02*
X159850000Y-100431819D01*
X159850000Y-100431819D02*
X159564286Y-100431819D01*
X159564286Y-100431819D02*
X159469048Y-100384200D01*
X159469048Y-100384200D02*
X159421429Y-100336580D01*
X116635501Y-71214500D02*
X116467142Y-71382858D01*
X116366127Y-71147156D02*
X116467142Y-71382858D01*
X116467142Y-71382858D02*
X116702844Y-71483874D01*
X116231440Y-71416530D02*
X116467142Y-71382858D01*
X116467142Y-71382858D02*
X116433470Y-71618561D01*
X175683333Y-113504819D02*
X176302380Y-113504819D01*
X176302380Y-113504819D02*
X175969047Y-113885771D01*
X175969047Y-113885771D02*
X176111904Y-113885771D01*
X176111904Y-113885771D02*
X176207142Y-113933390D01*
X176207142Y-113933390D02*
X176254761Y-113981009D01*
X176254761Y-113981009D02*
X176302380Y-114076247D01*
X176302380Y-114076247D02*
X176302380Y-114314342D01*
X176302380Y-114314342D02*
X176254761Y-114409580D01*
X176254761Y-114409580D02*
X176207142Y-114457200D01*
X176207142Y-114457200D02*
X176111904Y-114504819D01*
X176111904Y-114504819D02*
X175826190Y-114504819D01*
X175826190Y-114504819D02*
X175730952Y-114457200D01*
X175730952Y-114457200D02*
X175683333Y-114409580D01*
X176588095Y-113504819D02*
X176921428Y-114504819D01*
X176921428Y-114504819D02*
X177254761Y-113504819D01*
X177492857Y-113504819D02*
X178111904Y-113504819D01*
X178111904Y-113504819D02*
X177778571Y-113885771D01*
X177778571Y-113885771D02*
X177921428Y-113885771D01*
X177921428Y-113885771D02*
X178016666Y-113933390D01*
X178016666Y-113933390D02*
X178064285Y-113981009D01*
X178064285Y-113981009D02*
X178111904Y-114076247D01*
X178111904Y-114076247D02*
X178111904Y-114314342D01*
X178111904Y-114314342D02*
X178064285Y-114409580D01*
X178064285Y-114409580D02*
X178016666Y-114457200D01*
X178016666Y-114457200D02*
X177921428Y-114504819D01*
X177921428Y-114504819D02*
X177635714Y-114504819D01*
X177635714Y-114504819D02*
X177540476Y-114457200D01*
X177540476Y-114457200D02*
X177492857Y-114409580D01*
X178540476Y-114504819D02*
X178540476Y-113504819D01*
X178540476Y-113981009D02*
X179111904Y-113981009D01*
X179111904Y-114504819D02*
X179111904Y-113504819D01*
X179540476Y-114457200D02*
X179683333Y-114504819D01*
X179683333Y-114504819D02*
X179921428Y-114504819D01*
X179921428Y-114504819D02*
X180016666Y-114457200D01*
X180016666Y-114457200D02*
X180064285Y-114409580D01*
X180064285Y-114409580D02*
X180111904Y-114314342D01*
X180111904Y-114314342D02*
X180111904Y-114219104D01*
X180111904Y-114219104D02*
X180064285Y-114123866D01*
X180064285Y-114123866D02*
X180016666Y-114076247D01*
X180016666Y-114076247D02*
X179921428Y-114028628D01*
X179921428Y-114028628D02*
X179730952Y-113981009D01*
X179730952Y-113981009D02*
X179635714Y-113933390D01*
X179635714Y-113933390D02*
X179588095Y-113885771D01*
X179588095Y-113885771D02*
X179540476Y-113790533D01*
X179540476Y-113790533D02*
X179540476Y-113695295D01*
X179540476Y-113695295D02*
X179588095Y-113600057D01*
X179588095Y-113600057D02*
X179635714Y-113552438D01*
X179635714Y-113552438D02*
X179730952Y-113504819D01*
X179730952Y-113504819D02*
X179969047Y-113504819D01*
X179969047Y-113504819D02*
X180111904Y-113552438D01*
X180492857Y-114457200D02*
X180635714Y-114504819D01*
X180635714Y-114504819D02*
X180873809Y-114504819D01*
X180873809Y-114504819D02*
X180969047Y-114457200D01*
X180969047Y-114457200D02*
X181016666Y-114409580D01*
X181016666Y-114409580D02*
X181064285Y-114314342D01*
X181064285Y-114314342D02*
X181064285Y-114219104D01*
X181064285Y-114219104D02*
X181016666Y-114123866D01*
X181016666Y-114123866D02*
X180969047Y-114076247D01*
X180969047Y-114076247D02*
X180873809Y-114028628D01*
X180873809Y-114028628D02*
X180683333Y-113981009D01*
X180683333Y-113981009D02*
X180588095Y-113933390D01*
X180588095Y-113933390D02*
X180540476Y-113885771D01*
X180540476Y-113885771D02*
X180492857Y-113790533D01*
X180492857Y-113790533D02*
X180492857Y-113695295D01*
X180492857Y-113695295D02*
X180540476Y-113600057D01*
X180540476Y-113600057D02*
X180588095Y-113552438D01*
X180588095Y-113552438D02*
X180683333Y-113504819D01*
X180683333Y-113504819D02*
X180921428Y-113504819D01*
X180921428Y-113504819D02*
X181064285Y-113552438D01*
X181635714Y-114504819D02*
X181540476Y-114457200D01*
X181540476Y-114457200D02*
X181492857Y-114409580D01*
X181492857Y-114409580D02*
X181445238Y-114314342D01*
X181445238Y-114314342D02*
X181445238Y-114028628D01*
X181445238Y-114028628D02*
X181492857Y-113933390D01*
X181492857Y-113933390D02*
X181540476Y-113885771D01*
X181540476Y-113885771D02*
X181635714Y-113838152D01*
X181635714Y-113838152D02*
X181778571Y-113838152D01*
X181778571Y-113838152D02*
X181873809Y-113885771D01*
X181873809Y-113885771D02*
X181921428Y-113933390D01*
X181921428Y-113933390D02*
X181969047Y-114028628D01*
X181969047Y-114028628D02*
X181969047Y-114314342D01*
X181969047Y-114314342D02*
X181921428Y-114409580D01*
X181921428Y-114409580D02*
X181873809Y-114457200D01*
X181873809Y-114457200D02*
X181778571Y-114504819D01*
X181778571Y-114504819D02*
X181635714Y-114504819D01*
X182969047Y-114409580D02*
X182921428Y-114457200D01*
X182921428Y-114457200D02*
X182778571Y-114504819D01*
X182778571Y-114504819D02*
X182683333Y-114504819D01*
X182683333Y-114504819D02*
X182540476Y-114457200D01*
X182540476Y-114457200D02*
X182445238Y-114361961D01*
X182445238Y-114361961D02*
X182397619Y-114266723D01*
X182397619Y-114266723D02*
X182350000Y-114076247D01*
X182350000Y-114076247D02*
X182350000Y-113933390D01*
X182350000Y-113933390D02*
X182397619Y-113742914D01*
X182397619Y-113742914D02*
X182445238Y-113647676D01*
X182445238Y-113647676D02*
X182540476Y-113552438D01*
X182540476Y-113552438D02*
X182683333Y-113504819D01*
X182683333Y-113504819D02*
X182778571Y-113504819D01*
X182778571Y-113504819D02*
X182921428Y-113552438D01*
X182921428Y-113552438D02*
X182969047Y-113600057D01*
X89889286Y-74429819D02*
X89889286Y-73429819D01*
X89889286Y-73429819D02*
X90270238Y-73429819D01*
X90270238Y-73429819D02*
X90365476Y-73477438D01*
X90365476Y-73477438D02*
X90413095Y-73525057D01*
X90413095Y-73525057D02*
X90460714Y-73620295D01*
X90460714Y-73620295D02*
X90460714Y-73763152D01*
X90460714Y-73763152D02*
X90413095Y-73858390D01*
X90413095Y-73858390D02*
X90365476Y-73906009D01*
X90365476Y-73906009D02*
X90270238Y-73953628D01*
X90270238Y-73953628D02*
X89889286Y-73953628D01*
X91460714Y-74429819D02*
X91127381Y-73953628D01*
X90889286Y-74429819D02*
X90889286Y-73429819D01*
X90889286Y-73429819D02*
X91270238Y-73429819D01*
X91270238Y-73429819D02*
X91365476Y-73477438D01*
X91365476Y-73477438D02*
X91413095Y-73525057D01*
X91413095Y-73525057D02*
X91460714Y-73620295D01*
X91460714Y-73620295D02*
X91460714Y-73763152D01*
X91460714Y-73763152D02*
X91413095Y-73858390D01*
X91413095Y-73858390D02*
X91365476Y-73906009D01*
X91365476Y-73906009D02*
X91270238Y-73953628D01*
X91270238Y-73953628D02*
X90889286Y-73953628D01*
X92079762Y-73429819D02*
X92270238Y-73429819D01*
X92270238Y-73429819D02*
X92365476Y-73477438D01*
X92365476Y-73477438D02*
X92460714Y-73572676D01*
X92460714Y-73572676D02*
X92508333Y-73763152D01*
X92508333Y-73763152D02*
X92508333Y-74096485D01*
X92508333Y-74096485D02*
X92460714Y-74286961D01*
X92460714Y-74286961D02*
X92365476Y-74382200D01*
X92365476Y-74382200D02*
X92270238Y-74429819D01*
X92270238Y-74429819D02*
X92079762Y-74429819D01*
X92079762Y-74429819D02*
X91984524Y-74382200D01*
X91984524Y-74382200D02*
X91889286Y-74286961D01*
X91889286Y-74286961D02*
X91841667Y-74096485D01*
X91841667Y-74096485D02*
X91841667Y-73763152D01*
X91841667Y-73763152D02*
X91889286Y-73572676D01*
X91889286Y-73572676D02*
X91984524Y-73477438D01*
X91984524Y-73477438D02*
X92079762Y-73429819D01*
X93460714Y-73477438D02*
X93365476Y-73429819D01*
X93365476Y-73429819D02*
X93222619Y-73429819D01*
X93222619Y-73429819D02*
X93079762Y-73477438D01*
X93079762Y-73477438D02*
X92984524Y-73572676D01*
X92984524Y-73572676D02*
X92936905Y-73667914D01*
X92936905Y-73667914D02*
X92889286Y-73858390D01*
X92889286Y-73858390D02*
X92889286Y-74001247D01*
X92889286Y-74001247D02*
X92936905Y-74191723D01*
X92936905Y-74191723D02*
X92984524Y-74286961D01*
X92984524Y-74286961D02*
X93079762Y-74382200D01*
X93079762Y-74382200D02*
X93222619Y-74429819D01*
X93222619Y-74429819D02*
X93317857Y-74429819D01*
X93317857Y-74429819D02*
X93460714Y-74382200D01*
X93460714Y-74382200D02*
X93508333Y-74334580D01*
X93508333Y-74334580D02*
X93508333Y-74001247D01*
X93508333Y-74001247D02*
X93317857Y-74001247D01*
X172638095Y-111802438D02*
X172542857Y-111754819D01*
X172542857Y-111754819D02*
X172400000Y-111754819D01*
X172400000Y-111754819D02*
X172257143Y-111802438D01*
X172257143Y-111802438D02*
X172161905Y-111897676D01*
X172161905Y-111897676D02*
X172114286Y-111992914D01*
X172114286Y-111992914D02*
X172066667Y-112183390D01*
X172066667Y-112183390D02*
X172066667Y-112326247D01*
X172066667Y-112326247D02*
X172114286Y-112516723D01*
X172114286Y-112516723D02*
X172161905Y-112611961D01*
X172161905Y-112611961D02*
X172257143Y-112707200D01*
X172257143Y-112707200D02*
X172400000Y-112754819D01*
X172400000Y-112754819D02*
X172495238Y-112754819D01*
X172495238Y-112754819D02*
X172638095Y-112707200D01*
X172638095Y-112707200D02*
X172685714Y-112659580D01*
X172685714Y-112659580D02*
X172685714Y-112326247D01*
X172685714Y-112326247D02*
X172495238Y-112326247D01*
X173114286Y-112754819D02*
X173114286Y-111754819D01*
X173114286Y-111754819D02*
X173685714Y-112754819D01*
X173685714Y-112754819D02*
X173685714Y-111754819D01*
X174161905Y-112754819D02*
X174161905Y-111754819D01*
X174161905Y-111754819D02*
X174400000Y-111754819D01*
X174400000Y-111754819D02*
X174542857Y-111802438D01*
X174542857Y-111802438D02*
X174638095Y-111897676D01*
X174638095Y-111897676D02*
X174685714Y-111992914D01*
X174685714Y-111992914D02*
X174733333Y-112183390D01*
X174733333Y-112183390D02*
X174733333Y-112326247D01*
X174733333Y-112326247D02*
X174685714Y-112516723D01*
X174685714Y-112516723D02*
X174638095Y-112611961D01*
X174638095Y-112611961D02*
X174542857Y-112707200D01*
X174542857Y-112707200D02*
X174400000Y-112754819D01*
X174400000Y-112754819D02*
X174161905Y-112754819D01*
X83539819Y-99588809D02*
X82539819Y-99588809D01*
X83016009Y-99588809D02*
X83016009Y-99017381D01*
X83539819Y-99017381D02*
X82539819Y-99017381D01*
X82539819Y-98636428D02*
X82539819Y-97969762D01*
X82539819Y-97969762D02*
X83539819Y-98398333D01*
X83635057Y-97826905D02*
X83635057Y-97065000D01*
X82539819Y-96826904D02*
X83349342Y-96826904D01*
X83349342Y-96826904D02*
X83444580Y-96779285D01*
X83444580Y-96779285D02*
X83492200Y-96731666D01*
X83492200Y-96731666D02*
X83539819Y-96636428D01*
X83539819Y-96636428D02*
X83539819Y-96445952D01*
X83539819Y-96445952D02*
X83492200Y-96350714D01*
X83492200Y-96350714D02*
X83444580Y-96303095D01*
X83444580Y-96303095D02*
X83349342Y-96255476D01*
X83349342Y-96255476D02*
X82539819Y-96255476D01*
X83254104Y-95826904D02*
X83254104Y-95350714D01*
X83539819Y-95922142D02*
X82539819Y-95588809D01*
X82539819Y-95588809D02*
X83539819Y-95255476D01*
X83539819Y-94350714D02*
X83063628Y-94684047D01*
X83539819Y-94922142D02*
X82539819Y-94922142D01*
X82539819Y-94922142D02*
X82539819Y-94541190D01*
X82539819Y-94541190D02*
X82587438Y-94445952D01*
X82587438Y-94445952D02*
X82635057Y-94398333D01*
X82635057Y-94398333D02*
X82730295Y-94350714D01*
X82730295Y-94350714D02*
X82873152Y-94350714D01*
X82873152Y-94350714D02*
X82968390Y-94398333D01*
X82968390Y-94398333D02*
X83016009Y-94445952D01*
X83016009Y-94445952D02*
X83063628Y-94541190D01*
X83063628Y-94541190D02*
X83063628Y-94922142D01*
X82539819Y-94064999D02*
X82539819Y-93493571D01*
X83539819Y-93779285D02*
X82539819Y-93779285D01*
X82492200Y-92445952D02*
X83777914Y-93303094D01*
X83492200Y-92160237D02*
X83539819Y-92017380D01*
X83539819Y-92017380D02*
X83539819Y-91779285D01*
X83539819Y-91779285D02*
X83492200Y-91684047D01*
X83492200Y-91684047D02*
X83444580Y-91636428D01*
X83444580Y-91636428D02*
X83349342Y-91588809D01*
X83349342Y-91588809D02*
X83254104Y-91588809D01*
X83254104Y-91588809D02*
X83158866Y-91636428D01*
X83158866Y-91636428D02*
X83111247Y-91684047D01*
X83111247Y-91684047D02*
X83063628Y-91779285D01*
X83063628Y-91779285D02*
X83016009Y-91969761D01*
X83016009Y-91969761D02*
X82968390Y-92064999D01*
X82968390Y-92064999D02*
X82920771Y-92112618D01*
X82920771Y-92112618D02*
X82825533Y-92160237D01*
X82825533Y-92160237D02*
X82730295Y-92160237D01*
X82730295Y-92160237D02*
X82635057Y-92112618D01*
X82635057Y-92112618D02*
X82587438Y-92064999D01*
X82587438Y-92064999D02*
X82539819Y-91969761D01*
X82539819Y-91969761D02*
X82539819Y-91731666D01*
X82539819Y-91731666D02*
X82587438Y-91588809D01*
X82539819Y-91255475D02*
X83539819Y-91017380D01*
X83539819Y-91017380D02*
X82825533Y-90826904D01*
X82825533Y-90826904D02*
X83539819Y-90636428D01*
X83539819Y-90636428D02*
X82539819Y-90398333D01*
X83539819Y-90017380D02*
X82539819Y-90017380D01*
X82539819Y-90017380D02*
X82539819Y-89779285D01*
X82539819Y-89779285D02*
X82587438Y-89636428D01*
X82587438Y-89636428D02*
X82682676Y-89541190D01*
X82682676Y-89541190D02*
X82777914Y-89493571D01*
X82777914Y-89493571D02*
X82968390Y-89445952D01*
X82968390Y-89445952D02*
X83111247Y-89445952D01*
X83111247Y-89445952D02*
X83301723Y-89493571D01*
X83301723Y-89493571D02*
X83396961Y-89541190D01*
X83396961Y-89541190D02*
X83492200Y-89636428D01*
X83492200Y-89636428D02*
X83539819Y-89779285D01*
X83539819Y-89779285D02*
X83539819Y-90017380D01*
X83539819Y-88493571D02*
X83539819Y-89064999D01*
X83539819Y-88779285D02*
X82539819Y-88779285D01*
X82539819Y-88779285D02*
X82682676Y-88874523D01*
X82682676Y-88874523D02*
X82777914Y-88969761D01*
X82777914Y-88969761D02*
X82825533Y-89064999D01*
X107124798Y-105453796D02*
X106619722Y-105958872D01*
X106619722Y-105958872D02*
X106485035Y-106026216D01*
X106485035Y-106026216D02*
X106350348Y-106026216D01*
X106350348Y-106026216D02*
X106215661Y-105958872D01*
X106215661Y-105958872D02*
X106148317Y-105891529D01*
X107764562Y-106093559D02*
X107629875Y-105958872D01*
X107629875Y-105958872D02*
X107528859Y-105925201D01*
X107528859Y-105925201D02*
X107461516Y-105925201D01*
X107461516Y-105925201D02*
X107293157Y-105958872D01*
X107293157Y-105958872D02*
X107124798Y-106059888D01*
X107124798Y-106059888D02*
X106855424Y-106329262D01*
X106855424Y-106329262D02*
X106821753Y-106430277D01*
X106821753Y-106430277D02*
X106821753Y-106497620D01*
X106821753Y-106497620D02*
X106855424Y-106598636D01*
X106855424Y-106598636D02*
X106990111Y-106733323D01*
X106990111Y-106733323D02*
X107091127Y-106766994D01*
X107091127Y-106766994D02*
X107158470Y-106766994D01*
X107158470Y-106766994D02*
X107259485Y-106733323D01*
X107259485Y-106733323D02*
X107427844Y-106564964D01*
X107427844Y-106564964D02*
X107461516Y-106463949D01*
X107461516Y-106463949D02*
X107461516Y-106396605D01*
X107461516Y-106396605D02*
X107427844Y-106295590D01*
X107427844Y-106295590D02*
X107293157Y-106160903D01*
X107293157Y-106160903D02*
X107192142Y-106127231D01*
X107192142Y-106127231D02*
X107124798Y-106127231D01*
X107124798Y-106127231D02*
X107023783Y-106160903D01*
X99356127Y-68475328D02*
X98783707Y-69047748D01*
X98783707Y-69047748D02*
X98750035Y-69148763D01*
X98750035Y-69148763D02*
X98750035Y-69216107D01*
X98750035Y-69216107D02*
X98783707Y-69317122D01*
X98783707Y-69317122D02*
X98918394Y-69451809D01*
X98918394Y-69451809D02*
X99019409Y-69485481D01*
X99019409Y-69485481D02*
X99086753Y-69485481D01*
X99086753Y-69485481D02*
X99187768Y-69451809D01*
X99187768Y-69451809D02*
X99760188Y-68879389D01*
X100164249Y-69754855D02*
X99692844Y-70226259D01*
X100265264Y-69317122D02*
X99591829Y-69653840D01*
X99591829Y-69653840D02*
X100029562Y-70091572D01*
X99185501Y-62964499D02*
X99017142Y-63132857D01*
X98916127Y-62897155D02*
X99017142Y-63132857D01*
X99017142Y-63132857D02*
X99252844Y-63233873D01*
X98781440Y-63166529D02*
X99017142Y-63132857D01*
X99017142Y-63132857D02*
X98983470Y-63368560D01*
D10*
%TO.C,U5*%
X183424300Y-88995300D02*
X183424300Y-91840100D01*
X183424300Y-91840100D02*
X183725160Y-91840100D01*
X183725160Y-88995300D02*
X183424300Y-88995300D01*
X187974840Y-91840100D02*
X188275700Y-91840100D01*
X188275700Y-88995300D02*
X187974840Y-88995300D01*
X188275700Y-91840100D02*
X188275700Y-88995300D01*
X182408300Y-92652900D02*
G75*
G02*
X182154300Y-92652900I-127000J0D01*
G01*
X182154300Y-92652900D02*
G75*
G02*
X182408300Y-92652900I127000J0D01*
G01*
%TO.C,U6*%
X161984900Y-112050700D02*
X164829700Y-112050700D01*
X164829700Y-112050700D02*
X164829700Y-111749840D01*
X161984900Y-111749840D02*
X161984900Y-112050700D01*
X164829700Y-107500160D02*
X164829700Y-107199300D01*
X161984900Y-107199300D02*
X161984900Y-107500160D01*
X164829700Y-107199300D02*
X161984900Y-107199300D01*
X165769500Y-113193700D02*
G75*
G02*
X165515500Y-113193700I-127000J0D01*
G01*
X165515500Y-113193700D02*
G75*
G02*
X165769500Y-113193700I127000J0D01*
G01*
D13*
%TO.C,R22*%
X119470276Y-65777500D02*
X119979724Y-65777500D01*
X119470276Y-66822500D02*
X119979724Y-66822500D01*
D14*
%TO.C,D4*%
X167778015Y-88341350D02*
X166816350Y-89303015D01*
X168166924Y-88730259D02*
X167778015Y-88341350D01*
X169333650Y-89896985D02*
X168371985Y-90858650D01*
X169333650Y-89896985D02*
X168944741Y-89508076D01*
D11*
X166336522Y-89387868D02*
G75*
G02*
X166136522Y-89387868I-100000J0D01*
G01*
X166136522Y-89387868D02*
G75*
G02*
X166336522Y-89387868I100000J0D01*
G01*
D13*
%TO.C,C11*%
X158439987Y-69461073D02*
X158646840Y-69254220D01*
X159161236Y-70182322D02*
X159368089Y-69975469D01*
%TO.C,D3*%
X123840835Y-68605282D02*
X123519718Y-68284165D01*
X124880282Y-67565835D02*
X124559165Y-67244718D01*
%TO.C,D1*%
X82162500Y-78140000D02*
X81512500Y-78140000D01*
X82162500Y-78140000D02*
X82812500Y-78140000D01*
X82162500Y-81260000D02*
X81512500Y-81260000D01*
X82162500Y-81260000D02*
X82812500Y-81260000D01*
X81000000Y-78190000D02*
X80760000Y-77860000D01*
X81240000Y-77860000D01*
X81000000Y-78190000D01*
G36*
X81000000Y-78190000D02*
G01*
X80760000Y-77860000D01*
X81240000Y-77860000D01*
X81000000Y-78190000D01*
G37*
%TO.C,H7RST*%
X171550000Y-87095000D02*
X178010000Y-87095000D01*
X171550000Y-87125000D02*
X171550000Y-87095000D01*
X171550000Y-89025000D02*
X171550000Y-91625000D01*
X171550000Y-93555000D02*
X171550000Y-93525000D01*
X171550000Y-93555000D02*
X178010000Y-93555000D01*
X178010000Y-87095000D02*
X178010000Y-87125000D01*
X178010000Y-89025000D02*
X178010000Y-91625000D01*
X178010000Y-93555000D02*
X178010000Y-93525000D01*
%TO.C,R26*%
X114460654Y-102000420D02*
X114100420Y-102360654D01*
X115199580Y-102739346D02*
X114839346Y-103099580D01*
%TO.C,R24*%
X123755889Y-114330185D02*
X123395655Y-114690419D01*
X124494815Y-115069111D02*
X124134581Y-115429345D01*
%TO.C,3V3SoC*%
X172700000Y-106250000D02*
X174100000Y-106250000D01*
X172700000Y-107650000D02*
X172700000Y-106250000D01*
X174100000Y-106250000D02*
X174100000Y-107650000D01*
X174100000Y-107650000D02*
X172700000Y-107650000D01*
%TO.C,C73*%
X164142802Y-101010949D02*
X163935949Y-101217802D01*
X164864051Y-101732198D02*
X164657198Y-101939051D01*
%TO.C,C28*%
X141490661Y-97370552D02*
X141283808Y-97577405D01*
X142211910Y-98091801D02*
X142005057Y-98298654D01*
%TO.C,R41*%
X137185654Y-95600420D02*
X136825420Y-95960654D01*
X137924580Y-96339346D02*
X137564346Y-96699580D01*
%TO.C,R40*%
X138855889Y-102405185D02*
X138495655Y-102765419D01*
X139594815Y-103144111D02*
X139234581Y-103504345D01*
%TO.C,RS485*%
X81922936Y-67565000D02*
X82377064Y-67565000D01*
X81922936Y-69035000D02*
X82377064Y-69035000D01*
D14*
%TO.C,J5*%
X168322869Y-55762225D02*
X169086544Y-56525900D01*
X170359336Y-53725758D02*
X168322869Y-55762225D01*
X171123011Y-54489433D02*
X170359336Y-53725758D01*
X184303482Y-71742838D02*
X183539807Y-70979163D01*
X186339949Y-69706371D02*
X184303482Y-71742838D01*
X186339949Y-69706371D02*
X185576274Y-68942696D01*
D11*
X186680366Y-68476005D02*
G75*
G02*
X186480366Y-68476005I-100000J0D01*
G01*
X186480366Y-68476005D02*
G75*
G02*
X186680366Y-68476005I100000J0D01*
G01*
D13*
%TO.C,UH_OH*%
X81947936Y-63915000D02*
X82402064Y-63915000D01*
X81947936Y-65385000D02*
X82402064Y-65385000D01*
%TO.C,C35*%
X181715000Y-89003733D02*
X181715000Y-89296267D01*
X182735000Y-89003733D02*
X182735000Y-89296267D01*
D14*
%TO.C,L1*%
X157251625Y-95376196D02*
X157091625Y-95376196D01*
X157251625Y-97376196D02*
X157091625Y-97376196D01*
D13*
%TO.C,C33*%
X189390000Y-90538747D02*
X189390000Y-91061253D01*
X190860000Y-90538747D02*
X190860000Y-91061253D01*
%TO.C,C55*%
X156353608Y-92401373D02*
X156646142Y-92401373D01*
X156353608Y-93421373D02*
X156646142Y-93421373D01*
%TO.C,C44*%
X178378733Y-97540000D02*
X178671267Y-97540000D01*
X178378733Y-98560000D02*
X178671267Y-98560000D01*
%TO.C,3V3HPSoC*%
X174347936Y-94290000D02*
X174802064Y-94290000D01*
X174347936Y-95760000D02*
X174802064Y-95760000D01*
D10*
%TO.C,U1*%
X128975742Y-80201130D02*
X130048606Y-81273994D01*
X130048608Y-79128264D02*
X128975742Y-80201130D01*
X145934099Y-97159487D02*
X147006965Y-98232353D01*
X147006965Y-62169907D02*
X145934101Y-63242771D01*
X147006965Y-98232353D02*
X148079829Y-97159489D01*
X147904991Y-97334327D02*
X146108939Y-97334327D01*
X148079831Y-63242773D02*
X147006965Y-62169907D01*
X163965322Y-81273996D02*
X165038188Y-80201130D01*
X165038188Y-80201130D02*
X163965324Y-79128266D01*
X149490155Y-97810917D02*
G75*
G02*
X149337757Y-97810917I-76199J0D01*
G01*
X149337757Y-97810917D02*
G75*
G02*
X149490155Y-97810917I76199J0D01*
G01*
D13*
%TO.C,C38*%
X158715000Y-107121267D02*
X158715000Y-106828733D01*
X159735000Y-107121267D02*
X159735000Y-106828733D01*
%TO.C,R21*%
X168095276Y-96727500D02*
X168604724Y-96727500D01*
X168095276Y-97772500D02*
X168604724Y-97772500D01*
%TO.C,JP1*%
X82705000Y-74220000D02*
X82705000Y-76980000D01*
X85355000Y-74220000D02*
X82705000Y-74220000D01*
X85355000Y-74220000D02*
X85355000Y-76980000D01*
X85355000Y-76980000D02*
X82705000Y-76980000D01*
X86625000Y-74220001D02*
X88005000Y-74220000D01*
X88005000Y-74220000D02*
X88004999Y-75600000D01*
%TO.C,C15*%
X165793897Y-81870797D02*
X166000750Y-81663944D01*
X166515146Y-82592046D02*
X166721999Y-82385193D01*
D14*
%TO.C,J1*%
X199525000Y-73375000D02*
X199525000Y-74275000D01*
X199525000Y-74275000D02*
X204025000Y-74275000D01*
X199525000Y-89875000D02*
X199525000Y-90775000D01*
X199525000Y-90775000D02*
X211025000Y-90775000D01*
X204025000Y-74275000D02*
X204025000Y-89875000D01*
X204025000Y-89875000D02*
X199525000Y-89875000D01*
X211025000Y-73375000D02*
X199525000Y-73375000D01*
D11*
X201925000Y-91325000D02*
G75*
G02*
X201725000Y-91325000I-100000J0D01*
G01*
X201725000Y-91325000D02*
G75*
G02*
X201925000Y-91325000I100000J0D01*
G01*
D13*
%TO.C,R36*%
X133485654Y-93925420D02*
X133125420Y-94285654D01*
X134224580Y-94664346D02*
X133864346Y-95024580D01*
D15*
%TO.C,G\u002A\u002A\u002A*%
G36*
X108084440Y-56153692D02*
G01*
X108116389Y-56154967D01*
X108144698Y-56157033D01*
X108163384Y-56159223D01*
X108242582Y-56173888D01*
X108318605Y-56194405D01*
X108391527Y-56220802D01*
X108461420Y-56253109D01*
X108528356Y-56291354D01*
X108570104Y-56319262D01*
X108618832Y-56356768D01*
X108666761Y-56399371D01*
X108712361Y-56445539D01*
X108754101Y-56493741D01*
X108783940Y-56533098D01*
X108825713Y-56597675D01*
X108861515Y-56664821D01*
X108891330Y-56734142D01*
X108915141Y-56805245D01*
X108932934Y-56877735D01*
X108944691Y-56951218D01*
X108950399Y-57025301D01*
X108950039Y-57099588D01*
X108943598Y-57173687D01*
X108931058Y-57247203D01*
X108912405Y-57319741D01*
X108887621Y-57390909D01*
X108856693Y-57460311D01*
X108823639Y-57520855D01*
X108780979Y-57585983D01*
X108733515Y-57646622D01*
X108681541Y-57702578D01*
X108625351Y-57753661D01*
X108565238Y-57799677D01*
X108501497Y-57840434D01*
X108434422Y-57875740D01*
X108364306Y-57905401D01*
X108291444Y-57929227D01*
X108216130Y-57947023D01*
X108158384Y-57956276D01*
X108137864Y-57958456D01*
X108113396Y-57960341D01*
X108086823Y-57961853D01*
X108059986Y-57962915D01*
X108034729Y-57963451D01*
X108012894Y-57963382D01*
X108000029Y-57962898D01*
X107921759Y-57954894D01*
X107845189Y-57940604D01*
X107770650Y-57920176D01*
X107698472Y-57893754D01*
X107628984Y-57861487D01*
X107562515Y-57823520D01*
X107499397Y-57780000D01*
X107439958Y-57731074D01*
X107405782Y-57698771D01*
X107353978Y-57642529D01*
X107307219Y-57582117D01*
X107265728Y-57517966D01*
X107229726Y-57450509D01*
X107199435Y-57380178D01*
X107175077Y-57307406D01*
X107156873Y-57232624D01*
X107151540Y-57203313D01*
X107142347Y-57127270D01*
X107139715Y-57050908D01*
X107143582Y-56974653D01*
X107153443Y-56902164D01*
X108055715Y-56902164D01*
X108058486Y-56928466D01*
X108064603Y-56953316D01*
X108074582Y-56979112D01*
X108082429Y-56995624D01*
X108091142Y-57012160D01*
X108099434Y-57025452D01*
X108108892Y-57037666D01*
X108121105Y-57050970D01*
X108128373Y-57058340D01*
X108142668Y-57072179D01*
X108154781Y-57082524D01*
X108166868Y-57090942D01*
X108181090Y-57099000D01*
X108192114Y-57104595D01*
X108215499Y-57115413D01*
X108236102Y-57122945D01*
X108256088Y-57127659D01*
X108277621Y-57130018D01*
X108302866Y-57130489D01*
X108311737Y-57130325D01*
X108331397Y-57129602D01*
X108346514Y-57128344D01*
X108359209Y-57126236D01*
X108371602Y-57122964D01*
X108380079Y-57120209D01*
X108416678Y-57104594D01*
X108449718Y-57083714D01*
X108478702Y-57058443D01*
X108505374Y-57027266D01*
X108526223Y-56993196D01*
X108541107Y-56956812D01*
X108549885Y-56918693D01*
X108552415Y-56879419D01*
X108548554Y-56839569D01*
X108540338Y-56806288D01*
X108529282Y-56777622D01*
X108514802Y-56751677D01*
X108495818Y-56726740D01*
X108478426Y-56708121D01*
X108453036Y-56685069D01*
X108427883Y-56667341D01*
X108401285Y-56653874D01*
X108380557Y-56646303D01*
X108340425Y-56636904D01*
X108300513Y-56634035D01*
X108261359Y-56637563D01*
X108223498Y-56647360D01*
X108187466Y-56663293D01*
X108153801Y-56685232D01*
X108128104Y-56707845D01*
X108101493Y-56738322D01*
X108081200Y-56770445D01*
X108066954Y-56804825D01*
X108058485Y-56842075D01*
X108055773Y-56872014D01*
X108055715Y-56902164D01*
X107153443Y-56902164D01*
X107153883Y-56898930D01*
X107170554Y-56824166D01*
X107193532Y-56750786D01*
X107222752Y-56679215D01*
X107233567Y-56656448D01*
X107270492Y-56588783D01*
X107312596Y-56525137D01*
X107359585Y-56465721D01*
X107411164Y-56410744D01*
X107467040Y-56360419D01*
X107526919Y-56314954D01*
X107590507Y-56274560D01*
X107657510Y-56239447D01*
X107727633Y-56209827D01*
X107800584Y-56185909D01*
X107876067Y-56167903D01*
X107928353Y-56159191D01*
X107953532Y-56156507D01*
X107983396Y-56154616D01*
X108016278Y-56153517D01*
X108050514Y-56153209D01*
X108084440Y-56153692D01*
G37*
G36*
X109719736Y-58658586D02*
G01*
X109741156Y-58660178D01*
X109751908Y-58661708D01*
X109798646Y-58673334D01*
X109842088Y-58690375D01*
X109881985Y-58712354D01*
X109918093Y-58738792D01*
X109950164Y-58769211D01*
X109977952Y-58803134D01*
X110001211Y-58840082D01*
X110019694Y-58879578D01*
X110033154Y-58921143D01*
X110041346Y-58964300D01*
X110044021Y-59008571D01*
X110040935Y-59053478D01*
X110031841Y-59098542D01*
X110016491Y-59143287D01*
X110008965Y-59160109D01*
X109995290Y-59185637D01*
X109978876Y-59211295D01*
X109961100Y-59235144D01*
X109943342Y-59255243D01*
X109937184Y-59261218D01*
X109929229Y-59268792D01*
X109923716Y-59274501D01*
X109921948Y-59276887D01*
X109923786Y-59280077D01*
X109928773Y-59287495D01*
X109936118Y-59297991D01*
X109943880Y-59308824D01*
X109982239Y-59365925D01*
X110016598Y-59425415D01*
X110046452Y-59486228D01*
X110071298Y-59547298D01*
X110090634Y-59607560D01*
X110097376Y-59634011D01*
X110100882Y-59649756D01*
X110103388Y-59663352D01*
X110105061Y-59676553D01*
X110106072Y-59691116D01*
X110106588Y-59708799D01*
X110106778Y-59731357D01*
X110106780Y-59731851D01*
X110106554Y-59759095D01*
X110105517Y-59781165D01*
X110103419Y-59799534D01*
X110100007Y-59815673D01*
X110095032Y-59831052D01*
X110088240Y-59847143D01*
X110086417Y-59851051D01*
X110069893Y-59878382D01*
X110048314Y-59901808D01*
X110022458Y-59920651D01*
X109993104Y-59934237D01*
X109989124Y-59935565D01*
X109969697Y-59939897D01*
X109946097Y-59942260D01*
X109920532Y-59942618D01*
X109895208Y-59940934D01*
X109873609Y-59937459D01*
X109827703Y-59924356D01*
X109780349Y-59905119D01*
X109732028Y-59879996D01*
X109683220Y-59849238D01*
X109636794Y-59814986D01*
X109622312Y-59802868D01*
X109604625Y-59787039D01*
X109584962Y-59768696D01*
X109564554Y-59749036D01*
X109544629Y-59729258D01*
X109526417Y-59710558D01*
X109511149Y-59694134D01*
X109502638Y-59684354D01*
X109493938Y-59674270D01*
X109486682Y-59666521D01*
X109481999Y-59662288D01*
X109481071Y-59661842D01*
X109477199Y-59663592D01*
X109469284Y-59668262D01*
X109458767Y-59674984D01*
X109454236Y-59677997D01*
X109425933Y-59696425D01*
X109392873Y-59716924D01*
X109356351Y-59738761D01*
X109317660Y-59761202D01*
X109278093Y-59783516D01*
X109238942Y-59804968D01*
X109201503Y-59824826D01*
X109167067Y-59842357D01*
X109147515Y-59851867D01*
X109128375Y-59861222D01*
X109114956Y-59868400D01*
X109106783Y-59873688D01*
X109103382Y-59877370D01*
X109103270Y-59878537D01*
X109104839Y-59883388D01*
X109108220Y-59893200D01*
X109112957Y-59906662D01*
X109118590Y-59922468D01*
X109120174Y-59926877D01*
X109144610Y-60003908D01*
X109162467Y-60080773D01*
X109173724Y-60157354D01*
X109178359Y-60233539D01*
X109178490Y-60248158D01*
X109176628Y-60300597D01*
X109171078Y-60348981D01*
X109161977Y-60393087D01*
X109149460Y-60432691D01*
X109133665Y-60467571D01*
X109114727Y-60497504D01*
X109092784Y-60522268D01*
X109067971Y-60541639D01*
X109040424Y-60555395D01*
X109010281Y-60563313D01*
X108984363Y-60565294D01*
X108949365Y-60562214D01*
X108914329Y-60552916D01*
X108879082Y-60537314D01*
X108843449Y-60515321D01*
X108807254Y-60486851D01*
X108785643Y-60467055D01*
X108770884Y-60452451D01*
X108755803Y-60436850D01*
X108742092Y-60422043D01*
X108731443Y-60409819D01*
X108730734Y-60408957D01*
X108699384Y-60367319D01*
X108668777Y-60320276D01*
X108639580Y-60269089D01*
X108612459Y-60215018D01*
X108588081Y-60159326D01*
X108567112Y-60103273D01*
X108563583Y-60092732D01*
X108559474Y-60080413D01*
X108556193Y-60070946D01*
X108554244Y-60065773D01*
X108553945Y-60065228D01*
X108550657Y-60065917D01*
X108542082Y-60067804D01*
X108529434Y-60070619D01*
X108513930Y-60074092D01*
X108510046Y-60074966D01*
X108418671Y-60093616D01*
X108324102Y-60109304D01*
X108228065Y-60121835D01*
X108132284Y-60131012D01*
X108038485Y-60136639D01*
X107951007Y-60138520D01*
X107875315Y-60138571D01*
X107873674Y-60149406D01*
X107872791Y-60157361D01*
X107871751Y-60169942D01*
X107870714Y-60185117D01*
X107870156Y-60194648D01*
X107865313Y-60247804D01*
X107856703Y-60302420D01*
X107844718Y-60356976D01*
X107829746Y-60409953D01*
X107812179Y-60459832D01*
X107792407Y-60505093D01*
X107788276Y-60513353D01*
X107765862Y-60552554D01*
X107741237Y-60587180D01*
X107714833Y-60616784D01*
X107687082Y-60640918D01*
X107658418Y-60659137D01*
X107638803Y-60667852D01*
X107620971Y-60672856D01*
X107600505Y-60676191D01*
X107579816Y-60677652D01*
X107561314Y-60677032D01*
X107551344Y-60675350D01*
X107517293Y-60663242D01*
X107485160Y-60644752D01*
X107454944Y-60619880D01*
X107426643Y-60588624D01*
X107400256Y-60550983D01*
X107376692Y-60508775D01*
X107354630Y-60459983D01*
X107336044Y-60408177D01*
X107320810Y-60352796D01*
X107308803Y-60293280D01*
X107299899Y-60229069D01*
X107293973Y-60159603D01*
X107292348Y-60128835D01*
X107289936Y-60074092D01*
X107239930Y-60062965D01*
X107127330Y-60036376D01*
X107019754Y-60007776D01*
X106915752Y-59976744D01*
X106813873Y-59942863D01*
X106772042Y-59927928D01*
X106754292Y-59921539D01*
X106738862Y-59916127D01*
X106726777Y-59912040D01*
X106719060Y-59909626D01*
X106716702Y-59909145D01*
X106715588Y-59912634D01*
X106713300Y-59921106D01*
X106710235Y-59933063D01*
X106708489Y-59940071D01*
X106693328Y-59994307D01*
X106674784Y-60048572D01*
X106653476Y-60101394D01*
X106630023Y-60151298D01*
X106605045Y-60196811D01*
X106591443Y-60218582D01*
X106561633Y-60260378D01*
X106530882Y-60296463D01*
X106499397Y-60326735D01*
X106467386Y-60351092D01*
X106435057Y-60369434D01*
X106402617Y-60381658D01*
X106370276Y-60387664D01*
X106338240Y-60387350D01*
X106306717Y-60380616D01*
X106280915Y-60369987D01*
X106260679Y-60356888D01*
X106240112Y-60338367D01*
X106220146Y-60315547D01*
X106201713Y-60289555D01*
X106185745Y-60261513D01*
X106178908Y-60246919D01*
X106163022Y-60205669D01*
X106150565Y-60162682D01*
X106141400Y-60117099D01*
X106135392Y-60068062D01*
X106132405Y-60014712D01*
X106132304Y-59956191D01*
X106132380Y-59952769D01*
X106135945Y-59883232D01*
X106143486Y-59817130D01*
X106155336Y-59752312D01*
X106171830Y-59686627D01*
X106175960Y-59672369D01*
X106184194Y-59644557D01*
X106161990Y-59630740D01*
X106131319Y-59611371D01*
X106099929Y-59591026D01*
X106068519Y-59570194D01*
X106037786Y-59549367D01*
X106008431Y-59529034D01*
X105981150Y-59509686D01*
X105956644Y-59491814D01*
X105935611Y-59475907D01*
X105918749Y-59462456D01*
X105906757Y-59451951D01*
X105905460Y-59450698D01*
X105873600Y-59414806D01*
X105847330Y-59375438D01*
X105826850Y-59333038D01*
X105812359Y-59288052D01*
X105804054Y-59240924D01*
X105802420Y-59219820D01*
X105803136Y-59170307D01*
X105810122Y-59123049D01*
X105823341Y-59078137D01*
X105842756Y-59035663D01*
X105868330Y-58995719D01*
X105900027Y-58958396D01*
X105912861Y-58945684D01*
X105948497Y-58915929D01*
X105986976Y-58891746D01*
X106029103Y-58872688D01*
X106064351Y-58861273D01*
X106086174Y-58856779D01*
X106112436Y-58853751D01*
X106141064Y-58852235D01*
X106169984Y-58852275D01*
X106197120Y-58853917D01*
X106220399Y-58857206D01*
X106223328Y-58857821D01*
X106271201Y-58871606D01*
X106315519Y-58890966D01*
X106356124Y-58915806D01*
X106392858Y-58946029D01*
X106425565Y-58981538D01*
X106425604Y-58981587D01*
X106439848Y-59000913D01*
X106453679Y-59022552D01*
X106466050Y-59044646D01*
X106475913Y-59065339D01*
X106481768Y-59081188D01*
X106483617Y-59086664D01*
X106486092Y-59091547D01*
X106489864Y-59096336D01*
X106495604Y-59101532D01*
X106503983Y-59107633D01*
X106515671Y-59115141D01*
X106531338Y-59124554D01*
X106551655Y-59136372D01*
X106569818Y-59146810D01*
X106654079Y-59193366D01*
X106737594Y-59235830D01*
X106822721Y-59275343D01*
X106911819Y-59313044D01*
X106924313Y-59318070D01*
X107022317Y-59354770D01*
X107125171Y-59388555D01*
X107231588Y-59419114D01*
X107340281Y-59446138D01*
X107449961Y-59469315D01*
X107559341Y-59488336D01*
X107667134Y-59502890D01*
X107709991Y-59507438D01*
X107735504Y-59509435D01*
X107766372Y-59511051D01*
X107801452Y-59512287D01*
X107839602Y-59513141D01*
X107879679Y-59513615D01*
X107920539Y-59513709D01*
X107961039Y-59513422D01*
X108000036Y-59512755D01*
X108036387Y-59511707D01*
X108068950Y-59510279D01*
X108096580Y-59508471D01*
X108108377Y-59507406D01*
X108225370Y-59492843D01*
X108338426Y-59473270D01*
X108448220Y-59448494D01*
X108555422Y-59418320D01*
X108660707Y-59382558D01*
X108764746Y-59341014D01*
X108868214Y-59293495D01*
X108886812Y-59284300D01*
X108995741Y-59226253D01*
X109100755Y-59162886D01*
X109202273Y-59093933D01*
X109293795Y-59024652D01*
X109341341Y-58986810D01*
X109345089Y-58961174D01*
X109355281Y-58913459D01*
X109371279Y-58868542D01*
X109392703Y-58826823D01*
X109419175Y-58788701D01*
X109450313Y-58754576D01*
X109485737Y-58724848D01*
X109525069Y-58699917D01*
X109567929Y-58680182D01*
X109613935Y-58666043D01*
X109628576Y-58662897D01*
X109647580Y-58660261D01*
X109670643Y-58658649D01*
X109695463Y-58658084D01*
X109719736Y-58658586D01*
G37*
G36*
X107902743Y-53130397D02*
G01*
X107959877Y-53137424D01*
X107971528Y-53139655D01*
X108027410Y-53154382D01*
X108080924Y-53175293D01*
X108131809Y-53202245D01*
X108179805Y-53235097D01*
X108224651Y-53273707D01*
X108233526Y-53282416D01*
X108271323Y-53324119D01*
X108303371Y-53367865D01*
X108330069Y-53414394D01*
X108351816Y-53464447D01*
X108369010Y-53518766D01*
X108375783Y-53546661D01*
X108379655Y-53570006D01*
X108382252Y-53598065D01*
X108383574Y-53629008D01*
X108383623Y-53661002D01*
X108382398Y-53692217D01*
X108379901Y-53720824D01*
X108376131Y-53744989D01*
X108375727Y-53746896D01*
X108360144Y-53804336D01*
X108339165Y-53858864D01*
X108313072Y-53909999D01*
X108282148Y-53957256D01*
X108246674Y-54000152D01*
X108206934Y-54038206D01*
X108203925Y-54040737D01*
X108178386Y-54062040D01*
X108178386Y-54353278D01*
X108178386Y-54644517D01*
X108678452Y-54644517D01*
X109178517Y-54644517D01*
X109178517Y-54376554D01*
X109178517Y-54108591D01*
X109161015Y-54095020D01*
X109127387Y-54065459D01*
X109095280Y-54030472D01*
X109065536Y-53991269D01*
X109038999Y-53949056D01*
X109016512Y-53905043D01*
X109000439Y-53864907D01*
X108991512Y-53837837D01*
X108984746Y-53813754D01*
X108979870Y-53790919D01*
X108976611Y-53767596D01*
X108974699Y-53742048D01*
X108973860Y-53712537D01*
X108973757Y-53694392D01*
X108973861Y-53669389D01*
X108974239Y-53649638D01*
X108974994Y-53633729D01*
X108976228Y-53620249D01*
X108978041Y-53607786D01*
X108980536Y-53594928D01*
X108981119Y-53592220D01*
X108996632Y-53534556D01*
X109017278Y-53480986D01*
X109043287Y-53431085D01*
X109074887Y-53384429D01*
X109112310Y-53340594D01*
X109123350Y-53329278D01*
X109166681Y-53290125D01*
X109212334Y-53256978D01*
X109260881Y-53229524D01*
X109312890Y-53207454D01*
X109368931Y-53190456D01*
X109384085Y-53186862D01*
X109396357Y-53184300D01*
X109408030Y-53182394D01*
X109420425Y-53181050D01*
X109434863Y-53180173D01*
X109452665Y-53179671D01*
X109475152Y-53179447D01*
X109488558Y-53179411D01*
X109513569Y-53179459D01*
X109533253Y-53179736D01*
X109548948Y-53180339D01*
X109561995Y-53181363D01*
X109573732Y-53182905D01*
X109585498Y-53185062D01*
X109594840Y-53187073D01*
X109649968Y-53202016D01*
X109700590Y-53221348D01*
X109747617Y-53245569D01*
X109791958Y-53275176D01*
X109834524Y-53310671D01*
X109853836Y-53329190D01*
X109887589Y-53365343D01*
X109915841Y-53401261D01*
X109939542Y-53438395D01*
X109959642Y-53478201D01*
X109973676Y-53512702D01*
X109990982Y-53568791D01*
X110001827Y-53625760D01*
X110006269Y-53683111D01*
X110004366Y-53740346D01*
X109996177Y-53796968D01*
X109981761Y-53852478D01*
X109961176Y-53906378D01*
X109934480Y-53958171D01*
X109918287Y-53983979D01*
X109907220Y-53999234D01*
X109893042Y-54016847D01*
X109876921Y-54035542D01*
X109860023Y-54054045D01*
X109843513Y-54071082D01*
X109828558Y-54085377D01*
X109816324Y-54095655D01*
X109815708Y-54096112D01*
X109802090Y-54106113D01*
X109802011Y-54375315D01*
X109801933Y-54644517D01*
X110192838Y-54644517D01*
X110255350Y-54644523D01*
X110311598Y-54644551D01*
X110361985Y-54644613D01*
X110406913Y-54644724D01*
X110446786Y-54644897D01*
X110482006Y-54645144D01*
X110512978Y-54645479D01*
X110540102Y-54645916D01*
X110563784Y-54646468D01*
X110584425Y-54647148D01*
X110602429Y-54647970D01*
X110618199Y-54648947D01*
X110632138Y-54650092D01*
X110644649Y-54651419D01*
X110656135Y-54652941D01*
X110666999Y-54654672D01*
X110677644Y-54656624D01*
X110688472Y-54658812D01*
X110699888Y-54661247D01*
X110700270Y-54661330D01*
X110770045Y-54679784D01*
X110837034Y-54704210D01*
X110900957Y-54734401D01*
X110961536Y-54770153D01*
X111018493Y-54811260D01*
X111071548Y-54857514D01*
X111120423Y-54908710D01*
X111164838Y-54964643D01*
X111204515Y-55025105D01*
X111213378Y-55040404D01*
X111239364Y-55091779D01*
X111262111Y-55147798D01*
X111281147Y-55207038D01*
X111296002Y-55268078D01*
X111304177Y-55314605D01*
X111305111Y-55321654D01*
X111305945Y-55329560D01*
X111306686Y-55338745D01*
X111307343Y-55349629D01*
X111307924Y-55362636D01*
X111308436Y-55378187D01*
X111308887Y-55396703D01*
X111309286Y-55418607D01*
X111309640Y-55444320D01*
X111309958Y-55474263D01*
X111310246Y-55508860D01*
X111310514Y-55548531D01*
X111310769Y-55593698D01*
X111311018Y-55644784D01*
X111311214Y-55688821D01*
X111312656Y-56024698D01*
X111550213Y-56024698D01*
X111593522Y-56024731D01*
X111637996Y-56024825D01*
X111682685Y-56024976D01*
X111726639Y-56025177D01*
X111768907Y-56025423D01*
X111808540Y-56025708D01*
X111844587Y-56026026D01*
X111876097Y-56026372D01*
X111902120Y-56026741D01*
X111907497Y-56026833D01*
X112027225Y-56028967D01*
X112050025Y-56002126D01*
X112085112Y-55965436D01*
X112125355Y-55931504D01*
X112169521Y-55901171D01*
X112216379Y-55875277D01*
X112264698Y-55854664D01*
X112267389Y-55853694D01*
X112280458Y-55849456D01*
X112297598Y-55844487D01*
X112316365Y-55839473D01*
X112330730Y-55835932D01*
X112344724Y-55832737D01*
X112356699Y-55830361D01*
X112368058Y-55828682D01*
X112380202Y-55827583D01*
X112394531Y-55826944D01*
X112412447Y-55826645D01*
X112435351Y-55826567D01*
X112440612Y-55826568D01*
X112465771Y-55826673D01*
X112485615Y-55827032D01*
X112501494Y-55827740D01*
X112514757Y-55828893D01*
X112526756Y-55830588D01*
X112538841Y-55832920D01*
X112543154Y-55833863D01*
X112601565Y-55850090D01*
X112656644Y-55871826D01*
X112708103Y-55898854D01*
X112755653Y-55930957D01*
X112799004Y-55967917D01*
X112837867Y-56009517D01*
X112871954Y-56055539D01*
X112898758Y-56101424D01*
X112922790Y-56154755D01*
X112940776Y-56209785D01*
X112952599Y-56265880D01*
X112958144Y-56322406D01*
X112957296Y-56378730D01*
X112954430Y-56406682D01*
X112943501Y-56464847D01*
X112926612Y-56520478D01*
X112904022Y-56573212D01*
X112875987Y-56622684D01*
X112842765Y-56668532D01*
X112804612Y-56710391D01*
X112761787Y-56747899D01*
X112714545Y-56780690D01*
X112673976Y-56803169D01*
X112626081Y-56824676D01*
X112579563Y-56840596D01*
X112532828Y-56851311D01*
X112484284Y-56857203D01*
X112442279Y-56858703D01*
X112383431Y-56855606D01*
X112325930Y-56846158D01*
X112270250Y-56830508D01*
X112216864Y-56808807D01*
X112166246Y-56781205D01*
X112138040Y-56762333D01*
X112121607Y-56749550D01*
X112102570Y-56733196D01*
X112082588Y-56714828D01*
X112063317Y-56696003D01*
X112046418Y-56678277D01*
X112036916Y-56667392D01*
X112023891Y-56651666D01*
X111668011Y-56649375D01*
X111312131Y-56647085D01*
X111312131Y-57142117D01*
X111312131Y-57637150D01*
X111514657Y-57639360D01*
X111557201Y-57639789D01*
X111602836Y-57640186D01*
X111650216Y-57640543D01*
X111697993Y-57640852D01*
X111744818Y-57641105D01*
X111789345Y-57641294D01*
X111830225Y-57641412D01*
X111866111Y-57641451D01*
X111873871Y-57641448D01*
X112030558Y-57641324D01*
X112042227Y-57626175D01*
X112060630Y-57604901D01*
X112083804Y-57582228D01*
X112110355Y-57559297D01*
X112138887Y-57537247D01*
X112168006Y-57517220D01*
X112195580Y-57500757D01*
X112235036Y-57481946D01*
X112278495Y-57466066D01*
X112324316Y-57453482D01*
X112370858Y-57444563D01*
X112416480Y-57439673D01*
X112459540Y-57439180D01*
X112468862Y-57439724D01*
X112529275Y-57447247D01*
X112587083Y-57460775D01*
X112642059Y-57480204D01*
X112693973Y-57505429D01*
X112742596Y-57536345D01*
X112787700Y-57572847D01*
X112812630Y-57597026D01*
X112850966Y-57641398D01*
X112883625Y-57688973D01*
X112910505Y-57739301D01*
X112931506Y-57791928D01*
X112946525Y-57846403D01*
X112955462Y-57902272D01*
X112958215Y-57959086D01*
X112954682Y-58016390D01*
X112944763Y-58073733D01*
X112930698Y-58123788D01*
X112911548Y-58172847D01*
X112887757Y-58218463D01*
X112858740Y-58261564D01*
X112823912Y-58303077D01*
X112805882Y-58321794D01*
X112766824Y-58357784D01*
X112727335Y-58387935D01*
X112686162Y-58413023D01*
X112642057Y-58433826D01*
X112602369Y-58448382D01*
X112570342Y-58458074D01*
X112541137Y-58465070D01*
X112512524Y-58469714D01*
X112482272Y-58472352D01*
X112448151Y-58473327D01*
X112440612Y-58473353D01*
X112382321Y-58470534D01*
X112327000Y-58461943D01*
X112273989Y-58447381D01*
X112222629Y-58426645D01*
X112172259Y-58399537D01*
X112148905Y-58384647D01*
X112133572Y-58373493D01*
X112115828Y-58359147D01*
X112096982Y-58342809D01*
X112078344Y-58325683D01*
X112061224Y-58308969D01*
X112046932Y-58293869D01*
X112037226Y-58282193D01*
X112031047Y-58274567D01*
X112025319Y-58270295D01*
X112017563Y-58268117D01*
X112007222Y-58266946D01*
X112001126Y-58266684D01*
X111988842Y-58266411D01*
X111970850Y-58266130D01*
X111947627Y-58265846D01*
X111919654Y-58265562D01*
X111887410Y-58265283D01*
X111851375Y-58265013D01*
X111812026Y-58264755D01*
X111769845Y-58264514D01*
X111725309Y-58264293D01*
X111678899Y-58264096D01*
X111649675Y-58263989D01*
X111312131Y-58262829D01*
X111312131Y-58836780D01*
X111312131Y-59410731D01*
X111422689Y-59412937D01*
X111445028Y-59413310D01*
X111473161Y-59413660D01*
X111506216Y-59413984D01*
X111543321Y-59414275D01*
X111583603Y-59414528D01*
X111626189Y-59414738D01*
X111670206Y-59414901D01*
X111714782Y-59415010D01*
X111759045Y-59415061D01*
X111781903Y-59415063D01*
X112030558Y-59414983D01*
X112049798Y-59391787D01*
X112082920Y-59356544D01*
X112121328Y-59323851D01*
X112163918Y-59294348D01*
X112209587Y-59268675D01*
X112257232Y-59247474D01*
X112305750Y-59231385D01*
X112339545Y-59223526D01*
X112398913Y-59215424D01*
X112457221Y-59213901D01*
X112514569Y-59218967D01*
X112571060Y-59230639D01*
X112626795Y-59248928D01*
X112670642Y-59268205D01*
X112709014Y-59288840D01*
X112743786Y-59311709D01*
X112776909Y-59338219D01*
X112807373Y-59366803D01*
X112846377Y-59410072D01*
X112879427Y-59456139D01*
X112906748Y-59505396D01*
X112928564Y-59558238D01*
X112942241Y-59603501D01*
X112953454Y-59660069D01*
X112958195Y-59716960D01*
X112956608Y-59773660D01*
X112948837Y-59829654D01*
X112935023Y-59884430D01*
X112915311Y-59937471D01*
X112889844Y-59988266D01*
X112858766Y-60036299D01*
X112822218Y-60081057D01*
X112803783Y-60100233D01*
X112760132Y-60138749D01*
X112712592Y-60171859D01*
X112661208Y-60199537D01*
X112606030Y-60221759D01*
X112547105Y-60238499D01*
X112543154Y-60239395D01*
X112530738Y-60241962D01*
X112518861Y-60243860D01*
X112506173Y-60245184D01*
X112491323Y-60246031D01*
X112472962Y-60246497D01*
X112449738Y-60246676D01*
X112440612Y-60246690D01*
X112416545Y-60246641D01*
X112397744Y-60246395D01*
X112382811Y-60245832D01*
X112370344Y-60244833D01*
X112358945Y-60243280D01*
X112347212Y-60241052D01*
X112333745Y-60238032D01*
X112330854Y-60237353D01*
X112272335Y-60220511D01*
X112217917Y-60198480D01*
X112167378Y-60171150D01*
X112120497Y-60138408D01*
X112099837Y-60121271D01*
X112085795Y-60108335D01*
X112070616Y-60093262D01*
X112055752Y-60077595D01*
X112042656Y-60062875D01*
X112032780Y-60050645D01*
X112031080Y-60048292D01*
X112025867Y-60040849D01*
X111669239Y-60038870D01*
X111312612Y-60036891D01*
X111311214Y-60423609D01*
X111310992Y-60484804D01*
X111310780Y-60539744D01*
X111310561Y-60588841D01*
X111310317Y-60632507D01*
X111310031Y-60671153D01*
X111309684Y-60705193D01*
X111309260Y-60735037D01*
X111308741Y-60761099D01*
X111308109Y-60783789D01*
X111307347Y-60803521D01*
X111306437Y-60820707D01*
X111305362Y-60835758D01*
X111304103Y-60849086D01*
X111302644Y-60861104D01*
X111300967Y-60872224D01*
X111299055Y-60882858D01*
X111296889Y-60893417D01*
X111294452Y-60904315D01*
X111291727Y-60915962D01*
X111289901Y-60923674D01*
X111270198Y-60992770D01*
X111244612Y-61058989D01*
X111213401Y-61122034D01*
X111176822Y-61181608D01*
X111135134Y-61237413D01*
X111088595Y-61289154D01*
X111037463Y-61336531D01*
X110981996Y-61379249D01*
X110922452Y-61417010D01*
X110859090Y-61449517D01*
X110818114Y-61466859D01*
X110774456Y-61482122D01*
X110725951Y-61495843D01*
X110674337Y-61507538D01*
X110665379Y-61509290D01*
X110659265Y-61510437D01*
X110653342Y-61511459D01*
X110647202Y-61512365D01*
X110640439Y-61513164D01*
X110632645Y-61513863D01*
X110623415Y-61514472D01*
X110612340Y-61514999D01*
X110599016Y-61515453D01*
X110583033Y-61515842D01*
X110563987Y-61516175D01*
X110541470Y-61516461D01*
X110515075Y-61516707D01*
X110484396Y-61516923D01*
X110449025Y-61517118D01*
X110408556Y-61517299D01*
X110362582Y-61517476D01*
X110310697Y-61517657D01*
X110261159Y-61517821D01*
X109895278Y-61519027D01*
X109895404Y-61811428D01*
X109895531Y-62103829D01*
X109910638Y-62115497D01*
X109926507Y-62129087D01*
X109944639Y-62146790D01*
X109963684Y-62167118D01*
X109982295Y-62188580D01*
X109999122Y-62209685D01*
X110011487Y-62226933D01*
X110041794Y-62278047D01*
X110065853Y-62331152D01*
X110083633Y-62385829D01*
X110095105Y-62441661D01*
X110100238Y-62498232D01*
X110099001Y-62555124D01*
X110091364Y-62611920D01*
X110077297Y-62668203D01*
X110056769Y-62723555D01*
X110048859Y-62740943D01*
X110021153Y-62791542D01*
X109988195Y-62838305D01*
X109950405Y-62880899D01*
X109908203Y-62918994D01*
X109862007Y-62952259D01*
X109812240Y-62980362D01*
X109759318Y-63002973D01*
X109703664Y-63019760D01*
X109692132Y-63022413D01*
X109634913Y-63031540D01*
X109577434Y-63034135D01*
X109520181Y-63030291D01*
X109463637Y-63020102D01*
X109408287Y-63003661D01*
X109354615Y-62981062D01*
X109303106Y-62952399D01*
X109291866Y-62945124D01*
X109270133Y-62929125D01*
X109246403Y-62909006D01*
X109222111Y-62886200D01*
X109198693Y-62862139D01*
X109177583Y-62838253D01*
X109160216Y-62815973D01*
X109155460Y-62809079D01*
X109124394Y-62756443D01*
X109099580Y-62701591D01*
X109080869Y-62644169D01*
X109074470Y-62617722D01*
X109071788Y-62604378D01*
X109069831Y-62591701D01*
X109068491Y-62578242D01*
X109067662Y-62562548D01*
X109067239Y-62543167D01*
X109067115Y-62518649D01*
X109067115Y-62517217D01*
X109067560Y-62483972D01*
X109069080Y-62455521D01*
X109071948Y-62430036D01*
X109076440Y-62405690D01*
X109082831Y-62380657D01*
X109091396Y-62353110D01*
X109092157Y-62350822D01*
X109111259Y-62302702D01*
X109135791Y-62255688D01*
X109164926Y-62211003D01*
X109197840Y-62169868D01*
X109233707Y-62133504D01*
X109246324Y-62122532D01*
X109271863Y-62101229D01*
X109271863Y-61809991D01*
X109271863Y-61518752D01*
X108725125Y-61518752D01*
X108178386Y-61518752D01*
X108178386Y-61809991D01*
X108178386Y-62101229D01*
X108203925Y-62122532D01*
X108243961Y-62160219D01*
X108279750Y-62202784D01*
X108311010Y-62249744D01*
X108337460Y-62300616D01*
X108358815Y-62354918D01*
X108374794Y-62412164D01*
X108375727Y-62416373D01*
X108379660Y-62440405D01*
X108382282Y-62469113D01*
X108383592Y-62500640D01*
X108383592Y-62533124D01*
X108382280Y-62564706D01*
X108379657Y-62593527D01*
X108375724Y-62617722D01*
X108360096Y-62675324D01*
X108338790Y-62730002D01*
X108312030Y-62781323D01*
X108280042Y-62828855D01*
X108243801Y-62871383D01*
X108200016Y-62912694D01*
X108153385Y-62947979D01*
X108103873Y-62977253D01*
X108051445Y-63000533D01*
X107996066Y-63017836D01*
X107937703Y-63029178D01*
X107907686Y-63032593D01*
X107853217Y-63034144D01*
X107798103Y-63029427D01*
X107743179Y-63018672D01*
X107689283Y-63002113D01*
X107637250Y-62979981D01*
X107587918Y-62952507D01*
X107565975Y-62937867D01*
X107544543Y-62921256D01*
X107521188Y-62900639D01*
X107497544Y-62877650D01*
X107475245Y-62853923D01*
X107455923Y-62831091D01*
X107446029Y-62817920D01*
X107415077Y-62768498D01*
X107390143Y-62716809D01*
X107371217Y-62663354D01*
X107358286Y-62608634D01*
X107351341Y-62553148D01*
X107350370Y-62497397D01*
X107355363Y-62441881D01*
X107366308Y-62387102D01*
X107383194Y-62333558D01*
X107406011Y-62281751D01*
X107434747Y-62232182D01*
X107459612Y-62197496D01*
X107468177Y-62187189D01*
X107479228Y-62174854D01*
X107491883Y-62161369D01*
X107505260Y-62147613D01*
X107518478Y-62134465D01*
X107530654Y-62122802D01*
X107540907Y-62113504D01*
X107548356Y-62107448D01*
X107551965Y-62105496D01*
X107552456Y-62102224D01*
X107552915Y-62092656D01*
X107553338Y-62077163D01*
X107553720Y-62056115D01*
X107554059Y-62029885D01*
X107554351Y-61998843D01*
X107554591Y-61963361D01*
X107554776Y-61923809D01*
X107554901Y-61880560D01*
X107554964Y-61833983D01*
X107554971Y-61812124D01*
X107554971Y-61518752D01*
X107009899Y-61518752D01*
X106464828Y-61518752D01*
X106464828Y-61810673D01*
X106464828Y-62102593D01*
X106475663Y-62111448D01*
X106519257Y-62151211D01*
X106557600Y-62194713D01*
X106590557Y-62241494D01*
X106617992Y-62291094D01*
X106639769Y-62343055D01*
X106655754Y-62396916D01*
X106665811Y-62452219D01*
X106669804Y-62508502D01*
X106667599Y-62565308D01*
X106659061Y-62622175D01*
X106644053Y-62678646D01*
X106643329Y-62680848D01*
X106634092Y-62705349D01*
X106621835Y-62732888D01*
X106607670Y-62761272D01*
X106592707Y-62788304D01*
X106578058Y-62811790D01*
X106574343Y-62817178D01*
X106556991Y-62839532D01*
X106535612Y-62863691D01*
X106511872Y-62887990D01*
X106487434Y-62910762D01*
X106463967Y-62930342D01*
X106453082Y-62938439D01*
X106415914Y-62961966D01*
X106374498Y-62983355D01*
X106330951Y-63001688D01*
X106287393Y-63016048D01*
X106256467Y-63023564D01*
X106210964Y-63031043D01*
X106167825Y-63034390D01*
X106124303Y-63033756D01*
X106101476Y-63031986D01*
X106065655Y-63027073D01*
X106028576Y-63018938D01*
X105991432Y-63008181D01*
X105938275Y-62987834D01*
X105888043Y-62961713D01*
X105841142Y-62930216D01*
X105797980Y-62893744D01*
X105758961Y-62852695D01*
X105724493Y-62807468D01*
X105694981Y-62758462D01*
X105670832Y-62706078D01*
X105663282Y-62685761D01*
X105654216Y-62658307D01*
X105647381Y-62633799D01*
X105642496Y-62610448D01*
X105639278Y-62586469D01*
X105637444Y-62560072D01*
X105636713Y-62529471D01*
X105636665Y-62517217D01*
X105637110Y-62483972D01*
X105638630Y-62455521D01*
X105641498Y-62430036D01*
X105645990Y-62405690D01*
X105652381Y-62380657D01*
X105660945Y-62353110D01*
X105661707Y-62350822D01*
X105680809Y-62302702D01*
X105705341Y-62255688D01*
X105734476Y-62211003D01*
X105767390Y-62169868D01*
X105803257Y-62133504D01*
X105815874Y-62122532D01*
X105841413Y-62101229D01*
X105841413Y-61809991D01*
X105841413Y-61518752D01*
X105550521Y-61518752D01*
X105495735Y-61518737D01*
X105447131Y-61518677D01*
X105404220Y-61518553D01*
X105366517Y-61518344D01*
X105333534Y-61518031D01*
X105304785Y-61517593D01*
X105279784Y-61517010D01*
X105258043Y-61516262D01*
X105239076Y-61515330D01*
X105222396Y-61514192D01*
X105207516Y-61512830D01*
X105193950Y-61511222D01*
X105181211Y-61509348D01*
X105168812Y-61507190D01*
X105156267Y-61504726D01*
X105143099Y-61501939D01*
X105074765Y-61483804D01*
X105009015Y-61459727D01*
X104946171Y-61430012D01*
X104886554Y-61394963D01*
X104830487Y-61354885D01*
X104778292Y-61310082D01*
X104730291Y-61260858D01*
X104686807Y-61207518D01*
X104648161Y-61150366D01*
X104614676Y-61089707D01*
X104586674Y-61025845D01*
X104564478Y-60959085D01*
X104563038Y-60953904D01*
X104558696Y-60937850D01*
X104554823Y-60922836D01*
X104551390Y-60908401D01*
X104548372Y-60894085D01*
X104545741Y-60879426D01*
X104543471Y-60863966D01*
X104541536Y-60847243D01*
X104539908Y-60828796D01*
X104538560Y-60808165D01*
X104537467Y-60784890D01*
X104536601Y-60758510D01*
X104535935Y-60728564D01*
X104535444Y-60694593D01*
X104535099Y-60656135D01*
X104534875Y-60612729D01*
X104534744Y-60563916D01*
X104534680Y-60509235D01*
X104534661Y-60464989D01*
X104534575Y-60146322D01*
X104404012Y-60144114D01*
X104376187Y-60143706D01*
X104342792Y-60143323D01*
X104304925Y-60142971D01*
X104263682Y-60142657D01*
X104220162Y-60142389D01*
X104175461Y-60142173D01*
X104130678Y-60142016D01*
X104086908Y-60141925D01*
X104056183Y-60141905D01*
X103838918Y-60141905D01*
X103815864Y-60168966D01*
X103779837Y-60206470D01*
X103738685Y-60240776D01*
X103693471Y-60271176D01*
X103645254Y-60296965D01*
X103595095Y-60317435D01*
X103590824Y-60318890D01*
X103562629Y-60327714D01*
X103536686Y-60334272D01*
X103510931Y-60338915D01*
X103483302Y-60341992D01*
X103451737Y-60343850D01*
X103441098Y-60344226D01*
X103417608Y-60344812D01*
X103398900Y-60344864D01*
X103383103Y-60344284D01*
X103368344Y-60342971D01*
X103352753Y-60340829D01*
X103341514Y-60338984D01*
X103285026Y-60326128D01*
X103230605Y-60307375D01*
X103178855Y-60283060D01*
X103130381Y-60253513D01*
X103085787Y-60219070D01*
X103045679Y-60180061D01*
X103038667Y-60172221D01*
X103002498Y-60126055D01*
X102972270Y-60077442D01*
X102947932Y-60026833D01*
X102929431Y-59974683D01*
X102916715Y-59921446D01*
X102909730Y-59867575D01*
X102908425Y-59813524D01*
X102912747Y-59759747D01*
X102922644Y-59706697D01*
X102938062Y-59654829D01*
X102958950Y-59604595D01*
X102985255Y-59556450D01*
X103016924Y-59510848D01*
X103053905Y-59468241D01*
X103096146Y-59429084D01*
X103127465Y-59404932D01*
X103169386Y-59378482D01*
X103215792Y-59355533D01*
X103265165Y-59336679D01*
X103315990Y-59322514D01*
X103357097Y-59314899D01*
X103374173Y-59313289D01*
X103395894Y-59312446D01*
X103420593Y-59312322D01*
X103446604Y-59312865D01*
X103472260Y-59314024D01*
X103495896Y-59315751D01*
X103515844Y-59317993D01*
X103527776Y-59320068D01*
X103550693Y-59325857D01*
X103576410Y-59333576D01*
X103602809Y-59342494D01*
X103627776Y-59351880D01*
X103649192Y-59361003D01*
X103656500Y-59364521D01*
X103696153Y-59386946D01*
X103735067Y-59413567D01*
X103771595Y-59443096D01*
X103804092Y-59474246D01*
X103820781Y-59492951D01*
X103842083Y-59518490D01*
X104188329Y-59518490D01*
X104534575Y-59518490D01*
X104534575Y-58958962D01*
X104534575Y-58399435D01*
X104347050Y-58397225D01*
X104305876Y-58396776D01*
X104261523Y-58396358D01*
X104215415Y-58395980D01*
X104168978Y-58395650D01*
X104123635Y-58395380D01*
X104080812Y-58395177D01*
X104041933Y-58395051D01*
X104011137Y-58395012D01*
X103862749Y-58395009D01*
X103847955Y-58413549D01*
X103817219Y-58447575D01*
X103781117Y-58479817D01*
X103740880Y-58509443D01*
X103697740Y-58535618D01*
X103652931Y-58557510D01*
X103612570Y-58572739D01*
X103588193Y-58580374D01*
X103567306Y-58586215D01*
X103548319Y-58590493D01*
X103529638Y-58593437D01*
X103509672Y-58595277D01*
X103486829Y-58596245D01*
X103459516Y-58596571D01*
X103447765Y-58596574D01*
X103423209Y-58596467D01*
X103403974Y-58596172D01*
X103388714Y-58595579D01*
X103376085Y-58594578D01*
X103364740Y-58593061D01*
X103353335Y-58590918D01*
X103340522Y-58588039D01*
X103339255Y-58587740D01*
X103281165Y-58570791D01*
X103226521Y-58548310D01*
X103175580Y-58520499D01*
X103128599Y-58487559D01*
X103085837Y-58449690D01*
X103047550Y-58407095D01*
X103013996Y-58359972D01*
X102987794Y-58313332D01*
X102971576Y-58278407D01*
X102958999Y-58245648D01*
X102949109Y-58212391D01*
X102944171Y-58191563D01*
X102935144Y-58134991D01*
X105157946Y-58134991D01*
X105157950Y-58251205D01*
X105157959Y-58367138D01*
X105157974Y-58482595D01*
X105157994Y-58597384D01*
X105158020Y-58711313D01*
X105158052Y-58824187D01*
X105158089Y-58935814D01*
X105158131Y-59046001D01*
X105158179Y-59154555D01*
X105158233Y-59261282D01*
X105158292Y-59365990D01*
X105158357Y-59468485D01*
X105158427Y-59568576D01*
X105158503Y-59666067D01*
X105158585Y-59760768D01*
X105158672Y-59852483D01*
X105158764Y-59941022D01*
X105158862Y-60026189D01*
X105158966Y-60107793D01*
X105159075Y-60185640D01*
X105159190Y-60259538D01*
X105159311Y-60329292D01*
X105159437Y-60394711D01*
X105159568Y-60455601D01*
X105159705Y-60511769D01*
X105159848Y-60563022D01*
X105159996Y-60609168D01*
X105160150Y-60650012D01*
X105160310Y-60685362D01*
X105160475Y-60715025D01*
X105160646Y-60738807D01*
X105160822Y-60756517D01*
X105161004Y-60767960D01*
X105161191Y-60772944D01*
X105161206Y-60773057D01*
X105169217Y-60801956D01*
X105183414Y-60828439D01*
X105199529Y-60848241D01*
X105222179Y-60868271D01*
X105246700Y-60882450D01*
X105268353Y-60890061D01*
X105270062Y-60890357D01*
X105273034Y-60890641D01*
X105277402Y-60890913D01*
X105283298Y-60891173D01*
X105290854Y-60891423D01*
X105300202Y-60891661D01*
X105311475Y-60891889D01*
X105324805Y-60892106D01*
X105340325Y-60892314D01*
X105358166Y-60892511D01*
X105378461Y-60892699D01*
X105401343Y-60892878D01*
X105426943Y-60893047D01*
X105455394Y-60893207D01*
X105486828Y-60893359D01*
X105521377Y-60893503D01*
X105559174Y-60893638D01*
X105600352Y-60893765D01*
X105645041Y-60893885D01*
X105693375Y-60893998D01*
X105745486Y-60894103D01*
X105801507Y-60894202D01*
X105861569Y-60894294D01*
X105925804Y-60894379D01*
X105994346Y-60894459D01*
X106067326Y-60894532D01*
X106144877Y-60894600D01*
X106227131Y-60894663D01*
X106314220Y-60894720D01*
X106406276Y-60894773D01*
X106503433Y-60894821D01*
X106605821Y-60894865D01*
X106713575Y-60894905D01*
X106826824Y-60894941D01*
X106945703Y-60894973D01*
X107070344Y-60895002D01*
X107200878Y-60895028D01*
X107337438Y-60895051D01*
X107480156Y-60895071D01*
X107629164Y-60895089D01*
X107784596Y-60895106D01*
X107921819Y-60895118D01*
X108082017Y-60895130D01*
X108235682Y-60895140D01*
X108382950Y-60895147D01*
X108523955Y-60895152D01*
X108658832Y-60895153D01*
X108787716Y-60895150D01*
X108910742Y-60895144D01*
X109028046Y-60895134D01*
X109139761Y-60895119D01*
X109246023Y-60895100D01*
X109346967Y-60895076D01*
X109442728Y-60895048D01*
X109533440Y-60895014D01*
X109619239Y-60894974D01*
X109700260Y-60894929D01*
X109776637Y-60894878D01*
X109848506Y-60894821D01*
X109916001Y-60894757D01*
X109979257Y-60894686D01*
X110038409Y-60894608D01*
X110093593Y-60894523D01*
X110144943Y-60894431D01*
X110192594Y-60894331D01*
X110236681Y-60894223D01*
X110277339Y-60894106D01*
X110314702Y-60893981D01*
X110348907Y-60893848D01*
X110380087Y-60893705D01*
X110408378Y-60893553D01*
X110433914Y-60893392D01*
X110456831Y-60893221D01*
X110477264Y-60893040D01*
X110495347Y-60892848D01*
X110511215Y-60892647D01*
X110525004Y-60892434D01*
X110536848Y-60892210D01*
X110546882Y-60891976D01*
X110555241Y-60891729D01*
X110562060Y-60891471D01*
X110567474Y-60891201D01*
X110571618Y-60890919D01*
X110574627Y-60890624D01*
X110576636Y-60890316D01*
X110577167Y-60890195D01*
X110605290Y-60879549D01*
X110630493Y-60863142D01*
X110652215Y-60841449D01*
X110669893Y-60814946D01*
X110672811Y-60809279D01*
X110683715Y-60787130D01*
X110683715Y-58081635D01*
X110683715Y-55376139D01*
X110672307Y-55352873D01*
X110656629Y-55327737D01*
X110636369Y-55305986D01*
X110612659Y-55288507D01*
X110586630Y-55276184D01*
X110567832Y-55271136D01*
X110562627Y-55270799D01*
X110550863Y-55270484D01*
X110532647Y-55270193D01*
X110508086Y-55269926D01*
X110477290Y-55269682D01*
X110440365Y-55269462D01*
X110397420Y-55269267D01*
X110348562Y-55269096D01*
X110293899Y-55268950D01*
X110233539Y-55268829D01*
X110167590Y-55268734D01*
X110096160Y-55268664D01*
X110019356Y-55268620D01*
X109937286Y-55268602D01*
X109850059Y-55268611D01*
X109757781Y-55268646D01*
X109660562Y-55268708D01*
X109603903Y-55268755D01*
X108657442Y-55269599D01*
X108695451Y-55285975D01*
X108786788Y-55328601D01*
X108877617Y-55377404D01*
X108967313Y-55431896D01*
X109055249Y-55491589D01*
X109140801Y-55555994D01*
X109223344Y-55624623D01*
X109302253Y-55696986D01*
X109376902Y-55772595D01*
X109446667Y-55850961D01*
X109495485Y-55911350D01*
X109561705Y-56002278D01*
X109622272Y-56096536D01*
X109677070Y-56193850D01*
X109725981Y-56293948D01*
X109768891Y-56396557D01*
X109805682Y-56501403D01*
X109836240Y-56608213D01*
X109860447Y-56716716D01*
X109874958Y-56803133D01*
X109887155Y-56908241D01*
X109893553Y-57014051D01*
X109894132Y-57120927D01*
X109888869Y-57229233D01*
X109877742Y-57339335D01*
X109860731Y-57451597D01*
X109837814Y-57566383D01*
X109826951Y-57613240D01*
X109798996Y-57721743D01*
X109768605Y-57824787D01*
X109735428Y-57923247D01*
X109699117Y-58017997D01*
X109659324Y-58109911D01*
X109615699Y-58199863D01*
X109567894Y-58288727D01*
X109534421Y-58346307D01*
X109521161Y-58368229D01*
X109507896Y-58389602D01*
X109494073Y-58411258D01*
X109479139Y-58434028D01*
X109462541Y-58458744D01*
X109443726Y-58486239D01*
X109422139Y-58517345D01*
X109397229Y-58552895D01*
X109393967Y-58557530D01*
X109337072Y-58638374D01*
X107931787Y-58638305D01*
X106526503Y-58638235D01*
X106449826Y-58567182D01*
X106396799Y-58516843D01*
X106348635Y-58468492D01*
X106304305Y-58421000D01*
X106262777Y-58373238D01*
X106223023Y-58324075D01*
X106197020Y-58289995D01*
X106133561Y-58199564D01*
X106076237Y-58106518D01*
X106025046Y-58010858D01*
X105979989Y-57912585D01*
X105941066Y-57811700D01*
X105908279Y-57708205D01*
X105881627Y-57602100D01*
X105861111Y-57493387D01*
X105850960Y-57420435D01*
X105848283Y-57393396D01*
X105846021Y-57361105D01*
X105844201Y-57324968D01*
X105842852Y-57286391D01*
X105842002Y-57246778D01*
X105841888Y-57232847D01*
X106466329Y-57232847D01*
X106466735Y-57267439D01*
X106467695Y-57300171D01*
X106469209Y-57329675D01*
X106471279Y-57354584D01*
X106472520Y-57364874D01*
X106487236Y-57451093D01*
X106507135Y-57533495D01*
X106532439Y-57612717D01*
X106563371Y-57689395D01*
X106600151Y-57764168D01*
X106629779Y-57816184D01*
X106649632Y-57847806D01*
X106671819Y-57880799D01*
X106695269Y-57913703D01*
X106718911Y-57945057D01*
X106741673Y-57973400D01*
X106762485Y-57997270D01*
X106762582Y-57997375D01*
X106775718Y-58011625D01*
X107891850Y-58011625D01*
X109007983Y-58011625D01*
X109030095Y-57971746D01*
X109063495Y-57908865D01*
X109093821Y-57846016D01*
X109121471Y-57782145D01*
X109146841Y-57716197D01*
X109170331Y-57647117D01*
X109192338Y-57573849D01*
X109213260Y-57495338D01*
X109219964Y-57468221D01*
X109241688Y-57367464D01*
X109257280Y-57269203D01*
X109266738Y-57173301D01*
X109270054Y-57079621D01*
X109267224Y-56988025D01*
X109258243Y-56898375D01*
X109243106Y-56810535D01*
X109221807Y-56724367D01*
X109194342Y-56639733D01*
X109188157Y-56623106D01*
X109177297Y-56596273D01*
X109163755Y-56565546D01*
X109148375Y-56532652D01*
X109132003Y-56499319D01*
X109115485Y-56467272D01*
X109099667Y-56438238D01*
X109086985Y-56416531D01*
X109036545Y-56340197D01*
X108980224Y-56266661D01*
X108918324Y-56196223D01*
X108851147Y-56129183D01*
X108778994Y-56065843D01*
X108702167Y-56006504D01*
X108620969Y-55951467D01*
X108619629Y-55950619D01*
X108540628Y-55904560D01*
X108458927Y-55864542D01*
X108374727Y-55830601D01*
X108288227Y-55802774D01*
X108199626Y-55781098D01*
X108109124Y-55765609D01*
X108016921Y-55756343D01*
X107923216Y-55753336D01*
X107828208Y-55756627D01*
X107732098Y-55766250D01*
X107666652Y-55776352D01*
X107571006Y-55796486D01*
X107478051Y-55822683D01*
X107387940Y-55854858D01*
X107300824Y-55892927D01*
X107216853Y-55936803D01*
X107136178Y-55986404D01*
X107058950Y-56041644D01*
X106985320Y-56102437D01*
X106915439Y-56168701D01*
X106857933Y-56230592D01*
X106796477Y-56305536D01*
X106739301Y-56385041D01*
X106686678Y-56468509D01*
X106638882Y-56555336D01*
X106596183Y-56644923D01*
X106558856Y-56736669D01*
X106527173Y-56829973D01*
X106501406Y-56924235D01*
X106481828Y-57018852D01*
X106472605Y-57079836D01*
X106470244Y-57103222D01*
X106468436Y-57131582D01*
X106467180Y-57163552D01*
X106466478Y-57197762D01*
X106466329Y-57232847D01*
X105841888Y-57232847D01*
X105841680Y-57207534D01*
X105841913Y-57170066D01*
X105842729Y-57135777D01*
X105844159Y-57106073D01*
X105844519Y-57100824D01*
X105856170Y-56985931D01*
X105874266Y-56872598D01*
X105898778Y-56760977D01*
X105916530Y-56694976D01*
X105953338Y-56578163D01*
X105995554Y-56464494D01*
X106043032Y-56354160D01*
X106095628Y-56247353D01*
X106153196Y-56144265D01*
X106215592Y-56045086D01*
X106282669Y-55950009D01*
X106354283Y-55859225D01*
X106430289Y-55772926D01*
X106510541Y-55691303D01*
X106594895Y-55614548D01*
X106683205Y-55542852D01*
X106775325Y-55476407D01*
X106871112Y-55415405D01*
X106898218Y-55399527D01*
X106923817Y-55385254D01*
X106953378Y-55369513D01*
X106985439Y-55353026D01*
X107018535Y-55336517D01*
X107051201Y-55320710D01*
X107081973Y-55306328D01*
X107109386Y-55294094D01*
X107124651Y-55287662D01*
X107168892Y-55269599D01*
X106230950Y-55268731D01*
X106126625Y-55268645D01*
X106028868Y-55268583D01*
X105937580Y-55268548D01*
X105852659Y-55268538D01*
X105774008Y-55268555D01*
X105701526Y-55268598D01*
X105635114Y-55268668D01*
X105574671Y-55268766D01*
X105520098Y-55268891D01*
X105471297Y-55269044D01*
X105428165Y-55269224D01*
X105390606Y-55269433D01*
X105358517Y-55269671D01*
X105331801Y-55269938D01*
X105310357Y-55270234D01*
X105294085Y-55270559D01*
X105282887Y-55270914D01*
X105276661Y-55271299D01*
X105275607Y-55271447D01*
X105248230Y-55280333D01*
X105222993Y-55294783D01*
X105200788Y-55313873D01*
X105182506Y-55336681D01*
X105169040Y-55362283D01*
X105161281Y-55389757D01*
X105161276Y-55389785D01*
X105161088Y-55394252D01*
X105160905Y-55405193D01*
X105160728Y-55422416D01*
X105160556Y-55445727D01*
X105160390Y-55474934D01*
X105160229Y-55509843D01*
X105160074Y-55550261D01*
X105159924Y-55595995D01*
X105159779Y-55646853D01*
X105159640Y-55702641D01*
X105159507Y-55763166D01*
X105159378Y-55828235D01*
X105159256Y-55897655D01*
X105159139Y-55971233D01*
X105159027Y-56048776D01*
X105158921Y-56130090D01*
X105158820Y-56214984D01*
X105158725Y-56303264D01*
X105158635Y-56394736D01*
X105158551Y-56489208D01*
X105158472Y-56586487D01*
X105158398Y-56686379D01*
X105158331Y-56788692D01*
X105158268Y-56893233D01*
X105158211Y-56999808D01*
X105158160Y-57108225D01*
X105158114Y-57218290D01*
X105158074Y-57329811D01*
X105158039Y-57442594D01*
X105158010Y-57556446D01*
X105157986Y-57671174D01*
X105157968Y-57786586D01*
X105157955Y-57902488D01*
X105157948Y-58018687D01*
X105157946Y-58134991D01*
X102935144Y-58134991D01*
X102935033Y-58134298D01*
X102932403Y-58076744D01*
X102936174Y-58019464D01*
X102946239Y-57963019D01*
X102962492Y-57907971D01*
X102984828Y-57854881D01*
X103013140Y-57804312D01*
X103019159Y-57795074D01*
X103054549Y-57747881D01*
X103094386Y-57705557D01*
X103138354Y-57668307D01*
X103186137Y-57636334D01*
X103237418Y-57609844D01*
X103291882Y-57589040D01*
X103349211Y-57574127D01*
X103366088Y-57570975D01*
X103397481Y-57567084D01*
X103432487Y-57565252D01*
X103469009Y-57565424D01*
X103504952Y-57567546D01*
X103538218Y-57571563D01*
X103561114Y-57576014D01*
X103619983Y-57593124D01*
X103674792Y-57615515D01*
X103725580Y-57643210D01*
X103772390Y-57676235D01*
X103815260Y-57714613D01*
X103840408Y-57741717D01*
X103866154Y-57771494D01*
X104195091Y-57771544D01*
X104241435Y-57771571D01*
X104285940Y-57771636D01*
X104328148Y-57771737D01*
X104367599Y-57771870D01*
X104403834Y-57772032D01*
X104436395Y-57772221D01*
X104464822Y-57772434D01*
X104488656Y-57772668D01*
X104507439Y-57772920D01*
X104520712Y-57773188D01*
X104528015Y-57773468D01*
X104529301Y-57773617D01*
X104529979Y-57773460D01*
X104530596Y-57772251D01*
X104531156Y-57769699D01*
X104531661Y-57765513D01*
X104532115Y-57759403D01*
X104532519Y-57751078D01*
X104532878Y-57740248D01*
X104533192Y-57726621D01*
X104533466Y-57709907D01*
X104533702Y-57689816D01*
X104533903Y-57666056D01*
X104534071Y-57638336D01*
X104534209Y-57606367D01*
X104534321Y-57569857D01*
X104534408Y-57528516D01*
X104534473Y-57482053D01*
X104534520Y-57430177D01*
X104534550Y-57372597D01*
X104534568Y-57309023D01*
X104534574Y-57239164D01*
X104534575Y-57215736D01*
X104534575Y-56655830D01*
X104477067Y-56653649D01*
X104464689Y-56653308D01*
X104446276Y-56652984D01*
X104422460Y-56652681D01*
X104393874Y-56652401D01*
X104361150Y-56652151D01*
X104324920Y-56651933D01*
X104285817Y-56651751D01*
X104244473Y-56651611D01*
X104201521Y-56651516D01*
X104157592Y-56651470D01*
X104141190Y-56651466D01*
X103862820Y-56651465D01*
X103840479Y-56677889D01*
X103805233Y-56714823D01*
X103764802Y-56748751D01*
X103720262Y-56778955D01*
X103672690Y-56804716D01*
X103623165Y-56825318D01*
X103615207Y-56828062D01*
X103589233Y-56836366D01*
X103566285Y-56842646D01*
X103544630Y-56847166D01*
X103522538Y-56850188D01*
X103498278Y-56851973D01*
X103470120Y-56852783D01*
X103451099Y-56852910D01*
X103426200Y-56852838D01*
X103406563Y-56852491D01*
X103390785Y-56851769D01*
X103377463Y-56850572D01*
X103365193Y-56848800D01*
X103352571Y-56846353D01*
X103349204Y-56845625D01*
X103292656Y-56830608D01*
X103240721Y-56811214D01*
X103192648Y-56787028D01*
X103147688Y-56757638D01*
X103105090Y-56722628D01*
X103077004Y-56695311D01*
X103038950Y-56651241D01*
X103006458Y-56603792D01*
X102979666Y-56553456D01*
X102958715Y-56500722D01*
X102943743Y-56446081D01*
X102934889Y-56390021D01*
X102932294Y-56333033D01*
X102936096Y-56275607D01*
X102944171Y-56228144D01*
X102959724Y-56171998D01*
X102981099Y-56118620D01*
X103007952Y-56068393D01*
X103039938Y-56021702D01*
X103076715Y-55978932D01*
X103117937Y-55940468D01*
X103163262Y-55906694D01*
X103212345Y-55877996D01*
X103264842Y-55854756D01*
X103284036Y-55847958D01*
X103316439Y-55837957D01*
X103345907Y-55830676D01*
X103375295Y-55825527D01*
X103407457Y-55821925D01*
X103412810Y-55821473D01*
X103468550Y-55820227D01*
X103524518Y-55825392D01*
X103580013Y-55836777D01*
X103634332Y-55854189D01*
X103686772Y-55877438D01*
X103736632Y-55906332D01*
X103745333Y-55912154D01*
X103764270Y-55926165D01*
X103784959Y-55943252D01*
X103805841Y-55961978D01*
X103825360Y-55980909D01*
X103841957Y-55998611D01*
X103850987Y-56009483D01*
X103865298Y-56028032D01*
X104199778Y-56028032D01*
X104534259Y-56028032D01*
X104535467Y-55682153D01*
X104535673Y-55625727D01*
X104535879Y-55575556D01*
X104536092Y-55531231D01*
X104536320Y-55492340D01*
X104536570Y-55458472D01*
X104536849Y-55429215D01*
X104537166Y-55404159D01*
X104537528Y-55382892D01*
X104537942Y-55365003D01*
X104538416Y-55350081D01*
X104538956Y-55337714D01*
X104539572Y-55327492D01*
X104540269Y-55319003D01*
X104541057Y-55311836D01*
X104541941Y-55305581D01*
X104542376Y-55302937D01*
X104557908Y-55229519D01*
X104578769Y-55160037D01*
X104605057Y-55094291D01*
X104636871Y-55032083D01*
X104674308Y-54973214D01*
X104717466Y-54917485D01*
X104750461Y-54880939D01*
X104802005Y-54831703D01*
X104856876Y-54788145D01*
X104915194Y-54750202D01*
X104977079Y-54717812D01*
X105042650Y-54690911D01*
X105112027Y-54669436D01*
X105182993Y-54653746D01*
X105189951Y-54652516D01*
X105196701Y-54651431D01*
X105203698Y-54650481D01*
X105211394Y-54649654D01*
X105220244Y-54648939D01*
X105230701Y-54648326D01*
X105243218Y-54647804D01*
X105258249Y-54647361D01*
X105276248Y-54646987D01*
X105297667Y-54646671D01*
X105322960Y-54646402D01*
X105352581Y-54646170D01*
X105386984Y-54645962D01*
X105426621Y-54645769D01*
X105471947Y-54645579D01*
X105523415Y-54645382D01*
X105532206Y-54645349D01*
X105841413Y-54644197D01*
X105841413Y-54376571D01*
X105841413Y-54108944D01*
X105820136Y-54091681D01*
X105779610Y-54054550D01*
X105743342Y-54012525D01*
X105711598Y-53966055D01*
X105684644Y-53915586D01*
X105662745Y-53861566D01*
X105646167Y-53804442D01*
X105644135Y-53795540D01*
X105640709Y-53774962D01*
X105638220Y-53749684D01*
X105636684Y-53721414D01*
X105636116Y-53691860D01*
X105636532Y-53662728D01*
X105637947Y-53635726D01*
X105640378Y-53612562D01*
X105642365Y-53601047D01*
X105656565Y-53545950D01*
X105675498Y-53493988D01*
X105689789Y-53462695D01*
X105718074Y-53412563D01*
X105751500Y-53366428D01*
X105789671Y-53324573D01*
X105832190Y-53287281D01*
X105878660Y-53254836D01*
X105928685Y-53227521D01*
X105981867Y-53205621D01*
X106037811Y-53189418D01*
X106084325Y-53180743D01*
X106107197Y-53178592D01*
X106134594Y-53177755D01*
X106164555Y-53178146D01*
X106195119Y-53179677D01*
X106224327Y-53182261D01*
X106250220Y-53185811D01*
X106265014Y-53188753D01*
X106322296Y-53205497D01*
X106376258Y-53227848D01*
X106426616Y-53255476D01*
X106473082Y-53288051D01*
X106515372Y-53325245D01*
X106553198Y-53366727D01*
X106586275Y-53412168D01*
X106614316Y-53461240D01*
X106637036Y-53513613D01*
X106654148Y-53568956D01*
X106665367Y-53626942D01*
X106668353Y-53653109D01*
X106670026Y-53707959D01*
X106665353Y-53763358D01*
X106654529Y-53818561D01*
X106637750Y-53872826D01*
X106615211Y-53925409D01*
X106587107Y-53975567D01*
X106581232Y-53984644D01*
X106567719Y-54003308D01*
X106550506Y-54023897D01*
X106528943Y-54047160D01*
X106512621Y-54063736D01*
X106464828Y-54111371D01*
X106464828Y-54377944D01*
X106464828Y-54644517D01*
X107009899Y-54644517D01*
X107554971Y-54644517D01*
X107554892Y-54351978D01*
X107554813Y-54059440D01*
X107541195Y-54049439D01*
X107529169Y-54039447D01*
X107514350Y-54025362D01*
X107497905Y-54008460D01*
X107480999Y-53990014D01*
X107464797Y-53971297D01*
X107450464Y-53953584D01*
X107439168Y-53938148D01*
X107438601Y-53937306D01*
X107408426Y-53886379D01*
X107384453Y-53833367D01*
X107366715Y-53778710D01*
X107355243Y-53722847D01*
X107350069Y-53666220D01*
X107351225Y-53609266D01*
X107358743Y-53552428D01*
X107372653Y-53496144D01*
X107392990Y-53440855D01*
X107401390Y-53422326D01*
X107428926Y-53371986D01*
X107461447Y-53325724D01*
X107498493Y-53283767D01*
X107539607Y-53246343D01*
X107584329Y-53213679D01*
X107632200Y-53186003D01*
X107682762Y-53163542D01*
X107735557Y-53146523D01*
X107790124Y-53135174D01*
X107846006Y-53129723D01*
X107902743Y-53130397D01*
G37*
D10*
%TO.C,U7*%
X175718099Y-100175299D02*
X175718099Y-101724699D01*
X178181899Y-101724699D02*
X178181899Y-100175299D01*
X175701599Y-102469999D02*
G75*
G02*
X175498399Y-102469999I-101600J0D01*
G01*
X175498399Y-102469999D02*
G75*
G02*
X175701599Y-102469999I101600J0D01*
G01*
D13*
%TO.C,C58*%
X159809510Y-92600637D02*
X160332016Y-92600637D01*
X159809510Y-94070637D02*
X160332016Y-94070637D01*
%TO.C,C62*%
X152595761Y-96477418D02*
X152595761Y-96769952D01*
X153615761Y-96477418D02*
X153615761Y-96769952D01*
%TO.C,C12*%
X164585949Y-75442802D02*
X164792802Y-75235949D01*
X165307198Y-76164051D02*
X165514051Y-75957198D01*
%TO.C,C9*%
X151635949Y-61467802D02*
X151842802Y-61260949D01*
X152357198Y-62189051D02*
X152564051Y-61982198D01*
%TO.C,R11*%
X178854724Y-94352500D02*
X178345276Y-94352500D01*
X178854724Y-95397500D02*
X178345276Y-95397500D01*
%TO.C,USER*%
X149495000Y-104750000D02*
X149525000Y-104750000D01*
X149495000Y-111210000D02*
X149495000Y-104750000D01*
X149525000Y-111210000D02*
X149495000Y-111210000D01*
X151425000Y-104750000D02*
X154025000Y-104750000D01*
X151425000Y-111210000D02*
X154025000Y-111210000D01*
X155955000Y-104750000D02*
X155925000Y-104750000D01*
X155955000Y-111210000D02*
X155925000Y-111210000D01*
X155955000Y-111210000D02*
X155955000Y-104750000D01*
%TO.C,R3*%
X98977500Y-79179724D02*
X98977500Y-78670276D01*
X100022500Y-79179724D02*
X100022500Y-78670276D01*
%TO.C,R23*%
X126725420Y-111310654D02*
X127085654Y-110950420D01*
X127464346Y-112049580D02*
X127824580Y-111689346D01*
D14*
%TO.C,RN4*%
X147953769Y-58414125D02*
X149226562Y-57141332D01*
X151630725Y-59545495D02*
X150357932Y-60818288D01*
D11*
X147488084Y-59262653D02*
G75*
G02*
X147288084Y-59262653I-100000J0D01*
G01*
X147288084Y-59262653D02*
G75*
G02*
X147488084Y-59262653I100000J0D01*
G01*
D13*
%TO.C,C26*%
X165653733Y-84665000D02*
X165946267Y-84665000D01*
X165653733Y-85685000D02*
X165946267Y-85685000D01*
%TO.C,R25*%
X115735654Y-105525420D02*
X115375420Y-105885654D01*
X116474580Y-106264346D02*
X116114346Y-106624580D01*
%TO.C,3V3*%
X158150000Y-100725000D02*
X159550000Y-100725000D01*
X158150000Y-102125000D02*
X158150000Y-100725000D01*
X159550000Y-100725000D02*
X159550000Y-102125000D01*
X159550000Y-102125000D02*
X158150000Y-102125000D01*
%TO.C,R13*%
X180150420Y-101639346D02*
X180510654Y-101999580D01*
X180889346Y-100900420D02*
X181249580Y-101260654D01*
D10*
%TO.C,SW1*%
X98573736Y-90032263D02*
X103961890Y-95420417D01*
X99781826Y-88824174D02*
X98573736Y-90032263D01*
X101577877Y-87028122D02*
X101137354Y-87468646D01*
X103373928Y-85232071D02*
X102933405Y-85672594D01*
X103961890Y-95420417D02*
X105169980Y-94212327D01*
X105169980Y-83436020D02*
X104729456Y-83876543D01*
X106525508Y-92856799D02*
X106966031Y-92416276D01*
X106966031Y-81639969D02*
X106525508Y-82080492D01*
X108321559Y-91060748D02*
X108762082Y-90620225D01*
X108762082Y-79843917D02*
X108321559Y-80284441D01*
X110117610Y-89264697D02*
X110558133Y-88824174D01*
X110558133Y-78047866D02*
X110117610Y-78488389D01*
X111913661Y-87468646D02*
X112354185Y-87028122D01*
X112354185Y-76251815D02*
X111913661Y-76692338D01*
X113709713Y-85672594D02*
X114150236Y-85232071D01*
X114125744Y-74480256D02*
X113709713Y-74896287D01*
X115505764Y-83876543D02*
X115946287Y-83436020D01*
X116713854Y-71892146D02*
X115530256Y-73075744D01*
X117301815Y-82080492D02*
X117742338Y-81639969D01*
X119097866Y-80284441D02*
X119538389Y-79843917D01*
X120893917Y-78488389D02*
X122102007Y-77280300D01*
X122102007Y-77280300D02*
X116713854Y-71892146D01*
D13*
%TO.C,C56*%
X156265219Y-93868620D02*
X156557753Y-93868620D01*
X156265219Y-94888620D02*
X156557753Y-94888620D01*
%TO.C,R54*%
X161525420Y-71535654D02*
X161885654Y-71175420D01*
X162264346Y-72274580D02*
X162624580Y-71914346D01*
D14*
%TO.C,RTC1*%
X154157653Y-99285474D02*
X154917653Y-99285474D01*
X154157653Y-100785476D02*
X154917653Y-100785476D01*
D10*
%TO.C,U11*%
X167575299Y-101356899D02*
X169124699Y-101356899D01*
X169124699Y-98893099D02*
X167575299Y-98893099D01*
X166931599Y-98774999D02*
G75*
G02*
X166728399Y-98774999I-101600J0D01*
G01*
X166728399Y-98774999D02*
G75*
G02*
X166931599Y-98774999I101600J0D01*
G01*
D13*
%TO.C,D6*%
X127490835Y-64755282D02*
X127169718Y-64434165D01*
X128530282Y-63715835D02*
X128209165Y-63394718D01*
%TO.C,R2*%
X98927500Y-83129724D02*
X98927500Y-82620276D01*
X99972500Y-83129724D02*
X99972500Y-82620276D01*
D11*
%TO.C,MainClock1*%
X162804736Y-91627095D02*
G75*
G02*
X162604736Y-91627095I-100000J0D01*
G01*
X162604736Y-91627095D02*
G75*
G02*
X162804736Y-91627095I100000J0D01*
G01*
D13*
%TO.C,C23*%
X197815000Y-89116232D02*
X197815000Y-89408766D01*
X198835000Y-89116232D02*
X198835000Y-89408766D01*
%TO.C,C59*%
X163353964Y-86603099D02*
X163646498Y-86603099D01*
X163353964Y-87623099D02*
X163646498Y-87623099D01*
%TO.C,C61*%
X154257462Y-96795616D02*
X154257462Y-97088150D01*
X155277462Y-96795616D02*
X155277462Y-97088150D01*
%TO.C,C31*%
X138352874Y-66434657D02*
X138146021Y-66227804D01*
X139074123Y-65713408D02*
X138867270Y-65506555D01*
%TO.C,C3*%
X134516821Y-89884060D02*
X134309968Y-90090913D01*
X135238070Y-90605309D02*
X135031217Y-90812162D01*
%TO.C,C41*%
X175785949Y-105882198D02*
X175992802Y-106089051D01*
X176507198Y-105160949D02*
X176714051Y-105367802D01*
%TO.C,R29*%
X114010654Y-91200420D02*
X113650420Y-91560654D01*
X114749580Y-91939346D02*
X114389346Y-92299580D01*
%TO.C,R19*%
X166557776Y-102127500D02*
X167067224Y-102127500D01*
X166557776Y-103172500D02*
X167067224Y-103172500D01*
%TO.C,3V3HSSoC*%
X172652064Y-113315000D02*
X172197936Y-113315000D01*
X172652064Y-114785000D02*
X172197936Y-114785000D01*
%TO.C,C10*%
X156354022Y-67375108D02*
X156560875Y-67168255D01*
X157075271Y-68096357D02*
X157282124Y-67889504D01*
%TO.C,C49*%
X152730099Y-62725881D02*
X152936952Y-62519028D01*
X153451348Y-63447130D02*
X153658201Y-63240277D01*
%TO.C,PROG*%
X91447936Y-74890000D02*
X91902064Y-74890000D01*
X91447936Y-76360000D02*
X91902064Y-76360000D01*
D14*
%TO.C,J2*%
X67875000Y-90958250D02*
X79375000Y-90958250D01*
X74875000Y-74458250D02*
X79375000Y-74458250D01*
X74875000Y-90058250D02*
X74875000Y-74458250D01*
X79375000Y-73558250D02*
X67875000Y-73558250D01*
X79375000Y-74458250D02*
X79375000Y-73558250D01*
X79375000Y-90058250D02*
X74875000Y-90058250D01*
X79375000Y-90958250D02*
X79375000Y-90058250D01*
D11*
X77175000Y-73008250D02*
G75*
G02*
X76975000Y-73008250I-100000J0D01*
G01*
X76975000Y-73008250D02*
G75*
G02*
X77175000Y-73008250I100000J0D01*
G01*
D13*
%TO.C,C27*%
X96385949Y-62692802D02*
X96592802Y-62485949D01*
X97107198Y-63414051D02*
X97314051Y-63207198D01*
%TO.C,C43*%
X179753733Y-95965000D02*
X180046267Y-95965000D01*
X179753733Y-96985000D02*
X180046267Y-96985000D01*
%TO.C,R12*%
X169920276Y-110227500D02*
X170429724Y-110227500D01*
X169920276Y-111272500D02*
X170429724Y-111272500D01*
%TO.C,C39*%
X162103733Y-112715000D02*
X162396267Y-112715000D01*
X162103733Y-113735000D02*
X162396267Y-113735000D01*
%TO.C,C36*%
X181170543Y-94384990D02*
X181540010Y-94754457D01*
X182209990Y-93345543D02*
X182579457Y-93715010D01*
%TO.C,GND*%
X172700000Y-109825000D02*
X174100000Y-109825000D01*
X172700000Y-111225000D02*
X172700000Y-109825000D01*
X174100000Y-109825000D02*
X174100000Y-111225000D01*
X174100000Y-111225000D02*
X172700000Y-111225000D01*
%TO.C,C29*%
X127516464Y-82468302D02*
X127309611Y-82261449D01*
X128237713Y-81747053D02*
X128030860Y-81540200D01*
%TO.C,C60*%
X160356258Y-89176539D02*
X160356258Y-89469073D01*
X161376258Y-89176539D02*
X161376258Y-89469073D01*
%TO.C,C1*%
X145252445Y-100451772D02*
X145459298Y-100658625D01*
X145973694Y-99730523D02*
X146180547Y-99937376D01*
%TO.C,R18*%
X121245276Y-63727500D02*
X121754724Y-63727500D01*
X121245276Y-64772500D02*
X121754724Y-64772500D01*
%TO.C,R27*%
X117335654Y-97975420D02*
X116975420Y-98335654D01*
X118074580Y-98714346D02*
X117714346Y-99074580D01*
%TO.C,R33*%
X129310654Y-92450420D02*
X128950420Y-92810654D01*
X130049580Y-93189346D02*
X129689346Y-93549580D01*
%TO.C,R32*%
X120410654Y-101325420D02*
X120050420Y-101685654D01*
X121149580Y-102064346D02*
X120789346Y-102424580D01*
%TO.C,C6*%
X134799663Y-70058578D02*
X134592810Y-69851725D01*
X135520912Y-69337329D02*
X135314059Y-69130476D01*
%TO.C,C74*%
X171757922Y-103920829D02*
X171551069Y-104127682D01*
X172479171Y-104642078D02*
X172272318Y-104848931D01*
%TO.C,C51*%
X150580508Y-98174473D02*
X150580508Y-98467007D01*
X151600508Y-98174473D02*
X151600508Y-98467007D01*
%TO.C,C48*%
X128205893Y-84492371D02*
X127999040Y-84699224D01*
X128927142Y-85213620D02*
X128720289Y-85420473D01*
%TO.C,R20*%
X168752500Y-103320276D02*
X168752500Y-103829724D01*
X169797500Y-103320276D02*
X169797500Y-103829724D01*
%TO.C,R30*%
X129585654Y-87425420D02*
X129225420Y-87785654D01*
X130324580Y-88164346D02*
X129964346Y-88524580D01*
%TO.C,C52*%
X137080082Y-67636737D02*
X136873229Y-67429884D01*
X137801331Y-66915488D02*
X137594478Y-66708635D01*
%TO.C,R1*%
X85920000Y-79326263D02*
X85920000Y-80773737D01*
X88630000Y-79326263D02*
X88630000Y-80773737D01*
%TO.C,R37*%
X134535654Y-95950420D02*
X134175420Y-96310654D01*
X135274580Y-96689346D02*
X134914346Y-97049580D01*
%TO.C,R38*%
X137835654Y-100900420D02*
X137475420Y-101260654D01*
X138574580Y-101639346D02*
X138214346Y-101999580D01*
%TO.C,R17*%
X123545276Y-61802500D02*
X124054724Y-61802500D01*
X123545276Y-62847500D02*
X124054724Y-62847500D01*
%TO.C,R14*%
X180060654Y-103999580D02*
X179700420Y-103639346D01*
X180799580Y-103260654D02*
X180439346Y-102900420D01*
%TO.C,R45*%
X139760654Y-104375420D02*
X139400420Y-104735654D01*
X140499580Y-105114346D02*
X140139346Y-105474580D01*
%TO.C,C25*%
X91778733Y-84365000D02*
X92071267Y-84365000D01*
X91778733Y-85385000D02*
X92071267Y-85385000D01*
%TO.C,R44*%
X119460654Y-111975420D02*
X119100420Y-112335654D01*
X120199580Y-112714346D02*
X119839346Y-113074580D01*
%TO.C,C8*%
X141817697Y-62934477D02*
X141610844Y-62727624D01*
X142538946Y-62213228D02*
X142332093Y-62006375D01*
%TO.C,R28*%
X115735654Y-92875420D02*
X115375420Y-93235654D01*
X116474580Y-93614346D02*
X116114346Y-93974580D01*
%TO.C,C34*%
X188128733Y-85840000D02*
X188421267Y-85840000D01*
X188128733Y-86860000D02*
X188421267Y-86860000D01*
%TO.C,R6*%
X123475420Y-78460654D02*
X123835654Y-78100420D01*
X124214346Y-79199580D02*
X124574580Y-78839346D01*
%TO.C,C57*%
X159070598Y-96097267D02*
X159070598Y-96619773D01*
X160540598Y-96097267D02*
X160540598Y-96619773D01*
%TO.C,C40*%
X168038747Y-112140000D02*
X168561253Y-112140000D01*
X168038747Y-113610000D02*
X168561253Y-113610000D01*
%TO.C,C75*%
X170615000Y-101578733D02*
X170615000Y-101871267D01*
X171635000Y-101578733D02*
X171635000Y-101871267D01*
%TO.C,R34*%
X127510654Y-95625420D02*
X127150420Y-95985654D01*
X128249580Y-96364346D02*
X127889346Y-96724580D01*
%TO.C,C47*%
X142719259Y-98616829D02*
X142512406Y-98823682D01*
X143440508Y-99338078D02*
X143233655Y-99544931D01*
%TO.C,R15*%
X173827500Y-101154724D02*
X173827500Y-100645276D01*
X174872500Y-101154724D02*
X174872500Y-100645276D01*
%TO.C,H7_UART/SWD1*%
X84385000Y-90995000D02*
X84385000Y-96295000D01*
X94655000Y-90995000D02*
X84385000Y-90995000D01*
X94655000Y-90995000D02*
X94655000Y-93645000D01*
X94655000Y-93645000D02*
X97305000Y-93645000D01*
X95925000Y-90995001D02*
X97305000Y-90995000D01*
X97305000Y-90995000D02*
X97304999Y-92375000D01*
X97305000Y-93645000D02*
X97305000Y-96295000D01*
X97305000Y-96295000D02*
X84385000Y-96295000D01*
%TO.C,C42*%
X177510949Y-105382198D02*
X177717802Y-105589051D01*
X178232198Y-104660949D02*
X178439051Y-104867802D01*
%TO.C,R31*%
X125760654Y-100100420D02*
X125400420Y-100460654D01*
X126499580Y-100839346D02*
X126139346Y-101199580D01*
%TO.C,R5*%
X169285654Y-85600420D02*
X168925420Y-85960654D01*
X170024580Y-86339346D02*
X169664346Y-86699580D01*
D14*
%TO.C,J6*%
X106833150Y-107972507D02*
X107596826Y-108736182D01*
X108869618Y-105936039D02*
X106833150Y-107972507D01*
X108869618Y-105936039D02*
X109633293Y-106699715D01*
X114328482Y-115467839D02*
X113564807Y-114704163D01*
X114328482Y-115467839D02*
X116364950Y-113431371D01*
X116364950Y-113431371D02*
X115601274Y-112667696D01*
D11*
X110758598Y-106225953D02*
G75*
G02*
X110558598Y-106225953I-100000J0D01*
G01*
X110558598Y-106225953D02*
G75*
G02*
X110758598Y-106225953I100000J0D01*
G01*
D13*
%TO.C,D2*%
X125640835Y-66630282D02*
X125319718Y-66309165D01*
X126680282Y-65590835D02*
X126359165Y-65269718D01*
%TO.C,J3*%
X85339180Y-64759205D02*
X94475000Y-55623385D01*
X87213013Y-66633038D02*
X85339180Y-64759205D01*
X89086846Y-64759205D02*
X87213013Y-66633038D01*
X89086846Y-68506871D02*
X88111039Y-67531063D01*
X90062653Y-67531063D02*
X89086846Y-68506871D01*
X90960679Y-66633038D02*
X89086846Y-64759205D01*
X90960679Y-66633038D02*
X98222666Y-59371051D01*
X98222666Y-59371051D02*
X94475000Y-55623385D01*
%TO.C,C24*%
X88086253Y-83315000D02*
X87563747Y-83315000D01*
X88086253Y-84785000D02*
X87563747Y-84785000D01*
D14*
%TO.C,RN1*%
X143174999Y-59175001D02*
X143174999Y-57374999D01*
X146574999Y-57374999D02*
X146574999Y-59175001D01*
D11*
X146474999Y-56375000D02*
G75*
G02*
X146274999Y-56375000I-100000J0D01*
G01*
X146274999Y-56375000D02*
G75*
G02*
X146474999Y-56375000I100000J0D01*
G01*
D13*
%TO.C,C2*%
X137327570Y-92659453D02*
X137120717Y-92866306D01*
X138048819Y-93380702D02*
X137841966Y-93587555D01*
%TO.C,C37*%
X163438748Y-104690000D02*
X163961252Y-104690000D01*
X163438748Y-106160000D02*
X163961252Y-106160000D01*
%TO.C,C72*%
X161942802Y-100935949D02*
X161735949Y-101142802D01*
X162664051Y-101657198D02*
X162457198Y-101864051D01*
D11*
%TO.C,U3*%
X95050000Y-78120000D02*
X93249998Y-78120000D01*
X97450000Y-83120000D02*
X93249998Y-83120000D01*
D13*
%TO.C,C64*%
X80115000Y-75121267D02*
X80115000Y-74828733D01*
X81135000Y-75121267D02*
X81135000Y-74828733D01*
%TO.C,C54*%
X131865170Y-72816295D02*
X131658317Y-72609442D01*
X132586419Y-72095046D02*
X132379566Y-71888193D01*
D15*
%TO.C,U4*%
G36*
X94476117Y-71873815D02*
G01*
X94296511Y-72053420D01*
X94027104Y-71784012D01*
X94206709Y-71604407D01*
X94476117Y-71873815D01*
G37*
G36*
X102728902Y-64752402D02*
G01*
X102549297Y-64932007D01*
X102279889Y-64662599D01*
X102459494Y-64482994D01*
X102728902Y-64752402D01*
G37*
G36*
X103294588Y-73481068D02*
G01*
X103025180Y-73750476D01*
X102845575Y-73570871D01*
X103114983Y-73301463D01*
X103294588Y-73481068D01*
G37*
D13*
%TO.C,C16*%
X148441510Y-100313471D02*
X148441510Y-100606005D01*
X149461510Y-100313471D02*
X149461510Y-100606005D01*
%TO.C,C7*%
X139501924Y-65250252D02*
X139295071Y-65043399D01*
X140223173Y-64529003D02*
X140016320Y-64322150D01*
%TO.C,R35*%
X130885654Y-93850420D02*
X130525420Y-94210654D01*
X131624580Y-94589346D02*
X131264346Y-94949580D01*
%TD*%
M02*
