%TF.GenerationSoftware,KiCad,Pcbnew,9.0.3*%
%TF.CreationDate,2026-04-11T22:56:24-04:00*%
%TF.ProjectId,MainTotem_Rev1,4d61696e-546f-4746-956d-5f526576312e,rev?*%
%TF.SameCoordinates,Original*%
%TF.FileFunction,Legend,Top*%
%TF.FilePolarity,Positive*%
%FSLAX46Y46*%
G04 Gerber Fmt 4.6, Leading zero omitted, Abs format (unit mm)*
G04 Created by KiCad (PCBNEW 9.0.3) date 2026-04-11 22:56:24*
%MOMM*%
%LPD*%
G01*
G04 APERTURE LIST*
%ADD10C,0.152400*%
%ADD11C,0.200000*%
%ADD12C,0.304800*%
%ADD13C,0.150000*%
%ADD14C,0.120000*%
%ADD15C,0.127000*%
%ADD16C,0.000000*%
G04 APERTURE END LIST*
D10*
X118733371Y-68480318D02*
X119308107Y-67905581D01*
X119034423Y-68179265D02*
X119362844Y-68507686D01*
X119061792Y-68808738D02*
X119636528Y-68234002D01*
X119855475Y-68452949D02*
X120238633Y-68836107D01*
X120238633Y-68836107D02*
X119417581Y-69164528D01*
X120320738Y-70067685D02*
X120895474Y-69492948D01*
X120895474Y-69492948D02*
X121114421Y-69711895D01*
X121114421Y-69711895D02*
X121141790Y-69794001D01*
X121141790Y-69794001D02*
X121141790Y-69848737D01*
X121141790Y-69848737D02*
X121114421Y-69930843D01*
X121114421Y-69930843D02*
X121032316Y-70012948D01*
X121032316Y-70012948D02*
X120950211Y-70040316D01*
X120950211Y-70040316D02*
X120895474Y-70040316D01*
X120895474Y-70040316D02*
X120813369Y-70012948D01*
X120813369Y-70012948D02*
X120594422Y-69794001D01*
X120895474Y-70642421D02*
X121470211Y-70067685D01*
X121169159Y-70916105D02*
X121743895Y-70341369D01*
X121743895Y-70341369D02*
X121497579Y-71244526D01*
X121497579Y-71244526D02*
X122072316Y-70669790D01*
X122209158Y-71956105D02*
X122783894Y-71381368D01*
X122510210Y-71655052D02*
X122838631Y-71983473D01*
X122537579Y-72284525D02*
X123112315Y-71709789D01*
X123112315Y-72257157D02*
X123303894Y-72448736D01*
X123084947Y-72831893D02*
X122811263Y-72558209D01*
X122811263Y-72558209D02*
X123385999Y-71983473D01*
X123385999Y-71983473D02*
X123659683Y-72257157D01*
X123468104Y-72886630D02*
X123741788Y-73160314D01*
X123249157Y-72996104D02*
X124015472Y-72612946D01*
X124015472Y-72612946D02*
X123632314Y-73379261D01*
X123823893Y-73570840D02*
X124398630Y-72996104D01*
X124398630Y-72996104D02*
X124535472Y-73132946D01*
X124535472Y-73132946D02*
X124590209Y-73242419D01*
X124590209Y-73242419D02*
X124590209Y-73351893D01*
X124590209Y-73351893D02*
X124562840Y-73433998D01*
X124562840Y-73433998D02*
X124480735Y-73570840D01*
X124480735Y-73570840D02*
X124398630Y-73652945D01*
X124398630Y-73652945D02*
X124261788Y-73735051D01*
X124261788Y-73735051D02*
X124179683Y-73762419D01*
X124179683Y-73762419D02*
X124070209Y-73762419D01*
X124070209Y-73762419D02*
X123960735Y-73707682D01*
X123960735Y-73707682D02*
X123823893Y-73570840D01*
X124699682Y-73844524D02*
X124891261Y-74036103D01*
X124672314Y-74419261D02*
X124398630Y-74145577D01*
X124398630Y-74145577D02*
X124973366Y-73570840D01*
X124973366Y-73570840D02*
X125247050Y-73844524D01*
X125247050Y-74993997D02*
X125329155Y-74528734D01*
X124918629Y-74665576D02*
X125493365Y-74090839D01*
X125493365Y-74090839D02*
X125712313Y-74309787D01*
X125712313Y-74309787D02*
X125739681Y-74391892D01*
X125739681Y-74391892D02*
X125739681Y-74446629D01*
X125739681Y-74446629D02*
X125712313Y-74528734D01*
X125712313Y-74528734D02*
X125630207Y-74610839D01*
X125630207Y-74610839D02*
X125548102Y-74638207D01*
X125548102Y-74638207D02*
X125493365Y-74638207D01*
X125493365Y-74638207D02*
X125411260Y-74610839D01*
X125411260Y-74610839D02*
X125192313Y-74391892D01*
X121160707Y-71608767D02*
X120777549Y-72375082D01*
X120777549Y-72375082D02*
X121543865Y-71991925D01*
X121160707Y-72703503D02*
X121215444Y-72812977D01*
X121215444Y-72812977D02*
X121352286Y-72949819D01*
X121352286Y-72949819D02*
X121434391Y-72977187D01*
X121434391Y-72977187D02*
X121489128Y-72977187D01*
X121489128Y-72977187D02*
X121571233Y-72949819D01*
X121571233Y-72949819D02*
X121625970Y-72895082D01*
X121625970Y-72895082D02*
X121653338Y-72812977D01*
X121653338Y-72812977D02*
X121653338Y-72758240D01*
X121653338Y-72758240D02*
X121625970Y-72676135D01*
X121625970Y-72676135D02*
X121543865Y-72539293D01*
X121543865Y-72539293D02*
X121516496Y-72457188D01*
X121516496Y-72457188D02*
X121516496Y-72402451D01*
X121516496Y-72402451D02*
X121543865Y-72320346D01*
X121543865Y-72320346D02*
X121598602Y-72265609D01*
X121598602Y-72265609D02*
X121680707Y-72238240D01*
X121680707Y-72238240D02*
X121735444Y-72238240D01*
X121735444Y-72238240D02*
X121817549Y-72265609D01*
X121817549Y-72265609D02*
X121954391Y-72402451D01*
X121954391Y-72402451D02*
X122009128Y-72511924D01*
X117115417Y-70508799D02*
X117170153Y-70618272D01*
X117170153Y-70618272D02*
X117306995Y-70755114D01*
X117306995Y-70755114D02*
X117389101Y-70782483D01*
X117389101Y-70782483D02*
X117443837Y-70782483D01*
X117443837Y-70782483D02*
X117525943Y-70755114D01*
X117525943Y-70755114D02*
X117580679Y-70700377D01*
X117580679Y-70700377D02*
X117608048Y-70618272D01*
X117608048Y-70618272D02*
X117608048Y-70563535D01*
X117608048Y-70563535D02*
X117580679Y-70481430D01*
X117580679Y-70481430D02*
X117498574Y-70344588D01*
X117498574Y-70344588D02*
X117471206Y-70262483D01*
X117471206Y-70262483D02*
X117471206Y-70207746D01*
X117471206Y-70207746D02*
X117498574Y-70125641D01*
X117498574Y-70125641D02*
X117553311Y-70070904D01*
X117553311Y-70070904D02*
X117635416Y-70043536D01*
X117635416Y-70043536D02*
X117690153Y-70043536D01*
X117690153Y-70043536D02*
X117772258Y-70070904D01*
X117772258Y-70070904D02*
X117909100Y-70207746D01*
X117909100Y-70207746D02*
X117963837Y-70317220D01*
X118155416Y-70454062D02*
X118483836Y-70782482D01*
X117744890Y-71193008D02*
X118319626Y-70618272D01*
X118100679Y-71548797D02*
X118675415Y-70974061D01*
X118675415Y-70974061D02*
X118456468Y-71576166D01*
X118456468Y-71576166D02*
X119058573Y-71357219D01*
X119058573Y-71357219D02*
X118483836Y-71931955D01*
X119277520Y-71576166D02*
X119633309Y-71931955D01*
X119633309Y-71931955D02*
X119222783Y-71959323D01*
X119222783Y-71959323D02*
X119304888Y-72041428D01*
X119304888Y-72041428D02*
X119332256Y-72123534D01*
X119332256Y-72123534D02*
X119332256Y-72178270D01*
X119332256Y-72178270D02*
X119304888Y-72260376D01*
X119304888Y-72260376D02*
X119168046Y-72397218D01*
X119168046Y-72397218D02*
X119085941Y-72424586D01*
X119085941Y-72424586D02*
X119031204Y-72424586D01*
X119031204Y-72424586D02*
X118949099Y-72397218D01*
X118949099Y-72397218D02*
X118784888Y-72233007D01*
X118784888Y-72233007D02*
X118757520Y-72150902D01*
X118757520Y-72150902D02*
X118757520Y-72096165D01*
X119797519Y-72205639D02*
X119852256Y-72205639D01*
X119852256Y-72205639D02*
X119934361Y-72233007D01*
X119934361Y-72233007D02*
X120071203Y-72369849D01*
X120071203Y-72369849D02*
X120098571Y-72451954D01*
X120098571Y-72451954D02*
X120098571Y-72506691D01*
X120098571Y-72506691D02*
X120071203Y-72588796D01*
X120071203Y-72588796D02*
X120016466Y-72643533D01*
X120016466Y-72643533D02*
X119906993Y-72698270D01*
X119906993Y-72698270D02*
X119250151Y-72698270D01*
X119250151Y-72698270D02*
X119605940Y-73054059D01*
X120700676Y-73054059D02*
X120673308Y-72971954D01*
X120673308Y-72971954D02*
X120591202Y-72889848D01*
X120591202Y-72889848D02*
X120481729Y-72835112D01*
X120481729Y-72835112D02*
X120372255Y-72835112D01*
X120372255Y-72835112D02*
X120290150Y-72862480D01*
X120290150Y-72862480D02*
X120153308Y-72944585D01*
X120153308Y-72944585D02*
X120071203Y-73026690D01*
X120071203Y-73026690D02*
X119989098Y-73163532D01*
X119989098Y-73163532D02*
X119961729Y-73245638D01*
X119961729Y-73245638D02*
X119961729Y-73355111D01*
X119961729Y-73355111D02*
X120016466Y-73464585D01*
X120016466Y-73464585D02*
X120071203Y-73519322D01*
X120071203Y-73519322D02*
X120180677Y-73574058D01*
X120180677Y-73574058D02*
X120235413Y-73574058D01*
X120235413Y-73574058D02*
X120426992Y-73382480D01*
X120426992Y-73382480D02*
X120317519Y-73273006D01*
X121111202Y-73409848D02*
X121165939Y-73464585D01*
X121165939Y-73464585D02*
X121193307Y-73546690D01*
X121193307Y-73546690D02*
X121193307Y-73601427D01*
X121193307Y-73601427D02*
X121165939Y-73683532D01*
X121165939Y-73683532D02*
X121083834Y-73820374D01*
X121083834Y-73820374D02*
X120946992Y-73957216D01*
X120946992Y-73957216D02*
X120810150Y-74039321D01*
X120810150Y-74039321D02*
X120728044Y-74066690D01*
X120728044Y-74066690D02*
X120673308Y-74066690D01*
X120673308Y-74066690D02*
X120591202Y-74039321D01*
X120591202Y-74039321D02*
X120536466Y-73984584D01*
X120536466Y-73984584D02*
X120509097Y-73902479D01*
X120509097Y-73902479D02*
X120509097Y-73847742D01*
X120509097Y-73847742D02*
X120536466Y-73765637D01*
X120536466Y-73765637D02*
X120618571Y-73628795D01*
X120618571Y-73628795D02*
X120755413Y-73491953D01*
X120755413Y-73491953D02*
X120892255Y-73409848D01*
X120892255Y-73409848D02*
X120974360Y-73382480D01*
X120974360Y-73382480D02*
X121029097Y-73382480D01*
X121029097Y-73382480D02*
X121111202Y-73409848D01*
X121412254Y-74860373D02*
X121986991Y-74285637D01*
X121986991Y-74285637D02*
X122205938Y-74504584D01*
X122205938Y-74504584D02*
X122233306Y-74586689D01*
X122233306Y-74586689D02*
X122233306Y-74641426D01*
X122233306Y-74641426D02*
X122205938Y-74723531D01*
X122205938Y-74723531D02*
X122123833Y-74805636D01*
X122123833Y-74805636D02*
X122041727Y-74833005D01*
X122041727Y-74833005D02*
X121986991Y-74833005D01*
X121986991Y-74833005D02*
X121904885Y-74805636D01*
X121904885Y-74805636D02*
X121685938Y-74586689D01*
X121986991Y-75435109D02*
X122561727Y-74860373D01*
X122260675Y-75708794D02*
X122835411Y-75134057D01*
X122835411Y-75134057D02*
X122589096Y-76037214D01*
X122589096Y-76037214D02*
X123163832Y-75462478D01*
X122862780Y-76256162D02*
X122917517Y-76365635D01*
X122917517Y-76365635D02*
X123054359Y-76502477D01*
X123054359Y-76502477D02*
X123136464Y-76529846D01*
X123136464Y-76529846D02*
X123191201Y-76529846D01*
X123191201Y-76529846D02*
X123273306Y-76502477D01*
X123273306Y-76502477D02*
X123328043Y-76447741D01*
X123328043Y-76447741D02*
X123355411Y-76365635D01*
X123355411Y-76365635D02*
X123355411Y-76310899D01*
X123355411Y-76310899D02*
X123328043Y-76228793D01*
X123328043Y-76228793D02*
X123245937Y-76091951D01*
X123245937Y-76091951D02*
X123218569Y-76009846D01*
X123218569Y-76009846D02*
X123218569Y-75955109D01*
X123218569Y-75955109D02*
X123245937Y-75873004D01*
X123245937Y-75873004D02*
X123300674Y-75818267D01*
X123300674Y-75818267D02*
X123382779Y-75790899D01*
X123382779Y-75790899D02*
X123437516Y-75790899D01*
X123437516Y-75790899D02*
X123519621Y-75818267D01*
X123519621Y-75818267D02*
X123656463Y-75955109D01*
X123656463Y-75955109D02*
X123711200Y-76064583D01*
X89792572Y-57742900D02*
X89710467Y-57770268D01*
X89710467Y-57770268D02*
X89628362Y-57852373D01*
X89628362Y-57852373D02*
X89573625Y-57961847D01*
X89573625Y-57961847D02*
X89573625Y-58071321D01*
X89573625Y-58071321D02*
X89600993Y-58153426D01*
X89600993Y-58153426D02*
X89683098Y-58290268D01*
X89683098Y-58290268D02*
X89765204Y-58372373D01*
X89765204Y-58372373D02*
X89902046Y-58454478D01*
X89902046Y-58454478D02*
X89984151Y-58481847D01*
X89984151Y-58481847D02*
X90093624Y-58481847D01*
X90093624Y-58481847D02*
X90203098Y-58427110D01*
X90203098Y-58427110D02*
X90257835Y-58372373D01*
X90257835Y-58372373D02*
X90312572Y-58262899D01*
X90312572Y-58262899D02*
X90312572Y-58208163D01*
X90312572Y-58208163D02*
X90120993Y-58016584D01*
X90120993Y-58016584D02*
X90011519Y-58126057D01*
X90148361Y-57332374D02*
X90203098Y-57277637D01*
X90203098Y-57277637D02*
X90285203Y-57250269D01*
X90285203Y-57250269D02*
X90339940Y-57250269D01*
X90339940Y-57250269D02*
X90422045Y-57277637D01*
X90422045Y-57277637D02*
X90558887Y-57359742D01*
X90558887Y-57359742D02*
X90695729Y-57496584D01*
X90695729Y-57496584D02*
X90777834Y-57633426D01*
X90777834Y-57633426D02*
X90805203Y-57715531D01*
X90805203Y-57715531D02*
X90805203Y-57770268D01*
X90805203Y-57770268D02*
X90777834Y-57852373D01*
X90777834Y-57852373D02*
X90723098Y-57907110D01*
X90723098Y-57907110D02*
X90640992Y-57934479D01*
X90640992Y-57934479D02*
X90586256Y-57934479D01*
X90586256Y-57934479D02*
X90504150Y-57907110D01*
X90504150Y-57907110D02*
X90367308Y-57825005D01*
X90367308Y-57825005D02*
X90230466Y-57688163D01*
X90230466Y-57688163D02*
X90148361Y-57551321D01*
X90148361Y-57551321D02*
X90120993Y-57469216D01*
X90120993Y-57469216D02*
X90120993Y-57414479D01*
X90120993Y-57414479D02*
X90148361Y-57332374D01*
X91078887Y-57660795D02*
X91516781Y-57222900D01*
X91024150Y-56456585D02*
X91489412Y-56921848D01*
X91489412Y-56921848D02*
X91571518Y-56949217D01*
X91571518Y-56949217D02*
X91626254Y-56949217D01*
X91626254Y-56949217D02*
X91708360Y-56921848D01*
X91708360Y-56921848D02*
X91817833Y-56812375D01*
X91817833Y-56812375D02*
X91845202Y-56730269D01*
X91845202Y-56730269D02*
X91845202Y-56675533D01*
X91845202Y-56675533D02*
X91817833Y-56593427D01*
X91817833Y-56593427D02*
X91352570Y-56128165D01*
X92009412Y-56292375D02*
X92283096Y-56018691D01*
X92118886Y-56511322D02*
X91735728Y-55745007D01*
X91735728Y-55745007D02*
X92502043Y-56128164D01*
X93022043Y-55608165D02*
X92556780Y-55526059D01*
X92693622Y-55936585D02*
X92118886Y-55361849D01*
X92118886Y-55361849D02*
X92337833Y-55142902D01*
X92337833Y-55142902D02*
X92419938Y-55115533D01*
X92419938Y-55115533D02*
X92474675Y-55115533D01*
X92474675Y-55115533D02*
X92556780Y-55142902D01*
X92556780Y-55142902D02*
X92638886Y-55225007D01*
X92638886Y-55225007D02*
X92666254Y-55307112D01*
X92666254Y-55307112D02*
X92666254Y-55361849D01*
X92666254Y-55361849D02*
X92638886Y-55443954D01*
X92638886Y-55443954D02*
X92419938Y-55662901D01*
X92611517Y-54869218D02*
X92939938Y-54540797D01*
X93350464Y-55279744D02*
X92775728Y-54705007D01*
X93514674Y-53911324D02*
X93760990Y-55142902D01*
X94253621Y-54321850D02*
X94363095Y-54267113D01*
X94363095Y-54267113D02*
X94499937Y-54130271D01*
X94499937Y-54130271D02*
X94527305Y-54048166D01*
X94527305Y-54048166D02*
X94527305Y-53993429D01*
X94527305Y-53993429D02*
X94499937Y-53911324D01*
X94499937Y-53911324D02*
X94445200Y-53856587D01*
X94445200Y-53856587D02*
X94363095Y-53829219D01*
X94363095Y-53829219D02*
X94308358Y-53829219D01*
X94308358Y-53829219D02*
X94226253Y-53856587D01*
X94226253Y-53856587D02*
X94089411Y-53938692D01*
X94089411Y-53938692D02*
X94007306Y-53966061D01*
X94007306Y-53966061D02*
X93952569Y-53966061D01*
X93952569Y-53966061D02*
X93870464Y-53938692D01*
X93870464Y-53938692D02*
X93815727Y-53883955D01*
X93815727Y-53883955D02*
X93788358Y-53801850D01*
X93788358Y-53801850D02*
X93788358Y-53747113D01*
X93788358Y-53747113D02*
X93815727Y-53665008D01*
X93815727Y-53665008D02*
X93952569Y-53528166D01*
X93952569Y-53528166D02*
X94062042Y-53473429D01*
X94226253Y-53254482D02*
X94937831Y-53692377D01*
X94937831Y-53692377D02*
X94636779Y-53172377D01*
X94636779Y-53172377D02*
X95156778Y-53473430D01*
X95156778Y-53473430D02*
X94718884Y-52761851D01*
X95512567Y-53117641D02*
X94937831Y-52542904D01*
X94937831Y-52542904D02*
X95074673Y-52406062D01*
X95074673Y-52406062D02*
X95184146Y-52351325D01*
X95184146Y-52351325D02*
X95293620Y-52351325D01*
X95293620Y-52351325D02*
X95375725Y-52378694D01*
X95375725Y-52378694D02*
X95512567Y-52460799D01*
X95512567Y-52460799D02*
X95594672Y-52542904D01*
X95594672Y-52542904D02*
X95676778Y-52679746D01*
X95676778Y-52679746D02*
X95704146Y-52761851D01*
X95704146Y-52761851D02*
X95704146Y-52871325D01*
X95704146Y-52871325D02*
X95649409Y-52980799D01*
X95649409Y-52980799D02*
X95512567Y-53117641D01*
X82583243Y-70773069D02*
X82544539Y-70811774D01*
X82544539Y-70811774D02*
X82428424Y-70850478D01*
X82428424Y-70850478D02*
X82351015Y-70850478D01*
X82351015Y-70850478D02*
X82234901Y-70811774D01*
X82234901Y-70811774D02*
X82157491Y-70734364D01*
X82157491Y-70734364D02*
X82118786Y-70656954D01*
X82118786Y-70656954D02*
X82080082Y-70502135D01*
X82080082Y-70502135D02*
X82080082Y-70386021D01*
X82080082Y-70386021D02*
X82118786Y-70231202D01*
X82118786Y-70231202D02*
X82157491Y-70153793D01*
X82157491Y-70153793D02*
X82234901Y-70076383D01*
X82234901Y-70076383D02*
X82351015Y-70037678D01*
X82351015Y-70037678D02*
X82428424Y-70037678D01*
X82428424Y-70037678D02*
X82544539Y-70076383D01*
X82544539Y-70076383D02*
X82583243Y-70115088D01*
X83318634Y-70850478D02*
X82931586Y-70850478D01*
X82931586Y-70850478D02*
X82931586Y-70037678D01*
X83744386Y-70037678D02*
X83899205Y-70037678D01*
X83899205Y-70037678D02*
X83976615Y-70076383D01*
X83976615Y-70076383D02*
X84054024Y-70153793D01*
X84054024Y-70153793D02*
X84092729Y-70308612D01*
X84092729Y-70308612D02*
X84092729Y-70579545D01*
X84092729Y-70579545D02*
X84054024Y-70734364D01*
X84054024Y-70734364D02*
X83976615Y-70811774D01*
X83976615Y-70811774D02*
X83899205Y-70850478D01*
X83899205Y-70850478D02*
X83744386Y-70850478D01*
X83744386Y-70850478D02*
X83666977Y-70811774D01*
X83666977Y-70811774D02*
X83589567Y-70734364D01*
X83589567Y-70734364D02*
X83550863Y-70579545D01*
X83550863Y-70579545D02*
X83550863Y-70308612D01*
X83550863Y-70308612D02*
X83589567Y-70153793D01*
X83589567Y-70153793D02*
X83666977Y-70076383D01*
X83666977Y-70076383D02*
X83744386Y-70037678D01*
X84402368Y-70811774D02*
X84518482Y-70850478D01*
X84518482Y-70850478D02*
X84712006Y-70850478D01*
X84712006Y-70850478D02*
X84789415Y-70811774D01*
X84789415Y-70811774D02*
X84828120Y-70773069D01*
X84828120Y-70773069D02*
X84866825Y-70695659D01*
X84866825Y-70695659D02*
X84866825Y-70618250D01*
X84866825Y-70618250D02*
X84828120Y-70540840D01*
X84828120Y-70540840D02*
X84789415Y-70502135D01*
X84789415Y-70502135D02*
X84712006Y-70463431D01*
X84712006Y-70463431D02*
X84557187Y-70424726D01*
X84557187Y-70424726D02*
X84479777Y-70386021D01*
X84479777Y-70386021D02*
X84441072Y-70347316D01*
X84441072Y-70347316D02*
X84402368Y-70269907D01*
X84402368Y-70269907D02*
X84402368Y-70192497D01*
X84402368Y-70192497D02*
X84441072Y-70115088D01*
X84441072Y-70115088D02*
X84479777Y-70076383D01*
X84479777Y-70076383D02*
X84557187Y-70037678D01*
X84557187Y-70037678D02*
X84750710Y-70037678D01*
X84750710Y-70037678D02*
X84866825Y-70076383D01*
X85215167Y-70424726D02*
X85486101Y-70424726D01*
X85602215Y-70850478D02*
X85215167Y-70850478D01*
X85215167Y-70850478D02*
X85215167Y-70037678D01*
X85215167Y-70037678D02*
X85602215Y-70037678D01*
X86569833Y-70850478D02*
X86569833Y-70037678D01*
X87227815Y-70424726D02*
X86956881Y-70424726D01*
X86956881Y-70850478D02*
X86956881Y-70037678D01*
X86956881Y-70037678D02*
X87343929Y-70037678D01*
X82002672Y-71346240D02*
X82467129Y-71346240D01*
X82234901Y-72159040D02*
X82234901Y-71346240D01*
X82892881Y-71346240D02*
X83047700Y-71346240D01*
X83047700Y-71346240D02*
X83125110Y-71384945D01*
X83125110Y-71384945D02*
X83202519Y-71462355D01*
X83202519Y-71462355D02*
X83241224Y-71617174D01*
X83241224Y-71617174D02*
X83241224Y-71888107D01*
X83241224Y-71888107D02*
X83202519Y-72042926D01*
X83202519Y-72042926D02*
X83125110Y-72120336D01*
X83125110Y-72120336D02*
X83047700Y-72159040D01*
X83047700Y-72159040D02*
X82892881Y-72159040D01*
X82892881Y-72159040D02*
X82815472Y-72120336D01*
X82815472Y-72120336D02*
X82738062Y-72042926D01*
X82738062Y-72042926D02*
X82699358Y-71888107D01*
X82699358Y-71888107D02*
X82699358Y-71617174D01*
X82699358Y-71617174D02*
X82738062Y-71462355D01*
X82738062Y-71462355D02*
X82815472Y-71384945D01*
X82815472Y-71384945D02*
X82892881Y-71346240D01*
X83473453Y-71346240D02*
X83937910Y-71346240D01*
X83705682Y-72159040D02*
X83705682Y-71346240D01*
X84208843Y-71733288D02*
X84479777Y-71733288D01*
X84595891Y-72159040D02*
X84208843Y-72159040D01*
X84208843Y-72159040D02*
X84208843Y-71346240D01*
X84208843Y-71346240D02*
X84595891Y-71346240D01*
X84944233Y-72159040D02*
X84944233Y-71346240D01*
X84944233Y-71346240D02*
X85215167Y-71926812D01*
X85215167Y-71926812D02*
X85486100Y-71346240D01*
X85486100Y-71346240D02*
X85486100Y-72159040D01*
X86492423Y-72159040D02*
X86492423Y-71346240D01*
X86492423Y-71346240D02*
X86802061Y-71346240D01*
X86802061Y-71346240D02*
X86879471Y-71384945D01*
X86879471Y-71384945D02*
X86918176Y-71423650D01*
X86918176Y-71423650D02*
X86956880Y-71501059D01*
X86956880Y-71501059D02*
X86956880Y-71617174D01*
X86956880Y-71617174D02*
X86918176Y-71694583D01*
X86918176Y-71694583D02*
X86879471Y-71733288D01*
X86879471Y-71733288D02*
X86802061Y-71771993D01*
X86802061Y-71771993D02*
X86492423Y-71771993D01*
X87460042Y-71346240D02*
X87614861Y-71346240D01*
X87614861Y-71346240D02*
X87692271Y-71384945D01*
X87692271Y-71384945D02*
X87769680Y-71462355D01*
X87769680Y-71462355D02*
X87808385Y-71617174D01*
X87808385Y-71617174D02*
X87808385Y-71888107D01*
X87808385Y-71888107D02*
X87769680Y-72042926D01*
X87769680Y-72042926D02*
X87692271Y-72120336D01*
X87692271Y-72120336D02*
X87614861Y-72159040D01*
X87614861Y-72159040D02*
X87460042Y-72159040D01*
X87460042Y-72159040D02*
X87382633Y-72120336D01*
X87382633Y-72120336D02*
X87305223Y-72042926D01*
X87305223Y-72042926D02*
X87266519Y-71888107D01*
X87266519Y-71888107D02*
X87266519Y-71617174D01*
X87266519Y-71617174D02*
X87305223Y-71462355D01*
X87305223Y-71462355D02*
X87382633Y-71384945D01*
X87382633Y-71384945D02*
X87460042Y-71346240D01*
X88543776Y-72159040D02*
X88156728Y-72159040D01*
X88156728Y-72159040D02*
X88156728Y-71346240D01*
X88814709Y-71733288D02*
X89085643Y-71733288D01*
X89201757Y-72159040D02*
X88814709Y-72159040D01*
X88814709Y-72159040D02*
X88814709Y-71346240D01*
X88814709Y-71346240D02*
X89201757Y-71346240D01*
X82002672Y-72654802D02*
X82467129Y-72654802D01*
X82234901Y-73467602D02*
X82234901Y-72654802D01*
X82738062Y-73041850D02*
X83008996Y-73041850D01*
X83125110Y-73467602D02*
X82738062Y-73467602D01*
X82738062Y-73467602D02*
X82738062Y-72654802D01*
X82738062Y-72654802D02*
X83125110Y-72654802D01*
X83937909Y-73467602D02*
X83666976Y-73080555D01*
X83473452Y-73467602D02*
X83473452Y-72654802D01*
X83473452Y-72654802D02*
X83783090Y-72654802D01*
X83783090Y-72654802D02*
X83860500Y-72693507D01*
X83860500Y-72693507D02*
X83899205Y-72732212D01*
X83899205Y-72732212D02*
X83937909Y-72809621D01*
X83937909Y-72809621D02*
X83937909Y-72925736D01*
X83937909Y-72925736D02*
X83899205Y-73003145D01*
X83899205Y-73003145D02*
X83860500Y-73041850D01*
X83860500Y-73041850D02*
X83783090Y-73080555D01*
X83783090Y-73080555D02*
X83473452Y-73080555D01*
X84286252Y-73467602D02*
X84286252Y-72654802D01*
X84286252Y-72654802D02*
X84557186Y-73235374D01*
X84557186Y-73235374D02*
X84828119Y-72654802D01*
X84828119Y-72654802D02*
X84828119Y-73467602D01*
X85215166Y-73467602D02*
X85215166Y-72654802D01*
X85602214Y-73467602D02*
X85602214Y-72654802D01*
X85602214Y-72654802D02*
X86066671Y-73467602D01*
X86066671Y-73467602D02*
X86066671Y-72654802D01*
X86415015Y-73235374D02*
X86802062Y-73235374D01*
X86337605Y-73467602D02*
X86608538Y-72654802D01*
X86608538Y-72654802D02*
X86879472Y-73467602D01*
X87034291Y-72654802D02*
X87498748Y-72654802D01*
X87266520Y-73467602D02*
X87266520Y-72654802D01*
X87924500Y-72654802D02*
X88079319Y-72654802D01*
X88079319Y-72654802D02*
X88156729Y-72693507D01*
X88156729Y-72693507D02*
X88234138Y-72770917D01*
X88234138Y-72770917D02*
X88272843Y-72925736D01*
X88272843Y-72925736D02*
X88272843Y-73196669D01*
X88272843Y-73196669D02*
X88234138Y-73351488D01*
X88234138Y-73351488D02*
X88156729Y-73428898D01*
X88156729Y-73428898D02*
X88079319Y-73467602D01*
X88079319Y-73467602D02*
X87924500Y-73467602D01*
X87924500Y-73467602D02*
X87847091Y-73428898D01*
X87847091Y-73428898D02*
X87769681Y-73351488D01*
X87769681Y-73351488D02*
X87730977Y-73196669D01*
X87730977Y-73196669D02*
X87730977Y-72925736D01*
X87730977Y-72925736D02*
X87769681Y-72770917D01*
X87769681Y-72770917D02*
X87847091Y-72693507D01*
X87847091Y-72693507D02*
X87924500Y-72654802D01*
X89085643Y-73467602D02*
X88814710Y-73080555D01*
X88621186Y-73467602D02*
X88621186Y-72654802D01*
X88621186Y-72654802D02*
X88930824Y-72654802D01*
X88930824Y-72654802D02*
X89008234Y-72693507D01*
X89008234Y-72693507D02*
X89046939Y-72732212D01*
X89046939Y-72732212D02*
X89085643Y-72809621D01*
X89085643Y-72809621D02*
X89085643Y-72925736D01*
X89085643Y-72925736D02*
X89046939Y-73003145D01*
X89046939Y-73003145D02*
X89008234Y-73041850D01*
X89008234Y-73041850D02*
X88930824Y-73080555D01*
X88930824Y-73080555D02*
X88621186Y-73080555D01*
X114093786Y-56384041D02*
X114093786Y-55571241D01*
X114093786Y-55571241D02*
X114364720Y-56151813D01*
X114364720Y-56151813D02*
X114635653Y-55571241D01*
X114635653Y-55571241D02*
X114635653Y-56384041D01*
X115371043Y-56384041D02*
X115371043Y-55958289D01*
X115371043Y-55958289D02*
X115332338Y-55880879D01*
X115332338Y-55880879D02*
X115254929Y-55842175D01*
X115254929Y-55842175D02*
X115100110Y-55842175D01*
X115100110Y-55842175D02*
X115022700Y-55880879D01*
X115371043Y-56345337D02*
X115293634Y-56384041D01*
X115293634Y-56384041D02*
X115100110Y-56384041D01*
X115100110Y-56384041D02*
X115022700Y-56345337D01*
X115022700Y-56345337D02*
X114983996Y-56267927D01*
X114983996Y-56267927D02*
X114983996Y-56190517D01*
X114983996Y-56190517D02*
X115022700Y-56113108D01*
X115022700Y-56113108D02*
X115100110Y-56074403D01*
X115100110Y-56074403D02*
X115293634Y-56074403D01*
X115293634Y-56074403D02*
X115371043Y-56035698D01*
X115758090Y-56384041D02*
X115758090Y-55571241D01*
X115835500Y-56074403D02*
X116067728Y-56384041D01*
X116067728Y-55842175D02*
X115758090Y-56151813D01*
X116725709Y-56345337D02*
X116648300Y-56384041D01*
X116648300Y-56384041D02*
X116493481Y-56384041D01*
X116493481Y-56384041D02*
X116416071Y-56345337D01*
X116416071Y-56345337D02*
X116377367Y-56267927D01*
X116377367Y-56267927D02*
X116377367Y-55958289D01*
X116377367Y-55958289D02*
X116416071Y-55880879D01*
X116416071Y-55880879D02*
X116493481Y-55842175D01*
X116493481Y-55842175D02*
X116648300Y-55842175D01*
X116648300Y-55842175D02*
X116725709Y-55880879D01*
X116725709Y-55880879D02*
X116764414Y-55958289D01*
X116764414Y-55958289D02*
X116764414Y-56035698D01*
X116764414Y-56035698D02*
X116377367Y-56113108D01*
X117035348Y-55842175D02*
X117228872Y-56384041D01*
X117422395Y-55842175D02*
X117228872Y-56384041D01*
X117228872Y-56384041D02*
X117151462Y-56577565D01*
X117151462Y-56577565D02*
X117112757Y-56616270D01*
X117112757Y-56616270D02*
X117035348Y-56654975D01*
X117732033Y-56384041D02*
X117732033Y-55571241D01*
X117732033Y-55571241D02*
X117925557Y-55571241D01*
X117925557Y-55571241D02*
X118041671Y-55609946D01*
X118041671Y-55609946D02*
X118119081Y-55687356D01*
X118119081Y-55687356D02*
X118157786Y-55764765D01*
X118157786Y-55764765D02*
X118196490Y-55919584D01*
X118196490Y-55919584D02*
X118196490Y-56035698D01*
X118196490Y-56035698D02*
X118157786Y-56190517D01*
X118157786Y-56190517D02*
X118119081Y-56267927D01*
X118119081Y-56267927D02*
X118041671Y-56345337D01*
X118041671Y-56345337D02*
X117925557Y-56384041D01*
X117925557Y-56384041D02*
X117732033Y-56384041D01*
X118660948Y-56384041D02*
X118583538Y-56345337D01*
X118583538Y-56345337D02*
X118544833Y-56306632D01*
X118544833Y-56306632D02*
X118506129Y-56229222D01*
X118506129Y-56229222D02*
X118506129Y-55996994D01*
X118506129Y-55996994D02*
X118544833Y-55919584D01*
X118544833Y-55919584D02*
X118583538Y-55880879D01*
X118583538Y-55880879D02*
X118660948Y-55842175D01*
X118660948Y-55842175D02*
X118777062Y-55842175D01*
X118777062Y-55842175D02*
X118854471Y-55880879D01*
X118854471Y-55880879D02*
X118893176Y-55919584D01*
X118893176Y-55919584D02*
X118931881Y-55996994D01*
X118931881Y-55996994D02*
X118931881Y-56229222D01*
X118931881Y-56229222D02*
X118893176Y-56306632D01*
X118893176Y-56306632D02*
X118854471Y-56345337D01*
X118854471Y-56345337D02*
X118777062Y-56384041D01*
X118777062Y-56384041D02*
X118660948Y-56384041D01*
X119396338Y-56384041D02*
X119318928Y-56345337D01*
X119318928Y-56345337D02*
X119280223Y-56306632D01*
X119280223Y-56306632D02*
X119241519Y-56229222D01*
X119241519Y-56229222D02*
X119241519Y-55996994D01*
X119241519Y-55996994D02*
X119280223Y-55919584D01*
X119280223Y-55919584D02*
X119318928Y-55880879D01*
X119318928Y-55880879D02*
X119396338Y-55842175D01*
X119396338Y-55842175D02*
X119512452Y-55842175D01*
X119512452Y-55842175D02*
X119589861Y-55880879D01*
X119589861Y-55880879D02*
X119628566Y-55919584D01*
X119628566Y-55919584D02*
X119667271Y-55996994D01*
X119667271Y-55996994D02*
X119667271Y-56229222D01*
X119667271Y-56229222D02*
X119628566Y-56306632D01*
X119628566Y-56306632D02*
X119589861Y-56345337D01*
X119589861Y-56345337D02*
X119512452Y-56384041D01*
X119512452Y-56384041D02*
X119396338Y-56384041D01*
X120325251Y-56345337D02*
X120247842Y-56384041D01*
X120247842Y-56384041D02*
X120093023Y-56384041D01*
X120093023Y-56384041D02*
X120015613Y-56345337D01*
X120015613Y-56345337D02*
X119976909Y-56267927D01*
X119976909Y-56267927D02*
X119976909Y-55958289D01*
X119976909Y-55958289D02*
X120015613Y-55880879D01*
X120015613Y-55880879D02*
X120093023Y-55842175D01*
X120093023Y-55842175D02*
X120247842Y-55842175D01*
X120247842Y-55842175D02*
X120325251Y-55880879D01*
X120325251Y-55880879D02*
X120363956Y-55958289D01*
X120363956Y-55958289D02*
X120363956Y-56035698D01*
X120363956Y-56035698D02*
X119976909Y-56113108D01*
X120634890Y-55842175D02*
X120828414Y-56384041D01*
X121021937Y-55842175D02*
X120828414Y-56384041D01*
X120828414Y-56384041D02*
X120751004Y-56577565D01*
X120751004Y-56577565D02*
X120712299Y-56616270D01*
X120712299Y-56616270D02*
X120634890Y-56654975D01*
X114093786Y-57692603D02*
X114093786Y-56879803D01*
X114093786Y-56879803D02*
X114364720Y-57460375D01*
X114364720Y-57460375D02*
X114635653Y-56879803D01*
X114635653Y-56879803D02*
X114635653Y-57692603D01*
X115371043Y-57692603D02*
X115371043Y-57266851D01*
X115371043Y-57266851D02*
X115332338Y-57189441D01*
X115332338Y-57189441D02*
X115254929Y-57150737D01*
X115254929Y-57150737D02*
X115100110Y-57150737D01*
X115100110Y-57150737D02*
X115022700Y-57189441D01*
X115371043Y-57653899D02*
X115293634Y-57692603D01*
X115293634Y-57692603D02*
X115100110Y-57692603D01*
X115100110Y-57692603D02*
X115022700Y-57653899D01*
X115022700Y-57653899D02*
X114983996Y-57576489D01*
X114983996Y-57576489D02*
X114983996Y-57499079D01*
X114983996Y-57499079D02*
X115022700Y-57421670D01*
X115022700Y-57421670D02*
X115100110Y-57382965D01*
X115100110Y-57382965D02*
X115293634Y-57382965D01*
X115293634Y-57382965D02*
X115371043Y-57344260D01*
X115758090Y-57692603D02*
X115758090Y-57150737D01*
X115758090Y-56879803D02*
X115719386Y-56918508D01*
X115719386Y-56918508D02*
X115758090Y-56957213D01*
X115758090Y-56957213D02*
X115796795Y-56918508D01*
X115796795Y-56918508D02*
X115758090Y-56879803D01*
X115758090Y-56879803D02*
X115758090Y-56957213D01*
X116145138Y-57150737D02*
X116145138Y-57692603D01*
X116145138Y-57228146D02*
X116183843Y-57189441D01*
X116183843Y-57189441D02*
X116261253Y-57150737D01*
X116261253Y-57150737D02*
X116377367Y-57150737D01*
X116377367Y-57150737D02*
X116454776Y-57189441D01*
X116454776Y-57189441D02*
X116493481Y-57266851D01*
X116493481Y-57266851D02*
X116493481Y-57692603D01*
X117383690Y-56879803D02*
X117848147Y-56879803D01*
X117615919Y-57692603D02*
X117615919Y-56879803D01*
X118235195Y-57692603D02*
X118157785Y-57653899D01*
X118157785Y-57653899D02*
X118119080Y-57615194D01*
X118119080Y-57615194D02*
X118080376Y-57537784D01*
X118080376Y-57537784D02*
X118080376Y-57305556D01*
X118080376Y-57305556D02*
X118119080Y-57228146D01*
X118119080Y-57228146D02*
X118157785Y-57189441D01*
X118157785Y-57189441D02*
X118235195Y-57150737D01*
X118235195Y-57150737D02*
X118351309Y-57150737D01*
X118351309Y-57150737D02*
X118428718Y-57189441D01*
X118428718Y-57189441D02*
X118467423Y-57228146D01*
X118467423Y-57228146D02*
X118506128Y-57305556D01*
X118506128Y-57305556D02*
X118506128Y-57537784D01*
X118506128Y-57537784D02*
X118467423Y-57615194D01*
X118467423Y-57615194D02*
X118428718Y-57653899D01*
X118428718Y-57653899D02*
X118351309Y-57692603D01*
X118351309Y-57692603D02*
X118235195Y-57692603D01*
X118738356Y-57150737D02*
X119047994Y-57150737D01*
X118854470Y-56879803D02*
X118854470Y-57576489D01*
X118854470Y-57576489D02*
X118893175Y-57653899D01*
X118893175Y-57653899D02*
X118970585Y-57692603D01*
X118970585Y-57692603D02*
X119047994Y-57692603D01*
X119628565Y-57653899D02*
X119551156Y-57692603D01*
X119551156Y-57692603D02*
X119396337Y-57692603D01*
X119396337Y-57692603D02*
X119318927Y-57653899D01*
X119318927Y-57653899D02*
X119280223Y-57576489D01*
X119280223Y-57576489D02*
X119280223Y-57266851D01*
X119280223Y-57266851D02*
X119318927Y-57189441D01*
X119318927Y-57189441D02*
X119396337Y-57150737D01*
X119396337Y-57150737D02*
X119551156Y-57150737D01*
X119551156Y-57150737D02*
X119628565Y-57189441D01*
X119628565Y-57189441D02*
X119667270Y-57266851D01*
X119667270Y-57266851D02*
X119667270Y-57344260D01*
X119667270Y-57344260D02*
X119280223Y-57421670D01*
X120015613Y-57692603D02*
X120015613Y-57150737D01*
X120015613Y-57228146D02*
X120054318Y-57189441D01*
X120054318Y-57189441D02*
X120131728Y-57150737D01*
X120131728Y-57150737D02*
X120247842Y-57150737D01*
X120247842Y-57150737D02*
X120325251Y-57189441D01*
X120325251Y-57189441D02*
X120363956Y-57266851D01*
X120363956Y-57266851D02*
X120363956Y-57692603D01*
X120363956Y-57266851D02*
X120402661Y-57189441D01*
X120402661Y-57189441D02*
X120480070Y-57150737D01*
X120480070Y-57150737D02*
X120596185Y-57150737D01*
X120596185Y-57150737D02*
X120673594Y-57189441D01*
X120673594Y-57189441D02*
X120712299Y-57266851D01*
X120712299Y-57266851D02*
X120712299Y-57692603D01*
X121602508Y-56879803D02*
X121873441Y-57692603D01*
X121873441Y-57692603D02*
X122144375Y-56879803D01*
X122841061Y-57692603D02*
X122376604Y-57692603D01*
X122608832Y-57692603D02*
X122608832Y-56879803D01*
X122608832Y-56879803D02*
X122531423Y-56995918D01*
X122531423Y-56995918D02*
X122454013Y-57073327D01*
X122454013Y-57073327D02*
X122376604Y-57112032D01*
X114708243Y-59431632D02*
X114669539Y-59470337D01*
X114669539Y-59470337D02*
X114553424Y-59509041D01*
X114553424Y-59509041D02*
X114476015Y-59509041D01*
X114476015Y-59509041D02*
X114359901Y-59470337D01*
X114359901Y-59470337D02*
X114282491Y-59392927D01*
X114282491Y-59392927D02*
X114243786Y-59315517D01*
X114243786Y-59315517D02*
X114205082Y-59160698D01*
X114205082Y-59160698D02*
X114205082Y-59044584D01*
X114205082Y-59044584D02*
X114243786Y-58889765D01*
X114243786Y-58889765D02*
X114282491Y-58812356D01*
X114282491Y-58812356D02*
X114359901Y-58734946D01*
X114359901Y-58734946D02*
X114476015Y-58696241D01*
X114476015Y-58696241D02*
X114553424Y-58696241D01*
X114553424Y-58696241D02*
X114669539Y-58734946D01*
X114669539Y-58734946D02*
X114708243Y-58773651D01*
X115056586Y-59509041D02*
X115056586Y-58696241D01*
X115404929Y-59509041D02*
X115404929Y-59083289D01*
X115404929Y-59083289D02*
X115366224Y-59005879D01*
X115366224Y-59005879D02*
X115288815Y-58967175D01*
X115288815Y-58967175D02*
X115172701Y-58967175D01*
X115172701Y-58967175D02*
X115095291Y-59005879D01*
X115095291Y-59005879D02*
X115056586Y-59044584D01*
X116101614Y-59470337D02*
X116024205Y-59509041D01*
X116024205Y-59509041D02*
X115869386Y-59509041D01*
X115869386Y-59509041D02*
X115791976Y-59470337D01*
X115791976Y-59470337D02*
X115753272Y-59392927D01*
X115753272Y-59392927D02*
X115753272Y-59083289D01*
X115753272Y-59083289D02*
X115791976Y-59005879D01*
X115791976Y-59005879D02*
X115869386Y-58967175D01*
X115869386Y-58967175D02*
X116024205Y-58967175D01*
X116024205Y-58967175D02*
X116101614Y-59005879D01*
X116101614Y-59005879D02*
X116140319Y-59083289D01*
X116140319Y-59083289D02*
X116140319Y-59160698D01*
X116140319Y-59160698D02*
X115753272Y-59238108D01*
X116837005Y-59470337D02*
X116759596Y-59509041D01*
X116759596Y-59509041D02*
X116604777Y-59509041D01*
X116604777Y-59509041D02*
X116527367Y-59470337D01*
X116527367Y-59470337D02*
X116488662Y-59431632D01*
X116488662Y-59431632D02*
X116449958Y-59354222D01*
X116449958Y-59354222D02*
X116449958Y-59121994D01*
X116449958Y-59121994D02*
X116488662Y-59044584D01*
X116488662Y-59044584D02*
X116527367Y-59005879D01*
X116527367Y-59005879D02*
X116604777Y-58967175D01*
X116604777Y-58967175D02*
X116759596Y-58967175D01*
X116759596Y-58967175D02*
X116837005Y-59005879D01*
X117185348Y-59509041D02*
X117185348Y-58696241D01*
X117262758Y-59199403D02*
X117494986Y-59509041D01*
X117494986Y-58967175D02*
X117185348Y-59276813D01*
X118578720Y-59509041D02*
X118501310Y-59470337D01*
X118501310Y-59470337D02*
X118462605Y-59431632D01*
X118462605Y-59431632D02*
X118423901Y-59354222D01*
X118423901Y-59354222D02*
X118423901Y-59121994D01*
X118423901Y-59121994D02*
X118462605Y-59044584D01*
X118462605Y-59044584D02*
X118501310Y-59005879D01*
X118501310Y-59005879D02*
X118578720Y-58967175D01*
X118578720Y-58967175D02*
X118694834Y-58967175D01*
X118694834Y-58967175D02*
X118772243Y-59005879D01*
X118772243Y-59005879D02*
X118810948Y-59044584D01*
X118810948Y-59044584D02*
X118849653Y-59121994D01*
X118849653Y-59121994D02*
X118849653Y-59354222D01*
X118849653Y-59354222D02*
X118810948Y-59431632D01*
X118810948Y-59431632D02*
X118772243Y-59470337D01*
X118772243Y-59470337D02*
X118694834Y-59509041D01*
X118694834Y-59509041D02*
X118578720Y-59509041D01*
X119546338Y-58967175D02*
X119546338Y-59509041D01*
X119197995Y-58967175D02*
X119197995Y-59392927D01*
X119197995Y-59392927D02*
X119236700Y-59470337D01*
X119236700Y-59470337D02*
X119314110Y-59509041D01*
X119314110Y-59509041D02*
X119430224Y-59509041D01*
X119430224Y-59509041D02*
X119507633Y-59470337D01*
X119507633Y-59470337D02*
X119546338Y-59431632D01*
X119817271Y-58967175D02*
X120126909Y-58967175D01*
X119933385Y-58696241D02*
X119933385Y-59392927D01*
X119933385Y-59392927D02*
X119972090Y-59470337D01*
X119972090Y-59470337D02*
X120049500Y-59509041D01*
X120049500Y-59509041D02*
X120126909Y-59509041D01*
X121133233Y-59509041D02*
X121055823Y-59470337D01*
X121055823Y-59470337D02*
X121017118Y-59431632D01*
X121017118Y-59431632D02*
X120978414Y-59354222D01*
X120978414Y-59354222D02*
X120978414Y-59121994D01*
X120978414Y-59121994D02*
X121017118Y-59044584D01*
X121017118Y-59044584D02*
X121055823Y-59005879D01*
X121055823Y-59005879D02*
X121133233Y-58967175D01*
X121133233Y-58967175D02*
X121249347Y-58967175D01*
X121249347Y-58967175D02*
X121326756Y-59005879D01*
X121326756Y-59005879D02*
X121365461Y-59044584D01*
X121365461Y-59044584D02*
X121404166Y-59121994D01*
X121404166Y-59121994D02*
X121404166Y-59354222D01*
X121404166Y-59354222D02*
X121365461Y-59431632D01*
X121365461Y-59431632D02*
X121326756Y-59470337D01*
X121326756Y-59470337D02*
X121249347Y-59509041D01*
X121249347Y-59509041D02*
X121133233Y-59509041D01*
X122100851Y-58967175D02*
X122100851Y-59509041D01*
X121752508Y-58967175D02*
X121752508Y-59392927D01*
X121752508Y-59392927D02*
X121791213Y-59470337D01*
X121791213Y-59470337D02*
X121868623Y-59509041D01*
X121868623Y-59509041D02*
X121984737Y-59509041D01*
X121984737Y-59509041D02*
X122062146Y-59470337D01*
X122062146Y-59470337D02*
X122100851Y-59431632D01*
X122487898Y-59509041D02*
X122487898Y-58967175D01*
X122487898Y-59121994D02*
X122526603Y-59044584D01*
X122526603Y-59044584D02*
X122565308Y-59005879D01*
X122565308Y-59005879D02*
X122642717Y-58967175D01*
X122642717Y-58967175D02*
X122720127Y-58967175D01*
X123610336Y-58967175D02*
X123610336Y-59779975D01*
X123610336Y-59005879D02*
X123687746Y-58967175D01*
X123687746Y-58967175D02*
X123842565Y-58967175D01*
X123842565Y-58967175D02*
X123919974Y-59005879D01*
X123919974Y-59005879D02*
X123958679Y-59044584D01*
X123958679Y-59044584D02*
X123997384Y-59121994D01*
X123997384Y-59121994D02*
X123997384Y-59354222D01*
X123997384Y-59354222D02*
X123958679Y-59431632D01*
X123958679Y-59431632D02*
X123919974Y-59470337D01*
X123919974Y-59470337D02*
X123842565Y-59509041D01*
X123842565Y-59509041D02*
X123687746Y-59509041D01*
X123687746Y-59509041D02*
X123610336Y-59470337D01*
X124461841Y-59509041D02*
X124384431Y-59470337D01*
X124384431Y-59470337D02*
X124345726Y-59392927D01*
X124345726Y-59392927D02*
X124345726Y-58696241D01*
X125119821Y-59509041D02*
X125119821Y-59083289D01*
X125119821Y-59083289D02*
X125081116Y-59005879D01*
X125081116Y-59005879D02*
X125003707Y-58967175D01*
X125003707Y-58967175D02*
X124848888Y-58967175D01*
X124848888Y-58967175D02*
X124771478Y-59005879D01*
X125119821Y-59470337D02*
X125042412Y-59509041D01*
X125042412Y-59509041D02*
X124848888Y-59509041D01*
X124848888Y-59509041D02*
X124771478Y-59470337D01*
X124771478Y-59470337D02*
X124732774Y-59392927D01*
X124732774Y-59392927D02*
X124732774Y-59315517D01*
X124732774Y-59315517D02*
X124771478Y-59238108D01*
X124771478Y-59238108D02*
X124848888Y-59199403D01*
X124848888Y-59199403D02*
X125042412Y-59199403D01*
X125042412Y-59199403D02*
X125119821Y-59160698D01*
X125390754Y-58967175D02*
X125700392Y-58967175D01*
X125506868Y-58696241D02*
X125506868Y-59392927D01*
X125506868Y-59392927D02*
X125545573Y-59470337D01*
X125545573Y-59470337D02*
X125622983Y-59509041D01*
X125622983Y-59509041D02*
X125700392Y-59509041D01*
X125855211Y-58967175D02*
X126164849Y-58967175D01*
X125971325Y-59509041D02*
X125971325Y-58812356D01*
X125971325Y-58812356D02*
X126010030Y-58734946D01*
X126010030Y-58734946D02*
X126087440Y-58696241D01*
X126087440Y-58696241D02*
X126164849Y-58696241D01*
X126551897Y-59509041D02*
X126474487Y-59470337D01*
X126474487Y-59470337D02*
X126435782Y-59431632D01*
X126435782Y-59431632D02*
X126397078Y-59354222D01*
X126397078Y-59354222D02*
X126397078Y-59121994D01*
X126397078Y-59121994D02*
X126435782Y-59044584D01*
X126435782Y-59044584D02*
X126474487Y-59005879D01*
X126474487Y-59005879D02*
X126551897Y-58967175D01*
X126551897Y-58967175D02*
X126668011Y-58967175D01*
X126668011Y-58967175D02*
X126745420Y-59005879D01*
X126745420Y-59005879D02*
X126784125Y-59044584D01*
X126784125Y-59044584D02*
X126822830Y-59121994D01*
X126822830Y-59121994D02*
X126822830Y-59354222D01*
X126822830Y-59354222D02*
X126784125Y-59431632D01*
X126784125Y-59431632D02*
X126745420Y-59470337D01*
X126745420Y-59470337D02*
X126668011Y-59509041D01*
X126668011Y-59509041D02*
X126551897Y-59509041D01*
X127171172Y-59509041D02*
X127171172Y-58967175D01*
X127171172Y-59121994D02*
X127209877Y-59044584D01*
X127209877Y-59044584D02*
X127248582Y-59005879D01*
X127248582Y-59005879D02*
X127325991Y-58967175D01*
X127325991Y-58967175D02*
X127403401Y-58967175D01*
X127674334Y-59509041D02*
X127674334Y-58967175D01*
X127674334Y-59044584D02*
X127713039Y-59005879D01*
X127713039Y-59005879D02*
X127790449Y-58967175D01*
X127790449Y-58967175D02*
X127906563Y-58967175D01*
X127906563Y-58967175D02*
X127983972Y-59005879D01*
X127983972Y-59005879D02*
X128022677Y-59083289D01*
X128022677Y-59083289D02*
X128022677Y-59509041D01*
X128022677Y-59083289D02*
X128061382Y-59005879D01*
X128061382Y-59005879D02*
X128138791Y-58967175D01*
X128138791Y-58967175D02*
X128254906Y-58967175D01*
X128254906Y-58967175D02*
X128332315Y-59005879D01*
X128332315Y-59005879D02*
X128371020Y-59083289D01*
X128371020Y-59083289D02*
X128371020Y-59509041D01*
X128758067Y-59431632D02*
X128796772Y-59470337D01*
X128796772Y-59470337D02*
X128758067Y-59509041D01*
X128758067Y-59509041D02*
X128719363Y-59470337D01*
X128719363Y-59470337D02*
X128758067Y-59431632D01*
X128758067Y-59431632D02*
X128758067Y-59509041D01*
X128758067Y-59199403D02*
X128719363Y-58734946D01*
X128719363Y-58734946D02*
X128758067Y-58696241D01*
X128758067Y-58696241D02*
X128796772Y-58734946D01*
X128796772Y-58734946D02*
X128758067Y-59199403D01*
X128758067Y-59199403D02*
X128758067Y-58696241D01*
X114243786Y-60817603D02*
X114243786Y-60004803D01*
X114592129Y-60817603D02*
X114592129Y-60391851D01*
X114592129Y-60391851D02*
X114553424Y-60314441D01*
X114553424Y-60314441D02*
X114476015Y-60275737D01*
X114476015Y-60275737D02*
X114359901Y-60275737D01*
X114359901Y-60275737D02*
X114282491Y-60314441D01*
X114282491Y-60314441D02*
X114243786Y-60353146D01*
X114863062Y-60275737D02*
X115172700Y-60275737D01*
X114979176Y-60004803D02*
X114979176Y-60701489D01*
X114979176Y-60701489D02*
X115017881Y-60778899D01*
X115017881Y-60778899D02*
X115095291Y-60817603D01*
X115095291Y-60817603D02*
X115172700Y-60817603D01*
X115327519Y-60275737D02*
X115637157Y-60275737D01*
X115443633Y-60004803D02*
X115443633Y-60701489D01*
X115443633Y-60701489D02*
X115482338Y-60778899D01*
X115482338Y-60778899D02*
X115559748Y-60817603D01*
X115559748Y-60817603D02*
X115637157Y-60817603D01*
X115908090Y-60275737D02*
X115908090Y-61088537D01*
X115908090Y-60314441D02*
X115985500Y-60275737D01*
X115985500Y-60275737D02*
X116140319Y-60275737D01*
X116140319Y-60275737D02*
X116217728Y-60314441D01*
X116217728Y-60314441D02*
X116256433Y-60353146D01*
X116256433Y-60353146D02*
X116295138Y-60430556D01*
X116295138Y-60430556D02*
X116295138Y-60662784D01*
X116295138Y-60662784D02*
X116256433Y-60740194D01*
X116256433Y-60740194D02*
X116217728Y-60778899D01*
X116217728Y-60778899D02*
X116140319Y-60817603D01*
X116140319Y-60817603D02*
X115985500Y-60817603D01*
X115985500Y-60817603D02*
X115908090Y-60778899D01*
X116604776Y-60778899D02*
X116682185Y-60817603D01*
X116682185Y-60817603D02*
X116837004Y-60817603D01*
X116837004Y-60817603D02*
X116914414Y-60778899D01*
X116914414Y-60778899D02*
X116953118Y-60701489D01*
X116953118Y-60701489D02*
X116953118Y-60662784D01*
X116953118Y-60662784D02*
X116914414Y-60585375D01*
X116914414Y-60585375D02*
X116837004Y-60546670D01*
X116837004Y-60546670D02*
X116720890Y-60546670D01*
X116720890Y-60546670D02*
X116643480Y-60507965D01*
X116643480Y-60507965D02*
X116604776Y-60430556D01*
X116604776Y-60430556D02*
X116604776Y-60391851D01*
X116604776Y-60391851D02*
X116643480Y-60314441D01*
X116643480Y-60314441D02*
X116720890Y-60275737D01*
X116720890Y-60275737D02*
X116837004Y-60275737D01*
X116837004Y-60275737D02*
X116914414Y-60314441D01*
X117301461Y-60740194D02*
X117340166Y-60778899D01*
X117340166Y-60778899D02*
X117301461Y-60817603D01*
X117301461Y-60817603D02*
X117262757Y-60778899D01*
X117262757Y-60778899D02*
X117301461Y-60740194D01*
X117301461Y-60740194D02*
X117301461Y-60817603D01*
X117301461Y-60314441D02*
X117340166Y-60353146D01*
X117340166Y-60353146D02*
X117301461Y-60391851D01*
X117301461Y-60391851D02*
X117262757Y-60353146D01*
X117262757Y-60353146D02*
X117301461Y-60314441D01*
X117301461Y-60314441D02*
X117301461Y-60391851D01*
X118269081Y-59966099D02*
X117572395Y-61011127D01*
X119120586Y-59966099D02*
X118423900Y-61011127D01*
X119739862Y-60275737D02*
X119739862Y-60933718D01*
X119739862Y-60933718D02*
X119701157Y-61011127D01*
X119701157Y-61011127D02*
X119662453Y-61049832D01*
X119662453Y-61049832D02*
X119585043Y-61088537D01*
X119585043Y-61088537D02*
X119468929Y-61088537D01*
X119468929Y-61088537D02*
X119391519Y-61049832D01*
X119739862Y-60778899D02*
X119662453Y-60817603D01*
X119662453Y-60817603D02*
X119507634Y-60817603D01*
X119507634Y-60817603D02*
X119430224Y-60778899D01*
X119430224Y-60778899D02*
X119391519Y-60740194D01*
X119391519Y-60740194D02*
X119352815Y-60662784D01*
X119352815Y-60662784D02*
X119352815Y-60430556D01*
X119352815Y-60430556D02*
X119391519Y-60353146D01*
X119391519Y-60353146D02*
X119430224Y-60314441D01*
X119430224Y-60314441D02*
X119507634Y-60275737D01*
X119507634Y-60275737D02*
X119662453Y-60275737D01*
X119662453Y-60275737D02*
X119739862Y-60314441D01*
X120126909Y-60817603D02*
X120126909Y-60275737D01*
X120126909Y-60004803D02*
X120088205Y-60043508D01*
X120088205Y-60043508D02*
X120126909Y-60082213D01*
X120126909Y-60082213D02*
X120165614Y-60043508D01*
X120165614Y-60043508D02*
X120126909Y-60004803D01*
X120126909Y-60004803D02*
X120126909Y-60082213D01*
X120397843Y-60275737D02*
X120707481Y-60275737D01*
X120513957Y-60004803D02*
X120513957Y-60701489D01*
X120513957Y-60701489D02*
X120552662Y-60778899D01*
X120552662Y-60778899D02*
X120630072Y-60817603D01*
X120630072Y-60817603D02*
X120707481Y-60817603D01*
X120978414Y-60817603D02*
X120978414Y-60004803D01*
X121326757Y-60817603D02*
X121326757Y-60391851D01*
X121326757Y-60391851D02*
X121288052Y-60314441D01*
X121288052Y-60314441D02*
X121210643Y-60275737D01*
X121210643Y-60275737D02*
X121094529Y-60275737D01*
X121094529Y-60275737D02*
X121017119Y-60314441D01*
X121017119Y-60314441D02*
X120978414Y-60353146D01*
X122062147Y-60275737D02*
X122062147Y-60817603D01*
X121713804Y-60275737D02*
X121713804Y-60701489D01*
X121713804Y-60701489D02*
X121752509Y-60778899D01*
X121752509Y-60778899D02*
X121829919Y-60817603D01*
X121829919Y-60817603D02*
X121946033Y-60817603D01*
X121946033Y-60817603D02*
X122023442Y-60778899D01*
X122023442Y-60778899D02*
X122062147Y-60740194D01*
X122449194Y-60817603D02*
X122449194Y-60004803D01*
X122449194Y-60314441D02*
X122526604Y-60275737D01*
X122526604Y-60275737D02*
X122681423Y-60275737D01*
X122681423Y-60275737D02*
X122758832Y-60314441D01*
X122758832Y-60314441D02*
X122797537Y-60353146D01*
X122797537Y-60353146D02*
X122836242Y-60430556D01*
X122836242Y-60430556D02*
X122836242Y-60662784D01*
X122836242Y-60662784D02*
X122797537Y-60740194D01*
X122797537Y-60740194D02*
X122758832Y-60778899D01*
X122758832Y-60778899D02*
X122681423Y-60817603D01*
X122681423Y-60817603D02*
X122526604Y-60817603D01*
X122526604Y-60817603D02*
X122449194Y-60778899D01*
X123184584Y-60740194D02*
X123223289Y-60778899D01*
X123223289Y-60778899D02*
X123184584Y-60817603D01*
X123184584Y-60817603D02*
X123145880Y-60778899D01*
X123145880Y-60778899D02*
X123184584Y-60740194D01*
X123184584Y-60740194D02*
X123184584Y-60817603D01*
X123919975Y-60778899D02*
X123842566Y-60817603D01*
X123842566Y-60817603D02*
X123687747Y-60817603D01*
X123687747Y-60817603D02*
X123610337Y-60778899D01*
X123610337Y-60778899D02*
X123571632Y-60740194D01*
X123571632Y-60740194D02*
X123532928Y-60662784D01*
X123532928Y-60662784D02*
X123532928Y-60430556D01*
X123532928Y-60430556D02*
X123571632Y-60353146D01*
X123571632Y-60353146D02*
X123610337Y-60314441D01*
X123610337Y-60314441D02*
X123687747Y-60275737D01*
X123687747Y-60275737D02*
X123842566Y-60275737D01*
X123842566Y-60275737D02*
X123919975Y-60314441D01*
X124384433Y-60817603D02*
X124307023Y-60778899D01*
X124307023Y-60778899D02*
X124268318Y-60740194D01*
X124268318Y-60740194D02*
X124229614Y-60662784D01*
X124229614Y-60662784D02*
X124229614Y-60430556D01*
X124229614Y-60430556D02*
X124268318Y-60353146D01*
X124268318Y-60353146D02*
X124307023Y-60314441D01*
X124307023Y-60314441D02*
X124384433Y-60275737D01*
X124384433Y-60275737D02*
X124500547Y-60275737D01*
X124500547Y-60275737D02*
X124577956Y-60314441D01*
X124577956Y-60314441D02*
X124616661Y-60353146D01*
X124616661Y-60353146D02*
X124655366Y-60430556D01*
X124655366Y-60430556D02*
X124655366Y-60662784D01*
X124655366Y-60662784D02*
X124616661Y-60740194D01*
X124616661Y-60740194D02*
X124577956Y-60778899D01*
X124577956Y-60778899D02*
X124500547Y-60817603D01*
X124500547Y-60817603D02*
X124384433Y-60817603D01*
X125003708Y-60817603D02*
X125003708Y-60275737D01*
X125003708Y-60353146D02*
X125042413Y-60314441D01*
X125042413Y-60314441D02*
X125119823Y-60275737D01*
X125119823Y-60275737D02*
X125235937Y-60275737D01*
X125235937Y-60275737D02*
X125313346Y-60314441D01*
X125313346Y-60314441D02*
X125352051Y-60391851D01*
X125352051Y-60391851D02*
X125352051Y-60817603D01*
X125352051Y-60391851D02*
X125390756Y-60314441D01*
X125390756Y-60314441D02*
X125468165Y-60275737D01*
X125468165Y-60275737D02*
X125584280Y-60275737D01*
X125584280Y-60275737D02*
X125661689Y-60314441D01*
X125661689Y-60314441D02*
X125700394Y-60391851D01*
X125700394Y-60391851D02*
X125700394Y-60817603D01*
X126668013Y-59966099D02*
X125971327Y-61011127D01*
X126938946Y-60817603D02*
X126938946Y-60004803D01*
X126938946Y-60004803D02*
X127209880Y-60585375D01*
X127209880Y-60585375D02*
X127480813Y-60004803D01*
X127480813Y-60004803D02*
X127480813Y-60817603D01*
X128216203Y-60817603D02*
X128216203Y-60391851D01*
X128216203Y-60391851D02*
X128177498Y-60314441D01*
X128177498Y-60314441D02*
X128100089Y-60275737D01*
X128100089Y-60275737D02*
X127945270Y-60275737D01*
X127945270Y-60275737D02*
X127867860Y-60314441D01*
X128216203Y-60778899D02*
X128138794Y-60817603D01*
X128138794Y-60817603D02*
X127945270Y-60817603D01*
X127945270Y-60817603D02*
X127867860Y-60778899D01*
X127867860Y-60778899D02*
X127829156Y-60701489D01*
X127829156Y-60701489D02*
X127829156Y-60624079D01*
X127829156Y-60624079D02*
X127867860Y-60546670D01*
X127867860Y-60546670D02*
X127945270Y-60507965D01*
X127945270Y-60507965D02*
X128138794Y-60507965D01*
X128138794Y-60507965D02*
X128216203Y-60469260D01*
X128603250Y-60817603D02*
X128603250Y-60004803D01*
X128680660Y-60507965D02*
X128912888Y-60817603D01*
X128912888Y-60275737D02*
X128603250Y-60585375D01*
X129570869Y-60778899D02*
X129493460Y-60817603D01*
X129493460Y-60817603D02*
X129338641Y-60817603D01*
X129338641Y-60817603D02*
X129261231Y-60778899D01*
X129261231Y-60778899D02*
X129222527Y-60701489D01*
X129222527Y-60701489D02*
X129222527Y-60391851D01*
X129222527Y-60391851D02*
X129261231Y-60314441D01*
X129261231Y-60314441D02*
X129338641Y-60275737D01*
X129338641Y-60275737D02*
X129493460Y-60275737D01*
X129493460Y-60275737D02*
X129570869Y-60314441D01*
X129570869Y-60314441D02*
X129609574Y-60391851D01*
X129609574Y-60391851D02*
X129609574Y-60469260D01*
X129609574Y-60469260D02*
X129222527Y-60546670D01*
X129880508Y-60275737D02*
X130074032Y-60817603D01*
X130267555Y-60275737D02*
X130074032Y-60817603D01*
X130074032Y-60817603D02*
X129996622Y-61011127D01*
X129996622Y-61011127D02*
X129957917Y-61049832D01*
X129957917Y-61049832D02*
X129880508Y-61088537D01*
X130577193Y-60817603D02*
X130577193Y-60004803D01*
X130577193Y-60004803D02*
X130770717Y-60004803D01*
X130770717Y-60004803D02*
X130886831Y-60043508D01*
X130886831Y-60043508D02*
X130964241Y-60120918D01*
X130964241Y-60120918D02*
X131002946Y-60198327D01*
X131002946Y-60198327D02*
X131041650Y-60353146D01*
X131041650Y-60353146D02*
X131041650Y-60469260D01*
X131041650Y-60469260D02*
X131002946Y-60624079D01*
X131002946Y-60624079D02*
X130964241Y-60701489D01*
X130964241Y-60701489D02*
X130886831Y-60778899D01*
X130886831Y-60778899D02*
X130770717Y-60817603D01*
X130770717Y-60817603D02*
X130577193Y-60817603D01*
X131506108Y-60817603D02*
X131428698Y-60778899D01*
X131428698Y-60778899D02*
X131389993Y-60740194D01*
X131389993Y-60740194D02*
X131351289Y-60662784D01*
X131351289Y-60662784D02*
X131351289Y-60430556D01*
X131351289Y-60430556D02*
X131389993Y-60353146D01*
X131389993Y-60353146D02*
X131428698Y-60314441D01*
X131428698Y-60314441D02*
X131506108Y-60275737D01*
X131506108Y-60275737D02*
X131622222Y-60275737D01*
X131622222Y-60275737D02*
X131699631Y-60314441D01*
X131699631Y-60314441D02*
X131738336Y-60353146D01*
X131738336Y-60353146D02*
X131777041Y-60430556D01*
X131777041Y-60430556D02*
X131777041Y-60662784D01*
X131777041Y-60662784D02*
X131738336Y-60740194D01*
X131738336Y-60740194D02*
X131699631Y-60778899D01*
X131699631Y-60778899D02*
X131622222Y-60817603D01*
X131622222Y-60817603D02*
X131506108Y-60817603D01*
X132241498Y-60817603D02*
X132164088Y-60778899D01*
X132164088Y-60778899D02*
X132125383Y-60740194D01*
X132125383Y-60740194D02*
X132086679Y-60662784D01*
X132086679Y-60662784D02*
X132086679Y-60430556D01*
X132086679Y-60430556D02*
X132125383Y-60353146D01*
X132125383Y-60353146D02*
X132164088Y-60314441D01*
X132164088Y-60314441D02*
X132241498Y-60275737D01*
X132241498Y-60275737D02*
X132357612Y-60275737D01*
X132357612Y-60275737D02*
X132435021Y-60314441D01*
X132435021Y-60314441D02*
X132473726Y-60353146D01*
X132473726Y-60353146D02*
X132512431Y-60430556D01*
X132512431Y-60430556D02*
X132512431Y-60662784D01*
X132512431Y-60662784D02*
X132473726Y-60740194D01*
X132473726Y-60740194D02*
X132435021Y-60778899D01*
X132435021Y-60778899D02*
X132357612Y-60817603D01*
X132357612Y-60817603D02*
X132241498Y-60817603D01*
X133170411Y-60778899D02*
X133093002Y-60817603D01*
X133093002Y-60817603D02*
X132938183Y-60817603D01*
X132938183Y-60817603D02*
X132860773Y-60778899D01*
X132860773Y-60778899D02*
X132822069Y-60701489D01*
X132822069Y-60701489D02*
X132822069Y-60391851D01*
X132822069Y-60391851D02*
X132860773Y-60314441D01*
X132860773Y-60314441D02*
X132938183Y-60275737D01*
X132938183Y-60275737D02*
X133093002Y-60275737D01*
X133093002Y-60275737D02*
X133170411Y-60314441D01*
X133170411Y-60314441D02*
X133209116Y-60391851D01*
X133209116Y-60391851D02*
X133209116Y-60469260D01*
X133209116Y-60469260D02*
X132822069Y-60546670D01*
X133480050Y-60275737D02*
X133673574Y-60817603D01*
X133867097Y-60275737D02*
X133673574Y-60817603D01*
X133673574Y-60817603D02*
X133596164Y-61011127D01*
X133596164Y-61011127D02*
X133557459Y-61049832D01*
X133557459Y-61049832D02*
X133480050Y-61088537D01*
X86093786Y-101534041D02*
X86093786Y-100721241D01*
X86093786Y-100721241D02*
X86287310Y-100721241D01*
X86287310Y-100721241D02*
X86403424Y-100759946D01*
X86403424Y-100759946D02*
X86480834Y-100837356D01*
X86480834Y-100837356D02*
X86519539Y-100914765D01*
X86519539Y-100914765D02*
X86558243Y-101069584D01*
X86558243Y-101069584D02*
X86558243Y-101185698D01*
X86558243Y-101185698D02*
X86519539Y-101340517D01*
X86519539Y-101340517D02*
X86480834Y-101417927D01*
X86480834Y-101417927D02*
X86403424Y-101495337D01*
X86403424Y-101495337D02*
X86287310Y-101534041D01*
X86287310Y-101534041D02*
X86093786Y-101534041D01*
X87216224Y-101495337D02*
X87138815Y-101534041D01*
X87138815Y-101534041D02*
X86983996Y-101534041D01*
X86983996Y-101534041D02*
X86906586Y-101495337D01*
X86906586Y-101495337D02*
X86867882Y-101417927D01*
X86867882Y-101417927D02*
X86867882Y-101108289D01*
X86867882Y-101108289D02*
X86906586Y-101030879D01*
X86906586Y-101030879D02*
X86983996Y-100992175D01*
X86983996Y-100992175D02*
X87138815Y-100992175D01*
X87138815Y-100992175D02*
X87216224Y-101030879D01*
X87216224Y-101030879D02*
X87254929Y-101108289D01*
X87254929Y-101108289D02*
X87254929Y-101185698D01*
X87254929Y-101185698D02*
X86867882Y-101263108D01*
X87564568Y-101495337D02*
X87641977Y-101534041D01*
X87641977Y-101534041D02*
X87796796Y-101534041D01*
X87796796Y-101534041D02*
X87874206Y-101495337D01*
X87874206Y-101495337D02*
X87912910Y-101417927D01*
X87912910Y-101417927D02*
X87912910Y-101379222D01*
X87912910Y-101379222D02*
X87874206Y-101301813D01*
X87874206Y-101301813D02*
X87796796Y-101263108D01*
X87796796Y-101263108D02*
X87680682Y-101263108D01*
X87680682Y-101263108D02*
X87603272Y-101224403D01*
X87603272Y-101224403D02*
X87564568Y-101146994D01*
X87564568Y-101146994D02*
X87564568Y-101108289D01*
X87564568Y-101108289D02*
X87603272Y-101030879D01*
X87603272Y-101030879D02*
X87680682Y-100992175D01*
X87680682Y-100992175D02*
X87796796Y-100992175D01*
X87796796Y-100992175D02*
X87874206Y-101030879D01*
X88261253Y-101534041D02*
X88261253Y-100992175D01*
X88261253Y-100721241D02*
X88222549Y-100759946D01*
X88222549Y-100759946D02*
X88261253Y-100798651D01*
X88261253Y-100798651D02*
X88299958Y-100759946D01*
X88299958Y-100759946D02*
X88261253Y-100721241D01*
X88261253Y-100721241D02*
X88261253Y-100798651D01*
X88996644Y-100992175D02*
X88996644Y-101650156D01*
X88996644Y-101650156D02*
X88957939Y-101727565D01*
X88957939Y-101727565D02*
X88919235Y-101766270D01*
X88919235Y-101766270D02*
X88841825Y-101804975D01*
X88841825Y-101804975D02*
X88725711Y-101804975D01*
X88725711Y-101804975D02*
X88648301Y-101766270D01*
X88996644Y-101495337D02*
X88919235Y-101534041D01*
X88919235Y-101534041D02*
X88764416Y-101534041D01*
X88764416Y-101534041D02*
X88687006Y-101495337D01*
X88687006Y-101495337D02*
X88648301Y-101456632D01*
X88648301Y-101456632D02*
X88609597Y-101379222D01*
X88609597Y-101379222D02*
X88609597Y-101146994D01*
X88609597Y-101146994D02*
X88648301Y-101069584D01*
X88648301Y-101069584D02*
X88687006Y-101030879D01*
X88687006Y-101030879D02*
X88764416Y-100992175D01*
X88764416Y-100992175D02*
X88919235Y-100992175D01*
X88919235Y-100992175D02*
X88996644Y-101030879D01*
X89383691Y-100992175D02*
X89383691Y-101534041D01*
X89383691Y-101069584D02*
X89422396Y-101030879D01*
X89422396Y-101030879D02*
X89499806Y-100992175D01*
X89499806Y-100992175D02*
X89615920Y-100992175D01*
X89615920Y-100992175D02*
X89693329Y-101030879D01*
X89693329Y-101030879D02*
X89732034Y-101108289D01*
X89732034Y-101108289D02*
X89732034Y-101534041D01*
X90428719Y-101495337D02*
X90351310Y-101534041D01*
X90351310Y-101534041D02*
X90196491Y-101534041D01*
X90196491Y-101534041D02*
X90119081Y-101495337D01*
X90119081Y-101495337D02*
X90080377Y-101417927D01*
X90080377Y-101417927D02*
X90080377Y-101108289D01*
X90080377Y-101108289D02*
X90119081Y-101030879D01*
X90119081Y-101030879D02*
X90196491Y-100992175D01*
X90196491Y-100992175D02*
X90351310Y-100992175D01*
X90351310Y-100992175D02*
X90428719Y-101030879D01*
X90428719Y-101030879D02*
X90467424Y-101108289D01*
X90467424Y-101108289D02*
X90467424Y-101185698D01*
X90467424Y-101185698D02*
X90080377Y-101263108D01*
X91164110Y-101534041D02*
X91164110Y-100721241D01*
X91164110Y-101495337D02*
X91086701Y-101534041D01*
X91086701Y-101534041D02*
X90931882Y-101534041D01*
X90931882Y-101534041D02*
X90854472Y-101495337D01*
X90854472Y-101495337D02*
X90815767Y-101456632D01*
X90815767Y-101456632D02*
X90777063Y-101379222D01*
X90777063Y-101379222D02*
X90777063Y-101146994D01*
X90777063Y-101146994D02*
X90815767Y-101069584D01*
X90815767Y-101069584D02*
X90854472Y-101030879D01*
X90854472Y-101030879D02*
X90931882Y-100992175D01*
X90931882Y-100992175D02*
X91086701Y-100992175D01*
X91086701Y-100992175D02*
X91164110Y-101030879D01*
X92170433Y-101534041D02*
X92170433Y-100721241D01*
X92170433Y-101030879D02*
X92247843Y-100992175D01*
X92247843Y-100992175D02*
X92402662Y-100992175D01*
X92402662Y-100992175D02*
X92480071Y-101030879D01*
X92480071Y-101030879D02*
X92518776Y-101069584D01*
X92518776Y-101069584D02*
X92557481Y-101146994D01*
X92557481Y-101146994D02*
X92557481Y-101379222D01*
X92557481Y-101379222D02*
X92518776Y-101456632D01*
X92518776Y-101456632D02*
X92480071Y-101495337D01*
X92480071Y-101495337D02*
X92402662Y-101534041D01*
X92402662Y-101534041D02*
X92247843Y-101534041D01*
X92247843Y-101534041D02*
X92170433Y-101495337D01*
X92828414Y-100992175D02*
X93021938Y-101534041D01*
X93215461Y-100992175D02*
X93021938Y-101534041D01*
X93021938Y-101534041D02*
X92944528Y-101727565D01*
X92944528Y-101727565D02*
X92905823Y-101766270D01*
X92905823Y-101766270D02*
X92828414Y-101804975D01*
X94144375Y-101534041D02*
X94144375Y-100721241D01*
X94144375Y-100721241D02*
X94337899Y-100721241D01*
X94337899Y-100721241D02*
X94454013Y-100759946D01*
X94454013Y-100759946D02*
X94531423Y-100837356D01*
X94531423Y-100837356D02*
X94570128Y-100914765D01*
X94570128Y-100914765D02*
X94608832Y-101069584D01*
X94608832Y-101069584D02*
X94608832Y-101185698D01*
X94608832Y-101185698D02*
X94570128Y-101340517D01*
X94570128Y-101340517D02*
X94531423Y-101417927D01*
X94531423Y-101417927D02*
X94454013Y-101495337D01*
X94454013Y-101495337D02*
X94337899Y-101534041D01*
X94337899Y-101534041D02*
X94144375Y-101534041D01*
X95073290Y-101534041D02*
X94995880Y-101495337D01*
X94995880Y-101495337D02*
X94957175Y-101456632D01*
X94957175Y-101456632D02*
X94918471Y-101379222D01*
X94918471Y-101379222D02*
X94918471Y-101146994D01*
X94918471Y-101146994D02*
X94957175Y-101069584D01*
X94957175Y-101069584D02*
X94995880Y-101030879D01*
X94995880Y-101030879D02*
X95073290Y-100992175D01*
X95073290Y-100992175D02*
X95189404Y-100992175D01*
X95189404Y-100992175D02*
X95266813Y-101030879D01*
X95266813Y-101030879D02*
X95305518Y-101069584D01*
X95305518Y-101069584D02*
X95344223Y-101146994D01*
X95344223Y-101146994D02*
X95344223Y-101379222D01*
X95344223Y-101379222D02*
X95305518Y-101456632D01*
X95305518Y-101456632D02*
X95266813Y-101495337D01*
X95266813Y-101495337D02*
X95189404Y-101534041D01*
X95189404Y-101534041D02*
X95073290Y-101534041D01*
X95692565Y-101534041D02*
X95692565Y-100992175D01*
X95692565Y-101069584D02*
X95731270Y-101030879D01*
X95731270Y-101030879D02*
X95808680Y-100992175D01*
X95808680Y-100992175D02*
X95924794Y-100992175D01*
X95924794Y-100992175D02*
X96002203Y-101030879D01*
X96002203Y-101030879D02*
X96040908Y-101108289D01*
X96040908Y-101108289D02*
X96040908Y-101534041D01*
X96040908Y-101108289D02*
X96079613Y-101030879D01*
X96079613Y-101030879D02*
X96157022Y-100992175D01*
X96157022Y-100992175D02*
X96273137Y-100992175D01*
X96273137Y-100992175D02*
X96350546Y-101030879D01*
X96350546Y-101030879D02*
X96389251Y-101108289D01*
X96389251Y-101108289D02*
X96389251Y-101534041D01*
X97395574Y-101534041D02*
X97395574Y-100721241D01*
X97395574Y-100721241D02*
X97666508Y-101301813D01*
X97666508Y-101301813D02*
X97937441Y-100721241D01*
X97937441Y-100721241D02*
X97937441Y-101534041D01*
X98672831Y-100992175D02*
X98672831Y-101534041D01*
X98324488Y-100992175D02*
X98324488Y-101417927D01*
X98324488Y-101417927D02*
X98363193Y-101495337D01*
X98363193Y-101495337D02*
X98440603Y-101534041D01*
X98440603Y-101534041D02*
X98556717Y-101534041D01*
X98556717Y-101534041D02*
X98634126Y-101495337D01*
X98634126Y-101495337D02*
X98672831Y-101456632D01*
X99059878Y-101534041D02*
X99059878Y-100992175D01*
X99059878Y-101146994D02*
X99098583Y-101069584D01*
X99098583Y-101069584D02*
X99137288Y-101030879D01*
X99137288Y-101030879D02*
X99214697Y-100992175D01*
X99214697Y-100992175D02*
X99292107Y-100992175D01*
X99563040Y-100992175D02*
X99563040Y-101804975D01*
X99563040Y-101030879D02*
X99640450Y-100992175D01*
X99640450Y-100992175D02*
X99795269Y-100992175D01*
X99795269Y-100992175D02*
X99872678Y-101030879D01*
X99872678Y-101030879D02*
X99911383Y-101069584D01*
X99911383Y-101069584D02*
X99950088Y-101146994D01*
X99950088Y-101146994D02*
X99950088Y-101379222D01*
X99950088Y-101379222D02*
X99911383Y-101456632D01*
X99911383Y-101456632D02*
X99872678Y-101495337D01*
X99872678Y-101495337D02*
X99795269Y-101534041D01*
X99795269Y-101534041D02*
X99640450Y-101534041D01*
X99640450Y-101534041D02*
X99563040Y-101495337D01*
X100298430Y-101534041D02*
X100298430Y-100721241D01*
X100646773Y-101534041D02*
X100646773Y-101108289D01*
X100646773Y-101108289D02*
X100608068Y-101030879D01*
X100608068Y-101030879D02*
X100530659Y-100992175D01*
X100530659Y-100992175D02*
X100414545Y-100992175D01*
X100414545Y-100992175D02*
X100337135Y-101030879D01*
X100337135Y-101030879D02*
X100298430Y-101069584D01*
X100956411Y-100992175D02*
X101149935Y-101534041D01*
X101343458Y-100992175D02*
X101149935Y-101534041D01*
X101149935Y-101534041D02*
X101072525Y-101727565D01*
X101072525Y-101727565D02*
X101033820Y-101766270D01*
X101033820Y-101766270D02*
X100956411Y-101804975D01*
X86093786Y-102842603D02*
X86093786Y-102029803D01*
X86442129Y-102842603D02*
X86442129Y-102416851D01*
X86442129Y-102416851D02*
X86403424Y-102339441D01*
X86403424Y-102339441D02*
X86326015Y-102300737D01*
X86326015Y-102300737D02*
X86209901Y-102300737D01*
X86209901Y-102300737D02*
X86132491Y-102339441D01*
X86132491Y-102339441D02*
X86093786Y-102378146D01*
X86713062Y-102300737D02*
X87022700Y-102300737D01*
X86829176Y-102029803D02*
X86829176Y-102726489D01*
X86829176Y-102726489D02*
X86867881Y-102803899D01*
X86867881Y-102803899D02*
X86945291Y-102842603D01*
X86945291Y-102842603D02*
X87022700Y-102842603D01*
X87177519Y-102300737D02*
X87487157Y-102300737D01*
X87293633Y-102029803D02*
X87293633Y-102726489D01*
X87293633Y-102726489D02*
X87332338Y-102803899D01*
X87332338Y-102803899D02*
X87409748Y-102842603D01*
X87409748Y-102842603D02*
X87487157Y-102842603D01*
X87758090Y-102300737D02*
X87758090Y-103113537D01*
X87758090Y-102339441D02*
X87835500Y-102300737D01*
X87835500Y-102300737D02*
X87990319Y-102300737D01*
X87990319Y-102300737D02*
X88067728Y-102339441D01*
X88067728Y-102339441D02*
X88106433Y-102378146D01*
X88106433Y-102378146D02*
X88145138Y-102455556D01*
X88145138Y-102455556D02*
X88145138Y-102687784D01*
X88145138Y-102687784D02*
X88106433Y-102765194D01*
X88106433Y-102765194D02*
X88067728Y-102803899D01*
X88067728Y-102803899D02*
X87990319Y-102842603D01*
X87990319Y-102842603D02*
X87835500Y-102842603D01*
X87835500Y-102842603D02*
X87758090Y-102803899D01*
X88454776Y-102803899D02*
X88532185Y-102842603D01*
X88532185Y-102842603D02*
X88687004Y-102842603D01*
X88687004Y-102842603D02*
X88764414Y-102803899D01*
X88764414Y-102803899D02*
X88803118Y-102726489D01*
X88803118Y-102726489D02*
X88803118Y-102687784D01*
X88803118Y-102687784D02*
X88764414Y-102610375D01*
X88764414Y-102610375D02*
X88687004Y-102571670D01*
X88687004Y-102571670D02*
X88570890Y-102571670D01*
X88570890Y-102571670D02*
X88493480Y-102532965D01*
X88493480Y-102532965D02*
X88454776Y-102455556D01*
X88454776Y-102455556D02*
X88454776Y-102416851D01*
X88454776Y-102416851D02*
X88493480Y-102339441D01*
X88493480Y-102339441D02*
X88570890Y-102300737D01*
X88570890Y-102300737D02*
X88687004Y-102300737D01*
X88687004Y-102300737D02*
X88764414Y-102339441D01*
X89151461Y-102765194D02*
X89190166Y-102803899D01*
X89190166Y-102803899D02*
X89151461Y-102842603D01*
X89151461Y-102842603D02*
X89112757Y-102803899D01*
X89112757Y-102803899D02*
X89151461Y-102765194D01*
X89151461Y-102765194D02*
X89151461Y-102842603D01*
X89151461Y-102339441D02*
X89190166Y-102378146D01*
X89190166Y-102378146D02*
X89151461Y-102416851D01*
X89151461Y-102416851D02*
X89112757Y-102378146D01*
X89112757Y-102378146D02*
X89151461Y-102339441D01*
X89151461Y-102339441D02*
X89151461Y-102416851D01*
X90119081Y-101991099D02*
X89422395Y-103036127D01*
X90970586Y-101991099D02*
X90273900Y-103036127D01*
X91589862Y-102300737D02*
X91589862Y-102958718D01*
X91589862Y-102958718D02*
X91551157Y-103036127D01*
X91551157Y-103036127D02*
X91512453Y-103074832D01*
X91512453Y-103074832D02*
X91435043Y-103113537D01*
X91435043Y-103113537D02*
X91318929Y-103113537D01*
X91318929Y-103113537D02*
X91241519Y-103074832D01*
X91589862Y-102803899D02*
X91512453Y-102842603D01*
X91512453Y-102842603D02*
X91357634Y-102842603D01*
X91357634Y-102842603D02*
X91280224Y-102803899D01*
X91280224Y-102803899D02*
X91241519Y-102765194D01*
X91241519Y-102765194D02*
X91202815Y-102687784D01*
X91202815Y-102687784D02*
X91202815Y-102455556D01*
X91202815Y-102455556D02*
X91241519Y-102378146D01*
X91241519Y-102378146D02*
X91280224Y-102339441D01*
X91280224Y-102339441D02*
X91357634Y-102300737D01*
X91357634Y-102300737D02*
X91512453Y-102300737D01*
X91512453Y-102300737D02*
X91589862Y-102339441D01*
X91976909Y-102842603D02*
X91976909Y-102300737D01*
X91976909Y-102029803D02*
X91938205Y-102068508D01*
X91938205Y-102068508D02*
X91976909Y-102107213D01*
X91976909Y-102107213D02*
X92015614Y-102068508D01*
X92015614Y-102068508D02*
X91976909Y-102029803D01*
X91976909Y-102029803D02*
X91976909Y-102107213D01*
X92247843Y-102300737D02*
X92557481Y-102300737D01*
X92363957Y-102029803D02*
X92363957Y-102726489D01*
X92363957Y-102726489D02*
X92402662Y-102803899D01*
X92402662Y-102803899D02*
X92480072Y-102842603D01*
X92480072Y-102842603D02*
X92557481Y-102842603D01*
X92828414Y-102842603D02*
X92828414Y-102029803D01*
X93176757Y-102842603D02*
X93176757Y-102416851D01*
X93176757Y-102416851D02*
X93138052Y-102339441D01*
X93138052Y-102339441D02*
X93060643Y-102300737D01*
X93060643Y-102300737D02*
X92944529Y-102300737D01*
X92944529Y-102300737D02*
X92867119Y-102339441D01*
X92867119Y-102339441D02*
X92828414Y-102378146D01*
X93912147Y-102300737D02*
X93912147Y-102842603D01*
X93563804Y-102300737D02*
X93563804Y-102726489D01*
X93563804Y-102726489D02*
X93602509Y-102803899D01*
X93602509Y-102803899D02*
X93679919Y-102842603D01*
X93679919Y-102842603D02*
X93796033Y-102842603D01*
X93796033Y-102842603D02*
X93873442Y-102803899D01*
X93873442Y-102803899D02*
X93912147Y-102765194D01*
X94299194Y-102842603D02*
X94299194Y-102029803D01*
X94299194Y-102339441D02*
X94376604Y-102300737D01*
X94376604Y-102300737D02*
X94531423Y-102300737D01*
X94531423Y-102300737D02*
X94608832Y-102339441D01*
X94608832Y-102339441D02*
X94647537Y-102378146D01*
X94647537Y-102378146D02*
X94686242Y-102455556D01*
X94686242Y-102455556D02*
X94686242Y-102687784D01*
X94686242Y-102687784D02*
X94647537Y-102765194D01*
X94647537Y-102765194D02*
X94608832Y-102803899D01*
X94608832Y-102803899D02*
X94531423Y-102842603D01*
X94531423Y-102842603D02*
X94376604Y-102842603D01*
X94376604Y-102842603D02*
X94299194Y-102803899D01*
X95034584Y-102765194D02*
X95073289Y-102803899D01*
X95073289Y-102803899D02*
X95034584Y-102842603D01*
X95034584Y-102842603D02*
X94995880Y-102803899D01*
X94995880Y-102803899D02*
X95034584Y-102765194D01*
X95034584Y-102765194D02*
X95034584Y-102842603D01*
X95769975Y-102803899D02*
X95692566Y-102842603D01*
X95692566Y-102842603D02*
X95537747Y-102842603D01*
X95537747Y-102842603D02*
X95460337Y-102803899D01*
X95460337Y-102803899D02*
X95421632Y-102765194D01*
X95421632Y-102765194D02*
X95382928Y-102687784D01*
X95382928Y-102687784D02*
X95382928Y-102455556D01*
X95382928Y-102455556D02*
X95421632Y-102378146D01*
X95421632Y-102378146D02*
X95460337Y-102339441D01*
X95460337Y-102339441D02*
X95537747Y-102300737D01*
X95537747Y-102300737D02*
X95692566Y-102300737D01*
X95692566Y-102300737D02*
X95769975Y-102339441D01*
X96234433Y-102842603D02*
X96157023Y-102803899D01*
X96157023Y-102803899D02*
X96118318Y-102765194D01*
X96118318Y-102765194D02*
X96079614Y-102687784D01*
X96079614Y-102687784D02*
X96079614Y-102455556D01*
X96079614Y-102455556D02*
X96118318Y-102378146D01*
X96118318Y-102378146D02*
X96157023Y-102339441D01*
X96157023Y-102339441D02*
X96234433Y-102300737D01*
X96234433Y-102300737D02*
X96350547Y-102300737D01*
X96350547Y-102300737D02*
X96427956Y-102339441D01*
X96427956Y-102339441D02*
X96466661Y-102378146D01*
X96466661Y-102378146D02*
X96505366Y-102455556D01*
X96505366Y-102455556D02*
X96505366Y-102687784D01*
X96505366Y-102687784D02*
X96466661Y-102765194D01*
X96466661Y-102765194D02*
X96427956Y-102803899D01*
X96427956Y-102803899D02*
X96350547Y-102842603D01*
X96350547Y-102842603D02*
X96234433Y-102842603D01*
X96853708Y-102842603D02*
X96853708Y-102300737D01*
X96853708Y-102378146D02*
X96892413Y-102339441D01*
X96892413Y-102339441D02*
X96969823Y-102300737D01*
X96969823Y-102300737D02*
X97085937Y-102300737D01*
X97085937Y-102300737D02*
X97163346Y-102339441D01*
X97163346Y-102339441D02*
X97202051Y-102416851D01*
X97202051Y-102416851D02*
X97202051Y-102842603D01*
X97202051Y-102416851D02*
X97240756Y-102339441D01*
X97240756Y-102339441D02*
X97318165Y-102300737D01*
X97318165Y-102300737D02*
X97434280Y-102300737D01*
X97434280Y-102300737D02*
X97511689Y-102339441D01*
X97511689Y-102339441D02*
X97550394Y-102416851D01*
X97550394Y-102416851D02*
X97550394Y-102842603D01*
X98518013Y-101991099D02*
X97821327Y-103036127D01*
X98788946Y-102842603D02*
X98788946Y-102029803D01*
X98788946Y-102029803D02*
X98982470Y-102029803D01*
X98982470Y-102029803D02*
X99098584Y-102068508D01*
X99098584Y-102068508D02*
X99175994Y-102145918D01*
X99175994Y-102145918D02*
X99214699Y-102223327D01*
X99214699Y-102223327D02*
X99253403Y-102378146D01*
X99253403Y-102378146D02*
X99253403Y-102494260D01*
X99253403Y-102494260D02*
X99214699Y-102649079D01*
X99214699Y-102649079D02*
X99175994Y-102726489D01*
X99175994Y-102726489D02*
X99098584Y-102803899D01*
X99098584Y-102803899D02*
X98982470Y-102842603D01*
X98982470Y-102842603D02*
X98788946Y-102842603D01*
X99717861Y-102842603D02*
X99640451Y-102803899D01*
X99640451Y-102803899D02*
X99601746Y-102765194D01*
X99601746Y-102765194D02*
X99563042Y-102687784D01*
X99563042Y-102687784D02*
X99563042Y-102455556D01*
X99563042Y-102455556D02*
X99601746Y-102378146D01*
X99601746Y-102378146D02*
X99640451Y-102339441D01*
X99640451Y-102339441D02*
X99717861Y-102300737D01*
X99717861Y-102300737D02*
X99833975Y-102300737D01*
X99833975Y-102300737D02*
X99911384Y-102339441D01*
X99911384Y-102339441D02*
X99950089Y-102378146D01*
X99950089Y-102378146D02*
X99988794Y-102455556D01*
X99988794Y-102455556D02*
X99988794Y-102687784D01*
X99988794Y-102687784D02*
X99950089Y-102765194D01*
X99950089Y-102765194D02*
X99911384Y-102803899D01*
X99911384Y-102803899D02*
X99833975Y-102842603D01*
X99833975Y-102842603D02*
X99717861Y-102842603D01*
X100337136Y-102842603D02*
X100337136Y-102300737D01*
X100337136Y-102378146D02*
X100375841Y-102339441D01*
X100375841Y-102339441D02*
X100453251Y-102300737D01*
X100453251Y-102300737D02*
X100569365Y-102300737D01*
X100569365Y-102300737D02*
X100646774Y-102339441D01*
X100646774Y-102339441D02*
X100685479Y-102416851D01*
X100685479Y-102416851D02*
X100685479Y-102842603D01*
X100685479Y-102416851D02*
X100724184Y-102339441D01*
X100724184Y-102339441D02*
X100801593Y-102300737D01*
X100801593Y-102300737D02*
X100917708Y-102300737D01*
X100917708Y-102300737D02*
X100995117Y-102339441D01*
X100995117Y-102339441D02*
X101033822Y-102416851D01*
X101033822Y-102416851D02*
X101033822Y-102842603D01*
X101420869Y-102842603D02*
X101420869Y-102029803D01*
X101420869Y-102029803D02*
X101691803Y-102610375D01*
X101691803Y-102610375D02*
X101962736Y-102029803D01*
X101962736Y-102029803D02*
X101962736Y-102842603D01*
X102698126Y-102300737D02*
X102698126Y-102842603D01*
X102349783Y-102300737D02*
X102349783Y-102726489D01*
X102349783Y-102726489D02*
X102388488Y-102803899D01*
X102388488Y-102803899D02*
X102465898Y-102842603D01*
X102465898Y-102842603D02*
X102582012Y-102842603D01*
X102582012Y-102842603D02*
X102659421Y-102803899D01*
X102659421Y-102803899D02*
X102698126Y-102765194D01*
X103085173Y-102842603D02*
X103085173Y-102300737D01*
X103085173Y-102455556D02*
X103123878Y-102378146D01*
X103123878Y-102378146D02*
X103162583Y-102339441D01*
X103162583Y-102339441D02*
X103239992Y-102300737D01*
X103239992Y-102300737D02*
X103317402Y-102300737D01*
X103588335Y-102300737D02*
X103588335Y-103113537D01*
X103588335Y-102339441D02*
X103665745Y-102300737D01*
X103665745Y-102300737D02*
X103820564Y-102300737D01*
X103820564Y-102300737D02*
X103897973Y-102339441D01*
X103897973Y-102339441D02*
X103936678Y-102378146D01*
X103936678Y-102378146D02*
X103975383Y-102455556D01*
X103975383Y-102455556D02*
X103975383Y-102687784D01*
X103975383Y-102687784D02*
X103936678Y-102765194D01*
X103936678Y-102765194D02*
X103897973Y-102803899D01*
X103897973Y-102803899D02*
X103820564Y-102842603D01*
X103820564Y-102842603D02*
X103665745Y-102842603D01*
X103665745Y-102842603D02*
X103588335Y-102803899D01*
X104323725Y-102842603D02*
X104323725Y-102029803D01*
X104672068Y-102842603D02*
X104672068Y-102416851D01*
X104672068Y-102416851D02*
X104633363Y-102339441D01*
X104633363Y-102339441D02*
X104555954Y-102300737D01*
X104555954Y-102300737D02*
X104439840Y-102300737D01*
X104439840Y-102300737D02*
X104362430Y-102339441D01*
X104362430Y-102339441D02*
X104323725Y-102378146D01*
X104981706Y-102300737D02*
X105175230Y-102842603D01*
X105368753Y-102300737D02*
X105175230Y-102842603D01*
X105175230Y-102842603D02*
X105097820Y-103036127D01*
X105097820Y-103036127D02*
X105059115Y-103074832D01*
X105059115Y-103074832D02*
X104981706Y-103113537D01*
X105678391Y-102532965D02*
X106297668Y-102532965D01*
X107033058Y-102300737D02*
X107033058Y-102958718D01*
X107033058Y-102958718D02*
X106994353Y-103036127D01*
X106994353Y-103036127D02*
X106955649Y-103074832D01*
X106955649Y-103074832D02*
X106878239Y-103113537D01*
X106878239Y-103113537D02*
X106762125Y-103113537D01*
X106762125Y-103113537D02*
X106684715Y-103074832D01*
X107033058Y-102803899D02*
X106955649Y-102842603D01*
X106955649Y-102842603D02*
X106800830Y-102842603D01*
X106800830Y-102842603D02*
X106723420Y-102803899D01*
X106723420Y-102803899D02*
X106684715Y-102765194D01*
X106684715Y-102765194D02*
X106646011Y-102687784D01*
X106646011Y-102687784D02*
X106646011Y-102455556D01*
X106646011Y-102455556D02*
X106684715Y-102378146D01*
X106684715Y-102378146D02*
X106723420Y-102339441D01*
X106723420Y-102339441D02*
X106800830Y-102300737D01*
X106800830Y-102300737D02*
X106955649Y-102300737D01*
X106955649Y-102300737D02*
X107033058Y-102339441D01*
X107420105Y-102842603D02*
X107420105Y-102300737D01*
X107420105Y-102029803D02*
X107381401Y-102068508D01*
X107381401Y-102068508D02*
X107420105Y-102107213D01*
X107420105Y-102107213D02*
X107458810Y-102068508D01*
X107458810Y-102068508D02*
X107420105Y-102029803D01*
X107420105Y-102029803D02*
X107420105Y-102107213D01*
X107691039Y-102300737D02*
X108000677Y-102300737D01*
X107807153Y-102029803D02*
X107807153Y-102726489D01*
X107807153Y-102726489D02*
X107845858Y-102803899D01*
X107845858Y-102803899D02*
X107923268Y-102842603D01*
X107923268Y-102842603D02*
X108000677Y-102842603D01*
D11*
X125660458Y-69830004D02*
X126118394Y-70287940D01*
X126118394Y-70287940D02*
X126199206Y-70314878D01*
X126199206Y-70314878D02*
X126253081Y-70314878D01*
X126253081Y-70314878D02*
X126333893Y-70287940D01*
X126333893Y-70287940D02*
X126441642Y-70180191D01*
X126441642Y-70180191D02*
X126468580Y-70099378D01*
X126468580Y-70099378D02*
X126468580Y-70045504D01*
X126468580Y-70045504D02*
X126441642Y-69964691D01*
X126441642Y-69964691D02*
X125983707Y-69506756D01*
X126764891Y-69803067D02*
X126872641Y-69749192D01*
X126872641Y-69749192D02*
X127007328Y-69614505D01*
X127007328Y-69614505D02*
X127034265Y-69533693D01*
X127034265Y-69533693D02*
X127034265Y-69479818D01*
X127034265Y-69479818D02*
X127007328Y-69399006D01*
X127007328Y-69399006D02*
X126953453Y-69345131D01*
X126953453Y-69345131D02*
X126872641Y-69318194D01*
X126872641Y-69318194D02*
X126818766Y-69318194D01*
X126818766Y-69318194D02*
X126737954Y-69345131D01*
X126737954Y-69345131D02*
X126603267Y-69425943D01*
X126603267Y-69425943D02*
X126522454Y-69452881D01*
X126522454Y-69452881D02*
X126468580Y-69452881D01*
X126468580Y-69452881D02*
X126387767Y-69425943D01*
X126387767Y-69425943D02*
X126333893Y-69372069D01*
X126333893Y-69372069D02*
X126306955Y-69291256D01*
X126306955Y-69291256D02*
X126306955Y-69237382D01*
X126306955Y-69237382D02*
X126333893Y-69156569D01*
X126333893Y-69156569D02*
X126468580Y-69021882D01*
X126468580Y-69021882D02*
X126576329Y-68968008D01*
X127061203Y-68968008D02*
X127249764Y-68779446D01*
X127626888Y-68994945D02*
X127357514Y-69264319D01*
X127357514Y-69264319D02*
X126791829Y-68698633D01*
X126791829Y-68698633D02*
X127061203Y-68429259D01*
X128192574Y-68429259D02*
X127734638Y-68348447D01*
X127869325Y-68752508D02*
X127303640Y-68186823D01*
X127303640Y-68186823D02*
X127519139Y-67971323D01*
X127519139Y-67971323D02*
X127599951Y-67944386D01*
X127599951Y-67944386D02*
X127653826Y-67944386D01*
X127653826Y-67944386D02*
X127734638Y-67971323D01*
X127734638Y-67971323D02*
X127815450Y-68052136D01*
X127815450Y-68052136D02*
X127842388Y-68132948D01*
X127842388Y-68132948D02*
X127842388Y-68186823D01*
X127842388Y-68186823D02*
X127815450Y-68267635D01*
X127815450Y-68267635D02*
X127599951Y-68483134D01*
X129135383Y-67486450D02*
X128866009Y-67755824D01*
X128866009Y-67755824D02*
X128300324Y-67190139D01*
X129027633Y-67001577D02*
X129216195Y-66813015D01*
X129593319Y-67028514D02*
X129323945Y-67297888D01*
X129323945Y-67297888D02*
X128758259Y-66732203D01*
X128758259Y-66732203D02*
X129027633Y-66462829D01*
X129835756Y-66786077D02*
X129270070Y-66220392D01*
X129270070Y-66220392D02*
X129404757Y-66085705D01*
X129404757Y-66085705D02*
X129512507Y-66031830D01*
X129512507Y-66031830D02*
X129620256Y-66031830D01*
X129620256Y-66031830D02*
X129701069Y-66058767D01*
X129701069Y-66058767D02*
X129835756Y-66139580D01*
X129835756Y-66139580D02*
X129916568Y-66220392D01*
X129916568Y-66220392D02*
X129997380Y-66355079D01*
X129997380Y-66355079D02*
X130024318Y-66435891D01*
X130024318Y-66435891D02*
X130024318Y-66543641D01*
X130024318Y-66543641D02*
X129970443Y-66651390D01*
X129970443Y-66651390D02*
X129835756Y-66786077D01*
X130347566Y-66220392D02*
X130455316Y-66166517D01*
X130455316Y-66166517D02*
X130590003Y-66031830D01*
X130590003Y-66031830D02*
X130616940Y-65951018D01*
X130616940Y-65951018D02*
X130616940Y-65897143D01*
X130616940Y-65897143D02*
X130590003Y-65816331D01*
X130590003Y-65816331D02*
X130536128Y-65762456D01*
X130536128Y-65762456D02*
X130455316Y-65735519D01*
X130455316Y-65735519D02*
X130401441Y-65735519D01*
X130401441Y-65735519D02*
X130320629Y-65762456D01*
X130320629Y-65762456D02*
X130185942Y-65843268D01*
X130185942Y-65843268D02*
X130105130Y-65870206D01*
X130105130Y-65870206D02*
X130051255Y-65870206D01*
X130051255Y-65870206D02*
X129970443Y-65843268D01*
X129970443Y-65843268D02*
X129916568Y-65789393D01*
X129916568Y-65789393D02*
X129889631Y-65708581D01*
X129889631Y-65708581D02*
X129889631Y-65654706D01*
X129889631Y-65654706D02*
X129916568Y-65573894D01*
X129916568Y-65573894D02*
X130051255Y-65439207D01*
X130051255Y-65439207D02*
X130159005Y-65385332D01*
D12*
X173063383Y-86447641D02*
X173063383Y-84923641D01*
X173063383Y-85649355D02*
X173934240Y-85649355D01*
X173934240Y-86447641D02*
X173934240Y-84923641D01*
X174514811Y-84923641D02*
X175530811Y-84923641D01*
X175530811Y-84923641D02*
X174877668Y-86447641D01*
X176111383Y-86447641D02*
X176111383Y-84923641D01*
X176111383Y-84923641D02*
X176982240Y-86447641D01*
X176982240Y-86447641D02*
X176982240Y-84923641D01*
X178578811Y-86447641D02*
X178070811Y-85721927D01*
X177707954Y-86447641D02*
X177707954Y-84923641D01*
X177707954Y-84923641D02*
X178288525Y-84923641D01*
X178288525Y-84923641D02*
X178433668Y-84996212D01*
X178433668Y-84996212D02*
X178506239Y-85068784D01*
X178506239Y-85068784D02*
X178578811Y-85213927D01*
X178578811Y-85213927D02*
X178578811Y-85431641D01*
X178578811Y-85431641D02*
X178506239Y-85576784D01*
X178506239Y-85576784D02*
X178433668Y-85649355D01*
X178433668Y-85649355D02*
X178288525Y-85721927D01*
X178288525Y-85721927D02*
X177707954Y-85721927D01*
X179159382Y-86375070D02*
X179377097Y-86447641D01*
X179377097Y-86447641D02*
X179739954Y-86447641D01*
X179739954Y-86447641D02*
X179885097Y-86375070D01*
X179885097Y-86375070D02*
X179957668Y-86302498D01*
X179957668Y-86302498D02*
X180030239Y-86157355D01*
X180030239Y-86157355D02*
X180030239Y-86012212D01*
X180030239Y-86012212D02*
X179957668Y-85867070D01*
X179957668Y-85867070D02*
X179885097Y-85794498D01*
X179885097Y-85794498D02*
X179739954Y-85721927D01*
X179739954Y-85721927D02*
X179449668Y-85649355D01*
X179449668Y-85649355D02*
X179304525Y-85576784D01*
X179304525Y-85576784D02*
X179231954Y-85504212D01*
X179231954Y-85504212D02*
X179159382Y-85359070D01*
X179159382Y-85359070D02*
X179159382Y-85213927D01*
X179159382Y-85213927D02*
X179231954Y-85068784D01*
X179231954Y-85068784D02*
X179304525Y-84996212D01*
X179304525Y-84996212D02*
X179449668Y-84923641D01*
X179449668Y-84923641D02*
X179812525Y-84923641D01*
X179812525Y-84923641D02*
X180030239Y-84996212D01*
X180465668Y-84923641D02*
X181336526Y-84923641D01*
X180901097Y-86447641D02*
X180901097Y-84923641D01*
D13*
X170683333Y-108229819D02*
X171302380Y-108229819D01*
X171302380Y-108229819D02*
X170969047Y-108610771D01*
X170969047Y-108610771D02*
X171111904Y-108610771D01*
X171111904Y-108610771D02*
X171207142Y-108658390D01*
X171207142Y-108658390D02*
X171254761Y-108706009D01*
X171254761Y-108706009D02*
X171302380Y-108801247D01*
X171302380Y-108801247D02*
X171302380Y-109039342D01*
X171302380Y-109039342D02*
X171254761Y-109134580D01*
X171254761Y-109134580D02*
X171207142Y-109182200D01*
X171207142Y-109182200D02*
X171111904Y-109229819D01*
X171111904Y-109229819D02*
X170826190Y-109229819D01*
X170826190Y-109229819D02*
X170730952Y-109182200D01*
X170730952Y-109182200D02*
X170683333Y-109134580D01*
X171588095Y-108229819D02*
X171921428Y-109229819D01*
X171921428Y-109229819D02*
X172254761Y-108229819D01*
X172492857Y-108229819D02*
X173111904Y-108229819D01*
X173111904Y-108229819D02*
X172778571Y-108610771D01*
X172778571Y-108610771D02*
X172921428Y-108610771D01*
X172921428Y-108610771D02*
X173016666Y-108658390D01*
X173016666Y-108658390D02*
X173064285Y-108706009D01*
X173064285Y-108706009D02*
X173111904Y-108801247D01*
X173111904Y-108801247D02*
X173111904Y-109039342D01*
X173111904Y-109039342D02*
X173064285Y-109134580D01*
X173064285Y-109134580D02*
X173016666Y-109182200D01*
X173016666Y-109182200D02*
X172921428Y-109229819D01*
X172921428Y-109229819D02*
X172635714Y-109229819D01*
X172635714Y-109229819D02*
X172540476Y-109182200D01*
X172540476Y-109182200D02*
X172492857Y-109134580D01*
X173492857Y-109182200D02*
X173635714Y-109229819D01*
X173635714Y-109229819D02*
X173873809Y-109229819D01*
X173873809Y-109229819D02*
X173969047Y-109182200D01*
X173969047Y-109182200D02*
X174016666Y-109134580D01*
X174016666Y-109134580D02*
X174064285Y-109039342D01*
X174064285Y-109039342D02*
X174064285Y-108944104D01*
X174064285Y-108944104D02*
X174016666Y-108848866D01*
X174016666Y-108848866D02*
X173969047Y-108801247D01*
X173969047Y-108801247D02*
X173873809Y-108753628D01*
X173873809Y-108753628D02*
X173683333Y-108706009D01*
X173683333Y-108706009D02*
X173588095Y-108658390D01*
X173588095Y-108658390D02*
X173540476Y-108610771D01*
X173540476Y-108610771D02*
X173492857Y-108515533D01*
X173492857Y-108515533D02*
X173492857Y-108420295D01*
X173492857Y-108420295D02*
X173540476Y-108325057D01*
X173540476Y-108325057D02*
X173588095Y-108277438D01*
X173588095Y-108277438D02*
X173683333Y-108229819D01*
X173683333Y-108229819D02*
X173921428Y-108229819D01*
X173921428Y-108229819D02*
X174064285Y-108277438D01*
X174635714Y-109229819D02*
X174540476Y-109182200D01*
X174540476Y-109182200D02*
X174492857Y-109134580D01*
X174492857Y-109134580D02*
X174445238Y-109039342D01*
X174445238Y-109039342D02*
X174445238Y-108753628D01*
X174445238Y-108753628D02*
X174492857Y-108658390D01*
X174492857Y-108658390D02*
X174540476Y-108610771D01*
X174540476Y-108610771D02*
X174635714Y-108563152D01*
X174635714Y-108563152D02*
X174778571Y-108563152D01*
X174778571Y-108563152D02*
X174873809Y-108610771D01*
X174873809Y-108610771D02*
X174921428Y-108658390D01*
X174921428Y-108658390D02*
X174969047Y-108753628D01*
X174969047Y-108753628D02*
X174969047Y-109039342D01*
X174969047Y-109039342D02*
X174921428Y-109134580D01*
X174921428Y-109134580D02*
X174873809Y-109182200D01*
X174873809Y-109182200D02*
X174778571Y-109229819D01*
X174778571Y-109229819D02*
X174635714Y-109229819D01*
X175969047Y-109134580D02*
X175921428Y-109182200D01*
X175921428Y-109182200D02*
X175778571Y-109229819D01*
X175778571Y-109229819D02*
X175683333Y-109229819D01*
X175683333Y-109229819D02*
X175540476Y-109182200D01*
X175540476Y-109182200D02*
X175445238Y-109086961D01*
X175445238Y-109086961D02*
X175397619Y-108991723D01*
X175397619Y-108991723D02*
X175350000Y-108801247D01*
X175350000Y-108801247D02*
X175350000Y-108658390D01*
X175350000Y-108658390D02*
X175397619Y-108467914D01*
X175397619Y-108467914D02*
X175445238Y-108372676D01*
X175445238Y-108372676D02*
X175540476Y-108277438D01*
X175540476Y-108277438D02*
X175683333Y-108229819D01*
X175683333Y-108229819D02*
X175778571Y-108229819D01*
X175778571Y-108229819D02*
X175921428Y-108277438D01*
X175921428Y-108277438D02*
X175969047Y-108325057D01*
X80554761Y-67104819D02*
X80221428Y-66628628D01*
X79983333Y-67104819D02*
X79983333Y-66104819D01*
X79983333Y-66104819D02*
X80364285Y-66104819D01*
X80364285Y-66104819D02*
X80459523Y-66152438D01*
X80459523Y-66152438D02*
X80507142Y-66200057D01*
X80507142Y-66200057D02*
X80554761Y-66295295D01*
X80554761Y-66295295D02*
X80554761Y-66438152D01*
X80554761Y-66438152D02*
X80507142Y-66533390D01*
X80507142Y-66533390D02*
X80459523Y-66581009D01*
X80459523Y-66581009D02*
X80364285Y-66628628D01*
X80364285Y-66628628D02*
X79983333Y-66628628D01*
X80935714Y-67057200D02*
X81078571Y-67104819D01*
X81078571Y-67104819D02*
X81316666Y-67104819D01*
X81316666Y-67104819D02*
X81411904Y-67057200D01*
X81411904Y-67057200D02*
X81459523Y-67009580D01*
X81459523Y-67009580D02*
X81507142Y-66914342D01*
X81507142Y-66914342D02*
X81507142Y-66819104D01*
X81507142Y-66819104D02*
X81459523Y-66723866D01*
X81459523Y-66723866D02*
X81411904Y-66676247D01*
X81411904Y-66676247D02*
X81316666Y-66628628D01*
X81316666Y-66628628D02*
X81126190Y-66581009D01*
X81126190Y-66581009D02*
X81030952Y-66533390D01*
X81030952Y-66533390D02*
X80983333Y-66485771D01*
X80983333Y-66485771D02*
X80935714Y-66390533D01*
X80935714Y-66390533D02*
X80935714Y-66295295D01*
X80935714Y-66295295D02*
X80983333Y-66200057D01*
X80983333Y-66200057D02*
X81030952Y-66152438D01*
X81030952Y-66152438D02*
X81126190Y-66104819D01*
X81126190Y-66104819D02*
X81364285Y-66104819D01*
X81364285Y-66104819D02*
X81507142Y-66152438D01*
X82364285Y-66438152D02*
X82364285Y-67104819D01*
X82126190Y-66057200D02*
X81888095Y-66771485D01*
X81888095Y-66771485D02*
X82507142Y-66771485D01*
X83030952Y-66533390D02*
X82935714Y-66485771D01*
X82935714Y-66485771D02*
X82888095Y-66438152D01*
X82888095Y-66438152D02*
X82840476Y-66342914D01*
X82840476Y-66342914D02*
X82840476Y-66295295D01*
X82840476Y-66295295D02*
X82888095Y-66200057D01*
X82888095Y-66200057D02*
X82935714Y-66152438D01*
X82935714Y-66152438D02*
X83030952Y-66104819D01*
X83030952Y-66104819D02*
X83221428Y-66104819D01*
X83221428Y-66104819D02*
X83316666Y-66152438D01*
X83316666Y-66152438D02*
X83364285Y-66200057D01*
X83364285Y-66200057D02*
X83411904Y-66295295D01*
X83411904Y-66295295D02*
X83411904Y-66342914D01*
X83411904Y-66342914D02*
X83364285Y-66438152D01*
X83364285Y-66438152D02*
X83316666Y-66485771D01*
X83316666Y-66485771D02*
X83221428Y-66533390D01*
X83221428Y-66533390D02*
X83030952Y-66533390D01*
X83030952Y-66533390D02*
X82935714Y-66581009D01*
X82935714Y-66581009D02*
X82888095Y-66628628D01*
X82888095Y-66628628D02*
X82840476Y-66723866D01*
X82840476Y-66723866D02*
X82840476Y-66914342D01*
X82840476Y-66914342D02*
X82888095Y-67009580D01*
X82888095Y-67009580D02*
X82935714Y-67057200D01*
X82935714Y-67057200D02*
X83030952Y-67104819D01*
X83030952Y-67104819D02*
X83221428Y-67104819D01*
X83221428Y-67104819D02*
X83316666Y-67057200D01*
X83316666Y-67057200D02*
X83364285Y-67009580D01*
X83364285Y-67009580D02*
X83411904Y-66914342D01*
X83411904Y-66914342D02*
X83411904Y-66723866D01*
X83411904Y-66723866D02*
X83364285Y-66628628D01*
X83364285Y-66628628D02*
X83316666Y-66581009D01*
X83316666Y-66581009D02*
X83221428Y-66533390D01*
X84316666Y-66104819D02*
X83840476Y-66104819D01*
X83840476Y-66104819D02*
X83792857Y-66581009D01*
X83792857Y-66581009D02*
X83840476Y-66533390D01*
X83840476Y-66533390D02*
X83935714Y-66485771D01*
X83935714Y-66485771D02*
X84173809Y-66485771D01*
X84173809Y-66485771D02*
X84269047Y-66533390D01*
X84269047Y-66533390D02*
X84316666Y-66581009D01*
X84316666Y-66581009D02*
X84364285Y-66676247D01*
X84364285Y-66676247D02*
X84364285Y-66914342D01*
X84364285Y-66914342D02*
X84316666Y-67009580D01*
X84316666Y-67009580D02*
X84269047Y-67057200D01*
X84269047Y-67057200D02*
X84173809Y-67104819D01*
X84173809Y-67104819D02*
X83935714Y-67104819D01*
X83935714Y-67104819D02*
X83840476Y-67057200D01*
X83840476Y-67057200D02*
X83792857Y-67009580D01*
X79936905Y-62454819D02*
X79936905Y-63264342D01*
X79936905Y-63264342D02*
X79984524Y-63359580D01*
X79984524Y-63359580D02*
X80032143Y-63407200D01*
X80032143Y-63407200D02*
X80127381Y-63454819D01*
X80127381Y-63454819D02*
X80317857Y-63454819D01*
X80317857Y-63454819D02*
X80413095Y-63407200D01*
X80413095Y-63407200D02*
X80460714Y-63359580D01*
X80460714Y-63359580D02*
X80508333Y-63264342D01*
X80508333Y-63264342D02*
X80508333Y-62454819D01*
X80984524Y-63454819D02*
X80984524Y-62454819D01*
X80984524Y-62931009D02*
X81555952Y-62931009D01*
X81555952Y-63454819D02*
X81555952Y-62454819D01*
X81794048Y-63550057D02*
X82555952Y-63550057D01*
X82984524Y-62454819D02*
X83175000Y-62454819D01*
X83175000Y-62454819D02*
X83270238Y-62502438D01*
X83270238Y-62502438D02*
X83365476Y-62597676D01*
X83365476Y-62597676D02*
X83413095Y-62788152D01*
X83413095Y-62788152D02*
X83413095Y-63121485D01*
X83413095Y-63121485D02*
X83365476Y-63311961D01*
X83365476Y-63311961D02*
X83270238Y-63407200D01*
X83270238Y-63407200D02*
X83175000Y-63454819D01*
X83175000Y-63454819D02*
X82984524Y-63454819D01*
X82984524Y-63454819D02*
X82889286Y-63407200D01*
X82889286Y-63407200D02*
X82794048Y-63311961D01*
X82794048Y-63311961D02*
X82746429Y-63121485D01*
X82746429Y-63121485D02*
X82746429Y-62788152D01*
X82746429Y-62788152D02*
X82794048Y-62597676D01*
X82794048Y-62597676D02*
X82889286Y-62502438D01*
X82889286Y-62502438D02*
X82984524Y-62454819D01*
X83841667Y-63454819D02*
X83841667Y-62454819D01*
X83841667Y-62931009D02*
X84413095Y-62931009D01*
X84413095Y-63454819D02*
X84413095Y-62454819D01*
X163884524Y-94554819D02*
X164503571Y-94554819D01*
X164503571Y-94554819D02*
X164170238Y-94935771D01*
X164170238Y-94935771D02*
X164313095Y-94935771D01*
X164313095Y-94935771D02*
X164408333Y-94983390D01*
X164408333Y-94983390D02*
X164455952Y-95031009D01*
X164455952Y-95031009D02*
X164503571Y-95126247D01*
X164503571Y-95126247D02*
X164503571Y-95364342D01*
X164503571Y-95364342D02*
X164455952Y-95459580D01*
X164455952Y-95459580D02*
X164408333Y-95507200D01*
X164408333Y-95507200D02*
X164313095Y-95554819D01*
X164313095Y-95554819D02*
X164027381Y-95554819D01*
X164027381Y-95554819D02*
X163932143Y-95507200D01*
X163932143Y-95507200D02*
X163884524Y-95459580D01*
X164789286Y-94554819D02*
X165122619Y-95554819D01*
X165122619Y-95554819D02*
X165455952Y-94554819D01*
X165694048Y-94554819D02*
X166313095Y-94554819D01*
X166313095Y-94554819D02*
X165979762Y-94935771D01*
X165979762Y-94935771D02*
X166122619Y-94935771D01*
X166122619Y-94935771D02*
X166217857Y-94983390D01*
X166217857Y-94983390D02*
X166265476Y-95031009D01*
X166265476Y-95031009D02*
X166313095Y-95126247D01*
X166313095Y-95126247D02*
X166313095Y-95364342D01*
X166313095Y-95364342D02*
X166265476Y-95459580D01*
X166265476Y-95459580D02*
X166217857Y-95507200D01*
X166217857Y-95507200D02*
X166122619Y-95554819D01*
X166122619Y-95554819D02*
X165836905Y-95554819D01*
X165836905Y-95554819D02*
X165741667Y-95507200D01*
X165741667Y-95507200D02*
X165694048Y-95459580D01*
X166741667Y-95554819D02*
X166741667Y-94554819D01*
X166741667Y-95031009D02*
X167313095Y-95031009D01*
X167313095Y-95554819D02*
X167313095Y-94554819D01*
X167789286Y-95554819D02*
X167789286Y-94554819D01*
X167789286Y-94554819D02*
X168170238Y-94554819D01*
X168170238Y-94554819D02*
X168265476Y-94602438D01*
X168265476Y-94602438D02*
X168313095Y-94650057D01*
X168313095Y-94650057D02*
X168360714Y-94745295D01*
X168360714Y-94745295D02*
X168360714Y-94888152D01*
X168360714Y-94888152D02*
X168313095Y-94983390D01*
X168313095Y-94983390D02*
X168265476Y-95031009D01*
X168265476Y-95031009D02*
X168170238Y-95078628D01*
X168170238Y-95078628D02*
X167789286Y-95078628D01*
X168741667Y-95507200D02*
X168884524Y-95554819D01*
X168884524Y-95554819D02*
X169122619Y-95554819D01*
X169122619Y-95554819D02*
X169217857Y-95507200D01*
X169217857Y-95507200D02*
X169265476Y-95459580D01*
X169265476Y-95459580D02*
X169313095Y-95364342D01*
X169313095Y-95364342D02*
X169313095Y-95269104D01*
X169313095Y-95269104D02*
X169265476Y-95173866D01*
X169265476Y-95173866D02*
X169217857Y-95126247D01*
X169217857Y-95126247D02*
X169122619Y-95078628D01*
X169122619Y-95078628D02*
X168932143Y-95031009D01*
X168932143Y-95031009D02*
X168836905Y-94983390D01*
X168836905Y-94983390D02*
X168789286Y-94935771D01*
X168789286Y-94935771D02*
X168741667Y-94840533D01*
X168741667Y-94840533D02*
X168741667Y-94745295D01*
X168741667Y-94745295D02*
X168789286Y-94650057D01*
X168789286Y-94650057D02*
X168836905Y-94602438D01*
X168836905Y-94602438D02*
X168932143Y-94554819D01*
X168932143Y-94554819D02*
X169170238Y-94554819D01*
X169170238Y-94554819D02*
X169313095Y-94602438D01*
X169884524Y-95554819D02*
X169789286Y-95507200D01*
X169789286Y-95507200D02*
X169741667Y-95459580D01*
X169741667Y-95459580D02*
X169694048Y-95364342D01*
X169694048Y-95364342D02*
X169694048Y-95078628D01*
X169694048Y-95078628D02*
X169741667Y-94983390D01*
X169741667Y-94983390D02*
X169789286Y-94935771D01*
X169789286Y-94935771D02*
X169884524Y-94888152D01*
X169884524Y-94888152D02*
X170027381Y-94888152D01*
X170027381Y-94888152D02*
X170122619Y-94935771D01*
X170122619Y-94935771D02*
X170170238Y-94983390D01*
X170170238Y-94983390D02*
X170217857Y-95078628D01*
X170217857Y-95078628D02*
X170217857Y-95364342D01*
X170217857Y-95364342D02*
X170170238Y-95459580D01*
X170170238Y-95459580D02*
X170122619Y-95507200D01*
X170122619Y-95507200D02*
X170027381Y-95554819D01*
X170027381Y-95554819D02*
X169884524Y-95554819D01*
X171217857Y-95459580D02*
X171170238Y-95507200D01*
X171170238Y-95507200D02*
X171027381Y-95554819D01*
X171027381Y-95554819D02*
X170932143Y-95554819D01*
X170932143Y-95554819D02*
X170789286Y-95507200D01*
X170789286Y-95507200D02*
X170694048Y-95411961D01*
X170694048Y-95411961D02*
X170646429Y-95316723D01*
X170646429Y-95316723D02*
X170598810Y-95126247D01*
X170598810Y-95126247D02*
X170598810Y-94983390D01*
X170598810Y-94983390D02*
X170646429Y-94792914D01*
X170646429Y-94792914D02*
X170694048Y-94697676D01*
X170694048Y-94697676D02*
X170789286Y-94602438D01*
X170789286Y-94602438D02*
X170932143Y-94554819D01*
X170932143Y-94554819D02*
X171027381Y-94554819D01*
X171027381Y-94554819D02*
X171170238Y-94602438D01*
X171170238Y-94602438D02*
X171217857Y-94650057D01*
X150885714Y-113379819D02*
X150885714Y-114189342D01*
X150885714Y-114189342D02*
X150933333Y-114284580D01*
X150933333Y-114284580D02*
X150980952Y-114332200D01*
X150980952Y-114332200D02*
X151076190Y-114379819D01*
X151076190Y-114379819D02*
X151266666Y-114379819D01*
X151266666Y-114379819D02*
X151361904Y-114332200D01*
X151361904Y-114332200D02*
X151409523Y-114284580D01*
X151409523Y-114284580D02*
X151457142Y-114189342D01*
X151457142Y-114189342D02*
X151457142Y-113379819D01*
X151885714Y-114332200D02*
X152028571Y-114379819D01*
X152028571Y-114379819D02*
X152266666Y-114379819D01*
X152266666Y-114379819D02*
X152361904Y-114332200D01*
X152361904Y-114332200D02*
X152409523Y-114284580D01*
X152409523Y-114284580D02*
X152457142Y-114189342D01*
X152457142Y-114189342D02*
X152457142Y-114094104D01*
X152457142Y-114094104D02*
X152409523Y-113998866D01*
X152409523Y-113998866D02*
X152361904Y-113951247D01*
X152361904Y-113951247D02*
X152266666Y-113903628D01*
X152266666Y-113903628D02*
X152076190Y-113856009D01*
X152076190Y-113856009D02*
X151980952Y-113808390D01*
X151980952Y-113808390D02*
X151933333Y-113760771D01*
X151933333Y-113760771D02*
X151885714Y-113665533D01*
X151885714Y-113665533D02*
X151885714Y-113570295D01*
X151885714Y-113570295D02*
X151933333Y-113475057D01*
X151933333Y-113475057D02*
X151980952Y-113427438D01*
X151980952Y-113427438D02*
X152076190Y-113379819D01*
X152076190Y-113379819D02*
X152314285Y-113379819D01*
X152314285Y-113379819D02*
X152457142Y-113427438D01*
X152885714Y-113856009D02*
X153219047Y-113856009D01*
X153361904Y-114379819D02*
X152885714Y-114379819D01*
X152885714Y-114379819D02*
X152885714Y-113379819D01*
X152885714Y-113379819D02*
X153361904Y-113379819D01*
X154361904Y-114379819D02*
X154028571Y-113903628D01*
X153790476Y-114379819D02*
X153790476Y-113379819D01*
X153790476Y-113379819D02*
X154171428Y-113379819D01*
X154171428Y-113379819D02*
X154266666Y-113427438D01*
X154266666Y-113427438D02*
X154314285Y-113475057D01*
X154314285Y-113475057D02*
X154361904Y-113570295D01*
X154361904Y-113570295D02*
X154361904Y-113713152D01*
X154361904Y-113713152D02*
X154314285Y-113808390D01*
X154314285Y-113808390D02*
X154266666Y-113856009D01*
X154266666Y-113856009D02*
X154171428Y-113903628D01*
X154171428Y-113903628D02*
X153790476Y-113903628D01*
X157611905Y-99431819D02*
X158230952Y-99431819D01*
X158230952Y-99431819D02*
X157897619Y-99812771D01*
X157897619Y-99812771D02*
X158040476Y-99812771D01*
X158040476Y-99812771D02*
X158135714Y-99860390D01*
X158135714Y-99860390D02*
X158183333Y-99908009D01*
X158183333Y-99908009D02*
X158230952Y-100003247D01*
X158230952Y-100003247D02*
X158230952Y-100241342D01*
X158230952Y-100241342D02*
X158183333Y-100336580D01*
X158183333Y-100336580D02*
X158135714Y-100384200D01*
X158135714Y-100384200D02*
X158040476Y-100431819D01*
X158040476Y-100431819D02*
X157754762Y-100431819D01*
X157754762Y-100431819D02*
X157659524Y-100384200D01*
X157659524Y-100384200D02*
X157611905Y-100336580D01*
X158516667Y-99431819D02*
X158850000Y-100431819D01*
X158850000Y-100431819D02*
X159183333Y-99431819D01*
X159421429Y-99431819D02*
X160040476Y-99431819D01*
X160040476Y-99431819D02*
X159707143Y-99812771D01*
X159707143Y-99812771D02*
X159850000Y-99812771D01*
X159850000Y-99812771D02*
X159945238Y-99860390D01*
X159945238Y-99860390D02*
X159992857Y-99908009D01*
X159992857Y-99908009D02*
X160040476Y-100003247D01*
X160040476Y-100003247D02*
X160040476Y-100241342D01*
X160040476Y-100241342D02*
X159992857Y-100336580D01*
X159992857Y-100336580D02*
X159945238Y-100384200D01*
X159945238Y-100384200D02*
X159850000Y-100431819D01*
X159850000Y-100431819D02*
X159564286Y-100431819D01*
X159564286Y-100431819D02*
X159469048Y-100384200D01*
X159469048Y-100384200D02*
X159421429Y-100336580D01*
X116635501Y-71214500D02*
X116467142Y-71382858D01*
X116366127Y-71147156D02*
X116467142Y-71382858D01*
X116467142Y-71382858D02*
X116702844Y-71483874D01*
X116231440Y-71416530D02*
X116467142Y-71382858D01*
X116467142Y-71382858D02*
X116433470Y-71618561D01*
X175683333Y-113504819D02*
X176302380Y-113504819D01*
X176302380Y-113504819D02*
X175969047Y-113885771D01*
X175969047Y-113885771D02*
X176111904Y-113885771D01*
X176111904Y-113885771D02*
X176207142Y-113933390D01*
X176207142Y-113933390D02*
X176254761Y-113981009D01*
X176254761Y-113981009D02*
X176302380Y-114076247D01*
X176302380Y-114076247D02*
X176302380Y-114314342D01*
X176302380Y-114314342D02*
X176254761Y-114409580D01*
X176254761Y-114409580D02*
X176207142Y-114457200D01*
X176207142Y-114457200D02*
X176111904Y-114504819D01*
X176111904Y-114504819D02*
X175826190Y-114504819D01*
X175826190Y-114504819D02*
X175730952Y-114457200D01*
X175730952Y-114457200D02*
X175683333Y-114409580D01*
X176588095Y-113504819D02*
X176921428Y-114504819D01*
X176921428Y-114504819D02*
X177254761Y-113504819D01*
X177492857Y-113504819D02*
X178111904Y-113504819D01*
X178111904Y-113504819D02*
X177778571Y-113885771D01*
X177778571Y-113885771D02*
X177921428Y-113885771D01*
X177921428Y-113885771D02*
X178016666Y-113933390D01*
X178016666Y-113933390D02*
X178064285Y-113981009D01*
X178064285Y-113981009D02*
X178111904Y-114076247D01*
X178111904Y-114076247D02*
X178111904Y-114314342D01*
X178111904Y-114314342D02*
X178064285Y-114409580D01*
X178064285Y-114409580D02*
X178016666Y-114457200D01*
X178016666Y-114457200D02*
X177921428Y-114504819D01*
X177921428Y-114504819D02*
X177635714Y-114504819D01*
X177635714Y-114504819D02*
X177540476Y-114457200D01*
X177540476Y-114457200D02*
X177492857Y-114409580D01*
X178540476Y-114504819D02*
X178540476Y-113504819D01*
X178540476Y-113981009D02*
X179111904Y-113981009D01*
X179111904Y-114504819D02*
X179111904Y-113504819D01*
X179540476Y-114457200D02*
X179683333Y-114504819D01*
X179683333Y-114504819D02*
X179921428Y-114504819D01*
X179921428Y-114504819D02*
X180016666Y-114457200D01*
X180016666Y-114457200D02*
X180064285Y-114409580D01*
X180064285Y-114409580D02*
X180111904Y-114314342D01*
X180111904Y-114314342D02*
X180111904Y-114219104D01*
X180111904Y-114219104D02*
X180064285Y-114123866D01*
X180064285Y-114123866D02*
X180016666Y-114076247D01*
X180016666Y-114076247D02*
X179921428Y-114028628D01*
X179921428Y-114028628D02*
X179730952Y-113981009D01*
X179730952Y-113981009D02*
X179635714Y-113933390D01*
X179635714Y-113933390D02*
X179588095Y-113885771D01*
X179588095Y-113885771D02*
X179540476Y-113790533D01*
X179540476Y-113790533D02*
X179540476Y-113695295D01*
X179540476Y-113695295D02*
X179588095Y-113600057D01*
X179588095Y-113600057D02*
X179635714Y-113552438D01*
X179635714Y-113552438D02*
X179730952Y-113504819D01*
X179730952Y-113504819D02*
X179969047Y-113504819D01*
X179969047Y-113504819D02*
X180111904Y-113552438D01*
X180492857Y-114457200D02*
X180635714Y-114504819D01*
X180635714Y-114504819D02*
X180873809Y-114504819D01*
X180873809Y-114504819D02*
X180969047Y-114457200D01*
X180969047Y-114457200D02*
X181016666Y-114409580D01*
X181016666Y-114409580D02*
X181064285Y-114314342D01*
X181064285Y-114314342D02*
X181064285Y-114219104D01*
X181064285Y-114219104D02*
X181016666Y-114123866D01*
X181016666Y-114123866D02*
X180969047Y-114076247D01*
X180969047Y-114076247D02*
X180873809Y-114028628D01*
X180873809Y-114028628D02*
X180683333Y-113981009D01*
X180683333Y-113981009D02*
X180588095Y-113933390D01*
X180588095Y-113933390D02*
X180540476Y-113885771D01*
X180540476Y-113885771D02*
X180492857Y-113790533D01*
X180492857Y-113790533D02*
X180492857Y-113695295D01*
X180492857Y-113695295D02*
X180540476Y-113600057D01*
X180540476Y-113600057D02*
X180588095Y-113552438D01*
X180588095Y-113552438D02*
X180683333Y-113504819D01*
X180683333Y-113504819D02*
X180921428Y-113504819D01*
X180921428Y-113504819D02*
X181064285Y-113552438D01*
X181635714Y-114504819D02*
X181540476Y-114457200D01*
X181540476Y-114457200D02*
X181492857Y-114409580D01*
X181492857Y-114409580D02*
X181445238Y-114314342D01*
X181445238Y-114314342D02*
X181445238Y-114028628D01*
X181445238Y-114028628D02*
X181492857Y-113933390D01*
X181492857Y-113933390D02*
X181540476Y-113885771D01*
X181540476Y-113885771D02*
X181635714Y-113838152D01*
X181635714Y-113838152D02*
X181778571Y-113838152D01*
X181778571Y-113838152D02*
X181873809Y-113885771D01*
X181873809Y-113885771D02*
X181921428Y-113933390D01*
X181921428Y-113933390D02*
X181969047Y-114028628D01*
X181969047Y-114028628D02*
X181969047Y-114314342D01*
X181969047Y-114314342D02*
X181921428Y-114409580D01*
X181921428Y-114409580D02*
X181873809Y-114457200D01*
X181873809Y-114457200D02*
X181778571Y-114504819D01*
X181778571Y-114504819D02*
X181635714Y-114504819D01*
X182969047Y-114409580D02*
X182921428Y-114457200D01*
X182921428Y-114457200D02*
X182778571Y-114504819D01*
X182778571Y-114504819D02*
X182683333Y-114504819D01*
X182683333Y-114504819D02*
X182540476Y-114457200D01*
X182540476Y-114457200D02*
X182445238Y-114361961D01*
X182445238Y-114361961D02*
X182397619Y-114266723D01*
X182397619Y-114266723D02*
X182350000Y-114076247D01*
X182350000Y-114076247D02*
X182350000Y-113933390D01*
X182350000Y-113933390D02*
X182397619Y-113742914D01*
X182397619Y-113742914D02*
X182445238Y-113647676D01*
X182445238Y-113647676D02*
X182540476Y-113552438D01*
X182540476Y-113552438D02*
X182683333Y-113504819D01*
X182683333Y-113504819D02*
X182778571Y-113504819D01*
X182778571Y-113504819D02*
X182921428Y-113552438D01*
X182921428Y-113552438D02*
X182969047Y-113600057D01*
X89889286Y-74429819D02*
X89889286Y-73429819D01*
X89889286Y-73429819D02*
X90270238Y-73429819D01*
X90270238Y-73429819D02*
X90365476Y-73477438D01*
X90365476Y-73477438D02*
X90413095Y-73525057D01*
X90413095Y-73525057D02*
X90460714Y-73620295D01*
X90460714Y-73620295D02*
X90460714Y-73763152D01*
X90460714Y-73763152D02*
X90413095Y-73858390D01*
X90413095Y-73858390D02*
X90365476Y-73906009D01*
X90365476Y-73906009D02*
X90270238Y-73953628D01*
X90270238Y-73953628D02*
X89889286Y-73953628D01*
X91460714Y-74429819D02*
X91127381Y-73953628D01*
X90889286Y-74429819D02*
X90889286Y-73429819D01*
X90889286Y-73429819D02*
X91270238Y-73429819D01*
X91270238Y-73429819D02*
X91365476Y-73477438D01*
X91365476Y-73477438D02*
X91413095Y-73525057D01*
X91413095Y-73525057D02*
X91460714Y-73620295D01*
X91460714Y-73620295D02*
X91460714Y-73763152D01*
X91460714Y-73763152D02*
X91413095Y-73858390D01*
X91413095Y-73858390D02*
X91365476Y-73906009D01*
X91365476Y-73906009D02*
X91270238Y-73953628D01*
X91270238Y-73953628D02*
X90889286Y-73953628D01*
X92079762Y-73429819D02*
X92270238Y-73429819D01*
X92270238Y-73429819D02*
X92365476Y-73477438D01*
X92365476Y-73477438D02*
X92460714Y-73572676D01*
X92460714Y-73572676D02*
X92508333Y-73763152D01*
X92508333Y-73763152D02*
X92508333Y-74096485D01*
X92508333Y-74096485D02*
X92460714Y-74286961D01*
X92460714Y-74286961D02*
X92365476Y-74382200D01*
X92365476Y-74382200D02*
X92270238Y-74429819D01*
X92270238Y-74429819D02*
X92079762Y-74429819D01*
X92079762Y-74429819D02*
X91984524Y-74382200D01*
X91984524Y-74382200D02*
X91889286Y-74286961D01*
X91889286Y-74286961D02*
X91841667Y-74096485D01*
X91841667Y-74096485D02*
X91841667Y-73763152D01*
X91841667Y-73763152D02*
X91889286Y-73572676D01*
X91889286Y-73572676D02*
X91984524Y-73477438D01*
X91984524Y-73477438D02*
X92079762Y-73429819D01*
X93460714Y-73477438D02*
X93365476Y-73429819D01*
X93365476Y-73429819D02*
X93222619Y-73429819D01*
X93222619Y-73429819D02*
X93079762Y-73477438D01*
X93079762Y-73477438D02*
X92984524Y-73572676D01*
X92984524Y-73572676D02*
X92936905Y-73667914D01*
X92936905Y-73667914D02*
X92889286Y-73858390D01*
X92889286Y-73858390D02*
X92889286Y-74001247D01*
X92889286Y-74001247D02*
X92936905Y-74191723D01*
X92936905Y-74191723D02*
X92984524Y-74286961D01*
X92984524Y-74286961D02*
X93079762Y-74382200D01*
X93079762Y-74382200D02*
X93222619Y-74429819D01*
X93222619Y-74429819D02*
X93317857Y-74429819D01*
X93317857Y-74429819D02*
X93460714Y-74382200D01*
X93460714Y-74382200D02*
X93508333Y-74334580D01*
X93508333Y-74334580D02*
X93508333Y-74001247D01*
X93508333Y-74001247D02*
X93317857Y-74001247D01*
X172638095Y-111802438D02*
X172542857Y-111754819D01*
X172542857Y-111754819D02*
X172400000Y-111754819D01*
X172400000Y-111754819D02*
X172257143Y-111802438D01*
X172257143Y-111802438D02*
X172161905Y-111897676D01*
X172161905Y-111897676D02*
X172114286Y-111992914D01*
X172114286Y-111992914D02*
X172066667Y-112183390D01*
X172066667Y-112183390D02*
X172066667Y-112326247D01*
X172066667Y-112326247D02*
X172114286Y-112516723D01*
X172114286Y-112516723D02*
X172161905Y-112611961D01*
X172161905Y-112611961D02*
X172257143Y-112707200D01*
X172257143Y-112707200D02*
X172400000Y-112754819D01*
X172400000Y-112754819D02*
X172495238Y-112754819D01*
X172495238Y-112754819D02*
X172638095Y-112707200D01*
X172638095Y-112707200D02*
X172685714Y-112659580D01*
X172685714Y-112659580D02*
X172685714Y-112326247D01*
X172685714Y-112326247D02*
X172495238Y-112326247D01*
X173114286Y-112754819D02*
X173114286Y-111754819D01*
X173114286Y-111754819D02*
X173685714Y-112754819D01*
X173685714Y-112754819D02*
X173685714Y-111754819D01*
X174161905Y-112754819D02*
X174161905Y-111754819D01*
X174161905Y-111754819D02*
X174400000Y-111754819D01*
X174400000Y-111754819D02*
X174542857Y-111802438D01*
X174542857Y-111802438D02*
X174638095Y-111897676D01*
X174638095Y-111897676D02*
X174685714Y-111992914D01*
X174685714Y-111992914D02*
X174733333Y-112183390D01*
X174733333Y-112183390D02*
X174733333Y-112326247D01*
X174733333Y-112326247D02*
X174685714Y-112516723D01*
X174685714Y-112516723D02*
X174638095Y-112611961D01*
X174638095Y-112611961D02*
X174542857Y-112707200D01*
X174542857Y-112707200D02*
X174400000Y-112754819D01*
X174400000Y-112754819D02*
X174161905Y-112754819D01*
X83539819Y-99112618D02*
X82539819Y-99112618D01*
X83016009Y-99112618D02*
X83016009Y-98541190D01*
X83539819Y-98541190D02*
X82539819Y-98541190D01*
X82539819Y-98160237D02*
X82539819Y-97493571D01*
X82539819Y-97493571D02*
X83539819Y-97922142D01*
X83635057Y-97350714D02*
X83635057Y-96588809D01*
X82539819Y-96350713D02*
X83349342Y-96350713D01*
X83349342Y-96350713D02*
X83444580Y-96303094D01*
X83444580Y-96303094D02*
X83492200Y-96255475D01*
X83492200Y-96255475D02*
X83539819Y-96160237D01*
X83539819Y-96160237D02*
X83539819Y-95969761D01*
X83539819Y-95969761D02*
X83492200Y-95874523D01*
X83492200Y-95874523D02*
X83444580Y-95826904D01*
X83444580Y-95826904D02*
X83349342Y-95779285D01*
X83349342Y-95779285D02*
X82539819Y-95779285D01*
X83254104Y-95350713D02*
X83254104Y-94874523D01*
X83539819Y-95445951D02*
X82539819Y-95112618D01*
X82539819Y-95112618D02*
X83539819Y-94779285D01*
X83539819Y-93874523D02*
X83063628Y-94207856D01*
X83539819Y-94445951D02*
X82539819Y-94445951D01*
X82539819Y-94445951D02*
X82539819Y-94064999D01*
X82539819Y-94064999D02*
X82587438Y-93969761D01*
X82587438Y-93969761D02*
X82635057Y-93922142D01*
X82635057Y-93922142D02*
X82730295Y-93874523D01*
X82730295Y-93874523D02*
X82873152Y-93874523D01*
X82873152Y-93874523D02*
X82968390Y-93922142D01*
X82968390Y-93922142D02*
X83016009Y-93969761D01*
X83016009Y-93969761D02*
X83063628Y-94064999D01*
X83063628Y-94064999D02*
X83063628Y-94445951D01*
X82539819Y-93588808D02*
X82539819Y-93017380D01*
X83539819Y-93303094D02*
X82539819Y-93303094D01*
X82492200Y-91969761D02*
X83777914Y-92826903D01*
X83492200Y-91684046D02*
X83539819Y-91541189D01*
X83539819Y-91541189D02*
X83539819Y-91303094D01*
X83539819Y-91303094D02*
X83492200Y-91207856D01*
X83492200Y-91207856D02*
X83444580Y-91160237D01*
X83444580Y-91160237D02*
X83349342Y-91112618D01*
X83349342Y-91112618D02*
X83254104Y-91112618D01*
X83254104Y-91112618D02*
X83158866Y-91160237D01*
X83158866Y-91160237D02*
X83111247Y-91207856D01*
X83111247Y-91207856D02*
X83063628Y-91303094D01*
X83063628Y-91303094D02*
X83016009Y-91493570D01*
X83016009Y-91493570D02*
X82968390Y-91588808D01*
X82968390Y-91588808D02*
X82920771Y-91636427D01*
X82920771Y-91636427D02*
X82825533Y-91684046D01*
X82825533Y-91684046D02*
X82730295Y-91684046D01*
X82730295Y-91684046D02*
X82635057Y-91636427D01*
X82635057Y-91636427D02*
X82587438Y-91588808D01*
X82587438Y-91588808D02*
X82539819Y-91493570D01*
X82539819Y-91493570D02*
X82539819Y-91255475D01*
X82539819Y-91255475D02*
X82587438Y-91112618D01*
X82539819Y-90779284D02*
X83539819Y-90541189D01*
X83539819Y-90541189D02*
X82825533Y-90350713D01*
X82825533Y-90350713D02*
X83539819Y-90160237D01*
X83539819Y-90160237D02*
X82539819Y-89922142D01*
X83539819Y-89541189D02*
X82539819Y-89541189D01*
X82539819Y-89541189D02*
X82539819Y-89303094D01*
X82539819Y-89303094D02*
X82587438Y-89160237D01*
X82587438Y-89160237D02*
X82682676Y-89064999D01*
X82682676Y-89064999D02*
X82777914Y-89017380D01*
X82777914Y-89017380D02*
X82968390Y-88969761D01*
X82968390Y-88969761D02*
X83111247Y-88969761D01*
X83111247Y-88969761D02*
X83301723Y-89017380D01*
X83301723Y-89017380D02*
X83396961Y-89064999D01*
X83396961Y-89064999D02*
X83492200Y-89160237D01*
X83492200Y-89160237D02*
X83539819Y-89303094D01*
X83539819Y-89303094D02*
X83539819Y-89541189D01*
X99356127Y-68475328D02*
X98783707Y-69047748D01*
X98783707Y-69047748D02*
X98750035Y-69148763D01*
X98750035Y-69148763D02*
X98750035Y-69216107D01*
X98750035Y-69216107D02*
X98783707Y-69317122D01*
X98783707Y-69317122D02*
X98918394Y-69451809D01*
X98918394Y-69451809D02*
X99019409Y-69485481D01*
X99019409Y-69485481D02*
X99086753Y-69485481D01*
X99086753Y-69485481D02*
X99187768Y-69451809D01*
X99187768Y-69451809D02*
X99760188Y-68879389D01*
X100164249Y-69754855D02*
X99692844Y-70226259D01*
X100265264Y-69317122D02*
X99591829Y-69653840D01*
X99591829Y-69653840D02*
X100029562Y-70091572D01*
X99185501Y-62964499D02*
X99017142Y-63132857D01*
X98916127Y-62897155D02*
X99017142Y-63132857D01*
X99017142Y-63132857D02*
X99252844Y-63233873D01*
X98781440Y-63166529D02*
X99017142Y-63132857D01*
X99017142Y-63132857D02*
X98983470Y-63368560D01*
D14*
%TO.C,R22*%
X119470276Y-65777500D02*
X119979724Y-65777500D01*
X119470276Y-66822500D02*
X119979724Y-66822500D01*
D15*
%TO.C,D4*%
X167778015Y-88341350D02*
X166816350Y-89303015D01*
X168166924Y-88730259D02*
X167778015Y-88341350D01*
X169333650Y-89896985D02*
X168371985Y-90858650D01*
X169333650Y-89896985D02*
X168944741Y-89508076D01*
D11*
X166336522Y-89387868D02*
G75*
G02*
X166136522Y-89387868I-100000J0D01*
G01*
X166136522Y-89387868D02*
G75*
G02*
X166336522Y-89387868I100000J0D01*
G01*
D14*
%TO.C,C11*%
X158439987Y-69461073D02*
X158646840Y-69254220D01*
X159161236Y-70182322D02*
X159368089Y-69975469D01*
%TO.C,D3*%
X123840835Y-68605282D02*
X123519718Y-68284165D01*
X124880282Y-67565835D02*
X124559165Y-67244718D01*
%TO.C,D1*%
X82162500Y-78140000D02*
X81512500Y-78140000D01*
X82162500Y-78140000D02*
X82812500Y-78140000D01*
X82162500Y-81260000D02*
X81512500Y-81260000D01*
X82162500Y-81260000D02*
X82812500Y-81260000D01*
X81000000Y-78190000D02*
X80760000Y-77860000D01*
X81240000Y-77860000D01*
X81000000Y-78190000D01*
G36*
X81000000Y-78190000D02*
G01*
X80760000Y-77860000D01*
X81240000Y-77860000D01*
X81000000Y-78190000D01*
G37*
%TO.C,H7RST1*%
X171550000Y-87095000D02*
X178010000Y-87095000D01*
X171550000Y-87125000D02*
X171550000Y-87095000D01*
X171550000Y-89025000D02*
X171550000Y-91625000D01*
X171550000Y-93555000D02*
X171550000Y-93525000D01*
X171550000Y-93555000D02*
X178010000Y-93555000D01*
X178010000Y-87095000D02*
X178010000Y-87125000D01*
X178010000Y-89025000D02*
X178010000Y-91625000D01*
X178010000Y-93555000D02*
X178010000Y-93525000D01*
%TO.C,R26*%
X114460654Y-102000420D02*
X114100420Y-102360654D01*
X115199580Y-102739346D02*
X114839346Y-103099580D01*
%TO.C,R24*%
X123755889Y-114330185D02*
X123395655Y-114690419D01*
X124494815Y-115069111D02*
X124134581Y-115429345D01*
%TO.C,3V3SoC*%
X172700000Y-106250000D02*
X174100000Y-106250000D01*
X172700000Y-107650000D02*
X172700000Y-106250000D01*
X174100000Y-106250000D02*
X174100000Y-107650000D01*
X174100000Y-107650000D02*
X172700000Y-107650000D01*
%TO.C,C73*%
X164142802Y-101010949D02*
X163935949Y-101217802D01*
X164864051Y-101732198D02*
X164657198Y-101939051D01*
%TO.C,C28*%
X141490661Y-97370552D02*
X141283808Y-97577405D01*
X142211910Y-98091801D02*
X142005057Y-98298654D01*
%TO.C,R41*%
X137185654Y-95600420D02*
X136825420Y-95960654D01*
X137924580Y-96339346D02*
X137564346Y-96699580D01*
%TO.C,R40*%
X138855889Y-102405185D02*
X138495655Y-102765419D01*
X139594815Y-103144111D02*
X139234581Y-103504345D01*
%TO.C,RS485*%
X81922936Y-67565000D02*
X82377064Y-67565000D01*
X81922936Y-69035000D02*
X82377064Y-69035000D01*
D15*
%TO.C,J5*%
X168322869Y-55762225D02*
X169086544Y-56525900D01*
X170359336Y-53725758D02*
X168322869Y-55762225D01*
X171123011Y-54489433D02*
X170359336Y-53725758D01*
X184303482Y-71742838D02*
X183539807Y-70979163D01*
X186339949Y-69706371D02*
X184303482Y-71742838D01*
X186339949Y-69706371D02*
X185576274Y-68942696D01*
D11*
X186680366Y-68476005D02*
G75*
G02*
X186480366Y-68476005I-100000J0D01*
G01*
X186480366Y-68476005D02*
G75*
G02*
X186680366Y-68476005I100000J0D01*
G01*
D14*
%TO.C,UH_OH*%
X81947936Y-63915000D02*
X82402064Y-63915000D01*
X81947936Y-65385000D02*
X82402064Y-65385000D01*
%TO.C,C35*%
X181715000Y-89003733D02*
X181715000Y-89296267D01*
X182735000Y-89003733D02*
X182735000Y-89296267D01*
D15*
%TO.C,L1*%
X157251625Y-95376196D02*
X157091625Y-95376196D01*
X157251625Y-97376196D02*
X157091625Y-97376196D01*
D14*
%TO.C,C33*%
X189390000Y-90538747D02*
X189390000Y-91061253D01*
X190860000Y-90538747D02*
X190860000Y-91061253D01*
%TO.C,C55*%
X156353608Y-92401373D02*
X156646142Y-92401373D01*
X156353608Y-93421373D02*
X156646142Y-93421373D01*
%TO.C,C44*%
X178378733Y-97540000D02*
X178671267Y-97540000D01*
X178378733Y-98560000D02*
X178671267Y-98560000D01*
%TO.C,3V3HPSoC*%
X174347936Y-94290000D02*
X174802064Y-94290000D01*
X174347936Y-95760000D02*
X174802064Y-95760000D01*
D10*
%TO.C,U1*%
X128975742Y-80201130D02*
X130048606Y-81273994D01*
X130048608Y-79128264D02*
X128975742Y-80201130D01*
X145934099Y-97159487D02*
X147006965Y-98232353D01*
X147006965Y-62169907D02*
X145934101Y-63242771D01*
X147006965Y-98232353D02*
X148079829Y-97159489D01*
X147904991Y-97334327D02*
X146108939Y-97334327D01*
X148079831Y-63242773D02*
X147006965Y-62169907D01*
X163965322Y-81273996D02*
X165038188Y-80201130D01*
X165038188Y-80201130D02*
X163965324Y-79128266D01*
X149490155Y-97810917D02*
G75*
G02*
X149337757Y-97810917I-76199J0D01*
G01*
X149337757Y-97810917D02*
G75*
G02*
X149490155Y-97810917I76199J0D01*
G01*
D14*
%TO.C,C38*%
X158715000Y-107121267D02*
X158715000Y-106828733D01*
X159735000Y-107121267D02*
X159735000Y-106828733D01*
%TO.C,R21*%
X168095276Y-96727500D02*
X168604724Y-96727500D01*
X168095276Y-97772500D02*
X168604724Y-97772500D01*
%TO.C,JP1*%
X82705000Y-74220000D02*
X82705000Y-76980000D01*
X85355000Y-74220000D02*
X82705000Y-74220000D01*
X85355000Y-74220000D02*
X85355000Y-76980000D01*
X85355000Y-76980000D02*
X82705000Y-76980000D01*
X86625000Y-74220001D02*
X88005000Y-74220000D01*
X88005000Y-74220000D02*
X88004999Y-75600000D01*
%TO.C,C15*%
X165793897Y-81870797D02*
X166000750Y-81663944D01*
X166515146Y-82592046D02*
X166721999Y-82385193D01*
D15*
%TO.C,J1*%
X199525000Y-73375000D02*
X199525000Y-74275000D01*
X199525000Y-74275000D02*
X204025000Y-74275000D01*
X199525000Y-89875000D02*
X199525000Y-90775000D01*
X199525000Y-90775000D02*
X211025000Y-90775000D01*
X204025000Y-74275000D02*
X204025000Y-89875000D01*
X204025000Y-89875000D02*
X199525000Y-89875000D01*
X211025000Y-73375000D02*
X199525000Y-73375000D01*
D11*
X201925000Y-91325000D02*
G75*
G02*
X201725000Y-91325000I-100000J0D01*
G01*
X201725000Y-91325000D02*
G75*
G02*
X201925000Y-91325000I100000J0D01*
G01*
D14*
%TO.C,R36*%
X133485654Y-93925420D02*
X133125420Y-94285654D01*
X134224580Y-94664346D02*
X133864346Y-95024580D01*
D16*
%TO.C,G\u002A\u002A\u002A*%
G36*
X108176120Y-57246636D02*
G01*
X108208069Y-57247911D01*
X108236378Y-57249977D01*
X108255064Y-57252167D01*
X108334262Y-57266832D01*
X108410285Y-57287349D01*
X108483207Y-57313746D01*
X108553100Y-57346053D01*
X108620036Y-57384298D01*
X108661784Y-57412206D01*
X108710512Y-57449712D01*
X108758441Y-57492315D01*
X108804041Y-57538483D01*
X108845781Y-57586685D01*
X108875620Y-57626042D01*
X108917393Y-57690619D01*
X108953195Y-57757765D01*
X108983010Y-57827086D01*
X109006821Y-57898189D01*
X109024614Y-57970679D01*
X109036371Y-58044162D01*
X109042079Y-58118245D01*
X109041719Y-58192532D01*
X109035278Y-58266631D01*
X109022738Y-58340147D01*
X109004085Y-58412685D01*
X108979301Y-58483853D01*
X108948373Y-58553255D01*
X108915319Y-58613799D01*
X108872659Y-58678927D01*
X108825195Y-58739566D01*
X108773221Y-58795522D01*
X108717031Y-58846605D01*
X108656918Y-58892621D01*
X108593177Y-58933378D01*
X108526102Y-58968684D01*
X108455986Y-58998345D01*
X108383124Y-59022171D01*
X108307810Y-59039967D01*
X108250064Y-59049220D01*
X108229544Y-59051400D01*
X108205076Y-59053285D01*
X108178503Y-59054797D01*
X108151666Y-59055859D01*
X108126409Y-59056395D01*
X108104574Y-59056326D01*
X108091709Y-59055842D01*
X108013439Y-59047838D01*
X107936869Y-59033548D01*
X107862330Y-59013120D01*
X107790152Y-58986698D01*
X107720664Y-58954431D01*
X107654195Y-58916464D01*
X107591077Y-58872944D01*
X107531638Y-58824018D01*
X107497462Y-58791715D01*
X107445658Y-58735473D01*
X107398899Y-58675061D01*
X107357408Y-58610910D01*
X107321406Y-58543453D01*
X107291115Y-58473122D01*
X107266757Y-58400350D01*
X107248553Y-58325568D01*
X107243220Y-58296257D01*
X107234027Y-58220214D01*
X107231395Y-58143852D01*
X107235262Y-58067597D01*
X107245123Y-57995108D01*
X108147395Y-57995108D01*
X108150166Y-58021410D01*
X108156283Y-58046260D01*
X108166262Y-58072056D01*
X108174109Y-58088568D01*
X108182822Y-58105104D01*
X108191114Y-58118396D01*
X108200572Y-58130610D01*
X108212785Y-58143914D01*
X108220053Y-58151284D01*
X108234348Y-58165123D01*
X108246461Y-58175468D01*
X108258548Y-58183886D01*
X108272770Y-58191944D01*
X108283794Y-58197539D01*
X108307179Y-58208357D01*
X108327782Y-58215889D01*
X108347768Y-58220603D01*
X108369301Y-58222962D01*
X108394546Y-58223433D01*
X108403417Y-58223269D01*
X108423077Y-58222546D01*
X108438194Y-58221288D01*
X108450889Y-58219180D01*
X108463282Y-58215908D01*
X108471759Y-58213153D01*
X108508358Y-58197538D01*
X108541398Y-58176658D01*
X108570382Y-58151387D01*
X108597054Y-58120210D01*
X108617903Y-58086140D01*
X108632787Y-58049756D01*
X108641565Y-58011637D01*
X108644095Y-57972363D01*
X108640234Y-57932513D01*
X108632018Y-57899232D01*
X108620962Y-57870566D01*
X108606482Y-57844621D01*
X108587498Y-57819684D01*
X108570106Y-57801065D01*
X108544716Y-57778013D01*
X108519563Y-57760285D01*
X108492965Y-57746818D01*
X108472237Y-57739247D01*
X108432105Y-57729848D01*
X108392193Y-57726979D01*
X108353039Y-57730507D01*
X108315178Y-57740304D01*
X108279146Y-57756237D01*
X108245481Y-57778176D01*
X108219784Y-57800789D01*
X108193173Y-57831266D01*
X108172880Y-57863389D01*
X108158634Y-57897769D01*
X108150165Y-57935019D01*
X108147453Y-57964958D01*
X108147395Y-57995108D01*
X107245123Y-57995108D01*
X107245563Y-57991874D01*
X107262234Y-57917110D01*
X107285212Y-57843730D01*
X107314432Y-57772159D01*
X107325247Y-57749392D01*
X107362172Y-57681727D01*
X107404276Y-57618081D01*
X107451265Y-57558665D01*
X107502844Y-57503688D01*
X107558720Y-57453363D01*
X107618599Y-57407898D01*
X107682187Y-57367504D01*
X107749190Y-57332391D01*
X107819313Y-57302771D01*
X107892264Y-57278853D01*
X107967747Y-57260847D01*
X108020033Y-57252135D01*
X108045212Y-57249451D01*
X108075076Y-57247560D01*
X108107958Y-57246461D01*
X108142194Y-57246153D01*
X108176120Y-57246636D01*
G37*
G36*
X109811416Y-59751530D02*
G01*
X109832836Y-59753122D01*
X109843588Y-59754652D01*
X109890326Y-59766278D01*
X109933768Y-59783319D01*
X109973665Y-59805298D01*
X110009773Y-59831736D01*
X110041844Y-59862155D01*
X110069632Y-59896078D01*
X110092891Y-59933026D01*
X110111374Y-59972522D01*
X110124834Y-60014087D01*
X110133026Y-60057244D01*
X110135701Y-60101515D01*
X110132615Y-60146422D01*
X110123521Y-60191486D01*
X110108171Y-60236231D01*
X110100645Y-60253053D01*
X110086970Y-60278581D01*
X110070556Y-60304239D01*
X110052780Y-60328088D01*
X110035022Y-60348187D01*
X110028864Y-60354162D01*
X110020909Y-60361736D01*
X110015396Y-60367445D01*
X110013628Y-60369831D01*
X110015466Y-60373021D01*
X110020453Y-60380439D01*
X110027798Y-60390935D01*
X110035560Y-60401768D01*
X110073919Y-60458869D01*
X110108278Y-60518359D01*
X110138132Y-60579172D01*
X110162978Y-60640242D01*
X110182314Y-60700504D01*
X110189056Y-60726955D01*
X110192562Y-60742700D01*
X110195068Y-60756296D01*
X110196741Y-60769497D01*
X110197752Y-60784060D01*
X110198268Y-60801743D01*
X110198458Y-60824301D01*
X110198460Y-60824795D01*
X110198234Y-60852039D01*
X110197197Y-60874109D01*
X110195099Y-60892478D01*
X110191687Y-60908617D01*
X110186712Y-60923996D01*
X110179920Y-60940087D01*
X110178097Y-60943995D01*
X110161573Y-60971326D01*
X110139994Y-60994752D01*
X110114138Y-61013595D01*
X110084784Y-61027181D01*
X110080804Y-61028509D01*
X110061377Y-61032841D01*
X110037777Y-61035204D01*
X110012212Y-61035562D01*
X109986888Y-61033878D01*
X109965289Y-61030403D01*
X109919383Y-61017300D01*
X109872029Y-60998063D01*
X109823708Y-60972940D01*
X109774900Y-60942182D01*
X109728474Y-60907930D01*
X109713992Y-60895812D01*
X109696305Y-60879983D01*
X109676642Y-60861640D01*
X109656234Y-60841980D01*
X109636309Y-60822202D01*
X109618097Y-60803502D01*
X109602829Y-60787078D01*
X109594318Y-60777298D01*
X109585618Y-60767214D01*
X109578362Y-60759465D01*
X109573679Y-60755232D01*
X109572751Y-60754786D01*
X109568879Y-60756536D01*
X109560964Y-60761206D01*
X109550447Y-60767928D01*
X109545916Y-60770941D01*
X109517613Y-60789369D01*
X109484553Y-60809868D01*
X109448031Y-60831705D01*
X109409340Y-60854146D01*
X109369773Y-60876460D01*
X109330622Y-60897912D01*
X109293183Y-60917770D01*
X109258747Y-60935301D01*
X109239195Y-60944811D01*
X109220055Y-60954166D01*
X109206636Y-60961344D01*
X109198463Y-60966632D01*
X109195062Y-60970314D01*
X109194950Y-60971481D01*
X109196519Y-60976332D01*
X109199900Y-60986144D01*
X109204637Y-60999606D01*
X109210270Y-61015412D01*
X109211854Y-61019821D01*
X109236290Y-61096852D01*
X109254147Y-61173717D01*
X109265404Y-61250298D01*
X109270039Y-61326483D01*
X109270170Y-61341102D01*
X109268308Y-61393541D01*
X109262758Y-61441925D01*
X109253657Y-61486031D01*
X109241140Y-61525635D01*
X109225345Y-61560515D01*
X109206407Y-61590448D01*
X109184464Y-61615212D01*
X109159651Y-61634583D01*
X109132104Y-61648339D01*
X109101961Y-61656257D01*
X109076043Y-61658238D01*
X109041045Y-61655158D01*
X109006009Y-61645860D01*
X108970762Y-61630258D01*
X108935129Y-61608265D01*
X108898934Y-61579795D01*
X108877323Y-61559999D01*
X108862564Y-61545395D01*
X108847483Y-61529794D01*
X108833772Y-61514987D01*
X108823123Y-61502763D01*
X108822414Y-61501901D01*
X108791064Y-61460263D01*
X108760457Y-61413220D01*
X108731260Y-61362033D01*
X108704139Y-61307962D01*
X108679761Y-61252270D01*
X108658792Y-61196217D01*
X108655263Y-61185676D01*
X108651154Y-61173357D01*
X108647873Y-61163890D01*
X108645924Y-61158717D01*
X108645625Y-61158172D01*
X108642337Y-61158861D01*
X108633762Y-61160748D01*
X108621114Y-61163563D01*
X108605610Y-61167036D01*
X108601726Y-61167910D01*
X108510351Y-61186560D01*
X108415782Y-61202248D01*
X108319745Y-61214779D01*
X108223964Y-61223956D01*
X108130165Y-61229583D01*
X108042687Y-61231464D01*
X107966995Y-61231515D01*
X107965354Y-61242350D01*
X107964471Y-61250305D01*
X107963431Y-61262886D01*
X107962394Y-61278061D01*
X107961836Y-61287592D01*
X107956993Y-61340748D01*
X107948383Y-61395364D01*
X107936398Y-61449920D01*
X107921426Y-61502897D01*
X107903859Y-61552776D01*
X107884087Y-61598037D01*
X107879956Y-61606297D01*
X107857542Y-61645498D01*
X107832917Y-61680124D01*
X107806513Y-61709728D01*
X107778762Y-61733862D01*
X107750098Y-61752081D01*
X107730483Y-61760796D01*
X107712651Y-61765800D01*
X107692185Y-61769135D01*
X107671496Y-61770596D01*
X107652994Y-61769976D01*
X107643024Y-61768294D01*
X107608973Y-61756186D01*
X107576840Y-61737696D01*
X107546624Y-61712824D01*
X107518323Y-61681568D01*
X107491936Y-61643927D01*
X107468372Y-61601719D01*
X107446310Y-61552927D01*
X107427724Y-61501121D01*
X107412490Y-61445740D01*
X107400483Y-61386224D01*
X107391579Y-61322013D01*
X107385653Y-61252547D01*
X107384028Y-61221779D01*
X107381616Y-61167036D01*
X107331610Y-61155909D01*
X107219010Y-61129320D01*
X107111434Y-61100720D01*
X107007432Y-61069688D01*
X106905553Y-61035807D01*
X106863722Y-61020872D01*
X106845972Y-61014483D01*
X106830542Y-61009071D01*
X106818457Y-61004984D01*
X106810740Y-61002570D01*
X106808382Y-61002089D01*
X106807268Y-61005578D01*
X106804980Y-61014050D01*
X106801915Y-61026007D01*
X106800169Y-61033015D01*
X106785008Y-61087251D01*
X106766464Y-61141516D01*
X106745156Y-61194338D01*
X106721703Y-61244242D01*
X106696725Y-61289755D01*
X106683123Y-61311526D01*
X106653313Y-61353322D01*
X106622562Y-61389407D01*
X106591077Y-61419679D01*
X106559066Y-61444036D01*
X106526737Y-61462378D01*
X106494297Y-61474602D01*
X106461956Y-61480608D01*
X106429920Y-61480294D01*
X106398397Y-61473560D01*
X106372595Y-61462931D01*
X106352359Y-61449832D01*
X106331792Y-61431311D01*
X106311826Y-61408491D01*
X106293393Y-61382499D01*
X106277425Y-61354457D01*
X106270588Y-61339863D01*
X106254702Y-61298613D01*
X106242245Y-61255626D01*
X106233080Y-61210043D01*
X106227072Y-61161006D01*
X106224085Y-61107656D01*
X106223984Y-61049135D01*
X106224060Y-61045713D01*
X106227625Y-60976176D01*
X106235166Y-60910074D01*
X106247016Y-60845256D01*
X106263510Y-60779571D01*
X106267640Y-60765313D01*
X106275874Y-60737501D01*
X106253670Y-60723684D01*
X106222999Y-60704315D01*
X106191609Y-60683970D01*
X106160199Y-60663138D01*
X106129466Y-60642311D01*
X106100111Y-60621978D01*
X106072830Y-60602630D01*
X106048324Y-60584758D01*
X106027291Y-60568851D01*
X106010429Y-60555400D01*
X105998437Y-60544895D01*
X105997140Y-60543642D01*
X105965280Y-60507750D01*
X105939010Y-60468382D01*
X105918530Y-60425982D01*
X105904039Y-60380996D01*
X105895734Y-60333868D01*
X105894100Y-60312764D01*
X105894816Y-60263251D01*
X105901802Y-60215993D01*
X105915021Y-60171081D01*
X105934436Y-60128607D01*
X105960010Y-60088663D01*
X105991707Y-60051340D01*
X106004541Y-60038628D01*
X106040177Y-60008873D01*
X106078656Y-59984690D01*
X106120783Y-59965632D01*
X106156031Y-59954217D01*
X106177854Y-59949723D01*
X106204116Y-59946695D01*
X106232744Y-59945179D01*
X106261664Y-59945219D01*
X106288800Y-59946861D01*
X106312079Y-59950150D01*
X106315008Y-59950765D01*
X106362881Y-59964550D01*
X106407199Y-59983910D01*
X106447804Y-60008750D01*
X106484538Y-60038973D01*
X106517245Y-60074482D01*
X106517284Y-60074531D01*
X106531528Y-60093857D01*
X106545359Y-60115496D01*
X106557730Y-60137590D01*
X106567593Y-60158283D01*
X106573448Y-60174132D01*
X106575297Y-60179608D01*
X106577772Y-60184491D01*
X106581544Y-60189280D01*
X106587284Y-60194476D01*
X106595663Y-60200577D01*
X106607351Y-60208085D01*
X106623018Y-60217498D01*
X106643335Y-60229316D01*
X106661498Y-60239754D01*
X106745759Y-60286310D01*
X106829274Y-60328774D01*
X106914401Y-60368287D01*
X107003499Y-60405988D01*
X107015993Y-60411014D01*
X107113997Y-60447714D01*
X107216851Y-60481499D01*
X107323268Y-60512058D01*
X107431961Y-60539082D01*
X107541641Y-60562259D01*
X107651021Y-60581280D01*
X107758814Y-60595834D01*
X107801671Y-60600382D01*
X107827184Y-60602379D01*
X107858052Y-60603995D01*
X107893132Y-60605231D01*
X107931282Y-60606085D01*
X107971359Y-60606559D01*
X108012219Y-60606653D01*
X108052719Y-60606366D01*
X108091716Y-60605699D01*
X108128067Y-60604651D01*
X108160630Y-60603223D01*
X108188260Y-60601415D01*
X108200057Y-60600350D01*
X108317050Y-60585787D01*
X108430106Y-60566214D01*
X108539900Y-60541438D01*
X108647102Y-60511264D01*
X108752387Y-60475502D01*
X108856426Y-60433958D01*
X108959894Y-60386439D01*
X108978492Y-60377244D01*
X109087421Y-60319197D01*
X109192435Y-60255830D01*
X109293953Y-60186877D01*
X109385475Y-60117596D01*
X109433021Y-60079754D01*
X109436769Y-60054118D01*
X109446961Y-60006403D01*
X109462959Y-59961486D01*
X109484383Y-59919767D01*
X109510855Y-59881645D01*
X109541993Y-59847520D01*
X109577417Y-59817792D01*
X109616749Y-59792861D01*
X109659609Y-59773126D01*
X109705615Y-59758987D01*
X109720256Y-59755841D01*
X109739260Y-59753205D01*
X109762323Y-59751593D01*
X109787143Y-59751028D01*
X109811416Y-59751530D01*
G37*
G36*
X107994423Y-54223341D02*
G01*
X108051557Y-54230368D01*
X108063208Y-54232599D01*
X108119090Y-54247326D01*
X108172604Y-54268237D01*
X108223489Y-54295189D01*
X108271485Y-54328041D01*
X108316331Y-54366651D01*
X108325206Y-54375360D01*
X108363003Y-54417063D01*
X108395051Y-54460809D01*
X108421749Y-54507338D01*
X108443496Y-54557391D01*
X108460690Y-54611710D01*
X108467463Y-54639605D01*
X108471335Y-54662950D01*
X108473932Y-54691009D01*
X108475254Y-54721952D01*
X108475303Y-54753946D01*
X108474078Y-54785161D01*
X108471581Y-54813768D01*
X108467811Y-54837933D01*
X108467407Y-54839840D01*
X108451824Y-54897280D01*
X108430845Y-54951808D01*
X108404752Y-55002943D01*
X108373828Y-55050200D01*
X108338354Y-55093096D01*
X108298614Y-55131150D01*
X108295605Y-55133681D01*
X108270066Y-55154984D01*
X108270066Y-55446222D01*
X108270066Y-55737461D01*
X108770132Y-55737461D01*
X109270197Y-55737461D01*
X109270197Y-55469498D01*
X109270197Y-55201535D01*
X109252695Y-55187964D01*
X109219067Y-55158403D01*
X109186960Y-55123416D01*
X109157216Y-55084213D01*
X109130679Y-55042000D01*
X109108192Y-54997987D01*
X109092119Y-54957851D01*
X109083192Y-54930781D01*
X109076426Y-54906698D01*
X109071550Y-54883863D01*
X109068291Y-54860540D01*
X109066379Y-54834992D01*
X109065540Y-54805481D01*
X109065437Y-54787336D01*
X109065541Y-54762333D01*
X109065919Y-54742582D01*
X109066674Y-54726673D01*
X109067908Y-54713193D01*
X109069721Y-54700730D01*
X109072216Y-54687872D01*
X109072799Y-54685164D01*
X109088312Y-54627500D01*
X109108958Y-54573930D01*
X109134967Y-54524029D01*
X109166567Y-54477373D01*
X109203990Y-54433538D01*
X109215030Y-54422222D01*
X109258361Y-54383069D01*
X109304014Y-54349922D01*
X109352561Y-54322468D01*
X109404570Y-54300398D01*
X109460611Y-54283400D01*
X109475765Y-54279806D01*
X109488037Y-54277244D01*
X109499710Y-54275338D01*
X109512105Y-54273994D01*
X109526543Y-54273117D01*
X109544345Y-54272615D01*
X109566832Y-54272391D01*
X109580238Y-54272355D01*
X109605249Y-54272403D01*
X109624933Y-54272680D01*
X109640628Y-54273283D01*
X109653675Y-54274307D01*
X109665412Y-54275849D01*
X109677178Y-54278006D01*
X109686520Y-54280017D01*
X109741648Y-54294960D01*
X109792270Y-54314292D01*
X109839297Y-54338513D01*
X109883638Y-54368120D01*
X109926204Y-54403615D01*
X109945516Y-54422134D01*
X109979269Y-54458287D01*
X110007521Y-54494205D01*
X110031222Y-54531339D01*
X110051322Y-54571145D01*
X110065356Y-54605646D01*
X110082662Y-54661735D01*
X110093507Y-54718704D01*
X110097949Y-54776055D01*
X110096046Y-54833290D01*
X110087857Y-54889912D01*
X110073441Y-54945422D01*
X110052856Y-54999322D01*
X110026160Y-55051115D01*
X110009967Y-55076923D01*
X109998900Y-55092178D01*
X109984722Y-55109791D01*
X109968601Y-55128486D01*
X109951703Y-55146989D01*
X109935193Y-55164026D01*
X109920238Y-55178321D01*
X109908004Y-55188599D01*
X109907388Y-55189056D01*
X109893770Y-55199057D01*
X109893691Y-55468259D01*
X109893613Y-55737461D01*
X110284518Y-55737461D01*
X110347030Y-55737467D01*
X110403278Y-55737495D01*
X110453665Y-55737557D01*
X110498593Y-55737668D01*
X110538466Y-55737841D01*
X110573686Y-55738088D01*
X110604658Y-55738423D01*
X110631782Y-55738860D01*
X110655464Y-55739412D01*
X110676105Y-55740092D01*
X110694109Y-55740914D01*
X110709879Y-55741891D01*
X110723818Y-55743036D01*
X110736329Y-55744363D01*
X110747815Y-55745885D01*
X110758679Y-55747616D01*
X110769324Y-55749568D01*
X110780152Y-55751756D01*
X110791568Y-55754191D01*
X110791950Y-55754274D01*
X110861725Y-55772728D01*
X110928714Y-55797154D01*
X110992637Y-55827345D01*
X111053216Y-55863097D01*
X111110173Y-55904204D01*
X111163228Y-55950458D01*
X111212103Y-56001654D01*
X111256518Y-56057587D01*
X111296195Y-56118049D01*
X111305058Y-56133348D01*
X111331044Y-56184723D01*
X111353791Y-56240742D01*
X111372827Y-56299982D01*
X111387682Y-56361022D01*
X111395857Y-56407549D01*
X111396791Y-56414598D01*
X111397625Y-56422504D01*
X111398366Y-56431689D01*
X111399023Y-56442573D01*
X111399604Y-56455580D01*
X111400116Y-56471131D01*
X111400567Y-56489647D01*
X111400966Y-56511551D01*
X111401320Y-56537264D01*
X111401638Y-56567207D01*
X111401926Y-56601804D01*
X111402194Y-56641475D01*
X111402449Y-56686642D01*
X111402698Y-56737728D01*
X111402894Y-56781765D01*
X111404336Y-57117642D01*
X111641893Y-57117642D01*
X111685202Y-57117675D01*
X111729676Y-57117769D01*
X111774365Y-57117920D01*
X111818319Y-57118121D01*
X111860587Y-57118367D01*
X111900220Y-57118652D01*
X111936267Y-57118970D01*
X111967777Y-57119316D01*
X111993800Y-57119685D01*
X111999177Y-57119777D01*
X112118905Y-57121911D01*
X112141705Y-57095070D01*
X112176792Y-57058380D01*
X112217035Y-57024448D01*
X112261201Y-56994115D01*
X112308059Y-56968221D01*
X112356378Y-56947608D01*
X112359069Y-56946638D01*
X112372138Y-56942400D01*
X112389278Y-56937431D01*
X112408045Y-56932417D01*
X112422410Y-56928876D01*
X112436404Y-56925681D01*
X112448379Y-56923305D01*
X112459738Y-56921626D01*
X112471882Y-56920527D01*
X112486211Y-56919888D01*
X112504127Y-56919589D01*
X112527031Y-56919511D01*
X112532292Y-56919512D01*
X112557451Y-56919617D01*
X112577295Y-56919976D01*
X112593174Y-56920684D01*
X112606437Y-56921837D01*
X112618436Y-56923532D01*
X112630521Y-56925864D01*
X112634834Y-56926807D01*
X112693245Y-56943034D01*
X112748324Y-56964770D01*
X112799783Y-56991798D01*
X112847333Y-57023901D01*
X112890684Y-57060861D01*
X112929547Y-57102461D01*
X112963634Y-57148483D01*
X112990438Y-57194368D01*
X113014470Y-57247699D01*
X113032456Y-57302729D01*
X113044279Y-57358824D01*
X113049824Y-57415350D01*
X113048976Y-57471674D01*
X113046110Y-57499626D01*
X113035181Y-57557791D01*
X113018292Y-57613422D01*
X112995702Y-57666156D01*
X112967667Y-57715628D01*
X112934445Y-57761476D01*
X112896292Y-57803335D01*
X112853467Y-57840843D01*
X112806225Y-57873634D01*
X112765656Y-57896113D01*
X112717761Y-57917620D01*
X112671243Y-57933540D01*
X112624508Y-57944255D01*
X112575964Y-57950147D01*
X112533959Y-57951647D01*
X112475111Y-57948550D01*
X112417610Y-57939102D01*
X112361930Y-57923452D01*
X112308544Y-57901751D01*
X112257926Y-57874149D01*
X112229720Y-57855277D01*
X112213287Y-57842494D01*
X112194250Y-57826140D01*
X112174268Y-57807772D01*
X112154997Y-57788947D01*
X112138098Y-57771221D01*
X112128596Y-57760336D01*
X112115571Y-57744610D01*
X111759691Y-57742319D01*
X111403811Y-57740029D01*
X111403811Y-58235061D01*
X111403811Y-58730094D01*
X111606337Y-58732304D01*
X111648881Y-58732733D01*
X111694516Y-58733130D01*
X111741896Y-58733487D01*
X111789673Y-58733796D01*
X111836498Y-58734049D01*
X111881025Y-58734238D01*
X111921905Y-58734356D01*
X111957791Y-58734395D01*
X111965551Y-58734392D01*
X112122238Y-58734268D01*
X112133907Y-58719119D01*
X112152310Y-58697845D01*
X112175484Y-58675172D01*
X112202035Y-58652241D01*
X112230567Y-58630191D01*
X112259686Y-58610164D01*
X112287260Y-58593701D01*
X112326716Y-58574890D01*
X112370175Y-58559010D01*
X112415996Y-58546426D01*
X112462538Y-58537507D01*
X112508160Y-58532617D01*
X112551220Y-58532124D01*
X112560542Y-58532668D01*
X112620955Y-58540191D01*
X112678763Y-58553719D01*
X112733739Y-58573148D01*
X112785653Y-58598373D01*
X112834276Y-58629289D01*
X112879380Y-58665791D01*
X112904310Y-58689970D01*
X112942646Y-58734342D01*
X112975305Y-58781917D01*
X113002185Y-58832245D01*
X113023186Y-58884872D01*
X113038205Y-58939347D01*
X113047142Y-58995216D01*
X113049895Y-59052030D01*
X113046362Y-59109334D01*
X113036443Y-59166677D01*
X113022378Y-59216732D01*
X113003228Y-59265791D01*
X112979437Y-59311407D01*
X112950420Y-59354508D01*
X112915592Y-59396021D01*
X112897562Y-59414738D01*
X112858504Y-59450728D01*
X112819015Y-59480879D01*
X112777842Y-59505967D01*
X112733737Y-59526770D01*
X112694049Y-59541326D01*
X112662022Y-59551018D01*
X112632817Y-59558014D01*
X112604204Y-59562658D01*
X112573952Y-59565296D01*
X112539831Y-59566271D01*
X112532292Y-59566297D01*
X112474001Y-59563478D01*
X112418680Y-59554887D01*
X112365669Y-59540325D01*
X112314309Y-59519589D01*
X112263939Y-59492481D01*
X112240585Y-59477591D01*
X112225252Y-59466437D01*
X112207508Y-59452091D01*
X112188662Y-59435753D01*
X112170024Y-59418627D01*
X112152904Y-59401913D01*
X112138612Y-59386813D01*
X112128906Y-59375137D01*
X112122727Y-59367511D01*
X112116999Y-59363239D01*
X112109243Y-59361061D01*
X112098902Y-59359890D01*
X112092806Y-59359628D01*
X112080522Y-59359355D01*
X112062530Y-59359074D01*
X112039307Y-59358790D01*
X112011334Y-59358506D01*
X111979090Y-59358227D01*
X111943055Y-59357957D01*
X111903706Y-59357699D01*
X111861525Y-59357458D01*
X111816989Y-59357237D01*
X111770579Y-59357040D01*
X111741355Y-59356933D01*
X111403811Y-59355773D01*
X111403811Y-59929724D01*
X111403811Y-60503675D01*
X111514369Y-60505881D01*
X111536708Y-60506254D01*
X111564841Y-60506604D01*
X111597896Y-60506928D01*
X111635001Y-60507219D01*
X111675283Y-60507472D01*
X111717869Y-60507682D01*
X111761886Y-60507845D01*
X111806462Y-60507954D01*
X111850725Y-60508005D01*
X111873583Y-60508007D01*
X112122238Y-60507927D01*
X112141478Y-60484731D01*
X112174600Y-60449488D01*
X112213008Y-60416795D01*
X112255598Y-60387292D01*
X112301267Y-60361619D01*
X112348912Y-60340418D01*
X112397430Y-60324329D01*
X112431225Y-60316470D01*
X112490593Y-60308368D01*
X112548901Y-60306845D01*
X112606249Y-60311911D01*
X112662740Y-60323583D01*
X112718475Y-60341872D01*
X112762322Y-60361149D01*
X112800694Y-60381784D01*
X112835466Y-60404653D01*
X112868589Y-60431163D01*
X112899053Y-60459747D01*
X112938057Y-60503016D01*
X112971107Y-60549083D01*
X112998428Y-60598340D01*
X113020244Y-60651182D01*
X113033921Y-60696445D01*
X113045134Y-60753013D01*
X113049875Y-60809904D01*
X113048288Y-60866604D01*
X113040517Y-60922598D01*
X113026703Y-60977374D01*
X113006991Y-61030415D01*
X112981524Y-61081210D01*
X112950446Y-61129243D01*
X112913898Y-61174001D01*
X112895463Y-61193177D01*
X112851812Y-61231693D01*
X112804272Y-61264803D01*
X112752888Y-61292481D01*
X112697710Y-61314703D01*
X112638785Y-61331443D01*
X112634834Y-61332339D01*
X112622418Y-61334906D01*
X112610541Y-61336804D01*
X112597853Y-61338128D01*
X112583003Y-61338975D01*
X112564642Y-61339441D01*
X112541418Y-61339620D01*
X112532292Y-61339634D01*
X112508225Y-61339585D01*
X112489424Y-61339339D01*
X112474491Y-61338776D01*
X112462024Y-61337777D01*
X112450625Y-61336224D01*
X112438892Y-61333996D01*
X112425425Y-61330976D01*
X112422534Y-61330297D01*
X112364015Y-61313455D01*
X112309597Y-61291424D01*
X112259058Y-61264094D01*
X112212177Y-61231352D01*
X112191517Y-61214215D01*
X112177475Y-61201279D01*
X112162296Y-61186206D01*
X112147432Y-61170539D01*
X112134336Y-61155819D01*
X112124460Y-61143589D01*
X112122760Y-61141236D01*
X112117547Y-61133793D01*
X111760919Y-61131814D01*
X111404292Y-61129835D01*
X111402894Y-61516553D01*
X111402672Y-61577748D01*
X111402460Y-61632688D01*
X111402241Y-61681785D01*
X111401997Y-61725451D01*
X111401711Y-61764097D01*
X111401364Y-61798137D01*
X111400940Y-61827981D01*
X111400421Y-61854043D01*
X111399789Y-61876733D01*
X111399027Y-61896465D01*
X111398117Y-61913651D01*
X111397042Y-61928702D01*
X111395783Y-61942030D01*
X111394324Y-61954048D01*
X111392647Y-61965168D01*
X111390735Y-61975802D01*
X111388569Y-61986361D01*
X111386132Y-61997259D01*
X111383407Y-62008906D01*
X111381581Y-62016618D01*
X111361878Y-62085714D01*
X111336292Y-62151933D01*
X111305081Y-62214978D01*
X111268502Y-62274552D01*
X111226814Y-62330357D01*
X111180275Y-62382098D01*
X111129143Y-62429475D01*
X111073676Y-62472193D01*
X111014132Y-62509954D01*
X110950770Y-62542461D01*
X110909794Y-62559803D01*
X110866136Y-62575066D01*
X110817631Y-62588787D01*
X110766017Y-62600482D01*
X110757059Y-62602234D01*
X110750945Y-62603381D01*
X110745022Y-62604403D01*
X110738882Y-62605309D01*
X110732119Y-62606108D01*
X110724325Y-62606807D01*
X110715095Y-62607416D01*
X110704020Y-62607943D01*
X110690696Y-62608397D01*
X110674713Y-62608786D01*
X110655667Y-62609119D01*
X110633150Y-62609405D01*
X110606755Y-62609651D01*
X110576076Y-62609867D01*
X110540705Y-62610062D01*
X110500236Y-62610243D01*
X110454262Y-62610420D01*
X110402377Y-62610601D01*
X110352839Y-62610765D01*
X109986958Y-62611971D01*
X109987084Y-62904372D01*
X109987211Y-63196773D01*
X110002318Y-63208441D01*
X110018187Y-63222031D01*
X110036319Y-63239734D01*
X110055364Y-63260062D01*
X110073975Y-63281524D01*
X110090802Y-63302629D01*
X110103167Y-63319877D01*
X110133474Y-63370991D01*
X110157533Y-63424096D01*
X110175313Y-63478773D01*
X110186785Y-63534605D01*
X110191918Y-63591176D01*
X110190681Y-63648068D01*
X110183044Y-63704864D01*
X110168977Y-63761147D01*
X110148449Y-63816499D01*
X110140539Y-63833887D01*
X110112833Y-63884486D01*
X110079875Y-63931249D01*
X110042085Y-63973843D01*
X109999883Y-64011938D01*
X109953687Y-64045203D01*
X109903920Y-64073306D01*
X109850998Y-64095917D01*
X109795344Y-64112704D01*
X109783812Y-64115357D01*
X109726593Y-64124484D01*
X109669114Y-64127079D01*
X109611861Y-64123235D01*
X109555317Y-64113046D01*
X109499967Y-64096605D01*
X109446295Y-64074006D01*
X109394786Y-64045343D01*
X109383546Y-64038068D01*
X109361813Y-64022069D01*
X109338083Y-64001950D01*
X109313791Y-63979144D01*
X109290373Y-63955083D01*
X109269263Y-63931197D01*
X109251896Y-63908917D01*
X109247140Y-63902023D01*
X109216074Y-63849387D01*
X109191260Y-63794535D01*
X109172549Y-63737113D01*
X109166150Y-63710666D01*
X109163468Y-63697322D01*
X109161511Y-63684645D01*
X109160171Y-63671186D01*
X109159342Y-63655492D01*
X109158919Y-63636111D01*
X109158795Y-63611593D01*
X109158795Y-63610161D01*
X109159240Y-63576916D01*
X109160760Y-63548465D01*
X109163628Y-63522980D01*
X109168120Y-63498634D01*
X109174511Y-63473601D01*
X109183076Y-63446054D01*
X109183837Y-63443766D01*
X109202939Y-63395646D01*
X109227471Y-63348632D01*
X109256606Y-63303947D01*
X109289520Y-63262812D01*
X109325387Y-63226448D01*
X109338004Y-63215476D01*
X109363543Y-63194173D01*
X109363543Y-62902935D01*
X109363543Y-62611696D01*
X108816805Y-62611696D01*
X108270066Y-62611696D01*
X108270066Y-62902935D01*
X108270066Y-63194173D01*
X108295605Y-63215476D01*
X108335641Y-63253163D01*
X108371430Y-63295728D01*
X108402690Y-63342688D01*
X108429140Y-63393560D01*
X108450495Y-63447862D01*
X108466474Y-63505108D01*
X108467407Y-63509317D01*
X108471340Y-63533349D01*
X108473962Y-63562057D01*
X108475272Y-63593584D01*
X108475272Y-63626068D01*
X108473960Y-63657650D01*
X108471337Y-63686471D01*
X108467404Y-63710666D01*
X108451776Y-63768268D01*
X108430470Y-63822946D01*
X108403710Y-63874267D01*
X108371722Y-63921799D01*
X108335481Y-63964327D01*
X108291696Y-64005638D01*
X108245065Y-64040923D01*
X108195553Y-64070197D01*
X108143125Y-64093477D01*
X108087746Y-64110780D01*
X108029383Y-64122122D01*
X107999366Y-64125537D01*
X107944897Y-64127088D01*
X107889783Y-64122371D01*
X107834859Y-64111616D01*
X107780963Y-64095057D01*
X107728930Y-64072925D01*
X107679598Y-64045451D01*
X107657655Y-64030811D01*
X107636223Y-64014200D01*
X107612868Y-63993583D01*
X107589224Y-63970594D01*
X107566925Y-63946867D01*
X107547603Y-63924035D01*
X107537709Y-63910864D01*
X107506757Y-63861442D01*
X107481823Y-63809753D01*
X107462897Y-63756298D01*
X107449966Y-63701578D01*
X107443021Y-63646092D01*
X107442050Y-63590341D01*
X107447043Y-63534825D01*
X107457988Y-63480046D01*
X107474874Y-63426502D01*
X107497691Y-63374695D01*
X107526427Y-63325126D01*
X107551292Y-63290440D01*
X107559857Y-63280133D01*
X107570908Y-63267798D01*
X107583563Y-63254313D01*
X107596940Y-63240557D01*
X107610158Y-63227409D01*
X107622334Y-63215746D01*
X107632587Y-63206448D01*
X107640036Y-63200392D01*
X107643645Y-63198440D01*
X107644136Y-63195168D01*
X107644595Y-63185600D01*
X107645018Y-63170107D01*
X107645400Y-63149059D01*
X107645739Y-63122829D01*
X107646031Y-63091787D01*
X107646271Y-63056305D01*
X107646456Y-63016753D01*
X107646581Y-62973504D01*
X107646644Y-62926927D01*
X107646651Y-62905068D01*
X107646651Y-62611696D01*
X107101579Y-62611696D01*
X106556508Y-62611696D01*
X106556508Y-62903617D01*
X106556508Y-63195537D01*
X106567343Y-63204392D01*
X106610937Y-63244155D01*
X106649280Y-63287657D01*
X106682237Y-63334438D01*
X106709672Y-63384038D01*
X106731449Y-63435999D01*
X106747434Y-63489860D01*
X106757491Y-63545163D01*
X106761484Y-63601446D01*
X106759279Y-63658252D01*
X106750741Y-63715119D01*
X106735733Y-63771590D01*
X106735009Y-63773792D01*
X106725772Y-63798293D01*
X106713515Y-63825832D01*
X106699350Y-63854216D01*
X106684387Y-63881248D01*
X106669738Y-63904734D01*
X106666023Y-63910122D01*
X106648671Y-63932476D01*
X106627292Y-63956635D01*
X106603552Y-63980934D01*
X106579114Y-64003706D01*
X106555647Y-64023286D01*
X106544762Y-64031383D01*
X106507594Y-64054910D01*
X106466178Y-64076299D01*
X106422631Y-64094632D01*
X106379073Y-64108992D01*
X106348147Y-64116508D01*
X106302644Y-64123987D01*
X106259505Y-64127334D01*
X106215983Y-64126700D01*
X106193156Y-64124930D01*
X106157335Y-64120017D01*
X106120256Y-64111882D01*
X106083112Y-64101125D01*
X106029955Y-64080778D01*
X105979723Y-64054657D01*
X105932822Y-64023160D01*
X105889660Y-63986688D01*
X105850641Y-63945639D01*
X105816173Y-63900412D01*
X105786661Y-63851406D01*
X105762512Y-63799022D01*
X105754962Y-63778705D01*
X105745896Y-63751251D01*
X105739061Y-63726743D01*
X105734176Y-63703392D01*
X105730958Y-63679413D01*
X105729124Y-63653016D01*
X105728393Y-63622415D01*
X105728345Y-63610161D01*
X105728790Y-63576916D01*
X105730310Y-63548465D01*
X105733178Y-63522980D01*
X105737670Y-63498634D01*
X105744061Y-63473601D01*
X105752625Y-63446054D01*
X105753387Y-63443766D01*
X105772489Y-63395646D01*
X105797021Y-63348632D01*
X105826156Y-63303947D01*
X105859070Y-63262812D01*
X105894937Y-63226448D01*
X105907554Y-63215476D01*
X105933093Y-63194173D01*
X105933093Y-62902935D01*
X105933093Y-62611696D01*
X105642201Y-62611696D01*
X105587415Y-62611681D01*
X105538811Y-62611621D01*
X105495900Y-62611497D01*
X105458197Y-62611288D01*
X105425214Y-62610975D01*
X105396465Y-62610537D01*
X105371464Y-62609954D01*
X105349723Y-62609206D01*
X105330756Y-62608274D01*
X105314076Y-62607136D01*
X105299196Y-62605774D01*
X105285630Y-62604166D01*
X105272891Y-62602292D01*
X105260492Y-62600134D01*
X105247947Y-62597670D01*
X105234779Y-62594883D01*
X105166445Y-62576748D01*
X105100695Y-62552671D01*
X105037851Y-62522956D01*
X104978234Y-62487907D01*
X104922167Y-62447829D01*
X104869972Y-62403026D01*
X104821971Y-62353802D01*
X104778487Y-62300462D01*
X104739841Y-62243310D01*
X104706356Y-62182651D01*
X104678354Y-62118789D01*
X104656158Y-62052029D01*
X104654718Y-62046848D01*
X104650376Y-62030794D01*
X104646503Y-62015780D01*
X104643070Y-62001345D01*
X104640052Y-61987029D01*
X104637421Y-61972370D01*
X104635151Y-61956910D01*
X104633216Y-61940187D01*
X104631588Y-61921740D01*
X104630240Y-61901109D01*
X104629147Y-61877834D01*
X104628281Y-61851454D01*
X104627615Y-61821508D01*
X104627124Y-61787537D01*
X104626779Y-61749079D01*
X104626555Y-61705673D01*
X104626424Y-61656860D01*
X104626360Y-61602179D01*
X104626341Y-61557933D01*
X104626255Y-61239266D01*
X104495692Y-61237058D01*
X104467867Y-61236650D01*
X104434472Y-61236267D01*
X104396605Y-61235915D01*
X104355362Y-61235601D01*
X104311842Y-61235333D01*
X104267141Y-61235117D01*
X104222358Y-61234960D01*
X104178588Y-61234869D01*
X104147863Y-61234849D01*
X103930598Y-61234849D01*
X103907544Y-61261910D01*
X103871517Y-61299414D01*
X103830365Y-61333720D01*
X103785151Y-61364120D01*
X103736934Y-61389909D01*
X103686775Y-61410379D01*
X103682504Y-61411834D01*
X103654309Y-61420658D01*
X103628366Y-61427216D01*
X103602611Y-61431859D01*
X103574982Y-61434936D01*
X103543417Y-61436794D01*
X103532778Y-61437170D01*
X103509288Y-61437756D01*
X103490580Y-61437808D01*
X103474783Y-61437228D01*
X103460024Y-61435915D01*
X103444433Y-61433773D01*
X103433194Y-61431928D01*
X103376706Y-61419072D01*
X103322285Y-61400319D01*
X103270535Y-61376004D01*
X103222061Y-61346457D01*
X103177467Y-61312014D01*
X103137359Y-61273005D01*
X103130347Y-61265165D01*
X103094178Y-61218999D01*
X103063950Y-61170386D01*
X103039612Y-61119777D01*
X103021111Y-61067627D01*
X103008395Y-61014390D01*
X103001410Y-60960519D01*
X103000105Y-60906468D01*
X103004427Y-60852691D01*
X103014324Y-60799641D01*
X103029742Y-60747773D01*
X103050630Y-60697539D01*
X103076935Y-60649394D01*
X103108604Y-60603792D01*
X103145585Y-60561185D01*
X103187826Y-60522028D01*
X103219145Y-60497876D01*
X103261066Y-60471426D01*
X103307472Y-60448477D01*
X103356845Y-60429623D01*
X103407670Y-60415458D01*
X103448777Y-60407843D01*
X103465853Y-60406233D01*
X103487574Y-60405390D01*
X103512273Y-60405266D01*
X103538284Y-60405809D01*
X103563940Y-60406968D01*
X103587576Y-60408695D01*
X103607524Y-60410937D01*
X103619456Y-60413012D01*
X103642373Y-60418801D01*
X103668090Y-60426520D01*
X103694489Y-60435438D01*
X103719456Y-60444824D01*
X103740872Y-60453947D01*
X103748180Y-60457465D01*
X103787833Y-60479890D01*
X103826747Y-60506511D01*
X103863275Y-60536040D01*
X103895772Y-60567190D01*
X103912461Y-60585895D01*
X103933763Y-60611434D01*
X104280009Y-60611434D01*
X104626255Y-60611434D01*
X104626255Y-60051906D01*
X104626255Y-59492379D01*
X104438730Y-59490169D01*
X104397556Y-59489720D01*
X104353203Y-59489302D01*
X104307095Y-59488924D01*
X104260658Y-59488594D01*
X104215315Y-59488324D01*
X104172492Y-59488121D01*
X104133613Y-59487995D01*
X104102817Y-59487956D01*
X103954429Y-59487953D01*
X103939635Y-59506493D01*
X103908899Y-59540519D01*
X103872797Y-59572761D01*
X103832560Y-59602387D01*
X103789420Y-59628562D01*
X103744611Y-59650454D01*
X103704250Y-59665683D01*
X103679873Y-59673318D01*
X103658986Y-59679159D01*
X103639999Y-59683437D01*
X103621318Y-59686381D01*
X103601352Y-59688221D01*
X103578509Y-59689189D01*
X103551196Y-59689515D01*
X103539445Y-59689518D01*
X103514889Y-59689411D01*
X103495654Y-59689116D01*
X103480394Y-59688523D01*
X103467765Y-59687522D01*
X103456420Y-59686005D01*
X103445015Y-59683862D01*
X103432202Y-59680983D01*
X103430935Y-59680684D01*
X103372845Y-59663735D01*
X103318201Y-59641254D01*
X103267260Y-59613443D01*
X103220279Y-59580503D01*
X103177517Y-59542634D01*
X103139230Y-59500039D01*
X103105676Y-59452916D01*
X103079474Y-59406276D01*
X103063256Y-59371351D01*
X103050679Y-59338592D01*
X103040789Y-59305335D01*
X103035851Y-59284507D01*
X103026824Y-59227935D01*
X105249626Y-59227935D01*
X105249630Y-59344149D01*
X105249639Y-59460082D01*
X105249654Y-59575539D01*
X105249674Y-59690328D01*
X105249700Y-59804257D01*
X105249732Y-59917131D01*
X105249769Y-60028758D01*
X105249811Y-60138945D01*
X105249859Y-60247499D01*
X105249913Y-60354226D01*
X105249972Y-60458934D01*
X105250037Y-60561429D01*
X105250107Y-60661520D01*
X105250183Y-60759011D01*
X105250265Y-60853712D01*
X105250352Y-60945427D01*
X105250444Y-61033966D01*
X105250542Y-61119133D01*
X105250646Y-61200737D01*
X105250755Y-61278584D01*
X105250870Y-61352482D01*
X105250991Y-61422236D01*
X105251117Y-61487655D01*
X105251248Y-61548545D01*
X105251385Y-61604713D01*
X105251528Y-61655966D01*
X105251676Y-61702112D01*
X105251830Y-61742956D01*
X105251990Y-61778306D01*
X105252155Y-61807969D01*
X105252326Y-61831751D01*
X105252502Y-61849461D01*
X105252684Y-61860904D01*
X105252871Y-61865888D01*
X105252886Y-61866001D01*
X105260897Y-61894900D01*
X105275094Y-61921383D01*
X105291209Y-61941185D01*
X105313859Y-61961215D01*
X105338380Y-61975394D01*
X105360033Y-61983005D01*
X105361742Y-61983301D01*
X105364714Y-61983585D01*
X105369082Y-61983857D01*
X105374978Y-61984117D01*
X105382534Y-61984367D01*
X105391882Y-61984605D01*
X105403155Y-61984833D01*
X105416485Y-61985050D01*
X105432005Y-61985258D01*
X105449846Y-61985455D01*
X105470141Y-61985643D01*
X105493023Y-61985822D01*
X105518623Y-61985991D01*
X105547074Y-61986151D01*
X105578508Y-61986303D01*
X105613057Y-61986447D01*
X105650854Y-61986582D01*
X105692032Y-61986709D01*
X105736721Y-61986829D01*
X105785055Y-61986942D01*
X105837166Y-61987047D01*
X105893187Y-61987146D01*
X105953249Y-61987238D01*
X106017484Y-61987323D01*
X106086026Y-61987403D01*
X106159006Y-61987476D01*
X106236557Y-61987544D01*
X106318811Y-61987607D01*
X106405900Y-61987664D01*
X106497956Y-61987717D01*
X106595113Y-61987765D01*
X106697501Y-61987809D01*
X106805255Y-61987849D01*
X106918504Y-61987885D01*
X107037383Y-61987917D01*
X107162024Y-61987946D01*
X107292558Y-61987972D01*
X107429118Y-61987995D01*
X107571836Y-61988015D01*
X107720844Y-61988033D01*
X107876276Y-61988050D01*
X108013499Y-61988062D01*
X108173697Y-61988074D01*
X108327362Y-61988084D01*
X108474630Y-61988091D01*
X108615635Y-61988096D01*
X108750512Y-61988097D01*
X108879396Y-61988094D01*
X109002422Y-61988088D01*
X109119726Y-61988078D01*
X109231441Y-61988063D01*
X109337703Y-61988044D01*
X109438647Y-61988020D01*
X109534408Y-61987992D01*
X109625120Y-61987958D01*
X109710919Y-61987918D01*
X109791940Y-61987873D01*
X109868317Y-61987822D01*
X109940186Y-61987765D01*
X110007681Y-61987701D01*
X110070937Y-61987630D01*
X110130089Y-61987552D01*
X110185273Y-61987467D01*
X110236623Y-61987375D01*
X110284274Y-61987275D01*
X110328361Y-61987167D01*
X110369019Y-61987050D01*
X110406382Y-61986925D01*
X110440587Y-61986792D01*
X110471767Y-61986649D01*
X110500058Y-61986497D01*
X110525594Y-61986336D01*
X110548511Y-61986165D01*
X110568944Y-61985984D01*
X110587027Y-61985792D01*
X110602895Y-61985591D01*
X110616684Y-61985378D01*
X110628528Y-61985154D01*
X110638562Y-61984920D01*
X110646921Y-61984673D01*
X110653740Y-61984415D01*
X110659154Y-61984145D01*
X110663298Y-61983863D01*
X110666307Y-61983568D01*
X110668316Y-61983260D01*
X110668847Y-61983139D01*
X110696970Y-61972493D01*
X110722173Y-61956086D01*
X110743895Y-61934393D01*
X110761573Y-61907890D01*
X110764491Y-61902223D01*
X110775395Y-61880074D01*
X110775395Y-59174579D01*
X110775395Y-56469083D01*
X110763987Y-56445817D01*
X110748309Y-56420681D01*
X110728049Y-56398930D01*
X110704339Y-56381451D01*
X110678310Y-56369128D01*
X110659512Y-56364080D01*
X110654307Y-56363743D01*
X110642543Y-56363428D01*
X110624327Y-56363137D01*
X110599766Y-56362870D01*
X110568970Y-56362626D01*
X110532045Y-56362406D01*
X110489100Y-56362211D01*
X110440242Y-56362040D01*
X110385579Y-56361894D01*
X110325219Y-56361773D01*
X110259270Y-56361678D01*
X110187840Y-56361608D01*
X110111036Y-56361564D01*
X110028966Y-56361546D01*
X109941739Y-56361555D01*
X109849461Y-56361590D01*
X109752242Y-56361652D01*
X109695583Y-56361699D01*
X108749122Y-56362543D01*
X108787131Y-56378919D01*
X108878468Y-56421545D01*
X108969297Y-56470348D01*
X109058993Y-56524840D01*
X109146929Y-56584533D01*
X109232481Y-56648938D01*
X109315024Y-56717567D01*
X109393933Y-56789930D01*
X109468582Y-56865539D01*
X109538347Y-56943905D01*
X109587165Y-57004294D01*
X109653385Y-57095222D01*
X109713952Y-57189480D01*
X109768750Y-57286794D01*
X109817661Y-57386892D01*
X109860571Y-57489501D01*
X109897362Y-57594347D01*
X109927920Y-57701157D01*
X109952127Y-57809660D01*
X109966638Y-57896077D01*
X109978835Y-58001185D01*
X109985233Y-58106995D01*
X109985812Y-58213871D01*
X109980549Y-58322177D01*
X109969422Y-58432279D01*
X109952411Y-58544541D01*
X109929494Y-58659327D01*
X109918631Y-58706184D01*
X109890676Y-58814687D01*
X109860285Y-58917731D01*
X109827108Y-59016191D01*
X109790797Y-59110941D01*
X109751004Y-59202855D01*
X109707379Y-59292807D01*
X109659574Y-59381671D01*
X109626101Y-59439251D01*
X109612841Y-59461173D01*
X109599576Y-59482546D01*
X109585753Y-59504202D01*
X109570819Y-59526972D01*
X109554221Y-59551688D01*
X109535406Y-59579183D01*
X109513819Y-59610289D01*
X109488909Y-59645839D01*
X109485647Y-59650474D01*
X109428752Y-59731318D01*
X108023467Y-59731249D01*
X106618183Y-59731179D01*
X106541506Y-59660126D01*
X106488479Y-59609787D01*
X106440315Y-59561436D01*
X106395985Y-59513944D01*
X106354457Y-59466182D01*
X106314703Y-59417019D01*
X106288700Y-59382939D01*
X106225241Y-59292508D01*
X106167917Y-59199462D01*
X106116726Y-59103802D01*
X106071669Y-59005529D01*
X106032746Y-58904644D01*
X105999959Y-58801149D01*
X105973307Y-58695044D01*
X105952791Y-58586331D01*
X105942640Y-58513379D01*
X105939963Y-58486340D01*
X105937701Y-58454049D01*
X105935881Y-58417912D01*
X105934532Y-58379335D01*
X105933682Y-58339722D01*
X105933568Y-58325791D01*
X106558009Y-58325791D01*
X106558415Y-58360383D01*
X106559375Y-58393115D01*
X106560889Y-58422619D01*
X106562959Y-58447528D01*
X106564200Y-58457818D01*
X106578916Y-58544037D01*
X106598815Y-58626439D01*
X106624119Y-58705661D01*
X106655051Y-58782339D01*
X106691831Y-58857112D01*
X106721459Y-58909128D01*
X106741312Y-58940750D01*
X106763499Y-58973743D01*
X106786949Y-59006647D01*
X106810591Y-59038001D01*
X106833353Y-59066344D01*
X106854165Y-59090214D01*
X106854262Y-59090319D01*
X106867398Y-59104569D01*
X107983530Y-59104569D01*
X109099663Y-59104569D01*
X109121775Y-59064690D01*
X109155175Y-59001809D01*
X109185501Y-58938960D01*
X109213151Y-58875089D01*
X109238521Y-58809141D01*
X109262011Y-58740061D01*
X109284018Y-58666793D01*
X109304940Y-58588282D01*
X109311644Y-58561165D01*
X109333368Y-58460408D01*
X109348960Y-58362147D01*
X109358418Y-58266245D01*
X109361734Y-58172565D01*
X109358904Y-58080969D01*
X109349923Y-57991319D01*
X109334786Y-57903479D01*
X109313487Y-57817311D01*
X109286022Y-57732677D01*
X109279837Y-57716050D01*
X109268977Y-57689217D01*
X109255435Y-57658490D01*
X109240055Y-57625596D01*
X109223683Y-57592263D01*
X109207165Y-57560216D01*
X109191347Y-57531182D01*
X109178665Y-57509475D01*
X109128225Y-57433141D01*
X109071904Y-57359605D01*
X109010004Y-57289167D01*
X108942827Y-57222127D01*
X108870674Y-57158787D01*
X108793847Y-57099448D01*
X108712649Y-57044411D01*
X108711309Y-57043563D01*
X108632308Y-56997504D01*
X108550607Y-56957486D01*
X108466407Y-56923545D01*
X108379907Y-56895718D01*
X108291306Y-56874042D01*
X108200804Y-56858553D01*
X108108601Y-56849287D01*
X108014896Y-56846280D01*
X107919888Y-56849571D01*
X107823778Y-56859194D01*
X107758332Y-56869296D01*
X107662686Y-56889430D01*
X107569731Y-56915627D01*
X107479620Y-56947802D01*
X107392504Y-56985871D01*
X107308533Y-57029747D01*
X107227858Y-57079348D01*
X107150630Y-57134588D01*
X107077000Y-57195381D01*
X107007119Y-57261645D01*
X106949613Y-57323536D01*
X106888157Y-57398480D01*
X106830981Y-57477985D01*
X106778358Y-57561453D01*
X106730562Y-57648280D01*
X106687863Y-57737867D01*
X106650536Y-57829613D01*
X106618853Y-57922917D01*
X106593086Y-58017179D01*
X106573508Y-58111796D01*
X106564285Y-58172780D01*
X106561924Y-58196166D01*
X106560116Y-58224526D01*
X106558860Y-58256496D01*
X106558158Y-58290706D01*
X106558009Y-58325791D01*
X105933568Y-58325791D01*
X105933360Y-58300478D01*
X105933593Y-58263010D01*
X105934409Y-58228721D01*
X105935839Y-58199017D01*
X105936199Y-58193768D01*
X105947850Y-58078875D01*
X105965946Y-57965542D01*
X105990458Y-57853921D01*
X106008210Y-57787920D01*
X106045018Y-57671107D01*
X106087234Y-57557438D01*
X106134712Y-57447104D01*
X106187308Y-57340297D01*
X106244876Y-57237209D01*
X106307272Y-57138030D01*
X106374349Y-57042953D01*
X106445963Y-56952169D01*
X106521969Y-56865870D01*
X106602221Y-56784247D01*
X106686575Y-56707492D01*
X106774885Y-56635796D01*
X106867005Y-56569351D01*
X106962792Y-56508349D01*
X106989898Y-56492471D01*
X107015497Y-56478198D01*
X107045058Y-56462457D01*
X107077119Y-56445970D01*
X107110215Y-56429461D01*
X107142881Y-56413654D01*
X107173653Y-56399272D01*
X107201066Y-56387038D01*
X107216331Y-56380606D01*
X107260572Y-56362543D01*
X106322630Y-56361675D01*
X106218305Y-56361589D01*
X106120548Y-56361527D01*
X106029260Y-56361492D01*
X105944339Y-56361482D01*
X105865688Y-56361499D01*
X105793206Y-56361542D01*
X105726794Y-56361612D01*
X105666351Y-56361710D01*
X105611778Y-56361835D01*
X105562977Y-56361988D01*
X105519845Y-56362168D01*
X105482286Y-56362377D01*
X105450197Y-56362615D01*
X105423481Y-56362882D01*
X105402037Y-56363178D01*
X105385765Y-56363503D01*
X105374567Y-56363858D01*
X105368341Y-56364243D01*
X105367287Y-56364391D01*
X105339910Y-56373277D01*
X105314673Y-56387727D01*
X105292468Y-56406817D01*
X105274186Y-56429625D01*
X105260720Y-56455227D01*
X105252961Y-56482701D01*
X105252956Y-56482729D01*
X105252768Y-56487196D01*
X105252585Y-56498137D01*
X105252408Y-56515360D01*
X105252236Y-56538671D01*
X105252070Y-56567878D01*
X105251909Y-56602787D01*
X105251754Y-56643205D01*
X105251604Y-56688939D01*
X105251459Y-56739797D01*
X105251320Y-56795585D01*
X105251187Y-56856110D01*
X105251058Y-56921179D01*
X105250936Y-56990599D01*
X105250819Y-57064177D01*
X105250707Y-57141720D01*
X105250601Y-57223034D01*
X105250500Y-57307928D01*
X105250405Y-57396208D01*
X105250315Y-57487680D01*
X105250231Y-57582152D01*
X105250152Y-57679431D01*
X105250078Y-57779323D01*
X105250011Y-57881636D01*
X105249948Y-57986177D01*
X105249891Y-58092752D01*
X105249840Y-58201169D01*
X105249794Y-58311234D01*
X105249754Y-58422755D01*
X105249719Y-58535538D01*
X105249690Y-58649390D01*
X105249666Y-58764118D01*
X105249648Y-58879530D01*
X105249635Y-58995432D01*
X105249628Y-59111631D01*
X105249626Y-59227935D01*
X103026824Y-59227935D01*
X103026713Y-59227242D01*
X103024083Y-59169688D01*
X103027854Y-59112408D01*
X103037919Y-59055963D01*
X103054172Y-59000915D01*
X103076508Y-58947825D01*
X103104820Y-58897256D01*
X103110839Y-58888018D01*
X103146229Y-58840825D01*
X103186066Y-58798501D01*
X103230034Y-58761251D01*
X103277817Y-58729278D01*
X103329098Y-58702788D01*
X103383562Y-58681984D01*
X103440891Y-58667071D01*
X103457768Y-58663919D01*
X103489161Y-58660028D01*
X103524167Y-58658196D01*
X103560689Y-58658368D01*
X103596632Y-58660490D01*
X103629898Y-58664507D01*
X103652794Y-58668958D01*
X103711663Y-58686068D01*
X103766472Y-58708459D01*
X103817260Y-58736154D01*
X103864070Y-58769179D01*
X103906940Y-58807557D01*
X103932088Y-58834661D01*
X103957834Y-58864438D01*
X104286771Y-58864488D01*
X104333115Y-58864515D01*
X104377620Y-58864580D01*
X104419828Y-58864681D01*
X104459279Y-58864814D01*
X104495514Y-58864976D01*
X104528075Y-58865165D01*
X104556502Y-58865378D01*
X104580336Y-58865612D01*
X104599119Y-58865864D01*
X104612392Y-58866132D01*
X104619695Y-58866412D01*
X104620981Y-58866561D01*
X104621659Y-58866404D01*
X104622276Y-58865195D01*
X104622836Y-58862643D01*
X104623341Y-58858457D01*
X104623795Y-58852347D01*
X104624199Y-58844022D01*
X104624558Y-58833192D01*
X104624872Y-58819565D01*
X104625146Y-58802851D01*
X104625382Y-58782760D01*
X104625583Y-58759000D01*
X104625751Y-58731280D01*
X104625889Y-58699311D01*
X104626001Y-58662801D01*
X104626088Y-58621460D01*
X104626153Y-58574997D01*
X104626200Y-58523121D01*
X104626230Y-58465541D01*
X104626248Y-58401967D01*
X104626254Y-58332108D01*
X104626255Y-58308680D01*
X104626255Y-57748774D01*
X104568747Y-57746593D01*
X104556369Y-57746252D01*
X104537956Y-57745928D01*
X104514140Y-57745625D01*
X104485554Y-57745345D01*
X104452830Y-57745095D01*
X104416600Y-57744877D01*
X104377497Y-57744695D01*
X104336153Y-57744555D01*
X104293201Y-57744460D01*
X104249272Y-57744414D01*
X104232870Y-57744410D01*
X103954500Y-57744409D01*
X103932159Y-57770833D01*
X103896913Y-57807767D01*
X103856482Y-57841695D01*
X103811942Y-57871899D01*
X103764370Y-57897660D01*
X103714845Y-57918262D01*
X103706887Y-57921006D01*
X103680913Y-57929310D01*
X103657965Y-57935590D01*
X103636310Y-57940110D01*
X103614218Y-57943132D01*
X103589958Y-57944917D01*
X103561800Y-57945727D01*
X103542779Y-57945854D01*
X103517880Y-57945782D01*
X103498243Y-57945435D01*
X103482465Y-57944713D01*
X103469143Y-57943516D01*
X103456873Y-57941744D01*
X103444251Y-57939297D01*
X103440884Y-57938569D01*
X103384336Y-57923552D01*
X103332401Y-57904158D01*
X103284328Y-57879972D01*
X103239368Y-57850582D01*
X103196770Y-57815572D01*
X103168684Y-57788255D01*
X103130630Y-57744185D01*
X103098138Y-57696736D01*
X103071346Y-57646400D01*
X103050395Y-57593666D01*
X103035423Y-57539025D01*
X103026569Y-57482965D01*
X103023974Y-57425977D01*
X103027776Y-57368551D01*
X103035851Y-57321088D01*
X103051404Y-57264942D01*
X103072779Y-57211564D01*
X103099632Y-57161337D01*
X103131618Y-57114646D01*
X103168395Y-57071876D01*
X103209617Y-57033412D01*
X103254942Y-56999638D01*
X103304025Y-56970940D01*
X103356522Y-56947700D01*
X103375716Y-56940902D01*
X103408119Y-56930901D01*
X103437587Y-56923620D01*
X103466975Y-56918471D01*
X103499137Y-56914869D01*
X103504490Y-56914417D01*
X103560230Y-56913171D01*
X103616198Y-56918336D01*
X103671693Y-56929721D01*
X103726012Y-56947133D01*
X103778452Y-56970382D01*
X103828312Y-56999276D01*
X103837013Y-57005098D01*
X103855950Y-57019109D01*
X103876639Y-57036196D01*
X103897521Y-57054922D01*
X103917040Y-57073853D01*
X103933637Y-57091555D01*
X103942667Y-57102427D01*
X103956978Y-57120976D01*
X104291458Y-57120976D01*
X104625939Y-57120976D01*
X104627147Y-56775097D01*
X104627353Y-56718671D01*
X104627559Y-56668500D01*
X104627772Y-56624175D01*
X104628000Y-56585284D01*
X104628250Y-56551416D01*
X104628529Y-56522159D01*
X104628846Y-56497103D01*
X104629208Y-56475836D01*
X104629622Y-56457947D01*
X104630096Y-56443025D01*
X104630636Y-56430658D01*
X104631252Y-56420436D01*
X104631949Y-56411947D01*
X104632737Y-56404780D01*
X104633621Y-56398525D01*
X104634056Y-56395881D01*
X104649588Y-56322463D01*
X104670449Y-56252981D01*
X104696737Y-56187235D01*
X104728551Y-56125027D01*
X104765988Y-56066158D01*
X104809146Y-56010429D01*
X104842141Y-55973883D01*
X104893685Y-55924647D01*
X104948556Y-55881089D01*
X105006874Y-55843146D01*
X105068759Y-55810756D01*
X105134330Y-55783855D01*
X105203707Y-55762380D01*
X105274673Y-55746690D01*
X105281631Y-55745460D01*
X105288381Y-55744375D01*
X105295378Y-55743425D01*
X105303074Y-55742598D01*
X105311924Y-55741883D01*
X105322381Y-55741270D01*
X105334898Y-55740748D01*
X105349929Y-55740305D01*
X105367928Y-55739931D01*
X105389347Y-55739615D01*
X105414640Y-55739346D01*
X105444261Y-55739114D01*
X105478664Y-55738906D01*
X105518301Y-55738713D01*
X105563627Y-55738523D01*
X105615095Y-55738326D01*
X105623886Y-55738293D01*
X105933093Y-55737141D01*
X105933093Y-55469515D01*
X105933093Y-55201888D01*
X105911816Y-55184625D01*
X105871290Y-55147494D01*
X105835022Y-55105469D01*
X105803278Y-55058999D01*
X105776324Y-55008530D01*
X105754425Y-54954510D01*
X105737847Y-54897386D01*
X105735815Y-54888484D01*
X105732389Y-54867906D01*
X105729900Y-54842628D01*
X105728364Y-54814358D01*
X105727796Y-54784804D01*
X105728212Y-54755672D01*
X105729627Y-54728670D01*
X105732058Y-54705506D01*
X105734045Y-54693991D01*
X105748245Y-54638894D01*
X105767178Y-54586932D01*
X105781469Y-54555639D01*
X105809754Y-54505507D01*
X105843180Y-54459372D01*
X105881351Y-54417517D01*
X105923870Y-54380225D01*
X105970340Y-54347780D01*
X106020365Y-54320465D01*
X106073547Y-54298565D01*
X106129491Y-54282362D01*
X106176005Y-54273687D01*
X106198877Y-54271536D01*
X106226274Y-54270699D01*
X106256235Y-54271090D01*
X106286799Y-54272621D01*
X106316007Y-54275205D01*
X106341900Y-54278755D01*
X106356694Y-54281697D01*
X106413976Y-54298441D01*
X106467938Y-54320792D01*
X106518296Y-54348420D01*
X106564762Y-54380995D01*
X106607052Y-54418189D01*
X106644878Y-54459671D01*
X106677955Y-54505112D01*
X106705996Y-54554184D01*
X106728716Y-54606557D01*
X106745828Y-54661900D01*
X106757047Y-54719886D01*
X106760033Y-54746053D01*
X106761706Y-54800903D01*
X106757033Y-54856302D01*
X106746209Y-54911505D01*
X106729430Y-54965770D01*
X106706891Y-55018353D01*
X106678787Y-55068511D01*
X106672912Y-55077588D01*
X106659399Y-55096252D01*
X106642186Y-55116841D01*
X106620623Y-55140104D01*
X106604301Y-55156680D01*
X106556508Y-55204315D01*
X106556508Y-55470888D01*
X106556508Y-55737461D01*
X107101579Y-55737461D01*
X107646651Y-55737461D01*
X107646572Y-55444922D01*
X107646493Y-55152384D01*
X107632875Y-55142383D01*
X107620849Y-55132391D01*
X107606030Y-55118306D01*
X107589585Y-55101404D01*
X107572679Y-55082958D01*
X107556477Y-55064241D01*
X107542144Y-55046528D01*
X107530848Y-55031092D01*
X107530281Y-55030250D01*
X107500106Y-54979323D01*
X107476133Y-54926311D01*
X107458395Y-54871654D01*
X107446923Y-54815791D01*
X107441749Y-54759164D01*
X107442905Y-54702210D01*
X107450423Y-54645372D01*
X107464333Y-54589088D01*
X107484670Y-54533799D01*
X107493070Y-54515270D01*
X107520606Y-54464930D01*
X107553127Y-54418668D01*
X107590173Y-54376711D01*
X107631287Y-54339287D01*
X107676009Y-54306623D01*
X107723880Y-54278947D01*
X107774442Y-54256486D01*
X107827237Y-54239467D01*
X107881804Y-54228118D01*
X107937686Y-54222667D01*
X107994423Y-54223341D01*
G37*
D10*
%TO.C,U7*%
X175718099Y-100175299D02*
X175718099Y-101724699D01*
X178181899Y-101724699D02*
X178181899Y-100175299D01*
X175701599Y-102469999D02*
G75*
G02*
X175498399Y-102469999I-101600J0D01*
G01*
X175498399Y-102469999D02*
G75*
G02*
X175701599Y-102469999I101600J0D01*
G01*
D14*
%TO.C,C58*%
X159809510Y-92600637D02*
X160332016Y-92600637D01*
X159809510Y-94070637D02*
X160332016Y-94070637D01*
%TO.C,C62*%
X152595761Y-96477418D02*
X152595761Y-96769952D01*
X153615761Y-96477418D02*
X153615761Y-96769952D01*
%TO.C,C12*%
X164585949Y-75442802D02*
X164792802Y-75235949D01*
X165307198Y-76164051D02*
X165514051Y-75957198D01*
%TO.C,C9*%
X151635949Y-61467802D02*
X151842802Y-61260949D01*
X152357198Y-62189051D02*
X152564051Y-61982198D01*
%TO.C,R11*%
X178854724Y-94352500D02*
X178345276Y-94352500D01*
X178854724Y-95397500D02*
X178345276Y-95397500D01*
%TO.C,USER*%
X149495000Y-104750000D02*
X149525000Y-104750000D01*
X149495000Y-111210000D02*
X149495000Y-104750000D01*
X149525000Y-111210000D02*
X149495000Y-111210000D01*
X151425000Y-104750000D02*
X154025000Y-104750000D01*
X151425000Y-111210000D02*
X154025000Y-111210000D01*
X155955000Y-104750000D02*
X155925000Y-104750000D01*
X155955000Y-111210000D02*
X155925000Y-111210000D01*
X155955000Y-111210000D02*
X155955000Y-104750000D01*
%TO.C,R3*%
X98977500Y-79179724D02*
X98977500Y-78670276D01*
X100022500Y-79179724D02*
X100022500Y-78670276D01*
%TO.C,R23*%
X126725420Y-111310654D02*
X127085654Y-110950420D01*
X127464346Y-112049580D02*
X127824580Y-111689346D01*
D15*
%TO.C,RN4*%
X147953769Y-58414125D02*
X149226562Y-57141332D01*
X151630725Y-59545495D02*
X150357932Y-60818288D01*
D11*
X147488084Y-59262653D02*
G75*
G02*
X147288084Y-59262653I-100000J0D01*
G01*
X147288084Y-59262653D02*
G75*
G02*
X147488084Y-59262653I100000J0D01*
G01*
D14*
%TO.C,C26*%
X165653733Y-84665000D02*
X165946267Y-84665000D01*
X165653733Y-85685000D02*
X165946267Y-85685000D01*
%TO.C,R25*%
X115735654Y-105525420D02*
X115375420Y-105885654D01*
X116474580Y-106264346D02*
X116114346Y-106624580D01*
%TO.C,3V3*%
X158150000Y-100725000D02*
X159550000Y-100725000D01*
X158150000Y-102125000D02*
X158150000Y-100725000D01*
X159550000Y-100725000D02*
X159550000Y-102125000D01*
X159550000Y-102125000D02*
X158150000Y-102125000D01*
%TO.C,R13*%
X180150420Y-101639346D02*
X180510654Y-101999580D01*
X180889346Y-100900420D02*
X181249580Y-101260654D01*
D10*
%TO.C,SW1*%
X98573736Y-90032263D02*
X103961890Y-95420417D01*
X99781826Y-88824174D02*
X98573736Y-90032263D01*
X101577877Y-87028122D02*
X101137354Y-87468646D01*
X103373928Y-85232071D02*
X102933405Y-85672594D01*
X103961890Y-95420417D02*
X105169980Y-94212327D01*
X105169980Y-83436020D02*
X104729456Y-83876543D01*
X106525508Y-92856799D02*
X106966031Y-92416276D01*
X106966031Y-81639969D02*
X106525508Y-82080492D01*
X108321559Y-91060748D02*
X108762082Y-90620225D01*
X108762082Y-79843917D02*
X108321559Y-80284441D01*
X110117610Y-89264697D02*
X110558133Y-88824174D01*
X110558133Y-78047866D02*
X110117610Y-78488389D01*
X111913661Y-87468646D02*
X112354185Y-87028122D01*
X112354185Y-76251815D02*
X111913661Y-76692338D01*
X113709713Y-85672594D02*
X114150236Y-85232071D01*
X114125744Y-74480256D02*
X113709713Y-74896287D01*
X115505764Y-83876543D02*
X115946287Y-83436020D01*
X116713854Y-71892146D02*
X115530256Y-73075744D01*
X117301815Y-82080492D02*
X117742338Y-81639969D01*
X119097866Y-80284441D02*
X119538389Y-79843917D01*
X120893917Y-78488389D02*
X122102007Y-77280300D01*
X122102007Y-77280300D02*
X116713854Y-71892146D01*
D14*
%TO.C,C56*%
X156265219Y-93868620D02*
X156557753Y-93868620D01*
X156265219Y-94888620D02*
X156557753Y-94888620D01*
%TO.C,R54*%
X161525420Y-71535654D02*
X161885654Y-71175420D01*
X162264346Y-72274580D02*
X162624580Y-71914346D01*
D15*
%TO.C,RTC1*%
X154157653Y-99285474D02*
X154917653Y-99285474D01*
X154157653Y-100785476D02*
X154917653Y-100785476D01*
D10*
%TO.C,U11*%
X167575299Y-101356899D02*
X169124699Y-101356899D01*
X169124699Y-98893099D02*
X167575299Y-98893099D01*
X166931599Y-98774999D02*
G75*
G02*
X166728399Y-98774999I-101600J0D01*
G01*
X166728399Y-98774999D02*
G75*
G02*
X166931599Y-98774999I101600J0D01*
G01*
D14*
%TO.C,D6*%
X127490835Y-64755282D02*
X127169718Y-64434165D01*
X128530282Y-63715835D02*
X128209165Y-63394718D01*
%TO.C,R2*%
X98927500Y-83129724D02*
X98927500Y-82620276D01*
X99972500Y-83129724D02*
X99972500Y-82620276D01*
D11*
%TO.C,MainClock1*%
X162804736Y-91627095D02*
G75*
G02*
X162604736Y-91627095I-100000J0D01*
G01*
X162604736Y-91627095D02*
G75*
G02*
X162804736Y-91627095I100000J0D01*
G01*
D14*
%TO.C,C23*%
X197815000Y-89116232D02*
X197815000Y-89408766D01*
X198835000Y-89116232D02*
X198835000Y-89408766D01*
%TO.C,C59*%
X163353964Y-86603099D02*
X163646498Y-86603099D01*
X163353964Y-87623099D02*
X163646498Y-87623099D01*
%TO.C,C61*%
X154257462Y-96795616D02*
X154257462Y-97088150D01*
X155277462Y-96795616D02*
X155277462Y-97088150D01*
%TO.C,C31*%
X138352874Y-66434657D02*
X138146021Y-66227804D01*
X139074123Y-65713408D02*
X138867270Y-65506555D01*
%TO.C,C3*%
X134516821Y-89884060D02*
X134309968Y-90090913D01*
X135238070Y-90605309D02*
X135031217Y-90812162D01*
%TO.C,C41*%
X175785949Y-105882198D02*
X175992802Y-106089051D01*
X176507198Y-105160949D02*
X176714051Y-105367802D01*
%TO.C,R29*%
X114010654Y-91200420D02*
X113650420Y-91560654D01*
X114749580Y-91939346D02*
X114389346Y-92299580D01*
%TO.C,R19*%
X166557776Y-102127500D02*
X167067224Y-102127500D01*
X166557776Y-103172500D02*
X167067224Y-103172500D01*
%TO.C,3V3HSSoC*%
X172652064Y-113315000D02*
X172197936Y-113315000D01*
X172652064Y-114785000D02*
X172197936Y-114785000D01*
%TO.C,C10*%
X156354022Y-67375108D02*
X156560875Y-67168255D01*
X157075271Y-68096357D02*
X157282124Y-67889504D01*
%TO.C,C49*%
X152730099Y-62725881D02*
X152936952Y-62519028D01*
X153451348Y-63447130D02*
X153658201Y-63240277D01*
%TO.C,PROG*%
X91447936Y-74890000D02*
X91902064Y-74890000D01*
X91447936Y-76360000D02*
X91902064Y-76360000D01*
D10*
%TO.C,U5*%
X183424300Y-88995300D02*
X183424300Y-91840100D01*
X183424300Y-91840100D02*
X183725160Y-91840100D01*
X183725160Y-88995300D02*
X183424300Y-88995300D01*
X187974840Y-91840100D02*
X188275700Y-91840100D01*
X188275700Y-88995300D02*
X187974840Y-88995300D01*
X188275700Y-91840100D02*
X188275700Y-88995300D01*
X182408300Y-92652900D02*
G75*
G02*
X182154300Y-92652900I-127000J0D01*
G01*
X182154300Y-92652900D02*
G75*
G02*
X182408300Y-92652900I127000J0D01*
G01*
D15*
%TO.C,J2*%
X67875000Y-90958250D02*
X79375000Y-90958250D01*
X74875000Y-74458250D02*
X79375000Y-74458250D01*
X74875000Y-90058250D02*
X74875000Y-74458250D01*
X79375000Y-73558250D02*
X67875000Y-73558250D01*
X79375000Y-74458250D02*
X79375000Y-73558250D01*
X79375000Y-90058250D02*
X74875000Y-90058250D01*
X79375000Y-90958250D02*
X79375000Y-90058250D01*
D11*
X77175000Y-73008250D02*
G75*
G02*
X76975000Y-73008250I-100000J0D01*
G01*
X76975000Y-73008250D02*
G75*
G02*
X77175000Y-73008250I100000J0D01*
G01*
D14*
%TO.C,C27*%
X96385949Y-62692802D02*
X96592802Y-62485949D01*
X97107198Y-63414051D02*
X97314051Y-63207198D01*
%TO.C,C43*%
X179753733Y-95965000D02*
X180046267Y-95965000D01*
X179753733Y-96985000D02*
X180046267Y-96985000D01*
%TO.C,R12*%
X169920276Y-110227500D02*
X170429724Y-110227500D01*
X169920276Y-111272500D02*
X170429724Y-111272500D01*
%TO.C,C39*%
X162103733Y-112715000D02*
X162396267Y-112715000D01*
X162103733Y-113735000D02*
X162396267Y-113735000D01*
%TO.C,C36*%
X181170543Y-94384990D02*
X181540010Y-94754457D01*
X182209990Y-93345543D02*
X182579457Y-93715010D01*
%TO.C,GND*%
X172700000Y-109825000D02*
X174100000Y-109825000D01*
X172700000Y-111225000D02*
X172700000Y-109825000D01*
X174100000Y-109825000D02*
X174100000Y-111225000D01*
X174100000Y-111225000D02*
X172700000Y-111225000D01*
%TO.C,C29*%
X127516464Y-82468302D02*
X127309611Y-82261449D01*
X128237713Y-81747053D02*
X128030860Y-81540200D01*
%TO.C,C60*%
X160356258Y-89176539D02*
X160356258Y-89469073D01*
X161376258Y-89176539D02*
X161376258Y-89469073D01*
%TO.C,C1*%
X145252445Y-100451772D02*
X145459298Y-100658625D01*
X145973694Y-99730523D02*
X146180547Y-99937376D01*
%TO.C,R18*%
X121245276Y-63727500D02*
X121754724Y-63727500D01*
X121245276Y-64772500D02*
X121754724Y-64772500D01*
%TO.C,R27*%
X117335654Y-97975420D02*
X116975420Y-98335654D01*
X118074580Y-98714346D02*
X117714346Y-99074580D01*
%TO.C,R33*%
X129310654Y-92450420D02*
X128950420Y-92810654D01*
X130049580Y-93189346D02*
X129689346Y-93549580D01*
%TO.C,R32*%
X120410654Y-101325420D02*
X120050420Y-101685654D01*
X121149580Y-102064346D02*
X120789346Y-102424580D01*
%TO.C,C6*%
X134799663Y-70058578D02*
X134592810Y-69851725D01*
X135520912Y-69337329D02*
X135314059Y-69130476D01*
%TO.C,C74*%
X171757922Y-103920829D02*
X171551069Y-104127682D01*
X172479171Y-104642078D02*
X172272318Y-104848931D01*
%TO.C,C51*%
X150580508Y-98174473D02*
X150580508Y-98467007D01*
X151600508Y-98174473D02*
X151600508Y-98467007D01*
%TO.C,C48*%
X128205893Y-84492371D02*
X127999040Y-84699224D01*
X128927142Y-85213620D02*
X128720289Y-85420473D01*
%TO.C,R20*%
X168752500Y-103320276D02*
X168752500Y-103829724D01*
X169797500Y-103320276D02*
X169797500Y-103829724D01*
%TO.C,R30*%
X129585654Y-87425420D02*
X129225420Y-87785654D01*
X130324580Y-88164346D02*
X129964346Y-88524580D01*
%TO.C,C52*%
X137080082Y-67636737D02*
X136873229Y-67429884D01*
X137801331Y-66915488D02*
X137594478Y-66708635D01*
%TO.C,R1*%
X85920000Y-79326263D02*
X85920000Y-80773737D01*
X88630000Y-79326263D02*
X88630000Y-80773737D01*
%TO.C,R37*%
X134535654Y-95950420D02*
X134175420Y-96310654D01*
X135274580Y-96689346D02*
X134914346Y-97049580D01*
%TO.C,R38*%
X137835654Y-100900420D02*
X137475420Y-101260654D01*
X138574580Y-101639346D02*
X138214346Y-101999580D01*
%TO.C,R17*%
X123545276Y-61802500D02*
X124054724Y-61802500D01*
X123545276Y-62847500D02*
X124054724Y-62847500D01*
%TO.C,R14*%
X180060654Y-103999580D02*
X179700420Y-103639346D01*
X180799580Y-103260654D02*
X180439346Y-102900420D01*
%TO.C,R45*%
X139760654Y-104375420D02*
X139400420Y-104735654D01*
X140499580Y-105114346D02*
X140139346Y-105474580D01*
%TO.C,C25*%
X91778733Y-84365000D02*
X92071267Y-84365000D01*
X91778733Y-85385000D02*
X92071267Y-85385000D01*
%TO.C,R44*%
X119460654Y-111975420D02*
X119100420Y-112335654D01*
X120199580Y-112714346D02*
X119839346Y-113074580D01*
%TO.C,C8*%
X141817697Y-62934477D02*
X141610844Y-62727624D01*
X142538946Y-62213228D02*
X142332093Y-62006375D01*
%TO.C,R28*%
X115735654Y-92875420D02*
X115375420Y-93235654D01*
X116474580Y-93614346D02*
X116114346Y-93974580D01*
%TO.C,C34*%
X188128733Y-85840000D02*
X188421267Y-85840000D01*
X188128733Y-86860000D02*
X188421267Y-86860000D01*
%TO.C,R6*%
X123475420Y-78460654D02*
X123835654Y-78100420D01*
X124214346Y-79199580D02*
X124574580Y-78839346D01*
%TO.C,C57*%
X159070598Y-96097267D02*
X159070598Y-96619773D01*
X160540598Y-96097267D02*
X160540598Y-96619773D01*
%TO.C,C40*%
X168038747Y-112140000D02*
X168561253Y-112140000D01*
X168038747Y-113610000D02*
X168561253Y-113610000D01*
%TO.C,C75*%
X170615000Y-101578733D02*
X170615000Y-101871267D01*
X171635000Y-101578733D02*
X171635000Y-101871267D01*
D10*
%TO.C,U6*%
X161984900Y-107199300D02*
X161984900Y-107500160D01*
X161984900Y-111749840D02*
X161984900Y-112050700D01*
X161984900Y-112050700D02*
X164829700Y-112050700D01*
X164829700Y-107199300D02*
X161984900Y-107199300D01*
X164829700Y-107500160D02*
X164829700Y-107199300D01*
X164829700Y-112050700D02*
X164829700Y-111749840D01*
X165769500Y-113193700D02*
G75*
G02*
X165515500Y-113193700I-127000J0D01*
G01*
X165515500Y-113193700D02*
G75*
G02*
X165769500Y-113193700I127000J0D01*
G01*
D14*
%TO.C,R34*%
X127510654Y-95625420D02*
X127150420Y-95985654D01*
X128249580Y-96364346D02*
X127889346Y-96724580D01*
%TO.C,C47*%
X142719259Y-98616829D02*
X142512406Y-98823682D01*
X143440508Y-99338078D02*
X143233655Y-99544931D01*
%TO.C,R15*%
X173827500Y-101154724D02*
X173827500Y-100645276D01*
X174872500Y-101154724D02*
X174872500Y-100645276D01*
%TO.C,H7_UART/SWD*%
X84385000Y-90995000D02*
X84385000Y-96295000D01*
X94655000Y-90995000D02*
X84385000Y-90995000D01*
X94655000Y-90995000D02*
X94655000Y-93645000D01*
X94655000Y-93645000D02*
X97305000Y-93645000D01*
X95925000Y-90995001D02*
X97305000Y-90995000D01*
X97305000Y-90995000D02*
X97304999Y-92375000D01*
X97305000Y-93645000D02*
X97305000Y-96295000D01*
X97305000Y-96295000D02*
X84385000Y-96295000D01*
%TO.C,C42*%
X177510949Y-105382198D02*
X177717802Y-105589051D01*
X178232198Y-104660949D02*
X178439051Y-104867802D01*
%TO.C,R31*%
X125760654Y-100100420D02*
X125400420Y-100460654D01*
X126499580Y-100839346D02*
X126139346Y-101199580D01*
%TO.C,R5*%
X169285654Y-85600420D02*
X168925420Y-85960654D01*
X170024580Y-86339346D02*
X169664346Y-86699580D01*
D15*
%TO.C,J6*%
X106833150Y-107972507D02*
X107596826Y-108736182D01*
X108869618Y-105936039D02*
X106833150Y-107972507D01*
X108869618Y-105936039D02*
X109633293Y-106699715D01*
X114328482Y-115467839D02*
X113564807Y-114704163D01*
X114328482Y-115467839D02*
X116364950Y-113431371D01*
X116364950Y-113431371D02*
X115601274Y-112667696D01*
D11*
X110758598Y-106225953D02*
G75*
G02*
X110558598Y-106225953I-100000J0D01*
G01*
X110558598Y-106225953D02*
G75*
G02*
X110758598Y-106225953I100000J0D01*
G01*
D14*
%TO.C,D2*%
X125640835Y-66630282D02*
X125319718Y-66309165D01*
X126680282Y-65590835D02*
X126359165Y-65269718D01*
%TO.C,J3*%
X85339180Y-64759205D02*
X94475000Y-55623385D01*
X87213013Y-66633038D02*
X85339180Y-64759205D01*
X89086846Y-64759205D02*
X87213013Y-66633038D01*
X89086846Y-68506871D02*
X88111039Y-67531063D01*
X90062653Y-67531063D02*
X89086846Y-68506871D01*
X90960679Y-66633038D02*
X89086846Y-64759205D01*
X90960679Y-66633038D02*
X98222666Y-59371051D01*
X98222666Y-59371051D02*
X94475000Y-55623385D01*
%TO.C,C24*%
X88086253Y-83315000D02*
X87563747Y-83315000D01*
X88086253Y-84785000D02*
X87563747Y-84785000D01*
D15*
%TO.C,RN1*%
X143174999Y-59175001D02*
X143174999Y-57374999D01*
X146574999Y-57374999D02*
X146574999Y-59175001D01*
D11*
X146474999Y-56375000D02*
G75*
G02*
X146274999Y-56375000I-100000J0D01*
G01*
X146274999Y-56375000D02*
G75*
G02*
X146474999Y-56375000I100000J0D01*
G01*
D14*
%TO.C,C2*%
X137327570Y-92659453D02*
X137120717Y-92866306D01*
X138048819Y-93380702D02*
X137841966Y-93587555D01*
%TO.C,C37*%
X163438748Y-104690000D02*
X163961252Y-104690000D01*
X163438748Y-106160000D02*
X163961252Y-106160000D01*
%TO.C,C72*%
X161942802Y-100935949D02*
X161735949Y-101142802D01*
X162664051Y-101657198D02*
X162457198Y-101864051D01*
D11*
%TO.C,U3*%
X95050000Y-78120000D02*
X93249998Y-78120000D01*
X97450000Y-83120000D02*
X93249998Y-83120000D01*
D14*
%TO.C,C64*%
X80115000Y-75121267D02*
X80115000Y-74828733D01*
X81135000Y-75121267D02*
X81135000Y-74828733D01*
%TO.C,C54*%
X131865170Y-72816295D02*
X131658317Y-72609442D01*
X132586419Y-72095046D02*
X132379566Y-71888193D01*
D16*
%TO.C,U4*%
G36*
X94476117Y-71873815D02*
G01*
X94296511Y-72053420D01*
X94027104Y-71784012D01*
X94206709Y-71604407D01*
X94476117Y-71873815D01*
G37*
G36*
X102728902Y-64752402D02*
G01*
X102549297Y-64932007D01*
X102279889Y-64662599D01*
X102459494Y-64482994D01*
X102728902Y-64752402D01*
G37*
G36*
X103294588Y-73481068D02*
G01*
X103025180Y-73750476D01*
X102845575Y-73570871D01*
X103114983Y-73301463D01*
X103294588Y-73481068D01*
G37*
D14*
%TO.C,C16*%
X148441510Y-100313471D02*
X148441510Y-100606005D01*
X149461510Y-100313471D02*
X149461510Y-100606005D01*
%TO.C,C7*%
X139501924Y-65250252D02*
X139295071Y-65043399D01*
X140223173Y-64529003D02*
X140016320Y-64322150D01*
%TO.C,R35*%
X130885654Y-93850420D02*
X130525420Y-94210654D01*
X131624580Y-94589346D02*
X131264346Y-94949580D01*
%TD*%
M02*
