%TF.GenerationSoftware,KiCad,Pcbnew,9.0.3*%
%TF.CreationDate,2026-04-08T11:21:53-04:00*%
%TF.ProjectId,MainTotem_Rev1,4d61696e-546f-4746-956d-5f526576312e,rev?*%
%TF.SameCoordinates,Original*%
%TF.FileFunction,Legend,Bot*%
%TF.FilePolarity,Positive*%
%FSLAX46Y46*%
G04 Gerber Fmt 4.6, Leading zero omitted, Abs format (unit mm)*
G04 Created by KiCad (PCBNEW 9.0.3) date 2026-04-08 11:21:53*
%MOMM*%
%LPD*%
G01*
G04 APERTURE LIST*
%ADD10C,0.152400*%
%ADD11C,0.150000*%
%ADD12C,0.120000*%
%ADD13C,0.127000*%
%ADD14C,0.200000*%
G04 APERTURE END LIST*
D10*
X95891756Y-108515194D02*
X95930460Y-108553899D01*
X95930460Y-108553899D02*
X96046575Y-108592603D01*
X96046575Y-108592603D02*
X96123984Y-108592603D01*
X96123984Y-108592603D02*
X96240098Y-108553899D01*
X96240098Y-108553899D02*
X96317508Y-108476489D01*
X96317508Y-108476489D02*
X96356213Y-108399079D01*
X96356213Y-108399079D02*
X96394917Y-108244260D01*
X96394917Y-108244260D02*
X96394917Y-108128146D01*
X96394917Y-108128146D02*
X96356213Y-107973327D01*
X96356213Y-107973327D02*
X96317508Y-107895918D01*
X96317508Y-107895918D02*
X96240098Y-107818508D01*
X96240098Y-107818508D02*
X96123984Y-107779803D01*
X96123984Y-107779803D02*
X96046575Y-107779803D01*
X96046575Y-107779803D02*
X95930460Y-107818508D01*
X95930460Y-107818508D02*
X95891756Y-107857213D01*
X95427298Y-108592603D02*
X95504708Y-108553899D01*
X95504708Y-108553899D02*
X95543413Y-108515194D01*
X95543413Y-108515194D02*
X95582117Y-108437784D01*
X95582117Y-108437784D02*
X95582117Y-108205556D01*
X95582117Y-108205556D02*
X95543413Y-108128146D01*
X95543413Y-108128146D02*
X95504708Y-108089441D01*
X95504708Y-108089441D02*
X95427298Y-108050737D01*
X95427298Y-108050737D02*
X95311184Y-108050737D01*
X95311184Y-108050737D02*
X95233775Y-108089441D01*
X95233775Y-108089441D02*
X95195070Y-108128146D01*
X95195070Y-108128146D02*
X95156365Y-108205556D01*
X95156365Y-108205556D02*
X95156365Y-108437784D01*
X95156365Y-108437784D02*
X95195070Y-108515194D01*
X95195070Y-108515194D02*
X95233775Y-108553899D01*
X95233775Y-108553899D02*
X95311184Y-108592603D01*
X95311184Y-108592603D02*
X95427298Y-108592603D01*
X94808023Y-108592603D02*
X94808023Y-108050737D01*
X94808023Y-108128146D02*
X94769318Y-108089441D01*
X94769318Y-108089441D02*
X94691908Y-108050737D01*
X94691908Y-108050737D02*
X94575794Y-108050737D01*
X94575794Y-108050737D02*
X94498385Y-108089441D01*
X94498385Y-108089441D02*
X94459680Y-108166851D01*
X94459680Y-108166851D02*
X94459680Y-108592603D01*
X94459680Y-108166851D02*
X94420975Y-108089441D01*
X94420975Y-108089441D02*
X94343566Y-108050737D01*
X94343566Y-108050737D02*
X94227451Y-108050737D01*
X94227451Y-108050737D02*
X94150042Y-108089441D01*
X94150042Y-108089441D02*
X94111337Y-108166851D01*
X94111337Y-108166851D02*
X94111337Y-108592603D01*
X93724290Y-108050737D02*
X93724290Y-108863537D01*
X93724290Y-108089441D02*
X93646880Y-108050737D01*
X93646880Y-108050737D02*
X93492061Y-108050737D01*
X93492061Y-108050737D02*
X93414652Y-108089441D01*
X93414652Y-108089441D02*
X93375947Y-108128146D01*
X93375947Y-108128146D02*
X93337242Y-108205556D01*
X93337242Y-108205556D02*
X93337242Y-108437784D01*
X93337242Y-108437784D02*
X93375947Y-108515194D01*
X93375947Y-108515194D02*
X93414652Y-108553899D01*
X93414652Y-108553899D02*
X93492061Y-108592603D01*
X93492061Y-108592603D02*
X93646880Y-108592603D01*
X93646880Y-108592603D02*
X93724290Y-108553899D01*
X92872785Y-108592603D02*
X92950195Y-108553899D01*
X92950195Y-108553899D02*
X92988900Y-108515194D01*
X92988900Y-108515194D02*
X93027604Y-108437784D01*
X93027604Y-108437784D02*
X93027604Y-108205556D01*
X93027604Y-108205556D02*
X92988900Y-108128146D01*
X92988900Y-108128146D02*
X92950195Y-108089441D01*
X92950195Y-108089441D02*
X92872785Y-108050737D01*
X92872785Y-108050737D02*
X92756671Y-108050737D01*
X92756671Y-108050737D02*
X92679262Y-108089441D01*
X92679262Y-108089441D02*
X92640557Y-108128146D01*
X92640557Y-108128146D02*
X92601852Y-108205556D01*
X92601852Y-108205556D02*
X92601852Y-108437784D01*
X92601852Y-108437784D02*
X92640557Y-108515194D01*
X92640557Y-108515194D02*
X92679262Y-108553899D01*
X92679262Y-108553899D02*
X92756671Y-108592603D01*
X92756671Y-108592603D02*
X92872785Y-108592603D01*
X92253510Y-108050737D02*
X92253510Y-108592603D01*
X92253510Y-108128146D02*
X92214805Y-108089441D01*
X92214805Y-108089441D02*
X92137395Y-108050737D01*
X92137395Y-108050737D02*
X92021281Y-108050737D01*
X92021281Y-108050737D02*
X91943872Y-108089441D01*
X91943872Y-108089441D02*
X91905167Y-108166851D01*
X91905167Y-108166851D02*
X91905167Y-108592603D01*
X91208482Y-108553899D02*
X91285891Y-108592603D01*
X91285891Y-108592603D02*
X91440710Y-108592603D01*
X91440710Y-108592603D02*
X91518120Y-108553899D01*
X91518120Y-108553899D02*
X91556824Y-108476489D01*
X91556824Y-108476489D02*
X91556824Y-108166851D01*
X91556824Y-108166851D02*
X91518120Y-108089441D01*
X91518120Y-108089441D02*
X91440710Y-108050737D01*
X91440710Y-108050737D02*
X91285891Y-108050737D01*
X91285891Y-108050737D02*
X91208482Y-108089441D01*
X91208482Y-108089441D02*
X91169777Y-108166851D01*
X91169777Y-108166851D02*
X91169777Y-108244260D01*
X91169777Y-108244260D02*
X91556824Y-108321670D01*
X90821434Y-108050737D02*
X90821434Y-108592603D01*
X90821434Y-108128146D02*
X90782729Y-108089441D01*
X90782729Y-108089441D02*
X90705319Y-108050737D01*
X90705319Y-108050737D02*
X90589205Y-108050737D01*
X90589205Y-108050737D02*
X90511796Y-108089441D01*
X90511796Y-108089441D02*
X90473091Y-108166851D01*
X90473091Y-108166851D02*
X90473091Y-108592603D01*
X90202158Y-108050737D02*
X89892520Y-108050737D01*
X90086044Y-107779803D02*
X90086044Y-108476489D01*
X90086044Y-108476489D02*
X90047339Y-108553899D01*
X90047339Y-108553899D02*
X89969929Y-108592603D01*
X89969929Y-108592603D02*
X89892520Y-108592603D01*
X89660291Y-108553899D02*
X89582882Y-108592603D01*
X89582882Y-108592603D02*
X89428063Y-108592603D01*
X89428063Y-108592603D02*
X89350653Y-108553899D01*
X89350653Y-108553899D02*
X89311949Y-108476489D01*
X89311949Y-108476489D02*
X89311949Y-108437784D01*
X89311949Y-108437784D02*
X89350653Y-108360375D01*
X89350653Y-108360375D02*
X89428063Y-108321670D01*
X89428063Y-108321670D02*
X89544177Y-108321670D01*
X89544177Y-108321670D02*
X89621587Y-108282965D01*
X89621587Y-108282965D02*
X89660291Y-108205556D01*
X89660291Y-108205556D02*
X89660291Y-108166851D01*
X89660291Y-108166851D02*
X89621587Y-108089441D01*
X89621587Y-108089441D02*
X89544177Y-108050737D01*
X89544177Y-108050737D02*
X89428063Y-108050737D01*
X89428063Y-108050737D02*
X89350653Y-108089441D01*
X88344330Y-108592603D02*
X88344330Y-107779803D01*
X88344330Y-107779803D02*
X88034692Y-107779803D01*
X88034692Y-107779803D02*
X87957282Y-107818508D01*
X87957282Y-107818508D02*
X87918577Y-107857213D01*
X87918577Y-107857213D02*
X87879873Y-107934622D01*
X87879873Y-107934622D02*
X87879873Y-108050737D01*
X87879873Y-108050737D02*
X87918577Y-108128146D01*
X87918577Y-108128146D02*
X87957282Y-108166851D01*
X87957282Y-108166851D02*
X88034692Y-108205556D01*
X88034692Y-108205556D02*
X88344330Y-108205556D01*
X87221892Y-108553899D02*
X87299301Y-108592603D01*
X87299301Y-108592603D02*
X87454120Y-108592603D01*
X87454120Y-108592603D02*
X87531530Y-108553899D01*
X87531530Y-108553899D02*
X87570234Y-108476489D01*
X87570234Y-108476489D02*
X87570234Y-108166851D01*
X87570234Y-108166851D02*
X87531530Y-108089441D01*
X87531530Y-108089441D02*
X87454120Y-108050737D01*
X87454120Y-108050737D02*
X87299301Y-108050737D01*
X87299301Y-108050737D02*
X87221892Y-108089441D01*
X87221892Y-108089441D02*
X87183187Y-108166851D01*
X87183187Y-108166851D02*
X87183187Y-108244260D01*
X87183187Y-108244260D02*
X87570234Y-108321670D01*
X86834844Y-108050737D02*
X86834844Y-108592603D01*
X86834844Y-108128146D02*
X86796139Y-108089441D01*
X86796139Y-108089441D02*
X86718729Y-108050737D01*
X86718729Y-108050737D02*
X86602615Y-108050737D01*
X86602615Y-108050737D02*
X86525206Y-108089441D01*
X86525206Y-108089441D02*
X86486501Y-108166851D01*
X86486501Y-108166851D02*
X86486501Y-108592603D01*
X85751111Y-108592603D02*
X85751111Y-107779803D01*
X85751111Y-108553899D02*
X85828520Y-108592603D01*
X85828520Y-108592603D02*
X85983339Y-108592603D01*
X85983339Y-108592603D02*
X86060749Y-108553899D01*
X86060749Y-108553899D02*
X86099454Y-108515194D01*
X86099454Y-108515194D02*
X86138158Y-108437784D01*
X86138158Y-108437784D02*
X86138158Y-108205556D01*
X86138158Y-108205556D02*
X86099454Y-108128146D01*
X86099454Y-108128146D02*
X86060749Y-108089441D01*
X86060749Y-108089441D02*
X85983339Y-108050737D01*
X85983339Y-108050737D02*
X85828520Y-108050737D01*
X85828520Y-108050737D02*
X85751111Y-108089441D01*
X85364064Y-108592603D02*
X85364064Y-108050737D01*
X85364064Y-107779803D02*
X85402768Y-107818508D01*
X85402768Y-107818508D02*
X85364064Y-107857213D01*
X85364064Y-107857213D02*
X85325359Y-107818508D01*
X85325359Y-107818508D02*
X85364064Y-107779803D01*
X85364064Y-107779803D02*
X85364064Y-107857213D01*
X84977016Y-108050737D02*
X84977016Y-108592603D01*
X84977016Y-108128146D02*
X84938311Y-108089441D01*
X84938311Y-108089441D02*
X84860901Y-108050737D01*
X84860901Y-108050737D02*
X84744787Y-108050737D01*
X84744787Y-108050737D02*
X84667378Y-108089441D01*
X84667378Y-108089441D02*
X84628673Y-108166851D01*
X84628673Y-108166851D02*
X84628673Y-108592603D01*
X83893283Y-108050737D02*
X83893283Y-108708718D01*
X83893283Y-108708718D02*
X83931988Y-108786127D01*
X83931988Y-108786127D02*
X83970692Y-108824832D01*
X83970692Y-108824832D02*
X84048102Y-108863537D01*
X84048102Y-108863537D02*
X84164216Y-108863537D01*
X84164216Y-108863537D02*
X84241626Y-108824832D01*
X83893283Y-108553899D02*
X83970692Y-108592603D01*
X83970692Y-108592603D02*
X84125511Y-108592603D01*
X84125511Y-108592603D02*
X84202921Y-108553899D01*
X84202921Y-108553899D02*
X84241626Y-108515194D01*
X84241626Y-108515194D02*
X84280330Y-108437784D01*
X84280330Y-108437784D02*
X84280330Y-108205556D01*
X84280330Y-108205556D02*
X84241626Y-108128146D01*
X84241626Y-108128146D02*
X84202921Y-108089441D01*
X84202921Y-108089441D02*
X84125511Y-108050737D01*
X84125511Y-108050737D02*
X83970692Y-108050737D01*
X83970692Y-108050737D02*
X83893283Y-108089441D01*
X83003074Y-107779803D02*
X82732141Y-108592603D01*
X82732141Y-108592603D02*
X82461207Y-107779803D01*
X82228978Y-107857213D02*
X82190274Y-107818508D01*
X82190274Y-107818508D02*
X82112864Y-107779803D01*
X82112864Y-107779803D02*
X81919340Y-107779803D01*
X81919340Y-107779803D02*
X81841931Y-107818508D01*
X81841931Y-107818508D02*
X81803226Y-107857213D01*
X81803226Y-107857213D02*
X81764521Y-107934622D01*
X81764521Y-107934622D02*
X81764521Y-108012032D01*
X81764521Y-108012032D02*
X81803226Y-108128146D01*
X81803226Y-108128146D02*
X82267683Y-108592603D01*
X82267683Y-108592603D02*
X81764521Y-108592603D01*
D11*
X170477057Y-79930954D02*
X171049477Y-80503374D01*
X171049477Y-80503374D02*
X171083149Y-80604389D01*
X171083149Y-80604389D02*
X171083149Y-80671733D01*
X171083149Y-80671733D02*
X171049477Y-80772748D01*
X171049477Y-80772748D02*
X170914790Y-80907435D01*
X170914790Y-80907435D02*
X170813775Y-80941107D01*
X170813775Y-80941107D02*
X170746431Y-80941107D01*
X170746431Y-80941107D02*
X170645416Y-80907435D01*
X170645416Y-80907435D02*
X170072996Y-80335015D01*
X169837294Y-80705405D02*
X169769951Y-80705405D01*
X169769951Y-80705405D02*
X169668935Y-80739076D01*
X169668935Y-80739076D02*
X169500577Y-80907435D01*
X169500577Y-80907435D02*
X169466905Y-81008450D01*
X169466905Y-81008450D02*
X169466905Y-81075794D01*
X169466905Y-81075794D02*
X169500577Y-81176809D01*
X169500577Y-81176809D02*
X169567920Y-81244153D01*
X169567920Y-81244153D02*
X169702607Y-81311496D01*
X169702607Y-81311496D02*
X170510729Y-81311496D01*
X170510729Y-81311496D02*
X170072996Y-81749229D01*
X169345612Y-75961614D02*
X169513971Y-76129972D01*
X169614986Y-75894270D02*
X169513971Y-76129972D01*
X169513971Y-76129972D02*
X169278269Y-76230988D01*
X169749673Y-76163644D02*
X169513971Y-76129972D01*
X169513971Y-76129972D02*
X169547643Y-76365675D01*
X150739780Y-82373718D02*
X151549303Y-82373718D01*
X151549303Y-82373718D02*
X151644541Y-82421337D01*
X151644541Y-82421337D02*
X151692161Y-82468956D01*
X151692161Y-82468956D02*
X151739780Y-82564194D01*
X151739780Y-82564194D02*
X151739780Y-82754670D01*
X151739780Y-82754670D02*
X151692161Y-82849908D01*
X151692161Y-82849908D02*
X151644541Y-82897527D01*
X151644541Y-82897527D02*
X151549303Y-82945146D01*
X151549303Y-82945146D02*
X150739780Y-82945146D01*
X151168351Y-83564194D02*
X151120732Y-83468956D01*
X151120732Y-83468956D02*
X151073113Y-83421337D01*
X151073113Y-83421337D02*
X150977875Y-83373718D01*
X150977875Y-83373718D02*
X150930256Y-83373718D01*
X150930256Y-83373718D02*
X150835018Y-83421337D01*
X150835018Y-83421337D02*
X150787399Y-83468956D01*
X150787399Y-83468956D02*
X150739780Y-83564194D01*
X150739780Y-83564194D02*
X150739780Y-83754670D01*
X150739780Y-83754670D02*
X150787399Y-83849908D01*
X150787399Y-83849908D02*
X150835018Y-83897527D01*
X150835018Y-83897527D02*
X150930256Y-83945146D01*
X150930256Y-83945146D02*
X150977875Y-83945146D01*
X150977875Y-83945146D02*
X151073113Y-83897527D01*
X151073113Y-83897527D02*
X151120732Y-83849908D01*
X151120732Y-83849908D02*
X151168351Y-83754670D01*
X151168351Y-83754670D02*
X151168351Y-83564194D01*
X151168351Y-83564194D02*
X151215970Y-83468956D01*
X151215970Y-83468956D02*
X151263589Y-83421337D01*
X151263589Y-83421337D02*
X151358827Y-83373718D01*
X151358827Y-83373718D02*
X151549303Y-83373718D01*
X151549303Y-83373718D02*
X151644541Y-83421337D01*
X151644541Y-83421337D02*
X151692161Y-83468956D01*
X151692161Y-83468956D02*
X151739780Y-83564194D01*
X151739780Y-83564194D02*
X151739780Y-83754670D01*
X151739780Y-83754670D02*
X151692161Y-83849908D01*
X151692161Y-83849908D02*
X151644541Y-83897527D01*
X151644541Y-83897527D02*
X151549303Y-83945146D01*
X151549303Y-83945146D02*
X151358827Y-83945146D01*
X151358827Y-83945146D02*
X151263589Y-83897527D01*
X151263589Y-83897527D02*
X151215970Y-83849908D01*
X151215970Y-83849908D02*
X151168351Y-83754670D01*
X147804819Y-80025000D02*
X148042914Y-80025000D01*
X147947676Y-79786905D02*
X148042914Y-80025000D01*
X148042914Y-80025000D02*
X147947676Y-80263095D01*
X148233390Y-79882143D02*
X148042914Y-80025000D01*
X148042914Y-80025000D02*
X148233390Y-80167857D01*
D12*
%TO.C,R42*%
X143240419Y-95170655D02*
X142880185Y-95530889D01*
X143979345Y-95909581D02*
X143619111Y-96269815D01*
%TO.C,C19*%
X160803515Y-80179020D02*
X160596662Y-80385873D01*
X161524764Y-80900269D02*
X161317911Y-81107122D01*
D13*
%TO.C,RN9*%
X98999999Y-106675000D02*
X100800001Y-106675000D01*
X100800001Y-103275000D02*
X98999999Y-103275000D01*
D14*
X101900000Y-103475000D02*
G75*
G02*
X101700000Y-103475000I-100000J0D01*
G01*
X101700000Y-103475000D02*
G75*
G02*
X101900000Y-103475000I100000J0D01*
G01*
D12*
%TO.C,C13*%
X159253159Y-89880525D02*
X159460012Y-90087378D01*
X159974408Y-89159276D02*
X160181261Y-89366129D01*
%TO.C,R43*%
X144335654Y-96275420D02*
X143975420Y-96635654D01*
X145074580Y-97014346D02*
X144714346Y-97374580D01*
%TO.C,R48*%
X87077500Y-100895276D02*
X87077500Y-101404724D01*
X88122500Y-100895276D02*
X88122500Y-101404724D01*
%TO.C,C76*%
X165765000Y-97633768D02*
X165765000Y-97341234D01*
X166785000Y-97633768D02*
X166785000Y-97341234D01*
%TO.C,C45*%
X176940000Y-103446267D02*
X176940000Y-103153733D01*
X177960000Y-103446267D02*
X177960000Y-103153733D01*
%TO.C,C4*%
X132619996Y-80824693D02*
X132619996Y-80532159D01*
X133639996Y-80824693D02*
X133639996Y-80532159D01*
%TO.C,R55*%
X97729724Y-101602500D02*
X97220276Y-101602500D01*
X97729724Y-102647500D02*
X97220276Y-102647500D01*
D13*
%TO.C,RN3*%
X90999999Y-107124999D02*
X92800001Y-107124999D01*
X92800001Y-103724999D02*
X90999999Y-103724999D01*
D14*
X93900000Y-103924999D02*
G75*
G02*
X93700000Y-103924999I-100000J0D01*
G01*
X93700000Y-103924999D02*
G75*
G02*
X93900000Y-103924999I100000J0D01*
G01*
D12*
%TO.C,C30*%
X148959477Y-67946072D02*
X148752624Y-68152925D01*
X149680726Y-68667321D02*
X149473873Y-68874174D01*
%TO.C,R7*%
X97800420Y-70614346D02*
X98160654Y-70974580D01*
X98539346Y-69875420D02*
X98899580Y-70235654D01*
D10*
%TO.C,U2*%
X166965195Y-80495994D02*
X169964601Y-77496588D01*
X173682427Y-81214414D02*
X170683021Y-84213820D01*
D12*
%TO.C,R47*%
X97704724Y-99502500D02*
X97195276Y-99502500D01*
X97704724Y-100547500D02*
X97195276Y-100547500D01*
%TO.C,FB1*%
X158679335Y-77866104D02*
X158319101Y-78226338D01*
X159418261Y-78605030D02*
X159058027Y-78965264D01*
D13*
%TO.C,RN7*%
X155249999Y-62349999D02*
X155249999Y-64150001D01*
X158649999Y-64150001D02*
X158649999Y-62349999D01*
D14*
X155549999Y-61350000D02*
G75*
G02*
X155349999Y-61350000I-100000J0D01*
G01*
X155349999Y-61350000D02*
G75*
G02*
X155549999Y-61350000I100000J0D01*
G01*
D13*
%TO.C,RN5*%
X86475000Y-107100000D02*
X88275000Y-107100000D01*
X88275000Y-103700000D02*
X86475000Y-103700000D01*
D14*
X89375000Y-103900000D02*
G75*
G02*
X89175000Y-103900000I-100000J0D01*
G01*
X89175000Y-103900000D02*
G75*
G02*
X89375000Y-103900000I100000J0D01*
G01*
D13*
%TO.C,RN6*%
X82200000Y-107025000D02*
X84000000Y-107025000D01*
X84000000Y-103625000D02*
X82200000Y-103625000D01*
D14*
X85100000Y-103825000D02*
G75*
G02*
X84900000Y-103825000I-100000J0D01*
G01*
X84900000Y-103825000D02*
G75*
G02*
X85100000Y-103825000I100000J0D01*
G01*
D12*
%TO.C,R39*%
X150060654Y-69750420D02*
X149700420Y-70110654D01*
X150799580Y-70489346D02*
X150439346Y-70849580D01*
%TO.C,C5*%
X134221579Y-78885014D02*
X134428432Y-79091867D01*
X134942828Y-78163765D02*
X135149681Y-78370618D01*
D10*
%TO.C,U8*%
X148465561Y-80316223D02*
X148780521Y-80316224D01*
X148465561Y-85955023D02*
X148465561Y-80316223D01*
X148780521Y-85955022D02*
X148465561Y-85955023D01*
X153789401Y-80316224D02*
X154104361Y-80316223D01*
X154104361Y-80316223D02*
X154104361Y-85955023D01*
X154104361Y-85955023D02*
X153789401Y-85955022D01*
D12*
%TO.C,R8*%
X88560654Y-71124580D02*
X88200420Y-70764346D01*
X89299580Y-70385654D02*
X88939346Y-70025420D01*
D13*
%TO.C,RN10*%
X94942499Y-106825000D02*
X96742501Y-106825000D01*
X96742501Y-103425000D02*
X94942499Y-103425000D01*
D14*
X97842500Y-103625000D02*
G75*
G02*
X97642500Y-103625000I-100000J0D01*
G01*
X97642500Y-103625000D02*
G75*
G02*
X97842500Y-103625000I100000J0D01*
G01*
D12*
%TO.C,C14*%
X153179123Y-92120725D02*
X153179123Y-91828191D01*
X154199123Y-92120725D02*
X154199123Y-91828191D01*
%TO.C,R50*%
X93827500Y-100920276D02*
X93827500Y-101429724D01*
X94872500Y-100920276D02*
X94872500Y-101429724D01*
%TO.C,R57*%
X156860665Y-82135825D02*
X156351217Y-82135825D01*
X156860665Y-83180825D02*
X156351217Y-83180825D01*
%TO.C,C32*%
X100485949Y-68157198D02*
X100692802Y-68364051D01*
X101207198Y-67435949D02*
X101414051Y-67642802D01*
%TO.C,C20*%
X166403777Y-86106342D02*
X166610630Y-86313195D01*
X167125026Y-85385093D02*
X167331879Y-85591946D01*
%TO.C,C63*%
X147133361Y-88045168D02*
X147133361Y-88337702D01*
X148153361Y-88045168D02*
X148153361Y-88337702D01*
%TO.C,R52*%
X84877500Y-100870276D02*
X84877500Y-101379724D01*
X85922500Y-100870276D02*
X85922500Y-101379724D01*
%TO.C,R51*%
X91477500Y-100920276D02*
X91477500Y-101429724D01*
X92522500Y-100920276D02*
X92522500Y-101429724D01*
%TO.C,C21*%
X165135949Y-87132198D02*
X165342802Y-87339051D01*
X165857198Y-86410949D02*
X166064051Y-86617802D01*
%TO.C,R4*%
X144000420Y-91385654D02*
X144360654Y-91025420D01*
X144739346Y-92124580D02*
X145099580Y-91764346D01*
D13*
%TO.C,RN8*%
X161454505Y-69669275D02*
X160181712Y-70942068D01*
X162585875Y-73346231D02*
X163858668Y-72073438D01*
D14*
X162403033Y-69103590D02*
G75*
G02*
X162203033Y-69103590I-100000J0D01*
G01*
X162203033Y-69103590D02*
G75*
G02*
X162403033Y-69103590I100000J0D01*
G01*
D12*
%TO.C,C17*%
X145954272Y-67769295D02*
X145747419Y-67976148D01*
X146675521Y-68490544D02*
X146468668Y-68697397D01*
%TO.C,C22*%
X173837237Y-77983453D02*
X174044090Y-78190306D01*
X174558486Y-77262204D02*
X174765339Y-77469057D01*
%TO.C,R16*%
X149833820Y-75928241D02*
X150194054Y-75568007D01*
X150572746Y-76667167D02*
X150932980Y-76306933D01*
%TO.C,R46*%
X101704724Y-99477500D02*
X101195276Y-99477500D01*
X101704724Y-100522500D02*
X101195276Y-100522500D01*
%TO.C,R53*%
X147900420Y-61489346D02*
X148260654Y-61849580D01*
X148639346Y-60750420D02*
X148999580Y-61110654D01*
%TO.C,C46*%
X174715000Y-106113747D02*
X174715000Y-106636253D01*
X176185000Y-106113747D02*
X176185000Y-106636253D01*
D13*
%TO.C,RN2*%
X102850000Y-106775000D02*
X104650000Y-106775000D01*
X104650000Y-103375000D02*
X102850000Y-103375000D01*
D14*
X105750000Y-103575000D02*
G75*
G02*
X105550000Y-103575000I-100000J0D01*
G01*
X105550000Y-103575000D02*
G75*
G02*
X105750000Y-103575000I100000J0D01*
G01*
D12*
%TO.C,R9*%
X86160654Y-71349580D02*
X85800420Y-70989346D01*
X86899580Y-70610654D02*
X86539346Y-70250420D01*
%TO.C,R56*%
X101679724Y-101652500D02*
X101170276Y-101652500D01*
X101679724Y-102697500D02*
X101170276Y-102697500D01*
%TO.C,C18*%
X159742854Y-79118359D02*
X159536001Y-79325212D01*
X160464103Y-79839608D02*
X160257250Y-80046461D01*
%TO.C,R10*%
X96104724Y-76327500D02*
X95595276Y-76327500D01*
X96104724Y-77372500D02*
X95595276Y-77372500D01*
%TO.C,R49*%
X89227500Y-100945276D02*
X89227500Y-101454724D01*
X90272500Y-100945276D02*
X90272500Y-101454724D01*
%TO.C,C77*%
X172151247Y-96640000D02*
X172673753Y-96640000D01*
X172151247Y-98110000D02*
X172673753Y-98110000D01*
%TD*%
M02*
