M48
; DRILL file {KiCad 9.0.3} date 2026-04-11T22:56:28-0400
; FORMAT={-:-/ absolute / metric / decimal}
; #@! TF.CreationDate,2026-04-11T22:56:28-04:00
; #@! TF.GenerationSoftware,Kicad,Pcbnew,9.0.3
; #@! TF.FileFunction,Plated,1,4,PTH
FMAT,2
METRIC
; #@! TA.AperFunction,Plated,PTH,ViaDrill
T1C0.400
; #@! TA.AperFunction,Plated,PTH,ComponentDrill
T2C0.813
; #@! TA.AperFunction,Plated,PTH,ComponentDrill
T3C1.000
; #@! TA.AperFunction,Plated,PTH,ComponentDrill
T4C3.200
%
G90
G05
T1
X80.6Y-72.75
X81.15Y-69.75
X81.2Y-61.825
X82.15Y-72.75
X84.525Y-68.575
X84.575Y-80.65
X85.1Y-83.15
X85.4Y-98.5
X85.725Y-90.375
X85.875Y-66.7
X89.0Y-85.55
X89.025Y-87.275
X89.175Y-75.65
X89.25Y-59.7
X89.5Y-82.45
X90.6Y-67.45
X90.725Y-77.225
X90.875Y-63.025
X91.295Y-97.905
X92.075Y-90.775
X92.5Y-64.5
X93.175Y-79.95
X93.175Y-81.25
X93.7Y-73.0
X93.875Y-90.275
X94.125Y-75.6
X94.275Y-84.525
X94.55Y-73.85
X95.85Y-75.125
X96.1Y-89.9
X97.075Y-68.575
X97.925Y-84.425
X97.95Y-58.225
X98.175Y-60.975
X98.3Y-77.0
X99.25Y-67.075
X100.025Y-68.775
X100.425Y-70.7
X100.65Y-85.1
X100.85Y-79.606
X101.046Y-78.254
X101.875Y-70.675
X101.875Y-78.813
X101.95Y-83.9
X102.4Y-69.5
X103.0Y-74.55
X103.325Y-89.025
X103.8Y-95.1
X104.2Y-73.525
X104.725Y-92.85
X105.85Y-72.912
X105.925Y-77.425
X106.15Y-108.85
X106.375Y-101.8
X106.4Y-99.65
X106.4Y-100.7
X106.575Y-110.675
X106.668Y-112.725
X106.7Y-97.675
X106.725Y-108.45
X106.832Y-109.118
X107.025Y-69.775
X108.3Y-74.675
X108.3Y-86.75
X108.47Y-113.573
X108.844Y-112.166
X109.1Y-71.65
X109.325Y-97.55
X109.325Y-99.625
X109.325Y-100.725
X109.35Y-101.875
X109.45Y-108.6
X109.574Y-114.45
X109.775Y-105.825
X110.175Y-84.75
X110.471Y-109.167
X110.875Y-72.375
X111.025Y-110.25
X111.5Y-114.925
X111.762Y-111.029
X112.525Y-111.675
X112.725Y-106.85
X112.925Y-80.85
X113.279Y-112.407
X114.0Y-113.1
X114.526Y-107.665
X115.8Y-90.15
X116.018Y-101.15
X116.812Y-109.387
X117.3Y-66.3
X117.5Y-93.725
X117.525Y-90.85
X117.55Y-104.425
X117.75Y-78.625
X117.9Y-115.325
X118.075Y-114.025
X118.35Y-88.675
X118.875Y-92.825
X119.1Y-97.0
X119.15Y-64.25
X119.2Y-90.825
X120.15Y-81.846
X120.375Y-92.85
X121.475Y-62.35
X121.55Y-110.65
X122.05Y-100.025
X122.7Y-80.2
X123.15Y-77.65
X124.9Y-70.45
X125.182Y-112.832
X125.9Y-113.625
X126.425Y-110.6
X126.525Y-84.8
X126.6Y-98.5
X126.659Y-109.359
X126.675Y-76.225
X126.775Y-68.575
X127.575Y-99.075
X127.798Y-84.352
X128.225Y-89.65
X128.259Y-86.684
X128.6Y-66.85
X128.852Y-80.643
X129.075Y-102.75
X130.744Y-70.514
X131.132Y-80.873
X131.468Y-73.006
X131.525Y-95.875
X132.052Y-81.651
X132.052Y-80.413
X132.776Y-82.694
X133.05Y-77.65
X133.382Y-98.007
X133.425Y-91.7
X133.519Y-68.057
X134.085Y-72.335
X134.314Y-70.302
X134.355Y-89.753
X134.544Y-80.396
X134.825Y-82.6
X135.87Y-65.635
X136.2Y-82.9
X136.275Y-76.825
X136.625Y-90.675
X136.65Y-86.6
X136.775Y-94.85
X137.05Y-79.6
X137.072Y-64.397
X137.325Y-75.35
X137.325Y-78.275
X137.5Y-83.1
X137.6Y-87.15
X138.0Y-81.15
X138.168Y-63.195
X138.187Y-93.799
X138.363Y-72.476
X138.875Y-79.075
X139.25Y-74.2
X139.4Y-81.35
X139.625Y-76.4
X139.65Y-99.925
X140.007Y-70.832
X140.042Y-98.48
X140.431Y-89.995
X140.484Y-63.885
X140.65Y-96.4
X140.709Y-95.309
X140.774Y-73.353
X140.85Y-75.05
X140.9Y-79.2
X141.138Y-100.142
X141.25Y-81.525
X141.525Y-90.8
X141.969Y-60.667
X142.5Y-73.375
X142.52Y-71.616
X142.55Y-69.85
X142.55Y-75.075
X142.6Y-76.65
X142.6Y-80.175
X142.605Y-68.198
X142.625Y-78.55
X142.85Y-86.55
X143.125Y-92.975
X143.325Y-61.925
X143.55Y-87.675
X144.05Y-100.375
X144.275Y-76.225
X144.35Y-86.625
X144.375Y-74.3
X144.475Y-72.3
X144.62Y-69.966
X144.65Y-78.35
X144.775Y-83.1
X144.875Y-101.775
X144.903Y-98.321
X144.925Y-103.175
X144.977Y-94.252
X145.027Y-65.882
X145.15Y-92.725
X145.6Y-75.125
X145.825Y-77.2
X145.982Y-93.954
X146.05Y-91.7
X146.1Y-89.5
X146.2Y-81.825
X146.25Y-73.0
X146.477Y-95.263
X146.575Y-83.05
X146.675Y-71.15
X146.85Y-61.575
X146.875Y-75.6
X147.025Y-70.0
X147.025Y-73.95
X147.307Y-66.147
X147.35Y-80.825
X147.45Y-92.725
X147.525Y-82.25
X147.775Y-91.475
X147.875Y-102.275
X148.496Y-83.696
X148.675Y-90.125
X148.934Y-65.652
X149.225Y-88.725
X149.623Y-69.559
X149.623Y-93.495
X149.694Y-66.342
X149.955Y-82.805
X149.977Y-98.409
X150.016Y-99.099
X150.083Y-100.495
X150.539Y-61.445
X150.794Y-67.217
X151.05Y-82.1
X151.4Y-73.25
X151.488Y-61.132
X151.709Y-92.02
X151.815Y-91.267
X151.815Y-100.495
X151.868Y-98.462
X151.992Y-76.206
X152.325Y-69.725
X152.4Y-65.15
X152.487Y-90.454
X153.23Y-64.397
X154.05Y-60.575
X154.096Y-63.531
X154.177Y-93.997
X154.467Y-71.292
X154.636Y-98.939
X154.925Y-76.175
X154.95Y-110.075
X155.025Y-105.875
X155.262Y-84.249
X155.325Y-80.375
X155.8Y-74.45
X156.023Y-66.801
X156.076Y-72.9
X156.358Y-87.608
X156.375Y-53.4
X156.553Y-91.904
X156.717Y-83.737
X156.756Y-84.753
X156.95Y-69.55
X157.0Y-104.075
X157.066Y-85.84
X157.45Y-114.175
X157.508Y-78.363
X157.543Y-91.692
X157.743Y-85.105
X157.75Y-74.65
X157.825Y-80.275
X157.9Y-68.825
X158.038Y-89.394
X158.111Y-84.154
X158.374Y-66.077
X158.523Y-94.704
X158.604Y-75.171
X158.775Y-109.35
X159.028Y-90.383
X159.134Y-91.656
X159.517Y-84.481
X159.525Y-71.9
X159.629Y-70.478
X160.146Y-72.684
X160.477Y-68.145
X160.707Y-91.674
X160.8Y-103.475
X160.831Y-82.464
X160.85Y-106.6
X160.972Y-96.359
X161.361Y-94.697
X161.768Y-81.81
X161.775Y-67.2
X162.1Y-85.525
X162.263Y-78.734
X162.497Y-109.605
X162.546Y-88.244
X162.758Y-91.745
X162.917Y-79.494
X163.075Y-61.75
X163.96Y-91.674
X163.993Y-84.398
X164.225Y-83.425
X164.5Y-103.175
X164.725Y-81.45
X164.8Y-112.95
X164.875Y-60.825
X165.022Y-62.45
X165.075Y-99.15
X165.325Y-76.8
X165.533Y-88.298
X165.816Y-80.519
X165.875Y-99.525
X166.1Y-83.85
X166.45Y-94.85
X166.475Y-91.35
X166.505Y-73.855
X166.525Y-105.95
X166.775Y-57.85
X166.95Y-109.575
X167.725Y-104.35
X168.15Y-57.025
X168.275Y-98.475
X168.595Y-85.498
X169.225Y-54.25
X169.4Y-114.6
X170.3Y-105.875
X170.7Y-103.825
X170.925Y-99.275
X171.094Y-54.25
X171.125Y-56.175
X171.4Y-84.925
X171.8Y-57.15
X172.0Y-95.075
X172.125Y-65.2
X172.445Y-76.4
X172.463Y-53.987
X172.55Y-62.7
X172.725Y-58.05
X172.725Y-92.55
X172.825Y-64.5
X172.913Y-52.299
X173.345Y-53.201
X173.825Y-105.275
X174.725Y-64.55
X174.875Y-53.775
X174.95Y-114.0
X174.979Y-110.454
X175.025Y-97.375
X175.3Y-103.35
X175.35Y-56.225
X175.605Y-60.831
X176.12Y-61.73
X176.325Y-103.675
X176.55Y-56.55
X176.7Y-66.475
X177.075Y-92.625
X177.15Y-57.9
X177.15Y-108.075
X177.307Y-62.524
X177.625Y-58.775
X178.0Y-107.05
X178.15Y-63.775
X178.45Y-101.025
X178.55Y-103.25
X178.577Y-68.977
X179.05Y-99.75
X179.8Y-104.925
X180.05Y-69.4
X180.575Y-99.2
X180.9Y-95.2
X180.95Y-97.9
X180.975Y-61.775
X180.975Y-66.45
X182.05Y-63.025
X182.6Y-91.55
X182.725Y-102.275
X183.075Y-64.025
X183.075Y-71.875
X183.675Y-69.175
X184.0Y-64.925
X185.1Y-66.0
X185.85Y-91.878
X185.87Y-89.508
X185.875Y-93.925
X186.25Y-67.25
X188.825Y-87.875
X189.85Y-93.375
X196.375Y-89.725
X198.325Y-91.562
X199.075Y-79.275
T2
X100.276Y-87.963
X102.072Y-86.167
X103.868Y-84.37
X105.664Y-82.574
X106.032Y-93.718
X107.46Y-80.778
X107.828Y-91.922
X109.256Y-78.982
X109.624Y-90.126
X111.052Y-77.186
X111.42Y-88.33
X112.848Y-75.39
X113.216Y-86.534
X114.644Y-73.594
X115.012Y-84.738
X116.808Y-82.942
X118.604Y-81.146
X120.4Y-79.35
T3
X77.075Y-76.008
X77.075Y-78.508
X77.075Y-81.008
X77.075Y-83.508
X77.075Y-86.008
X77.075Y-88.508
X84.085Y-75.6
X85.765Y-92.375
X85.765Y-94.915
X86.625Y-75.6
X87.291Y-64.759
X88.305Y-92.375
X88.305Y-94.915
X89.087Y-62.963
X89.087Y-66.555
X90.845Y-94.915
X90.845Y-92.375
X90.883Y-61.167
X90.883Y-64.759
X92.679Y-59.371
X92.679Y-62.963
X93.385Y-92.375
X93.385Y-94.915
X94.475Y-57.575
X94.475Y-61.167
X95.925Y-92.375
X95.925Y-94.915
X96.271Y-59.371
X201.825Y-75.825
X201.825Y-78.325
X201.825Y-80.825
X201.825Y-83.325
X201.825Y-85.825
X201.825Y-88.325
T4
X84.0Y-50.0
X84.0Y-116.0
X99.675Y-110.975
X122.675Y-87.975
X134.0Y-50.0
X142.675Y-110.975
X185.0Y-50.0
X185.0Y-81.0
X195.0Y-50.0
X195.0Y-116.0
M30
