%TF.GenerationSoftware,KiCad,Pcbnew,9.0.3*%
%TF.CreationDate,2026-04-08T11:21:53-04:00*%
%TF.ProjectId,MainTotem_Rev1,4d61696e-546f-4746-956d-5f526576312e,rev?*%
%TF.SameCoordinates,Original*%
%TF.FileFunction,Soldermask,Top*%
%TF.FilePolarity,Negative*%
%FSLAX46Y46*%
G04 Gerber Fmt 4.6, Leading zero omitted, Abs format (unit mm)*
G04 Created by KiCad (PCBNEW 9.0.3) date 2026-04-08 11:21:53*
%MOMM*%
%LPD*%
G01*
G04 APERTURE LIST*
G04 Aperture macros list*
%AMRoundRect*
0 Rectangle with rounded corners*
0 $1 Rounding radius*
0 $2 $3 $4 $5 $6 $7 $8 $9 X,Y pos of 4 corners*
0 Add a 4 corners polygon primitive as box body*
4,1,4,$2,$3,$4,$5,$6,$7,$8,$9,$2,$3,0*
0 Add four circle primitives for the rounded corners*
1,1,$1+$1,$2,$3*
1,1,$1+$1,$4,$5*
1,1,$1+$1,$6,$7*
1,1,$1+$1,$8,$9*
0 Add four rect primitives between the rounded corners*
20,1,$1+$1,$2,$3,$4,$5,0*
20,1,$1+$1,$4,$5,$6,$7,0*
20,1,$1+$1,$6,$7,$8,$9,0*
20,1,$1+$1,$8,$9,$2,$3,0*%
%AMRotRect*
0 Rectangle, with rotation*
0 The origin of the aperture is its center*
0 $1 length*
0 $2 width*
0 $3 Rotation angle, in degrees counterclockwise*
0 Add horizontal line*
21,1,$1,$2,0,0,$3*%
%AMFreePoly0*
4,1,83,0.769509,1.988079,0.805557,1.973147,0.807331,1.971372,0.808779,1.970902,0.811374,1.967329,0.833147,1.945557,0.841043,1.926493,0.845106,1.920902,0.846186,1.914076,0.848079,1.909509,0.850000,1.890000,0.850000,0.610410,0.896704,0.579204,0.937999,0.517401,0.952500,0.444500,0.952500,-0.444500,0.937999,-0.517401,0.896704,-0.579204,0.856408,-0.606128,0.861990,-0.636407,
0.853841,-0.674565,0.849267,-0.682838,0.848079,-0.694909,0.833147,-0.730957,0.831743,-0.732360,0.831368,-0.733531,0.410200,-1.323051,0.410200,-3.450000,0.408279,-3.469509,0.393347,-3.505557,0.391572,-3.507331,0.391102,-3.508779,0.387529,-3.511374,0.365757,-3.533147,0.346693,-3.541043,0.341102,-3.545106,0.334276,-3.546186,0.329709,-3.548079,0.310200,-3.550000,-0.350200,-3.550000,
-0.369709,-3.548079,-0.405757,-3.533147,-0.407531,-3.531372,-0.408979,-3.530902,-0.411574,-3.527329,-0.433347,-3.505557,-0.441243,-3.486493,-0.445306,-3.480902,-0.446386,-3.474076,-0.448279,-3.469509,-0.450200,-3.450000,-0.450200,-1.323640,-0.880743,-0.734396,-0.882230,-0.731873,-0.883147,-0.730957,-0.884033,-0.728815,-0.890701,-0.717511,-0.893515,-0.705926,-0.898079,-0.694909,-0.899365,-0.681845,
-0.899912,-0.679595,-0.899712,-0.678315,-0.900000,-0.675400,-0.900000,-0.574271,-0.937999,-0.517401,-0.952500,-0.444500,-0.952500,0.444500,-0.937999,0.517401,-0.900000,0.574271,-0.900000,1.890000,-0.898079,1.909509,-0.883147,1.945557,-0.881372,1.947331,-0.880902,1.948779,-0.877329,1.951374,-0.855557,1.973147,-0.836493,1.981043,-0.830902,1.985106,-0.824076,1.986186,-0.819509,1.988079,
-0.800000,1.990000,0.750000,1.990000,0.769509,1.988079,0.769509,1.988079,$1*%
G04 Aperture macros list end*
%ADD10C,0.100000*%
%ADD11R,0.584200X1.244600*%
%ADD12FreePoly0,0.000000*%
%ADD13R,1.244600X0.584200*%
%ADD14FreePoly0,90.000000*%
%ADD15C,6.400000*%
%ADD16C,3.600000*%
%ADD17RoundRect,0.237500X-0.250000X-0.237500X0.250000X-0.237500X0.250000X0.237500X-0.250000X0.237500X0*%
%ADD18RoundRect,0.088000X-0.173241X-0.546594X0.546594X0.173241X0.173241X0.546594X-0.546594X-0.173241X0*%
%ADD19RoundRect,0.237500X-0.044194X-0.380070X0.380070X0.044194X0.044194X0.380070X-0.380070X-0.044194X0*%
%ADD20RoundRect,0.250000X0.565685X0.070711X0.070711X0.565685X-0.565685X-0.070711X-0.070711X-0.565685X0*%
%ADD21RoundRect,0.150000X-0.587500X-0.150000X0.587500X-0.150000X0.587500X0.150000X-0.587500X0.150000X0*%
%ADD22RoundRect,0.250000X-0.525000X-0.400000X0.525000X-0.400000X0.525000X0.400000X-0.525000X0.400000X0*%
%ADD23RoundRect,0.237500X0.008839X0.344715X-0.344715X-0.008839X-0.008839X-0.344715X0.344715X0.008839X0*%
%ADD24R,1.000000X1.000000*%
%ADD25RoundRect,0.237500X0.044194X0.380070X-0.380070X-0.044194X-0.044194X-0.380070X0.380070X0.044194X0*%
%ADD26RoundRect,0.250000X-0.350000X-0.450000X0.350000X-0.450000X0.350000X0.450000X-0.350000X0.450000X0*%
%ADD27RoundRect,0.102000X-0.360624X-0.226274X-0.226274X-0.360624X0.360624X0.226274X0.226274X0.360624X0*%
%ADD28RoundRect,0.102000X-0.364160X-0.222739X-0.222739X-0.364160X0.364160X0.222739X0.222739X0.364160X0*%
%ADD29RoundRect,0.102000X-0.364160X-0.229810X-0.229810X-0.364160X0.364160X0.229810X0.229810X0.364160X0*%
%ADD30RoundRect,0.237500X-0.237500X0.300000X-0.237500X-0.300000X0.237500X-0.300000X0.237500X0.300000X0*%
%ADD31RoundRect,0.102000X0.425000X1.000000X-0.425000X1.000000X-0.425000X-1.000000X0.425000X-1.000000X0*%
%ADD32RoundRect,0.250000X-0.475000X0.337500X-0.475000X-0.337500X0.475000X-0.337500X0.475000X0.337500X0*%
%ADD33RoundRect,0.237500X-0.300000X-0.237500X0.300000X-0.237500X0.300000X0.237500X-0.300000X0.237500X0*%
%ADD34RotRect,1.300001X0.299998X135.000000*%
%ADD35RotRect,1.300001X0.300000X135.000000*%
%ADD36RotRect,1.300001X0.300002X135.000000*%
%ADD37RotRect,1.310001X0.299998X135.000000*%
%ADD38RotRect,1.310001X0.300000X135.000000*%
%ADD39RotRect,1.310001X0.300001X135.000000*%
%ADD40RotRect,1.320001X0.299999X225.000000*%
%ADD41RotRect,1.320001X0.300000X225.000000*%
%ADD42RotRect,1.320001X0.300001X225.000000*%
%ADD43RotRect,1.320001X0.299998X225.000000*%
%ADD44RotRect,1.320001X0.299996X225.000000*%
%ADD45RotRect,1.320001X0.300000X135.000000*%
%ADD46RotRect,1.320001X0.300001X135.000000*%
%ADD47RotRect,1.320001X0.299999X135.000000*%
%ADD48RotRect,1.320001X0.299998X135.000000*%
%ADD49RotRect,1.320001X0.299996X135.000000*%
%ADD50RotRect,1.310001X0.299996X135.000000*%
%ADD51RoundRect,0.237500X0.237500X-0.300000X0.237500X0.300000X-0.237500X0.300000X-0.237500X-0.300000X0*%
%ADD52R,1.700000X1.700000*%
%ADD53C,1.700000*%
%ADD54RoundRect,0.102000X0.754000X-0.754000X0.754000X0.754000X-0.754000X0.754000X-0.754000X-0.754000X0*%
%ADD55C,1.712000*%
%ADD56R,0.228600X1.412800*%
%ADD57RoundRect,0.250000X-0.337500X-0.475000X0.337500X-0.475000X0.337500X0.475000X-0.337500X0.475000X0*%
%ADD58RoundRect,0.237500X0.250000X0.237500X-0.250000X0.237500X-0.250000X-0.237500X0.250000X-0.237500X0*%
%ADD59RoundRect,0.250000X0.400000X-0.525000X0.400000X0.525000X-0.400000X0.525000X-0.400000X-0.525000X0*%
%ADD60RoundRect,0.237500X0.237500X-0.250000X0.237500X0.250000X-0.237500X0.250000X-0.237500X-0.250000X0*%
%ADD61RoundRect,0.237500X-0.008839X-0.344715X0.344715X0.008839X0.008839X0.344715X-0.344715X-0.008839X0*%
%ADD62RoundRect,0.091750X-0.155563X-0.544826X0.544826X0.155563X0.155563X0.544826X-0.544826X-0.155563X0*%
%ADD63RoundRect,0.237500X-0.344715X0.008839X0.008839X-0.344715X0.344715X-0.008839X-0.008839X0.344715X0*%
%ADD64RotRect,1.320800X1.320800X315.000000*%
%ADD65C,1.320800*%
%ADD66RoundRect,0.102000X-0.550000X-0.950000X0.550000X-0.950000X0.550000X0.950000X-0.550000X0.950000X0*%
%ADD67R,1.412800X0.228600*%
%ADD68RoundRect,0.102000X0.600000X-0.425000X0.600000X0.425000X-0.600000X0.425000X-0.600000X-0.425000X0*%
%ADD69RoundRect,0.237500X0.380070X-0.044194X-0.044194X0.380070X-0.380070X0.044194X0.044194X-0.380070X0*%
%ADD70RoundRect,0.237500X-0.380070X0.044194X0.044194X-0.380070X0.380070X-0.044194X-0.044194X0.380070X0*%
%ADD71RoundRect,0.250000X0.350000X0.450000X-0.350000X0.450000X-0.350000X-0.450000X0.350000X-0.450000X0*%
%ADD72RoundRect,0.102000X-0.754000X0.754000X-0.754000X-0.754000X0.754000X-0.754000X0.754000X0.754000X0*%
%ADD73RoundRect,0.250000X-0.574524X-0.097227X-0.097227X-0.574524X0.574524X0.097227X0.097227X0.574524X0*%
%ADD74RoundRect,0.237500X-0.237500X0.250000X-0.237500X-0.250000X0.237500X-0.250000X0.237500X0.250000X0*%
%ADD75RoundRect,0.250000X-1.075000X0.400000X-1.075000X-0.400000X1.075000X-0.400000X1.075000X0.400000X0*%
%ADD76RoundRect,0.237500X0.344715X-0.008839X-0.008839X0.344715X-0.344715X0.008839X0.008839X-0.344715X0*%
%ADD77RoundRect,0.102000X-0.335876X-0.201525X-0.201525X-0.335876X0.335876X0.201525X0.201525X0.335876X0*%
%ADD78RoundRect,0.102000X-0.332340X-0.197990X-0.197990X-0.332340X0.332340X0.197990X0.197990X0.332340X0*%
%ADD79RotRect,1.700000X1.700000X135.000000*%
%ADD80RoundRect,0.250000X0.337500X0.475000X-0.337500X0.475000X-0.337500X-0.475000X0.337500X-0.475000X0*%
%ADD81RoundRect,0.091750X-0.275250X0.495250X-0.275250X-0.495250X0.275250X-0.495250X0.275250X0.495250X0*%
%ADD82O,1.649999X0.650001*%
%ADD83RotRect,0.508000X1.778000X45.000000*%
%ADD84RotRect,0.508000X1.778000X315.000000*%
G04 APERTURE END LIST*
D10*
X148950000Y-67125000D02*
X150600000Y-69000000D01*
X151675000Y-70800000D01*
X153225000Y-70775000D01*
X155025000Y-72875000D01*
X154875000Y-73675000D01*
X154800000Y-74950000D01*
X156350000Y-75825000D01*
X154300000Y-77700000D01*
X153075000Y-75425000D01*
X152425000Y-74825000D01*
X150900000Y-75000000D01*
X150925000Y-76475000D01*
X152625000Y-79175000D01*
X151025000Y-80850000D01*
X148700000Y-82000000D01*
X147200000Y-83600000D01*
X147875000Y-84925000D01*
X146800000Y-87050000D01*
X144825000Y-87675000D01*
X145175000Y-91100000D01*
X143975000Y-91475000D01*
X141375000Y-88775000D01*
X140750000Y-86975000D01*
X140425000Y-83900000D01*
X139225000Y-82500000D01*
X136600000Y-81100000D01*
X135600000Y-76800000D01*
X137575000Y-73975000D01*
X139875000Y-72375000D01*
X141650000Y-69750000D01*
X143825000Y-68725000D01*
X145775000Y-66900000D01*
X148950000Y-67125000D01*
G36*
X148950000Y-67125000D02*
G01*
X150600000Y-69000000D01*
X151675000Y-70800000D01*
X153225000Y-70775000D01*
X155025000Y-72875000D01*
X154875000Y-73675000D01*
X154800000Y-74950000D01*
X156350000Y-75825000D01*
X154300000Y-77700000D01*
X153075000Y-75425000D01*
X152425000Y-74825000D01*
X150900000Y-75000000D01*
X150925000Y-76475000D01*
X152625000Y-79175000D01*
X151025000Y-80850000D01*
X148700000Y-82000000D01*
X147200000Y-83600000D01*
X147875000Y-84925000D01*
X146800000Y-87050000D01*
X144825000Y-87675000D01*
X145175000Y-91100000D01*
X143975000Y-91475000D01*
X141375000Y-88775000D01*
X140750000Y-86975000D01*
X140425000Y-83900000D01*
X139225000Y-82500000D01*
X136600000Y-81100000D01*
X135600000Y-76800000D01*
X137575000Y-73975000D01*
X139875000Y-72375000D01*
X141650000Y-69750000D01*
X143825000Y-68725000D01*
X145775000Y-66900000D01*
X148950000Y-67125000D01*
G37*
D11*
%TO.C,U5*%
X184350000Y-92335400D03*
D12*
X185870000Y-89507700D03*
D11*
X187350000Y-92335400D03*
X187350000Y-88500000D03*
X184350000Y-88500000D03*
%TD*%
D13*
%TO.C,U6*%
X165325000Y-111125000D03*
D14*
X162497300Y-109605000D03*
D13*
X165325000Y-108125000D03*
X161489600Y-108125000D03*
X161489600Y-111125000D03*
%TD*%
D15*
%TO.C,H5*%
X185000000Y-50000000D03*
D16*
X185000000Y-50000000D03*
%TD*%
D17*
%TO.C,R22*%
X118812500Y-66300000D03*
X120637500Y-66300000D03*
%TD*%
D18*
%TO.C,D4*%
X166929487Y-89826274D03*
X167848726Y-90745513D03*
X168760894Y-88914106D03*
%TD*%
D19*
%TO.C,C11*%
X158294158Y-70328151D03*
X159513918Y-69108391D03*
%TD*%
D20*
%TO.C,D3*%
X124907107Y-68632107D03*
X123492893Y-67217893D03*
%TD*%
D21*
%TO.C,D1*%
X81225000Y-78750000D03*
X81225000Y-80650000D03*
X83100000Y-79700000D03*
%TD*%
D22*
%TO.C,H7RST*%
X170800000Y-88075000D03*
X178760000Y-88075000D03*
X170800000Y-92575000D03*
X178760000Y-92575000D03*
%TD*%
D23*
%TO.C,R26*%
X115295235Y-101904765D03*
X114004765Y-103195235D03*
%TD*%
%TO.C,R24*%
X124590470Y-114234530D03*
X123300000Y-115525000D03*
%TD*%
D24*
%TO.C,3V3SoC*%
X173400000Y-106950000D03*
%TD*%
D25*
%TO.C,C73*%
X165009880Y-100865120D03*
X163790120Y-102084880D03*
%TD*%
%TO.C,C28*%
X142357739Y-97224723D03*
X141137979Y-98444483D03*
%TD*%
D23*
%TO.C,R41*%
X138020235Y-95504765D03*
X136729765Y-96795235D03*
%TD*%
%TO.C,R40*%
X139690470Y-102309530D03*
X138400000Y-103600000D03*
%TD*%
D26*
%TO.C,RS485*%
X81150000Y-68300000D03*
X83150000Y-68300000D03*
%TD*%
D27*
%TO.C,J5*%
X185392426Y-68525503D03*
X183122614Y-70795315D03*
X185109584Y-68242660D03*
X182839771Y-70512473D03*
X184826741Y-67959817D03*
X182556928Y-70229630D03*
X184543898Y-67676974D03*
X182274085Y-69946787D03*
X184261055Y-67394132D03*
X181991243Y-69663944D03*
X183978213Y-67111289D03*
X181708400Y-69381102D03*
X183695370Y-66828446D03*
X181425557Y-69098259D03*
X183412527Y-66545604D03*
X181142715Y-68815416D03*
X183129685Y-66262761D03*
X180859872Y-68532574D03*
X182846842Y-65979918D03*
X180577029Y-68249731D03*
X182563999Y-65697075D03*
X180294186Y-67966888D03*
X182281156Y-65414233D03*
X180011344Y-67684045D03*
X181998314Y-65131390D03*
X179728501Y-67401203D03*
X181715471Y-64848547D03*
X179445658Y-67118360D03*
X181432628Y-64565705D03*
X179162816Y-66835517D03*
X181149786Y-64282862D03*
X178879973Y-66552675D03*
X180866943Y-64000019D03*
X178597130Y-66269832D03*
X180584100Y-63717176D03*
X178314287Y-65986989D03*
X180301257Y-63434334D03*
X178031445Y-65704146D03*
X180018415Y-63151491D03*
D28*
X177752138Y-65424839D03*
D27*
X179735572Y-62868648D03*
D29*
X177462224Y-65141997D03*
D27*
X179452729Y-62585806D03*
X177182917Y-64855618D03*
X179169887Y-62302963D03*
D28*
X176903609Y-64576311D03*
D27*
X178887044Y-62020120D03*
X176617231Y-64289933D03*
X178604201Y-61737277D03*
X176334388Y-64007090D03*
X178321358Y-61454435D03*
X176051546Y-63724247D03*
X178038516Y-61171592D03*
X175768703Y-63441405D03*
X177755673Y-60888749D03*
X175485860Y-63158562D03*
X177472830Y-60605907D03*
X175203018Y-62875719D03*
X177189988Y-60323064D03*
X174920175Y-62592877D03*
X176907145Y-60040221D03*
X174637332Y-62310034D03*
X176624302Y-59757378D03*
X174354489Y-62027191D03*
X176341460Y-59474536D03*
X174071647Y-61744349D03*
X176058617Y-59191693D03*
X173788804Y-61461506D03*
X175775774Y-58908850D03*
X173505961Y-61178663D03*
X175492931Y-58626008D03*
X173223119Y-60895820D03*
X175210089Y-58343165D03*
X172940276Y-60612978D03*
X174927246Y-58060322D03*
X172657433Y-60330135D03*
X174644403Y-57777479D03*
X172374590Y-60047292D03*
X174361561Y-57494637D03*
X172091748Y-59764450D03*
X174078718Y-57211794D03*
X171808905Y-59481607D03*
X173795875Y-56928951D03*
X171526062Y-59198764D03*
X173513032Y-56646109D03*
X171243220Y-58915921D03*
X173230190Y-56363266D03*
X170960377Y-58633079D03*
X172947347Y-56080423D03*
X170677534Y-58350236D03*
X172664504Y-55797580D03*
X170394691Y-58067393D03*
X172381662Y-55514738D03*
X170111849Y-57784551D03*
X172098819Y-55231895D03*
X169829006Y-57501708D03*
X171815976Y-54949052D03*
X169546163Y-57218865D03*
X171533133Y-54666210D03*
X169263321Y-56936022D03*
%TD*%
D26*
%TO.C,UH_OH*%
X81175000Y-64650000D03*
X83175000Y-64650000D03*
%TD*%
D30*
%TO.C,C35*%
X182225000Y-88287499D03*
X182225000Y-90012501D03*
%TD*%
D31*
%TO.C,L1*%
X157996625Y-96376196D03*
X156346625Y-96376196D03*
%TD*%
D32*
%TO.C,C33*%
X190125000Y-89762500D03*
X190125000Y-91837500D03*
%TD*%
D33*
%TO.C,C55*%
X155637374Y-92911373D03*
X157362376Y-92911373D03*
%TD*%
%TO.C,C44*%
X177662500Y-98050000D03*
X179387500Y-98050000D03*
%TD*%
D26*
%TO.C,3V3HPSoC*%
X173575000Y-95025000D03*
X175575000Y-95025000D03*
%TD*%
D34*
%TO.C,U1*%
X148668665Y-97065626D03*
D35*
X149022219Y-96712073D03*
X149375772Y-96358519D03*
D36*
X149729325Y-96004967D03*
D35*
X150082879Y-95651412D03*
D37*
X150439968Y-95301395D03*
D38*
X150793521Y-94947841D03*
X151147074Y-94594288D03*
X151500626Y-94240736D03*
X151854181Y-93887181D03*
X152207735Y-93533628D03*
X152561288Y-93180074D03*
D37*
X152914841Y-92826521D03*
D38*
X153268393Y-92472969D03*
X153621948Y-92119414D03*
D37*
X153975502Y-91765860D03*
D38*
X154329055Y-91412307D03*
D35*
X154679073Y-91055218D03*
D38*
X155036160Y-90705202D03*
X155389715Y-90351647D03*
D37*
X155743269Y-89998094D03*
D38*
X156096822Y-89644540D03*
X156450375Y-89290987D03*
X156803927Y-88937435D03*
X157157482Y-88583880D03*
X157511035Y-88230328D03*
X157864590Y-87876773D03*
X158218142Y-87523220D03*
X158571695Y-87169667D03*
X158925249Y-86816113D03*
D39*
X159278802Y-86462561D03*
D38*
X159632357Y-86109006D03*
X159985909Y-85755453D03*
D39*
X160339462Y-85401900D03*
D38*
X160693016Y-85048346D03*
X161046569Y-84694794D03*
X161400121Y-84341241D03*
X161753676Y-83987686D03*
X162107229Y-83634133D03*
X162460783Y-83280579D03*
D39*
X162814336Y-82927027D03*
D38*
X163167888Y-82573474D03*
X163521443Y-82219919D03*
X163874996Y-81866366D03*
D40*
X163878532Y-78532359D03*
D41*
X163524979Y-78178805D03*
X163171426Y-77825253D03*
D42*
X162817871Y-77471698D03*
D41*
X162464319Y-77118145D03*
X162110766Y-76764592D03*
X161757212Y-76411038D03*
D40*
X161403658Y-76057485D03*
D41*
X161050104Y-75703931D03*
X160696552Y-75350378D03*
X160342999Y-74996826D03*
X159989445Y-74643271D03*
X159635892Y-74289719D03*
D42*
X159282337Y-73936164D03*
D41*
X158928785Y-73582611D03*
X158575232Y-73229059D03*
X158221678Y-72875504D03*
X157868125Y-72521952D03*
X157514572Y-72168399D03*
X157161018Y-71814844D03*
D40*
X156807464Y-71461291D03*
D41*
X156453911Y-71107738D03*
X156100357Y-70754184D03*
D43*
X155746805Y-70400631D03*
D41*
X155393251Y-70047077D03*
D43*
X155039699Y-69693525D03*
X154686144Y-69339971D03*
D41*
X154332591Y-68986417D03*
D44*
X153979039Y-68632865D03*
D41*
X153625484Y-68279310D03*
D44*
X153271932Y-67925759D03*
D41*
X152918376Y-67572203D03*
X152564824Y-67218650D03*
D43*
X152211272Y-66865098D03*
D41*
X151857717Y-66511543D03*
D44*
X151504165Y-66157991D03*
D41*
X151150609Y-65804436D03*
X150797057Y-65450883D03*
D43*
X150443504Y-65097331D03*
D41*
X150089950Y-64743776D03*
X149736397Y-64390224D03*
X149382842Y-64036669D03*
X149029290Y-63683116D03*
D43*
X148675738Y-63329564D03*
D45*
X145338194Y-63329562D03*
X144984640Y-63683116D03*
X144631088Y-64036669D03*
D46*
X144277533Y-64390224D03*
D45*
X143923980Y-64743776D03*
X143570427Y-65097329D03*
X143216873Y-65450883D03*
X142863321Y-65804436D03*
D46*
X142509766Y-66157991D03*
D45*
X142156213Y-66511543D03*
X141802661Y-66865096D03*
X141449106Y-67218650D03*
D47*
X141095553Y-67572204D03*
D45*
X140741999Y-67925758D03*
X140388446Y-68279310D03*
X140034894Y-68632863D03*
X139681339Y-68986417D03*
X139327787Y-69339970D03*
X138974234Y-69693523D03*
X138620679Y-70047077D03*
X138267127Y-70400630D03*
X137913573Y-70754184D03*
X137560019Y-71107738D03*
X137206467Y-71461289D03*
X136852912Y-71814844D03*
D48*
X136499360Y-72168396D03*
D35*
X136152877Y-72529022D03*
D38*
X135795788Y-72879040D03*
D49*
X135438700Y-73229056D03*
D45*
X135085145Y-73582611D03*
D48*
X134731593Y-73936163D03*
D45*
X134378038Y-74289719D03*
X134024485Y-74643271D03*
D49*
X133670933Y-74996823D03*
D45*
X133317378Y-75350378D03*
D48*
X132963826Y-75703931D03*
D45*
X132610272Y-76057485D03*
D38*
X132260254Y-76414574D03*
D50*
X131906702Y-76768126D03*
D38*
X131553147Y-77121681D03*
D37*
X131199595Y-77475233D03*
D38*
X130846040Y-77828788D03*
X130492487Y-78182341D03*
D37*
X130138934Y-78535894D03*
D43*
X130135398Y-81869901D03*
D41*
X130488951Y-82223455D03*
X130842504Y-82577007D03*
D42*
X131196059Y-82930562D03*
D41*
X131549611Y-83284115D03*
D40*
X131903165Y-83637668D03*
D41*
X132256718Y-83991222D03*
D40*
X132610272Y-84344775D03*
D41*
X132963826Y-84698329D03*
X133317378Y-85051882D03*
D40*
X133670932Y-85405435D03*
D41*
X134024485Y-85758989D03*
X134378038Y-86112541D03*
D42*
X134731593Y-86466096D03*
D41*
X135085145Y-86819649D03*
X135438698Y-87173201D03*
X135792252Y-87526756D03*
X136145805Y-87880308D03*
X136499358Y-88233861D03*
X136852912Y-88587416D03*
X137206465Y-88940968D03*
X137560019Y-89294522D03*
X137913573Y-89648076D03*
X138267124Y-90001628D03*
X138620679Y-90355183D03*
D43*
X138974231Y-90708735D03*
X139327785Y-91062289D03*
D41*
X139681339Y-91415843D03*
X140034892Y-91769396D03*
X140388446Y-92122950D03*
D40*
X140741998Y-92476502D03*
D41*
X141095554Y-92830057D03*
X141449106Y-93183610D03*
D44*
X141802658Y-93537162D03*
D41*
X142156213Y-93890717D03*
D43*
X142509766Y-94244269D03*
D44*
X142863319Y-94597822D03*
D41*
X143216873Y-94951377D03*
D44*
X143570425Y-95304928D03*
D41*
X143923980Y-95658484D03*
X144277533Y-96012036D03*
D44*
X144631086Y-96365589D03*
D41*
X144984640Y-96719144D03*
D43*
X145338193Y-97072696D03*
%TD*%
D51*
%TO.C,C38*%
X159225000Y-107837501D03*
X159225000Y-106112499D03*
%TD*%
D17*
%TO.C,R21*%
X167437500Y-97250000D03*
X169262500Y-97250000D03*
%TD*%
D52*
%TO.C,JP1*%
X86625000Y-75600000D03*
D53*
X84085000Y-75600000D03*
%TD*%
D19*
%TO.C,C15*%
X165648068Y-82737875D03*
X166867828Y-81518115D03*
%TD*%
D54*
%TO.C,J1*%
X201825000Y-88325000D03*
D55*
X201825000Y-85825000D03*
X201825000Y-83325000D03*
X201825000Y-80825000D03*
X201825000Y-78325000D03*
X201825000Y-75825000D03*
%TD*%
D23*
%TO.C,R36*%
X134320235Y-93829765D03*
X133029765Y-95120235D03*
%TD*%
D56*
%TO.C,U7*%
X176199998Y-102100000D03*
X176699999Y-102100000D03*
X177199999Y-102100000D03*
X177700000Y-102100000D03*
X177700000Y-99799998D03*
X177199999Y-99799998D03*
X176699999Y-99799998D03*
X176199998Y-99799998D03*
%TD*%
D57*
%TO.C,C58*%
X159033263Y-93335637D03*
X161108263Y-93335637D03*
%TD*%
D30*
%TO.C,C62*%
X153105761Y-95761184D03*
X153105761Y-97486186D03*
%TD*%
D19*
%TO.C,C12*%
X164440120Y-76309880D03*
X165659880Y-75090120D03*
%TD*%
%TO.C,C9*%
X151490120Y-62334880D03*
X152709880Y-61115120D03*
%TD*%
D58*
%TO.C,R11*%
X179512500Y-94875000D03*
X177687500Y-94875000D03*
%TD*%
D59*
%TO.C,USER*%
X150475000Y-111960000D03*
X150475000Y-104000000D03*
X154975000Y-111960000D03*
X154975000Y-104000000D03*
%TD*%
D60*
%TO.C,R3*%
X99500000Y-79837500D03*
X99500000Y-78012500D03*
%TD*%
D61*
%TO.C,R23*%
X126629765Y-112145235D03*
X127920235Y-110854765D03*
%TD*%
D16*
%TO.C,H2*%
X195000000Y-50000000D03*
D15*
X195000000Y-50000000D03*
%TD*%
D62*
%TO.C,RN4*%
X148325000Y-58750000D03*
X148890686Y-59315686D03*
X149456371Y-59881371D03*
X150022057Y-60447057D03*
X151259494Y-59209620D03*
X150693808Y-58643934D03*
X150128123Y-58078249D03*
X149562437Y-57512563D03*
%TD*%
D33*
%TO.C,C26*%
X164937500Y-85175000D03*
X166662500Y-85175000D03*
%TD*%
D23*
%TO.C,R25*%
X116570235Y-105429765D03*
X115279765Y-106720235D03*
%TD*%
D24*
%TO.C,3V3*%
X158850000Y-101425000D03*
%TD*%
D63*
%TO.C,R13*%
X180054765Y-100804765D03*
X181345235Y-102095235D03*
%TD*%
D64*
%TO.C,SW1*%
X114644152Y-73594152D03*
D65*
X112848101Y-75390203D03*
X111052050Y-77186254D03*
X109255998Y-78982306D03*
X107459947Y-80778357D03*
X105663896Y-82574408D03*
X103867845Y-84370459D03*
X102071793Y-86166511D03*
X100275742Y-87962562D03*
X106031591Y-93718410D03*
X107827642Y-91922359D03*
X109623693Y-90126308D03*
X111419744Y-88330257D03*
X113215796Y-86534205D03*
X115011847Y-84738154D03*
X116807898Y-82942103D03*
X118603949Y-81146052D03*
X120400000Y-79350000D03*
%TD*%
D33*
%TO.C,C56*%
X155548985Y-94378620D03*
X157273987Y-94378620D03*
%TD*%
D61*
%TO.C,R54*%
X161429765Y-72370235D03*
X162720235Y-71079765D03*
%TD*%
D66*
%TO.C,RTC1*%
X153287654Y-100035475D03*
X155787652Y-100035475D03*
%TD*%
D67*
%TO.C,U11*%
X167199998Y-99374998D03*
X167199998Y-99874999D03*
X167199998Y-100374999D03*
X167199998Y-100875000D03*
X169500000Y-100875000D03*
X169500000Y-100374999D03*
X169500000Y-99874999D03*
X169500000Y-99374998D03*
%TD*%
D20*
%TO.C,D6*%
X128557107Y-64782107D03*
X127142893Y-63367893D03*
%TD*%
D60*
%TO.C,R2*%
X99450000Y-83787500D03*
X99450000Y-81962500D03*
%TD*%
D68*
%TO.C,MainClock1*%
X162704736Y-90452095D03*
X164328736Y-90452095D03*
X164328736Y-89252095D03*
X162704736Y-89252095D03*
%TD*%
D30*
%TO.C,C23*%
X198325000Y-88399998D03*
X198325000Y-90125000D03*
%TD*%
D33*
%TO.C,C59*%
X162637730Y-87113099D03*
X164362732Y-87113099D03*
%TD*%
D30*
%TO.C,C61*%
X154767462Y-96079382D03*
X154767462Y-97804384D03*
%TD*%
D16*
%TO.C,H11*%
X142675000Y-110975000D03*
D15*
X142675000Y-110975000D03*
%TD*%
D69*
%TO.C,C31*%
X139219952Y-66580486D03*
X138000192Y-65360726D03*
%TD*%
D25*
%TO.C,C3*%
X135383899Y-89738231D03*
X134164139Y-90957991D03*
%TD*%
D70*
%TO.C,C41*%
X175640120Y-105015120D03*
X176859880Y-106234880D03*
%TD*%
D23*
%TO.C,R29*%
X114845235Y-91104765D03*
X113554765Y-92395235D03*
%TD*%
D17*
%TO.C,R19*%
X165900000Y-102650000D03*
X167725000Y-102650000D03*
%TD*%
D71*
%TO.C,3V3HSSoC*%
X173425000Y-114050000D03*
X171425000Y-114050000D03*
%TD*%
D19*
%TO.C,C10*%
X156208193Y-68242186D03*
X157427953Y-67022426D03*
%TD*%
%TO.C,C49*%
X152584270Y-63592959D03*
X153804030Y-62373199D03*
%TD*%
D26*
%TO.C,PROG*%
X90675000Y-75625000D03*
X92675000Y-75625000D03*
%TD*%
D72*
%TO.C,J2*%
X77075000Y-76008250D03*
D55*
X77075000Y-78508250D03*
X77075000Y-81008250D03*
X77075000Y-83508250D03*
X77075000Y-86008250D03*
X77075000Y-88508250D03*
%TD*%
D19*
%TO.C,C27*%
X96240120Y-63559880D03*
X97459880Y-62340120D03*
%TD*%
D16*
%TO.C,H7*%
X185000000Y-81000000D03*
D15*
X185000000Y-81000000D03*
%TD*%
D33*
%TO.C,C43*%
X179037500Y-96475000D03*
X180762500Y-96475000D03*
%TD*%
D17*
%TO.C,R12*%
X169262500Y-110750000D03*
X171087500Y-110750000D03*
%TD*%
D33*
%TO.C,C39*%
X161387500Y-113225000D03*
X163112500Y-113225000D03*
%TD*%
D73*
%TO.C,C36*%
X181141377Y-93316377D03*
X182608623Y-94783623D03*
%TD*%
D16*
%TO.C,H8*%
X134000000Y-50000000D03*
D15*
X134000000Y-50000000D03*
%TD*%
D24*
%TO.C,GND*%
X173400000Y-110525000D03*
%TD*%
D69*
%TO.C,C29*%
X128383542Y-82614131D03*
X127163782Y-81394371D03*
%TD*%
D30*
%TO.C,C60*%
X160866258Y-88460305D03*
X160866258Y-90185307D03*
%TD*%
D70*
%TO.C,C1*%
X145106616Y-99584694D03*
X146326376Y-100804454D03*
%TD*%
D17*
%TO.C,R18*%
X120587500Y-64250000D03*
X122412500Y-64250000D03*
%TD*%
D23*
%TO.C,R27*%
X118170235Y-97879765D03*
X116879765Y-99170235D03*
%TD*%
%TO.C,R33*%
X130145235Y-92354765D03*
X128854765Y-93645235D03*
%TD*%
%TO.C,R32*%
X121245235Y-101229765D03*
X119954765Y-102520235D03*
%TD*%
D69*
%TO.C,C6*%
X135666741Y-70204407D03*
X134446981Y-68984647D03*
%TD*%
D25*
%TO.C,C74*%
X172625000Y-103775000D03*
X171405240Y-104994760D03*
%TD*%
D16*
%TO.C,H1*%
X84000000Y-50000000D03*
D15*
X84000000Y-50000000D03*
%TD*%
D30*
%TO.C,C51*%
X151090508Y-97458239D03*
X151090508Y-99183241D03*
%TD*%
D25*
%TO.C,C48*%
X129072971Y-84346542D03*
X127853211Y-85566302D03*
%TD*%
D74*
%TO.C,R20*%
X169275000Y-102662500D03*
X169275000Y-104487500D03*
%TD*%
D23*
%TO.C,R30*%
X130420235Y-87329765D03*
X129129765Y-88620235D03*
%TD*%
D69*
%TO.C,C52*%
X137947160Y-67782566D03*
X136727400Y-66562806D03*
%TD*%
D75*
%TO.C,R1*%
X87275000Y-78499999D03*
X87275000Y-81600001D03*
%TD*%
D16*
%TO.C,H9*%
X99675000Y-110975000D03*
D15*
X99675000Y-110975000D03*
%TD*%
D23*
%TO.C,R37*%
X135370235Y-95854765D03*
X134079765Y-97145235D03*
%TD*%
%TO.C,R38*%
X138670235Y-100804765D03*
X137379765Y-102095235D03*
%TD*%
D17*
%TO.C,R17*%
X122887500Y-62325000D03*
X124712500Y-62325000D03*
%TD*%
D76*
%TO.C,R14*%
X180895235Y-104095235D03*
X179604765Y-102804765D03*
%TD*%
D16*
%TO.C,H10*%
X122675000Y-87975000D03*
D15*
X122675000Y-87975000D03*
%TD*%
D23*
%TO.C,R45*%
X140595235Y-104279765D03*
X139304765Y-105570235D03*
%TD*%
D33*
%TO.C,C25*%
X91062499Y-84875000D03*
X92787501Y-84875000D03*
%TD*%
D23*
%TO.C,R44*%
X120295235Y-111879765D03*
X119004765Y-113170235D03*
%TD*%
D69*
%TO.C,C8*%
X142684775Y-63080306D03*
X141465015Y-61860546D03*
%TD*%
D23*
%TO.C,R28*%
X116570235Y-92779765D03*
X115279765Y-94070235D03*
%TD*%
D33*
%TO.C,C34*%
X187412499Y-86350000D03*
X189137501Y-86350000D03*
%TD*%
D61*
%TO.C,R6*%
X123379765Y-79295235D03*
X124670235Y-78004765D03*
%TD*%
D32*
%TO.C,C57*%
X159805598Y-95321020D03*
X159805598Y-97396020D03*
%TD*%
D57*
%TO.C,C40*%
X167262500Y-112875000D03*
X169337500Y-112875000D03*
%TD*%
D30*
%TO.C,C75*%
X171125000Y-100862499D03*
X171125000Y-102587501D03*
%TD*%
D23*
%TO.C,R34*%
X128345235Y-95529765D03*
X127054765Y-96820235D03*
%TD*%
D25*
%TO.C,C47*%
X143586337Y-98471000D03*
X142366577Y-99690760D03*
%TD*%
D60*
%TO.C,R15*%
X174350000Y-101812500D03*
X174350000Y-99987500D03*
%TD*%
D52*
%TO.C,H7_UART/SWD1*%
X95925000Y-92375000D03*
D53*
X95925000Y-94915000D03*
X93385000Y-92375000D03*
X93385000Y-94915000D03*
X90845001Y-92375000D03*
X90845000Y-94915000D03*
X88305000Y-92375000D03*
X88305000Y-94915000D03*
X85765000Y-92375000D03*
X85765000Y-94915000D03*
%TD*%
D70*
%TO.C,C42*%
X177365120Y-104515120D03*
X178584880Y-105734880D03*
%TD*%
D16*
%TO.C,H4*%
X195000000Y-116000000D03*
D15*
X195000000Y-116000000D03*
%TD*%
D23*
%TO.C,R31*%
X126595235Y-100004765D03*
X125304765Y-101295235D03*
%TD*%
%TO.C,R5*%
X170120235Y-85504765D03*
X168829765Y-86795235D03*
%TD*%
D77*
%TO.C,J6*%
X110018666Y-106901240D03*
D78*
X107801887Y-109118020D03*
D77*
X110301509Y-107184083D03*
D78*
X108084729Y-109400863D03*
D77*
X110584352Y-107466925D03*
D78*
X108367572Y-109683705D03*
D77*
X110867194Y-107749768D03*
D78*
X108650415Y-109966548D03*
D77*
X111150037Y-108032611D03*
D78*
X108933257Y-110249391D03*
D77*
X111432880Y-108315454D03*
D78*
X109216100Y-110532233D03*
D77*
X111715723Y-108598296D03*
D78*
X109498943Y-110815076D03*
D77*
X111998565Y-108881139D03*
D78*
X109781786Y-111097919D03*
D77*
X112281408Y-109163982D03*
D78*
X110064628Y-111380762D03*
D77*
X112564251Y-109446824D03*
D78*
X110347471Y-111663604D03*
D77*
X112847093Y-109729667D03*
D78*
X110630314Y-111946447D03*
D77*
X113129936Y-110012510D03*
D78*
X110913156Y-112229290D03*
D77*
X113412779Y-110295353D03*
D78*
X111195999Y-112512132D03*
D77*
X113695622Y-110578195D03*
D78*
X111478842Y-112794975D03*
D77*
X113978464Y-110861038D03*
D78*
X111761685Y-113077818D03*
D77*
X114261307Y-111143881D03*
D78*
X112044527Y-113360660D03*
D77*
X114544150Y-111426723D03*
D78*
X112327370Y-113643503D03*
D77*
X114826992Y-111709566D03*
D78*
X112610213Y-113926346D03*
D77*
X115109835Y-111992409D03*
D78*
X112893055Y-114209189D03*
D77*
X115392678Y-112275252D03*
D78*
X113175898Y-114492031D03*
%TD*%
D20*
%TO.C,D2*%
X126707107Y-66657107D03*
X125292893Y-65242893D03*
%TD*%
D16*
%TO.C,H3*%
X84000000Y-116000000D03*
D15*
X84000000Y-116000000D03*
%TD*%
D79*
%TO.C,J3*%
X89086846Y-66555256D03*
D53*
X87290795Y-64759205D03*
X90882897Y-64759205D03*
X89086846Y-62963154D03*
X92678948Y-62963154D03*
X90882897Y-61167102D03*
X94475000Y-61167102D03*
X92678948Y-59371051D03*
X96271051Y-59371051D03*
X94475000Y-57575000D03*
%TD*%
D80*
%TO.C,C24*%
X88862500Y-84050000D03*
X86787500Y-84050000D03*
%TD*%
D81*
%TO.C,RN1*%
X146075000Y-57400000D03*
X145274999Y-57400000D03*
X144474999Y-57400000D03*
X143674998Y-57400000D03*
X143674998Y-59150000D03*
X144474999Y-59150000D03*
X145274999Y-59150000D03*
X146075000Y-59150000D03*
%TD*%
D25*
%TO.C,C2*%
X138194648Y-92513624D03*
X136974888Y-93733384D03*
%TD*%
D57*
%TO.C,C37*%
X162662500Y-105425000D03*
X164737500Y-105425000D03*
%TD*%
D25*
%TO.C,C72*%
X162809880Y-100790120D03*
X161590120Y-102009880D03*
%TD*%
D82*
%TO.C,U3*%
X96975000Y-82525000D03*
X96975000Y-81255000D03*
X96975000Y-79985000D03*
X96975000Y-78715000D03*
X91325001Y-78715000D03*
X91325001Y-79985000D03*
X91325001Y-81255000D03*
X91325001Y-82525000D03*
%TD*%
D51*
%TO.C,C64*%
X80625000Y-75837501D03*
X80625000Y-74112499D03*
%TD*%
D69*
%TO.C,C54*%
X132732248Y-72962124D03*
X131512488Y-71742364D03*
%TD*%
D83*
%TO.C,U4*%
X98543748Y-64474156D03*
X97978064Y-65039840D03*
X97412378Y-65605526D03*
X96846692Y-66171212D03*
X96281008Y-66736896D03*
X95715322Y-67302582D03*
X95149637Y-67868267D03*
X94583952Y-68433952D03*
D84*
X94583952Y-70365204D03*
X95149636Y-70930888D03*
X95715322Y-71496574D03*
X96281008Y-72062260D03*
X96846692Y-72627944D03*
X97412378Y-73193630D03*
X97978063Y-73759315D03*
X98543748Y-74325000D03*
D83*
X100475000Y-74325000D03*
X101040684Y-73759316D03*
X101606370Y-73193630D03*
X102172056Y-72627944D03*
X102737740Y-72062260D03*
X103303426Y-71496574D03*
X103869111Y-70930889D03*
X104434796Y-70365204D03*
D84*
X104434796Y-68433952D03*
X103869112Y-67868268D03*
X103303426Y-67302582D03*
X102737740Y-66736896D03*
X102172056Y-66171212D03*
X101606370Y-65605526D03*
X101040685Y-65039841D03*
X100475000Y-64474156D03*
%TD*%
D30*
%TO.C,C16*%
X148951510Y-99597237D03*
X148951510Y-101322239D03*
%TD*%
D69*
%TO.C,C7*%
X140369002Y-65396081D03*
X139149242Y-64176321D03*
%TD*%
D23*
%TO.C,R35*%
X131720235Y-93754765D03*
X130429765Y-95045235D03*
%TD*%
M02*
