%TF.GenerationSoftware,KiCad,Pcbnew,9.0.3*%
%TF.CreationDate,2026-04-11T21:11:07-04:00*%
%TF.ProjectId,TouchScreenModule_Rev1,546f7563-6853-4637-9265-656e4d6f6475,rev?*%
%TF.SameCoordinates,Original*%
%TF.FileFunction,Copper,L3,Inr*%
%TF.FilePolarity,Positive*%
%FSLAX46Y46*%
G04 Gerber Fmt 4.6, Leading zero omitted, Abs format (unit mm)*
G04 Created by KiCad (PCBNEW 9.0.3) date 2026-04-11 21:11:07*
%MOMM*%
%LPD*%
G01*
G04 APERTURE LIST*
G04 Aperture macros list*
%AMRoundRect*
0 Rectangle with rounded corners*
0 $1 Rounding radius*
0 $2 $3 $4 $5 $6 $7 $8 $9 X,Y pos of 4 corners*
0 Add a 4 corners polygon primitive as box body*
4,1,4,$2,$3,$4,$5,$6,$7,$8,$9,$2,$3,0*
0 Add four circle primitives for the rounded corners*
1,1,$1+$1,$2,$3*
1,1,$1+$1,$4,$5*
1,1,$1+$1,$6,$7*
1,1,$1+$1,$8,$9*
0 Add four rect primitives between the rounded corners*
20,1,$1+$1,$2,$3,$4,$5,0*
20,1,$1+$1,$4,$5,$6,$7,0*
20,1,$1+$1,$6,$7,$8,$9,0*
20,1,$1+$1,$8,$9,$2,$3,0*%
G04 Aperture macros list end*
%TA.AperFunction,ComponentPad*%
%ADD10C,3.600000*%
%TD*%
%TA.AperFunction,ComponentPad*%
%ADD11R,1.700000X1.700000*%
%TD*%
%TA.AperFunction,ComponentPad*%
%ADD12C,1.700000*%
%TD*%
%TA.AperFunction,ComponentPad*%
%ADD13RoundRect,0.250000X1.050000X1.050000X-1.050000X1.050000X-1.050000X-1.050000X1.050000X-1.050000X0*%
%TD*%
%TA.AperFunction,ComponentPad*%
%ADD14C,2.600000*%
%TD*%
%TA.AperFunction,ComponentPad*%
%ADD15RoundRect,0.250000X0.000000X0.777817X-0.777817X0.000000X0.000000X-0.777817X0.777817X0.000000X0*%
%TD*%
%TA.AperFunction,ComponentPad*%
%ADD16C,1.600000*%
%TD*%
%TA.AperFunction,ViaPad*%
%ADD17C,0.800000*%
%TD*%
%TA.AperFunction,Conductor*%
%ADD18C,0.500000*%
%TD*%
%TA.AperFunction,Conductor*%
%ADD19C,0.300000*%
%TD*%
%TA.AperFunction,Conductor*%
%ADD20C,0.254000*%
%TD*%
%TA.AperFunction,Conductor*%
%ADD21C,0.127000*%
%TD*%
G04 APERTURE END LIST*
D10*
%TO.N,N/C*%
%TO.C,H1*%
X185000000Y-50000000D03*
%TD*%
%TO.N,N/C*%
%TO.C,H3*%
X185000000Y-81000000D03*
%TD*%
D11*
%TO.N,+5V*%
%TO.C,J1*%
X159310000Y-50600000D03*
D12*
%TO.N,+3V3*%
X159310000Y-48060000D03*
%TO.N,GND*%
X161850000Y-50600000D03*
%TO.N,Net-(J1-Pin_12)*%
X161850000Y-48060000D03*
%TO.N,Net-(J1-Pin_5)*%
X164389999Y-50600000D03*
%TO.N,Net-(J1-Pin_13)*%
X164390000Y-48060000D03*
%TO.N,Net-(J1-Pin_7)*%
X166930000Y-50600000D03*
%TO.N,Net-(J1-Pin_8)*%
X166930000Y-48060000D03*
%TO.N,Net-(J1-Pin_9)*%
X169470000Y-50600000D03*
%TO.N,Net-(J1-Pin_10)*%
X169470000Y-48060000D03*
X172010000Y-50600000D03*
%TO.N,Net-(J1-Pin_12)*%
X172010000Y-48060000D03*
%TO.N,Net-(J1-Pin_13)*%
X174550000Y-50600000D03*
%TO.N,Net-(J1-Pin_14)*%
X174550000Y-48060000D03*
%TD*%
D11*
%TO.N,/Motors/PWM_01*%
%TO.C,J4*%
X186715000Y-61355000D03*
D12*
%TO.N,+5V*%
X184175000Y-61355000D03*
%TO.N,GND*%
X186715000Y-58815000D03*
X184175000Y-58815000D03*
%TO.N,+5V*%
X186715000Y-56275001D03*
%TO.N,/Motors/PWM_01*%
X184175000Y-56275000D03*
%TD*%
D13*
%TO.N,+12V*%
%TO.C,J3*%
X146629999Y-51150000D03*
D14*
%TO.N,GND*%
X141550000Y-51150000D03*
%TD*%
D15*
%TO.N,+12V*%
%TO.C,C6*%
X152028677Y-59316117D03*
D16*
%TO.N,GND*%
X150260910Y-61083884D03*
%TD*%
D10*
%TO.N,N/C*%
%TO.C,H2*%
X134000000Y-50000000D03*
%TD*%
D17*
%TO.N,+5V*%
X156825000Y-50875000D03*
X167150000Y-69850000D03*
X154875000Y-52625000D03*
X187525000Y-53925000D03*
X182075000Y-71500000D03*
X155775000Y-52900000D03*
X156650000Y-52700000D03*
X181950000Y-59800000D03*
X168550000Y-57925000D03*
%TO.N,GND*%
X154975000Y-58050000D03*
X186300000Y-67500000D03*
X153225000Y-56725000D03*
X173575000Y-54950000D03*
X183525000Y-64650000D03*
X175075000Y-56400000D03*
X180650000Y-61900000D03*
X152000000Y-63575000D03*
X151700000Y-62225000D03*
X184950000Y-66075000D03*
X176505236Y-57483371D03*
X171550000Y-60950000D03*
X184825000Y-71575000D03*
X186000000Y-70325000D03*
X180225000Y-69675000D03*
X178900000Y-68200000D03*
X181500000Y-63100000D03*
X165475000Y-71475000D03*
X182075000Y-58100000D03*
X176900000Y-58225000D03*
X161000000Y-52900000D03*
X179443941Y-60768941D03*
X172850000Y-62400000D03*
X167900000Y-56300000D03*
X170925000Y-53350000D03*
X183675000Y-69100000D03*
X156075000Y-59350000D03*
X159375000Y-63225000D03*
%TO.N,Net-(J1-Pin_7)*%
X174261918Y-59513082D03*
X176924418Y-62175582D03*
%TO.N,Net-(J1-Pin_13)*%
X177842882Y-58821017D03*
%TO.N,Net-(J1-Pin_10)*%
X178739207Y-57650000D03*
%TO.N,Net-(J1-Pin_8)*%
X177775000Y-63150000D03*
%TO.N,Net-(J1-Pin_14)*%
X180700000Y-60725000D03*
%TO.N,+3V3*%
X175523358Y-57293853D03*
X169625000Y-61175000D03*
X172150000Y-53300000D03*
%TO.N,Net-(J1-Pin_9)*%
X169625000Y-52950000D03*
X179825000Y-58425000D03*
%TO.N,/Motors/PWM_01*%
X170475000Y-59825000D03*
%TD*%
D18*
%TO.N,+5V*%
X186715000Y-56275001D02*
X186715000Y-54735000D01*
X186715000Y-54735000D02*
X187525000Y-53925000D01*
X183505000Y-61355000D02*
X181950000Y-59800000D01*
X184175000Y-61355000D02*
X183505000Y-61355000D01*
%TO.N,GND*%
X184175000Y-58815000D02*
X182790000Y-58815000D01*
X184175000Y-58815000D02*
X186715000Y-58815000D01*
X182790000Y-58815000D02*
X182075000Y-58100000D01*
D19*
%TO.N,Net-(J1-Pin_10)*%
X169470000Y-48060000D02*
X172010000Y-50600000D01*
X178739207Y-57650000D02*
X178739207Y-57114207D01*
X172225000Y-50600000D02*
X172010000Y-50600000D01*
X178739207Y-57114207D02*
X172225000Y-50600000D01*
D20*
%TO.N,Net-(J1-Pin_8)*%
X177775000Y-63150000D02*
X176869288Y-63150000D01*
X176869288Y-63150000D02*
X165752000Y-52032712D01*
X165752000Y-49238000D02*
X166930000Y-48060000D01*
X165752000Y-52032712D02*
X165752000Y-49238000D01*
D21*
%TO.N,+3V3*%
X175523358Y-57293853D02*
X175739500Y-57077711D01*
X175739500Y-55689500D02*
X173125000Y-53075000D01*
X175739500Y-57077711D02*
X175739500Y-55689500D01*
X173125000Y-53075000D02*
X172375000Y-53075000D01*
X172375000Y-53075000D02*
X172150000Y-53300000D01*
%TD*%
%TA.AperFunction,Conductor*%
%TO.N,+5V*%
G36*
X185594818Y-59585185D02*
G01*
X185628097Y-59616615D01*
X185684892Y-59694788D01*
X185798430Y-59808326D01*
X185831915Y-59869649D01*
X185826931Y-59939341D01*
X185785059Y-59995274D01*
X185754083Y-60012189D01*
X185622669Y-60061203D01*
X185622664Y-60061206D01*
X185507455Y-60147452D01*
X185507452Y-60147455D01*
X185421206Y-60262664D01*
X185421202Y-60262671D01*
X185370908Y-60397517D01*
X185364501Y-60457116D01*
X185364501Y-60457123D01*
X185364500Y-60457135D01*
X185364500Y-60467690D01*
X185344815Y-60534729D01*
X185328181Y-60555371D01*
X184657962Y-61225590D01*
X184640925Y-61162007D01*
X184575099Y-61047993D01*
X184482007Y-60954901D01*
X184367993Y-60889075D01*
X184304409Y-60872037D01*
X184936716Y-60239728D01*
X184882547Y-60200373D01*
X184882547Y-60200372D01*
X184873500Y-60195763D01*
X184822706Y-60147788D01*
X184805912Y-60079966D01*
X184828451Y-60013832D01*
X184873508Y-59974793D01*
X184882816Y-59970051D01*
X185008599Y-59878665D01*
X185054786Y-59845109D01*
X185054788Y-59845106D01*
X185054792Y-59845104D01*
X185205104Y-59694792D01*
X185205110Y-59694784D01*
X185261903Y-59616615D01*
X185266234Y-59613274D01*
X185268508Y-59608297D01*
X185293610Y-59592164D01*
X185317233Y-59573949D01*
X185323904Y-59572696D01*
X185327286Y-59570523D01*
X185362221Y-59565500D01*
X185527779Y-59565500D01*
X185594818Y-59585185D01*
G37*
%TD.AperFunction*%
%TA.AperFunction,Conductor*%
G36*
X186249075Y-56467994D02*
G01*
X186314901Y-56582008D01*
X186407993Y-56675100D01*
X186522007Y-56740926D01*
X186585590Y-56757963D01*
X185953282Y-57390270D01*
X185953282Y-57390271D01*
X186007449Y-57429625D01*
X186016491Y-57434232D01*
X186067289Y-57482205D01*
X186084086Y-57550026D01*
X186061551Y-57616161D01*
X186016501Y-57655201D01*
X186007181Y-57659950D01*
X185835213Y-57784890D01*
X185684892Y-57935211D01*
X185628097Y-58013385D01*
X185623765Y-58016725D01*
X185621492Y-58021703D01*
X185596389Y-58037835D01*
X185572767Y-58056051D01*
X185566095Y-58057303D01*
X185562714Y-58059477D01*
X185527779Y-58064500D01*
X185362221Y-58064500D01*
X185295182Y-58044815D01*
X185261903Y-58013385D01*
X185205107Y-57935211D01*
X185054786Y-57784890D01*
X184882820Y-57659951D01*
X184882115Y-57659591D01*
X184874054Y-57655485D01*
X184823259Y-57607512D01*
X184806463Y-57539692D01*
X184828999Y-57473556D01*
X184874054Y-57434515D01*
X184882816Y-57430051D01*
X184905431Y-57413620D01*
X185054786Y-57305109D01*
X185054788Y-57305106D01*
X185054792Y-57305104D01*
X185205104Y-57154792D01*
X185205106Y-57154788D01*
X185205109Y-57154786D01*
X185317958Y-56999461D01*
X185330051Y-56982816D01*
X185334794Y-56973506D01*
X185382766Y-56922710D01*
X185450587Y-56905913D01*
X185516722Y-56928448D01*
X185555763Y-56973501D01*
X185560373Y-56982548D01*
X185599728Y-57036717D01*
X186232037Y-56404409D01*
X186249075Y-56467994D01*
G37*
%TD.AperFunction*%
%TA.AperFunction,Conductor*%
G36*
X185002910Y-45932615D02*
G01*
X185363311Y-45949277D01*
X185374701Y-45950333D01*
X185729240Y-45999789D01*
X185740484Y-46001891D01*
X186088946Y-46083848D01*
X186099936Y-46086975D01*
X186439362Y-46200739D01*
X186450029Y-46204872D01*
X186777495Y-46349462D01*
X186787748Y-46354567D01*
X187100457Y-46528745D01*
X187110195Y-46534774D01*
X187365264Y-46709500D01*
X187405512Y-46737070D01*
X187414649Y-46743970D01*
X187568206Y-46871481D01*
X187690048Y-46972656D01*
X187698512Y-46980373D01*
X187951620Y-47233481D01*
X187959336Y-47241945D01*
X188091062Y-47400576D01*
X188188018Y-47517334D01*
X188194908Y-47526457D01*
X188397220Y-47821794D01*
X188403241Y-47831519D01*
X188577427Y-48144241D01*
X188582532Y-48154493D01*
X188727119Y-48481949D01*
X188731257Y-48492629D01*
X188845015Y-48832033D01*
X188848149Y-48843050D01*
X188930103Y-49191490D01*
X188932208Y-49202748D01*
X188981663Y-49557275D01*
X188982720Y-49568679D01*
X188999368Y-49928715D01*
X188999500Y-49934412D01*
X188999500Y-49997875D01*
X188999515Y-49997934D01*
X188999518Y-50006128D01*
X188999516Y-50006133D01*
X188999518Y-50006159D01*
X188999518Y-80925936D01*
X188999500Y-80926215D01*
X188999500Y-80997128D01*
X188999368Y-81002855D01*
X188982703Y-81363303D01*
X188981646Y-81374707D01*
X188932192Y-81729231D01*
X188930087Y-81740490D01*
X188848135Y-82088931D01*
X188845001Y-82099947D01*
X188731243Y-82439355D01*
X188727105Y-82450035D01*
X188582523Y-82777482D01*
X188577418Y-82787735D01*
X188403234Y-83100452D01*
X188397205Y-83110190D01*
X188194906Y-83405512D01*
X188188003Y-83414652D01*
X187959328Y-83690035D01*
X187951612Y-83698499D01*
X187698499Y-83951612D01*
X187690035Y-83959328D01*
X187414652Y-84188003D01*
X187405512Y-84194906D01*
X187110190Y-84397205D01*
X187100452Y-84403234D01*
X186787735Y-84577418D01*
X186777482Y-84582523D01*
X186450035Y-84727105D01*
X186439355Y-84731243D01*
X186099947Y-84845001D01*
X186088931Y-84848135D01*
X185740490Y-84930087D01*
X185729231Y-84932192D01*
X185374707Y-84981646D01*
X185363303Y-84982703D01*
X185005483Y-84999246D01*
X184994498Y-84999266D01*
X184666361Y-84985339D01*
X184655882Y-84984448D01*
X184329859Y-84942734D01*
X184319493Y-84940958D01*
X183998191Y-84871771D01*
X183988014Y-84869124D01*
X183673703Y-84772953D01*
X183663786Y-84769452D01*
X183358773Y-84647001D01*
X183349205Y-84642680D01*
X183055637Y-84494809D01*
X183046473Y-84489695D01*
X182809806Y-84344123D01*
X182808977Y-84343609D01*
X182800217Y-84338125D01*
X182798344Y-84336165D01*
X182754022Y-84309207D01*
X182753312Y-84308763D01*
X182753242Y-84308685D01*
X182749722Y-84306428D01*
X182707416Y-84277865D01*
X182702145Y-84275234D01*
X182684642Y-84267009D01*
X177232757Y-80951101D01*
X177065253Y-80849223D01*
X182699500Y-80849223D01*
X182699500Y-81150776D01*
X182699501Y-81150793D01*
X182738861Y-81449766D01*
X182816913Y-81741060D01*
X182932314Y-82019661D01*
X182932318Y-82019671D01*
X183083099Y-82280831D01*
X183266679Y-82520078D01*
X183266685Y-82520085D01*
X183479914Y-82733314D01*
X183479921Y-82733320D01*
X183719168Y-82916900D01*
X183980328Y-83067681D01*
X183980329Y-83067681D01*
X183980332Y-83067683D01*
X184166072Y-83144619D01*
X184258939Y-83183086D01*
X184258940Y-83183086D01*
X184258942Y-83183087D01*
X184550232Y-83261138D01*
X184849217Y-83300500D01*
X184849224Y-83300500D01*
X185150776Y-83300500D01*
X185150783Y-83300500D01*
X185449768Y-83261138D01*
X185741058Y-83183087D01*
X186019668Y-83067683D01*
X186280832Y-82916900D01*
X186520080Y-82733319D01*
X186733319Y-82520080D01*
X186916900Y-82280832D01*
X187067683Y-82019668D01*
X187183087Y-81741058D01*
X187261138Y-81449768D01*
X187300500Y-81150783D01*
X187300500Y-80849217D01*
X187261138Y-80550232D01*
X187183087Y-80258942D01*
X187067683Y-79980332D01*
X186916900Y-79719168D01*
X186733319Y-79479920D01*
X186733314Y-79479914D01*
X186520085Y-79266685D01*
X186520078Y-79266679D01*
X186280831Y-79083099D01*
X186019671Y-78932318D01*
X186019661Y-78932314D01*
X185741060Y-78816913D01*
X185449766Y-78738861D01*
X185150793Y-78699501D01*
X185150788Y-78699500D01*
X185150783Y-78699500D01*
X184849217Y-78699500D01*
X184849211Y-78699500D01*
X184849206Y-78699501D01*
X184550233Y-78738861D01*
X184258939Y-78816913D01*
X183980338Y-78932314D01*
X183980328Y-78932318D01*
X183719168Y-79083099D01*
X183479921Y-79266679D01*
X183479914Y-79266685D01*
X183266685Y-79479914D01*
X183266679Y-79479921D01*
X183083099Y-79719168D01*
X182932318Y-79980328D01*
X182932314Y-79980338D01*
X182816913Y-80258939D01*
X182738861Y-80550233D01*
X182699501Y-80849206D01*
X182699500Y-80849223D01*
X177065253Y-80849223D01*
X161670875Y-71486160D01*
X161506696Y-71386304D01*
X164574500Y-71386304D01*
X164574500Y-71563695D01*
X164609103Y-71737658D01*
X164609106Y-71737667D01*
X164676983Y-71901540D01*
X164676990Y-71901553D01*
X164775535Y-72049034D01*
X164775538Y-72049038D01*
X164900961Y-72174461D01*
X164900965Y-72174464D01*
X165048446Y-72273009D01*
X165048459Y-72273016D01*
X165171363Y-72323923D01*
X165212334Y-72340894D01*
X165212336Y-72340894D01*
X165212341Y-72340896D01*
X165386304Y-72375499D01*
X165386307Y-72375500D01*
X165386309Y-72375500D01*
X165563693Y-72375500D01*
X165563694Y-72375499D01*
X165621682Y-72363964D01*
X165737658Y-72340896D01*
X165737661Y-72340894D01*
X165737666Y-72340894D01*
X165901547Y-72273013D01*
X166049035Y-72174464D01*
X166174464Y-72049035D01*
X166273013Y-71901547D01*
X166340894Y-71737666D01*
X166375500Y-71563691D01*
X166375500Y-71486304D01*
X183924500Y-71486304D01*
X183924500Y-71663695D01*
X183959103Y-71837658D01*
X183959106Y-71837667D01*
X184026983Y-72001540D01*
X184026990Y-72001553D01*
X184125535Y-72149034D01*
X184125538Y-72149038D01*
X184250961Y-72274461D01*
X184250965Y-72274464D01*
X184398446Y-72373009D01*
X184398459Y-72373016D01*
X184521363Y-72423923D01*
X184562334Y-72440894D01*
X184562336Y-72440894D01*
X184562341Y-72440896D01*
X184736304Y-72475499D01*
X184736307Y-72475500D01*
X184736309Y-72475500D01*
X184913693Y-72475500D01*
X184913694Y-72475499D01*
X184971682Y-72463964D01*
X185087658Y-72440896D01*
X185087661Y-72440894D01*
X185087666Y-72440894D01*
X185251547Y-72373013D01*
X185399035Y-72274464D01*
X185524464Y-72149035D01*
X185623013Y-72001547D01*
X185690894Y-71837666D01*
X185725500Y-71663691D01*
X185725500Y-71486309D01*
X185725500Y-71486306D01*
X185725499Y-71486304D01*
X185700035Y-71358286D01*
X185706262Y-71288695D01*
X185749125Y-71233518D01*
X185815015Y-71210273D01*
X185845843Y-71212477D01*
X185860892Y-71215471D01*
X185911307Y-71225500D01*
X185911309Y-71225500D01*
X186088693Y-71225500D01*
X186088694Y-71225499D01*
X186165242Y-71210273D01*
X186262658Y-71190896D01*
X186262661Y-71190894D01*
X186262666Y-71190894D01*
X186426547Y-71123013D01*
X186574035Y-71024464D01*
X186699464Y-70899035D01*
X186798013Y-70751547D01*
X186865894Y-70587666D01*
X186868315Y-70575499D01*
X186900499Y-70413695D01*
X186900500Y-70413693D01*
X186900500Y-70236306D01*
X186900499Y-70236304D01*
X186865896Y-70062341D01*
X186865893Y-70062332D01*
X186798016Y-69898459D01*
X186798009Y-69898446D01*
X186699464Y-69750965D01*
X186699461Y-69750961D01*
X186574038Y-69625538D01*
X186574034Y-69625535D01*
X186426553Y-69526990D01*
X186426540Y-69526983D01*
X186262667Y-69459106D01*
X186262658Y-69459103D01*
X186088694Y-69424500D01*
X186088691Y-69424500D01*
X185911309Y-69424500D01*
X185911306Y-69424500D01*
X185737341Y-69459103D01*
X185737332Y-69459106D01*
X185573459Y-69526983D01*
X185573446Y-69526990D01*
X185425965Y-69625535D01*
X185425961Y-69625538D01*
X185300538Y-69750961D01*
X185300535Y-69750965D01*
X185201990Y-69898446D01*
X185201983Y-69898459D01*
X185134106Y-70062332D01*
X185134103Y-70062341D01*
X185099500Y-70236304D01*
X185099500Y-70413695D01*
X185124964Y-70541713D01*
X185118737Y-70611305D01*
X185075873Y-70666482D01*
X185009984Y-70689726D01*
X184979156Y-70687521D01*
X184913695Y-70674500D01*
X184913691Y-70674500D01*
X184736309Y-70674500D01*
X184736306Y-70674500D01*
X184562341Y-70709103D01*
X184562332Y-70709106D01*
X184398459Y-70776983D01*
X184398446Y-70776990D01*
X184250965Y-70875535D01*
X184250961Y-70875538D01*
X184125538Y-71000961D01*
X184125535Y-71000965D01*
X184026990Y-71148446D01*
X184026983Y-71148459D01*
X183959106Y-71312332D01*
X183959103Y-71312341D01*
X183924500Y-71486304D01*
X166375500Y-71486304D01*
X166375500Y-71386309D01*
X166375500Y-71386306D01*
X166375499Y-71386304D01*
X166340896Y-71212341D01*
X166340893Y-71212332D01*
X166273016Y-71048459D01*
X166273009Y-71048446D01*
X166174464Y-70900965D01*
X166174461Y-70900961D01*
X166049038Y-70775538D01*
X166049034Y-70775535D01*
X165901553Y-70676990D01*
X165901540Y-70676983D01*
X165737667Y-70609106D01*
X165737658Y-70609103D01*
X165563694Y-70574500D01*
X165563691Y-70574500D01*
X165386309Y-70574500D01*
X165386306Y-70574500D01*
X165212341Y-70609103D01*
X165212332Y-70609106D01*
X165048459Y-70676983D01*
X165048446Y-70676990D01*
X164900965Y-70775535D01*
X164900961Y-70775538D01*
X164775538Y-70900961D01*
X164775535Y-70900965D01*
X164676990Y-71048446D01*
X164676983Y-71048459D01*
X164609106Y-71212332D01*
X164609103Y-71212341D01*
X164574500Y-71386304D01*
X161506696Y-71386304D01*
X156286249Y-68211160D01*
X156122070Y-68111304D01*
X177999500Y-68111304D01*
X177999500Y-68288695D01*
X178034103Y-68462658D01*
X178034106Y-68462667D01*
X178101983Y-68626540D01*
X178101990Y-68626553D01*
X178200535Y-68774034D01*
X178200538Y-68774038D01*
X178325961Y-68899461D01*
X178325965Y-68899464D01*
X178473446Y-68998009D01*
X178473459Y-68998016D01*
X178538333Y-69024887D01*
X178637334Y-69065894D01*
X178637336Y-69065894D01*
X178637341Y-69065896D01*
X178811304Y-69100499D01*
X178811307Y-69100500D01*
X178811309Y-69100500D01*
X178988693Y-69100500D01*
X178988694Y-69100499D01*
X179066735Y-69084976D01*
X179162658Y-69065896D01*
X179162661Y-69065894D01*
X179162666Y-69065894D01*
X179294455Y-69011306D01*
X179319143Y-69001080D01*
X179388612Y-68993611D01*
X179451091Y-69024887D01*
X179486743Y-69084976D01*
X179484249Y-69154801D01*
X179469697Y-69184532D01*
X179426990Y-69248446D01*
X179426983Y-69248459D01*
X179359106Y-69412332D01*
X179359103Y-69412341D01*
X179324500Y-69586304D01*
X179324500Y-69763695D01*
X179359103Y-69937658D01*
X179359106Y-69937667D01*
X179426983Y-70101540D01*
X179426990Y-70101553D01*
X179525535Y-70249034D01*
X179525538Y-70249038D01*
X179650961Y-70374461D01*
X179650965Y-70374464D01*
X179798446Y-70473009D01*
X179798459Y-70473016D01*
X179921363Y-70523923D01*
X179962334Y-70540894D01*
X179962336Y-70540894D01*
X179962341Y-70540896D01*
X180136304Y-70575499D01*
X180136307Y-70575500D01*
X180136309Y-70575500D01*
X180313693Y-70575500D01*
X180313694Y-70575499D01*
X180371682Y-70563964D01*
X180487658Y-70540896D01*
X180487661Y-70540894D01*
X180487666Y-70540894D01*
X180651547Y-70473013D01*
X180799035Y-70374464D01*
X180924464Y-70249035D01*
X181023013Y-70101547D01*
X181090894Y-69937666D01*
X181098696Y-69898446D01*
X181125499Y-69763695D01*
X181125500Y-69763693D01*
X181125500Y-69586306D01*
X181125499Y-69586304D01*
X181090896Y-69412341D01*
X181090893Y-69412332D01*
X181023016Y-69248459D01*
X181023009Y-69248446D01*
X180924464Y-69100965D01*
X180924461Y-69100961D01*
X180834804Y-69011304D01*
X182774500Y-69011304D01*
X182774500Y-69188695D01*
X182809103Y-69362658D01*
X182809106Y-69362667D01*
X182876983Y-69526540D01*
X182876990Y-69526553D01*
X182975535Y-69674034D01*
X182975538Y-69674038D01*
X183100961Y-69799461D01*
X183100965Y-69799464D01*
X183248446Y-69898009D01*
X183248459Y-69898016D01*
X183344185Y-69937666D01*
X183412334Y-69965894D01*
X183412336Y-69965894D01*
X183412341Y-69965896D01*
X183586304Y-70000499D01*
X183586307Y-70000500D01*
X183586309Y-70000500D01*
X183763693Y-70000500D01*
X183763694Y-70000499D01*
X183821682Y-69988964D01*
X183937658Y-69965896D01*
X183937661Y-69965894D01*
X183937666Y-69965894D01*
X184101547Y-69898013D01*
X184249035Y-69799464D01*
X184374464Y-69674035D01*
X184473013Y-69526547D01*
X184540894Y-69362666D01*
X184575500Y-69188691D01*
X184575500Y-69011309D01*
X184575500Y-69011306D01*
X184575499Y-69011304D01*
X184540896Y-68837341D01*
X184540893Y-68837332D01*
X184473016Y-68673459D01*
X184473009Y-68673446D01*
X184374464Y-68525965D01*
X184374461Y-68525961D01*
X184249038Y-68400538D01*
X184249034Y-68400535D01*
X184101553Y-68301990D01*
X184101540Y-68301983D01*
X183937667Y-68234106D01*
X183937658Y-68234103D01*
X183763694Y-68199500D01*
X183763691Y-68199500D01*
X183586309Y-68199500D01*
X183586306Y-68199500D01*
X183412341Y-68234103D01*
X183412332Y-68234106D01*
X183248459Y-68301983D01*
X183248446Y-68301990D01*
X183100965Y-68400535D01*
X183100961Y-68400538D01*
X182975538Y-68525961D01*
X182975535Y-68525965D01*
X182876990Y-68673446D01*
X182876983Y-68673459D01*
X182809106Y-68837332D01*
X182809103Y-68837341D01*
X182774500Y-69011304D01*
X180834804Y-69011304D01*
X180799038Y-68975538D01*
X180799034Y-68975535D01*
X180651553Y-68876990D01*
X180651540Y-68876983D01*
X180487667Y-68809106D01*
X180487658Y-68809103D01*
X180313694Y-68774500D01*
X180313691Y-68774500D01*
X180136309Y-68774500D01*
X180136306Y-68774500D01*
X179962341Y-68809103D01*
X179962337Y-68809105D01*
X179962335Y-68809105D01*
X179962334Y-68809106D01*
X179932369Y-68821517D01*
X179805855Y-68873920D01*
X179736386Y-68881387D01*
X179673907Y-68850112D01*
X179638255Y-68790022D01*
X179640750Y-68720197D01*
X179655303Y-68690466D01*
X179666676Y-68673446D01*
X179698013Y-68626547D01*
X179765894Y-68462666D01*
X179785144Y-68365893D01*
X179788964Y-68346682D01*
X179800500Y-68288691D01*
X179800500Y-68111309D01*
X179800500Y-68111306D01*
X179800499Y-68111304D01*
X179765896Y-67937341D01*
X179765893Y-67937332D01*
X179698016Y-67773459D01*
X179698009Y-67773446D01*
X179599464Y-67625965D01*
X179599461Y-67625961D01*
X179474038Y-67500538D01*
X179474034Y-67500535D01*
X179326553Y-67401990D01*
X179326540Y-67401983D01*
X179162667Y-67334106D01*
X179162658Y-67334103D01*
X178988694Y-67299500D01*
X178988691Y-67299500D01*
X178811309Y-67299500D01*
X178811306Y-67299500D01*
X178637341Y-67334103D01*
X178637332Y-67334106D01*
X178473459Y-67401983D01*
X178473446Y-67401990D01*
X178325965Y-67500535D01*
X178325961Y-67500538D01*
X178200538Y-67625961D01*
X178200535Y-67625965D01*
X178101990Y-67773446D01*
X178101983Y-67773459D01*
X178034106Y-67937332D01*
X178034103Y-67937341D01*
X177999500Y-68111304D01*
X156122070Y-68111304D01*
X150285300Y-64561304D01*
X182624500Y-64561304D01*
X182624500Y-64738695D01*
X182659103Y-64912658D01*
X182659106Y-64912667D01*
X182726983Y-65076540D01*
X182726990Y-65076553D01*
X182825535Y-65224034D01*
X182825538Y-65224038D01*
X182950961Y-65349461D01*
X182950965Y-65349464D01*
X183098446Y-65448009D01*
X183098459Y-65448016D01*
X183221363Y-65498923D01*
X183262334Y-65515894D01*
X183262336Y-65515894D01*
X183262341Y-65515896D01*
X183436304Y-65550499D01*
X183436307Y-65550500D01*
X183436309Y-65550500D01*
X183613693Y-65550500D01*
X183613694Y-65550499D01*
X183671682Y-65538964D01*
X183787658Y-65515896D01*
X183787661Y-65515894D01*
X183787666Y-65515894D01*
X183951547Y-65448013D01*
X184037277Y-65390729D01*
X184103952Y-65369852D01*
X184171333Y-65388336D01*
X184218023Y-65440314D01*
X184229200Y-65509284D01*
X184209269Y-65562722D01*
X184151993Y-65648441D01*
X184151983Y-65648459D01*
X184084106Y-65812332D01*
X184084103Y-65812341D01*
X184049500Y-65986304D01*
X184049500Y-66163695D01*
X184084103Y-66337658D01*
X184084106Y-66337667D01*
X184151983Y-66501540D01*
X184151990Y-66501553D01*
X184250535Y-66649034D01*
X184250538Y-66649038D01*
X184375961Y-66774461D01*
X184375965Y-66774464D01*
X184523446Y-66873009D01*
X184523459Y-66873016D01*
X184646363Y-66923923D01*
X184687334Y-66940894D01*
X184687336Y-66940894D01*
X184687341Y-66940896D01*
X184861304Y-66975499D01*
X184861307Y-66975500D01*
X184861309Y-66975500D01*
X185038693Y-66975500D01*
X185038694Y-66975499D01*
X185096682Y-66963964D01*
X185212658Y-66940896D01*
X185212661Y-66940894D01*
X185212666Y-66940894D01*
X185357515Y-66880895D01*
X185426984Y-66873427D01*
X185489463Y-66904702D01*
X185525115Y-66964791D01*
X185522621Y-67034617D01*
X185508073Y-67064342D01*
X185501992Y-67073443D01*
X185501983Y-67073459D01*
X185434106Y-67237332D01*
X185434103Y-67237341D01*
X185399500Y-67411304D01*
X185399500Y-67588695D01*
X185434103Y-67762658D01*
X185434106Y-67762667D01*
X185501983Y-67926540D01*
X185501990Y-67926553D01*
X185600535Y-68074034D01*
X185600538Y-68074038D01*
X185725961Y-68199461D01*
X185725965Y-68199464D01*
X185873446Y-68298009D01*
X185873459Y-68298016D01*
X185996363Y-68348923D01*
X186037334Y-68365894D01*
X186037336Y-68365894D01*
X186037341Y-68365896D01*
X186211304Y-68400499D01*
X186211307Y-68400500D01*
X186211309Y-68400500D01*
X186388693Y-68400500D01*
X186388694Y-68400499D01*
X186446682Y-68388964D01*
X186562658Y-68365896D01*
X186562661Y-68365894D01*
X186562666Y-68365894D01*
X186716953Y-68301987D01*
X186726540Y-68298016D01*
X186726540Y-68298015D01*
X186726547Y-68298013D01*
X186874035Y-68199464D01*
X186999464Y-68074035D01*
X187098013Y-67926547D01*
X187165894Y-67762666D01*
X187200500Y-67588691D01*
X187200500Y-67411309D01*
X187200500Y-67411306D01*
X187200499Y-67411304D01*
X187165896Y-67237341D01*
X187165893Y-67237332D01*
X187098016Y-67073459D01*
X187098009Y-67073446D01*
X186999464Y-66925965D01*
X186999461Y-66925961D01*
X186874038Y-66800538D01*
X186874034Y-66800535D01*
X186726553Y-66701990D01*
X186726540Y-66701983D01*
X186562667Y-66634106D01*
X186562658Y-66634103D01*
X186388694Y-66599500D01*
X186388691Y-66599500D01*
X186211309Y-66599500D01*
X186211306Y-66599500D01*
X186037341Y-66634103D01*
X186037337Y-66634105D01*
X186037335Y-66634105D01*
X186037334Y-66634106D01*
X186001294Y-66649034D01*
X185892483Y-66694104D01*
X185823014Y-66701572D01*
X185760535Y-66670296D01*
X185724883Y-66610207D01*
X185727378Y-66540381D01*
X185741932Y-66510648D01*
X185748010Y-66501551D01*
X185748013Y-66501547D01*
X185815894Y-66337666D01*
X185850500Y-66163691D01*
X185850500Y-65986309D01*
X185850500Y-65986306D01*
X185850499Y-65986304D01*
X185815896Y-65812341D01*
X185815893Y-65812332D01*
X185748016Y-65648459D01*
X185748009Y-65648446D01*
X185649464Y-65500965D01*
X185649461Y-65500961D01*
X185524038Y-65375538D01*
X185524034Y-65375535D01*
X185376553Y-65276990D01*
X185376540Y-65276983D01*
X185212667Y-65209106D01*
X185212658Y-65209103D01*
X185038694Y-65174500D01*
X185038691Y-65174500D01*
X184861309Y-65174500D01*
X184861306Y-65174500D01*
X184687341Y-65209103D01*
X184687332Y-65209106D01*
X184523459Y-65276983D01*
X184523441Y-65276993D01*
X184437722Y-65334269D01*
X184371045Y-65355147D01*
X184303665Y-65336662D01*
X184256975Y-65284683D01*
X184245799Y-65215713D01*
X184265728Y-65162278D01*
X184323013Y-65076547D01*
X184390894Y-64912666D01*
X184425500Y-64738691D01*
X184425500Y-64561309D01*
X184425500Y-64561306D01*
X184425499Y-64561304D01*
X184390896Y-64387341D01*
X184390893Y-64387332D01*
X184323016Y-64223459D01*
X184323009Y-64223446D01*
X184224464Y-64075965D01*
X184224461Y-64075961D01*
X184099038Y-63950538D01*
X184099034Y-63950535D01*
X183951553Y-63851990D01*
X183951540Y-63851983D01*
X183787667Y-63784106D01*
X183787658Y-63784103D01*
X183613694Y-63749500D01*
X183613691Y-63749500D01*
X183436309Y-63749500D01*
X183436306Y-63749500D01*
X183262341Y-63784103D01*
X183262332Y-63784106D01*
X183098459Y-63851983D01*
X183098446Y-63851990D01*
X182950965Y-63950535D01*
X182950961Y-63950538D01*
X182825538Y-64075961D01*
X182825535Y-64075965D01*
X182726990Y-64223446D01*
X182726983Y-64223459D01*
X182659106Y-64387332D01*
X182659103Y-64387341D01*
X182624500Y-64561304D01*
X150285300Y-64561304D01*
X144565757Y-61082603D01*
X144399580Y-60981532D01*
X148960410Y-60981532D01*
X148960410Y-61186236D01*
X148961876Y-61195494D01*
X148992432Y-61388418D01*
X149055691Y-61583107D01*
X149100542Y-61671130D01*
X149143326Y-61755099D01*
X149148625Y-61765497D01*
X149268938Y-61931097D01*
X149413696Y-62075855D01*
X149551501Y-62175974D01*
X149579300Y-62196171D01*
X149683964Y-62249500D01*
X149761686Y-62289102D01*
X149761688Y-62289102D01*
X149761691Y-62289104D01*
X149855871Y-62319705D01*
X149956375Y-62352361D01*
X150057467Y-62368372D01*
X150158558Y-62384384D01*
X150158559Y-62384384D01*
X150363261Y-62384384D01*
X150363262Y-62384384D01*
X150565444Y-62352361D01*
X150659806Y-62321700D01*
X150729644Y-62319705D01*
X150789477Y-62355785D01*
X150819739Y-62415441D01*
X150834103Y-62487658D01*
X150834106Y-62487667D01*
X150901983Y-62651540D01*
X150901990Y-62651553D01*
X151000535Y-62799034D01*
X151000538Y-62799038D01*
X151125961Y-62924461D01*
X151125965Y-62924464D01*
X151178889Y-62959827D01*
X151223694Y-63013439D01*
X151232401Y-63082764D01*
X151213102Y-63131817D01*
X151201991Y-63148446D01*
X151201983Y-63148460D01*
X151134106Y-63312332D01*
X151134103Y-63312341D01*
X151099500Y-63486304D01*
X151099500Y-63663695D01*
X151134103Y-63837658D01*
X151134106Y-63837667D01*
X151201983Y-64001540D01*
X151201990Y-64001553D01*
X151300535Y-64149034D01*
X151300538Y-64149038D01*
X151425961Y-64274461D01*
X151425965Y-64274464D01*
X151573446Y-64373009D01*
X151573459Y-64373016D01*
X151696363Y-64423923D01*
X151737334Y-64440894D01*
X151737336Y-64440894D01*
X151737341Y-64440896D01*
X151911304Y-64475499D01*
X151911307Y-64475500D01*
X151911309Y-64475500D01*
X152088693Y-64475500D01*
X152088694Y-64475499D01*
X152146682Y-64463964D01*
X152262658Y-64440896D01*
X152262660Y-64440895D01*
X152262666Y-64440894D01*
X152391978Y-64387332D01*
X152426541Y-64373016D01*
X152426544Y-64373014D01*
X152426547Y-64373013D01*
X152574035Y-64274464D01*
X152699464Y-64149035D01*
X152798013Y-64001547D01*
X152865894Y-63837666D01*
X152870638Y-63813820D01*
X152898442Y-63674035D01*
X152900500Y-63663691D01*
X152900500Y-63486309D01*
X152900500Y-63486306D01*
X152900499Y-63486304D01*
X152865896Y-63312341D01*
X152865893Y-63312332D01*
X152810115Y-63177669D01*
X152798016Y-63148459D01*
X152798009Y-63148446D01*
X152789896Y-63136304D01*
X158474500Y-63136304D01*
X158474500Y-63313695D01*
X158509103Y-63487658D01*
X158509106Y-63487667D01*
X158576983Y-63651540D01*
X158576990Y-63651553D01*
X158675535Y-63799034D01*
X158675538Y-63799038D01*
X158800961Y-63924461D01*
X158800965Y-63924464D01*
X158948446Y-64023009D01*
X158948459Y-64023016D01*
X159014813Y-64050500D01*
X159112334Y-64090894D01*
X159112336Y-64090894D01*
X159112341Y-64090896D01*
X159286304Y-64125499D01*
X159286307Y-64125500D01*
X159286309Y-64125500D01*
X159463693Y-64125500D01*
X159463694Y-64125499D01*
X159521682Y-64113964D01*
X159637658Y-64090896D01*
X159637661Y-64090894D01*
X159637666Y-64090894D01*
X159801547Y-64023013D01*
X159949035Y-63924464D01*
X160074464Y-63799035D01*
X160173013Y-63651547D01*
X160240894Y-63487666D01*
X160275500Y-63313691D01*
X160275500Y-63136309D01*
X160275500Y-63136306D01*
X160275499Y-63136304D01*
X160240896Y-62962341D01*
X160240893Y-62962332D01*
X160239855Y-62959827D01*
X160209828Y-62887334D01*
X160173016Y-62798459D01*
X160173009Y-62798446D01*
X160074464Y-62650965D01*
X160074461Y-62650961D01*
X159949038Y-62525538D01*
X159949034Y-62525535D01*
X159801553Y-62426990D01*
X159801540Y-62426983D01*
X159637667Y-62359106D01*
X159637658Y-62359103D01*
X159463694Y-62324500D01*
X159463691Y-62324500D01*
X159286309Y-62324500D01*
X159286306Y-62324500D01*
X159112341Y-62359103D01*
X159112332Y-62359106D01*
X158948459Y-62426983D01*
X158948446Y-62426990D01*
X158800965Y-62525535D01*
X158800961Y-62525538D01*
X158675538Y-62650961D01*
X158675535Y-62650965D01*
X158576990Y-62798446D01*
X158576983Y-62798459D01*
X158509106Y-62962332D01*
X158509103Y-62962341D01*
X158474500Y-63136304D01*
X152789896Y-63136304D01*
X152699464Y-63000965D01*
X152699461Y-63000961D01*
X152574038Y-62875538D01*
X152574034Y-62875535D01*
X152521110Y-62840172D01*
X152476305Y-62786560D01*
X152467598Y-62717235D01*
X152486900Y-62668178D01*
X152498013Y-62651547D01*
X152565894Y-62487666D01*
X152568606Y-62474035D01*
X152592883Y-62351983D01*
X152600500Y-62313691D01*
X152600500Y-62136309D01*
X152600500Y-62136306D01*
X152600499Y-62136304D01*
X152565896Y-61962341D01*
X152565893Y-61962332D01*
X152498016Y-61798459D01*
X152498009Y-61798446D01*
X152399464Y-61650965D01*
X152399461Y-61650961D01*
X152274038Y-61525538D01*
X152274034Y-61525535D01*
X152126553Y-61426990D01*
X152126540Y-61426983D01*
X151962667Y-61359106D01*
X151962658Y-61359103D01*
X151788694Y-61324500D01*
X151788691Y-61324500D01*
X151684670Y-61324500D01*
X151675616Y-61321841D01*
X151666268Y-61323127D01*
X151642628Y-61312155D01*
X151617631Y-61304815D01*
X151611453Y-61297685D01*
X151602892Y-61293712D01*
X151588936Y-61271699D01*
X151571876Y-61252011D01*
X151569537Y-61241102D01*
X151565480Y-61234702D01*
X151563097Y-61211053D01*
X151560672Y-61199737D01*
X151560728Y-61190538D01*
X151561410Y-61186236D01*
X151561410Y-61086304D01*
X168724500Y-61086304D01*
X168724500Y-61263695D01*
X168759103Y-61437658D01*
X168759106Y-61437667D01*
X168826983Y-61601540D01*
X168826990Y-61601553D01*
X168925535Y-61749034D01*
X168925538Y-61749038D01*
X169050961Y-61874461D01*
X169050965Y-61874464D01*
X169198446Y-61973009D01*
X169198459Y-61973016D01*
X169321363Y-62023923D01*
X169362334Y-62040894D01*
X169362336Y-62040894D01*
X169362341Y-62040896D01*
X169536304Y-62075499D01*
X169536307Y-62075500D01*
X169536309Y-62075500D01*
X169713693Y-62075500D01*
X169713694Y-62075499D01*
X169778800Y-62062549D01*
X169887658Y-62040896D01*
X169887661Y-62040894D01*
X169887666Y-62040894D01*
X170051547Y-61973013D01*
X170199035Y-61874464D01*
X170324464Y-61749035D01*
X170423013Y-61601547D01*
X170490894Y-61437666D01*
X170504064Y-61371452D01*
X170536448Y-61309545D01*
X170597163Y-61274970D01*
X170666933Y-61278709D01*
X170723605Y-61319575D01*
X170740242Y-61348193D01*
X170751985Y-61376543D01*
X170751990Y-61376553D01*
X170850535Y-61524034D01*
X170850538Y-61524038D01*
X170975961Y-61649461D01*
X170975965Y-61649464D01*
X171123446Y-61748009D01*
X171123459Y-61748016D01*
X171188519Y-61774964D01*
X171287334Y-61815894D01*
X171287336Y-61815894D01*
X171287341Y-61815896D01*
X171461304Y-61850499D01*
X171461307Y-61850500D01*
X171461309Y-61850500D01*
X171638693Y-61850500D01*
X171638694Y-61850499D01*
X171696682Y-61838964D01*
X171812658Y-61815896D01*
X171812660Y-61815895D01*
X171812666Y-61815894D01*
X171911481Y-61774963D01*
X171980947Y-61767495D01*
X172043427Y-61798770D01*
X172079079Y-61858859D01*
X172076585Y-61928684D01*
X172062035Y-61958413D01*
X172051991Y-61973445D01*
X172051983Y-61973459D01*
X171984106Y-62137332D01*
X171984103Y-62137341D01*
X171949500Y-62311304D01*
X171949500Y-62488695D01*
X171984103Y-62662658D01*
X171984106Y-62662667D01*
X172051983Y-62826540D01*
X172051990Y-62826553D01*
X172150535Y-62974034D01*
X172150538Y-62974038D01*
X172275961Y-63099461D01*
X172275965Y-63099464D01*
X172423446Y-63198009D01*
X172423459Y-63198016D01*
X172521659Y-63238691D01*
X172587334Y-63265894D01*
X172587336Y-63265894D01*
X172587341Y-63265896D01*
X172761304Y-63300499D01*
X172761307Y-63300500D01*
X172761309Y-63300500D01*
X172938693Y-63300500D01*
X172938694Y-63300499D01*
X172996682Y-63288964D01*
X173112658Y-63265896D01*
X173112661Y-63265894D01*
X173112666Y-63265894D01*
X173276547Y-63198013D01*
X173424035Y-63099464D01*
X173549464Y-62974035D01*
X173648013Y-62826547D01*
X173715894Y-62662666D01*
X173718222Y-62650965D01*
X173746336Y-62509624D01*
X173750500Y-62488691D01*
X173750500Y-62311309D01*
X173750500Y-62311306D01*
X173750499Y-62311304D01*
X173715896Y-62137341D01*
X173715893Y-62137332D01*
X173648016Y-61973459D01*
X173648009Y-61973446D01*
X173549464Y-61825965D01*
X173549461Y-61825961D01*
X173424038Y-61700538D01*
X173424034Y-61700535D01*
X173276553Y-61601990D01*
X173276540Y-61601983D01*
X173112667Y-61534106D01*
X173112658Y-61534103D01*
X172938694Y-61499500D01*
X172938691Y-61499500D01*
X172761309Y-61499500D01*
X172761306Y-61499500D01*
X172587341Y-61534103D01*
X172587341Y-61534104D01*
X172587338Y-61534105D01*
X172587334Y-61534106D01*
X172488518Y-61575036D01*
X172419050Y-61582504D01*
X172356571Y-61551228D01*
X172320919Y-61491139D01*
X172323414Y-61421314D01*
X172337968Y-61391580D01*
X172340081Y-61388418D01*
X172348013Y-61376547D01*
X172415894Y-61212666D01*
X172419313Y-61195481D01*
X172450464Y-61038872D01*
X172450500Y-61038691D01*
X172450500Y-60861309D01*
X172450500Y-60861306D01*
X172450499Y-60861304D01*
X172415896Y-60687341D01*
X172415893Y-60687332D01*
X172348016Y-60523459D01*
X172348009Y-60523446D01*
X172249464Y-60375965D01*
X172249461Y-60375961D01*
X172124038Y-60250538D01*
X172124034Y-60250535D01*
X171976553Y-60151990D01*
X171976540Y-60151983D01*
X171812667Y-60084106D01*
X171812658Y-60084103D01*
X171638694Y-60049500D01*
X171638691Y-60049500D01*
X171498937Y-60049500D01*
X171431898Y-60029815D01*
X171386143Y-59977011D01*
X171376606Y-59919783D01*
X171375500Y-59919783D01*
X171375500Y-59736306D01*
X171375499Y-59736304D01*
X171340896Y-59562341D01*
X171340893Y-59562332D01*
X171273016Y-59398459D01*
X171273009Y-59398446D01*
X171174464Y-59250965D01*
X171174461Y-59250961D01*
X171049038Y-59125538D01*
X171049034Y-59125535D01*
X170901553Y-59026990D01*
X170901540Y-59026983D01*
X170737667Y-58959106D01*
X170737658Y-58959103D01*
X170563694Y-58924500D01*
X170563691Y-58924500D01*
X170386309Y-58924500D01*
X170386306Y-58924500D01*
X170212341Y-58959103D01*
X170212332Y-58959106D01*
X170048459Y-59026983D01*
X170048446Y-59026990D01*
X169900965Y-59125535D01*
X169900961Y-59125538D01*
X169775538Y-59250961D01*
X169775535Y-59250965D01*
X169676990Y-59398446D01*
X169676983Y-59398459D01*
X169609106Y-59562332D01*
X169609103Y-59562341D01*
X169574500Y-59736304D01*
X169574500Y-59913695D01*
X169609103Y-60087658D01*
X169609106Y-60087667D01*
X169617242Y-60107309D01*
X169624709Y-60176779D01*
X169593433Y-60239257D01*
X169533343Y-60274908D01*
X169526872Y-60276376D01*
X169362340Y-60309104D01*
X169362332Y-60309106D01*
X169198459Y-60376983D01*
X169198446Y-60376990D01*
X169050965Y-60475535D01*
X169050961Y-60475538D01*
X168925538Y-60600961D01*
X168925535Y-60600965D01*
X168826990Y-60748446D01*
X168826983Y-60748459D01*
X168759106Y-60912332D01*
X168759103Y-60912341D01*
X168724500Y-61086304D01*
X151561410Y-61086304D01*
X151561410Y-60981532D01*
X151550608Y-60913333D01*
X151559562Y-60844042D01*
X151604558Y-60790590D01*
X151671309Y-60769950D01*
X151728731Y-60783126D01*
X151770244Y-60803974D01*
X151940956Y-60844435D01*
X151940959Y-60844435D01*
X152116395Y-60844435D01*
X152116398Y-60844435D01*
X152287110Y-60803974D01*
X152443892Y-60725237D01*
X152523999Y-60659980D01*
X153372538Y-59811439D01*
X153437797Y-59731332D01*
X153516534Y-59574550D01*
X153556995Y-59403838D01*
X153556995Y-59228396D01*
X153516534Y-59057684D01*
X153437797Y-58900902D01*
X153372540Y-58820795D01*
X152523999Y-57972256D01*
X152523985Y-57972245D01*
X152510555Y-57961304D01*
X154074500Y-57961304D01*
X154074500Y-58138695D01*
X154109103Y-58312658D01*
X154109106Y-58312667D01*
X154176983Y-58476540D01*
X154176990Y-58476553D01*
X154275535Y-58624034D01*
X154275538Y-58624038D01*
X154400961Y-58749461D01*
X154400965Y-58749464D01*
X154548446Y-58848009D01*
X154548459Y-58848016D01*
X154645510Y-58888215D01*
X154712334Y-58915894D01*
X154712336Y-58915894D01*
X154712341Y-58915896D01*
X154886304Y-58950499D01*
X154886307Y-58950500D01*
X154886309Y-58950500D01*
X155063693Y-58950500D01*
X155069756Y-58949903D01*
X155069934Y-58951719D01*
X155130983Y-58957166D01*
X155186171Y-59000014D01*
X155209433Y-59065898D01*
X155207230Y-59096759D01*
X155174500Y-59261304D01*
X155174500Y-59438695D01*
X155209103Y-59612658D01*
X155209106Y-59612667D01*
X155276983Y-59776540D01*
X155276990Y-59776553D01*
X155375535Y-59924034D01*
X155375538Y-59924038D01*
X155500961Y-60049461D01*
X155500965Y-60049464D01*
X155648446Y-60148009D01*
X155648459Y-60148016D01*
X155719791Y-60177562D01*
X155812334Y-60215894D01*
X155812336Y-60215894D01*
X155812341Y-60215896D01*
X155986304Y-60250499D01*
X155986307Y-60250500D01*
X155986309Y-60250500D01*
X156163693Y-60250500D01*
X156163694Y-60250499D01*
X156233244Y-60236665D01*
X156337658Y-60215896D01*
X156337661Y-60215894D01*
X156337666Y-60215894D01*
X156491953Y-60151987D01*
X156501540Y-60148016D01*
X156501540Y-60148015D01*
X156501547Y-60148013D01*
X156649035Y-60049464D01*
X156774464Y-59924035D01*
X156873013Y-59776547D01*
X156940894Y-59612666D01*
X156943061Y-59601775D01*
X156975499Y-59438695D01*
X156975500Y-59438693D01*
X156975500Y-59261306D01*
X156975499Y-59261304D01*
X156940896Y-59087341D01*
X156940893Y-59087332D01*
X156940565Y-59086541D01*
X156904320Y-58999035D01*
X156873016Y-58923459D01*
X156873009Y-58923446D01*
X156774464Y-58775965D01*
X156774461Y-58775961D01*
X156649038Y-58650538D01*
X156649034Y-58650535D01*
X156501553Y-58551990D01*
X156501540Y-58551983D01*
X156337667Y-58484106D01*
X156337658Y-58484103D01*
X156163694Y-58449500D01*
X156163691Y-58449500D01*
X155986309Y-58449500D01*
X155986306Y-58449500D01*
X155980244Y-58450097D01*
X155980065Y-58448287D01*
X155918981Y-58442819D01*
X155863805Y-58399953D01*
X155840563Y-58334063D01*
X155842769Y-58303239D01*
X155875500Y-58138693D01*
X155875500Y-57961306D01*
X155875499Y-57961304D01*
X155840896Y-57787341D01*
X155840893Y-57787332D01*
X155773016Y-57623459D01*
X155773009Y-57623446D01*
X155674464Y-57475965D01*
X155674461Y-57475961D01*
X155549038Y-57350538D01*
X155549034Y-57350535D01*
X155401553Y-57251990D01*
X155401540Y-57251983D01*
X155237667Y-57184106D01*
X155237658Y-57184103D01*
X155063694Y-57149500D01*
X155063691Y-57149500D01*
X154886309Y-57149500D01*
X154886306Y-57149500D01*
X154712341Y-57184103D01*
X154712332Y-57184106D01*
X154548459Y-57251983D01*
X154548446Y-57251990D01*
X154400965Y-57350535D01*
X154400961Y-57350538D01*
X154275538Y-57475961D01*
X154275535Y-57475965D01*
X154176990Y-57623446D01*
X154176983Y-57623459D01*
X154109106Y-57787332D01*
X154109103Y-57787341D01*
X154074500Y-57961304D01*
X152510555Y-57961304D01*
X152478522Y-57935208D01*
X152443892Y-57906997D01*
X152443890Y-57906996D01*
X152443889Y-57906995D01*
X152287109Y-57828259D01*
X152116405Y-57787800D01*
X152116400Y-57787799D01*
X152116398Y-57787799D01*
X151940956Y-57787799D01*
X151940954Y-57787799D01*
X151940948Y-57787800D01*
X151770244Y-57828259D01*
X151613462Y-57906996D01*
X151533365Y-57972245D01*
X151533347Y-57972261D01*
X150684819Y-58820791D01*
X150684810Y-58820801D01*
X150619555Y-58900904D01*
X150540819Y-59057684D01*
X150500360Y-59228388D01*
X150500359Y-59228399D01*
X150500359Y-59403834D01*
X150500360Y-59403845D01*
X150540819Y-59574550D01*
X150540820Y-59574551D01*
X150561667Y-59616063D01*
X150574163Y-59684806D01*
X150547509Y-59749392D01*
X150490169Y-59789315D01*
X150431459Y-59794185D01*
X150363262Y-59783384D01*
X150158558Y-59783384D01*
X150134239Y-59787235D01*
X149956375Y-59815406D01*
X149761686Y-59878665D01*
X149579296Y-59971599D01*
X149413696Y-60091912D01*
X149268938Y-60236670D01*
X149148625Y-60402270D01*
X149055691Y-60584660D01*
X148992432Y-60779349D01*
X148971370Y-60912332D01*
X148960410Y-60981532D01*
X144399580Y-60981532D01*
X137419507Y-56736160D01*
X137255328Y-56636304D01*
X152324500Y-56636304D01*
X152324500Y-56813695D01*
X152359103Y-56987658D01*
X152359106Y-56987667D01*
X152426983Y-57151540D01*
X152426990Y-57151553D01*
X152525535Y-57299034D01*
X152525538Y-57299038D01*
X152650961Y-57424461D01*
X152650965Y-57424464D01*
X152798446Y-57523009D01*
X152798459Y-57523016D01*
X152921363Y-57573923D01*
X152962334Y-57590894D01*
X152962336Y-57590894D01*
X152962341Y-57590896D01*
X153136304Y-57625499D01*
X153136307Y-57625500D01*
X153136309Y-57625500D01*
X153313693Y-57625500D01*
X153313694Y-57625499D01*
X153371682Y-57613964D01*
X153487658Y-57590896D01*
X153487661Y-57590894D01*
X153487666Y-57590894D01*
X153651547Y-57523013D01*
X153799035Y-57424464D01*
X153924464Y-57299035D01*
X154023013Y-57151547D01*
X154090894Y-56987666D01*
X154093606Y-56974035D01*
X154113964Y-56871682D01*
X154125500Y-56813691D01*
X154125500Y-56636309D01*
X154125500Y-56636306D01*
X154125499Y-56636304D01*
X154090896Y-56462341D01*
X154090893Y-56462332D01*
X154089459Y-56458871D01*
X154060391Y-56388693D01*
X154023016Y-56298459D01*
X154023009Y-56298446D01*
X153924464Y-56150965D01*
X153924461Y-56150961D01*
X153799038Y-56025538D01*
X153799034Y-56025535D01*
X153651553Y-55926990D01*
X153651540Y-55926983D01*
X153487667Y-55859106D01*
X153487658Y-55859103D01*
X153313694Y-55824500D01*
X153313691Y-55824500D01*
X153136309Y-55824500D01*
X153136306Y-55824500D01*
X152962341Y-55859103D01*
X152962332Y-55859106D01*
X152798459Y-55926983D01*
X152798446Y-55926990D01*
X152650965Y-56025535D01*
X152650961Y-56025538D01*
X152525538Y-56150961D01*
X152525535Y-56150965D01*
X152426990Y-56298446D01*
X152426983Y-56298459D01*
X152359106Y-56462332D01*
X152359103Y-56462341D01*
X152324500Y-56636304D01*
X137255328Y-56636304D01*
X131595450Y-53193892D01*
X131580808Y-53183462D01*
X131309011Y-52958432D01*
X131300213Y-52950405D01*
X131161730Y-52811306D01*
X131037612Y-52686635D01*
X131029627Y-52677804D01*
X131022122Y-52668657D01*
X130889920Y-52507525D01*
X130793541Y-52390055D01*
X130786438Y-52380496D01*
X130579045Y-52071427D01*
X130572892Y-52061231D01*
X130513296Y-51950816D01*
X130396101Y-51733684D01*
X130390962Y-51722963D01*
X130246410Y-51379967D01*
X130242317Y-51368783D01*
X130158356Y-51100000D01*
X130131335Y-51013501D01*
X130128337Y-51001984D01*
X130123827Y-50980477D01*
X130051950Y-50637692D01*
X130050070Y-50625938D01*
X130040998Y-50544255D01*
X130008984Y-50256009D01*
X130008240Y-50244132D01*
X130002831Y-49871952D01*
X130003229Y-49860077D01*
X130004117Y-49849217D01*
X131699500Y-49849217D01*
X131699500Y-50150783D01*
X131699500Y-50150789D01*
X131699501Y-50150793D01*
X131738861Y-50449766D01*
X131816913Y-50741060D01*
X131932314Y-51019661D01*
X131932318Y-51019671D01*
X132083099Y-51280831D01*
X132266679Y-51520078D01*
X132266685Y-51520085D01*
X132479914Y-51733314D01*
X132479921Y-51733320D01*
X132719168Y-51916900D01*
X132980328Y-52067681D01*
X132980329Y-52067681D01*
X132980332Y-52067683D01*
X133145105Y-52135934D01*
X133258939Y-52183086D01*
X133258940Y-52183086D01*
X133258942Y-52183087D01*
X133550232Y-52261138D01*
X133849217Y-52300500D01*
X133849224Y-52300500D01*
X134150776Y-52300500D01*
X134150783Y-52300500D01*
X134449768Y-52261138D01*
X134741058Y-52183087D01*
X135019668Y-52067683D01*
X135280832Y-51916900D01*
X135520080Y-51733319D01*
X135733319Y-51520080D01*
X135916900Y-51280832D01*
X136060566Y-51031995D01*
X139749500Y-51031995D01*
X139749500Y-51268004D01*
X139749501Y-51268020D01*
X139780306Y-51502010D01*
X139841394Y-51729993D01*
X139931714Y-51948045D01*
X139931719Y-51948056D01*
X139981399Y-52034103D01*
X140049727Y-52152450D01*
X140049729Y-52152453D01*
X140049730Y-52152454D01*
X140193406Y-52339697D01*
X140193412Y-52339704D01*
X140360295Y-52506587D01*
X140360302Y-52506593D01*
X140392544Y-52531333D01*
X140547550Y-52650273D01*
X140678918Y-52726118D01*
X140751943Y-52768280D01*
X140751948Y-52768282D01*
X140751951Y-52768284D01*
X140970007Y-52858606D01*
X141197986Y-52919693D01*
X141431989Y-52950500D01*
X141431996Y-52950500D01*
X141668004Y-52950500D01*
X141668011Y-52950500D01*
X141902014Y-52919693D01*
X142129993Y-52858606D01*
X142348049Y-52768284D01*
X142552450Y-52650273D01*
X142739699Y-52506592D01*
X142906592Y-52339699D01*
X143050273Y-52152450D01*
X143168284Y-51948049D01*
X143258606Y-51729993D01*
X143319693Y-51502014D01*
X143350500Y-51268011D01*
X143350500Y-51031989D01*
X143319693Y-50797986D01*
X143258606Y-50570007D01*
X143168284Y-50351951D01*
X143168282Y-50351948D01*
X143168280Y-50351943D01*
X143112510Y-50255348D01*
X143050273Y-50147550D01*
X143043211Y-50138347D01*
X143030913Y-50122319D01*
X143030912Y-50122318D01*
X142975408Y-50049983D01*
X144829499Y-50049983D01*
X144829499Y-52250001D01*
X144829500Y-52250018D01*
X144839999Y-52352796D01*
X144840000Y-52352799D01*
X144895184Y-52519331D01*
X144895186Y-52519336D01*
X144897729Y-52523459D01*
X144987287Y-52668656D01*
X145111343Y-52792712D01*
X145260665Y-52884814D01*
X145427202Y-52939999D01*
X145529990Y-52950500D01*
X147730007Y-52950499D01*
X147832796Y-52939999D01*
X147999333Y-52884814D01*
X148148655Y-52792712D01*
X148272711Y-52668656D01*
X148364813Y-52519334D01*
X148419998Y-52352797D01*
X148430499Y-52250009D01*
X148430498Y-50049992D01*
X148419998Y-49947203D01*
X148364813Y-49780666D01*
X148272711Y-49631344D01*
X148148655Y-49507288D01*
X147999333Y-49415186D01*
X147832796Y-49360001D01*
X147832794Y-49360000D01*
X147730009Y-49349500D01*
X145529997Y-49349500D01*
X145529980Y-49349501D01*
X145427202Y-49360000D01*
X145427199Y-49360001D01*
X145260667Y-49415185D01*
X145260662Y-49415187D01*
X145111341Y-49507289D01*
X144987288Y-49631342D01*
X144895186Y-49780663D01*
X144895184Y-49780668D01*
X144890961Y-49793412D01*
X144840000Y-49947203D01*
X144840000Y-49947204D01*
X144839999Y-49947204D01*
X144829499Y-50049983D01*
X142975408Y-50049983D01*
X142906593Y-49960302D01*
X142906587Y-49960295D01*
X142739704Y-49793412D01*
X142739697Y-49793406D01*
X142552454Y-49649730D01*
X142552453Y-49649729D01*
X142552450Y-49649727D01*
X142470957Y-49602677D01*
X142348056Y-49531719D01*
X142348045Y-49531714D01*
X142129993Y-49441394D01*
X141948672Y-49392809D01*
X141902014Y-49380307D01*
X141902013Y-49380306D01*
X141902010Y-49380306D01*
X141668020Y-49349501D01*
X141668017Y-49349500D01*
X141668011Y-49349500D01*
X141431989Y-49349500D01*
X141431983Y-49349500D01*
X141431979Y-49349501D01*
X141197989Y-49380306D01*
X140970006Y-49441394D01*
X140751954Y-49531714D01*
X140751943Y-49531719D01*
X140547545Y-49649730D01*
X140360302Y-49793406D01*
X140360295Y-49793412D01*
X140193412Y-49960295D01*
X140193406Y-49960302D01*
X140049730Y-50147545D01*
X140049727Y-50147549D01*
X140049727Y-50147550D01*
X140047855Y-50150793D01*
X139931719Y-50351943D01*
X139931714Y-50351954D01*
X139841394Y-50570006D01*
X139780306Y-50797989D01*
X139749501Y-51031979D01*
X139749500Y-51031995D01*
X136060566Y-51031995D01*
X136067683Y-51019668D01*
X136075789Y-51000099D01*
X136083917Y-50980477D01*
X136183086Y-50741060D01*
X136183087Y-50741058D01*
X136261138Y-50449768D01*
X136300500Y-50150783D01*
X136300500Y-49849217D01*
X136261138Y-49550232D01*
X136183087Y-49258942D01*
X136166755Y-49219514D01*
X136138062Y-49150241D01*
X136067683Y-48980332D01*
X135916900Y-48719168D01*
X135808896Y-48578414D01*
X135733320Y-48479921D01*
X135733314Y-48479914D01*
X135520085Y-48266685D01*
X135520078Y-48266679D01*
X135280831Y-48083099D01*
X135234289Y-48056228D01*
X135056728Y-47953713D01*
X157959500Y-47953713D01*
X157959500Y-48166287D01*
X157992754Y-48376243D01*
X158030570Y-48492629D01*
X158058444Y-48578414D01*
X158154951Y-48767820D01*
X158279890Y-48939786D01*
X158393818Y-49053714D01*
X158427303Y-49115037D01*
X158422319Y-49184729D01*
X158380447Y-49240662D01*
X158349471Y-49257577D01*
X158217912Y-49306646D01*
X158217906Y-49306649D01*
X158102812Y-49392809D01*
X158102809Y-49392812D01*
X158016649Y-49507906D01*
X158016645Y-49507913D01*
X157966403Y-49642620D01*
X157966401Y-49642627D01*
X157960000Y-49702155D01*
X157960000Y-50350000D01*
X158876988Y-50350000D01*
X158844075Y-50407007D01*
X158810000Y-50534174D01*
X158810000Y-50665826D01*
X158844075Y-50792993D01*
X158876988Y-50850000D01*
X157960000Y-50850000D01*
X157960000Y-51497844D01*
X157966401Y-51557372D01*
X157966403Y-51557379D01*
X158016645Y-51692086D01*
X158016649Y-51692093D01*
X158102809Y-51807187D01*
X158102812Y-51807190D01*
X158217906Y-51893350D01*
X158217913Y-51893354D01*
X158352620Y-51943596D01*
X158352627Y-51943598D01*
X158412155Y-51949999D01*
X158412172Y-51950000D01*
X159060000Y-51950000D01*
X159060000Y-51033012D01*
X159117007Y-51065925D01*
X159244174Y-51100000D01*
X159375826Y-51100000D01*
X159502993Y-51065925D01*
X159560000Y-51033012D01*
X159560000Y-51950000D01*
X160207828Y-51950000D01*
X160207844Y-51949999D01*
X160267372Y-51943598D01*
X160267379Y-51943596D01*
X160402086Y-51893354D01*
X160402093Y-51893350D01*
X160517187Y-51807190D01*
X160517190Y-51807187D01*
X160603350Y-51692093D01*
X160603354Y-51692086D01*
X160652422Y-51560529D01*
X160694293Y-51504595D01*
X160759757Y-51480178D01*
X160828030Y-51495030D01*
X160856285Y-51516181D01*
X160970213Y-51630109D01*
X161142184Y-51755051D01*
X161142185Y-51755052D01*
X161164646Y-51766497D01*
X161215442Y-51814471D01*
X161232237Y-51882292D01*
X161209699Y-51948427D01*
X161154984Y-51991878D01*
X161094972Y-51997896D01*
X161094756Y-52000097D01*
X161088694Y-51999500D01*
X161088691Y-51999500D01*
X160911309Y-51999500D01*
X160911306Y-51999500D01*
X160737341Y-52034103D01*
X160737332Y-52034106D01*
X160573459Y-52101983D01*
X160573446Y-52101990D01*
X160425965Y-52200535D01*
X160425961Y-52200538D01*
X160300538Y-52325961D01*
X160300535Y-52325965D01*
X160201990Y-52473446D01*
X160201983Y-52473459D01*
X160134106Y-52637332D01*
X160134103Y-52637341D01*
X160099500Y-52811304D01*
X160099500Y-52988695D01*
X160134103Y-53162658D01*
X160134106Y-53162667D01*
X160201983Y-53326540D01*
X160201990Y-53326553D01*
X160300535Y-53474034D01*
X160300538Y-53474038D01*
X160425961Y-53599461D01*
X160425965Y-53599464D01*
X160573446Y-53698009D01*
X160573459Y-53698016D01*
X160694155Y-53748009D01*
X160737334Y-53765894D01*
X160737336Y-53765894D01*
X160737341Y-53765896D01*
X160911304Y-53800499D01*
X160911307Y-53800500D01*
X160911309Y-53800500D01*
X161088693Y-53800500D01*
X161088694Y-53800499D01*
X161181978Y-53781944D01*
X161262658Y-53765896D01*
X161262661Y-53765894D01*
X161262666Y-53765894D01*
X161426547Y-53698013D01*
X161574035Y-53599464D01*
X161699464Y-53474035D01*
X161798013Y-53326547D01*
X161865894Y-53162666D01*
X161900500Y-52988691D01*
X161900500Y-52811309D01*
X161900500Y-52811306D01*
X161900499Y-52811304D01*
X161865896Y-52637341D01*
X161865893Y-52637332D01*
X161798016Y-52473459D01*
X161798009Y-52473446D01*
X161699464Y-52325965D01*
X161699461Y-52325961D01*
X161574038Y-52200538D01*
X161574032Y-52200533D01*
X161500767Y-52151578D01*
X161455963Y-52097966D01*
X161447256Y-52028641D01*
X161477411Y-51965614D01*
X161536855Y-51928895D01*
X161589053Y-51926004D01*
X161743713Y-51950500D01*
X161743714Y-51950500D01*
X161956286Y-51950500D01*
X161956287Y-51950500D01*
X162166243Y-51917246D01*
X162368412Y-51851557D01*
X162557816Y-51755051D01*
X162579789Y-51739086D01*
X162729786Y-51630109D01*
X162729788Y-51630106D01*
X162729792Y-51630104D01*
X162880104Y-51479792D01*
X162880106Y-51479788D01*
X162880109Y-51479786D01*
X163005048Y-51307820D01*
X163005050Y-51307817D01*
X163005051Y-51307816D01*
X163009512Y-51299058D01*
X163057483Y-51248262D01*
X163125303Y-51231464D01*
X163191440Y-51253998D01*
X163230483Y-51299054D01*
X163234948Y-51307817D01*
X163359889Y-51479786D01*
X163510212Y-51630109D01*
X163682178Y-51755048D01*
X163682180Y-51755049D01*
X163682183Y-51755051D01*
X163871587Y-51851557D01*
X164073756Y-51917246D01*
X164283712Y-51950500D01*
X164283713Y-51950500D01*
X164496285Y-51950500D01*
X164496286Y-51950500D01*
X164706242Y-51917246D01*
X164908411Y-51851557D01*
X164944205Y-51833318D01*
X165012874Y-51820423D01*
X165077614Y-51846699D01*
X165117872Y-51903805D01*
X165124500Y-51943804D01*
X165124500Y-52094519D01*
X165148612Y-52215739D01*
X165148615Y-52215751D01*
X165167416Y-52261139D01*
X165195915Y-52329941D01*
X165195920Y-52329951D01*
X165242392Y-52399500D01*
X165242393Y-52399501D01*
X165264590Y-52432722D01*
X165264591Y-52432723D01*
X168019688Y-55187819D01*
X168053173Y-55249142D01*
X168048189Y-55318834D01*
X168006317Y-55374767D01*
X167940853Y-55399184D01*
X167932007Y-55399500D01*
X167811306Y-55399500D01*
X167637341Y-55434103D01*
X167637332Y-55434106D01*
X167473459Y-55501983D01*
X167473446Y-55501990D01*
X167325965Y-55600535D01*
X167325961Y-55600538D01*
X167200538Y-55725961D01*
X167200535Y-55725965D01*
X167101990Y-55873446D01*
X167101983Y-55873459D01*
X167034106Y-56037332D01*
X167034103Y-56037341D01*
X166999500Y-56211304D01*
X166999500Y-56388695D01*
X167034103Y-56562658D01*
X167034106Y-56562667D01*
X167101983Y-56726540D01*
X167101990Y-56726553D01*
X167200535Y-56874034D01*
X167200538Y-56874038D01*
X167325961Y-56999461D01*
X167325965Y-56999464D01*
X167473446Y-57098009D01*
X167473459Y-57098016D01*
X167584684Y-57144086D01*
X167637334Y-57165894D01*
X167637336Y-57165894D01*
X167637341Y-57165896D01*
X167811304Y-57200499D01*
X167811307Y-57200500D01*
X167811309Y-57200500D01*
X167988693Y-57200500D01*
X167988694Y-57200499D01*
X168071124Y-57184103D01*
X168162658Y-57165896D01*
X168162661Y-57165894D01*
X168162666Y-57165894D01*
X168326547Y-57098013D01*
X168474035Y-56999464D01*
X168599464Y-56874035D01*
X168698013Y-56726547D01*
X168765894Y-56562666D01*
X168800500Y-56388691D01*
X168800500Y-56267993D01*
X168820185Y-56200954D01*
X168872989Y-56155199D01*
X168942147Y-56145255D01*
X169005703Y-56174280D01*
X169012181Y-56180312D01*
X176469275Y-63637407D01*
X176469279Y-63637410D01*
X176572048Y-63706079D01*
X176572061Y-63706086D01*
X176686248Y-63753383D01*
X176686253Y-63753385D01*
X176686257Y-63753385D01*
X176686258Y-63753386D01*
X176807481Y-63777500D01*
X176807484Y-63777500D01*
X176807485Y-63777500D01*
X177077639Y-63777500D01*
X177144678Y-63797185D01*
X177165321Y-63813820D01*
X177200961Y-63849461D01*
X177200965Y-63849464D01*
X177348446Y-63948009D01*
X177348459Y-63948016D01*
X177471363Y-63998923D01*
X177512334Y-64015894D01*
X177512336Y-64015894D01*
X177512341Y-64015896D01*
X177686304Y-64050499D01*
X177686307Y-64050500D01*
X177686309Y-64050500D01*
X177863693Y-64050500D01*
X177863694Y-64050499D01*
X177921682Y-64038964D01*
X178037658Y-64015896D01*
X178037661Y-64015894D01*
X178037666Y-64015894D01*
X178201547Y-63948013D01*
X178349035Y-63849464D01*
X178474464Y-63724035D01*
X178573013Y-63576547D01*
X178640894Y-63412666D01*
X178650840Y-63362667D01*
X178663964Y-63296682D01*
X178675500Y-63238691D01*
X178675500Y-63061309D01*
X178675500Y-63061306D01*
X178675499Y-63061304D01*
X178640896Y-62887341D01*
X178640893Y-62887332D01*
X178639819Y-62884740D01*
X178615718Y-62826553D01*
X178573016Y-62723459D01*
X178573009Y-62723446D01*
X178474464Y-62575965D01*
X178474461Y-62575961D01*
X178349038Y-62450538D01*
X178349034Y-62450535D01*
X178201553Y-62351990D01*
X178201540Y-62351983D01*
X178037667Y-62284106D01*
X178037659Y-62284104D01*
X177924726Y-62261640D01*
X177862815Y-62229255D01*
X177828241Y-62168539D01*
X177824918Y-62140023D01*
X177824918Y-62086888D01*
X177824917Y-62086886D01*
X177790314Y-61912923D01*
X177790311Y-61912914D01*
X177722434Y-61749041D01*
X177722427Y-61749028D01*
X177623882Y-61601547D01*
X177623879Y-61601543D01*
X177498456Y-61476120D01*
X177498452Y-61476117D01*
X177350971Y-61377572D01*
X177350958Y-61377565D01*
X177187085Y-61309688D01*
X177187076Y-61309685D01*
X177013112Y-61275082D01*
X177013109Y-61275082D01*
X176835727Y-61275082D01*
X176835724Y-61275082D01*
X176661759Y-61309685D01*
X176661750Y-61309688D01*
X176497877Y-61377565D01*
X176497864Y-61377572D01*
X176350383Y-61476117D01*
X176350378Y-61476121D01*
X176304283Y-61522216D01*
X176242960Y-61555700D01*
X176173268Y-61550715D01*
X176128922Y-61522215D01*
X175286952Y-60680245D01*
X178543441Y-60680245D01*
X178543441Y-60857636D01*
X178578044Y-61031599D01*
X178578047Y-61031608D01*
X178645924Y-61195481D01*
X178645931Y-61195494D01*
X178744476Y-61342975D01*
X178744479Y-61342979D01*
X178869902Y-61468402D01*
X178869906Y-61468405D01*
X179017387Y-61566950D01*
X179017400Y-61566957D01*
X179100924Y-61601553D01*
X179181275Y-61634835D01*
X179181277Y-61634835D01*
X179181282Y-61634837D01*
X179355245Y-61669440D01*
X179355248Y-61669441D01*
X179355250Y-61669441D01*
X179532633Y-61669441D01*
X179546035Y-61666774D01*
X179605803Y-61654886D01*
X179675392Y-61661112D01*
X179730570Y-61703975D01*
X179753815Y-61769864D01*
X179751611Y-61800689D01*
X179749500Y-61811301D01*
X179749500Y-61988695D01*
X179784103Y-62162658D01*
X179784106Y-62162667D01*
X179851983Y-62326540D01*
X179851990Y-62326553D01*
X179950535Y-62474034D01*
X179950538Y-62474038D01*
X180075961Y-62599461D01*
X180075965Y-62599464D01*
X180223446Y-62698009D01*
X180223459Y-62698016D01*
X180346363Y-62748923D01*
X180387334Y-62765894D01*
X180387336Y-62765894D01*
X180387341Y-62765896D01*
X180516765Y-62791640D01*
X180578676Y-62824025D01*
X180613250Y-62884740D01*
X180614191Y-62937448D01*
X180599500Y-63011304D01*
X180599500Y-63188695D01*
X180634103Y-63362658D01*
X180634106Y-63362667D01*
X180701983Y-63526540D01*
X180701990Y-63526553D01*
X180800535Y-63674034D01*
X180800538Y-63674038D01*
X180925961Y-63799461D01*
X180925965Y-63799464D01*
X181073446Y-63898009D01*
X181073459Y-63898016D01*
X181194155Y-63948009D01*
X181237334Y-63965894D01*
X181237336Y-63965894D01*
X181237341Y-63965896D01*
X181411304Y-64000499D01*
X181411307Y-64000500D01*
X181411309Y-64000500D01*
X181588693Y-64000500D01*
X181588694Y-64000499D01*
X181646682Y-63988964D01*
X181762658Y-63965896D01*
X181762661Y-63965894D01*
X181762666Y-63965894D01*
X181926547Y-63898013D01*
X182074035Y-63799464D01*
X182199464Y-63674035D01*
X182298013Y-63526547D01*
X182365894Y-63362666D01*
X182375636Y-63313693D01*
X182388964Y-63246682D01*
X182400500Y-63188691D01*
X182400500Y-63011309D01*
X182400500Y-63011306D01*
X182400499Y-63011304D01*
X182365896Y-62837341D01*
X182365893Y-62837332D01*
X182298016Y-62673459D01*
X182298009Y-62673446D01*
X182199464Y-62525965D01*
X182199461Y-62525961D01*
X182074038Y-62400538D01*
X182074034Y-62400535D01*
X181926553Y-62301990D01*
X181926540Y-62301983D01*
X181762667Y-62234106D01*
X181762659Y-62234104D01*
X181633233Y-62208359D01*
X181571322Y-62175974D01*
X181536748Y-62115258D01*
X181535808Y-62062550D01*
X181550500Y-61988691D01*
X181550500Y-61811309D01*
X181550500Y-61811306D01*
X181550499Y-61811304D01*
X181515896Y-61637341D01*
X181515893Y-61637332D01*
X181448015Y-61473457D01*
X181448014Y-61473455D01*
X181411498Y-61418805D01*
X181405524Y-61399727D01*
X181395018Y-61382718D01*
X181395297Y-61367065D01*
X181390620Y-61352127D01*
X181395908Y-61332848D01*
X181396266Y-61312860D01*
X181408282Y-61287744D01*
X181409105Y-61284747D01*
X181411474Y-61281060D01*
X181465813Y-61199737D01*
X181482350Y-61174989D01*
X181498008Y-61151555D01*
X181498009Y-61151552D01*
X181498013Y-61151547D01*
X181565894Y-60987666D01*
X181567115Y-60981532D01*
X181591759Y-60857636D01*
X181600500Y-60813691D01*
X181600500Y-60636309D01*
X181600500Y-60636306D01*
X181600499Y-60636304D01*
X181565896Y-60462341D01*
X181565893Y-60462332D01*
X181563740Y-60457135D01*
X181530544Y-60376990D01*
X181498016Y-60298459D01*
X181498009Y-60298446D01*
X181399464Y-60150965D01*
X181399461Y-60150961D01*
X181274038Y-60025538D01*
X181274034Y-60025535D01*
X181126553Y-59926990D01*
X181126540Y-59926983D01*
X180962667Y-59859106D01*
X180962658Y-59859103D01*
X180788694Y-59824500D01*
X180788691Y-59824500D01*
X180611309Y-59824500D01*
X180611306Y-59824500D01*
X180437341Y-59859103D01*
X180437332Y-59859106D01*
X180273459Y-59926983D01*
X180273446Y-59926990D01*
X180125965Y-60025535D01*
X180121255Y-60029401D01*
X180119917Y-60027771D01*
X180066973Y-60056664D01*
X179997283Y-60051662D01*
X179971758Y-60038595D01*
X179870488Y-59970928D01*
X179870481Y-59970924D01*
X179706608Y-59903047D01*
X179706599Y-59903044D01*
X179532635Y-59868441D01*
X179532632Y-59868441D01*
X179355250Y-59868441D01*
X179355247Y-59868441D01*
X179181282Y-59903044D01*
X179181273Y-59903047D01*
X179017400Y-59970924D01*
X179017387Y-59970931D01*
X178869906Y-60069476D01*
X178869902Y-60069479D01*
X178744479Y-60194902D01*
X178744476Y-60194906D01*
X178645931Y-60342387D01*
X178645924Y-60342400D01*
X178578047Y-60506273D01*
X178578044Y-60506282D01*
X178543441Y-60680245D01*
X175286952Y-60680245D01*
X174915284Y-60308577D01*
X174881799Y-60247254D01*
X174886783Y-60177562D01*
X174915285Y-60133214D01*
X174961379Y-60087120D01*
X174961382Y-60087117D01*
X175059931Y-59939629D01*
X175127812Y-59775748D01*
X175138600Y-59721517D01*
X175159466Y-59616615D01*
X175162418Y-59601773D01*
X175162418Y-59424391D01*
X175162418Y-59424388D01*
X175162417Y-59424386D01*
X175127814Y-59250423D01*
X175127811Y-59250414D01*
X175059934Y-59086541D01*
X175059927Y-59086528D01*
X174961382Y-58939047D01*
X174961379Y-58939043D01*
X174835956Y-58813620D01*
X174835952Y-58813617D01*
X174688471Y-58715072D01*
X174688458Y-58715065D01*
X174524585Y-58647188D01*
X174524576Y-58647185D01*
X174350612Y-58612582D01*
X174350609Y-58612582D01*
X174173227Y-58612582D01*
X174173224Y-58612582D01*
X173999259Y-58647185D01*
X173999250Y-58647188D01*
X173835377Y-58715065D01*
X173835364Y-58715072D01*
X173687883Y-58813617D01*
X173687878Y-58813621D01*
X173641783Y-58859716D01*
X173580460Y-58893200D01*
X173510768Y-58888215D01*
X173466422Y-58859715D01*
X166768888Y-52162181D01*
X166735403Y-52100858D01*
X166740387Y-52031166D01*
X166782259Y-51975233D01*
X166847723Y-51950816D01*
X166856569Y-51950500D01*
X167036286Y-51950500D01*
X167036287Y-51950500D01*
X167246243Y-51917246D01*
X167448412Y-51851557D01*
X167637816Y-51755051D01*
X167659789Y-51739086D01*
X167809786Y-51630109D01*
X167809788Y-51630106D01*
X167809792Y-51630104D01*
X167960104Y-51479792D01*
X167960106Y-51479788D01*
X167960109Y-51479786D01*
X168085048Y-51307820D01*
X168085050Y-51307817D01*
X168085051Y-51307816D01*
X168089514Y-51299054D01*
X168137488Y-51248259D01*
X168205308Y-51231463D01*
X168271444Y-51253999D01*
X168310484Y-51299054D01*
X168314591Y-51307115D01*
X168314951Y-51307820D01*
X168439890Y-51479786D01*
X168590213Y-51630109D01*
X168762179Y-51755048D01*
X168762181Y-51755049D01*
X168762184Y-51755051D01*
X168951588Y-51851557D01*
X169153757Y-51917246D01*
X169162306Y-51918600D01*
X169225439Y-51948527D01*
X169262372Y-52007838D01*
X169261376Y-52077700D01*
X169222768Y-52135934D01*
X169201364Y-52150430D01*
X169198455Y-52151984D01*
X169050965Y-52250535D01*
X169050961Y-52250538D01*
X168925538Y-52375961D01*
X168925535Y-52375965D01*
X168826990Y-52523446D01*
X168826983Y-52523459D01*
X168759106Y-52687332D01*
X168759103Y-52687341D01*
X168724500Y-52861304D01*
X168724500Y-53038695D01*
X168759103Y-53212658D01*
X168759106Y-53212667D01*
X168826983Y-53376540D01*
X168826990Y-53376553D01*
X168925535Y-53524034D01*
X168925538Y-53524038D01*
X169050961Y-53649461D01*
X169050965Y-53649464D01*
X169198446Y-53748009D01*
X169198459Y-53748016D01*
X169290672Y-53786211D01*
X169362334Y-53815894D01*
X169362336Y-53815894D01*
X169362341Y-53815896D01*
X169536304Y-53850499D01*
X169536307Y-53850500D01*
X169536309Y-53850500D01*
X169713693Y-53850500D01*
X169713694Y-53850499D01*
X169771682Y-53838964D01*
X169887658Y-53815896D01*
X169887661Y-53815894D01*
X169887666Y-53815894D01*
X170001683Y-53768666D01*
X170071152Y-53761198D01*
X170133631Y-53792473D01*
X170152237Y-53814337D01*
X170225535Y-53924034D01*
X170225538Y-53924038D01*
X170350961Y-54049461D01*
X170350965Y-54049464D01*
X170498446Y-54148009D01*
X170498459Y-54148016D01*
X170621363Y-54198923D01*
X170662334Y-54215894D01*
X170662336Y-54215894D01*
X170662341Y-54215896D01*
X170836304Y-54250499D01*
X170836307Y-54250500D01*
X170836309Y-54250500D01*
X171013693Y-54250500D01*
X171013694Y-54250499D01*
X171071682Y-54238964D01*
X171187658Y-54215896D01*
X171187661Y-54215894D01*
X171187666Y-54215894D01*
X171351547Y-54148013D01*
X171374384Y-54132754D01*
X171504100Y-54046080D01*
X171505363Y-54047970D01*
X171560298Y-54024605D01*
X171629172Y-54036361D01*
X171643602Y-54044658D01*
X171723453Y-54098013D01*
X171723455Y-54098014D01*
X171723459Y-54098016D01*
X171807326Y-54132754D01*
X171887334Y-54165894D01*
X171887336Y-54165894D01*
X171887341Y-54165896D01*
X172061304Y-54200499D01*
X172061307Y-54200500D01*
X172061309Y-54200500D01*
X172238693Y-54200500D01*
X172238694Y-54200499D01*
X172296682Y-54188964D01*
X172412658Y-54165896D01*
X172412661Y-54165894D01*
X172412666Y-54165894D01*
X172576547Y-54098013D01*
X172724035Y-53999464D01*
X172849464Y-53874035D01*
X172876453Y-53833642D01*
X172892618Y-53820132D01*
X172905245Y-53803266D01*
X172918888Y-53798177D01*
X172930063Y-53788838D01*
X172950969Y-53786211D01*
X172970709Y-53778849D01*
X172984937Y-53781944D01*
X172999388Y-53780129D01*
X173018395Y-53789222D01*
X173038982Y-53793701D01*
X173058860Y-53808581D01*
X173062416Y-53810283D01*
X173067236Y-53814852D01*
X173198190Y-53945806D01*
X173231675Y-54007129D01*
X173226691Y-54076821D01*
X173184819Y-54132754D01*
X173157962Y-54148048D01*
X173148456Y-54151985D01*
X173148446Y-54151990D01*
X173000965Y-54250535D01*
X173000961Y-54250538D01*
X172875538Y-54375961D01*
X172875535Y-54375965D01*
X172776990Y-54523446D01*
X172776983Y-54523459D01*
X172709106Y-54687332D01*
X172709103Y-54687341D01*
X172674500Y-54861304D01*
X172674500Y-55038695D01*
X172709103Y-55212658D01*
X172709106Y-55212667D01*
X172776983Y-55376540D01*
X172776990Y-55376553D01*
X172875535Y-55524034D01*
X172875538Y-55524038D01*
X173000961Y-55649461D01*
X173000965Y-55649464D01*
X173148446Y-55748009D01*
X173148459Y-55748016D01*
X173237782Y-55785014D01*
X173312334Y-55815894D01*
X173312336Y-55815894D01*
X173312341Y-55815896D01*
X173486304Y-55850499D01*
X173486307Y-55850500D01*
X173486309Y-55850500D01*
X173663693Y-55850500D01*
X173663694Y-55850499D01*
X173721682Y-55838964D01*
X173837658Y-55815896D01*
X173837661Y-55815894D01*
X173837666Y-55815894D01*
X174001547Y-55748013D01*
X174149035Y-55649464D01*
X174274464Y-55524035D01*
X174373013Y-55376547D01*
X174376949Y-55367042D01*
X174397540Y-55341486D01*
X174417202Y-55315223D01*
X174419346Y-55314423D01*
X174420784Y-55312639D01*
X174451930Y-55302269D01*
X174482666Y-55290806D01*
X174484903Y-55291292D01*
X174487077Y-55290569D01*
X174518886Y-55298685D01*
X174550939Y-55305658D01*
X174553382Y-55307487D01*
X174554777Y-55307843D01*
X174579193Y-55326809D01*
X174665052Y-55412668D01*
X174698537Y-55473991D01*
X174693553Y-55543683D01*
X174651681Y-55599616D01*
X174646262Y-55603451D01*
X174500965Y-55700535D01*
X174500961Y-55700538D01*
X174375538Y-55825961D01*
X174375535Y-55825965D01*
X174276990Y-55973446D01*
X174276983Y-55973459D01*
X174209106Y-56137332D01*
X174209103Y-56137341D01*
X174174500Y-56311304D01*
X174174500Y-56488695D01*
X174209103Y-56662658D01*
X174209106Y-56662667D01*
X174276983Y-56826540D01*
X174276990Y-56826553D01*
X174375535Y-56974034D01*
X174375538Y-56974038D01*
X174500962Y-57099462D01*
X174500965Y-57099464D01*
X174567750Y-57144088D01*
X174612553Y-57197698D01*
X174622858Y-57247189D01*
X174622858Y-57382548D01*
X174657461Y-57556511D01*
X174657464Y-57556520D01*
X174725341Y-57720393D01*
X174725348Y-57720406D01*
X174823893Y-57867887D01*
X174823896Y-57867891D01*
X174949319Y-57993314D01*
X174949323Y-57993317D01*
X175096804Y-58091862D01*
X175096817Y-58091869D01*
X175209867Y-58138695D01*
X175260692Y-58159747D01*
X175260694Y-58159747D01*
X175260699Y-58159749D01*
X175434662Y-58194352D01*
X175434665Y-58194353D01*
X175434667Y-58194353D01*
X175612051Y-58194353D01*
X175612052Y-58194352D01*
X175786024Y-58159747D01*
X175795805Y-58155695D01*
X175807444Y-58154443D01*
X175817763Y-58148904D01*
X175841548Y-58150775D01*
X175865269Y-58148224D01*
X175877511Y-58153604D01*
X175887418Y-58154384D01*
X175904579Y-58165500D01*
X175918273Y-58171519D01*
X175924982Y-58176616D01*
X175931201Y-58182835D01*
X175947516Y-58193736D01*
X175950514Y-58196014D01*
X175969101Y-58221215D01*
X175989195Y-58245257D01*
X175990123Y-58249717D01*
X175991987Y-58252244D01*
X175992585Y-58261541D01*
X175999500Y-58294750D01*
X175999500Y-58313695D01*
X176034103Y-58487658D01*
X176034106Y-58487667D01*
X176101983Y-58651540D01*
X176101990Y-58651553D01*
X176200535Y-58799034D01*
X176200538Y-58799038D01*
X176325961Y-58924461D01*
X176325965Y-58924464D01*
X176473446Y-59023009D01*
X176473459Y-59023016D01*
X176596363Y-59073923D01*
X176637334Y-59090894D01*
X176637336Y-59090894D01*
X176637341Y-59090896D01*
X176811304Y-59125499D01*
X176811307Y-59125500D01*
X176911454Y-59125500D01*
X176978493Y-59145185D01*
X177024248Y-59197989D01*
X177026015Y-59202047D01*
X177044867Y-59247560D01*
X177044872Y-59247570D01*
X177143417Y-59395051D01*
X177143420Y-59395055D01*
X177268843Y-59520478D01*
X177268847Y-59520481D01*
X177416328Y-59619026D01*
X177416341Y-59619033D01*
X177539245Y-59669940D01*
X177580216Y-59686911D01*
X177580218Y-59686911D01*
X177580223Y-59686913D01*
X177754186Y-59721516D01*
X177754189Y-59721517D01*
X177754191Y-59721517D01*
X177931575Y-59721517D01*
X177931576Y-59721516D01*
X177989564Y-59709981D01*
X178105540Y-59686913D01*
X178105543Y-59686911D01*
X178105548Y-59686911D01*
X178269429Y-59619030D01*
X178416917Y-59520481D01*
X178542346Y-59395052D01*
X178640895Y-59247564D01*
X178708776Y-59083683D01*
X178720055Y-59026983D01*
X178742151Y-58915896D01*
X178743382Y-58909708D01*
X178743382Y-58790252D01*
X178763067Y-58723213D01*
X178815871Y-58677458D01*
X178885029Y-58667514D01*
X178948585Y-58696539D01*
X178981943Y-58742800D01*
X179026983Y-58851541D01*
X179026990Y-58851553D01*
X179125535Y-58999034D01*
X179125538Y-58999038D01*
X179250961Y-59124461D01*
X179250965Y-59124464D01*
X179398446Y-59223009D01*
X179398459Y-59223016D01*
X179521363Y-59273923D01*
X179562334Y-59290894D01*
X179562336Y-59290894D01*
X179562341Y-59290896D01*
X179736304Y-59325499D01*
X179736307Y-59325500D01*
X179736309Y-59325500D01*
X179913693Y-59325500D01*
X179913694Y-59325499D01*
X179971682Y-59313964D01*
X180087658Y-59290896D01*
X180087661Y-59290894D01*
X180087666Y-59290894D01*
X180238551Y-59228396D01*
X180251540Y-59223016D01*
X180251540Y-59223015D01*
X180251547Y-59223013D01*
X180399035Y-59124464D01*
X180524464Y-58999035D01*
X180623013Y-58851547D01*
X180624479Y-58848009D01*
X180638723Y-58813620D01*
X180690894Y-58687666D01*
X180693606Y-58674035D01*
X180713964Y-58571682D01*
X180725500Y-58513691D01*
X180725500Y-58336309D01*
X180725500Y-58336306D01*
X180725499Y-58336304D01*
X180690896Y-58162341D01*
X180690893Y-58162332D01*
X180685049Y-58148224D01*
X180641423Y-58042898D01*
X180628337Y-58011304D01*
X181174500Y-58011304D01*
X181174500Y-58188695D01*
X181209103Y-58362658D01*
X181209106Y-58362667D01*
X181276983Y-58526540D01*
X181276990Y-58526553D01*
X181375535Y-58674034D01*
X181375538Y-58674038D01*
X181500961Y-58799461D01*
X181500965Y-58799464D01*
X181648446Y-58898009D01*
X181648459Y-58898016D01*
X181712305Y-58924461D01*
X181812334Y-58965894D01*
X181859318Y-58975239D01*
X181921227Y-59007622D01*
X181922807Y-59009175D01*
X182311586Y-59397954D01*
X182337839Y-59415495D01*
X182385270Y-59447186D01*
X182434505Y-59480084D01*
X182469543Y-59494597D01*
X182571088Y-59536659D01*
X182687241Y-59559763D01*
X182706468Y-59563587D01*
X182716081Y-59565500D01*
X182716082Y-59565500D01*
X182716083Y-59565500D01*
X182863918Y-59565500D01*
X182987779Y-59565500D01*
X183054818Y-59585185D01*
X183088097Y-59616615D01*
X183144892Y-59694788D01*
X183295213Y-59845109D01*
X183467179Y-59970048D01*
X183467181Y-59970049D01*
X183467184Y-59970051D01*
X183476493Y-59974794D01*
X183527290Y-60022766D01*
X183544087Y-60090587D01*
X183521552Y-60156722D01*
X183476505Y-60195760D01*
X183467446Y-60200376D01*
X183467440Y-60200380D01*
X183413282Y-60239727D01*
X183413282Y-60239728D01*
X184045591Y-60872037D01*
X183982007Y-60889075D01*
X183867993Y-60954901D01*
X183774901Y-61047993D01*
X183709075Y-61162007D01*
X183692037Y-61225591D01*
X183059728Y-60593282D01*
X183059727Y-60593282D01*
X183020380Y-60647439D01*
X182923904Y-60836782D01*
X182858242Y-61038869D01*
X182858242Y-61038872D01*
X182825000Y-61248753D01*
X182825000Y-61461246D01*
X182858242Y-61671127D01*
X182858242Y-61671130D01*
X182923904Y-61873217D01*
X183020375Y-62062550D01*
X183059728Y-62116716D01*
X183692037Y-61484408D01*
X183709075Y-61547993D01*
X183774901Y-61662007D01*
X183867993Y-61755099D01*
X183982007Y-61820925D01*
X184045590Y-61837962D01*
X183413282Y-62470269D01*
X183413282Y-62470270D01*
X183467449Y-62509624D01*
X183656782Y-62606095D01*
X183858870Y-62671757D01*
X184068754Y-62705000D01*
X184281246Y-62705000D01*
X184491127Y-62671757D01*
X184491130Y-62671757D01*
X184693217Y-62606095D01*
X184882554Y-62509622D01*
X184936716Y-62470270D01*
X184936717Y-62470270D01*
X184304408Y-61837962D01*
X184367993Y-61820925D01*
X184482007Y-61755099D01*
X184575099Y-61662007D01*
X184640925Y-61547993D01*
X184657962Y-61484408D01*
X185328181Y-62154628D01*
X185361666Y-62215951D01*
X185364500Y-62242300D01*
X185364500Y-62252865D01*
X185364501Y-62252876D01*
X185370908Y-62312483D01*
X185421202Y-62447328D01*
X185421206Y-62447335D01*
X185507452Y-62562544D01*
X185507455Y-62562547D01*
X185622664Y-62648793D01*
X185622671Y-62648797D01*
X185757517Y-62699091D01*
X185757516Y-62699091D01*
X185764444Y-62699835D01*
X185817127Y-62705500D01*
X187612872Y-62705499D01*
X187672483Y-62699091D01*
X187807331Y-62648796D01*
X187922546Y-62562546D01*
X188008796Y-62447331D01*
X188059091Y-62312483D01*
X188065500Y-62252873D01*
X188065499Y-60457128D01*
X188059091Y-60397517D01*
X188051432Y-60376983D01*
X188008797Y-60262671D01*
X188008793Y-60262664D01*
X187922547Y-60147455D01*
X187922544Y-60147452D01*
X187807335Y-60061206D01*
X187807328Y-60061202D01*
X187675917Y-60012189D01*
X187619983Y-59970318D01*
X187595566Y-59904853D01*
X187610418Y-59836580D01*
X187631563Y-59808332D01*
X187745104Y-59694792D01*
X187750829Y-59686913D01*
X187843209Y-59559761D01*
X187870051Y-59522816D01*
X187966557Y-59333412D01*
X188032246Y-59131243D01*
X188065500Y-58921287D01*
X188065500Y-58708713D01*
X188032246Y-58498757D01*
X187966557Y-58296588D01*
X187870051Y-58107184D01*
X187870049Y-58107181D01*
X187870048Y-58107179D01*
X187745109Y-57935213D01*
X187594786Y-57784890D01*
X187422817Y-57659949D01*
X187413501Y-57655202D01*
X187362707Y-57607227D01*
X187345913Y-57539405D01*
X187368452Y-57473271D01*
X187413511Y-57434231D01*
X187422553Y-57429624D01*
X187476716Y-57390271D01*
X187476717Y-57390271D01*
X186844408Y-56757963D01*
X186907993Y-56740926D01*
X187022007Y-56675100D01*
X187115099Y-56582008D01*
X187180925Y-56467994D01*
X187197962Y-56404409D01*
X187830270Y-57036718D01*
X187830270Y-57036717D01*
X187869622Y-56982555D01*
X187966095Y-56793218D01*
X188031757Y-56591131D01*
X188031757Y-56591128D01*
X188065000Y-56381247D01*
X188065000Y-56168754D01*
X188031757Y-55958873D01*
X188031757Y-55958870D01*
X187966095Y-55756783D01*
X187869624Y-55567450D01*
X187830270Y-55513283D01*
X187830269Y-55513283D01*
X187197962Y-56145591D01*
X187180925Y-56082008D01*
X187115099Y-55967994D01*
X187022007Y-55874902D01*
X186907993Y-55809076D01*
X186844409Y-55792038D01*
X187476716Y-55159729D01*
X187422550Y-55120376D01*
X187233217Y-55023905D01*
X187031129Y-54958243D01*
X186821246Y-54925001D01*
X186608754Y-54925001D01*
X186398872Y-54958243D01*
X186398869Y-54958243D01*
X186196782Y-55023905D01*
X186007439Y-55120381D01*
X185953282Y-55159728D01*
X185953282Y-55159729D01*
X186585591Y-55792038D01*
X186522007Y-55809076D01*
X186407993Y-55874902D01*
X186314901Y-55967994D01*
X186249075Y-56082008D01*
X186232037Y-56145591D01*
X185599728Y-55513283D01*
X185599727Y-55513283D01*
X185560380Y-55567441D01*
X185560377Y-55567445D01*
X185555764Y-55576500D01*
X185507789Y-55627294D01*
X185439967Y-55644088D01*
X185373833Y-55621549D01*
X185334796Y-55576496D01*
X185330050Y-55567182D01*
X185205109Y-55395213D01*
X185054786Y-55244890D01*
X184882820Y-55119951D01*
X184693414Y-55023444D01*
X184693413Y-55023443D01*
X184693412Y-55023443D01*
X184491243Y-54957754D01*
X184491241Y-54957753D01*
X184491240Y-54957753D01*
X184329957Y-54932208D01*
X184281287Y-54924500D01*
X184068713Y-54924500D01*
X184020042Y-54932208D01*
X183858760Y-54957753D01*
X183656585Y-55023444D01*
X183467179Y-55119951D01*
X183295213Y-55244890D01*
X183144890Y-55395213D01*
X183019951Y-55567179D01*
X182923444Y-55756585D01*
X182857753Y-55958760D01*
X182824500Y-56168713D01*
X182824500Y-56381286D01*
X182857735Y-56591128D01*
X182857754Y-56591243D01*
X182920355Y-56783909D01*
X182923444Y-56793414D01*
X183019951Y-56982820D01*
X183144890Y-57154786D01*
X183295213Y-57305109D01*
X183467182Y-57430050D01*
X183475946Y-57434516D01*
X183526742Y-57482491D01*
X183543536Y-57550312D01*
X183520998Y-57616447D01*
X183475946Y-57655484D01*
X183467182Y-57659949D01*
X183295215Y-57784889D01*
X183155018Y-57925086D01*
X183093695Y-57958570D01*
X183024003Y-57953586D01*
X182968070Y-57911714D01*
X182945720Y-57861596D01*
X182940894Y-57837334D01*
X182894587Y-57725538D01*
X182873016Y-57673459D01*
X182873009Y-57673446D01*
X182774464Y-57525965D01*
X182774461Y-57525961D01*
X182649038Y-57400538D01*
X182649034Y-57400535D01*
X182501553Y-57301990D01*
X182501540Y-57301983D01*
X182337667Y-57234106D01*
X182337658Y-57234103D01*
X182163694Y-57199500D01*
X182163691Y-57199500D01*
X181986309Y-57199500D01*
X181986306Y-57199500D01*
X181812341Y-57234103D01*
X181812332Y-57234106D01*
X181648459Y-57301983D01*
X181648446Y-57301990D01*
X181500965Y-57400535D01*
X181500961Y-57400538D01*
X181375538Y-57525961D01*
X181375535Y-57525965D01*
X181276990Y-57673446D01*
X181276983Y-57673459D01*
X181209106Y-57837332D01*
X181209103Y-57837341D01*
X181174500Y-58011304D01*
X180628337Y-58011304D01*
X180623016Y-57998458D01*
X180623009Y-57998446D01*
X180524464Y-57850965D01*
X180524461Y-57850961D01*
X180399038Y-57725538D01*
X180399034Y-57725535D01*
X180251553Y-57626990D01*
X180251540Y-57626983D01*
X180087667Y-57559106D01*
X180087658Y-57559103D01*
X179913694Y-57524500D01*
X179913691Y-57524500D01*
X179736309Y-57524500D01*
X179734149Y-57524500D01*
X179667110Y-57504815D01*
X179621355Y-57452011D01*
X179612531Y-57424690D01*
X179605101Y-57387334D01*
X179569751Y-57301990D01*
X179537223Y-57223459D01*
X179537216Y-57223446D01*
X179438672Y-57075966D01*
X179438671Y-57075965D01*
X179410557Y-57047851D01*
X179377073Y-56986531D01*
X179376647Y-56984486D01*
X179364708Y-56924463D01*
X179315672Y-56806080D01*
X179307208Y-56793412D01*
X179244484Y-56699538D01*
X179244482Y-56699536D01*
X179244480Y-56699533D01*
X179244479Y-56699532D01*
X174689521Y-52144575D01*
X174656036Y-52083252D01*
X174661020Y-52013560D01*
X174702892Y-51957627D01*
X174757803Y-51934421D01*
X174866243Y-51917246D01*
X175068412Y-51851557D01*
X175257816Y-51755051D01*
X175279789Y-51739086D01*
X175429786Y-51630109D01*
X175429788Y-51630106D01*
X175429792Y-51630104D01*
X175580104Y-51479792D01*
X175580106Y-51479788D01*
X175580109Y-51479786D01*
X175705048Y-51307820D01*
X175705050Y-51307817D01*
X175705051Y-51307816D01*
X175801557Y-51118412D01*
X175867246Y-50916243D01*
X175900500Y-50706287D01*
X175900500Y-50493713D01*
X175867246Y-50283757D01*
X175801557Y-50081588D01*
X175725318Y-49931961D01*
X175709774Y-49901453D01*
X175705049Y-49892180D01*
X175673835Y-49849217D01*
X182699500Y-49849217D01*
X182699500Y-50150783D01*
X182699500Y-50150789D01*
X182699501Y-50150793D01*
X182738861Y-50449766D01*
X182816913Y-50741060D01*
X182932314Y-51019661D01*
X182932318Y-51019671D01*
X183083099Y-51280831D01*
X183266679Y-51520078D01*
X183266685Y-51520085D01*
X183479914Y-51733314D01*
X183479921Y-51733320D01*
X183719168Y-51916900D01*
X183980328Y-52067681D01*
X183980329Y-52067681D01*
X183980332Y-52067683D01*
X184145105Y-52135934D01*
X184258939Y-52183086D01*
X184258940Y-52183086D01*
X184258942Y-52183087D01*
X184550232Y-52261138D01*
X184849217Y-52300500D01*
X184849224Y-52300500D01*
X185150776Y-52300500D01*
X185150783Y-52300500D01*
X185449768Y-52261138D01*
X185741058Y-52183087D01*
X186019668Y-52067683D01*
X186280832Y-51916900D01*
X186520080Y-51733319D01*
X186733319Y-51520080D01*
X186916900Y-51280832D01*
X187067683Y-51019668D01*
X187183087Y-50741058D01*
X187261138Y-50449768D01*
X187300500Y-50150783D01*
X187300500Y-49849217D01*
X187261138Y-49550232D01*
X187183087Y-49258942D01*
X187166755Y-49219514D01*
X187138062Y-49150241D01*
X187067683Y-48980332D01*
X186916900Y-48719168D01*
X186808896Y-48578414D01*
X186733320Y-48479921D01*
X186733314Y-48479914D01*
X186520085Y-48266685D01*
X186520078Y-48266679D01*
X186280831Y-48083099D01*
X186019671Y-47932318D01*
X186019661Y-47932314D01*
X185741060Y-47816913D01*
X185449766Y-47738861D01*
X185150793Y-47699501D01*
X185150788Y-47699500D01*
X185150783Y-47699500D01*
X184849217Y-47699500D01*
X184849211Y-47699500D01*
X184849206Y-47699501D01*
X184550233Y-47738861D01*
X184258939Y-47816913D01*
X183980338Y-47932314D01*
X183980328Y-47932318D01*
X183719168Y-48083099D01*
X183479921Y-48266679D01*
X183479914Y-48266685D01*
X183266685Y-48479914D01*
X183266679Y-48479921D01*
X183083099Y-48719168D01*
X182932318Y-48980328D01*
X182932314Y-48980338D01*
X182816913Y-49258939D01*
X182738861Y-49550233D01*
X182701364Y-49835055D01*
X182699500Y-49849217D01*
X175673835Y-49849217D01*
X175580109Y-49720213D01*
X175429786Y-49569890D01*
X175257820Y-49444951D01*
X175257115Y-49444591D01*
X175249054Y-49440485D01*
X175198259Y-49392512D01*
X175181463Y-49324692D01*
X175203999Y-49258556D01*
X175249054Y-49219515D01*
X175257816Y-49215051D01*
X175347020Y-49150241D01*
X175429786Y-49090109D01*
X175429788Y-49090106D01*
X175429792Y-49090104D01*
X175580104Y-48939792D01*
X175580106Y-48939788D01*
X175580109Y-48939786D01*
X175705048Y-48767820D01*
X175705047Y-48767820D01*
X175705051Y-48767816D01*
X175801557Y-48578412D01*
X175867246Y-48376243D01*
X175900500Y-48166287D01*
X175900500Y-47953713D01*
X175867246Y-47743757D01*
X175801557Y-47541588D01*
X175705051Y-47352184D01*
X175705049Y-47352181D01*
X175705048Y-47352179D01*
X175580109Y-47180213D01*
X175429786Y-47029890D01*
X175257820Y-46904951D01*
X175068414Y-46808444D01*
X175068413Y-46808443D01*
X175068412Y-46808443D01*
X174866243Y-46742754D01*
X174866241Y-46742753D01*
X174866240Y-46742753D01*
X174704957Y-46717208D01*
X174656287Y-46709500D01*
X174443713Y-46709500D01*
X174395042Y-46717208D01*
X174233760Y-46742753D01*
X174031585Y-46808444D01*
X173842179Y-46904951D01*
X173670213Y-47029890D01*
X173519890Y-47180213D01*
X173394949Y-47352182D01*
X173390484Y-47360946D01*
X173342509Y-47411742D01*
X173274688Y-47428536D01*
X173208553Y-47405998D01*
X173169516Y-47360946D01*
X173165050Y-47352182D01*
X173040109Y-47180213D01*
X172889786Y-47029890D01*
X172717820Y-46904951D01*
X172528414Y-46808444D01*
X172528413Y-46808443D01*
X172528412Y-46808443D01*
X172326243Y-46742754D01*
X172326241Y-46742753D01*
X172326240Y-46742753D01*
X172164957Y-46717208D01*
X172116287Y-46709500D01*
X171903713Y-46709500D01*
X171855042Y-46717208D01*
X171693760Y-46742753D01*
X171491585Y-46808444D01*
X171302179Y-46904951D01*
X171130213Y-47029890D01*
X170979890Y-47180213D01*
X170854949Y-47352182D01*
X170850484Y-47360946D01*
X170802509Y-47411742D01*
X170734688Y-47428536D01*
X170668553Y-47405998D01*
X170629516Y-47360946D01*
X170625050Y-47352182D01*
X170500109Y-47180213D01*
X170349786Y-47029890D01*
X170177820Y-46904951D01*
X169988414Y-46808444D01*
X169988413Y-46808443D01*
X169988412Y-46808443D01*
X169786243Y-46742754D01*
X169786241Y-46742753D01*
X169786240Y-46742753D01*
X169624957Y-46717208D01*
X169576287Y-46709500D01*
X169363713Y-46709500D01*
X169315042Y-46717208D01*
X169153760Y-46742753D01*
X168951585Y-46808444D01*
X168762179Y-46904951D01*
X168590213Y-47029890D01*
X168439890Y-47180213D01*
X168314949Y-47352182D01*
X168310484Y-47360946D01*
X168262509Y-47411742D01*
X168194688Y-47428536D01*
X168128553Y-47405998D01*
X168089516Y-47360946D01*
X168085050Y-47352182D01*
X167960109Y-47180213D01*
X167809786Y-47029890D01*
X167637820Y-46904951D01*
X167448414Y-46808444D01*
X167448413Y-46808443D01*
X167448412Y-46808443D01*
X167246243Y-46742754D01*
X167246241Y-46742753D01*
X167246240Y-46742753D01*
X167084957Y-46717208D01*
X167036287Y-46709500D01*
X166823713Y-46709500D01*
X166775042Y-46717208D01*
X166613760Y-46742753D01*
X166411585Y-46808444D01*
X166222179Y-46904951D01*
X166050213Y-47029890D01*
X165899890Y-47180213D01*
X165774949Y-47352182D01*
X165770484Y-47360946D01*
X165722509Y-47411742D01*
X165654688Y-47428536D01*
X165588553Y-47405998D01*
X165549516Y-47360946D01*
X165545050Y-47352182D01*
X165420109Y-47180213D01*
X165269786Y-47029890D01*
X165097820Y-46904951D01*
X164908414Y-46808444D01*
X164908413Y-46808443D01*
X164908412Y-46808443D01*
X164706243Y-46742754D01*
X164706241Y-46742753D01*
X164706240Y-46742753D01*
X164544957Y-46717208D01*
X164496287Y-46709500D01*
X164283713Y-46709500D01*
X164235042Y-46717208D01*
X164073760Y-46742753D01*
X163871585Y-46808444D01*
X163682179Y-46904951D01*
X163510213Y-47029890D01*
X163359890Y-47180213D01*
X163234949Y-47352182D01*
X163230484Y-47360946D01*
X163182509Y-47411742D01*
X163114688Y-47428536D01*
X163048553Y-47405998D01*
X163009516Y-47360946D01*
X163005050Y-47352182D01*
X162880109Y-47180213D01*
X162729786Y-47029890D01*
X162557820Y-46904951D01*
X162368414Y-46808444D01*
X162368413Y-46808443D01*
X162368412Y-46808443D01*
X162166243Y-46742754D01*
X162166241Y-46742753D01*
X162166240Y-46742753D01*
X162004957Y-46717208D01*
X161956287Y-46709500D01*
X161743713Y-46709500D01*
X161695042Y-46717208D01*
X161533760Y-46742753D01*
X161331585Y-46808444D01*
X161142179Y-46904951D01*
X160970213Y-47029890D01*
X160819890Y-47180213D01*
X160694949Y-47352182D01*
X160690484Y-47360946D01*
X160642509Y-47411742D01*
X160574688Y-47428536D01*
X160508553Y-47405998D01*
X160469516Y-47360946D01*
X160465050Y-47352182D01*
X160340109Y-47180213D01*
X160189786Y-47029890D01*
X160017820Y-46904951D01*
X159828414Y-46808444D01*
X159828413Y-46808443D01*
X159828412Y-46808443D01*
X159626243Y-46742754D01*
X159626241Y-46742753D01*
X159626240Y-46742753D01*
X159464957Y-46717208D01*
X159416287Y-46709500D01*
X159203713Y-46709500D01*
X159155042Y-46717208D01*
X158993760Y-46742753D01*
X158791585Y-46808444D01*
X158602179Y-46904951D01*
X158430213Y-47029890D01*
X158279890Y-47180213D01*
X158154951Y-47352179D01*
X158058444Y-47541585D01*
X157992753Y-47743760D01*
X157962889Y-47932314D01*
X157959500Y-47953713D01*
X135056728Y-47953713D01*
X135019671Y-47932318D01*
X135019661Y-47932314D01*
X134741060Y-47816913D01*
X134449766Y-47738861D01*
X134150793Y-47699501D01*
X134150788Y-47699500D01*
X134150783Y-47699500D01*
X133849217Y-47699500D01*
X133849211Y-47699500D01*
X133849206Y-47699501D01*
X133550233Y-47738861D01*
X133258939Y-47816913D01*
X132980338Y-47932314D01*
X132980328Y-47932318D01*
X132719168Y-48083099D01*
X132479921Y-48266679D01*
X132479914Y-48266685D01*
X132266685Y-48479914D01*
X132266679Y-48479921D01*
X132083099Y-48719168D01*
X131932318Y-48980328D01*
X131932314Y-48980338D01*
X131816913Y-49258939D01*
X131738861Y-49550233D01*
X131701364Y-49835055D01*
X131699500Y-49849217D01*
X130004117Y-49849217D01*
X130033551Y-49489088D01*
X130035089Y-49477288D01*
X130100859Y-49110926D01*
X130103517Y-49099348D01*
X130204133Y-48740971D01*
X130207890Y-48729702D01*
X130342423Y-48382628D01*
X130347244Y-48371771D01*
X130514443Y-48039224D01*
X130520296Y-48028856D01*
X130718628Y-47713877D01*
X130725440Y-47704132D01*
X130953083Y-47409623D01*
X130960788Y-47400588D01*
X131215627Y-47129281D01*
X131224164Y-47121025D01*
X131503880Y-46875397D01*
X131513162Y-46868005D01*
X131815124Y-46650363D01*
X131825100Y-46643878D01*
X132146547Y-46456208D01*
X132157094Y-46450711D01*
X132495060Y-46294746D01*
X132506085Y-46290287D01*
X132857452Y-46167463D01*
X132868857Y-46164081D01*
X133230395Y-46075530D01*
X133242070Y-46073259D01*
X133610413Y-46019802D01*
X133622264Y-46018660D01*
X133997026Y-46000643D01*
X134002344Y-46000502D01*
X134002733Y-46000500D01*
X134065892Y-46000500D01*
X134067126Y-46000168D01*
X134076267Y-46000122D01*
X134076349Y-46000145D01*
X134076732Y-46000120D01*
X184997093Y-45932484D01*
X185002910Y-45932615D01*
G37*
%TD.AperFunction*%
%TD*%
M02*
