%TF.GenerationSoftware,KiCad,Pcbnew,9.0.3*%
%TF.CreationDate,2026-04-11T21:11:08-04:00*%
%TF.ProjectId,TouchScreenModule_Rev1,546f7563-6853-4637-9265-656e4d6f6475,rev?*%
%TF.SameCoordinates,Original*%
%TF.FileFunction,Legend,Top*%
%TF.FilePolarity,Positive*%
%FSLAX46Y46*%
G04 Gerber Fmt 4.6, Leading zero omitted, Abs format (unit mm)*
G04 Created by KiCad (PCBNEW 9.0.3) date 2026-04-11 21:11:08*
%MOMM*%
%LPD*%
G01*
G04 APERTURE LIST*
%ADD10C,0.152400*%
%ADD11C,0.125000*%
%ADD12C,0.120000*%
%ADD13C,0.000000*%
%ADD14C,0.127000*%
%ADD15C,0.200000*%
G04 APERTURE END LIST*
D10*
X136044539Y-53443508D02*
X135967129Y-53404803D01*
X135967129Y-53404803D02*
X135851015Y-53404803D01*
X135851015Y-53404803D02*
X135734901Y-53443508D01*
X135734901Y-53443508D02*
X135657491Y-53520918D01*
X135657491Y-53520918D02*
X135618786Y-53598327D01*
X135618786Y-53598327D02*
X135580082Y-53753146D01*
X135580082Y-53753146D02*
X135580082Y-53869260D01*
X135580082Y-53869260D02*
X135618786Y-54024079D01*
X135618786Y-54024079D02*
X135657491Y-54101489D01*
X135657491Y-54101489D02*
X135734901Y-54178899D01*
X135734901Y-54178899D02*
X135851015Y-54217603D01*
X135851015Y-54217603D02*
X135928424Y-54217603D01*
X135928424Y-54217603D02*
X136044539Y-54178899D01*
X136044539Y-54178899D02*
X136083243Y-54140194D01*
X136083243Y-54140194D02*
X136083243Y-53869260D01*
X136083243Y-53869260D02*
X135928424Y-53869260D01*
X136431586Y-54217603D02*
X136431586Y-53404803D01*
X136431586Y-53404803D02*
X136896043Y-54217603D01*
X136896043Y-54217603D02*
X136896043Y-53404803D01*
X137283091Y-54217603D02*
X137283091Y-53404803D01*
X137283091Y-53404803D02*
X137476615Y-53404803D01*
X137476615Y-53404803D02*
X137592729Y-53443508D01*
X137592729Y-53443508D02*
X137670139Y-53520918D01*
X137670139Y-53520918D02*
X137708844Y-53598327D01*
X137708844Y-53598327D02*
X137747548Y-53753146D01*
X137747548Y-53753146D02*
X137747548Y-53869260D01*
X137747548Y-53869260D02*
X137708844Y-54024079D01*
X137708844Y-54024079D02*
X137670139Y-54101489D01*
X137670139Y-54101489D02*
X137592729Y-54178899D01*
X137592729Y-54178899D02*
X137476615Y-54217603D01*
X137476615Y-54217603D02*
X137283091Y-54217603D01*
X150744539Y-53717603D02*
X150280082Y-53717603D01*
X150512310Y-53717603D02*
X150512310Y-52904803D01*
X150512310Y-52904803D02*
X150434901Y-53020918D01*
X150434901Y-53020918D02*
X150357491Y-53098327D01*
X150357491Y-53098327D02*
X150280082Y-53137032D01*
X151054177Y-52982213D02*
X151092881Y-52943508D01*
X151092881Y-52943508D02*
X151170291Y-52904803D01*
X151170291Y-52904803D02*
X151363815Y-52904803D01*
X151363815Y-52904803D02*
X151441224Y-52943508D01*
X151441224Y-52943508D02*
X151479929Y-52982213D01*
X151479929Y-52982213D02*
X151518634Y-53059622D01*
X151518634Y-53059622D02*
X151518634Y-53137032D01*
X151518634Y-53137032D02*
X151479929Y-53253146D01*
X151479929Y-53253146D02*
X151015472Y-53717603D01*
X151015472Y-53717603D02*
X151518634Y-53717603D01*
X151750862Y-52904803D02*
X152021795Y-53717603D01*
X152021795Y-53717603D02*
X152292729Y-52904803D01*
X182940114Y-64774330D02*
X182940114Y-63961530D01*
X182940114Y-63961530D02*
X183249752Y-63961530D01*
X183249752Y-63961530D02*
X183327162Y-64000235D01*
X183327162Y-64000235D02*
X183365867Y-64038940D01*
X183365867Y-64038940D02*
X183404571Y-64116349D01*
X183404571Y-64116349D02*
X183404571Y-64232464D01*
X183404571Y-64232464D02*
X183365867Y-64309873D01*
X183365867Y-64309873D02*
X183327162Y-64348578D01*
X183327162Y-64348578D02*
X183249752Y-64387283D01*
X183249752Y-64387283D02*
X182940114Y-64387283D01*
X183675505Y-63961530D02*
X183869029Y-64774330D01*
X183869029Y-64774330D02*
X184023848Y-64193759D01*
X184023848Y-64193759D02*
X184178667Y-64774330D01*
X184178667Y-64774330D02*
X184372191Y-63961530D01*
X184681828Y-64774330D02*
X184681828Y-63961530D01*
X184681828Y-63961530D02*
X184952762Y-64542102D01*
X184952762Y-64542102D02*
X185223695Y-63961530D01*
X185223695Y-63961530D02*
X185223695Y-64774330D01*
X186617066Y-63961530D02*
X186230018Y-63961530D01*
X186230018Y-63961530D02*
X186191314Y-64348578D01*
X186191314Y-64348578D02*
X186230018Y-64309873D01*
X186230018Y-64309873D02*
X186307428Y-64271168D01*
X186307428Y-64271168D02*
X186500952Y-64271168D01*
X186500952Y-64271168D02*
X186578361Y-64309873D01*
X186578361Y-64309873D02*
X186617066Y-64348578D01*
X186617066Y-64348578D02*
X186655771Y-64425987D01*
X186655771Y-64425987D02*
X186655771Y-64619511D01*
X186655771Y-64619511D02*
X186617066Y-64696921D01*
X186617066Y-64696921D02*
X186578361Y-64735626D01*
X186578361Y-64735626D02*
X186500952Y-64774330D01*
X186500952Y-64774330D02*
X186307428Y-64774330D01*
X186307428Y-64774330D02*
X186230018Y-64735626D01*
X186230018Y-64735626D02*
X186191314Y-64696921D01*
X186887999Y-63961530D02*
X187158932Y-64774330D01*
X187158932Y-64774330D02*
X187429866Y-63961530D01*
X183365867Y-65308797D02*
X183288457Y-65270092D01*
X183288457Y-65270092D02*
X183172343Y-65270092D01*
X183172343Y-65270092D02*
X183056229Y-65308797D01*
X183056229Y-65308797D02*
X182978819Y-65386207D01*
X182978819Y-65386207D02*
X182940114Y-65463616D01*
X182940114Y-65463616D02*
X182901410Y-65618435D01*
X182901410Y-65618435D02*
X182901410Y-65734549D01*
X182901410Y-65734549D02*
X182940114Y-65889368D01*
X182940114Y-65889368D02*
X182978819Y-65966778D01*
X182978819Y-65966778D02*
X183056229Y-66044188D01*
X183056229Y-66044188D02*
X183172343Y-66082892D01*
X183172343Y-66082892D02*
X183249752Y-66082892D01*
X183249752Y-66082892D02*
X183365867Y-66044188D01*
X183365867Y-66044188D02*
X183404571Y-66005483D01*
X183404571Y-66005483D02*
X183404571Y-65734549D01*
X183404571Y-65734549D02*
X183249752Y-65734549D01*
X183752914Y-66082892D02*
X183752914Y-65270092D01*
X183752914Y-65270092D02*
X184217371Y-66082892D01*
X184217371Y-66082892D02*
X184217371Y-65270092D01*
X184604419Y-66082892D02*
X184604419Y-65270092D01*
X184604419Y-65270092D02*
X184797943Y-65270092D01*
X184797943Y-65270092D02*
X184914057Y-65308797D01*
X184914057Y-65308797D02*
X184991467Y-65386207D01*
X184991467Y-65386207D02*
X185030172Y-65463616D01*
X185030172Y-65463616D02*
X185068876Y-65618435D01*
X185068876Y-65618435D02*
X185068876Y-65734549D01*
X185068876Y-65734549D02*
X185030172Y-65889368D01*
X185030172Y-65889368D02*
X184991467Y-65966778D01*
X184991467Y-65966778D02*
X184914057Y-66044188D01*
X184914057Y-66044188D02*
X184797943Y-66082892D01*
X184797943Y-66082892D02*
X184604419Y-66082892D01*
X186462248Y-65308797D02*
X186384838Y-65270092D01*
X186384838Y-65270092D02*
X186268724Y-65270092D01*
X186268724Y-65270092D02*
X186152610Y-65308797D01*
X186152610Y-65308797D02*
X186075200Y-65386207D01*
X186075200Y-65386207D02*
X186036495Y-65463616D01*
X186036495Y-65463616D02*
X185997791Y-65618435D01*
X185997791Y-65618435D02*
X185997791Y-65734549D01*
X185997791Y-65734549D02*
X186036495Y-65889368D01*
X186036495Y-65889368D02*
X186075200Y-65966778D01*
X186075200Y-65966778D02*
X186152610Y-66044188D01*
X186152610Y-66044188D02*
X186268724Y-66082892D01*
X186268724Y-66082892D02*
X186346133Y-66082892D01*
X186346133Y-66082892D02*
X186462248Y-66044188D01*
X186462248Y-66044188D02*
X186500952Y-66005483D01*
X186500952Y-66005483D02*
X186500952Y-65734549D01*
X186500952Y-65734549D02*
X186346133Y-65734549D01*
X186849295Y-66082892D02*
X186849295Y-65270092D01*
X186849295Y-65270092D02*
X187313752Y-66082892D01*
X187313752Y-66082892D02*
X187313752Y-65270092D01*
X187700800Y-66082892D02*
X187700800Y-65270092D01*
X187700800Y-65270092D02*
X187894324Y-65270092D01*
X187894324Y-65270092D02*
X188010438Y-65308797D01*
X188010438Y-65308797D02*
X188087848Y-65386207D01*
X188087848Y-65386207D02*
X188126553Y-65463616D01*
X188126553Y-65463616D02*
X188165257Y-65618435D01*
X188165257Y-65618435D02*
X188165257Y-65734549D01*
X188165257Y-65734549D02*
X188126553Y-65889368D01*
X188126553Y-65889368D02*
X188087848Y-65966778D01*
X188087848Y-65966778D02*
X188010438Y-66044188D01*
X188010438Y-66044188D02*
X187894324Y-66082892D01*
X187894324Y-66082892D02*
X187700800Y-66082892D01*
X183327162Y-66578654D02*
X182940114Y-66578654D01*
X182940114Y-66578654D02*
X182901410Y-66965702D01*
X182901410Y-66965702D02*
X182940114Y-66926997D01*
X182940114Y-66926997D02*
X183017524Y-66888292D01*
X183017524Y-66888292D02*
X183211048Y-66888292D01*
X183211048Y-66888292D02*
X183288457Y-66926997D01*
X183288457Y-66926997D02*
X183327162Y-66965702D01*
X183327162Y-66965702D02*
X183365867Y-67043111D01*
X183365867Y-67043111D02*
X183365867Y-67236635D01*
X183365867Y-67236635D02*
X183327162Y-67314045D01*
X183327162Y-67314045D02*
X183288457Y-67352750D01*
X183288457Y-67352750D02*
X183211048Y-67391454D01*
X183211048Y-67391454D02*
X183017524Y-67391454D01*
X183017524Y-67391454D02*
X182940114Y-67352750D01*
X182940114Y-67352750D02*
X182901410Y-67314045D01*
X183598095Y-66578654D02*
X183869028Y-67391454D01*
X183869028Y-67391454D02*
X184139962Y-66578654D01*
X185649447Y-67391454D02*
X185649447Y-66578654D01*
X185649447Y-66578654D02*
X185959085Y-66578654D01*
X185959085Y-66578654D02*
X186036495Y-66617359D01*
X186036495Y-66617359D02*
X186075200Y-66656064D01*
X186075200Y-66656064D02*
X186113904Y-66733473D01*
X186113904Y-66733473D02*
X186113904Y-66849588D01*
X186113904Y-66849588D02*
X186075200Y-66926997D01*
X186075200Y-66926997D02*
X186036495Y-66965702D01*
X186036495Y-66965702D02*
X185959085Y-67004407D01*
X185959085Y-67004407D02*
X185649447Y-67004407D01*
X186384838Y-66578654D02*
X186578362Y-67391454D01*
X186578362Y-67391454D02*
X186733181Y-66810883D01*
X186733181Y-66810883D02*
X186888000Y-67391454D01*
X186888000Y-67391454D02*
X187081524Y-66578654D01*
X187391161Y-67391454D02*
X187391161Y-66578654D01*
X187391161Y-66578654D02*
X187662095Y-67159226D01*
X187662095Y-67159226D02*
X187933028Y-66578654D01*
X187933028Y-66578654D02*
X187933028Y-67391454D01*
D11*
X166714378Y-54985466D02*
X166476283Y-54985466D01*
X166476283Y-54985466D02*
X166476283Y-54172666D01*
X166881045Y-54559714D02*
X167047712Y-54559714D01*
X167119140Y-54985466D02*
X166881045Y-54985466D01*
X166881045Y-54985466D02*
X166881045Y-54172666D01*
X166881045Y-54172666D02*
X167119140Y-54172666D01*
X167333426Y-54985466D02*
X167333426Y-54172666D01*
X167333426Y-54172666D02*
X167452474Y-54172666D01*
X167452474Y-54172666D02*
X167523902Y-54211371D01*
X167523902Y-54211371D02*
X167571521Y-54288781D01*
X167571521Y-54288781D02*
X167595331Y-54366190D01*
X167595331Y-54366190D02*
X167619140Y-54521009D01*
X167619140Y-54521009D02*
X167619140Y-54637123D01*
X167619140Y-54637123D02*
X167595331Y-54791942D01*
X167595331Y-54791942D02*
X167571521Y-54869352D01*
X167571521Y-54869352D02*
X167523902Y-54946762D01*
X167523902Y-54946762D02*
X167452474Y-54985466D01*
X167452474Y-54985466D02*
X167333426Y-54985466D01*
X168214378Y-54985466D02*
X168214378Y-54172666D01*
X168214378Y-54172666D02*
X168381045Y-54753238D01*
X168381045Y-54753238D02*
X168547711Y-54172666D01*
X168547711Y-54172666D02*
X168547711Y-54985466D01*
X168785807Y-54985466D02*
X168785807Y-54172666D01*
X169000093Y-54946762D02*
X169071521Y-54985466D01*
X169071521Y-54985466D02*
X169190569Y-54985466D01*
X169190569Y-54985466D02*
X169238188Y-54946762D01*
X169238188Y-54946762D02*
X169261997Y-54908057D01*
X169261997Y-54908057D02*
X169285807Y-54830647D01*
X169285807Y-54830647D02*
X169285807Y-54753238D01*
X169285807Y-54753238D02*
X169261997Y-54675828D01*
X169261997Y-54675828D02*
X169238188Y-54637123D01*
X169238188Y-54637123D02*
X169190569Y-54598419D01*
X169190569Y-54598419D02*
X169095331Y-54559714D01*
X169095331Y-54559714D02*
X169047712Y-54521009D01*
X169047712Y-54521009D02*
X169023902Y-54482304D01*
X169023902Y-54482304D02*
X169000093Y-54404895D01*
X169000093Y-54404895D02*
X169000093Y-54327485D01*
X169000093Y-54327485D02*
X169023902Y-54250076D01*
X169023902Y-54250076D02*
X169047712Y-54211371D01*
X169047712Y-54211371D02*
X169095331Y-54172666D01*
X169095331Y-54172666D02*
X169214378Y-54172666D01*
X169214378Y-54172666D02*
X169285807Y-54211371D01*
X169595330Y-54172666D02*
X169690568Y-54172666D01*
X169690568Y-54172666D02*
X169738187Y-54211371D01*
X169738187Y-54211371D02*
X169785806Y-54288781D01*
X169785806Y-54288781D02*
X169809616Y-54443600D01*
X169809616Y-54443600D02*
X169809616Y-54714533D01*
X169809616Y-54714533D02*
X169785806Y-54869352D01*
X169785806Y-54869352D02*
X169738187Y-54946762D01*
X169738187Y-54946762D02*
X169690568Y-54985466D01*
X169690568Y-54985466D02*
X169595330Y-54985466D01*
X169595330Y-54985466D02*
X169547711Y-54946762D01*
X169547711Y-54946762D02*
X169500092Y-54869352D01*
X169500092Y-54869352D02*
X169476283Y-54714533D01*
X169476283Y-54714533D02*
X169476283Y-54443600D01*
X169476283Y-54443600D02*
X169500092Y-54288781D01*
X169500092Y-54288781D02*
X169547711Y-54211371D01*
X169547711Y-54211371D02*
X169595330Y-54172666D01*
X170333426Y-54172666D02*
X170619140Y-54172666D01*
X170476283Y-54985466D02*
X170476283Y-54172666D01*
X170666759Y-55062876D02*
X171047711Y-55062876D01*
X171452472Y-54908057D02*
X171428663Y-54946762D01*
X171428663Y-54946762D02*
X171357234Y-54985466D01*
X171357234Y-54985466D02*
X171309615Y-54985466D01*
X171309615Y-54985466D02*
X171238187Y-54946762D01*
X171238187Y-54946762D02*
X171190568Y-54869352D01*
X171190568Y-54869352D02*
X171166758Y-54791942D01*
X171166758Y-54791942D02*
X171142949Y-54637123D01*
X171142949Y-54637123D02*
X171142949Y-54521009D01*
X171142949Y-54521009D02*
X171166758Y-54366190D01*
X171166758Y-54366190D02*
X171190568Y-54288781D01*
X171190568Y-54288781D02*
X171238187Y-54211371D01*
X171238187Y-54211371D02*
X171309615Y-54172666D01*
X171309615Y-54172666D02*
X171357234Y-54172666D01*
X171357234Y-54172666D02*
X171428663Y-54211371D01*
X171428663Y-54211371D02*
X171452472Y-54250076D01*
X171904853Y-54985466D02*
X171666758Y-54985466D01*
X171666758Y-54985466D02*
X171666758Y-54172666D01*
X172071520Y-54985466D02*
X172071520Y-54172666D01*
X172357234Y-54985466D02*
X172142949Y-54521009D01*
X172357234Y-54172666D02*
X172071520Y-54637123D01*
X172881044Y-54172666D02*
X173166758Y-54172666D01*
X173023901Y-54985466D02*
X173023901Y-54172666D01*
X173214377Y-55062876D02*
X173595329Y-55062876D01*
X174000090Y-54908057D02*
X173976281Y-54946762D01*
X173976281Y-54946762D02*
X173904852Y-54985466D01*
X173904852Y-54985466D02*
X173857233Y-54985466D01*
X173857233Y-54985466D02*
X173785805Y-54946762D01*
X173785805Y-54946762D02*
X173738186Y-54869352D01*
X173738186Y-54869352D02*
X173714376Y-54791942D01*
X173714376Y-54791942D02*
X173690567Y-54637123D01*
X173690567Y-54637123D02*
X173690567Y-54521009D01*
X173690567Y-54521009D02*
X173714376Y-54366190D01*
X173714376Y-54366190D02*
X173738186Y-54288781D01*
X173738186Y-54288781D02*
X173785805Y-54211371D01*
X173785805Y-54211371D02*
X173857233Y-54172666D01*
X173857233Y-54172666D02*
X173904852Y-54172666D01*
X173904852Y-54172666D02*
X173976281Y-54211371D01*
X173976281Y-54211371D02*
X174000090Y-54250076D01*
X174190567Y-54946762D02*
X174261995Y-54985466D01*
X174261995Y-54985466D02*
X174381043Y-54985466D01*
X174381043Y-54985466D02*
X174428662Y-54946762D01*
X174428662Y-54946762D02*
X174452471Y-54908057D01*
X174452471Y-54908057D02*
X174476281Y-54830647D01*
X174476281Y-54830647D02*
X174476281Y-54753238D01*
X174476281Y-54753238D02*
X174452471Y-54675828D01*
X174452471Y-54675828D02*
X174428662Y-54637123D01*
X174428662Y-54637123D02*
X174381043Y-54598419D01*
X174381043Y-54598419D02*
X174285805Y-54559714D01*
X174285805Y-54559714D02*
X174238186Y-54521009D01*
X174238186Y-54521009D02*
X174214376Y-54482304D01*
X174214376Y-54482304D02*
X174190567Y-54404895D01*
X174190567Y-54404895D02*
X174190567Y-54327485D01*
X174190567Y-54327485D02*
X174214376Y-54250076D01*
X174214376Y-54250076D02*
X174238186Y-54211371D01*
X174238186Y-54211371D02*
X174285805Y-54172666D01*
X174285805Y-54172666D02*
X174404852Y-54172666D01*
X174404852Y-54172666D02*
X174476281Y-54211371D01*
X175381042Y-54172666D02*
X175666756Y-54172666D01*
X175523899Y-54985466D02*
X175523899Y-54172666D01*
X175714375Y-55062876D02*
X176095327Y-55062876D01*
X176214374Y-54985466D02*
X176214374Y-54172666D01*
X176214374Y-54172666D02*
X176333422Y-54172666D01*
X176333422Y-54172666D02*
X176404850Y-54211371D01*
X176404850Y-54211371D02*
X176452469Y-54288781D01*
X176452469Y-54288781D02*
X176476279Y-54366190D01*
X176476279Y-54366190D02*
X176500088Y-54521009D01*
X176500088Y-54521009D02*
X176500088Y-54637123D01*
X176500088Y-54637123D02*
X176476279Y-54791942D01*
X176476279Y-54791942D02*
X176452469Y-54869352D01*
X176452469Y-54869352D02*
X176404850Y-54946762D01*
X176404850Y-54946762D02*
X176333422Y-54985466D01*
X176333422Y-54985466D02*
X176214374Y-54985466D01*
X176714374Y-54985466D02*
X176714374Y-54172666D01*
X176952469Y-54985466D02*
X176952469Y-54172666D01*
X176952469Y-54172666D02*
X177238183Y-54985466D01*
X177238183Y-54985466D02*
X177238183Y-54172666D01*
X177785803Y-54172666D02*
X178071517Y-54172666D01*
X177928660Y-54985466D02*
X177928660Y-54172666D01*
X178119136Y-55062876D02*
X178500088Y-55062876D01*
X178619135Y-54985466D02*
X178619135Y-54172666D01*
X178619135Y-54172666D02*
X178738183Y-54172666D01*
X178738183Y-54172666D02*
X178809611Y-54211371D01*
X178809611Y-54211371D02*
X178857230Y-54288781D01*
X178857230Y-54288781D02*
X178881040Y-54366190D01*
X178881040Y-54366190D02*
X178904849Y-54521009D01*
X178904849Y-54521009D02*
X178904849Y-54637123D01*
X178904849Y-54637123D02*
X178881040Y-54791942D01*
X178881040Y-54791942D02*
X178857230Y-54869352D01*
X178857230Y-54869352D02*
X178809611Y-54946762D01*
X178809611Y-54946762D02*
X178738183Y-54985466D01*
X178738183Y-54985466D02*
X178619135Y-54985466D01*
X179214373Y-54172666D02*
X179309611Y-54172666D01*
X179309611Y-54172666D02*
X179357230Y-54211371D01*
X179357230Y-54211371D02*
X179404849Y-54288781D01*
X179404849Y-54288781D02*
X179428659Y-54443600D01*
X179428659Y-54443600D02*
X179428659Y-54714533D01*
X179428659Y-54714533D02*
X179404849Y-54869352D01*
X179404849Y-54869352D02*
X179357230Y-54946762D01*
X179357230Y-54946762D02*
X179309611Y-54985466D01*
X179309611Y-54985466D02*
X179214373Y-54985466D01*
X179214373Y-54985466D02*
X179166754Y-54946762D01*
X179166754Y-54946762D02*
X179119135Y-54869352D01*
X179119135Y-54869352D02*
X179095326Y-54714533D01*
X179095326Y-54714533D02*
X179095326Y-54443600D01*
X179095326Y-54443600D02*
X179119135Y-54288781D01*
X179119135Y-54288781D02*
X179166754Y-54211371D01*
X179166754Y-54211371D02*
X179214373Y-54172666D01*
X179952469Y-54172666D02*
X180238183Y-54172666D01*
X180095326Y-54985466D02*
X180095326Y-54172666D01*
X180285802Y-55062876D02*
X180666754Y-55062876D01*
X180785801Y-54985466D02*
X180785801Y-54172666D01*
X181309610Y-54985466D02*
X181142944Y-54598419D01*
X181023896Y-54985466D02*
X181023896Y-54172666D01*
X181023896Y-54172666D02*
X181214372Y-54172666D01*
X181214372Y-54172666D02*
X181261991Y-54211371D01*
X181261991Y-54211371D02*
X181285801Y-54250076D01*
X181285801Y-54250076D02*
X181309610Y-54327485D01*
X181309610Y-54327485D02*
X181309610Y-54443600D01*
X181309610Y-54443600D02*
X181285801Y-54521009D01*
X181285801Y-54521009D02*
X181261991Y-54559714D01*
X181261991Y-54559714D02*
X181214372Y-54598419D01*
X181214372Y-54598419D02*
X181023896Y-54598419D01*
X181857229Y-55062876D02*
X181809610Y-55024171D01*
X181809610Y-55024171D02*
X181761991Y-54946762D01*
X181761991Y-54946762D02*
X181690563Y-54830647D01*
X181690563Y-54830647D02*
X181642944Y-54791942D01*
X181642944Y-54791942D02*
X181595325Y-54791942D01*
X181619134Y-54985466D02*
X181571515Y-54946762D01*
X181571515Y-54946762D02*
X181523896Y-54869352D01*
X181523896Y-54869352D02*
X181500087Y-54714533D01*
X181500087Y-54714533D02*
X181500087Y-54443600D01*
X181500087Y-54443600D02*
X181523896Y-54288781D01*
X181523896Y-54288781D02*
X181571515Y-54211371D01*
X181571515Y-54211371D02*
X181619134Y-54172666D01*
X181619134Y-54172666D02*
X181714372Y-54172666D01*
X181714372Y-54172666D02*
X181761991Y-54211371D01*
X181761991Y-54211371D02*
X181809610Y-54288781D01*
X181809610Y-54288781D02*
X181833420Y-54443600D01*
X181833420Y-54443600D02*
X181833420Y-54714533D01*
X181833420Y-54714533D02*
X181809610Y-54869352D01*
X181809610Y-54869352D02*
X181761991Y-54946762D01*
X181761991Y-54946762D02*
X181714372Y-54985466D01*
X181714372Y-54985466D02*
X181619134Y-54985466D01*
X166404855Y-55481228D02*
X166571521Y-56294028D01*
X166571521Y-56294028D02*
X166738188Y-55481228D01*
X167190568Y-56216619D02*
X167166759Y-56255324D01*
X167166759Y-56255324D02*
X167095330Y-56294028D01*
X167095330Y-56294028D02*
X167047711Y-56294028D01*
X167047711Y-56294028D02*
X166976283Y-56255324D01*
X166976283Y-56255324D02*
X166928664Y-56177914D01*
X166928664Y-56177914D02*
X166904854Y-56100504D01*
X166904854Y-56100504D02*
X166881045Y-55945685D01*
X166881045Y-55945685D02*
X166881045Y-55829571D01*
X166881045Y-55829571D02*
X166904854Y-55674752D01*
X166904854Y-55674752D02*
X166928664Y-55597343D01*
X166928664Y-55597343D02*
X166976283Y-55519933D01*
X166976283Y-55519933D02*
X167047711Y-55481228D01*
X167047711Y-55481228D02*
X167095330Y-55481228D01*
X167095330Y-55481228D02*
X167166759Y-55519933D01*
X167166759Y-55519933D02*
X167190568Y-55558638D01*
X167690568Y-56216619D02*
X167666759Y-56255324D01*
X167666759Y-56255324D02*
X167595330Y-56294028D01*
X167595330Y-56294028D02*
X167547711Y-56294028D01*
X167547711Y-56294028D02*
X167476283Y-56255324D01*
X167476283Y-56255324D02*
X167428664Y-56177914D01*
X167428664Y-56177914D02*
X167404854Y-56100504D01*
X167404854Y-56100504D02*
X167381045Y-55945685D01*
X167381045Y-55945685D02*
X167381045Y-55829571D01*
X167381045Y-55829571D02*
X167404854Y-55674752D01*
X167404854Y-55674752D02*
X167428664Y-55597343D01*
X167428664Y-55597343D02*
X167476283Y-55519933D01*
X167476283Y-55519933D02*
X167547711Y-55481228D01*
X167547711Y-55481228D02*
X167595330Y-55481228D01*
X167595330Y-55481228D02*
X167666759Y-55519933D01*
X167666759Y-55519933D02*
X167690568Y-55558638D01*
X168547711Y-55519933D02*
X168500092Y-55481228D01*
X168500092Y-55481228D02*
X168428663Y-55481228D01*
X168428663Y-55481228D02*
X168357235Y-55519933D01*
X168357235Y-55519933D02*
X168309616Y-55597343D01*
X168309616Y-55597343D02*
X168285806Y-55674752D01*
X168285806Y-55674752D02*
X168261997Y-55829571D01*
X168261997Y-55829571D02*
X168261997Y-55945685D01*
X168261997Y-55945685D02*
X168285806Y-56100504D01*
X168285806Y-56100504D02*
X168309616Y-56177914D01*
X168309616Y-56177914D02*
X168357235Y-56255324D01*
X168357235Y-56255324D02*
X168428663Y-56294028D01*
X168428663Y-56294028D02*
X168476282Y-56294028D01*
X168476282Y-56294028D02*
X168547711Y-56255324D01*
X168547711Y-56255324D02*
X168571520Y-56216619D01*
X168571520Y-56216619D02*
X168571520Y-55945685D01*
X168571520Y-55945685D02*
X168476282Y-55945685D01*
X168785806Y-56294028D02*
X168785806Y-55481228D01*
X168785806Y-55481228D02*
X169071520Y-56294028D01*
X169071520Y-56294028D02*
X169071520Y-55481228D01*
X169309616Y-56294028D02*
X169309616Y-55481228D01*
X169309616Y-55481228D02*
X169428664Y-55481228D01*
X169428664Y-55481228D02*
X169500092Y-55519933D01*
X169500092Y-55519933D02*
X169547711Y-55597343D01*
X169547711Y-55597343D02*
X169571521Y-55674752D01*
X169571521Y-55674752D02*
X169595330Y-55829571D01*
X169595330Y-55829571D02*
X169595330Y-55945685D01*
X169595330Y-55945685D02*
X169571521Y-56100504D01*
X169571521Y-56100504D02*
X169547711Y-56177914D01*
X169547711Y-56177914D02*
X169500092Y-56255324D01*
X169500092Y-56255324D02*
X169428664Y-56294028D01*
X169428664Y-56294028D02*
X169309616Y-56294028D01*
X170476282Y-56216619D02*
X170452473Y-56255324D01*
X170452473Y-56255324D02*
X170381044Y-56294028D01*
X170381044Y-56294028D02*
X170333425Y-56294028D01*
X170333425Y-56294028D02*
X170261997Y-56255324D01*
X170261997Y-56255324D02*
X170214378Y-56177914D01*
X170214378Y-56177914D02*
X170190568Y-56100504D01*
X170190568Y-56100504D02*
X170166759Y-55945685D01*
X170166759Y-55945685D02*
X170166759Y-55829571D01*
X170166759Y-55829571D02*
X170190568Y-55674752D01*
X170190568Y-55674752D02*
X170214378Y-55597343D01*
X170214378Y-55597343D02*
X170261997Y-55519933D01*
X170261997Y-55519933D02*
X170333425Y-55481228D01*
X170333425Y-55481228D02*
X170381044Y-55481228D01*
X170381044Y-55481228D02*
X170452473Y-55519933D01*
X170452473Y-55519933D02*
X170476282Y-55558638D01*
X170666759Y-56255324D02*
X170738187Y-56294028D01*
X170738187Y-56294028D02*
X170857235Y-56294028D01*
X170857235Y-56294028D02*
X170904854Y-56255324D01*
X170904854Y-56255324D02*
X170928663Y-56216619D01*
X170928663Y-56216619D02*
X170952473Y-56139209D01*
X170952473Y-56139209D02*
X170952473Y-56061800D01*
X170952473Y-56061800D02*
X170928663Y-55984390D01*
X170928663Y-55984390D02*
X170904854Y-55945685D01*
X170904854Y-55945685D02*
X170857235Y-55906981D01*
X170857235Y-55906981D02*
X170761997Y-55868276D01*
X170761997Y-55868276D02*
X170714378Y-55829571D01*
X170714378Y-55829571D02*
X170690568Y-55790866D01*
X170690568Y-55790866D02*
X170666759Y-55713457D01*
X170666759Y-55713457D02*
X170666759Y-55636047D01*
X170666759Y-55636047D02*
X170690568Y-55558638D01*
X170690568Y-55558638D02*
X170714378Y-55519933D01*
X170714378Y-55519933D02*
X170761997Y-55481228D01*
X170761997Y-55481228D02*
X170881044Y-55481228D01*
X170881044Y-55481228D02*
X170952473Y-55519933D01*
X172976280Y-56294028D02*
X172809614Y-55906981D01*
X172690566Y-56294028D02*
X172690566Y-55481228D01*
X172690566Y-55481228D02*
X172881042Y-55481228D01*
X172881042Y-55481228D02*
X172928661Y-55519933D01*
X172928661Y-55519933D02*
X172952471Y-55558638D01*
X172952471Y-55558638D02*
X172976280Y-55636047D01*
X172976280Y-55636047D02*
X172976280Y-55752162D01*
X172976280Y-55752162D02*
X172952471Y-55829571D01*
X172952471Y-55829571D02*
X172928661Y-55868276D01*
X172928661Y-55868276D02*
X172881042Y-55906981D01*
X172881042Y-55906981D02*
X172690566Y-55906981D01*
X173190566Y-55868276D02*
X173357233Y-55868276D01*
X173428661Y-56294028D02*
X173190566Y-56294028D01*
X173190566Y-56294028D02*
X173190566Y-55481228D01*
X173190566Y-55481228D02*
X173428661Y-55481228D01*
X173619138Y-56255324D02*
X173690566Y-56294028D01*
X173690566Y-56294028D02*
X173809614Y-56294028D01*
X173809614Y-56294028D02*
X173857233Y-56255324D01*
X173857233Y-56255324D02*
X173881042Y-56216619D01*
X173881042Y-56216619D02*
X173904852Y-56139209D01*
X173904852Y-56139209D02*
X173904852Y-56061800D01*
X173904852Y-56061800D02*
X173881042Y-55984390D01*
X173881042Y-55984390D02*
X173857233Y-55945685D01*
X173857233Y-55945685D02*
X173809614Y-55906981D01*
X173809614Y-55906981D02*
X173714376Y-55868276D01*
X173714376Y-55868276D02*
X173666757Y-55829571D01*
X173666757Y-55829571D02*
X173642947Y-55790866D01*
X173642947Y-55790866D02*
X173619138Y-55713457D01*
X173619138Y-55713457D02*
X173619138Y-55636047D01*
X173619138Y-55636047D02*
X173642947Y-55558638D01*
X173642947Y-55558638D02*
X173666757Y-55519933D01*
X173666757Y-55519933D02*
X173714376Y-55481228D01*
X173714376Y-55481228D02*
X173833423Y-55481228D01*
X173833423Y-55481228D02*
X173904852Y-55519933D01*
X174119137Y-55868276D02*
X174285804Y-55868276D01*
X174357232Y-56294028D02*
X174119137Y-56294028D01*
X174119137Y-56294028D02*
X174119137Y-55481228D01*
X174119137Y-55481228D02*
X174357232Y-55481228D01*
X174500090Y-55481228D02*
X174785804Y-55481228D01*
X174642947Y-56294028D02*
X174642947Y-55481228D01*
X175333422Y-56294028D02*
X175333422Y-55481228D01*
X175333422Y-55481228D02*
X175452470Y-55481228D01*
X175452470Y-55481228D02*
X175523898Y-55519933D01*
X175523898Y-55519933D02*
X175571517Y-55597343D01*
X175571517Y-55597343D02*
X175595327Y-55674752D01*
X175595327Y-55674752D02*
X175619136Y-55829571D01*
X175619136Y-55829571D02*
X175619136Y-55945685D01*
X175619136Y-55945685D02*
X175595327Y-56100504D01*
X175595327Y-56100504D02*
X175571517Y-56177914D01*
X175571517Y-56177914D02*
X175523898Y-56255324D01*
X175523898Y-56255324D02*
X175452470Y-56294028D01*
X175452470Y-56294028D02*
X175333422Y-56294028D01*
X176119136Y-56216619D02*
X176095327Y-56255324D01*
X176095327Y-56255324D02*
X176023898Y-56294028D01*
X176023898Y-56294028D02*
X175976279Y-56294028D01*
X175976279Y-56294028D02*
X175904851Y-56255324D01*
X175904851Y-56255324D02*
X175857232Y-56177914D01*
X175857232Y-56177914D02*
X175833422Y-56100504D01*
X175833422Y-56100504D02*
X175809613Y-55945685D01*
X175809613Y-55945685D02*
X175809613Y-55829571D01*
X175809613Y-55829571D02*
X175833422Y-55674752D01*
X175833422Y-55674752D02*
X175857232Y-55597343D01*
X175857232Y-55597343D02*
X175904851Y-55519933D01*
X175904851Y-55519933D02*
X175976279Y-55481228D01*
X175976279Y-55481228D02*
X176023898Y-55481228D01*
X176023898Y-55481228D02*
X176095327Y-55519933D01*
X176095327Y-55519933D02*
X176119136Y-55558638D01*
X176690565Y-55442524D02*
X176261994Y-56487552D01*
X177142946Y-56294028D02*
X176976280Y-55906981D01*
X176857232Y-56294028D02*
X176857232Y-55481228D01*
X176857232Y-55481228D02*
X177047708Y-55481228D01*
X177047708Y-55481228D02*
X177095327Y-55519933D01*
X177095327Y-55519933D02*
X177119137Y-55558638D01*
X177119137Y-55558638D02*
X177142946Y-55636047D01*
X177142946Y-55636047D02*
X177142946Y-55752162D01*
X177142946Y-55752162D02*
X177119137Y-55829571D01*
X177119137Y-55829571D02*
X177095327Y-55868276D01*
X177095327Y-55868276D02*
X177047708Y-55906981D01*
X177047708Y-55906981D02*
X176857232Y-55906981D01*
X177333423Y-56255324D02*
X177404851Y-56294028D01*
X177404851Y-56294028D02*
X177523899Y-56294028D01*
X177523899Y-56294028D02*
X177571518Y-56255324D01*
X177571518Y-56255324D02*
X177595327Y-56216619D01*
X177595327Y-56216619D02*
X177619137Y-56139209D01*
X177619137Y-56139209D02*
X177619137Y-56061800D01*
X177619137Y-56061800D02*
X177595327Y-55984390D01*
X177595327Y-55984390D02*
X177571518Y-55945685D01*
X177571518Y-55945685D02*
X177523899Y-55906981D01*
X177523899Y-55906981D02*
X177428661Y-55868276D01*
X177428661Y-55868276D02*
X177381042Y-55829571D01*
X177381042Y-55829571D02*
X177357232Y-55790866D01*
X177357232Y-55790866D02*
X177333423Y-55713457D01*
X177333423Y-55713457D02*
X177333423Y-55636047D01*
X177333423Y-55636047D02*
X177357232Y-55558638D01*
X177357232Y-55558638D02*
X177381042Y-55519933D01*
X177381042Y-55519933D02*
X177428661Y-55481228D01*
X177428661Y-55481228D02*
X177547708Y-55481228D01*
X177547708Y-55481228D02*
X177619137Y-55519933D01*
X178214374Y-56294028D02*
X178214374Y-55481228D01*
X178214374Y-55481228D02*
X178381041Y-56061800D01*
X178381041Y-56061800D02*
X178547707Y-55481228D01*
X178547707Y-55481228D02*
X178547707Y-56294028D01*
X178881041Y-55481228D02*
X178976279Y-55481228D01*
X178976279Y-55481228D02*
X179023898Y-55519933D01*
X179023898Y-55519933D02*
X179071517Y-55597343D01*
X179071517Y-55597343D02*
X179095327Y-55752162D01*
X179095327Y-55752162D02*
X179095327Y-56023095D01*
X179095327Y-56023095D02*
X179071517Y-56177914D01*
X179071517Y-56177914D02*
X179023898Y-56255324D01*
X179023898Y-56255324D02*
X178976279Y-56294028D01*
X178976279Y-56294028D02*
X178881041Y-56294028D01*
X178881041Y-56294028D02*
X178833422Y-56255324D01*
X178833422Y-56255324D02*
X178785803Y-56177914D01*
X178785803Y-56177914D02*
X178761994Y-56023095D01*
X178761994Y-56023095D02*
X178761994Y-55752162D01*
X178761994Y-55752162D02*
X178785803Y-55597343D01*
X178785803Y-55597343D02*
X178833422Y-55519933D01*
X178833422Y-55519933D02*
X178881041Y-55481228D01*
X179285804Y-56255324D02*
X179357232Y-56294028D01*
X179357232Y-56294028D02*
X179476280Y-56294028D01*
X179476280Y-56294028D02*
X179523899Y-56255324D01*
X179523899Y-56255324D02*
X179547708Y-56216619D01*
X179547708Y-56216619D02*
X179571518Y-56139209D01*
X179571518Y-56139209D02*
X179571518Y-56061800D01*
X179571518Y-56061800D02*
X179547708Y-55984390D01*
X179547708Y-55984390D02*
X179523899Y-55945685D01*
X179523899Y-55945685D02*
X179476280Y-55906981D01*
X179476280Y-55906981D02*
X179381042Y-55868276D01*
X179381042Y-55868276D02*
X179333423Y-55829571D01*
X179333423Y-55829571D02*
X179309613Y-55790866D01*
X179309613Y-55790866D02*
X179285804Y-55713457D01*
X179285804Y-55713457D02*
X179285804Y-55636047D01*
X179285804Y-55636047D02*
X179309613Y-55558638D01*
X179309613Y-55558638D02*
X179333423Y-55519933D01*
X179333423Y-55519933D02*
X179381042Y-55481228D01*
X179381042Y-55481228D02*
X179500089Y-55481228D01*
X179500089Y-55481228D02*
X179571518Y-55519933D01*
X179785803Y-56294028D02*
X179785803Y-55481228D01*
X180381041Y-56255324D02*
X180452469Y-56294028D01*
X180452469Y-56294028D02*
X180571517Y-56294028D01*
X180571517Y-56294028D02*
X180619136Y-56255324D01*
X180619136Y-56255324D02*
X180642945Y-56216619D01*
X180642945Y-56216619D02*
X180666755Y-56139209D01*
X180666755Y-56139209D02*
X180666755Y-56061800D01*
X180666755Y-56061800D02*
X180642945Y-55984390D01*
X180642945Y-55984390D02*
X180619136Y-55945685D01*
X180619136Y-55945685D02*
X180571517Y-55906981D01*
X180571517Y-55906981D02*
X180476279Y-55868276D01*
X180476279Y-55868276D02*
X180428660Y-55829571D01*
X180428660Y-55829571D02*
X180404850Y-55790866D01*
X180404850Y-55790866D02*
X180381041Y-55713457D01*
X180381041Y-55713457D02*
X180381041Y-55636047D01*
X180381041Y-55636047D02*
X180404850Y-55558638D01*
X180404850Y-55558638D02*
X180428660Y-55519933D01*
X180428660Y-55519933D02*
X180476279Y-55481228D01*
X180476279Y-55481228D02*
X180595326Y-55481228D01*
X180595326Y-55481228D02*
X180666755Y-55519933D01*
X181166754Y-56216619D02*
X181142945Y-56255324D01*
X181142945Y-56255324D02*
X181071516Y-56294028D01*
X181071516Y-56294028D02*
X181023897Y-56294028D01*
X181023897Y-56294028D02*
X180952469Y-56255324D01*
X180952469Y-56255324D02*
X180904850Y-56177914D01*
X180904850Y-56177914D02*
X180881040Y-56100504D01*
X180881040Y-56100504D02*
X180857231Y-55945685D01*
X180857231Y-55945685D02*
X180857231Y-55829571D01*
X180857231Y-55829571D02*
X180881040Y-55674752D01*
X180881040Y-55674752D02*
X180904850Y-55597343D01*
X180904850Y-55597343D02*
X180952469Y-55519933D01*
X180952469Y-55519933D02*
X181023897Y-55481228D01*
X181023897Y-55481228D02*
X181071516Y-55481228D01*
X181071516Y-55481228D02*
X181142945Y-55519933D01*
X181142945Y-55519933D02*
X181166754Y-55558638D01*
X181381040Y-56294028D02*
X181381040Y-55481228D01*
X181666754Y-56294028D02*
X181452469Y-55829571D01*
X181666754Y-55481228D02*
X181381040Y-55945685D01*
D12*
%TO.C,R2*%
X164865835Y-68955282D02*
X164544718Y-68634165D01*
X165905282Y-67915835D02*
X165584165Y-67594718D01*
D13*
%TO.C,G\u002A\u002A\u002A*%
G36*
X175626120Y-64328692D02*
G01*
X175658069Y-64329967D01*
X175686378Y-64332033D01*
X175705064Y-64334223D01*
X175784262Y-64348888D01*
X175860285Y-64369405D01*
X175933207Y-64395802D01*
X176003100Y-64428109D01*
X176070036Y-64466354D01*
X176111784Y-64494262D01*
X176160512Y-64531768D01*
X176208441Y-64574371D01*
X176254041Y-64620539D01*
X176295781Y-64668741D01*
X176325620Y-64708098D01*
X176367393Y-64772675D01*
X176403195Y-64839821D01*
X176433010Y-64909142D01*
X176456821Y-64980245D01*
X176474614Y-65052735D01*
X176486371Y-65126218D01*
X176492079Y-65200301D01*
X176491719Y-65274588D01*
X176485278Y-65348687D01*
X176472738Y-65422203D01*
X176454085Y-65494741D01*
X176429301Y-65565909D01*
X176398373Y-65635311D01*
X176365319Y-65695855D01*
X176322659Y-65760983D01*
X176275195Y-65821622D01*
X176223221Y-65877578D01*
X176167031Y-65928661D01*
X176106918Y-65974677D01*
X176043177Y-66015434D01*
X175976102Y-66050740D01*
X175905986Y-66080401D01*
X175833124Y-66104227D01*
X175757810Y-66122023D01*
X175700064Y-66131276D01*
X175679544Y-66133456D01*
X175655076Y-66135341D01*
X175628503Y-66136853D01*
X175601666Y-66137915D01*
X175576409Y-66138451D01*
X175554574Y-66138382D01*
X175541709Y-66137898D01*
X175463439Y-66129894D01*
X175386869Y-66115604D01*
X175312330Y-66095176D01*
X175240152Y-66068754D01*
X175170664Y-66036487D01*
X175104195Y-65998520D01*
X175041077Y-65955000D01*
X174981638Y-65906074D01*
X174947462Y-65873771D01*
X174895658Y-65817529D01*
X174848899Y-65757117D01*
X174807408Y-65692966D01*
X174771406Y-65625509D01*
X174741115Y-65555178D01*
X174716757Y-65482406D01*
X174698553Y-65407624D01*
X174693220Y-65378313D01*
X174684027Y-65302270D01*
X174681395Y-65225908D01*
X174685262Y-65149653D01*
X174695123Y-65077164D01*
X175597395Y-65077164D01*
X175600166Y-65103466D01*
X175606283Y-65128316D01*
X175616262Y-65154112D01*
X175624109Y-65170624D01*
X175632822Y-65187160D01*
X175641114Y-65200452D01*
X175650572Y-65212666D01*
X175662785Y-65225970D01*
X175670053Y-65233340D01*
X175684348Y-65247179D01*
X175696461Y-65257524D01*
X175708548Y-65265942D01*
X175722770Y-65274000D01*
X175733794Y-65279595D01*
X175757179Y-65290413D01*
X175777782Y-65297945D01*
X175797768Y-65302659D01*
X175819301Y-65305018D01*
X175844546Y-65305489D01*
X175853417Y-65305325D01*
X175873077Y-65304602D01*
X175888194Y-65303344D01*
X175900889Y-65301236D01*
X175913282Y-65297964D01*
X175921759Y-65295209D01*
X175958358Y-65279594D01*
X175991398Y-65258714D01*
X176020382Y-65233443D01*
X176047054Y-65202266D01*
X176067903Y-65168196D01*
X176082787Y-65131812D01*
X176091565Y-65093693D01*
X176094095Y-65054419D01*
X176090234Y-65014569D01*
X176082018Y-64981288D01*
X176070962Y-64952622D01*
X176056482Y-64926677D01*
X176037498Y-64901740D01*
X176020106Y-64883121D01*
X175994716Y-64860069D01*
X175969563Y-64842341D01*
X175942965Y-64828874D01*
X175922237Y-64821303D01*
X175882105Y-64811904D01*
X175842193Y-64809035D01*
X175803039Y-64812563D01*
X175765178Y-64822360D01*
X175729146Y-64838293D01*
X175695481Y-64860232D01*
X175669784Y-64882845D01*
X175643173Y-64913322D01*
X175622880Y-64945445D01*
X175608634Y-64979825D01*
X175600165Y-65017075D01*
X175597453Y-65047014D01*
X175597395Y-65077164D01*
X174695123Y-65077164D01*
X174695563Y-65073930D01*
X174712234Y-64999166D01*
X174735212Y-64925786D01*
X174764432Y-64854215D01*
X174775247Y-64831448D01*
X174812172Y-64763783D01*
X174854276Y-64700137D01*
X174901265Y-64640721D01*
X174952844Y-64585744D01*
X175008720Y-64535419D01*
X175068599Y-64489954D01*
X175132187Y-64449560D01*
X175199190Y-64414447D01*
X175269313Y-64384827D01*
X175342264Y-64360909D01*
X175417747Y-64342903D01*
X175470033Y-64334191D01*
X175495212Y-64331507D01*
X175525076Y-64329616D01*
X175557958Y-64328517D01*
X175592194Y-64328209D01*
X175626120Y-64328692D01*
G37*
G36*
X177261416Y-66833586D02*
G01*
X177282836Y-66835178D01*
X177293588Y-66836708D01*
X177340326Y-66848334D01*
X177383768Y-66865375D01*
X177423665Y-66887354D01*
X177459773Y-66913792D01*
X177491844Y-66944211D01*
X177519632Y-66978134D01*
X177542891Y-67015082D01*
X177561374Y-67054578D01*
X177574834Y-67096143D01*
X177583026Y-67139300D01*
X177585701Y-67183571D01*
X177582615Y-67228478D01*
X177573521Y-67273542D01*
X177558171Y-67318287D01*
X177550645Y-67335109D01*
X177536970Y-67360637D01*
X177520556Y-67386295D01*
X177502780Y-67410144D01*
X177485022Y-67430243D01*
X177478864Y-67436218D01*
X177470909Y-67443792D01*
X177465396Y-67449501D01*
X177463628Y-67451887D01*
X177465466Y-67455077D01*
X177470453Y-67462495D01*
X177477798Y-67472991D01*
X177485560Y-67483824D01*
X177523919Y-67540925D01*
X177558278Y-67600415D01*
X177588132Y-67661228D01*
X177612978Y-67722298D01*
X177632314Y-67782560D01*
X177639056Y-67809011D01*
X177642562Y-67824756D01*
X177645068Y-67838352D01*
X177646741Y-67851553D01*
X177647752Y-67866116D01*
X177648268Y-67883799D01*
X177648458Y-67906357D01*
X177648460Y-67906851D01*
X177648234Y-67934095D01*
X177647197Y-67956165D01*
X177645099Y-67974534D01*
X177641687Y-67990673D01*
X177636712Y-68006052D01*
X177629920Y-68022143D01*
X177628097Y-68026051D01*
X177611573Y-68053382D01*
X177589994Y-68076808D01*
X177564138Y-68095651D01*
X177534784Y-68109237D01*
X177530804Y-68110565D01*
X177511377Y-68114897D01*
X177487777Y-68117260D01*
X177462212Y-68117618D01*
X177436888Y-68115934D01*
X177415289Y-68112459D01*
X177369383Y-68099356D01*
X177322029Y-68080119D01*
X177273708Y-68054996D01*
X177224900Y-68024238D01*
X177178474Y-67989986D01*
X177163992Y-67977868D01*
X177146305Y-67962039D01*
X177126642Y-67943696D01*
X177106234Y-67924036D01*
X177086309Y-67904258D01*
X177068097Y-67885558D01*
X177052829Y-67869134D01*
X177044318Y-67859354D01*
X177035618Y-67849270D01*
X177028362Y-67841521D01*
X177023679Y-67837288D01*
X177022751Y-67836842D01*
X177018879Y-67838592D01*
X177010964Y-67843262D01*
X177000447Y-67849984D01*
X176995916Y-67852997D01*
X176967613Y-67871425D01*
X176934553Y-67891924D01*
X176898031Y-67913761D01*
X176859340Y-67936202D01*
X176819773Y-67958516D01*
X176780622Y-67979968D01*
X176743183Y-67999826D01*
X176708747Y-68017357D01*
X176689195Y-68026867D01*
X176670055Y-68036222D01*
X176656636Y-68043400D01*
X176648463Y-68048688D01*
X176645062Y-68052370D01*
X176644950Y-68053537D01*
X176646519Y-68058388D01*
X176649900Y-68068200D01*
X176654637Y-68081662D01*
X176660270Y-68097468D01*
X176661854Y-68101877D01*
X176686290Y-68178908D01*
X176704147Y-68255773D01*
X176715404Y-68332354D01*
X176720039Y-68408539D01*
X176720170Y-68423158D01*
X176718308Y-68475597D01*
X176712758Y-68523981D01*
X176703657Y-68568087D01*
X176691140Y-68607691D01*
X176675345Y-68642571D01*
X176656407Y-68672504D01*
X176634464Y-68697268D01*
X176609651Y-68716639D01*
X176582104Y-68730395D01*
X176551961Y-68738313D01*
X176526043Y-68740294D01*
X176491045Y-68737214D01*
X176456009Y-68727916D01*
X176420762Y-68712314D01*
X176385129Y-68690321D01*
X176348934Y-68661851D01*
X176327323Y-68642055D01*
X176312564Y-68627451D01*
X176297483Y-68611850D01*
X176283772Y-68597043D01*
X176273123Y-68584819D01*
X176272414Y-68583957D01*
X176241064Y-68542319D01*
X176210457Y-68495276D01*
X176181260Y-68444089D01*
X176154139Y-68390018D01*
X176129761Y-68334326D01*
X176108792Y-68278273D01*
X176105263Y-68267732D01*
X176101154Y-68255413D01*
X176097873Y-68245946D01*
X176095924Y-68240773D01*
X176095625Y-68240228D01*
X176092337Y-68240917D01*
X176083762Y-68242804D01*
X176071114Y-68245619D01*
X176055610Y-68249092D01*
X176051726Y-68249966D01*
X175960351Y-68268616D01*
X175865782Y-68284304D01*
X175769745Y-68296835D01*
X175673964Y-68306012D01*
X175580165Y-68311639D01*
X175492687Y-68313520D01*
X175416995Y-68313571D01*
X175415354Y-68324406D01*
X175414471Y-68332361D01*
X175413431Y-68344942D01*
X175412394Y-68360117D01*
X175411836Y-68369648D01*
X175406993Y-68422804D01*
X175398383Y-68477420D01*
X175386398Y-68531976D01*
X175371426Y-68584953D01*
X175353859Y-68634832D01*
X175334087Y-68680093D01*
X175329956Y-68688353D01*
X175307542Y-68727554D01*
X175282917Y-68762180D01*
X175256513Y-68791784D01*
X175228762Y-68815918D01*
X175200098Y-68834137D01*
X175180483Y-68842852D01*
X175162651Y-68847856D01*
X175142185Y-68851191D01*
X175121496Y-68852652D01*
X175102994Y-68852032D01*
X175093024Y-68850350D01*
X175058973Y-68838242D01*
X175026840Y-68819752D01*
X174996624Y-68794880D01*
X174968323Y-68763624D01*
X174941936Y-68725983D01*
X174918372Y-68683775D01*
X174896310Y-68634983D01*
X174877724Y-68583177D01*
X174862490Y-68527796D01*
X174850483Y-68468280D01*
X174841579Y-68404069D01*
X174835653Y-68334603D01*
X174834028Y-68303835D01*
X174831616Y-68249092D01*
X174781610Y-68237965D01*
X174669010Y-68211376D01*
X174561434Y-68182776D01*
X174457432Y-68151744D01*
X174355553Y-68117863D01*
X174313722Y-68102928D01*
X174295972Y-68096539D01*
X174280542Y-68091127D01*
X174268457Y-68087040D01*
X174260740Y-68084626D01*
X174258382Y-68084145D01*
X174257268Y-68087634D01*
X174254980Y-68096106D01*
X174251915Y-68108063D01*
X174250169Y-68115071D01*
X174235008Y-68169307D01*
X174216464Y-68223572D01*
X174195156Y-68276394D01*
X174171703Y-68326298D01*
X174146725Y-68371811D01*
X174133123Y-68393582D01*
X174103313Y-68435378D01*
X174072562Y-68471463D01*
X174041077Y-68501735D01*
X174009066Y-68526092D01*
X173976737Y-68544434D01*
X173944297Y-68556658D01*
X173911956Y-68562664D01*
X173879920Y-68562350D01*
X173848397Y-68555616D01*
X173822595Y-68544987D01*
X173802359Y-68531888D01*
X173781792Y-68513367D01*
X173761826Y-68490547D01*
X173743393Y-68464555D01*
X173727425Y-68436513D01*
X173720588Y-68421919D01*
X173704702Y-68380669D01*
X173692245Y-68337682D01*
X173683080Y-68292099D01*
X173677072Y-68243062D01*
X173674085Y-68189712D01*
X173673984Y-68131191D01*
X173674060Y-68127769D01*
X173677625Y-68058232D01*
X173685166Y-67992130D01*
X173697016Y-67927312D01*
X173713510Y-67861627D01*
X173717640Y-67847369D01*
X173725874Y-67819557D01*
X173703670Y-67805740D01*
X173672999Y-67786371D01*
X173641609Y-67766026D01*
X173610199Y-67745194D01*
X173579466Y-67724367D01*
X173550111Y-67704034D01*
X173522830Y-67684686D01*
X173498324Y-67666814D01*
X173477291Y-67650907D01*
X173460429Y-67637456D01*
X173448437Y-67626951D01*
X173447140Y-67625698D01*
X173415280Y-67589806D01*
X173389010Y-67550438D01*
X173368530Y-67508038D01*
X173354039Y-67463052D01*
X173345734Y-67415924D01*
X173344100Y-67394820D01*
X173344816Y-67345307D01*
X173351802Y-67298049D01*
X173365021Y-67253137D01*
X173384436Y-67210663D01*
X173410010Y-67170719D01*
X173441707Y-67133396D01*
X173454541Y-67120684D01*
X173490177Y-67090929D01*
X173528656Y-67066746D01*
X173570783Y-67047688D01*
X173606031Y-67036273D01*
X173627854Y-67031779D01*
X173654116Y-67028751D01*
X173682744Y-67027235D01*
X173711664Y-67027275D01*
X173738800Y-67028917D01*
X173762079Y-67032206D01*
X173765008Y-67032821D01*
X173812881Y-67046606D01*
X173857199Y-67065966D01*
X173897804Y-67090806D01*
X173934538Y-67121029D01*
X173967245Y-67156538D01*
X173967284Y-67156587D01*
X173981528Y-67175913D01*
X173995359Y-67197552D01*
X174007730Y-67219646D01*
X174017593Y-67240339D01*
X174023448Y-67256188D01*
X174025297Y-67261664D01*
X174027772Y-67266547D01*
X174031544Y-67271336D01*
X174037284Y-67276532D01*
X174045663Y-67282633D01*
X174057351Y-67290141D01*
X174073018Y-67299554D01*
X174093335Y-67311372D01*
X174111498Y-67321810D01*
X174195759Y-67368366D01*
X174279274Y-67410830D01*
X174364401Y-67450343D01*
X174453499Y-67488044D01*
X174465993Y-67493070D01*
X174563997Y-67529770D01*
X174666851Y-67563555D01*
X174773268Y-67594114D01*
X174881961Y-67621138D01*
X174991641Y-67644315D01*
X175101021Y-67663336D01*
X175208814Y-67677890D01*
X175251671Y-67682438D01*
X175277184Y-67684435D01*
X175308052Y-67686051D01*
X175343132Y-67687287D01*
X175381282Y-67688141D01*
X175421359Y-67688615D01*
X175462219Y-67688709D01*
X175502719Y-67688422D01*
X175541716Y-67687755D01*
X175578067Y-67686707D01*
X175610630Y-67685279D01*
X175638260Y-67683471D01*
X175650057Y-67682406D01*
X175767050Y-67667843D01*
X175880106Y-67648270D01*
X175989900Y-67623494D01*
X176097102Y-67593320D01*
X176202387Y-67557558D01*
X176306426Y-67516014D01*
X176409894Y-67468495D01*
X176428492Y-67459300D01*
X176537421Y-67401253D01*
X176642435Y-67337886D01*
X176743953Y-67268933D01*
X176835475Y-67199652D01*
X176883021Y-67161810D01*
X176886769Y-67136174D01*
X176896961Y-67088459D01*
X176912959Y-67043542D01*
X176934383Y-67001823D01*
X176960855Y-66963701D01*
X176991993Y-66929576D01*
X177027417Y-66899848D01*
X177066749Y-66874917D01*
X177109609Y-66855182D01*
X177155615Y-66841043D01*
X177170256Y-66837897D01*
X177189260Y-66835261D01*
X177212323Y-66833649D01*
X177237143Y-66833084D01*
X177261416Y-66833586D01*
G37*
G36*
X175444423Y-61305397D02*
G01*
X175501557Y-61312424D01*
X175513208Y-61314655D01*
X175569090Y-61329382D01*
X175622604Y-61350293D01*
X175673489Y-61377245D01*
X175721485Y-61410097D01*
X175766331Y-61448707D01*
X175775206Y-61457416D01*
X175813003Y-61499119D01*
X175845051Y-61542865D01*
X175871749Y-61589394D01*
X175893496Y-61639447D01*
X175910690Y-61693766D01*
X175917463Y-61721661D01*
X175921335Y-61745006D01*
X175923932Y-61773065D01*
X175925254Y-61804008D01*
X175925303Y-61836002D01*
X175924078Y-61867217D01*
X175921581Y-61895824D01*
X175917811Y-61919989D01*
X175917407Y-61921896D01*
X175901824Y-61979336D01*
X175880845Y-62033864D01*
X175854752Y-62084999D01*
X175823828Y-62132256D01*
X175788354Y-62175152D01*
X175748614Y-62213206D01*
X175745605Y-62215737D01*
X175720066Y-62237040D01*
X175720066Y-62528278D01*
X175720066Y-62819517D01*
X176220132Y-62819517D01*
X176720197Y-62819517D01*
X176720197Y-62551554D01*
X176720197Y-62283591D01*
X176702695Y-62270020D01*
X176669067Y-62240459D01*
X176636960Y-62205472D01*
X176607216Y-62166269D01*
X176580679Y-62124056D01*
X176558192Y-62080043D01*
X176542119Y-62039907D01*
X176533192Y-62012837D01*
X176526426Y-61988754D01*
X176521550Y-61965919D01*
X176518291Y-61942596D01*
X176516379Y-61917048D01*
X176515540Y-61887537D01*
X176515437Y-61869392D01*
X176515541Y-61844389D01*
X176515919Y-61824638D01*
X176516674Y-61808729D01*
X176517908Y-61795249D01*
X176519721Y-61782786D01*
X176522216Y-61769928D01*
X176522799Y-61767220D01*
X176538312Y-61709556D01*
X176558958Y-61655986D01*
X176584967Y-61606085D01*
X176616567Y-61559429D01*
X176653990Y-61515594D01*
X176665030Y-61504278D01*
X176708361Y-61465125D01*
X176754014Y-61431978D01*
X176802561Y-61404524D01*
X176854570Y-61382454D01*
X176910611Y-61365456D01*
X176925765Y-61361862D01*
X176938037Y-61359300D01*
X176949710Y-61357394D01*
X176962105Y-61356050D01*
X176976543Y-61355173D01*
X176994345Y-61354671D01*
X177016832Y-61354447D01*
X177030238Y-61354411D01*
X177055249Y-61354459D01*
X177074933Y-61354736D01*
X177090628Y-61355339D01*
X177103675Y-61356363D01*
X177115412Y-61357905D01*
X177127178Y-61360062D01*
X177136520Y-61362073D01*
X177191648Y-61377016D01*
X177242270Y-61396348D01*
X177289297Y-61420569D01*
X177333638Y-61450176D01*
X177376204Y-61485671D01*
X177395516Y-61504190D01*
X177429269Y-61540343D01*
X177457521Y-61576261D01*
X177481222Y-61613395D01*
X177501322Y-61653201D01*
X177515356Y-61687702D01*
X177532662Y-61743791D01*
X177543507Y-61800760D01*
X177547949Y-61858111D01*
X177546046Y-61915346D01*
X177537857Y-61971968D01*
X177523441Y-62027478D01*
X177502856Y-62081378D01*
X177476160Y-62133171D01*
X177459967Y-62158979D01*
X177448900Y-62174234D01*
X177434722Y-62191847D01*
X177418601Y-62210542D01*
X177401703Y-62229045D01*
X177385193Y-62246082D01*
X177370238Y-62260377D01*
X177358004Y-62270655D01*
X177357388Y-62271112D01*
X177343770Y-62281113D01*
X177343691Y-62550315D01*
X177343613Y-62819517D01*
X177734518Y-62819517D01*
X177797030Y-62819523D01*
X177853278Y-62819551D01*
X177903665Y-62819613D01*
X177948593Y-62819724D01*
X177988466Y-62819897D01*
X178023686Y-62820144D01*
X178054658Y-62820479D01*
X178081782Y-62820916D01*
X178105464Y-62821468D01*
X178126105Y-62822148D01*
X178144109Y-62822970D01*
X178159879Y-62823947D01*
X178173818Y-62825092D01*
X178186329Y-62826419D01*
X178197815Y-62827941D01*
X178208679Y-62829672D01*
X178219324Y-62831624D01*
X178230152Y-62833812D01*
X178241568Y-62836247D01*
X178241950Y-62836330D01*
X178311725Y-62854784D01*
X178378714Y-62879210D01*
X178442637Y-62909401D01*
X178503216Y-62945153D01*
X178560173Y-62986260D01*
X178613228Y-63032514D01*
X178662103Y-63083710D01*
X178706518Y-63139643D01*
X178746195Y-63200105D01*
X178755058Y-63215404D01*
X178781044Y-63266779D01*
X178803791Y-63322798D01*
X178822827Y-63382038D01*
X178837682Y-63443078D01*
X178845857Y-63489605D01*
X178846791Y-63496654D01*
X178847625Y-63504560D01*
X178848366Y-63513745D01*
X178849023Y-63524629D01*
X178849604Y-63537636D01*
X178850116Y-63553187D01*
X178850567Y-63571703D01*
X178850966Y-63593607D01*
X178851320Y-63619320D01*
X178851638Y-63649263D01*
X178851926Y-63683860D01*
X178852194Y-63723531D01*
X178852449Y-63768698D01*
X178852698Y-63819784D01*
X178852894Y-63863821D01*
X178854336Y-64199698D01*
X179091893Y-64199698D01*
X179135202Y-64199731D01*
X179179676Y-64199825D01*
X179224365Y-64199976D01*
X179268319Y-64200177D01*
X179310587Y-64200423D01*
X179350220Y-64200708D01*
X179386267Y-64201026D01*
X179417777Y-64201372D01*
X179443800Y-64201741D01*
X179449177Y-64201833D01*
X179568905Y-64203967D01*
X179591705Y-64177126D01*
X179626792Y-64140436D01*
X179667035Y-64106504D01*
X179711201Y-64076171D01*
X179758059Y-64050277D01*
X179806378Y-64029664D01*
X179809069Y-64028694D01*
X179822138Y-64024456D01*
X179839278Y-64019487D01*
X179858045Y-64014473D01*
X179872410Y-64010932D01*
X179886404Y-64007737D01*
X179898379Y-64005361D01*
X179909738Y-64003682D01*
X179921882Y-64002583D01*
X179936211Y-64001944D01*
X179954127Y-64001645D01*
X179977031Y-64001567D01*
X179982292Y-64001568D01*
X180007451Y-64001673D01*
X180027295Y-64002032D01*
X180043174Y-64002740D01*
X180056437Y-64003893D01*
X180068436Y-64005588D01*
X180080521Y-64007920D01*
X180084834Y-64008863D01*
X180143245Y-64025090D01*
X180198324Y-64046826D01*
X180249783Y-64073854D01*
X180297333Y-64105957D01*
X180340684Y-64142917D01*
X180379547Y-64184517D01*
X180413634Y-64230539D01*
X180440438Y-64276424D01*
X180464470Y-64329755D01*
X180482456Y-64384785D01*
X180494279Y-64440880D01*
X180499824Y-64497406D01*
X180498976Y-64553730D01*
X180496110Y-64581682D01*
X180485181Y-64639847D01*
X180468292Y-64695478D01*
X180445702Y-64748212D01*
X180417667Y-64797684D01*
X180384445Y-64843532D01*
X180346292Y-64885391D01*
X180303467Y-64922899D01*
X180256225Y-64955690D01*
X180215656Y-64978169D01*
X180167761Y-64999676D01*
X180121243Y-65015596D01*
X180074508Y-65026311D01*
X180025964Y-65032203D01*
X179983959Y-65033703D01*
X179925111Y-65030606D01*
X179867610Y-65021158D01*
X179811930Y-65005508D01*
X179758544Y-64983807D01*
X179707926Y-64956205D01*
X179679720Y-64937333D01*
X179663287Y-64924550D01*
X179644250Y-64908196D01*
X179624268Y-64889828D01*
X179604997Y-64871003D01*
X179588098Y-64853277D01*
X179578596Y-64842392D01*
X179565571Y-64826666D01*
X179209691Y-64824375D01*
X178853811Y-64822085D01*
X178853811Y-65317117D01*
X178853811Y-65812150D01*
X179056337Y-65814360D01*
X179098881Y-65814789D01*
X179144516Y-65815186D01*
X179191896Y-65815543D01*
X179239673Y-65815852D01*
X179286498Y-65816105D01*
X179331025Y-65816294D01*
X179371905Y-65816412D01*
X179407791Y-65816451D01*
X179415551Y-65816448D01*
X179572238Y-65816324D01*
X179583907Y-65801175D01*
X179602310Y-65779901D01*
X179625484Y-65757228D01*
X179652035Y-65734297D01*
X179680567Y-65712247D01*
X179709686Y-65692220D01*
X179737260Y-65675757D01*
X179776716Y-65656946D01*
X179820175Y-65641066D01*
X179865996Y-65628482D01*
X179912538Y-65619563D01*
X179958160Y-65614673D01*
X180001220Y-65614180D01*
X180010542Y-65614724D01*
X180070955Y-65622247D01*
X180128763Y-65635775D01*
X180183739Y-65655204D01*
X180235653Y-65680429D01*
X180284276Y-65711345D01*
X180329380Y-65747847D01*
X180354310Y-65772026D01*
X180392646Y-65816398D01*
X180425305Y-65863973D01*
X180452185Y-65914301D01*
X180473186Y-65966928D01*
X180488205Y-66021403D01*
X180497142Y-66077272D01*
X180499895Y-66134086D01*
X180496362Y-66191390D01*
X180486443Y-66248733D01*
X180472378Y-66298788D01*
X180453228Y-66347847D01*
X180429437Y-66393463D01*
X180400420Y-66436564D01*
X180365592Y-66478077D01*
X180347562Y-66496794D01*
X180308504Y-66532784D01*
X180269015Y-66562935D01*
X180227842Y-66588023D01*
X180183737Y-66608826D01*
X180144049Y-66623382D01*
X180112022Y-66633074D01*
X180082817Y-66640070D01*
X180054204Y-66644714D01*
X180023952Y-66647352D01*
X179989831Y-66648327D01*
X179982292Y-66648353D01*
X179924001Y-66645534D01*
X179868680Y-66636943D01*
X179815669Y-66622381D01*
X179764309Y-66601645D01*
X179713939Y-66574537D01*
X179690585Y-66559647D01*
X179675252Y-66548493D01*
X179657508Y-66534147D01*
X179638662Y-66517809D01*
X179620024Y-66500683D01*
X179602904Y-66483969D01*
X179588612Y-66468869D01*
X179578906Y-66457193D01*
X179572727Y-66449567D01*
X179566999Y-66445295D01*
X179559243Y-66443117D01*
X179548902Y-66441946D01*
X179542806Y-66441684D01*
X179530522Y-66441411D01*
X179512530Y-66441130D01*
X179489307Y-66440846D01*
X179461334Y-66440562D01*
X179429090Y-66440283D01*
X179393055Y-66440013D01*
X179353706Y-66439755D01*
X179311525Y-66439514D01*
X179266989Y-66439293D01*
X179220579Y-66439096D01*
X179191355Y-66438989D01*
X178853811Y-66437829D01*
X178853811Y-67011780D01*
X178853811Y-67585731D01*
X178964369Y-67587937D01*
X178986708Y-67588310D01*
X179014841Y-67588660D01*
X179047896Y-67588984D01*
X179085001Y-67589275D01*
X179125283Y-67589528D01*
X179167869Y-67589738D01*
X179211886Y-67589901D01*
X179256462Y-67590010D01*
X179300725Y-67590061D01*
X179323583Y-67590063D01*
X179572238Y-67589983D01*
X179591478Y-67566787D01*
X179624600Y-67531544D01*
X179663008Y-67498851D01*
X179705598Y-67469348D01*
X179751267Y-67443675D01*
X179798912Y-67422474D01*
X179847430Y-67406385D01*
X179881225Y-67398526D01*
X179940593Y-67390424D01*
X179998901Y-67388901D01*
X180056249Y-67393967D01*
X180112740Y-67405639D01*
X180168475Y-67423928D01*
X180212322Y-67443205D01*
X180250694Y-67463840D01*
X180285466Y-67486709D01*
X180318589Y-67513219D01*
X180349053Y-67541803D01*
X180388057Y-67585072D01*
X180421107Y-67631139D01*
X180448428Y-67680396D01*
X180470244Y-67733238D01*
X180483921Y-67778501D01*
X180495134Y-67835069D01*
X180499875Y-67891960D01*
X180498288Y-67948660D01*
X180490517Y-68004654D01*
X180476703Y-68059430D01*
X180456991Y-68112471D01*
X180431524Y-68163266D01*
X180400446Y-68211299D01*
X180363898Y-68256057D01*
X180345463Y-68275233D01*
X180301812Y-68313749D01*
X180254272Y-68346859D01*
X180202888Y-68374537D01*
X180147710Y-68396759D01*
X180088785Y-68413499D01*
X180084834Y-68414395D01*
X180072418Y-68416962D01*
X180060541Y-68418860D01*
X180047853Y-68420184D01*
X180033003Y-68421031D01*
X180014642Y-68421497D01*
X179991418Y-68421676D01*
X179982292Y-68421690D01*
X179958225Y-68421641D01*
X179939424Y-68421395D01*
X179924491Y-68420832D01*
X179912024Y-68419833D01*
X179900625Y-68418280D01*
X179888892Y-68416052D01*
X179875425Y-68413032D01*
X179872534Y-68412353D01*
X179814015Y-68395511D01*
X179759597Y-68373480D01*
X179709058Y-68346150D01*
X179662177Y-68313408D01*
X179641517Y-68296271D01*
X179627475Y-68283335D01*
X179612296Y-68268262D01*
X179597432Y-68252595D01*
X179584336Y-68237875D01*
X179574460Y-68225645D01*
X179572760Y-68223292D01*
X179567547Y-68215849D01*
X179210919Y-68213870D01*
X178854292Y-68211891D01*
X178852894Y-68598609D01*
X178852672Y-68659804D01*
X178852460Y-68714744D01*
X178852241Y-68763841D01*
X178851997Y-68807507D01*
X178851711Y-68846153D01*
X178851364Y-68880193D01*
X178850940Y-68910037D01*
X178850421Y-68936099D01*
X178849789Y-68958789D01*
X178849027Y-68978521D01*
X178848117Y-68995707D01*
X178847042Y-69010758D01*
X178845783Y-69024086D01*
X178844324Y-69036104D01*
X178842647Y-69047224D01*
X178840735Y-69057858D01*
X178838569Y-69068417D01*
X178836132Y-69079315D01*
X178833407Y-69090962D01*
X178831581Y-69098674D01*
X178811878Y-69167770D01*
X178786292Y-69233989D01*
X178755081Y-69297034D01*
X178718502Y-69356608D01*
X178676814Y-69412413D01*
X178630275Y-69464154D01*
X178579143Y-69511531D01*
X178523676Y-69554249D01*
X178464132Y-69592010D01*
X178400770Y-69624517D01*
X178359794Y-69641859D01*
X178316136Y-69657122D01*
X178267631Y-69670843D01*
X178216017Y-69682538D01*
X178207059Y-69684290D01*
X178200945Y-69685437D01*
X178195022Y-69686459D01*
X178188882Y-69687365D01*
X178182119Y-69688164D01*
X178174325Y-69688863D01*
X178165095Y-69689472D01*
X178154020Y-69689999D01*
X178140696Y-69690453D01*
X178124713Y-69690842D01*
X178105667Y-69691175D01*
X178083150Y-69691461D01*
X178056755Y-69691707D01*
X178026076Y-69691923D01*
X177990705Y-69692118D01*
X177950236Y-69692299D01*
X177904262Y-69692476D01*
X177852377Y-69692657D01*
X177802839Y-69692821D01*
X177436958Y-69694027D01*
X177437084Y-69986428D01*
X177437211Y-70278829D01*
X177452318Y-70290497D01*
X177468187Y-70304087D01*
X177486319Y-70321790D01*
X177505364Y-70342118D01*
X177523975Y-70363580D01*
X177540802Y-70384685D01*
X177553167Y-70401933D01*
X177583474Y-70453047D01*
X177607533Y-70506152D01*
X177625313Y-70560829D01*
X177636785Y-70616661D01*
X177641918Y-70673232D01*
X177640681Y-70730124D01*
X177633044Y-70786920D01*
X177618977Y-70843203D01*
X177598449Y-70898555D01*
X177590539Y-70915943D01*
X177562833Y-70966542D01*
X177529875Y-71013305D01*
X177492085Y-71055899D01*
X177449883Y-71093994D01*
X177403687Y-71127259D01*
X177353920Y-71155362D01*
X177300998Y-71177973D01*
X177245344Y-71194760D01*
X177233812Y-71197413D01*
X177176593Y-71206540D01*
X177119114Y-71209135D01*
X177061861Y-71205291D01*
X177005317Y-71195102D01*
X176949967Y-71178661D01*
X176896295Y-71156062D01*
X176844786Y-71127399D01*
X176833546Y-71120124D01*
X176811813Y-71104125D01*
X176788083Y-71084006D01*
X176763791Y-71061200D01*
X176740373Y-71037139D01*
X176719263Y-71013253D01*
X176701896Y-70990973D01*
X176697140Y-70984079D01*
X176666074Y-70931443D01*
X176641260Y-70876591D01*
X176622549Y-70819169D01*
X176616150Y-70792722D01*
X176613468Y-70779378D01*
X176611511Y-70766701D01*
X176610171Y-70753242D01*
X176609342Y-70737548D01*
X176608919Y-70718167D01*
X176608795Y-70693649D01*
X176608795Y-70692217D01*
X176609240Y-70658972D01*
X176610760Y-70630521D01*
X176613628Y-70605036D01*
X176618120Y-70580690D01*
X176624511Y-70555657D01*
X176633076Y-70528110D01*
X176633837Y-70525822D01*
X176652939Y-70477702D01*
X176677471Y-70430688D01*
X176706606Y-70386003D01*
X176739520Y-70344868D01*
X176775387Y-70308504D01*
X176788004Y-70297532D01*
X176813543Y-70276229D01*
X176813543Y-69984991D01*
X176813543Y-69693752D01*
X176266805Y-69693752D01*
X175720066Y-69693752D01*
X175720066Y-69984991D01*
X175720066Y-70276229D01*
X175745605Y-70297532D01*
X175785641Y-70335219D01*
X175821430Y-70377784D01*
X175852690Y-70424744D01*
X175879140Y-70475616D01*
X175900495Y-70529918D01*
X175916474Y-70587164D01*
X175917407Y-70591373D01*
X175921340Y-70615405D01*
X175923962Y-70644113D01*
X175925272Y-70675640D01*
X175925272Y-70708124D01*
X175923960Y-70739706D01*
X175921337Y-70768527D01*
X175917404Y-70792722D01*
X175901776Y-70850324D01*
X175880470Y-70905002D01*
X175853710Y-70956323D01*
X175821722Y-71003855D01*
X175785481Y-71046383D01*
X175741696Y-71087694D01*
X175695065Y-71122979D01*
X175645553Y-71152253D01*
X175593125Y-71175533D01*
X175537746Y-71192836D01*
X175479383Y-71204178D01*
X175449366Y-71207593D01*
X175394897Y-71209144D01*
X175339783Y-71204427D01*
X175284859Y-71193672D01*
X175230963Y-71177113D01*
X175178930Y-71154981D01*
X175129598Y-71127507D01*
X175107655Y-71112867D01*
X175086223Y-71096256D01*
X175062868Y-71075639D01*
X175039224Y-71052650D01*
X175016925Y-71028923D01*
X174997603Y-71006091D01*
X174987709Y-70992920D01*
X174956757Y-70943498D01*
X174931823Y-70891809D01*
X174912897Y-70838354D01*
X174899966Y-70783634D01*
X174893021Y-70728148D01*
X174892050Y-70672397D01*
X174897043Y-70616881D01*
X174907988Y-70562102D01*
X174924874Y-70508558D01*
X174947691Y-70456751D01*
X174976427Y-70407182D01*
X175001292Y-70372496D01*
X175009857Y-70362189D01*
X175020908Y-70349854D01*
X175033563Y-70336369D01*
X175046940Y-70322613D01*
X175060158Y-70309465D01*
X175072334Y-70297802D01*
X175082587Y-70288504D01*
X175090036Y-70282448D01*
X175093645Y-70280496D01*
X175094136Y-70277224D01*
X175094595Y-70267656D01*
X175095018Y-70252163D01*
X175095400Y-70231115D01*
X175095739Y-70204885D01*
X175096031Y-70173843D01*
X175096271Y-70138361D01*
X175096456Y-70098809D01*
X175096581Y-70055560D01*
X175096644Y-70008983D01*
X175096651Y-69987124D01*
X175096651Y-69693752D01*
X174551579Y-69693752D01*
X174006508Y-69693752D01*
X174006508Y-69985673D01*
X174006508Y-70277593D01*
X174017343Y-70286448D01*
X174060937Y-70326211D01*
X174099280Y-70369713D01*
X174132237Y-70416494D01*
X174159672Y-70466094D01*
X174181449Y-70518055D01*
X174197434Y-70571916D01*
X174207491Y-70627219D01*
X174211484Y-70683502D01*
X174209279Y-70740308D01*
X174200741Y-70797175D01*
X174185733Y-70853646D01*
X174185009Y-70855848D01*
X174175772Y-70880349D01*
X174163515Y-70907888D01*
X174149350Y-70936272D01*
X174134387Y-70963304D01*
X174119738Y-70986790D01*
X174116023Y-70992178D01*
X174098671Y-71014532D01*
X174077292Y-71038691D01*
X174053552Y-71062990D01*
X174029114Y-71085762D01*
X174005647Y-71105342D01*
X173994762Y-71113439D01*
X173957594Y-71136966D01*
X173916178Y-71158355D01*
X173872631Y-71176688D01*
X173829073Y-71191048D01*
X173798147Y-71198564D01*
X173752644Y-71206043D01*
X173709505Y-71209390D01*
X173665983Y-71208756D01*
X173643156Y-71206986D01*
X173607335Y-71202073D01*
X173570256Y-71193938D01*
X173533112Y-71183181D01*
X173479955Y-71162834D01*
X173429723Y-71136713D01*
X173382822Y-71105216D01*
X173339660Y-71068744D01*
X173300641Y-71027695D01*
X173266173Y-70982468D01*
X173236661Y-70933462D01*
X173212512Y-70881078D01*
X173204962Y-70860761D01*
X173195896Y-70833307D01*
X173189061Y-70808799D01*
X173184176Y-70785448D01*
X173180958Y-70761469D01*
X173179124Y-70735072D01*
X173178393Y-70704471D01*
X173178345Y-70692217D01*
X173178790Y-70658972D01*
X173180310Y-70630521D01*
X173183178Y-70605036D01*
X173187670Y-70580690D01*
X173194061Y-70555657D01*
X173202625Y-70528110D01*
X173203387Y-70525822D01*
X173222489Y-70477702D01*
X173247021Y-70430688D01*
X173276156Y-70386003D01*
X173309070Y-70344868D01*
X173344937Y-70308504D01*
X173357554Y-70297532D01*
X173383093Y-70276229D01*
X173383093Y-69984991D01*
X173383093Y-69693752D01*
X173092201Y-69693752D01*
X173037415Y-69693737D01*
X172988811Y-69693677D01*
X172945900Y-69693553D01*
X172908197Y-69693344D01*
X172875214Y-69693031D01*
X172846465Y-69692593D01*
X172821464Y-69692010D01*
X172799723Y-69691262D01*
X172780756Y-69690330D01*
X172764076Y-69689192D01*
X172749196Y-69687830D01*
X172735630Y-69686222D01*
X172722891Y-69684348D01*
X172710492Y-69682190D01*
X172697947Y-69679726D01*
X172684779Y-69676939D01*
X172616445Y-69658804D01*
X172550695Y-69634727D01*
X172487851Y-69605012D01*
X172428234Y-69569963D01*
X172372167Y-69529885D01*
X172319972Y-69485082D01*
X172271971Y-69435858D01*
X172228487Y-69382518D01*
X172189841Y-69325366D01*
X172156356Y-69264707D01*
X172128354Y-69200845D01*
X172106158Y-69134085D01*
X172104718Y-69128904D01*
X172100376Y-69112850D01*
X172096503Y-69097836D01*
X172093070Y-69083401D01*
X172090052Y-69069085D01*
X172087421Y-69054426D01*
X172085151Y-69038966D01*
X172083216Y-69022243D01*
X172081588Y-69003796D01*
X172080240Y-68983165D01*
X172079147Y-68959890D01*
X172078281Y-68933510D01*
X172077615Y-68903564D01*
X172077124Y-68869593D01*
X172076779Y-68831135D01*
X172076555Y-68787729D01*
X172076424Y-68738916D01*
X172076360Y-68684235D01*
X172076341Y-68639989D01*
X172076255Y-68321322D01*
X171945692Y-68319114D01*
X171917867Y-68318706D01*
X171884472Y-68318323D01*
X171846605Y-68317971D01*
X171805362Y-68317657D01*
X171761842Y-68317389D01*
X171717141Y-68317173D01*
X171672358Y-68317016D01*
X171628588Y-68316925D01*
X171597863Y-68316905D01*
X171380598Y-68316905D01*
X171357544Y-68343966D01*
X171321517Y-68381470D01*
X171280365Y-68415776D01*
X171235151Y-68446176D01*
X171186934Y-68471965D01*
X171136775Y-68492435D01*
X171132504Y-68493890D01*
X171104309Y-68502714D01*
X171078366Y-68509272D01*
X171052611Y-68513915D01*
X171024982Y-68516992D01*
X170993417Y-68518850D01*
X170982778Y-68519226D01*
X170959288Y-68519812D01*
X170940580Y-68519864D01*
X170924783Y-68519284D01*
X170910024Y-68517971D01*
X170894433Y-68515829D01*
X170883194Y-68513984D01*
X170826706Y-68501128D01*
X170772285Y-68482375D01*
X170720535Y-68458060D01*
X170672061Y-68428513D01*
X170627467Y-68394070D01*
X170587359Y-68355061D01*
X170580347Y-68347221D01*
X170544178Y-68301055D01*
X170513950Y-68252442D01*
X170489612Y-68201833D01*
X170471111Y-68149683D01*
X170458395Y-68096446D01*
X170451410Y-68042575D01*
X170450105Y-67988524D01*
X170454427Y-67934747D01*
X170464324Y-67881697D01*
X170479742Y-67829829D01*
X170500630Y-67779595D01*
X170526935Y-67731450D01*
X170558604Y-67685848D01*
X170595585Y-67643241D01*
X170637826Y-67604084D01*
X170669145Y-67579932D01*
X170711066Y-67553482D01*
X170757472Y-67530533D01*
X170806845Y-67511679D01*
X170857670Y-67497514D01*
X170898777Y-67489899D01*
X170915853Y-67488289D01*
X170937574Y-67487446D01*
X170962273Y-67487322D01*
X170988284Y-67487865D01*
X171013940Y-67489024D01*
X171037576Y-67490751D01*
X171057524Y-67492993D01*
X171069456Y-67495068D01*
X171092373Y-67500857D01*
X171118090Y-67508576D01*
X171144489Y-67517494D01*
X171169456Y-67526880D01*
X171190872Y-67536003D01*
X171198180Y-67539521D01*
X171237833Y-67561946D01*
X171276747Y-67588567D01*
X171313275Y-67618096D01*
X171345772Y-67649246D01*
X171362461Y-67667951D01*
X171383763Y-67693490D01*
X171730009Y-67693490D01*
X172076255Y-67693490D01*
X172076255Y-67133962D01*
X172076255Y-66574435D01*
X171888730Y-66572225D01*
X171847556Y-66571776D01*
X171803203Y-66571358D01*
X171757095Y-66570980D01*
X171710658Y-66570650D01*
X171665315Y-66570380D01*
X171622492Y-66570177D01*
X171583613Y-66570051D01*
X171552817Y-66570012D01*
X171404429Y-66570009D01*
X171389635Y-66588549D01*
X171358899Y-66622575D01*
X171322797Y-66654817D01*
X171282560Y-66684443D01*
X171239420Y-66710618D01*
X171194611Y-66732510D01*
X171154250Y-66747739D01*
X171129873Y-66755374D01*
X171108986Y-66761215D01*
X171089999Y-66765493D01*
X171071318Y-66768437D01*
X171051352Y-66770277D01*
X171028509Y-66771245D01*
X171001196Y-66771571D01*
X170989445Y-66771574D01*
X170964889Y-66771467D01*
X170945654Y-66771172D01*
X170930394Y-66770579D01*
X170917765Y-66769578D01*
X170906420Y-66768061D01*
X170895015Y-66765918D01*
X170882202Y-66763039D01*
X170880935Y-66762740D01*
X170822845Y-66745791D01*
X170768201Y-66723310D01*
X170717260Y-66695499D01*
X170670279Y-66662559D01*
X170627517Y-66624690D01*
X170589230Y-66582095D01*
X170555676Y-66534972D01*
X170529474Y-66488332D01*
X170513256Y-66453407D01*
X170500679Y-66420648D01*
X170490789Y-66387391D01*
X170485851Y-66366563D01*
X170476824Y-66309991D01*
X172699626Y-66309991D01*
X172699630Y-66426205D01*
X172699639Y-66542138D01*
X172699654Y-66657595D01*
X172699674Y-66772384D01*
X172699700Y-66886313D01*
X172699732Y-66999187D01*
X172699769Y-67110814D01*
X172699811Y-67221001D01*
X172699859Y-67329555D01*
X172699913Y-67436282D01*
X172699972Y-67540990D01*
X172700037Y-67643485D01*
X172700107Y-67743576D01*
X172700183Y-67841067D01*
X172700265Y-67935768D01*
X172700352Y-68027483D01*
X172700444Y-68116022D01*
X172700542Y-68201189D01*
X172700646Y-68282793D01*
X172700755Y-68360640D01*
X172700870Y-68434538D01*
X172700991Y-68504292D01*
X172701117Y-68569711D01*
X172701248Y-68630601D01*
X172701385Y-68686769D01*
X172701528Y-68738022D01*
X172701676Y-68784168D01*
X172701830Y-68825012D01*
X172701990Y-68860362D01*
X172702155Y-68890025D01*
X172702326Y-68913807D01*
X172702502Y-68931517D01*
X172702684Y-68942960D01*
X172702871Y-68947944D01*
X172702886Y-68948057D01*
X172710897Y-68976956D01*
X172725094Y-69003439D01*
X172741209Y-69023241D01*
X172763859Y-69043271D01*
X172788380Y-69057450D01*
X172810033Y-69065061D01*
X172811742Y-69065357D01*
X172814714Y-69065641D01*
X172819082Y-69065913D01*
X172824978Y-69066173D01*
X172832534Y-69066423D01*
X172841882Y-69066661D01*
X172853155Y-69066889D01*
X172866485Y-69067106D01*
X172882005Y-69067314D01*
X172899846Y-69067511D01*
X172920141Y-69067699D01*
X172943023Y-69067878D01*
X172968623Y-69068047D01*
X172997074Y-69068207D01*
X173028508Y-69068359D01*
X173063057Y-69068503D01*
X173100854Y-69068638D01*
X173142032Y-69068765D01*
X173186721Y-69068885D01*
X173235055Y-69068998D01*
X173287166Y-69069103D01*
X173343187Y-69069202D01*
X173403249Y-69069294D01*
X173467484Y-69069379D01*
X173536026Y-69069459D01*
X173609006Y-69069532D01*
X173686557Y-69069600D01*
X173768811Y-69069663D01*
X173855900Y-69069720D01*
X173947956Y-69069773D01*
X174045113Y-69069821D01*
X174147501Y-69069865D01*
X174255255Y-69069905D01*
X174368504Y-69069941D01*
X174487383Y-69069973D01*
X174612024Y-69070002D01*
X174742558Y-69070028D01*
X174879118Y-69070051D01*
X175021836Y-69070071D01*
X175170844Y-69070089D01*
X175326276Y-69070106D01*
X175463499Y-69070118D01*
X175623697Y-69070130D01*
X175777362Y-69070140D01*
X175924630Y-69070147D01*
X176065635Y-69070152D01*
X176200512Y-69070153D01*
X176329396Y-69070150D01*
X176452422Y-69070144D01*
X176569726Y-69070134D01*
X176681441Y-69070119D01*
X176787703Y-69070100D01*
X176888647Y-69070076D01*
X176984408Y-69070048D01*
X177075120Y-69070014D01*
X177160919Y-69069974D01*
X177241940Y-69069929D01*
X177318317Y-69069878D01*
X177390186Y-69069821D01*
X177457681Y-69069757D01*
X177520937Y-69069686D01*
X177580089Y-69069608D01*
X177635273Y-69069523D01*
X177686623Y-69069431D01*
X177734274Y-69069331D01*
X177778361Y-69069223D01*
X177819019Y-69069106D01*
X177856382Y-69068981D01*
X177890587Y-69068848D01*
X177921767Y-69068705D01*
X177950058Y-69068553D01*
X177975594Y-69068392D01*
X177998511Y-69068221D01*
X178018944Y-69068040D01*
X178037027Y-69067848D01*
X178052895Y-69067647D01*
X178066684Y-69067434D01*
X178078528Y-69067210D01*
X178088562Y-69066976D01*
X178096921Y-69066729D01*
X178103740Y-69066471D01*
X178109154Y-69066201D01*
X178113298Y-69065919D01*
X178116307Y-69065624D01*
X178118316Y-69065316D01*
X178118847Y-69065195D01*
X178146970Y-69054549D01*
X178172173Y-69038142D01*
X178193895Y-69016449D01*
X178211573Y-68989946D01*
X178214491Y-68984279D01*
X178225395Y-68962130D01*
X178225395Y-66256635D01*
X178225395Y-63551139D01*
X178213987Y-63527873D01*
X178198309Y-63502737D01*
X178178049Y-63480986D01*
X178154339Y-63463507D01*
X178128310Y-63451184D01*
X178109512Y-63446136D01*
X178104307Y-63445799D01*
X178092543Y-63445484D01*
X178074327Y-63445193D01*
X178049766Y-63444926D01*
X178018970Y-63444682D01*
X177982045Y-63444462D01*
X177939100Y-63444267D01*
X177890242Y-63444096D01*
X177835579Y-63443950D01*
X177775219Y-63443829D01*
X177709270Y-63443734D01*
X177637840Y-63443664D01*
X177561036Y-63443620D01*
X177478966Y-63443602D01*
X177391739Y-63443611D01*
X177299461Y-63443646D01*
X177202242Y-63443708D01*
X177145583Y-63443755D01*
X176199122Y-63444599D01*
X176237131Y-63460975D01*
X176328468Y-63503601D01*
X176419297Y-63552404D01*
X176508993Y-63606896D01*
X176596929Y-63666589D01*
X176682481Y-63730994D01*
X176765024Y-63799623D01*
X176843933Y-63871986D01*
X176918582Y-63947595D01*
X176988347Y-64025961D01*
X177037165Y-64086350D01*
X177103385Y-64177278D01*
X177163952Y-64271536D01*
X177218750Y-64368850D01*
X177267661Y-64468948D01*
X177310571Y-64571557D01*
X177347362Y-64676403D01*
X177377920Y-64783213D01*
X177402127Y-64891716D01*
X177416638Y-64978133D01*
X177428835Y-65083241D01*
X177435233Y-65189051D01*
X177435812Y-65295927D01*
X177430549Y-65404233D01*
X177419422Y-65514335D01*
X177402411Y-65626597D01*
X177379494Y-65741383D01*
X177368631Y-65788240D01*
X177340676Y-65896743D01*
X177310285Y-65999787D01*
X177277108Y-66098247D01*
X177240797Y-66192997D01*
X177201004Y-66284911D01*
X177157379Y-66374863D01*
X177109574Y-66463727D01*
X177076101Y-66521307D01*
X177062841Y-66543229D01*
X177049576Y-66564602D01*
X177035753Y-66586258D01*
X177020819Y-66609028D01*
X177004221Y-66633744D01*
X176985406Y-66661239D01*
X176963819Y-66692345D01*
X176938909Y-66727895D01*
X176935647Y-66732530D01*
X176878752Y-66813374D01*
X175473467Y-66813305D01*
X174068183Y-66813235D01*
X173991506Y-66742182D01*
X173938479Y-66691843D01*
X173890315Y-66643492D01*
X173845985Y-66596000D01*
X173804457Y-66548238D01*
X173764703Y-66499075D01*
X173738700Y-66464995D01*
X173675241Y-66374564D01*
X173617917Y-66281518D01*
X173566726Y-66185858D01*
X173521669Y-66087585D01*
X173482746Y-65986700D01*
X173449959Y-65883205D01*
X173423307Y-65777100D01*
X173402791Y-65668387D01*
X173392640Y-65595435D01*
X173389963Y-65568396D01*
X173387701Y-65536105D01*
X173385881Y-65499968D01*
X173384532Y-65461391D01*
X173383682Y-65421778D01*
X173383568Y-65407847D01*
X174008009Y-65407847D01*
X174008415Y-65442439D01*
X174009375Y-65475171D01*
X174010889Y-65504675D01*
X174012959Y-65529584D01*
X174014200Y-65539874D01*
X174028916Y-65626093D01*
X174048815Y-65708495D01*
X174074119Y-65787717D01*
X174105051Y-65864395D01*
X174141831Y-65939168D01*
X174171459Y-65991184D01*
X174191312Y-66022806D01*
X174213499Y-66055799D01*
X174236949Y-66088703D01*
X174260591Y-66120057D01*
X174283353Y-66148400D01*
X174304165Y-66172270D01*
X174304262Y-66172375D01*
X174317398Y-66186625D01*
X175433530Y-66186625D01*
X176549663Y-66186625D01*
X176571775Y-66146746D01*
X176605175Y-66083865D01*
X176635501Y-66021016D01*
X176663151Y-65957145D01*
X176688521Y-65891197D01*
X176712011Y-65822117D01*
X176734018Y-65748849D01*
X176754940Y-65670338D01*
X176761644Y-65643221D01*
X176783368Y-65542464D01*
X176798960Y-65444203D01*
X176808418Y-65348301D01*
X176811734Y-65254621D01*
X176808904Y-65163025D01*
X176799923Y-65073375D01*
X176784786Y-64985535D01*
X176763487Y-64899367D01*
X176736022Y-64814733D01*
X176729837Y-64798106D01*
X176718977Y-64771273D01*
X176705435Y-64740546D01*
X176690055Y-64707652D01*
X176673683Y-64674319D01*
X176657165Y-64642272D01*
X176641347Y-64613238D01*
X176628665Y-64591531D01*
X176578225Y-64515197D01*
X176521904Y-64441661D01*
X176460004Y-64371223D01*
X176392827Y-64304183D01*
X176320674Y-64240843D01*
X176243847Y-64181504D01*
X176162649Y-64126467D01*
X176161309Y-64125619D01*
X176082308Y-64079560D01*
X176000607Y-64039542D01*
X175916407Y-64005601D01*
X175829907Y-63977774D01*
X175741306Y-63956098D01*
X175650804Y-63940609D01*
X175558601Y-63931343D01*
X175464896Y-63928336D01*
X175369888Y-63931627D01*
X175273778Y-63941250D01*
X175208332Y-63951352D01*
X175112686Y-63971486D01*
X175019731Y-63997683D01*
X174929620Y-64029858D01*
X174842504Y-64067927D01*
X174758533Y-64111803D01*
X174677858Y-64161404D01*
X174600630Y-64216644D01*
X174527000Y-64277437D01*
X174457119Y-64343701D01*
X174399613Y-64405592D01*
X174338157Y-64480536D01*
X174280981Y-64560041D01*
X174228358Y-64643509D01*
X174180562Y-64730336D01*
X174137863Y-64819923D01*
X174100536Y-64911669D01*
X174068853Y-65004973D01*
X174043086Y-65099235D01*
X174023508Y-65193852D01*
X174014285Y-65254836D01*
X174011924Y-65278222D01*
X174010116Y-65306582D01*
X174008860Y-65338552D01*
X174008158Y-65372762D01*
X174008009Y-65407847D01*
X173383568Y-65407847D01*
X173383360Y-65382534D01*
X173383593Y-65345066D01*
X173384409Y-65310777D01*
X173385839Y-65281073D01*
X173386199Y-65275824D01*
X173397850Y-65160931D01*
X173415946Y-65047598D01*
X173440458Y-64935977D01*
X173458210Y-64869976D01*
X173495018Y-64753163D01*
X173537234Y-64639494D01*
X173584712Y-64529160D01*
X173637308Y-64422353D01*
X173694876Y-64319265D01*
X173757272Y-64220086D01*
X173824349Y-64125009D01*
X173895963Y-64034225D01*
X173971969Y-63947926D01*
X174052221Y-63866303D01*
X174136575Y-63789548D01*
X174224885Y-63717852D01*
X174317005Y-63651407D01*
X174412792Y-63590405D01*
X174439898Y-63574527D01*
X174465497Y-63560254D01*
X174495058Y-63544513D01*
X174527119Y-63528026D01*
X174560215Y-63511517D01*
X174592881Y-63495710D01*
X174623653Y-63481328D01*
X174651066Y-63469094D01*
X174666331Y-63462662D01*
X174710572Y-63444599D01*
X173772630Y-63443731D01*
X173668305Y-63443645D01*
X173570548Y-63443583D01*
X173479260Y-63443548D01*
X173394339Y-63443538D01*
X173315688Y-63443555D01*
X173243206Y-63443598D01*
X173176794Y-63443668D01*
X173116351Y-63443766D01*
X173061778Y-63443891D01*
X173012977Y-63444044D01*
X172969845Y-63444224D01*
X172932286Y-63444433D01*
X172900197Y-63444671D01*
X172873481Y-63444938D01*
X172852037Y-63445234D01*
X172835765Y-63445559D01*
X172824567Y-63445914D01*
X172818341Y-63446299D01*
X172817287Y-63446447D01*
X172789910Y-63455333D01*
X172764673Y-63469783D01*
X172742468Y-63488873D01*
X172724186Y-63511681D01*
X172710720Y-63537283D01*
X172702961Y-63564757D01*
X172702956Y-63564785D01*
X172702768Y-63569252D01*
X172702585Y-63580193D01*
X172702408Y-63597416D01*
X172702236Y-63620727D01*
X172702070Y-63649934D01*
X172701909Y-63684843D01*
X172701754Y-63725261D01*
X172701604Y-63770995D01*
X172701459Y-63821853D01*
X172701320Y-63877641D01*
X172701187Y-63938166D01*
X172701058Y-64003235D01*
X172700936Y-64072655D01*
X172700819Y-64146233D01*
X172700707Y-64223776D01*
X172700601Y-64305090D01*
X172700500Y-64389984D01*
X172700405Y-64478264D01*
X172700315Y-64569736D01*
X172700231Y-64664208D01*
X172700152Y-64761487D01*
X172700078Y-64861379D01*
X172700011Y-64963692D01*
X172699948Y-65068233D01*
X172699891Y-65174808D01*
X172699840Y-65283225D01*
X172699794Y-65393290D01*
X172699754Y-65504811D01*
X172699719Y-65617594D01*
X172699690Y-65731446D01*
X172699666Y-65846174D01*
X172699648Y-65961586D01*
X172699635Y-66077488D01*
X172699628Y-66193687D01*
X172699626Y-66309991D01*
X170476824Y-66309991D01*
X170476713Y-66309298D01*
X170474083Y-66251744D01*
X170477854Y-66194464D01*
X170487919Y-66138019D01*
X170504172Y-66082971D01*
X170526508Y-66029881D01*
X170554820Y-65979312D01*
X170560839Y-65970074D01*
X170596229Y-65922881D01*
X170636066Y-65880557D01*
X170680034Y-65843307D01*
X170727817Y-65811334D01*
X170779098Y-65784844D01*
X170833562Y-65764040D01*
X170890891Y-65749127D01*
X170907768Y-65745975D01*
X170939161Y-65742084D01*
X170974167Y-65740252D01*
X171010689Y-65740424D01*
X171046632Y-65742546D01*
X171079898Y-65746563D01*
X171102794Y-65751014D01*
X171161663Y-65768124D01*
X171216472Y-65790515D01*
X171267260Y-65818210D01*
X171314070Y-65851235D01*
X171356940Y-65889613D01*
X171382088Y-65916717D01*
X171407834Y-65946494D01*
X171736771Y-65946544D01*
X171783115Y-65946571D01*
X171827620Y-65946636D01*
X171869828Y-65946737D01*
X171909279Y-65946870D01*
X171945514Y-65947032D01*
X171978075Y-65947221D01*
X172006502Y-65947434D01*
X172030336Y-65947668D01*
X172049119Y-65947920D01*
X172062392Y-65948188D01*
X172069695Y-65948468D01*
X172070981Y-65948617D01*
X172071659Y-65948460D01*
X172072276Y-65947251D01*
X172072836Y-65944699D01*
X172073341Y-65940513D01*
X172073795Y-65934403D01*
X172074199Y-65926078D01*
X172074558Y-65915248D01*
X172074872Y-65901621D01*
X172075146Y-65884907D01*
X172075382Y-65864816D01*
X172075583Y-65841056D01*
X172075751Y-65813336D01*
X172075889Y-65781367D01*
X172076001Y-65744857D01*
X172076088Y-65703516D01*
X172076153Y-65657053D01*
X172076200Y-65605177D01*
X172076230Y-65547597D01*
X172076248Y-65484023D01*
X172076254Y-65414164D01*
X172076255Y-65390736D01*
X172076255Y-64830830D01*
X172018747Y-64828649D01*
X172006369Y-64828308D01*
X171987956Y-64827984D01*
X171964140Y-64827681D01*
X171935554Y-64827401D01*
X171902830Y-64827151D01*
X171866600Y-64826933D01*
X171827497Y-64826751D01*
X171786153Y-64826611D01*
X171743201Y-64826516D01*
X171699272Y-64826470D01*
X171682870Y-64826466D01*
X171404500Y-64826465D01*
X171382159Y-64852889D01*
X171346913Y-64889823D01*
X171306482Y-64923751D01*
X171261942Y-64953955D01*
X171214370Y-64979716D01*
X171164845Y-65000318D01*
X171156887Y-65003062D01*
X171130913Y-65011366D01*
X171107965Y-65017646D01*
X171086310Y-65022166D01*
X171064218Y-65025188D01*
X171039958Y-65026973D01*
X171011800Y-65027783D01*
X170992779Y-65027910D01*
X170967880Y-65027838D01*
X170948243Y-65027491D01*
X170932465Y-65026769D01*
X170919143Y-65025572D01*
X170906873Y-65023800D01*
X170894251Y-65021353D01*
X170890884Y-65020625D01*
X170834336Y-65005608D01*
X170782401Y-64986214D01*
X170734328Y-64962028D01*
X170689368Y-64932638D01*
X170646770Y-64897628D01*
X170618684Y-64870311D01*
X170580630Y-64826241D01*
X170548138Y-64778792D01*
X170521346Y-64728456D01*
X170500395Y-64675722D01*
X170485423Y-64621081D01*
X170476569Y-64565021D01*
X170473974Y-64508033D01*
X170477776Y-64450607D01*
X170485851Y-64403144D01*
X170501404Y-64346998D01*
X170522779Y-64293620D01*
X170549632Y-64243393D01*
X170581618Y-64196702D01*
X170618395Y-64153932D01*
X170659617Y-64115468D01*
X170704942Y-64081694D01*
X170754025Y-64052996D01*
X170806522Y-64029756D01*
X170825716Y-64022958D01*
X170858119Y-64012957D01*
X170887587Y-64005676D01*
X170916975Y-64000527D01*
X170949137Y-63996925D01*
X170954490Y-63996473D01*
X171010230Y-63995227D01*
X171066198Y-64000392D01*
X171121693Y-64011777D01*
X171176012Y-64029189D01*
X171228452Y-64052438D01*
X171278312Y-64081332D01*
X171287013Y-64087154D01*
X171305950Y-64101165D01*
X171326639Y-64118252D01*
X171347521Y-64136978D01*
X171367040Y-64155909D01*
X171383637Y-64173611D01*
X171392667Y-64184483D01*
X171406978Y-64203032D01*
X171741458Y-64203032D01*
X172075939Y-64203032D01*
X172077147Y-63857153D01*
X172077353Y-63800727D01*
X172077559Y-63750556D01*
X172077772Y-63706231D01*
X172078000Y-63667340D01*
X172078250Y-63633472D01*
X172078529Y-63604215D01*
X172078846Y-63579159D01*
X172079208Y-63557892D01*
X172079622Y-63540003D01*
X172080096Y-63525081D01*
X172080636Y-63512714D01*
X172081252Y-63502492D01*
X172081949Y-63494003D01*
X172082737Y-63486836D01*
X172083621Y-63480581D01*
X172084056Y-63477937D01*
X172099588Y-63404519D01*
X172120449Y-63335037D01*
X172146737Y-63269291D01*
X172178551Y-63207083D01*
X172215988Y-63148214D01*
X172259146Y-63092485D01*
X172292141Y-63055939D01*
X172343685Y-63006703D01*
X172398556Y-62963145D01*
X172456874Y-62925202D01*
X172518759Y-62892812D01*
X172584330Y-62865911D01*
X172653707Y-62844436D01*
X172724673Y-62828746D01*
X172731631Y-62827516D01*
X172738381Y-62826431D01*
X172745378Y-62825481D01*
X172753074Y-62824654D01*
X172761924Y-62823939D01*
X172772381Y-62823326D01*
X172784898Y-62822804D01*
X172799929Y-62822361D01*
X172817928Y-62821987D01*
X172839347Y-62821671D01*
X172864640Y-62821402D01*
X172894261Y-62821170D01*
X172928664Y-62820962D01*
X172968301Y-62820769D01*
X173013627Y-62820579D01*
X173065095Y-62820382D01*
X173073886Y-62820349D01*
X173383093Y-62819197D01*
X173383093Y-62551571D01*
X173383093Y-62283944D01*
X173361816Y-62266681D01*
X173321290Y-62229550D01*
X173285022Y-62187525D01*
X173253278Y-62141055D01*
X173226324Y-62090586D01*
X173204425Y-62036566D01*
X173187847Y-61979442D01*
X173185815Y-61970540D01*
X173182389Y-61949962D01*
X173179900Y-61924684D01*
X173178364Y-61896414D01*
X173177796Y-61866860D01*
X173178212Y-61837728D01*
X173179627Y-61810726D01*
X173182058Y-61787562D01*
X173184045Y-61776047D01*
X173198245Y-61720950D01*
X173217178Y-61668988D01*
X173231469Y-61637695D01*
X173259754Y-61587563D01*
X173293180Y-61541428D01*
X173331351Y-61499573D01*
X173373870Y-61462281D01*
X173420340Y-61429836D01*
X173470365Y-61402521D01*
X173523547Y-61380621D01*
X173579491Y-61364418D01*
X173626005Y-61355743D01*
X173648877Y-61353592D01*
X173676274Y-61352755D01*
X173706235Y-61353146D01*
X173736799Y-61354677D01*
X173766007Y-61357261D01*
X173791900Y-61360811D01*
X173806694Y-61363753D01*
X173863976Y-61380497D01*
X173917938Y-61402848D01*
X173968296Y-61430476D01*
X174014762Y-61463051D01*
X174057052Y-61500245D01*
X174094878Y-61541727D01*
X174127955Y-61587168D01*
X174155996Y-61636240D01*
X174178716Y-61688613D01*
X174195828Y-61743956D01*
X174207047Y-61801942D01*
X174210033Y-61828109D01*
X174211706Y-61882959D01*
X174207033Y-61938358D01*
X174196209Y-61993561D01*
X174179430Y-62047826D01*
X174156891Y-62100409D01*
X174128787Y-62150567D01*
X174122912Y-62159644D01*
X174109399Y-62178308D01*
X174092186Y-62198897D01*
X174070623Y-62222160D01*
X174054301Y-62238736D01*
X174006508Y-62286371D01*
X174006508Y-62552944D01*
X174006508Y-62819517D01*
X174551579Y-62819517D01*
X175096651Y-62819517D01*
X175096572Y-62526978D01*
X175096493Y-62234440D01*
X175082875Y-62224439D01*
X175070849Y-62214447D01*
X175056030Y-62200362D01*
X175039585Y-62183460D01*
X175022679Y-62165014D01*
X175006477Y-62146297D01*
X174992144Y-62128584D01*
X174980848Y-62113148D01*
X174980281Y-62112306D01*
X174950106Y-62061379D01*
X174926133Y-62008367D01*
X174908395Y-61953710D01*
X174896923Y-61897847D01*
X174891749Y-61841220D01*
X174892905Y-61784266D01*
X174900423Y-61727428D01*
X174914333Y-61671144D01*
X174934670Y-61615855D01*
X174943070Y-61597326D01*
X174970606Y-61546986D01*
X175003127Y-61500724D01*
X175040173Y-61458767D01*
X175081287Y-61421343D01*
X175126009Y-61388679D01*
X175173880Y-61361003D01*
X175224442Y-61338542D01*
X175277237Y-61321523D01*
X175331804Y-61310174D01*
X175387686Y-61304723D01*
X175444423Y-61305397D01*
G37*
D12*
%TO.C,R1*%
X162519718Y-69909165D02*
X162840835Y-70230282D01*
X163559165Y-68869718D02*
X163880282Y-69190835D01*
%TO.C,J1*%
X157930000Y-46680000D02*
X175930000Y-46680000D01*
X157930000Y-49330000D02*
X157930000Y-46680000D01*
X157930000Y-51980000D02*
X157930001Y-50600000D01*
X159310000Y-51979999D02*
X157930000Y-51980000D01*
X160580000Y-49330000D02*
X157930000Y-49330000D01*
X160580000Y-51980000D02*
X160580000Y-49330000D01*
X160580000Y-51980000D02*
X175930000Y-51980000D01*
X175930000Y-51980000D02*
X175930000Y-46680000D01*
%TO.C,C4*%
X163065010Y-65279457D02*
X162695543Y-64909990D01*
X164104457Y-64240010D02*
X163734990Y-63870543D01*
%TO.C,C3*%
X155465010Y-53845543D02*
X155095543Y-54215010D01*
X156504457Y-54884990D02*
X156134990Y-55254457D01*
%TO.C,C2*%
X156340000Y-62386253D02*
X156340000Y-61863747D01*
X157810000Y-62386253D02*
X157810000Y-61863747D01*
%TO.C,J4*%
X182795000Y-62735000D02*
X182795000Y-54895000D01*
X185445000Y-60085000D02*
X185445000Y-62735000D01*
X185445000Y-62735000D02*
X182795000Y-62735000D01*
X188094999Y-61355000D02*
X188095000Y-62735000D01*
X188095000Y-54895000D02*
X182795000Y-54895000D01*
X188095000Y-60085000D02*
X185445000Y-60085000D01*
X188095000Y-60085000D02*
X188095000Y-54895000D01*
X188095000Y-62735000D02*
X186715000Y-62734999D01*
D14*
%TO.C,U1*%
X158639232Y-66195980D02*
X159770603Y-67327351D01*
X160852477Y-63982735D02*
X161983848Y-65114106D01*
D15*
X159563012Y-63109459D02*
G75*
G02*
X159363012Y-63109459I-100000J0D01*
G01*
X159363012Y-63109459D02*
G75*
G02*
X159563012Y-63109459I100000J0D01*
G01*
D12*
%TO.C,C1*%
X157790010Y-54545543D02*
X157420543Y-54915010D01*
X158829457Y-55584990D02*
X158459990Y-55954457D01*
%TO.C,J3*%
X138889999Y-56470001D02*
X138890000Y-46430000D01*
X138890000Y-46430000D02*
X146329999Y-46430000D01*
X146929999Y-46430000D02*
X149289999Y-46430000D01*
X149289999Y-46430000D02*
X149289999Y-56470000D01*
X149289999Y-47050000D02*
X138889999Y-47050000D01*
X149289999Y-48549999D02*
X138889999Y-48550000D01*
X149289999Y-53450001D02*
X138889999Y-53450000D01*
X149289999Y-56470000D02*
X138889999Y-56470001D01*
X146629999Y-46430000D02*
X146189999Y-45820000D01*
X147069999Y-45820000D01*
X146629999Y-46430000D01*
G36*
X146629999Y-46430000D02*
G01*
X146189999Y-45820000D01*
X147069999Y-45820000D01*
X146629999Y-46430000D01*
G37*
%TO.C,C5*%
X153640010Y-63220543D02*
X153270543Y-63590010D01*
X154679457Y-64259990D02*
X154309990Y-64629457D01*
D14*
%TO.C,L1*%
X159765578Y-55566781D02*
X158591781Y-56740578D01*
X164008219Y-59809422D02*
X162834422Y-60983219D01*
D12*
%TO.C,C6*%
X148797199Y-61076813D02*
X147903416Y-60183030D01*
X148825483Y-61048529D02*
X147904830Y-60127876D01*
X148853768Y-61020244D02*
X147906952Y-60073428D01*
X148882052Y-60991960D02*
X147909780Y-60019688D01*
X148910336Y-60963676D02*
X147913316Y-59966655D01*
X148938620Y-60935392D02*
X147918265Y-59915036D01*
X148966905Y-60907107D02*
X147923215Y-59863418D01*
X148995189Y-60878823D02*
X147929579Y-59813213D01*
X149023473Y-60850539D02*
X147936650Y-59763716D01*
X149051757Y-60822254D02*
X147943721Y-59714218D01*
X149080042Y-60793970D02*
X147951499Y-59665428D01*
X149108326Y-60765686D02*
X147960692Y-59618052D01*
X149136610Y-60737402D02*
X147969884Y-59570675D01*
X149138024Y-62775283D02*
X148569511Y-62206770D01*
X149164895Y-60709117D02*
X147979784Y-59524006D01*
X149193179Y-60680833D02*
X147990390Y-59478044D01*
X149221463Y-60652549D02*
X148001704Y-59432790D01*
X149249747Y-60624265D02*
X148013018Y-59387535D01*
X149278032Y-60595980D02*
X148025038Y-59342987D01*
X149306316Y-60567696D02*
X148037766Y-59299146D01*
X149329650Y-62910341D02*
X148434453Y-62015144D01*
X149334600Y-60539412D02*
X148051201Y-59256013D01*
X149362884Y-60511127D02*
X148064636Y-59212879D01*
X149391169Y-60482843D02*
X148078779Y-59170453D01*
X149419453Y-60454559D02*
X148093628Y-59128734D01*
X149447737Y-60426275D02*
X148108477Y-59087014D01*
X149476022Y-60397990D02*
X148124033Y-59046002D01*
X149476729Y-63000850D02*
X148343944Y-61868065D01*
X149504306Y-60369706D02*
X148140297Y-59005697D01*
X149532590Y-60341422D02*
X148156560Y-58965392D01*
X149560874Y-60313138D02*
X148173531Y-58925794D01*
X149589159Y-60284853D02*
X148191208Y-58886903D01*
X149602594Y-63070147D02*
X148274647Y-61742200D01*
X149617443Y-60256569D02*
X148208886Y-58848012D01*
X149645727Y-60228285D02*
X148226564Y-58809121D01*
X149674011Y-60200000D02*
X148245656Y-58771645D01*
X149702296Y-60171716D02*
X148264748Y-58734168D01*
X149715024Y-63126008D02*
X148218786Y-61629770D01*
X149730580Y-60143432D02*
X148283839Y-58696691D01*
X149758864Y-60115148D02*
X148303638Y-58659922D01*
X149787149Y-60086863D02*
X148324145Y-58623859D01*
X149815433Y-60058579D02*
X148344651Y-58587797D01*
X149818968Y-63173384D02*
X148171410Y-61525826D01*
X149843717Y-60030295D02*
X148365157Y-58551735D01*
X149872001Y-60002011D02*
X148387077Y-58517086D01*
X149900286Y-59973726D02*
X148408290Y-58481731D01*
X149915135Y-63212982D02*
X148131812Y-61429659D01*
X149928570Y-59945442D02*
X148430211Y-58447083D01*
X149956854Y-59917158D02*
X148452838Y-58413142D01*
X149985138Y-59888873D02*
X148476173Y-58379908D01*
X150006352Y-63247631D02*
X148097163Y-61338442D01*
X150013423Y-59860589D02*
X148498800Y-58345966D01*
X150041707Y-59832305D02*
X148522842Y-58313440D01*
X150069991Y-59804021D02*
X148546176Y-58280206D01*
X150092619Y-63277329D02*
X148067465Y-61252175D01*
X150098275Y-59775736D02*
X148570925Y-58248386D01*
X150126560Y-59747452D02*
X148595674Y-58216566D01*
X150154844Y-59719168D02*
X148620422Y-58184746D01*
X150175350Y-63303492D02*
X148041302Y-61169444D01*
X150183128Y-59690884D02*
X148645878Y-58153633D01*
X150211413Y-59662599D02*
X148671334Y-58122521D01*
X150239697Y-59634315D02*
X148697497Y-58092115D01*
X150254546Y-63326120D02*
X148018674Y-61090248D01*
X150330914Y-63345919D02*
X147998875Y-61013880D01*
X150405160Y-63363596D02*
X147981198Y-60939634D01*
X150476578Y-63378445D02*
X147966349Y-60868216D01*
X150546581Y-63391880D02*
X147952914Y-60798213D01*
X150614463Y-63403194D02*
X147941600Y-60730331D01*
X150680224Y-63412387D02*
X147932407Y-60664570D01*
X150745278Y-63420872D02*
X147923922Y-60599516D01*
X150808211Y-63427236D02*
X147917558Y-60536583D01*
X150869729Y-63432186D02*
X147912608Y-60475065D01*
X150930540Y-63436428D02*
X147908366Y-60414254D01*
X150989937Y-63439257D02*
X147905537Y-60354857D01*
X151047920Y-63440671D02*
X147904123Y-60296874D01*
X151105196Y-63441378D02*
X147903416Y-60239598D01*
X151161764Y-63441378D02*
X150267981Y-62547595D01*
X151216918Y-63439964D02*
X150296265Y-62519311D01*
X151271366Y-63437842D02*
X150324550Y-62491026D01*
X151325106Y-63435014D02*
X150352834Y-62462742D01*
X151378139Y-63431478D02*
X150381118Y-62434458D01*
X151429758Y-63426529D02*
X150409402Y-62406174D01*
X151481376Y-63421579D02*
X150437687Y-62377889D01*
X151531581Y-63415215D02*
X150465971Y-62349605D01*
X151581078Y-63408144D02*
X150494255Y-62321321D01*
X151630576Y-63401073D02*
X150522540Y-62293037D01*
X151679366Y-63393295D02*
X150550824Y-62264752D01*
X151726742Y-63384102D02*
X150579108Y-62236468D01*
X151774119Y-63374910D02*
X150607392Y-62208184D01*
X151820788Y-63365010D02*
X150635677Y-62179899D01*
X151866750Y-63354404D02*
X150663961Y-62151615D01*
X151912004Y-63343090D02*
X150692245Y-62123331D01*
X151957259Y-63331776D02*
X150720529Y-62095047D01*
X152001807Y-63319756D02*
X150748814Y-62066762D01*
X152045648Y-63307028D02*
X150777098Y-62038478D01*
X152088781Y-63293593D02*
X150805382Y-62010194D01*
X152131915Y-63280158D02*
X150833667Y-61981910D01*
X152174341Y-63266015D02*
X150861951Y-61953625D01*
X152216060Y-63251166D02*
X150890235Y-61925341D01*
X152257780Y-63236317D02*
X150918519Y-61897057D01*
X152298792Y-63220761D02*
X150946804Y-61868772D01*
X152339097Y-63204497D02*
X150975088Y-61840488D01*
X152379402Y-63188234D02*
X151003372Y-61812204D01*
X152419000Y-63171263D02*
X151031656Y-61783920D01*
X152457891Y-63153586D02*
X151059941Y-61755635D01*
X152496782Y-63135908D02*
X151088225Y-61727351D01*
X152535673Y-63118230D02*
X151116509Y-61699067D01*
X152573149Y-63099138D02*
X151144794Y-61670783D01*
X152610626Y-63080046D02*
X151173078Y-61642498D01*
X152648103Y-63060955D02*
X151201362Y-61614214D01*
X152684872Y-63041156D02*
X151229646Y-61585930D01*
X152720935Y-63020649D02*
X151257931Y-61557645D01*
X152756997Y-63000143D02*
X151286215Y-61529361D01*
X152793059Y-62979637D02*
X151314499Y-61501077D01*
X152827708Y-62957717D02*
X151342783Y-61472793D01*
X152863063Y-62936504D02*
X151371068Y-61444508D01*
X152897711Y-62914583D02*
X151399352Y-61416224D01*
X152931652Y-62891956D02*
X151427636Y-61387940D01*
X152964886Y-62868621D02*
X151455921Y-61359656D01*
X152998828Y-62845994D02*
X151484205Y-61331371D01*
X153031354Y-62821952D02*
X151512489Y-61303087D01*
X153064588Y-62798618D02*
X151540773Y-61274803D01*
X153096408Y-62773869D02*
X151569058Y-61246519D01*
X153128228Y-62749120D02*
X151597342Y-61218234D01*
X153160048Y-62724372D02*
X151625626Y-61189950D01*
X153191161Y-62698916D02*
X151653910Y-61161666D01*
X153222273Y-62673460D02*
X151682195Y-61133381D01*
X153252679Y-62647297D02*
X151710479Y-61105097D01*
X153283084Y-62621134D02*
X148723660Y-58061710D01*
X153312783Y-62594264D02*
X148750530Y-58032011D01*
X153342481Y-62567394D02*
X148777400Y-58002313D01*
X153371473Y-62539817D02*
X148804977Y-57973321D01*
X153400464Y-62512240D02*
X148832554Y-57944330D01*
X153428748Y-62483955D02*
X148860839Y-57916046D01*
X154920207Y-59025326D02*
X154474730Y-59470803D01*
X154920207Y-59470803D02*
X154474730Y-59025326D01*
X154414795Y-60200000D02*
G75*
G02*
X147874793Y-60200000I-3270001J0D01*
G01*
X147874793Y-60200000D02*
G75*
G02*
X154414795Y-60200000I3270001J0D01*
G01*
%TO.C,R3*%
X156119718Y-66534165D02*
X156440835Y-66855282D01*
X157159165Y-65494718D02*
X157480282Y-65815835D01*
%TD*%
M02*
