%TF.GenerationSoftware,KiCad,Pcbnew,9.0.3*%
%TF.CreationDate,2026-04-11T21:11:07-04:00*%
%TF.ProjectId,TouchScreenModule_Rev1,546f7563-6853-4637-9265-656e4d6f6475,rev?*%
%TF.SameCoordinates,Original*%
%TF.FileFunction,Copper,L2,Inr*%
%TF.FilePolarity,Positive*%
%FSLAX46Y46*%
G04 Gerber Fmt 4.6, Leading zero omitted, Abs format (unit mm)*
G04 Created by KiCad (PCBNEW 9.0.3) date 2026-04-11 21:11:07*
%MOMM*%
%LPD*%
G01*
G04 APERTURE LIST*
G04 Aperture macros list*
%AMRoundRect*
0 Rectangle with rounded corners*
0 $1 Rounding radius*
0 $2 $3 $4 $5 $6 $7 $8 $9 X,Y pos of 4 corners*
0 Add a 4 corners polygon primitive as box body*
4,1,4,$2,$3,$4,$5,$6,$7,$8,$9,$2,$3,0*
0 Add four circle primitives for the rounded corners*
1,1,$1+$1,$2,$3*
1,1,$1+$1,$4,$5*
1,1,$1+$1,$6,$7*
1,1,$1+$1,$8,$9*
0 Add four rect primitives between the rounded corners*
20,1,$1+$1,$2,$3,$4,$5,0*
20,1,$1+$1,$4,$5,$6,$7,0*
20,1,$1+$1,$6,$7,$8,$9,0*
20,1,$1+$1,$8,$9,$2,$3,0*%
G04 Aperture macros list end*
%TA.AperFunction,ComponentPad*%
%ADD10C,3.600000*%
%TD*%
%TA.AperFunction,ComponentPad*%
%ADD11R,1.700000X1.700000*%
%TD*%
%TA.AperFunction,ComponentPad*%
%ADD12C,1.700000*%
%TD*%
%TA.AperFunction,ComponentPad*%
%ADD13RoundRect,0.250000X1.050000X1.050000X-1.050000X1.050000X-1.050000X-1.050000X1.050000X-1.050000X0*%
%TD*%
%TA.AperFunction,ComponentPad*%
%ADD14C,2.600000*%
%TD*%
%TA.AperFunction,ComponentPad*%
%ADD15RoundRect,0.250000X0.000000X0.777817X-0.777817X0.000000X0.000000X-0.777817X0.777817X0.000000X0*%
%TD*%
%TA.AperFunction,ComponentPad*%
%ADD16C,1.600000*%
%TD*%
%TA.AperFunction,ViaPad*%
%ADD17C,0.800000*%
%TD*%
G04 APERTURE END LIST*
D10*
%TO.N,N/C*%
%TO.C,H1*%
X185000000Y-50000000D03*
%TD*%
%TO.N,N/C*%
%TO.C,H3*%
X185000000Y-81000000D03*
%TD*%
D11*
%TO.N,+5V*%
%TO.C,J1*%
X159310000Y-50600000D03*
D12*
%TO.N,+3V3*%
X159310000Y-48060000D03*
%TO.N,GND*%
X161850000Y-50600000D03*
%TO.N,Net-(J1-Pin_12)*%
X161850000Y-48060000D03*
%TO.N,Net-(J1-Pin_5)*%
X164389999Y-50600000D03*
%TO.N,Net-(J1-Pin_13)*%
X164390000Y-48060000D03*
%TO.N,Net-(J1-Pin_7)*%
X166930000Y-50600000D03*
%TO.N,Net-(J1-Pin_8)*%
X166930000Y-48060000D03*
%TO.N,Net-(J1-Pin_9)*%
X169470000Y-50600000D03*
%TO.N,Net-(J1-Pin_10)*%
X169470000Y-48060000D03*
X172010000Y-50600000D03*
%TO.N,Net-(J1-Pin_12)*%
X172010000Y-48060000D03*
%TO.N,Net-(J1-Pin_13)*%
X174550000Y-50600000D03*
%TO.N,Net-(J1-Pin_14)*%
X174550000Y-48060000D03*
%TD*%
D11*
%TO.N,/Motors/PWM_01*%
%TO.C,J4*%
X186715000Y-61355000D03*
D12*
%TO.N,+5V*%
X184175000Y-61355000D03*
%TO.N,GND*%
X186715000Y-58815000D03*
X184175000Y-58815000D03*
%TO.N,+5V*%
X186715000Y-56275001D03*
%TO.N,/Motors/PWM_01*%
X184175000Y-56275000D03*
%TD*%
D13*
%TO.N,+12V*%
%TO.C,J3*%
X146629999Y-51150000D03*
D14*
%TO.N,GND*%
X141550000Y-51150000D03*
%TD*%
D15*
%TO.N,+12V*%
%TO.C,C6*%
X152028677Y-59316117D03*
D16*
%TO.N,GND*%
X150260910Y-61083884D03*
%TD*%
D10*
%TO.N,N/C*%
%TO.C,H2*%
X134000000Y-50000000D03*
%TD*%
D17*
%TO.N,+5V*%
X156825000Y-50875000D03*
X167150000Y-69850000D03*
X154875000Y-52625000D03*
X187525000Y-53925000D03*
X182075000Y-71500000D03*
X155775000Y-52900000D03*
X156650000Y-52700000D03*
X181950000Y-59800000D03*
X168550000Y-57925000D03*
%TO.N,GND*%
X154975000Y-58050000D03*
X186300000Y-67500000D03*
X153225000Y-56725000D03*
X173575000Y-54950000D03*
X183525000Y-64650000D03*
X175075000Y-56400000D03*
X180650000Y-61900000D03*
X152000000Y-63575000D03*
X151700000Y-62225000D03*
X184950000Y-66075000D03*
X176505236Y-57483371D03*
X171550000Y-60950000D03*
X184825000Y-71575000D03*
X186000000Y-70325000D03*
X180225000Y-69675000D03*
X178900000Y-68200000D03*
X181500000Y-63100000D03*
X165475000Y-71475000D03*
X182075000Y-58100000D03*
X176900000Y-58225000D03*
X161000000Y-52900000D03*
X179443941Y-60768941D03*
X172850000Y-62400000D03*
X167900000Y-56300000D03*
X170925000Y-53350000D03*
X183675000Y-69100000D03*
X156075000Y-59350000D03*
X159375000Y-63225000D03*
%TO.N,Net-(J1-Pin_7)*%
X174261918Y-59513082D03*
X176924418Y-62175582D03*
%TO.N,Net-(J1-Pin_13)*%
X177842882Y-58821017D03*
%TO.N,Net-(J1-Pin_10)*%
X178739207Y-57650000D03*
%TO.N,Net-(J1-Pin_8)*%
X177775000Y-63150000D03*
%TO.N,Net-(J1-Pin_14)*%
X180700000Y-60725000D03*
%TO.N,+3V3*%
X175523358Y-57293853D03*
X169625000Y-61175000D03*
X172150000Y-53300000D03*
%TO.N,Net-(J1-Pin_9)*%
X169625000Y-52950000D03*
X179825000Y-58425000D03*
%TO.N,/Motors/PWM_01*%
X170475000Y-59825000D03*
%TD*%
%TA.AperFunction,Conductor*%
%TO.N,GND*%
G36*
X186249075Y-59007993D02*
G01*
X186314901Y-59122007D01*
X186407993Y-59215099D01*
X186522007Y-59280925D01*
X186585590Y-59297962D01*
X185915370Y-59968181D01*
X185854047Y-60001666D01*
X185827698Y-60004500D01*
X185817134Y-60004500D01*
X185817123Y-60004501D01*
X185757516Y-60010908D01*
X185622671Y-60061202D01*
X185622664Y-60061206D01*
X185507455Y-60147452D01*
X185507452Y-60147455D01*
X185421206Y-60262664D01*
X185421203Y-60262669D01*
X185372189Y-60394083D01*
X185330317Y-60450016D01*
X185264853Y-60474433D01*
X185196580Y-60459581D01*
X185168326Y-60438430D01*
X185054786Y-60324890D01*
X184882817Y-60199949D01*
X184873504Y-60195204D01*
X184822707Y-60147230D01*
X184805912Y-60079409D01*
X184828449Y-60013274D01*
X184873507Y-59974232D01*
X184882555Y-59969622D01*
X184936716Y-59930270D01*
X184936717Y-59930270D01*
X184304408Y-59297962D01*
X184367993Y-59280925D01*
X184482007Y-59215099D01*
X184575099Y-59122007D01*
X184640925Y-59007993D01*
X184657962Y-58944408D01*
X185290270Y-59576717D01*
X185290270Y-59576716D01*
X185329622Y-59522554D01*
X185334514Y-59512954D01*
X185382488Y-59462157D01*
X185450308Y-59445361D01*
X185516444Y-59467897D01*
X185555486Y-59512954D01*
X185560375Y-59522550D01*
X185599728Y-59576716D01*
X186232037Y-58944408D01*
X186249075Y-59007993D01*
G37*
%TD.AperFunction*%
%TA.AperFunction,Conductor*%
G36*
X185516440Y-56928998D02*
G01*
X185555481Y-56974051D01*
X185559946Y-56982813D01*
X185559948Y-56982816D01*
X185684890Y-57154787D01*
X185835213Y-57305110D01*
X186007179Y-57430049D01*
X186007181Y-57430050D01*
X186007184Y-57430052D01*
X186016487Y-57434792D01*
X186016495Y-57434796D01*
X186067291Y-57482770D01*
X186084086Y-57550591D01*
X186061549Y-57616726D01*
X186016501Y-57655763D01*
X186007440Y-57660380D01*
X185953282Y-57699727D01*
X185953282Y-57699728D01*
X186585591Y-58332037D01*
X186522007Y-58349075D01*
X186407993Y-58414901D01*
X186314901Y-58507993D01*
X186249075Y-58622007D01*
X186232037Y-58685590D01*
X185599728Y-58053282D01*
X185599727Y-58053282D01*
X185560380Y-58107440D01*
X185555483Y-58117051D01*
X185507506Y-58167845D01*
X185439684Y-58184638D01*
X185373550Y-58162098D01*
X185334516Y-58117048D01*
X185329626Y-58107452D01*
X185290270Y-58053282D01*
X185290269Y-58053282D01*
X184657962Y-58685590D01*
X184640925Y-58622007D01*
X184575099Y-58507993D01*
X184482007Y-58414901D01*
X184367993Y-58349075D01*
X184304409Y-58332037D01*
X184936716Y-57699728D01*
X184882547Y-57660373D01*
X184882547Y-57660372D01*
X184873500Y-57655763D01*
X184822706Y-57607788D01*
X184805912Y-57539966D01*
X184828451Y-57473832D01*
X184873508Y-57434793D01*
X184882816Y-57430051D01*
X184962007Y-57372515D01*
X185054786Y-57305109D01*
X185054788Y-57305106D01*
X185054792Y-57305104D01*
X185205104Y-57154792D01*
X185205108Y-57154787D01*
X185205109Y-57154786D01*
X185330048Y-56982820D01*
X185330050Y-56982817D01*
X185330051Y-56982816D01*
X185334512Y-56974058D01*
X185382483Y-56923262D01*
X185450303Y-56906464D01*
X185516440Y-56928998D01*
G37*
%TD.AperFunction*%
%TA.AperFunction,Conductor*%
G36*
X160651444Y-48713999D02*
G01*
X160690486Y-48759056D01*
X160694951Y-48767820D01*
X160819890Y-48939786D01*
X160970213Y-49090109D01*
X161142179Y-49215048D01*
X161142181Y-49215049D01*
X161142184Y-49215051D01*
X161151493Y-49219794D01*
X161202290Y-49267766D01*
X161219087Y-49335587D01*
X161196552Y-49401722D01*
X161151505Y-49440760D01*
X161142446Y-49445376D01*
X161142440Y-49445380D01*
X161088282Y-49484727D01*
X161088282Y-49484728D01*
X161720591Y-50117037D01*
X161657007Y-50134075D01*
X161542993Y-50199901D01*
X161449901Y-50292993D01*
X161384075Y-50407007D01*
X161367037Y-50470591D01*
X160696818Y-49800372D01*
X160663333Y-49739049D01*
X160660499Y-49712691D01*
X160660499Y-49702129D01*
X160660498Y-49702123D01*
X160660497Y-49702116D01*
X160654091Y-49642517D01*
X160626551Y-49568679D01*
X160603797Y-49507671D01*
X160603793Y-49507664D01*
X160517547Y-49392455D01*
X160517544Y-49392452D01*
X160402335Y-49306206D01*
X160402328Y-49306202D01*
X160270917Y-49257189D01*
X160214983Y-49215318D01*
X160190566Y-49149853D01*
X160205418Y-49081580D01*
X160226563Y-49053332D01*
X160340104Y-48939792D01*
X160465051Y-48767816D01*
X160469514Y-48759054D01*
X160517488Y-48708259D01*
X160585308Y-48691463D01*
X160651444Y-48713999D01*
G37*
%TD.AperFunction*%
%TA.AperFunction,Conductor*%
G36*
X163191444Y-48713999D02*
G01*
X163230486Y-48759056D01*
X163234951Y-48767820D01*
X163359890Y-48939786D01*
X163510213Y-49090109D01*
X163682179Y-49215048D01*
X163682181Y-49215049D01*
X163682184Y-49215051D01*
X163690942Y-49219513D01*
X163741739Y-49267487D01*
X163758535Y-49335307D01*
X163735999Y-49401443D01*
X163690952Y-49440480D01*
X163682180Y-49444950D01*
X163510212Y-49569890D01*
X163359889Y-49720213D01*
X163234949Y-49892181D01*
X163230200Y-49901501D01*
X163182222Y-49952294D01*
X163114401Y-49969086D01*
X163048267Y-49946545D01*
X163009231Y-49901491D01*
X163004624Y-49892449D01*
X162965270Y-49838282D01*
X162965269Y-49838282D01*
X162332962Y-50470590D01*
X162315925Y-50407007D01*
X162250099Y-50292993D01*
X162157007Y-50199901D01*
X162042993Y-50134075D01*
X161979409Y-50117037D01*
X162611716Y-49484728D01*
X162557547Y-49445373D01*
X162557547Y-49445372D01*
X162548500Y-49440763D01*
X162497706Y-49392788D01*
X162480912Y-49324966D01*
X162503451Y-49258832D01*
X162548508Y-49219793D01*
X162557816Y-49215051D01*
X162647554Y-49149853D01*
X162729786Y-49090109D01*
X162729788Y-49090106D01*
X162729792Y-49090104D01*
X162880104Y-48939792D01*
X162880106Y-48939788D01*
X162880109Y-48939786D01*
X163005048Y-48767820D01*
X163005047Y-48767820D01*
X163005051Y-48767816D01*
X163009514Y-48759054D01*
X163057488Y-48708259D01*
X163125308Y-48691463D01*
X163191444Y-48713999D01*
G37*
%TD.AperFunction*%
%TA.AperFunction,Conductor*%
G36*
X185002910Y-45932615D02*
G01*
X185363311Y-45949277D01*
X185374701Y-45950333D01*
X185729240Y-45999789D01*
X185740484Y-46001891D01*
X186088946Y-46083848D01*
X186099936Y-46086975D01*
X186439362Y-46200739D01*
X186450029Y-46204872D01*
X186777495Y-46349462D01*
X186787748Y-46354567D01*
X187100457Y-46528745D01*
X187110195Y-46534774D01*
X187365264Y-46709500D01*
X187405512Y-46737070D01*
X187414649Y-46743970D01*
X187568206Y-46871481D01*
X187690048Y-46972656D01*
X187698512Y-46980373D01*
X187951620Y-47233481D01*
X187959336Y-47241945D01*
X188091062Y-47400576D01*
X188188018Y-47517334D01*
X188194908Y-47526457D01*
X188397220Y-47821794D01*
X188403241Y-47831519D01*
X188577427Y-48144241D01*
X188582532Y-48154493D01*
X188727119Y-48481949D01*
X188731257Y-48492629D01*
X188845015Y-48832033D01*
X188848149Y-48843050D01*
X188930103Y-49191490D01*
X188932208Y-49202748D01*
X188981663Y-49557275D01*
X188982720Y-49568679D01*
X188999368Y-49928715D01*
X188999500Y-49934412D01*
X188999500Y-49997875D01*
X188999515Y-49997934D01*
X188999518Y-50006128D01*
X188999516Y-50006133D01*
X188999518Y-50006159D01*
X188999518Y-80925936D01*
X188999500Y-80926215D01*
X188999500Y-80997128D01*
X188999368Y-81002855D01*
X188982703Y-81363303D01*
X188981646Y-81374707D01*
X188932192Y-81729231D01*
X188930087Y-81740490D01*
X188848135Y-82088931D01*
X188845001Y-82099947D01*
X188731243Y-82439355D01*
X188727105Y-82450035D01*
X188582523Y-82777482D01*
X188577418Y-82787735D01*
X188403234Y-83100452D01*
X188397205Y-83110190D01*
X188194906Y-83405512D01*
X188188003Y-83414652D01*
X187959328Y-83690035D01*
X187951612Y-83698499D01*
X187698499Y-83951612D01*
X187690035Y-83959328D01*
X187414652Y-84188003D01*
X187405512Y-84194906D01*
X187110190Y-84397205D01*
X187100452Y-84403234D01*
X186787735Y-84577418D01*
X186777482Y-84582523D01*
X186450035Y-84727105D01*
X186439355Y-84731243D01*
X186099947Y-84845001D01*
X186088931Y-84848135D01*
X185740490Y-84930087D01*
X185729231Y-84932192D01*
X185374707Y-84981646D01*
X185363303Y-84982703D01*
X185005483Y-84999246D01*
X184994498Y-84999266D01*
X184666361Y-84985339D01*
X184655882Y-84984448D01*
X184329859Y-84942734D01*
X184319493Y-84940958D01*
X183998191Y-84871771D01*
X183988014Y-84869124D01*
X183673703Y-84772953D01*
X183663786Y-84769452D01*
X183358773Y-84647001D01*
X183349205Y-84642680D01*
X183055637Y-84494809D01*
X183046473Y-84489695D01*
X182809806Y-84344123D01*
X182808977Y-84343609D01*
X182800217Y-84338125D01*
X182798344Y-84336165D01*
X182754022Y-84309207D01*
X182753312Y-84308763D01*
X182753242Y-84308685D01*
X182749722Y-84306428D01*
X182707416Y-84277865D01*
X182702145Y-84275234D01*
X182684642Y-84267009D01*
X177232757Y-80951101D01*
X177065253Y-80849223D01*
X182699500Y-80849223D01*
X182699500Y-81150776D01*
X182699501Y-81150793D01*
X182738861Y-81449766D01*
X182816913Y-81741060D01*
X182932314Y-82019661D01*
X182932318Y-82019671D01*
X183083099Y-82280831D01*
X183266679Y-82520078D01*
X183266685Y-82520085D01*
X183479914Y-82733314D01*
X183479921Y-82733320D01*
X183719168Y-82916900D01*
X183980328Y-83067681D01*
X183980329Y-83067681D01*
X183980332Y-83067683D01*
X184166072Y-83144619D01*
X184258939Y-83183086D01*
X184258940Y-83183086D01*
X184258942Y-83183087D01*
X184550232Y-83261138D01*
X184849217Y-83300500D01*
X184849224Y-83300500D01*
X185150776Y-83300500D01*
X185150783Y-83300500D01*
X185449768Y-83261138D01*
X185741058Y-83183087D01*
X186019668Y-83067683D01*
X186280832Y-82916900D01*
X186520080Y-82733319D01*
X186733319Y-82520080D01*
X186916900Y-82280832D01*
X187067683Y-82019668D01*
X187183087Y-81741058D01*
X187261138Y-81449768D01*
X187300500Y-81150783D01*
X187300500Y-80849217D01*
X187261138Y-80550232D01*
X187183087Y-80258942D01*
X187067683Y-79980332D01*
X186916900Y-79719168D01*
X186733319Y-79479920D01*
X186733314Y-79479914D01*
X186520085Y-79266685D01*
X186520078Y-79266679D01*
X186280831Y-79083099D01*
X186019671Y-78932318D01*
X186019661Y-78932314D01*
X185741060Y-78816913D01*
X185449766Y-78738861D01*
X185150793Y-78699501D01*
X185150788Y-78699500D01*
X185150783Y-78699500D01*
X184849217Y-78699500D01*
X184849211Y-78699500D01*
X184849206Y-78699501D01*
X184550233Y-78738861D01*
X184258939Y-78816913D01*
X183980338Y-78932314D01*
X183980328Y-78932318D01*
X183719168Y-79083099D01*
X183479921Y-79266679D01*
X183479914Y-79266685D01*
X183266685Y-79479914D01*
X183266679Y-79479921D01*
X183083099Y-79719168D01*
X182932318Y-79980328D01*
X182932314Y-79980338D01*
X182816913Y-80258939D01*
X182738861Y-80550233D01*
X182699501Y-80849206D01*
X182699500Y-80849223D01*
X177065253Y-80849223D01*
X161711979Y-71511160D01*
X161547800Y-71411304D01*
X181174500Y-71411304D01*
X181174500Y-71588695D01*
X181209103Y-71762658D01*
X181209106Y-71762667D01*
X181276983Y-71926540D01*
X181276990Y-71926553D01*
X181375535Y-72074034D01*
X181375538Y-72074038D01*
X181500961Y-72199461D01*
X181500965Y-72199464D01*
X181648446Y-72298009D01*
X181648459Y-72298016D01*
X181771363Y-72348923D01*
X181812334Y-72365894D01*
X181812336Y-72365894D01*
X181812341Y-72365896D01*
X181986304Y-72400499D01*
X181986307Y-72400500D01*
X181986309Y-72400500D01*
X182163693Y-72400500D01*
X182163694Y-72400499D01*
X182221682Y-72388964D01*
X182337658Y-72365896D01*
X182337661Y-72365894D01*
X182337666Y-72365894D01*
X182501547Y-72298013D01*
X182649035Y-72199464D01*
X182774464Y-72074035D01*
X182873013Y-71926547D01*
X182940894Y-71762666D01*
X182975500Y-71588691D01*
X182975500Y-71411309D01*
X182975500Y-71411306D01*
X182975499Y-71411304D01*
X182940896Y-71237341D01*
X182940893Y-71237332D01*
X182873016Y-71073459D01*
X182873009Y-71073446D01*
X182774464Y-70925965D01*
X182774461Y-70925961D01*
X182649038Y-70800538D01*
X182649034Y-70800535D01*
X182501553Y-70701990D01*
X182501540Y-70701983D01*
X182337667Y-70634106D01*
X182337658Y-70634103D01*
X182163694Y-70599500D01*
X182163691Y-70599500D01*
X181986309Y-70599500D01*
X181986306Y-70599500D01*
X181812341Y-70634103D01*
X181812332Y-70634106D01*
X181648459Y-70701983D01*
X181648446Y-70701990D01*
X181500965Y-70800535D01*
X181500961Y-70800538D01*
X181375538Y-70925961D01*
X181375535Y-70925965D01*
X181276990Y-71073446D01*
X181276983Y-71073459D01*
X181209106Y-71237332D01*
X181209103Y-71237341D01*
X181174500Y-71411304D01*
X161547800Y-71411304D01*
X158999114Y-69861160D01*
X158834935Y-69761304D01*
X166249500Y-69761304D01*
X166249500Y-69938695D01*
X166284103Y-70112658D01*
X166284106Y-70112667D01*
X166351983Y-70276540D01*
X166351990Y-70276553D01*
X166450535Y-70424034D01*
X166450538Y-70424038D01*
X166575961Y-70549461D01*
X166575965Y-70549464D01*
X166723446Y-70648009D01*
X166723459Y-70648016D01*
X166846363Y-70698923D01*
X166887334Y-70715894D01*
X166887336Y-70715894D01*
X166887341Y-70715896D01*
X167061304Y-70750499D01*
X167061307Y-70750500D01*
X167061309Y-70750500D01*
X167238693Y-70750500D01*
X167238694Y-70750499D01*
X167296682Y-70738964D01*
X167412658Y-70715896D01*
X167412661Y-70715894D01*
X167412666Y-70715894D01*
X167576547Y-70648013D01*
X167724035Y-70549464D01*
X167849464Y-70424035D01*
X167948013Y-70276547D01*
X168015894Y-70112666D01*
X168050500Y-69938691D01*
X168050500Y-69761309D01*
X168050500Y-69761306D01*
X168050499Y-69761304D01*
X168015896Y-69587341D01*
X168015893Y-69587332D01*
X167948016Y-69423459D01*
X167948009Y-69423446D01*
X167849464Y-69275965D01*
X167849461Y-69275961D01*
X167724038Y-69150538D01*
X167724034Y-69150535D01*
X167576553Y-69051990D01*
X167576540Y-69051983D01*
X167412667Y-68984106D01*
X167412658Y-68984103D01*
X167238694Y-68949500D01*
X167238691Y-68949500D01*
X167061309Y-68949500D01*
X167061306Y-68949500D01*
X166887341Y-68984103D01*
X166887332Y-68984106D01*
X166723459Y-69051983D01*
X166723446Y-69051990D01*
X166575965Y-69150535D01*
X166575961Y-69150538D01*
X166450538Y-69275961D01*
X166450535Y-69275965D01*
X166351990Y-69423446D01*
X166351983Y-69423459D01*
X166284106Y-69587332D01*
X166284103Y-69587341D01*
X166249500Y-69761304D01*
X158834935Y-69761304D01*
X145092153Y-61402764D01*
X144736021Y-61186160D01*
X144391948Y-60976890D01*
X144156823Y-60833884D01*
X148984301Y-60833884D01*
X149945224Y-60833884D01*
X149940830Y-60838278D01*
X149888169Y-60929490D01*
X149860910Y-61031223D01*
X149860910Y-61136545D01*
X149888169Y-61238278D01*
X149940830Y-61329490D01*
X149945224Y-61333884D01*
X148984301Y-61333884D01*
X148992919Y-61388297D01*
X149056154Y-61582913D01*
X149149050Y-61765233D01*
X149269327Y-61930778D01*
X149269327Y-61930779D01*
X149414014Y-62075466D01*
X149579560Y-62195743D01*
X149761878Y-62288638D01*
X149956488Y-62351872D01*
X150010910Y-62360491D01*
X150010910Y-61399570D01*
X150015304Y-61403964D01*
X150106516Y-61456625D01*
X150208249Y-61483884D01*
X150313571Y-61483884D01*
X150415304Y-61456625D01*
X150506516Y-61403964D01*
X150510910Y-61399570D01*
X150510910Y-62360490D01*
X150565331Y-62351872D01*
X150759941Y-62288638D01*
X150942259Y-62195743D01*
X151092086Y-62086886D01*
X176023918Y-62086886D01*
X176023918Y-62264277D01*
X176058521Y-62438240D01*
X176058524Y-62438249D01*
X176126401Y-62602122D01*
X176126408Y-62602135D01*
X176224953Y-62749616D01*
X176224956Y-62749620D01*
X176350379Y-62875043D01*
X176350383Y-62875046D01*
X176497864Y-62973591D01*
X176497877Y-62973598D01*
X176620781Y-63024505D01*
X176661752Y-63041476D01*
X176774691Y-63063941D01*
X176836602Y-63096325D01*
X176871176Y-63157041D01*
X176874500Y-63185558D01*
X176874500Y-63238695D01*
X176909103Y-63412658D01*
X176909106Y-63412667D01*
X176976983Y-63576540D01*
X176976990Y-63576553D01*
X177075535Y-63724034D01*
X177075538Y-63724038D01*
X177200961Y-63849461D01*
X177200965Y-63849464D01*
X177348446Y-63948009D01*
X177348459Y-63948016D01*
X177471363Y-63998923D01*
X177512334Y-64015894D01*
X177512336Y-64015894D01*
X177512341Y-64015896D01*
X177686304Y-64050499D01*
X177686307Y-64050500D01*
X177686309Y-64050500D01*
X177863693Y-64050500D01*
X177863694Y-64050499D01*
X177921682Y-64038964D01*
X178037658Y-64015896D01*
X178037661Y-64015894D01*
X178037666Y-64015894D01*
X178201547Y-63948013D01*
X178349035Y-63849464D01*
X178474464Y-63724035D01*
X178573013Y-63576547D01*
X178640894Y-63412666D01*
X178675500Y-63238691D01*
X178675500Y-63061309D01*
X178675500Y-63061306D01*
X178675499Y-63061304D01*
X178640896Y-62887341D01*
X178640893Y-62887332D01*
X178573016Y-62723459D01*
X178573009Y-62723446D01*
X178474464Y-62575965D01*
X178474461Y-62575961D01*
X178349038Y-62450538D01*
X178349034Y-62450535D01*
X178201553Y-62351990D01*
X178201540Y-62351983D01*
X178037667Y-62284106D01*
X178037659Y-62284104D01*
X177924726Y-62261640D01*
X177862815Y-62229255D01*
X177828241Y-62168539D01*
X177824918Y-62140023D01*
X177824918Y-62086888D01*
X177824917Y-62086886D01*
X177790314Y-61912923D01*
X177790311Y-61912914D01*
X177722434Y-61749041D01*
X177722427Y-61749028D01*
X177623882Y-61601547D01*
X177623879Y-61601543D01*
X177498456Y-61476120D01*
X177498452Y-61476117D01*
X177350971Y-61377572D01*
X177350958Y-61377565D01*
X177187085Y-61309688D01*
X177187076Y-61309685D01*
X177013112Y-61275082D01*
X177013109Y-61275082D01*
X176835727Y-61275082D01*
X176835724Y-61275082D01*
X176661759Y-61309685D01*
X176661750Y-61309688D01*
X176497877Y-61377565D01*
X176497864Y-61377572D01*
X176350383Y-61476117D01*
X176350379Y-61476120D01*
X176224956Y-61601543D01*
X176224953Y-61601547D01*
X176126408Y-61749028D01*
X176126401Y-61749041D01*
X176058524Y-61912914D01*
X176058521Y-61912923D01*
X176023918Y-62086886D01*
X151092086Y-62086886D01*
X151107804Y-62075466D01*
X151107805Y-62075466D01*
X151252492Y-61930779D01*
X151252492Y-61930778D01*
X151372769Y-61765233D01*
X151465665Y-61582913D01*
X151528900Y-61388297D01*
X151537519Y-61333884D01*
X150576596Y-61333884D01*
X150580990Y-61329490D01*
X150633651Y-61238278D01*
X150660910Y-61136545D01*
X150660910Y-61086304D01*
X168724500Y-61086304D01*
X168724500Y-61263695D01*
X168759103Y-61437658D01*
X168759106Y-61437667D01*
X168826983Y-61601540D01*
X168826990Y-61601553D01*
X168925535Y-61749034D01*
X168925538Y-61749038D01*
X169050961Y-61874461D01*
X169050965Y-61874464D01*
X169198446Y-61973009D01*
X169198459Y-61973016D01*
X169252027Y-61995204D01*
X169362334Y-62040894D01*
X169362336Y-62040894D01*
X169362341Y-62040896D01*
X169536304Y-62075499D01*
X169536307Y-62075500D01*
X169536309Y-62075500D01*
X169713693Y-62075500D01*
X169713694Y-62075499D01*
X169777457Y-62062816D01*
X169887658Y-62040896D01*
X169887661Y-62040894D01*
X169887666Y-62040894D01*
X170051547Y-61973013D01*
X170199035Y-61874464D01*
X170324464Y-61749035D01*
X170423013Y-61601547D01*
X170490894Y-61437666D01*
X170497837Y-61402764D01*
X170525499Y-61263695D01*
X170525500Y-61263693D01*
X170525500Y-61086306D01*
X170525499Y-61086304D01*
X170490896Y-60912341D01*
X170490893Y-60912332D01*
X170482758Y-60892692D01*
X170475289Y-60823223D01*
X170506565Y-60760744D01*
X170566654Y-60725092D01*
X170573128Y-60723623D01*
X170737658Y-60690896D01*
X170737661Y-60690894D01*
X170737666Y-60690894D01*
X170869459Y-60636304D01*
X179799500Y-60636304D01*
X179799500Y-60813695D01*
X179834103Y-60987658D01*
X179834106Y-60987667D01*
X179901983Y-61151540D01*
X179901990Y-61151553D01*
X180000535Y-61299034D01*
X180000538Y-61299038D01*
X180125961Y-61424461D01*
X180125965Y-61424464D01*
X180273446Y-61523009D01*
X180273459Y-61523016D01*
X180396363Y-61573923D01*
X180437334Y-61590894D01*
X180437336Y-61590894D01*
X180437341Y-61590896D01*
X180611304Y-61625499D01*
X180611307Y-61625500D01*
X180611309Y-61625500D01*
X180788693Y-61625500D01*
X180788694Y-61625499D01*
X180846682Y-61613964D01*
X180962658Y-61590896D01*
X180962661Y-61590894D01*
X180962666Y-61590894D01*
X181126547Y-61523013D01*
X181274035Y-61424464D01*
X181399464Y-61299035D01*
X181447263Y-61227498D01*
X181482376Y-61174950D01*
X181489048Y-61164962D01*
X181498013Y-61151547D01*
X181565894Y-60987666D01*
X181568038Y-60976890D01*
X181600499Y-60813695D01*
X181600500Y-60813693D01*
X181600500Y-60799716D01*
X181620185Y-60732677D01*
X181672989Y-60686922D01*
X181742147Y-60676978D01*
X181748692Y-60678099D01*
X181861306Y-60700500D01*
X181861309Y-60700500D01*
X182038693Y-60700500D01*
X182038694Y-60700499D01*
X182122225Y-60683884D01*
X182212658Y-60665896D01*
X182212661Y-60665894D01*
X182212666Y-60665894D01*
X182376547Y-60598013D01*
X182524035Y-60499464D01*
X182649464Y-60374035D01*
X182748013Y-60226547D01*
X182815894Y-60062666D01*
X182816185Y-60061206D01*
X182845527Y-59913691D01*
X182850500Y-59888691D01*
X182850500Y-59711309D01*
X182845015Y-59683735D01*
X182851241Y-59614145D01*
X182894103Y-59558967D01*
X182959993Y-59535721D01*
X183027990Y-59551788D01*
X183055468Y-59576381D01*
X183059728Y-59576716D01*
X183692037Y-58944408D01*
X183709075Y-59007993D01*
X183774901Y-59122007D01*
X183867993Y-59215099D01*
X183982007Y-59280925D01*
X184045590Y-59297962D01*
X183413282Y-59930269D01*
X183413282Y-59930270D01*
X183467452Y-59969626D01*
X183467451Y-59969626D01*
X183476495Y-59974234D01*
X183527292Y-60022208D01*
X183544087Y-60090029D01*
X183521550Y-60156164D01*
X183476499Y-60195202D01*
X183467182Y-60199949D01*
X183295213Y-60324890D01*
X183144890Y-60475213D01*
X183019951Y-60647179D01*
X182923444Y-60836585D01*
X182857753Y-61038760D01*
X182824500Y-61248713D01*
X182824500Y-61461286D01*
X182846714Y-61601543D01*
X182857754Y-61671243D01*
X182888293Y-61765233D01*
X182923444Y-61873414D01*
X183019951Y-62062820D01*
X183144890Y-62234786D01*
X183295213Y-62385109D01*
X183467179Y-62510048D01*
X183467181Y-62510049D01*
X183467184Y-62510051D01*
X183656588Y-62606557D01*
X183858757Y-62672246D01*
X184068713Y-62705500D01*
X184068714Y-62705500D01*
X184281286Y-62705500D01*
X184281287Y-62705500D01*
X184491243Y-62672246D01*
X184693412Y-62606557D01*
X184882816Y-62510051D01*
X185054792Y-62385104D01*
X185168329Y-62271566D01*
X185229648Y-62238084D01*
X185299340Y-62243068D01*
X185355274Y-62284939D01*
X185372189Y-62315917D01*
X185421202Y-62447328D01*
X185421206Y-62447335D01*
X185507452Y-62562544D01*
X185507455Y-62562547D01*
X185622664Y-62648793D01*
X185622671Y-62648797D01*
X185757517Y-62699091D01*
X185757516Y-62699091D01*
X185764444Y-62699835D01*
X185817127Y-62705500D01*
X187612872Y-62705499D01*
X187672483Y-62699091D01*
X187807331Y-62648796D01*
X187922546Y-62562546D01*
X188008796Y-62447331D01*
X188059091Y-62312483D01*
X188065500Y-62252873D01*
X188065499Y-60457128D01*
X188059091Y-60397517D01*
X188057810Y-60394083D01*
X188008797Y-60262671D01*
X188008793Y-60262664D01*
X187922547Y-60147455D01*
X187922544Y-60147452D01*
X187807335Y-60061206D01*
X187807328Y-60061202D01*
X187672482Y-60010908D01*
X187672483Y-60010908D01*
X187612883Y-60004501D01*
X187612881Y-60004500D01*
X187612873Y-60004500D01*
X187612865Y-60004500D01*
X187602309Y-60004500D01*
X187535270Y-59984815D01*
X187514628Y-59968181D01*
X186844408Y-59297962D01*
X186907993Y-59280925D01*
X187022007Y-59215099D01*
X187115099Y-59122007D01*
X187180925Y-59007993D01*
X187197962Y-58944408D01*
X187830270Y-59576717D01*
X187830270Y-59576716D01*
X187869622Y-59522554D01*
X187966095Y-59333217D01*
X188031757Y-59131130D01*
X188031757Y-59131127D01*
X188065000Y-58921246D01*
X188065000Y-58708753D01*
X188031757Y-58498872D01*
X188031757Y-58498869D01*
X187966095Y-58296782D01*
X187869624Y-58107449D01*
X187830270Y-58053282D01*
X187830269Y-58053282D01*
X187197962Y-58685590D01*
X187180925Y-58622007D01*
X187115099Y-58507993D01*
X187022007Y-58414901D01*
X186907993Y-58349075D01*
X186844409Y-58332037D01*
X187476716Y-57699728D01*
X187422547Y-57660373D01*
X187422548Y-57660373D01*
X187413505Y-57655766D01*
X187362708Y-57607792D01*
X187345913Y-57539971D01*
X187368450Y-57473836D01*
X187413506Y-57434795D01*
X187422816Y-57430052D01*
X187481614Y-57387333D01*
X187594786Y-57305110D01*
X187594788Y-57305107D01*
X187594792Y-57305105D01*
X187745104Y-57154793D01*
X187745106Y-57154789D01*
X187745109Y-57154787D01*
X187870048Y-56982821D01*
X187870049Y-56982820D01*
X187870051Y-56982817D01*
X187966557Y-56793413D01*
X188032246Y-56591244D01*
X188065500Y-56381288D01*
X188065500Y-56168714D01*
X188032246Y-55958758D01*
X187966557Y-55756589D01*
X187870051Y-55567185D01*
X187870049Y-55567182D01*
X187870048Y-55567180D01*
X187745109Y-55395214D01*
X187594786Y-55244891D01*
X187422819Y-55119952D01*
X187422818Y-55119951D01*
X187422816Y-55119950D01*
X187325972Y-55070606D01*
X187264993Y-55039535D01*
X187214197Y-54991560D01*
X187197402Y-54923739D01*
X187219939Y-54857604D01*
X187274655Y-54814153D01*
X187344176Y-54807181D01*
X187345480Y-54807433D01*
X187436306Y-54825500D01*
X187436309Y-54825500D01*
X187613693Y-54825500D01*
X187613694Y-54825499D01*
X187671682Y-54813964D01*
X187787658Y-54790896D01*
X187787661Y-54790894D01*
X187787666Y-54790894D01*
X187951547Y-54723013D01*
X188099035Y-54624464D01*
X188224464Y-54499035D01*
X188323013Y-54351547D01*
X188390894Y-54187666D01*
X188395225Y-54165896D01*
X188425499Y-54013695D01*
X188425500Y-54013693D01*
X188425500Y-53836306D01*
X188425499Y-53836304D01*
X188390896Y-53662341D01*
X188390893Y-53662332D01*
X188323016Y-53498459D01*
X188323009Y-53498446D01*
X188224464Y-53350965D01*
X188224461Y-53350961D01*
X188099038Y-53225538D01*
X188099034Y-53225535D01*
X187951553Y-53126990D01*
X187951540Y-53126983D01*
X187787667Y-53059106D01*
X187787658Y-53059103D01*
X187613694Y-53024500D01*
X187613691Y-53024500D01*
X187436309Y-53024500D01*
X187436306Y-53024500D01*
X187262341Y-53059103D01*
X187262332Y-53059106D01*
X187098459Y-53126983D01*
X187098446Y-53126990D01*
X186950965Y-53225535D01*
X186950961Y-53225538D01*
X186825538Y-53350961D01*
X186825535Y-53350965D01*
X186726990Y-53498446D01*
X186726983Y-53498459D01*
X186659106Y-53662332D01*
X186659103Y-53662341D01*
X186624500Y-53836304D01*
X186624500Y-54013695D01*
X186659103Y-54187658D01*
X186659106Y-54187667D01*
X186726983Y-54351540D01*
X186726990Y-54351553D01*
X186825535Y-54499034D01*
X186825538Y-54499038D01*
X186950961Y-54624461D01*
X186950965Y-54624464D01*
X187098450Y-54723012D01*
X187101706Y-54724752D01*
X187103091Y-54726113D01*
X187103518Y-54726398D01*
X187103464Y-54726478D01*
X187151552Y-54773713D01*
X187167014Y-54841851D01*
X187143184Y-54907531D01*
X187087628Y-54949901D01*
X187023858Y-54956585D01*
X186887992Y-54935066D01*
X186821287Y-54924501D01*
X186608713Y-54924501D01*
X186560042Y-54932209D01*
X186398760Y-54957754D01*
X186196585Y-55023445D01*
X186007179Y-55119952D01*
X185835213Y-55244891D01*
X185684890Y-55395214D01*
X185559948Y-55567184D01*
X185555482Y-55575950D01*
X185507506Y-55626743D01*
X185439684Y-55643536D01*
X185373550Y-55620996D01*
X185334516Y-55575946D01*
X185330050Y-55567182D01*
X185205109Y-55395213D01*
X185054786Y-55244890D01*
X184882820Y-55119951D01*
X184693414Y-55023444D01*
X184693413Y-55023443D01*
X184693412Y-55023443D01*
X184491243Y-54957754D01*
X184491241Y-54957753D01*
X184491240Y-54957753D01*
X184329957Y-54932208D01*
X184281287Y-54924500D01*
X184068713Y-54924500D01*
X184020042Y-54932208D01*
X183858760Y-54957753D01*
X183656585Y-55023444D01*
X183467179Y-55119951D01*
X183295213Y-55244890D01*
X183144890Y-55395213D01*
X183019951Y-55567179D01*
X182923444Y-55756585D01*
X182857753Y-55958760D01*
X182824500Y-56168713D01*
X182824500Y-56381286D01*
X182857753Y-56591239D01*
X182857753Y-56591241D01*
X182857754Y-56591243D01*
X182920419Y-56784106D01*
X182923444Y-56793414D01*
X183019951Y-56982820D01*
X183144890Y-57154786D01*
X183295213Y-57305109D01*
X183467179Y-57430048D01*
X183467181Y-57430049D01*
X183467184Y-57430051D01*
X183476493Y-57434794D01*
X183527290Y-57482766D01*
X183544087Y-57550587D01*
X183521552Y-57616722D01*
X183476505Y-57655760D01*
X183467446Y-57660376D01*
X183467440Y-57660380D01*
X183413282Y-57699727D01*
X183413282Y-57699728D01*
X184045591Y-58332037D01*
X183982007Y-58349075D01*
X183867993Y-58414901D01*
X183774901Y-58507993D01*
X183709075Y-58622007D01*
X183692037Y-58685591D01*
X183059728Y-58053282D01*
X183059727Y-58053282D01*
X183020380Y-58107439D01*
X182923904Y-58296782D01*
X182858242Y-58498869D01*
X182858242Y-58498872D01*
X182825000Y-58708753D01*
X182825000Y-58921246D01*
X182855679Y-59114946D01*
X182846724Y-59184240D01*
X182801728Y-59237692D01*
X182734977Y-59258331D01*
X182667663Y-59239606D01*
X182645525Y-59222025D01*
X182524038Y-59100538D01*
X182524034Y-59100535D01*
X182376553Y-59001990D01*
X182376540Y-59001983D01*
X182212667Y-58934106D01*
X182212658Y-58934103D01*
X182038694Y-58899500D01*
X182038691Y-58899500D01*
X181861309Y-58899500D01*
X181861306Y-58899500D01*
X181687341Y-58934103D01*
X181687332Y-58934106D01*
X181523459Y-59001983D01*
X181523446Y-59001990D01*
X181375965Y-59100535D01*
X181375961Y-59100538D01*
X181250538Y-59225961D01*
X181250535Y-59225965D01*
X181151990Y-59373446D01*
X181151983Y-59373459D01*
X181084106Y-59537332D01*
X181084103Y-59537341D01*
X181049500Y-59711304D01*
X181049500Y-59725283D01*
X181029815Y-59792322D01*
X180977011Y-59838077D01*
X180907853Y-59848021D01*
X180901309Y-59846900D01*
X180788695Y-59824500D01*
X180788691Y-59824500D01*
X180611309Y-59824500D01*
X180611306Y-59824500D01*
X180437341Y-59859103D01*
X180437332Y-59859106D01*
X180273459Y-59926983D01*
X180273446Y-59926990D01*
X180125965Y-60025535D01*
X180125961Y-60025538D01*
X180000538Y-60150961D01*
X180000535Y-60150965D01*
X179901990Y-60298446D01*
X179901983Y-60298459D01*
X179834106Y-60462332D01*
X179834103Y-60462341D01*
X179799500Y-60636304D01*
X170869459Y-60636304D01*
X170901547Y-60623013D01*
X170934550Y-60600961D01*
X171045068Y-60527115D01*
X171046345Y-60526261D01*
X171049035Y-60524464D01*
X171174464Y-60399035D01*
X171273013Y-60251547D01*
X171279044Y-60236988D01*
X171296351Y-60195204D01*
X171340894Y-60087666D01*
X171341004Y-60087117D01*
X171370339Y-59939635D01*
X171375500Y-59913691D01*
X171375500Y-59736309D01*
X171375500Y-59736306D01*
X171375499Y-59736304D01*
X171340896Y-59562341D01*
X171340894Y-59562338D01*
X171340894Y-59562334D01*
X171283755Y-59424386D01*
X173361418Y-59424386D01*
X173361418Y-59601777D01*
X173396021Y-59775740D01*
X173396024Y-59775749D01*
X173463901Y-59939622D01*
X173463908Y-59939635D01*
X173562453Y-60087116D01*
X173562456Y-60087120D01*
X173687879Y-60212543D01*
X173687883Y-60212546D01*
X173835364Y-60311091D01*
X173835377Y-60311098D01*
X173958281Y-60362005D01*
X173999252Y-60378976D01*
X173999254Y-60378976D01*
X173999259Y-60378978D01*
X174173222Y-60413581D01*
X174173225Y-60413582D01*
X174173227Y-60413582D01*
X174350611Y-60413582D01*
X174350612Y-60413581D01*
X174423726Y-60399038D01*
X174524576Y-60378978D01*
X174524579Y-60378976D01*
X174524584Y-60378976D01*
X174688465Y-60311095D01*
X174835953Y-60212546D01*
X174961382Y-60087117D01*
X175059931Y-59939629D01*
X175127812Y-59775748D01*
X175138600Y-59721517D01*
X175162417Y-59601777D01*
X175162418Y-59601775D01*
X175162418Y-59424388D01*
X175162417Y-59424386D01*
X175127814Y-59250423D01*
X175127811Y-59250414D01*
X175122541Y-59237692D01*
X175078403Y-59131130D01*
X175059934Y-59086541D01*
X175059927Y-59086528D01*
X174961382Y-58939047D01*
X174961379Y-58939043D01*
X174835956Y-58813620D01*
X174835952Y-58813617D01*
X174714286Y-58732321D01*
X176942382Y-58732321D01*
X176942382Y-58909712D01*
X176976985Y-59083675D01*
X176976988Y-59083684D01*
X177044865Y-59247557D01*
X177044872Y-59247570D01*
X177143417Y-59395051D01*
X177143420Y-59395055D01*
X177268843Y-59520478D01*
X177268847Y-59520481D01*
X177416328Y-59619026D01*
X177416341Y-59619033D01*
X177539245Y-59669940D01*
X177580216Y-59686911D01*
X177580218Y-59686911D01*
X177580223Y-59686913D01*
X177754186Y-59721516D01*
X177754189Y-59721517D01*
X177754191Y-59721517D01*
X177931575Y-59721517D01*
X177931576Y-59721516D01*
X177989564Y-59709981D01*
X178105540Y-59686913D01*
X178105543Y-59686911D01*
X178105548Y-59686911D01*
X178269429Y-59619030D01*
X178416917Y-59520481D01*
X178542346Y-59395052D01*
X178640895Y-59247564D01*
X178708776Y-59083683D01*
X178720055Y-59026983D01*
X178738529Y-58934106D01*
X178743382Y-58909708D01*
X178743382Y-58790252D01*
X178763067Y-58723213D01*
X178815871Y-58677458D01*
X178885029Y-58667514D01*
X178948585Y-58696539D01*
X178981943Y-58742800D01*
X179026983Y-58851541D01*
X179026990Y-58851553D01*
X179125535Y-58999034D01*
X179125538Y-58999038D01*
X179250961Y-59124461D01*
X179250965Y-59124464D01*
X179398446Y-59223009D01*
X179398459Y-59223016D01*
X179483719Y-59258331D01*
X179562334Y-59290894D01*
X179562336Y-59290894D01*
X179562341Y-59290896D01*
X179736304Y-59325499D01*
X179736307Y-59325500D01*
X179736309Y-59325500D01*
X179913693Y-59325500D01*
X179913694Y-59325499D01*
X179971682Y-59313964D01*
X180087658Y-59290896D01*
X180087661Y-59290894D01*
X180087666Y-59290894D01*
X180238551Y-59228396D01*
X180251540Y-59223016D01*
X180251540Y-59223015D01*
X180251547Y-59223013D01*
X180399035Y-59124464D01*
X180524464Y-58999035D01*
X180623013Y-58851547D01*
X180690894Y-58687666D01*
X180703467Y-58624461D01*
X180716615Y-58558358D01*
X180725500Y-58513691D01*
X180725500Y-58336309D01*
X180725500Y-58336306D01*
X180725499Y-58336304D01*
X180690896Y-58162341D01*
X180690893Y-58162332D01*
X180623016Y-57998459D01*
X180623009Y-57998446D01*
X180524464Y-57850965D01*
X180524461Y-57850961D01*
X180399038Y-57725538D01*
X180399034Y-57725535D01*
X180251553Y-57626990D01*
X180251540Y-57626983D01*
X180087667Y-57559106D01*
X180087658Y-57559103D01*
X179913694Y-57524500D01*
X179913691Y-57524500D01*
X179736309Y-57524500D01*
X179734149Y-57524500D01*
X179667110Y-57504815D01*
X179621355Y-57452011D01*
X179612531Y-57424690D01*
X179605102Y-57387341D01*
X179605101Y-57387334D01*
X179538083Y-57225536D01*
X179537223Y-57223459D01*
X179537216Y-57223446D01*
X179438671Y-57075965D01*
X179438668Y-57075961D01*
X179313245Y-56950538D01*
X179313241Y-56950535D01*
X179165760Y-56851990D01*
X179165747Y-56851983D01*
X179001874Y-56784106D01*
X179001865Y-56784103D01*
X178827901Y-56749500D01*
X178827898Y-56749500D01*
X178650516Y-56749500D01*
X178650513Y-56749500D01*
X178476548Y-56784103D01*
X178476539Y-56784106D01*
X178312666Y-56851983D01*
X178312653Y-56851990D01*
X178165172Y-56950535D01*
X178165168Y-56950538D01*
X178039745Y-57075961D01*
X178039742Y-57075965D01*
X177941197Y-57223446D01*
X177941190Y-57223459D01*
X177873313Y-57387332D01*
X177873310Y-57387341D01*
X177838707Y-57561304D01*
X177838707Y-57738695D01*
X177846089Y-57775807D01*
X177839862Y-57845399D01*
X177796998Y-57900576D01*
X177748664Y-57921615D01*
X177580222Y-57955121D01*
X177580214Y-57955123D01*
X177416341Y-58023000D01*
X177416328Y-58023007D01*
X177268847Y-58121552D01*
X177268843Y-58121555D01*
X177143420Y-58246978D01*
X177143417Y-58246982D01*
X177044872Y-58394463D01*
X177044865Y-58394476D01*
X176976988Y-58558349D01*
X176976985Y-58558358D01*
X176942382Y-58732321D01*
X174714286Y-58732321D01*
X174688471Y-58715072D01*
X174688458Y-58715065D01*
X174524585Y-58647188D01*
X174524576Y-58647185D01*
X174350612Y-58612582D01*
X174350609Y-58612582D01*
X174173227Y-58612582D01*
X174173224Y-58612582D01*
X173999259Y-58647185D01*
X173999250Y-58647188D01*
X173835377Y-58715065D01*
X173835364Y-58715072D01*
X173687883Y-58813617D01*
X173687879Y-58813620D01*
X173562456Y-58939043D01*
X173562453Y-58939047D01*
X173463908Y-59086528D01*
X173463901Y-59086541D01*
X173396024Y-59250414D01*
X173396021Y-59250423D01*
X173361418Y-59424386D01*
X171283755Y-59424386D01*
X171273016Y-59398459D01*
X171273009Y-59398446D01*
X171174464Y-59250965D01*
X171174461Y-59250961D01*
X171049038Y-59125538D01*
X171049034Y-59125535D01*
X170901553Y-59026990D01*
X170901540Y-59026983D01*
X170737667Y-58959106D01*
X170737658Y-58959103D01*
X170563694Y-58924500D01*
X170563691Y-58924500D01*
X170386309Y-58924500D01*
X170386306Y-58924500D01*
X170212341Y-58959103D01*
X170212332Y-58959106D01*
X170048459Y-59026983D01*
X170048446Y-59026990D01*
X169900965Y-59125535D01*
X169900961Y-59125538D01*
X169775538Y-59250961D01*
X169775535Y-59250965D01*
X169676990Y-59398446D01*
X169676983Y-59398459D01*
X169609106Y-59562332D01*
X169609103Y-59562341D01*
X169574500Y-59736304D01*
X169574500Y-59913695D01*
X169609103Y-60087658D01*
X169609106Y-60087667D01*
X169617242Y-60107309D01*
X169624709Y-60176779D01*
X169593433Y-60239257D01*
X169533343Y-60274908D01*
X169526872Y-60276376D01*
X169362340Y-60309104D01*
X169362332Y-60309106D01*
X169198459Y-60376983D01*
X169198446Y-60376990D01*
X169050965Y-60475535D01*
X169050961Y-60475538D01*
X168925538Y-60600961D01*
X168925535Y-60600965D01*
X168826990Y-60748446D01*
X168826983Y-60748459D01*
X168759106Y-60912332D01*
X168759103Y-60912341D01*
X168724500Y-61086304D01*
X150660910Y-61086304D01*
X150660910Y-61031223D01*
X150633651Y-60929490D01*
X150580990Y-60838278D01*
X150576596Y-60833884D01*
X151537518Y-60833884D01*
X151562147Y-60805047D01*
X151620653Y-60766854D01*
X151690521Y-60766354D01*
X151712089Y-60774768D01*
X151770243Y-60803974D01*
X151851459Y-60823223D01*
X151940956Y-60844435D01*
X151940959Y-60844435D01*
X152116395Y-60844435D01*
X152116398Y-60844435D01*
X152287110Y-60803974D01*
X152443892Y-60725237D01*
X152523999Y-60659980D01*
X153372538Y-59811439D01*
X153437797Y-59731332D01*
X153516534Y-59574550D01*
X153556995Y-59403838D01*
X153556995Y-59228396D01*
X153516534Y-59057684D01*
X153437797Y-58900902D01*
X153372540Y-58820795D01*
X152523999Y-57972256D01*
X152523995Y-57972253D01*
X152523981Y-57972240D01*
X152467654Y-57926354D01*
X152456986Y-57917664D01*
X152443892Y-57906997D01*
X152365154Y-57867454D01*
X152303128Y-57836304D01*
X167649500Y-57836304D01*
X167649500Y-58013695D01*
X167684103Y-58187658D01*
X167684106Y-58187667D01*
X167751983Y-58351540D01*
X167751990Y-58351553D01*
X167850535Y-58499034D01*
X167850538Y-58499038D01*
X167975961Y-58624461D01*
X167975965Y-58624464D01*
X168123446Y-58723009D01*
X168123459Y-58723016D01*
X168246363Y-58773923D01*
X168287334Y-58790894D01*
X168287336Y-58790894D01*
X168287341Y-58790896D01*
X168461304Y-58825499D01*
X168461307Y-58825500D01*
X168461309Y-58825500D01*
X168638693Y-58825500D01*
X168638694Y-58825499D01*
X168698425Y-58813618D01*
X168812658Y-58790896D01*
X168812661Y-58790894D01*
X168812666Y-58790894D01*
X168976547Y-58723013D01*
X169124035Y-58624464D01*
X169249464Y-58499035D01*
X169348013Y-58351547D01*
X169415894Y-58187666D01*
X169416497Y-58184638D01*
X169448647Y-58023007D01*
X169450500Y-58013691D01*
X169450500Y-57836309D01*
X169450500Y-57836306D01*
X169450499Y-57836304D01*
X169415896Y-57662341D01*
X169415893Y-57662332D01*
X169415084Y-57660380D01*
X169374049Y-57561309D01*
X169348016Y-57498459D01*
X169348009Y-57498446D01*
X169249464Y-57350965D01*
X169249461Y-57350961D01*
X169124038Y-57225538D01*
X169124034Y-57225535D01*
X169093537Y-57205157D01*
X174622858Y-57205157D01*
X174622858Y-57382548D01*
X174657461Y-57556511D01*
X174657464Y-57556520D01*
X174725341Y-57720393D01*
X174725348Y-57720406D01*
X174823893Y-57867887D01*
X174823896Y-57867891D01*
X174949319Y-57993314D01*
X174949323Y-57993317D01*
X175096804Y-58091862D01*
X175096817Y-58091869D01*
X175168487Y-58121555D01*
X175260692Y-58159747D01*
X175260694Y-58159747D01*
X175260699Y-58159749D01*
X175434662Y-58194352D01*
X175434665Y-58194353D01*
X175434667Y-58194353D01*
X175612051Y-58194353D01*
X175612052Y-58194352D01*
X175670040Y-58182817D01*
X175786016Y-58159749D01*
X175786019Y-58159747D01*
X175786024Y-58159747D01*
X175949905Y-58091866D01*
X176097393Y-57993317D01*
X176222822Y-57867888D01*
X176321371Y-57720400D01*
X176389252Y-57556519D01*
X176390432Y-57550591D01*
X176422905Y-57387333D01*
X176423858Y-57382544D01*
X176423858Y-57205162D01*
X176423858Y-57205159D01*
X176423857Y-57205157D01*
X176389254Y-57031194D01*
X176389251Y-57031185D01*
X176321374Y-56867312D01*
X176321367Y-56867299D01*
X176222822Y-56719818D01*
X176222819Y-56719814D01*
X176097396Y-56594391D01*
X176097392Y-56594388D01*
X175949911Y-56495843D01*
X175949898Y-56495836D01*
X175786025Y-56427959D01*
X175786016Y-56427956D01*
X175612052Y-56393353D01*
X175612049Y-56393353D01*
X175434667Y-56393353D01*
X175434664Y-56393353D01*
X175260699Y-56427956D01*
X175260690Y-56427959D01*
X175096817Y-56495836D01*
X175096804Y-56495843D01*
X174949323Y-56594388D01*
X174949319Y-56594391D01*
X174823896Y-56719814D01*
X174823893Y-56719818D01*
X174725348Y-56867299D01*
X174725341Y-56867312D01*
X174657464Y-57031185D01*
X174657461Y-57031194D01*
X174622858Y-57205157D01*
X169093537Y-57205157D01*
X168976553Y-57126990D01*
X168976540Y-57126983D01*
X168812667Y-57059106D01*
X168812658Y-57059103D01*
X168638694Y-57024500D01*
X168638691Y-57024500D01*
X168461309Y-57024500D01*
X168461306Y-57024500D01*
X168287341Y-57059103D01*
X168287332Y-57059106D01*
X168123459Y-57126983D01*
X168123446Y-57126990D01*
X167975965Y-57225535D01*
X167975961Y-57225538D01*
X167850538Y-57350961D01*
X167850535Y-57350965D01*
X167751990Y-57498446D01*
X167751983Y-57498459D01*
X167684106Y-57662332D01*
X167684103Y-57662341D01*
X167649500Y-57836304D01*
X152303128Y-57836304D01*
X152287109Y-57828259D01*
X152116405Y-57787800D01*
X152116400Y-57787799D01*
X152116398Y-57787799D01*
X151940956Y-57787799D01*
X151940954Y-57787799D01*
X151940948Y-57787800D01*
X151770244Y-57828259D01*
X151613462Y-57906996D01*
X151533365Y-57972245D01*
X151533347Y-57972261D01*
X150684819Y-58820791D01*
X150684810Y-58820801D01*
X150619555Y-58900904D01*
X150540819Y-59057684D01*
X150500360Y-59228388D01*
X150500359Y-59228399D01*
X150500359Y-59403834D01*
X150500360Y-59403845D01*
X150540819Y-59574550D01*
X150540820Y-59574551D01*
X150570025Y-59632706D01*
X150582521Y-59701449D01*
X150555867Y-59766035D01*
X150539747Y-59782644D01*
X150510910Y-59807273D01*
X150510910Y-60768198D01*
X150506516Y-60763804D01*
X150415304Y-60711143D01*
X150313571Y-60683884D01*
X150208249Y-60683884D01*
X150106516Y-60711143D01*
X150015304Y-60763804D01*
X150010910Y-60768198D01*
X150010910Y-59807274D01*
X149956496Y-59815893D01*
X149761880Y-59879128D01*
X149579560Y-59972024D01*
X149414015Y-60092301D01*
X149414014Y-60092301D01*
X149269327Y-60236988D01*
X149269327Y-60236989D01*
X149149050Y-60402534D01*
X149056154Y-60584854D01*
X148992919Y-60779470D01*
X148984301Y-60833884D01*
X144156823Y-60833884D01*
X142000779Y-59522550D01*
X135511929Y-55575946D01*
X131595450Y-53193892D01*
X131580808Y-53183462D01*
X131309011Y-52958432D01*
X131300213Y-52950405D01*
X131037615Y-52686638D01*
X131029628Y-52677805D01*
X130793541Y-52390055D01*
X130786438Y-52380496D01*
X130579045Y-52071427D01*
X130572892Y-52061231D01*
X130528901Y-51979727D01*
X130396101Y-51733684D01*
X130390962Y-51722963D01*
X130246410Y-51379967D01*
X130242317Y-51368783D01*
X130199421Y-51231462D01*
X130131335Y-51013501D01*
X130128337Y-51001984D01*
X130123834Y-50980510D01*
X130051950Y-50637692D01*
X130050070Y-50625938D01*
X130044299Y-50573978D01*
X130008984Y-50256009D01*
X130008240Y-50244132D01*
X130002831Y-49871952D01*
X130003229Y-49860077D01*
X130004116Y-49849223D01*
X131699500Y-49849223D01*
X131699500Y-50150776D01*
X131699501Y-50150793D01*
X131738861Y-50449766D01*
X131816913Y-50741060D01*
X131932314Y-51019661D01*
X131932318Y-51019671D01*
X132083099Y-51280831D01*
X132266679Y-51520078D01*
X132266685Y-51520085D01*
X132479914Y-51733314D01*
X132479921Y-51733320D01*
X132719168Y-51916900D01*
X132980328Y-52067681D01*
X132980329Y-52067681D01*
X132980332Y-52067683D01*
X133145105Y-52135934D01*
X133258939Y-52183086D01*
X133258940Y-52183086D01*
X133258942Y-52183087D01*
X133550232Y-52261138D01*
X133849217Y-52300500D01*
X133849224Y-52300500D01*
X134150776Y-52300500D01*
X134150783Y-52300500D01*
X134449768Y-52261138D01*
X134741058Y-52183087D01*
X135019668Y-52067683D01*
X135280832Y-51916900D01*
X135520080Y-51733319D01*
X135733319Y-51520080D01*
X135916900Y-51280832D01*
X136060555Y-51032014D01*
X139750000Y-51032014D01*
X139750000Y-51267985D01*
X139780799Y-51501914D01*
X139841870Y-51729837D01*
X139932160Y-51947819D01*
X139932165Y-51947828D01*
X140050144Y-52152171D01*
X140050145Y-52152172D01*
X140112721Y-52233723D01*
X140948958Y-51397487D01*
X140973978Y-51457890D01*
X141045112Y-51564351D01*
X141135649Y-51654888D01*
X141242110Y-51726022D01*
X141302511Y-51751041D01*
X140466275Y-52587277D01*
X140547827Y-52649854D01*
X140547828Y-52649855D01*
X140752171Y-52767834D01*
X140752180Y-52767839D01*
X140970163Y-52858129D01*
X140970161Y-52858129D01*
X141198085Y-52919200D01*
X141432014Y-52949999D01*
X141432029Y-52950000D01*
X141667971Y-52950000D01*
X141667985Y-52949999D01*
X141901914Y-52919200D01*
X142129837Y-52858129D01*
X142347819Y-52767839D01*
X142347828Y-52767834D01*
X142552181Y-52649850D01*
X142633723Y-52587279D01*
X142633723Y-52587276D01*
X141797487Y-51751041D01*
X141857890Y-51726022D01*
X141964351Y-51654888D01*
X142054888Y-51564351D01*
X142126022Y-51457890D01*
X142151041Y-51397487D01*
X142987276Y-52233723D01*
X142987279Y-52233723D01*
X143049850Y-52152181D01*
X143167834Y-51947828D01*
X143167839Y-51947819D01*
X143258129Y-51729837D01*
X143319200Y-51501914D01*
X143349999Y-51267985D01*
X143350000Y-51267971D01*
X143350000Y-51032028D01*
X143349999Y-51032014D01*
X143319200Y-50798085D01*
X143258129Y-50570162D01*
X143167839Y-50352180D01*
X143167834Y-50352171D01*
X143049855Y-50147828D01*
X143049848Y-50147817D01*
X143030286Y-50122324D01*
X143030283Y-50122321D01*
X142987277Y-50066275D01*
X142151041Y-50902511D01*
X142126022Y-50842110D01*
X142054888Y-50735649D01*
X141964351Y-50645112D01*
X141857890Y-50573978D01*
X141797488Y-50548958D01*
X142296462Y-50049983D01*
X144829499Y-50049983D01*
X144829499Y-52250001D01*
X144829500Y-52250018D01*
X144839999Y-52352796D01*
X144840000Y-52352799D01*
X144895184Y-52519331D01*
X144895186Y-52519336D01*
X144897729Y-52523459D01*
X144987287Y-52668656D01*
X145111343Y-52792712D01*
X145260665Y-52884814D01*
X145427202Y-52939999D01*
X145529990Y-52950500D01*
X147730007Y-52950499D01*
X147832796Y-52939999D01*
X147999333Y-52884814D01*
X148148655Y-52792712D01*
X148272711Y-52668656D01*
X148354346Y-52536304D01*
X153974500Y-52536304D01*
X153974500Y-52713695D01*
X154009103Y-52887658D01*
X154009106Y-52887667D01*
X154076983Y-53051540D01*
X154076990Y-53051553D01*
X154175535Y-53199034D01*
X154175538Y-53199038D01*
X154300961Y-53324461D01*
X154300965Y-53324464D01*
X154448446Y-53423009D01*
X154448459Y-53423016D01*
X154571363Y-53473923D01*
X154612334Y-53490894D01*
X154612336Y-53490894D01*
X154612341Y-53490896D01*
X154786304Y-53525499D01*
X154786307Y-53525500D01*
X154786309Y-53525500D01*
X154963691Y-53525500D01*
X155034898Y-53511335D01*
X155104488Y-53517561D01*
X155146771Y-53545271D01*
X155200961Y-53599461D01*
X155200965Y-53599464D01*
X155348446Y-53698009D01*
X155348459Y-53698016D01*
X155417355Y-53726553D01*
X155512334Y-53765894D01*
X155512336Y-53765894D01*
X155512341Y-53765896D01*
X155686304Y-53800499D01*
X155686307Y-53800500D01*
X155686309Y-53800500D01*
X155863693Y-53800500D01*
X155863694Y-53800499D01*
X155921682Y-53788964D01*
X156037658Y-53765896D01*
X156037661Y-53765894D01*
X156037666Y-53765894D01*
X156201547Y-53698013D01*
X156201552Y-53698009D01*
X156201555Y-53698008D01*
X156238818Y-53673108D01*
X156349035Y-53599464D01*
X156349038Y-53599460D01*
X156353827Y-53596261D01*
X156420504Y-53575382D01*
X156446911Y-53577745D01*
X156561306Y-53600500D01*
X156561309Y-53600500D01*
X156738693Y-53600500D01*
X156738694Y-53600499D01*
X156822778Y-53583774D01*
X156912658Y-53565896D01*
X156912661Y-53565894D01*
X156912666Y-53565894D01*
X157076547Y-53498013D01*
X157224035Y-53399464D01*
X157349464Y-53274035D01*
X157448013Y-53126547D01*
X157515894Y-52962666D01*
X157516737Y-52958432D01*
X157549700Y-52792712D01*
X157550500Y-52788691D01*
X157550500Y-52611309D01*
X157550500Y-52611306D01*
X157550499Y-52611304D01*
X157515896Y-52437341D01*
X157515893Y-52437332D01*
X157448016Y-52273459D01*
X157448009Y-52273446D01*
X157349464Y-52125965D01*
X157349461Y-52125961D01*
X157224038Y-52000538D01*
X157124861Y-51934269D01*
X157080057Y-51880656D01*
X157071350Y-51811331D01*
X157101505Y-51748304D01*
X157146297Y-51716608D01*
X157251547Y-51673013D01*
X157399035Y-51574464D01*
X157524464Y-51449035D01*
X157623013Y-51301547D01*
X157624047Y-51299052D01*
X157652043Y-51231462D01*
X157690894Y-51137666D01*
X157713883Y-51022091D01*
X157746267Y-50960181D01*
X157806983Y-50925607D01*
X157876752Y-50929346D01*
X157933425Y-50970212D01*
X157959006Y-51035230D01*
X157959500Y-51046283D01*
X157959500Y-51497870D01*
X157959501Y-51497876D01*
X157965908Y-51557483D01*
X158016202Y-51692328D01*
X158016206Y-51692335D01*
X158102452Y-51807544D01*
X158102455Y-51807547D01*
X158217664Y-51893793D01*
X158217671Y-51893797D01*
X158352517Y-51944091D01*
X158352516Y-51944091D01*
X158359444Y-51944835D01*
X158412127Y-51950500D01*
X160207872Y-51950499D01*
X160267483Y-51944091D01*
X160402331Y-51893796D01*
X160517546Y-51807546D01*
X160603796Y-51692331D01*
X160654091Y-51557483D01*
X160660500Y-51497873D01*
X160660499Y-51473979D01*
X160663330Y-51460963D01*
X160673940Y-51441525D01*
X160680179Y-51420275D01*
X160696803Y-51399643D01*
X160696808Y-51399636D01*
X160696811Y-51399634D01*
X160696818Y-51399626D01*
X161367037Y-50729408D01*
X161384075Y-50792993D01*
X161449901Y-50907007D01*
X161542993Y-51000099D01*
X161657007Y-51065925D01*
X161720590Y-51082962D01*
X161088282Y-51715269D01*
X161088282Y-51715270D01*
X161142449Y-51754624D01*
X161331782Y-51851095D01*
X161533870Y-51916757D01*
X161743754Y-51950000D01*
X161956246Y-51950000D01*
X162166127Y-51916757D01*
X162166130Y-51916757D01*
X162368217Y-51851095D01*
X162557554Y-51754622D01*
X162611716Y-51715270D01*
X162611717Y-51715270D01*
X161979408Y-51082962D01*
X162042993Y-51065925D01*
X162157007Y-51000099D01*
X162250099Y-50907007D01*
X162315925Y-50792993D01*
X162332962Y-50729408D01*
X162965270Y-51361717D01*
X162965270Y-51361716D01*
X163004623Y-51307553D01*
X163009230Y-51298511D01*
X163057201Y-51247712D01*
X163125021Y-51230912D01*
X163191157Y-51253446D01*
X163230201Y-51298501D01*
X163234948Y-51307817D01*
X163359889Y-51479786D01*
X163510212Y-51630109D01*
X163682178Y-51755048D01*
X163682180Y-51755049D01*
X163682183Y-51755051D01*
X163871587Y-51851557D01*
X164073756Y-51917246D01*
X164283712Y-51950500D01*
X164283713Y-51950500D01*
X164496285Y-51950500D01*
X164496286Y-51950500D01*
X164706242Y-51917246D01*
X164908411Y-51851557D01*
X165097815Y-51755051D01*
X165139865Y-51724500D01*
X165269785Y-51630109D01*
X165269787Y-51630106D01*
X165269791Y-51630104D01*
X165420103Y-51479792D01*
X165420105Y-51479788D01*
X165420108Y-51479786D01*
X165545047Y-51307821D01*
X165545184Y-51307553D01*
X165549512Y-51299056D01*
X165597483Y-51248260D01*
X165665303Y-51231462D01*
X165731439Y-51253996D01*
X165770483Y-51299052D01*
X165774949Y-51307817D01*
X165899890Y-51479786D01*
X166050213Y-51630109D01*
X166222179Y-51755048D01*
X166222181Y-51755049D01*
X166222184Y-51755051D01*
X166411588Y-51851557D01*
X166613757Y-51917246D01*
X166823713Y-51950500D01*
X166823714Y-51950500D01*
X167036286Y-51950500D01*
X167036287Y-51950500D01*
X167246243Y-51917246D01*
X167448412Y-51851557D01*
X167637816Y-51755051D01*
X167679866Y-51724500D01*
X167809786Y-51630109D01*
X167809788Y-51630106D01*
X167809792Y-51630104D01*
X167960104Y-51479792D01*
X167960106Y-51479788D01*
X167960109Y-51479786D01*
X168085048Y-51307820D01*
X168085050Y-51307817D01*
X168085051Y-51307816D01*
X168089514Y-51299054D01*
X168137488Y-51248259D01*
X168205308Y-51231463D01*
X168271444Y-51253999D01*
X168310484Y-51299054D01*
X168311755Y-51301547D01*
X168314951Y-51307820D01*
X168439890Y-51479786D01*
X168590213Y-51630109D01*
X168762179Y-51755048D01*
X168762181Y-51755049D01*
X168762184Y-51755051D01*
X168951588Y-51851557D01*
X169153757Y-51917246D01*
X169162306Y-51918600D01*
X169225439Y-51948527D01*
X169262372Y-52007838D01*
X169261376Y-52077700D01*
X169222768Y-52135934D01*
X169201364Y-52150430D01*
X169198455Y-52151984D01*
X169050965Y-52250535D01*
X169050961Y-52250538D01*
X168925538Y-52375961D01*
X168925535Y-52375965D01*
X168826990Y-52523446D01*
X168826983Y-52523459D01*
X168759106Y-52687332D01*
X168759103Y-52687341D01*
X168724500Y-52861304D01*
X168724500Y-53038695D01*
X168759103Y-53212658D01*
X168759106Y-53212667D01*
X168826983Y-53376540D01*
X168826990Y-53376553D01*
X168925535Y-53524034D01*
X168925538Y-53524038D01*
X169050961Y-53649461D01*
X169050965Y-53649464D01*
X169198446Y-53748009D01*
X169198459Y-53748016D01*
X169321363Y-53798923D01*
X169362334Y-53815894D01*
X169362336Y-53815894D01*
X169362341Y-53815896D01*
X169536304Y-53850499D01*
X169536307Y-53850500D01*
X169536309Y-53850500D01*
X169713693Y-53850500D01*
X169713694Y-53850499D01*
X169785059Y-53836304D01*
X169887658Y-53815896D01*
X169887661Y-53815894D01*
X169887666Y-53815894D01*
X170051547Y-53748013D01*
X170199035Y-53649464D01*
X170324464Y-53524035D01*
X170423013Y-53376547D01*
X170490894Y-53212666D01*
X170491165Y-53211304D01*
X171249500Y-53211304D01*
X171249500Y-53388695D01*
X171284103Y-53562658D01*
X171284106Y-53562667D01*
X171351983Y-53726540D01*
X171351990Y-53726553D01*
X171450535Y-53874034D01*
X171450538Y-53874038D01*
X171575961Y-53999461D01*
X171575965Y-53999464D01*
X171723446Y-54098009D01*
X171723459Y-54098016D01*
X171846363Y-54148923D01*
X171887334Y-54165894D01*
X171887336Y-54165894D01*
X171887341Y-54165896D01*
X172061304Y-54200499D01*
X172061307Y-54200500D01*
X172061309Y-54200500D01*
X172238693Y-54200500D01*
X172238694Y-54200499D01*
X172296682Y-54188964D01*
X172412658Y-54165896D01*
X172412661Y-54165894D01*
X172412666Y-54165894D01*
X172576547Y-54098013D01*
X172724035Y-53999464D01*
X172849464Y-53874035D01*
X172948013Y-53726547D01*
X173015894Y-53562666D01*
X173023579Y-53524035D01*
X173050499Y-53388695D01*
X173050500Y-53388693D01*
X173050500Y-53211306D01*
X173050499Y-53211304D01*
X173015896Y-53037341D01*
X173015893Y-53037332D01*
X172948016Y-52873459D01*
X172948009Y-52873446D01*
X172849464Y-52725965D01*
X172849461Y-52725961D01*
X172724038Y-52600538D01*
X172724034Y-52600535D01*
X172576553Y-52501990D01*
X172576540Y-52501983D01*
X172412667Y-52434106D01*
X172412658Y-52434103D01*
X172238694Y-52399500D01*
X172238691Y-52399500D01*
X172061309Y-52399500D01*
X172061306Y-52399500D01*
X171887341Y-52434103D01*
X171887332Y-52434106D01*
X171723459Y-52501983D01*
X171723446Y-52501990D01*
X171575965Y-52600535D01*
X171575961Y-52600538D01*
X171450538Y-52725961D01*
X171450535Y-52725965D01*
X171351990Y-52873446D01*
X171351983Y-52873459D01*
X171284106Y-53037332D01*
X171284103Y-53037341D01*
X171249500Y-53211304D01*
X170491165Y-53211304D01*
X170493606Y-53199035D01*
X170497188Y-53181026D01*
X170497188Y-53181025D01*
X170525500Y-53038693D01*
X170525500Y-52861306D01*
X170525499Y-52861304D01*
X170490896Y-52687341D01*
X170490893Y-52687332D01*
X170423016Y-52523459D01*
X170423009Y-52523446D01*
X170324464Y-52375965D01*
X170324461Y-52375961D01*
X170199038Y-52250538D01*
X170199034Y-52250535D01*
X170051553Y-52151990D01*
X170051540Y-52151983D01*
X169927861Y-52100755D01*
X169873457Y-52056915D01*
X169851392Y-51990621D01*
X169868671Y-51922921D01*
X169919808Y-51875310D01*
X169936989Y-51868265D01*
X169988412Y-51851557D01*
X170177816Y-51755051D01*
X170219866Y-51724500D01*
X170349786Y-51630109D01*
X170349788Y-51630106D01*
X170349792Y-51630104D01*
X170500104Y-51479792D01*
X170500106Y-51479788D01*
X170500109Y-51479786D01*
X170625048Y-51307820D01*
X170625050Y-51307817D01*
X170625051Y-51307816D01*
X170629514Y-51299054D01*
X170677488Y-51248259D01*
X170745308Y-51231463D01*
X170811444Y-51253999D01*
X170850484Y-51299054D01*
X170851755Y-51301547D01*
X170854951Y-51307820D01*
X170979890Y-51479786D01*
X171130213Y-51630109D01*
X171302179Y-51755048D01*
X171302181Y-51755049D01*
X171302184Y-51755051D01*
X171491588Y-51851557D01*
X171693757Y-51917246D01*
X171903713Y-51950500D01*
X171903714Y-51950500D01*
X172116286Y-51950500D01*
X172116287Y-51950500D01*
X172326243Y-51917246D01*
X172528412Y-51851557D01*
X172717816Y-51755051D01*
X172759866Y-51724500D01*
X172889786Y-51630109D01*
X172889788Y-51630106D01*
X172889792Y-51630104D01*
X173040104Y-51479792D01*
X173040106Y-51479788D01*
X173040109Y-51479786D01*
X173165048Y-51307820D01*
X173165050Y-51307817D01*
X173165051Y-51307816D01*
X173169514Y-51299054D01*
X173217488Y-51248259D01*
X173285308Y-51231463D01*
X173351444Y-51253999D01*
X173390484Y-51299054D01*
X173391755Y-51301547D01*
X173394951Y-51307820D01*
X173519890Y-51479786D01*
X173670213Y-51630109D01*
X173842179Y-51755048D01*
X173842181Y-51755049D01*
X173842184Y-51755051D01*
X174031588Y-51851557D01*
X174233757Y-51917246D01*
X174443713Y-51950500D01*
X174443714Y-51950500D01*
X174656286Y-51950500D01*
X174656287Y-51950500D01*
X174866243Y-51917246D01*
X175068412Y-51851557D01*
X175257816Y-51755051D01*
X175299866Y-51724500D01*
X175429786Y-51630109D01*
X175429788Y-51630106D01*
X175429792Y-51630104D01*
X175580104Y-51479792D01*
X175580106Y-51479788D01*
X175580109Y-51479786D01*
X175705048Y-51307820D01*
X175705050Y-51307817D01*
X175705051Y-51307816D01*
X175801557Y-51118412D01*
X175867246Y-50916243D01*
X175900500Y-50706287D01*
X175900500Y-50493713D01*
X175867246Y-50283757D01*
X175801557Y-50081588D01*
X175725318Y-49931961D01*
X175709774Y-49901453D01*
X175705049Y-49892180D01*
X175673839Y-49849223D01*
X182699500Y-49849223D01*
X182699500Y-50150776D01*
X182699501Y-50150793D01*
X182738861Y-50449766D01*
X182816913Y-50741060D01*
X182932314Y-51019661D01*
X182932318Y-51019671D01*
X183083099Y-51280831D01*
X183266679Y-51520078D01*
X183266685Y-51520085D01*
X183479914Y-51733314D01*
X183479921Y-51733320D01*
X183719168Y-51916900D01*
X183980328Y-52067681D01*
X183980329Y-52067681D01*
X183980332Y-52067683D01*
X184145105Y-52135934D01*
X184258939Y-52183086D01*
X184258940Y-52183086D01*
X184258942Y-52183087D01*
X184550232Y-52261138D01*
X184849217Y-52300500D01*
X184849224Y-52300500D01*
X185150776Y-52300500D01*
X185150783Y-52300500D01*
X185449768Y-52261138D01*
X185741058Y-52183087D01*
X186019668Y-52067683D01*
X186280832Y-51916900D01*
X186520080Y-51733319D01*
X186733319Y-51520080D01*
X186916900Y-51280832D01*
X187067683Y-51019668D01*
X187183087Y-50741058D01*
X187261138Y-50449768D01*
X187300500Y-50150783D01*
X187300500Y-49849217D01*
X187261138Y-49550232D01*
X187183087Y-49258942D01*
X187183041Y-49258832D01*
X187097918Y-49053326D01*
X187067683Y-48980332D01*
X186916900Y-48719168D01*
X186808896Y-48578414D01*
X186733320Y-48479921D01*
X186733314Y-48479914D01*
X186520085Y-48266685D01*
X186520078Y-48266679D01*
X186280831Y-48083099D01*
X186019671Y-47932318D01*
X186019661Y-47932314D01*
X185741060Y-47816913D01*
X185449766Y-47738861D01*
X185150793Y-47699501D01*
X185150788Y-47699500D01*
X185150783Y-47699500D01*
X184849217Y-47699500D01*
X184849211Y-47699500D01*
X184849206Y-47699501D01*
X184550233Y-47738861D01*
X184258939Y-47816913D01*
X183980338Y-47932314D01*
X183980328Y-47932318D01*
X183719168Y-48083099D01*
X183479921Y-48266679D01*
X183479914Y-48266685D01*
X183266685Y-48479914D01*
X183266679Y-48479921D01*
X183083099Y-48719168D01*
X182932318Y-48980328D01*
X182932314Y-48980338D01*
X182816913Y-49258939D01*
X182738861Y-49550233D01*
X182699501Y-49849206D01*
X182699500Y-49849223D01*
X175673839Y-49849223D01*
X175580109Y-49720213D01*
X175429786Y-49569890D01*
X175257820Y-49444951D01*
X175249600Y-49440763D01*
X175249054Y-49440485D01*
X175198259Y-49392512D01*
X175181463Y-49324692D01*
X175203999Y-49258556D01*
X175249054Y-49219515D01*
X175257816Y-49215051D01*
X175347554Y-49149853D01*
X175429786Y-49090109D01*
X175429788Y-49090106D01*
X175429792Y-49090104D01*
X175580104Y-48939792D01*
X175580106Y-48939788D01*
X175580109Y-48939786D01*
X175705048Y-48767820D01*
X175705047Y-48767820D01*
X175705051Y-48767816D01*
X175801557Y-48578412D01*
X175867246Y-48376243D01*
X175900500Y-48166287D01*
X175900500Y-47953713D01*
X175867246Y-47743757D01*
X175801557Y-47541588D01*
X175705051Y-47352184D01*
X175705049Y-47352181D01*
X175705048Y-47352179D01*
X175580109Y-47180213D01*
X175429786Y-47029890D01*
X175257820Y-46904951D01*
X175068414Y-46808444D01*
X175068413Y-46808443D01*
X175068412Y-46808443D01*
X174866243Y-46742754D01*
X174866241Y-46742753D01*
X174866240Y-46742753D01*
X174704957Y-46717208D01*
X174656287Y-46709500D01*
X174443713Y-46709500D01*
X174395042Y-46717208D01*
X174233760Y-46742753D01*
X174031585Y-46808444D01*
X173842179Y-46904951D01*
X173670213Y-47029890D01*
X173519890Y-47180213D01*
X173394949Y-47352182D01*
X173390484Y-47360946D01*
X173342509Y-47411742D01*
X173274688Y-47428536D01*
X173208553Y-47405998D01*
X173169516Y-47360946D01*
X173165050Y-47352182D01*
X173040109Y-47180213D01*
X172889786Y-47029890D01*
X172717820Y-46904951D01*
X172528414Y-46808444D01*
X172528413Y-46808443D01*
X172528412Y-46808443D01*
X172326243Y-46742754D01*
X172326241Y-46742753D01*
X172326240Y-46742753D01*
X172164957Y-46717208D01*
X172116287Y-46709500D01*
X171903713Y-46709500D01*
X171855042Y-46717208D01*
X171693760Y-46742753D01*
X171491585Y-46808444D01*
X171302179Y-46904951D01*
X171130213Y-47029890D01*
X170979890Y-47180213D01*
X170854949Y-47352182D01*
X170850484Y-47360946D01*
X170802509Y-47411742D01*
X170734688Y-47428536D01*
X170668553Y-47405998D01*
X170629516Y-47360946D01*
X170625050Y-47352182D01*
X170500109Y-47180213D01*
X170349786Y-47029890D01*
X170177820Y-46904951D01*
X169988414Y-46808444D01*
X169988413Y-46808443D01*
X169988412Y-46808443D01*
X169786243Y-46742754D01*
X169786241Y-46742753D01*
X169786240Y-46742753D01*
X169624957Y-46717208D01*
X169576287Y-46709500D01*
X169363713Y-46709500D01*
X169315042Y-46717208D01*
X169153760Y-46742753D01*
X168951585Y-46808444D01*
X168762179Y-46904951D01*
X168590213Y-47029890D01*
X168439890Y-47180213D01*
X168314949Y-47352182D01*
X168310484Y-47360946D01*
X168262509Y-47411742D01*
X168194688Y-47428536D01*
X168128553Y-47405998D01*
X168089516Y-47360946D01*
X168085050Y-47352182D01*
X167960109Y-47180213D01*
X167809786Y-47029890D01*
X167637820Y-46904951D01*
X167448414Y-46808444D01*
X167448413Y-46808443D01*
X167448412Y-46808443D01*
X167246243Y-46742754D01*
X167246241Y-46742753D01*
X167246240Y-46742753D01*
X167084957Y-46717208D01*
X167036287Y-46709500D01*
X166823713Y-46709500D01*
X166775042Y-46717208D01*
X166613760Y-46742753D01*
X166411585Y-46808444D01*
X166222179Y-46904951D01*
X166050213Y-47029890D01*
X165899890Y-47180213D01*
X165774949Y-47352182D01*
X165770484Y-47360946D01*
X165722509Y-47411742D01*
X165654688Y-47428536D01*
X165588553Y-47405998D01*
X165549516Y-47360946D01*
X165545050Y-47352182D01*
X165420109Y-47180213D01*
X165269786Y-47029890D01*
X165097820Y-46904951D01*
X164908414Y-46808444D01*
X164908413Y-46808443D01*
X164908412Y-46808443D01*
X164706243Y-46742754D01*
X164706241Y-46742753D01*
X164706240Y-46742753D01*
X164544957Y-46717208D01*
X164496287Y-46709500D01*
X164283713Y-46709500D01*
X164235042Y-46717208D01*
X164073760Y-46742753D01*
X163871585Y-46808444D01*
X163682179Y-46904951D01*
X163510213Y-47029890D01*
X163359890Y-47180213D01*
X163234949Y-47352182D01*
X163230484Y-47360946D01*
X163182509Y-47411742D01*
X163114688Y-47428536D01*
X163048553Y-47405998D01*
X163009516Y-47360946D01*
X163005050Y-47352182D01*
X162880109Y-47180213D01*
X162729786Y-47029890D01*
X162557820Y-46904951D01*
X162368414Y-46808444D01*
X162368413Y-46808443D01*
X162368412Y-46808443D01*
X162166243Y-46742754D01*
X162166241Y-46742753D01*
X162166240Y-46742753D01*
X162004957Y-46717208D01*
X161956287Y-46709500D01*
X161743713Y-46709500D01*
X161695042Y-46717208D01*
X161533760Y-46742753D01*
X161331585Y-46808444D01*
X161142179Y-46904951D01*
X160970213Y-47029890D01*
X160819890Y-47180213D01*
X160694949Y-47352182D01*
X160690484Y-47360946D01*
X160642509Y-47411742D01*
X160574688Y-47428536D01*
X160508553Y-47405998D01*
X160469516Y-47360946D01*
X160465050Y-47352182D01*
X160340109Y-47180213D01*
X160189786Y-47029890D01*
X160017820Y-46904951D01*
X159828414Y-46808444D01*
X159828413Y-46808443D01*
X159828412Y-46808443D01*
X159626243Y-46742754D01*
X159626241Y-46742753D01*
X159626240Y-46742753D01*
X159464957Y-46717208D01*
X159416287Y-46709500D01*
X159203713Y-46709500D01*
X159155042Y-46717208D01*
X158993760Y-46742753D01*
X158791585Y-46808444D01*
X158602179Y-46904951D01*
X158430213Y-47029890D01*
X158279890Y-47180213D01*
X158154951Y-47352179D01*
X158058444Y-47541585D01*
X157992753Y-47743760D01*
X157962889Y-47932314D01*
X157959500Y-47953713D01*
X157959500Y-48166287D01*
X157992754Y-48376243D01*
X158030570Y-48492629D01*
X158058444Y-48578414D01*
X158154951Y-48767820D01*
X158279890Y-48939786D01*
X158393430Y-49053326D01*
X158426915Y-49114649D01*
X158421931Y-49184341D01*
X158380059Y-49240274D01*
X158349083Y-49257189D01*
X158217669Y-49306203D01*
X158217664Y-49306206D01*
X158102455Y-49392452D01*
X158102452Y-49392455D01*
X158016206Y-49507664D01*
X158016202Y-49507671D01*
X157965908Y-49642517D01*
X157959501Y-49702116D01*
X157959501Y-49702123D01*
X157959500Y-49702135D01*
X157959500Y-50703715D01*
X157939815Y-50770754D01*
X157887011Y-50816509D01*
X157817853Y-50826453D01*
X157754297Y-50797428D01*
X157716523Y-50738650D01*
X157713883Y-50727906D01*
X157690896Y-50612341D01*
X157690893Y-50612332D01*
X157623016Y-50448459D01*
X157623009Y-50448446D01*
X157524464Y-50300965D01*
X157524461Y-50300961D01*
X157399038Y-50175538D01*
X157399034Y-50175535D01*
X157251553Y-50076990D01*
X157251540Y-50076983D01*
X157087667Y-50009106D01*
X157087658Y-50009103D01*
X156913694Y-49974500D01*
X156913691Y-49974500D01*
X156736309Y-49974500D01*
X156736306Y-49974500D01*
X156562341Y-50009103D01*
X156562332Y-50009106D01*
X156398459Y-50076983D01*
X156398446Y-50076990D01*
X156250965Y-50175535D01*
X156250961Y-50175538D01*
X156125538Y-50300961D01*
X156125535Y-50300965D01*
X156026990Y-50448446D01*
X156026983Y-50448459D01*
X155959106Y-50612332D01*
X155959103Y-50612341D01*
X155924500Y-50786304D01*
X155924500Y-50963695D01*
X155959103Y-51137658D01*
X155959106Y-51137667D01*
X156026983Y-51301540D01*
X156026990Y-51301553D01*
X156125535Y-51449034D01*
X156125538Y-51449038D01*
X156250961Y-51574461D01*
X156250965Y-51574464D01*
X156350137Y-51640730D01*
X156394942Y-51694343D01*
X156403649Y-51763668D01*
X156373494Y-51826695D01*
X156328698Y-51858393D01*
X156223459Y-51901983D01*
X156223446Y-51901990D01*
X156071169Y-52003739D01*
X156004491Y-52024617D01*
X155978087Y-52022254D01*
X155863695Y-51999500D01*
X155863691Y-51999500D01*
X155686309Y-51999500D01*
X155686306Y-51999500D01*
X155615099Y-52013664D01*
X155545508Y-52007437D01*
X155503226Y-51979727D01*
X155449038Y-51925538D01*
X155449034Y-51925535D01*
X155301553Y-51826990D01*
X155301540Y-51826983D01*
X155137667Y-51759106D01*
X155137658Y-51759103D01*
X154963694Y-51724500D01*
X154963691Y-51724500D01*
X154786309Y-51724500D01*
X154786306Y-51724500D01*
X154612341Y-51759103D01*
X154612332Y-51759106D01*
X154448459Y-51826983D01*
X154448446Y-51826990D01*
X154300965Y-51925535D01*
X154300961Y-51925538D01*
X154175538Y-52050961D01*
X154175535Y-52050965D01*
X154076990Y-52198446D01*
X154076983Y-52198459D01*
X154009106Y-52362332D01*
X154009103Y-52362341D01*
X153974500Y-52536304D01*
X148354346Y-52536304D01*
X148364813Y-52519334D01*
X148419998Y-52352797D01*
X148430499Y-52250009D01*
X148430498Y-50049992D01*
X148426321Y-50009106D01*
X148419998Y-49947203D01*
X148419997Y-49947200D01*
X148404854Y-49901501D01*
X148364813Y-49780666D01*
X148272711Y-49631344D01*
X148148655Y-49507288D01*
X147999333Y-49415186D01*
X147832796Y-49360001D01*
X147832794Y-49360000D01*
X147730009Y-49349500D01*
X145529997Y-49349500D01*
X145529980Y-49349501D01*
X145427202Y-49360000D01*
X145427199Y-49360001D01*
X145260667Y-49415185D01*
X145260662Y-49415187D01*
X145111341Y-49507289D01*
X144987288Y-49631342D01*
X144895186Y-49780663D01*
X144895185Y-49780666D01*
X144840000Y-49947203D01*
X144840000Y-49947204D01*
X144839999Y-49947204D01*
X144829499Y-50049983D01*
X142296462Y-50049983D01*
X142633723Y-49712721D01*
X142552172Y-49650145D01*
X142552171Y-49650144D01*
X142347828Y-49532165D01*
X142347819Y-49532160D01*
X142129836Y-49441870D01*
X142129838Y-49441870D01*
X141901914Y-49380799D01*
X141667985Y-49350000D01*
X141432014Y-49350000D01*
X141198085Y-49380799D01*
X140970162Y-49441870D01*
X140752180Y-49532160D01*
X140752171Y-49532165D01*
X140547828Y-49650144D01*
X140547818Y-49650150D01*
X140466275Y-49712720D01*
X140466275Y-49712721D01*
X141302512Y-50548958D01*
X141242110Y-50573978D01*
X141135649Y-50645112D01*
X141045112Y-50735649D01*
X140973978Y-50842110D01*
X140948958Y-50902512D01*
X140112721Y-50066275D01*
X140112720Y-50066275D01*
X140050150Y-50147818D01*
X140050144Y-50147828D01*
X139932165Y-50352171D01*
X139932160Y-50352180D01*
X139841870Y-50570162D01*
X139780799Y-50798085D01*
X139750000Y-51032014D01*
X136060555Y-51032014D01*
X136067683Y-51019668D01*
X136088133Y-50970299D01*
X136159738Y-50797428D01*
X136183087Y-50741058D01*
X136261138Y-50449768D01*
X136300500Y-50150783D01*
X136300500Y-49849217D01*
X136261138Y-49550232D01*
X136183087Y-49258942D01*
X136183041Y-49258832D01*
X136097918Y-49053326D01*
X136067683Y-48980332D01*
X135916900Y-48719168D01*
X135808896Y-48578414D01*
X135733320Y-48479921D01*
X135733314Y-48479914D01*
X135520085Y-48266685D01*
X135520078Y-48266679D01*
X135280831Y-48083099D01*
X135019671Y-47932318D01*
X135019661Y-47932314D01*
X134741060Y-47816913D01*
X134449766Y-47738861D01*
X134150793Y-47699501D01*
X134150788Y-47699500D01*
X134150783Y-47699500D01*
X133849217Y-47699500D01*
X133849211Y-47699500D01*
X133849206Y-47699501D01*
X133550233Y-47738861D01*
X133258939Y-47816913D01*
X132980338Y-47932314D01*
X132980328Y-47932318D01*
X132719168Y-48083099D01*
X132479921Y-48266679D01*
X132479914Y-48266685D01*
X132266685Y-48479914D01*
X132266679Y-48479921D01*
X132083099Y-48719168D01*
X131932318Y-48980328D01*
X131932314Y-48980338D01*
X131816913Y-49258939D01*
X131738861Y-49550233D01*
X131699501Y-49849206D01*
X131699500Y-49849223D01*
X130004116Y-49849223D01*
X130033551Y-49489088D01*
X130035089Y-49477288D01*
X130100859Y-49110926D01*
X130103517Y-49099348D01*
X130204133Y-48740971D01*
X130207890Y-48729702D01*
X130342423Y-48382628D01*
X130347244Y-48371771D01*
X130514443Y-48039224D01*
X130520296Y-48028856D01*
X130718628Y-47713877D01*
X130725440Y-47704132D01*
X130953083Y-47409623D01*
X130960788Y-47400588D01*
X131215627Y-47129281D01*
X131224164Y-47121025D01*
X131503880Y-46875397D01*
X131513162Y-46868005D01*
X131815124Y-46650363D01*
X131825100Y-46643878D01*
X132146547Y-46456208D01*
X132157094Y-46450711D01*
X132495060Y-46294746D01*
X132506085Y-46290287D01*
X132857452Y-46167463D01*
X132868857Y-46164081D01*
X133230395Y-46075530D01*
X133242070Y-46073259D01*
X133610413Y-46019802D01*
X133622264Y-46018660D01*
X133997026Y-46000643D01*
X134002344Y-46000502D01*
X134002733Y-46000500D01*
X134065892Y-46000500D01*
X134067126Y-46000168D01*
X134076267Y-46000122D01*
X134076349Y-46000145D01*
X134076732Y-46000120D01*
X184997093Y-45932484D01*
X185002910Y-45932615D01*
G37*
%TD.AperFunction*%
%TD*%
M02*
