%TF.GenerationSoftware,KiCad,Pcbnew,9.0.3*%
%TF.CreationDate,2026-04-11T21:11:07-04:00*%
%TF.ProjectId,TouchScreenModule_Rev1,546f7563-6853-4637-9265-656e4d6f6475,rev?*%
%TF.SameCoordinates,Original*%
%TF.FileFunction,Copper,L1,Top*%
%TF.FilePolarity,Positive*%
%FSLAX46Y46*%
G04 Gerber Fmt 4.6, Leading zero omitted, Abs format (unit mm)*
G04 Created by KiCad (PCBNEW 9.0.3) date 2026-04-11 21:11:07*
%MOMM*%
%LPD*%
G01*
G04 APERTURE LIST*
G04 Aperture macros list*
%AMRoundRect*
0 Rectangle with rounded corners*
0 $1 Rounding radius*
0 $2 $3 $4 $5 $6 $7 $8 $9 X,Y pos of 4 corners*
0 Add a 4 corners polygon primitive as box body*
4,1,4,$2,$3,$4,$5,$6,$7,$8,$9,$2,$3,0*
0 Add four circle primitives for the rounded corners*
1,1,$1+$1,$2,$3*
1,1,$1+$1,$4,$5*
1,1,$1+$1,$6,$7*
1,1,$1+$1,$8,$9*
0 Add four rect primitives between the rounded corners*
20,1,$1+$1,$2,$3,$4,$5,0*
20,1,$1+$1,$4,$5,$6,$7,0*
20,1,$1+$1,$6,$7,$8,$9,0*
20,1,$1+$1,$8,$9,$2,$3,0*%
%AMRotRect*
0 Rectangle, with rotation*
0 The origin of the aperture is its center*
0 $1 length*
0 $2 width*
0 $3 Rotation angle, in degrees counterclockwise*
0 Add horizontal line*
21,1,$1,$2,0,0,$3*%
G04 Aperture macros list end*
%TA.AperFunction,SMDPad,CuDef*%
%ADD10RoundRect,0.250000X0.565685X0.070711X0.070711X0.565685X-0.565685X-0.070711X-0.070711X-0.565685X0*%
%TD*%
%TA.AperFunction,ComponentPad*%
%ADD11C,3.600000*%
%TD*%
%TA.AperFunction,ConnectorPad*%
%ADD12C,6.400000*%
%TD*%
%TA.AperFunction,SMDPad,CuDef*%
%ADD13RoundRect,0.250000X-0.565685X-0.070711X-0.070711X-0.565685X0.565685X0.070711X0.070711X0.565685X0*%
%TD*%
%TA.AperFunction,ComponentPad*%
%ADD14R,1.700000X1.700000*%
%TD*%
%TA.AperFunction,ComponentPad*%
%ADD15C,1.700000*%
%TD*%
%TA.AperFunction,SMDPad,CuDef*%
%ADD16RoundRect,0.250000X0.574524X0.097227X0.097227X0.574524X-0.574524X-0.097227X-0.097227X-0.574524X0*%
%TD*%
%TA.AperFunction,SMDPad,CuDef*%
%ADD17RoundRect,0.250000X-0.097227X0.574524X-0.574524X0.097227X0.097227X-0.574524X0.574524X-0.097227X0*%
%TD*%
%TA.AperFunction,SMDPad,CuDef*%
%ADD18RoundRect,0.250000X0.475000X-0.337500X0.475000X0.337500X-0.475000X0.337500X-0.475000X-0.337500X0*%
%TD*%
%TA.AperFunction,SMDPad,CuDef*%
%ADD19RoundRect,0.073750X-0.616951X0.304056X0.304056X-0.616951X0.616951X-0.304056X-0.304056X0.616951X0*%
%TD*%
%TA.AperFunction,ComponentPad*%
%ADD20RoundRect,0.250000X1.050000X1.050000X-1.050000X1.050000X-1.050000X-1.050000X1.050000X-1.050000X0*%
%TD*%
%TA.AperFunction,ComponentPad*%
%ADD21C,2.600000*%
%TD*%
%TA.AperFunction,SMDPad,CuDef*%
%ADD22RotRect,2.000000X5.700000X225.000000*%
%TD*%
%TA.AperFunction,ComponentPad*%
%ADD23RoundRect,0.250000X0.000000X0.777817X-0.777817X0.000000X0.000000X-0.777817X0.777817X0.000000X0*%
%TD*%
%TA.AperFunction,ComponentPad*%
%ADD24C,1.600000*%
%TD*%
%TA.AperFunction,ViaPad*%
%ADD25C,0.800000*%
%TD*%
%TA.AperFunction,Conductor*%
%ADD26C,0.762000*%
%TD*%
%TA.AperFunction,Conductor*%
%ADD27C,0.450000*%
%TD*%
%TA.AperFunction,Conductor*%
%ADD28C,0.254000*%
%TD*%
%TA.AperFunction,Conductor*%
%ADD29C,0.500000*%
%TD*%
%TA.AperFunction,Conductor*%
%ADD30C,1.000000*%
%TD*%
%TA.AperFunction,Conductor*%
%ADD31C,0.156000*%
%TD*%
%TA.AperFunction,Conductor*%
%ADD32C,0.300000*%
%TD*%
%TA.AperFunction,Conductor*%
%ADD33C,0.127000*%
%TD*%
G04 APERTURE END LIST*
D10*
%TO.P,R2,1*%
%TO.N,+5V*%
X165932107Y-68982107D03*
%TO.P,R2,2*%
%TO.N,Net-(U1-VFB)*%
X164517893Y-67567893D03*
%TD*%
D11*
%TO.P,H1,1*%
%TO.N,N/C*%
X185000000Y-50000000D03*
D12*
X185000000Y-50000000D03*
%TD*%
D13*
%TO.P,R1,1*%
%TO.N,Net-(U1-VFB)*%
X162492893Y-68842893D03*
%TO.P,R1,2*%
%TO.N,GND*%
X163907107Y-70257107D03*
%TD*%
D11*
%TO.P,H3,1*%
%TO.N,N/C*%
X185000000Y-81000000D03*
D12*
X185000000Y-81000000D03*
%TD*%
D14*
%TO.P,J1,1,Pin_1*%
%TO.N,+5V*%
X159310000Y-50600000D03*
D15*
%TO.P,J1,2,Pin_2*%
%TO.N,+3V3*%
X159310000Y-48060000D03*
%TO.P,J1,3,Pin_3*%
%TO.N,GND*%
X161850000Y-50600000D03*
%TO.P,J1,4,Pin_4*%
%TO.N,Net-(J1-Pin_12)*%
X161850000Y-48060000D03*
%TO.P,J1,5,Pin_5*%
%TO.N,Net-(J1-Pin_5)*%
X164389999Y-50600000D03*
%TO.P,J1,6,Pin_6*%
%TO.N,Net-(J1-Pin_13)*%
X164390000Y-48060000D03*
%TO.P,J1,7,Pin_7*%
%TO.N,Net-(J1-Pin_7)*%
X166930000Y-50600000D03*
%TO.P,J1,8,Pin_8*%
%TO.N,Net-(J1-Pin_8)*%
X166930000Y-48060000D03*
%TO.P,J1,9,Pin_9*%
%TO.N,Net-(J1-Pin_9)*%
X169470000Y-50600000D03*
%TO.P,J1,10,Pin_10*%
%TO.N,Net-(J1-Pin_10)*%
X169470000Y-48060000D03*
%TO.P,J1,11,Pin_11*%
X172010000Y-50600000D03*
%TO.P,J1,12,Pin_12*%
%TO.N,Net-(J1-Pin_12)*%
X172010000Y-48060000D03*
%TO.P,J1,13,Pin_13*%
%TO.N,Net-(J1-Pin_13)*%
X174550000Y-50600000D03*
%TO.P,J1,14,Pin_14*%
%TO.N,Net-(J1-Pin_14)*%
X174550000Y-48060000D03*
%TD*%
D16*
%TO.P,C4,1*%
%TO.N,Net-(U1-VBST)*%
X164133623Y-65308623D03*
%TO.P,C4,2*%
%TO.N,Net-(U1-SW)*%
X162666377Y-63841377D03*
%TD*%
D17*
%TO.P,C3,1*%
%TO.N,+5V*%
X156533623Y-53816377D03*
%TO.P,C3,2*%
%TO.N,GND*%
X155066377Y-55283623D03*
%TD*%
D18*
%TO.P,C2,1*%
%TO.N,+12V*%
X157075000Y-63162500D03*
%TO.P,C2,2*%
%TO.N,GND*%
X157075000Y-61087500D03*
%TD*%
D14*
%TO.P,J4,1,Pin_1*%
%TO.N,/Motors/PWM_01*%
X186715000Y-61355000D03*
D15*
%TO.P,J4,2,Pin_2*%
%TO.N,+5V*%
X184175000Y-61355000D03*
%TO.P,J4,3,Pin_3*%
%TO.N,GND*%
X186715000Y-58815000D03*
%TO.P,J4,4,Pin_4*%
X184175000Y-58815000D03*
%TO.P,J4,5,Pin_5*%
%TO.N,+5V*%
X186715000Y-56275001D03*
%TO.P,J4,6,Pin_6*%
%TO.N,/Motors/PWM_01*%
X184175000Y-56275000D03*
%TD*%
D19*
%TO.P,U1,1,GND*%
%TO.N,GND*%
X160166583Y-64166583D03*
%TO.P,U1,2,SW*%
%TO.N,Net-(U1-SW)*%
X159494832Y-64838335D03*
%TO.P,U1,3,VIN*%
%TO.N,+12V*%
X158823080Y-65510086D03*
%TO.P,U1,4,VFB*%
%TO.N,Net-(U1-VFB)*%
X160456497Y-67143503D03*
%TO.P,U1,5,EN*%
%TO.N,Net-(U1-EN)*%
X161128248Y-66471751D03*
%TO.P,U1,6,VBST*%
%TO.N,Net-(U1-VBST)*%
X161800000Y-65800000D03*
%TD*%
D17*
%TO.P,C1,1*%
%TO.N,+5V*%
X158858623Y-54516377D03*
%TO.P,C1,2*%
%TO.N,GND*%
X157391377Y-55983623D03*
%TD*%
D20*
%TO.P,J3,1,Pin_1*%
%TO.N,+12V*%
X146629999Y-51150000D03*
D21*
%TO.P,J3,2,Pin_2*%
%TO.N,GND*%
X141550000Y-51150000D03*
%TD*%
D17*
%TO.P,C5,1*%
%TO.N,+12V*%
X154708623Y-63191377D03*
%TO.P,C5,2*%
%TO.N,GND*%
X153241377Y-64658623D03*
%TD*%
D22*
%TO.P,L1,1*%
%TO.N,+5V*%
X162820280Y-56754720D03*
%TO.P,L1,2*%
%TO.N,Net-(U1-SW)*%
X159779720Y-59795280D03*
%TD*%
D23*
%TO.P,C6,1*%
%TO.N,+12V*%
X152028677Y-59316117D03*
D24*
%TO.P,C6,2*%
%TO.N,GND*%
X150260910Y-61083884D03*
%TD*%
D11*
%TO.P,H2,1*%
%TO.N,N/C*%
X134000000Y-50000000D03*
D12*
X134000000Y-50000000D03*
%TD*%
D13*
%TO.P,R3,1*%
%TO.N,+12V*%
X156092893Y-65467893D03*
%TO.P,R3,2*%
%TO.N,Net-(U1-EN)*%
X157507107Y-66882107D03*
%TD*%
D25*
%TO.N,+5V*%
X156825000Y-50875000D03*
X167150000Y-69850000D03*
X154875000Y-52625000D03*
X187525000Y-53925000D03*
X182075000Y-71500000D03*
X155775000Y-52900000D03*
X156650000Y-52700000D03*
X181950000Y-59800000D03*
X168550000Y-57925000D03*
%TO.N,GND*%
X154975000Y-58050000D03*
X186300000Y-67500000D03*
X153225000Y-56725000D03*
X173575000Y-54950000D03*
X183525000Y-64650000D03*
X175075000Y-56400000D03*
X180650000Y-61900000D03*
X152000000Y-63575000D03*
X151700000Y-62225000D03*
X184950000Y-66075000D03*
X176505236Y-57483371D03*
X171550000Y-60950000D03*
X184825000Y-71575000D03*
X186000000Y-70325000D03*
X180225000Y-69675000D03*
X178900000Y-68200000D03*
X181500000Y-63100000D03*
X165475000Y-71475000D03*
X182075000Y-58100000D03*
X176900000Y-58225000D03*
X161000000Y-52900000D03*
X179443941Y-60768941D03*
X172850000Y-62400000D03*
X167900000Y-56300000D03*
X170925000Y-53350000D03*
X183675000Y-69100000D03*
X156075000Y-59350000D03*
X159375000Y-63225000D03*
%TO.N,Net-(J1-Pin_7)*%
X174261918Y-59513082D03*
X176924418Y-62175582D03*
%TO.N,Net-(J1-Pin_13)*%
X177842882Y-58821017D03*
%TO.N,Net-(J1-Pin_10)*%
X178739207Y-57650000D03*
%TO.N,Net-(J1-Pin_8)*%
X177775000Y-63150000D03*
%TO.N,Net-(J1-Pin_14)*%
X180700000Y-60725000D03*
%TO.N,+3V3*%
X175523358Y-57293853D03*
X169625000Y-61175000D03*
X172150000Y-53300000D03*
%TO.N,Net-(J1-Pin_9)*%
X169625000Y-52950000D03*
X179825000Y-58425000D03*
%TO.N,/Motors/PWM_01*%
X170475000Y-59825000D03*
%TD*%
D26*
%TO.N,+5V*%
X156533623Y-53816377D02*
X156533623Y-52816377D01*
D27*
X166282107Y-68982107D02*
X167150000Y-69850000D01*
D26*
X162820280Y-56754720D02*
X161096966Y-56754720D01*
X156533623Y-53816377D02*
X156066377Y-53816377D01*
X156066377Y-53816377D02*
X154875000Y-52625000D01*
X156533623Y-52816377D02*
X156650000Y-52700000D01*
X157100000Y-50600000D02*
X156825000Y-50875000D01*
X156533623Y-53816377D02*
X158158623Y-53816377D01*
X161096966Y-56754720D02*
X158858623Y-54516377D01*
X159310000Y-50600000D02*
X157100000Y-50600000D01*
X158158623Y-53816377D02*
X158858623Y-54516377D01*
D27*
X165932107Y-68982107D02*
X166282107Y-68982107D01*
D28*
%TO.N,GND*%
X155066377Y-55283623D02*
X154666377Y-55283623D01*
D27*
X163907107Y-70257107D02*
X164257107Y-70257107D01*
X156825000Y-60987500D02*
X156825000Y-60100000D01*
D29*
X160166583Y-64016583D02*
X160166583Y-64166583D01*
D27*
X164257107Y-70257107D02*
X165475000Y-71475000D01*
D30*
X142975000Y-52575000D02*
X141550000Y-51150000D01*
X150260910Y-61083884D02*
X142975000Y-53797974D01*
X150558884Y-61083884D02*
X150260910Y-61083884D01*
D26*
X161850000Y-50600000D02*
X161850000Y-52050000D01*
D30*
X151700000Y-62225000D02*
X150558884Y-61083884D01*
D27*
X153241377Y-64658623D02*
X153083623Y-64658623D01*
D29*
X159375000Y-63225000D02*
X160166583Y-64016583D01*
D27*
X153083623Y-64658623D02*
X152000000Y-63575000D01*
D26*
X161850000Y-52050000D02*
X161000000Y-52900000D01*
D30*
X142975000Y-53797974D02*
X142975000Y-52575000D01*
D28*
X157391377Y-55983623D02*
X155325000Y-58050000D01*
D27*
X156825000Y-60100000D02*
X156075000Y-59350000D01*
D28*
X155325000Y-58050000D02*
X154975000Y-58050000D01*
X154666377Y-55283623D02*
X153225000Y-56725000D01*
D30*
%TO.N,+12V*%
X146629999Y-51150000D02*
X146629999Y-53917439D01*
X146629999Y-53917439D02*
X152028677Y-59316117D01*
D29*
X158735086Y-65510086D02*
X158823080Y-65510086D01*
D27*
X154708623Y-63191377D02*
X156696123Y-63191377D01*
X156092893Y-63794607D02*
X156825000Y-63062500D01*
X156825000Y-63062500D02*
X156787500Y-63062500D01*
D29*
X156825000Y-63512006D02*
X156825000Y-63062500D01*
D27*
X153041117Y-59316117D02*
X152028677Y-59316117D01*
X156092893Y-65467893D02*
X156092893Y-63794607D01*
D29*
X158823080Y-65510086D02*
X156825000Y-63512006D01*
D27*
X156696123Y-63191377D02*
X156825000Y-63062500D01*
X156787500Y-63062500D02*
X153041117Y-59316117D01*
D29*
%TO.N,Net-(U1-SW)*%
X158975000Y-61825000D02*
X158975000Y-60600000D01*
X161316377Y-63841377D02*
X162666377Y-63841377D01*
X158975000Y-61825000D02*
X159300000Y-61825000D01*
X158500000Y-63843503D02*
X158500000Y-62300000D01*
X158500000Y-62300000D02*
X158975000Y-61825000D01*
X159494832Y-64838335D02*
X158500000Y-63843503D01*
X159300000Y-61825000D02*
X161316377Y-63841377D01*
X158975000Y-60600000D02*
X159779720Y-59795280D01*
%TO.N,Net-(U1-VBST)*%
X164133623Y-65308623D02*
X162291377Y-65308623D01*
X162291377Y-65308623D02*
X161800000Y-65800000D01*
D31*
%TO.N,Net-(J1-Pin_7)*%
X176924418Y-62175582D02*
X174261918Y-59513082D01*
D32*
%TO.N,Net-(J1-Pin_13)*%
X164390000Y-48060000D02*
X165729000Y-49399000D01*
X177842882Y-58821017D02*
X177989207Y-58674692D01*
X173349000Y-49399000D02*
X174550000Y-50600000D01*
X177989207Y-58674692D02*
X177989207Y-54039207D01*
X177989207Y-54039207D02*
X174550000Y-50600000D01*
X165729000Y-49399000D02*
X173349000Y-49399000D01*
%TO.N,Net-(J1-Pin_14)*%
X174550000Y-48060000D02*
X180700000Y-54210000D01*
X180700000Y-54210000D02*
X180700000Y-60725000D01*
D33*
%TO.N,+3V3*%
X168960500Y-52674755D02*
X168960500Y-57395755D01*
X171135500Y-52285500D02*
X169349755Y-52285500D01*
X169349755Y-52285500D02*
X168960500Y-52674755D01*
X169625000Y-58060255D02*
X169625000Y-61175000D01*
X168960500Y-57395755D02*
X169625000Y-58060255D01*
X172150000Y-53300000D02*
X171135500Y-52285500D01*
D31*
%TO.N,Net-(J1-Pin_9)*%
X179150000Y-58425000D02*
X179825000Y-58425000D01*
X169625000Y-52950000D02*
X169625000Y-53010252D01*
X177488734Y-60086266D02*
X177489601Y-60087134D01*
X178052105Y-60087134D02*
X178449853Y-59689386D01*
X178449853Y-59689386D02*
X178449853Y-59126882D01*
X177487866Y-60087134D02*
X177488734Y-60086266D01*
X176701882Y-60087134D02*
X177487866Y-60087134D01*
X177489601Y-60087134D02*
X178052105Y-60087134D01*
X178448986Y-59126014D02*
X179150000Y-58425000D01*
X178449853Y-59126882D02*
X178448986Y-59126014D01*
X169625000Y-53010252D02*
X176701882Y-60087134D01*
D27*
%TO.N,/Motors/PWM_01*%
X183646463Y-62631000D02*
X182899000Y-61883537D01*
X182901000Y-57549000D02*
X184175000Y-56275000D01*
X170475000Y-61541141D02*
X170475000Y-59825000D01*
X182901000Y-58442141D02*
X182901000Y-57549000D01*
X182899000Y-62869141D02*
X181792141Y-63976000D01*
X185439000Y-62631000D02*
X183646463Y-62631000D01*
X182899000Y-61883537D02*
X182899000Y-58444141D01*
X172909859Y-63976000D02*
X170475000Y-61541141D01*
X182899000Y-61883537D02*
X182899000Y-62869141D01*
X182899000Y-58444141D02*
X182901000Y-58442141D01*
X186715000Y-61355000D02*
X185439000Y-62631000D01*
X181792141Y-63976000D02*
X172909859Y-63976000D01*
%TO.N,Net-(U1-VFB)*%
X160456497Y-67143503D02*
X162155887Y-68842893D01*
X162155887Y-68842893D02*
X162492893Y-68842893D01*
X162492893Y-68842893D02*
X163242893Y-68842893D01*
X163242893Y-68842893D02*
X164517893Y-67567893D01*
%TO.N,Net-(U1-EN)*%
X157507107Y-66882107D02*
X159090133Y-66882107D01*
X159090133Y-66882107D02*
X159946883Y-66025357D01*
X160681854Y-66025357D02*
X161128248Y-66471751D01*
X159946883Y-66025357D02*
X160681854Y-66025357D01*
%TD*%
%TA.AperFunction,Conductor*%
%TO.N,GND*%
G36*
X169729703Y-53933523D02*
G01*
X169736181Y-53939555D01*
X174206015Y-58409390D01*
X174239500Y-58470713D01*
X174234516Y-58540405D01*
X174192644Y-58596338D01*
X174142526Y-58618688D01*
X173999258Y-58647186D01*
X173999250Y-58647188D01*
X173835377Y-58715065D01*
X173835364Y-58715072D01*
X173687883Y-58813617D01*
X173687879Y-58813620D01*
X173562456Y-58939043D01*
X173562453Y-58939047D01*
X173463908Y-59086528D01*
X173463901Y-59086541D01*
X173396024Y-59250414D01*
X173396021Y-59250423D01*
X173361418Y-59424386D01*
X173361418Y-59601777D01*
X173396021Y-59775740D01*
X173396024Y-59775749D01*
X173463901Y-59939622D01*
X173463908Y-59939635D01*
X173562453Y-60087116D01*
X173562456Y-60087120D01*
X173687879Y-60212543D01*
X173687883Y-60212546D01*
X173835364Y-60311091D01*
X173835377Y-60311098D01*
X173882569Y-60330645D01*
X173999252Y-60378976D01*
X173999254Y-60378976D01*
X173999259Y-60378978D01*
X174173222Y-60413581D01*
X174173225Y-60413582D01*
X174173227Y-60413582D01*
X174292934Y-60413582D01*
X174359973Y-60433267D01*
X174380615Y-60449901D01*
X175987599Y-62056885D01*
X176021084Y-62118208D01*
X176023918Y-62144566D01*
X176023918Y-62264277D01*
X176058521Y-62438240D01*
X176058524Y-62438249D01*
X176126401Y-62602122D01*
X176126408Y-62602135D01*
X176224953Y-62749616D01*
X176224956Y-62749620D01*
X176350379Y-62875043D01*
X176350383Y-62875046D01*
X176497864Y-62973591D01*
X176497877Y-62973598D01*
X176590442Y-63011939D01*
X176644846Y-63055779D01*
X176666911Y-63122073D01*
X176649632Y-63189773D01*
X176598495Y-63237384D01*
X176542990Y-63250500D01*
X173261733Y-63250500D01*
X173194694Y-63230815D01*
X173174052Y-63214181D01*
X171236819Y-61276948D01*
X171203334Y-61215625D01*
X171200500Y-61189267D01*
X171200500Y-60397684D01*
X171220185Y-60330645D01*
X171221398Y-60328793D01*
X171224006Y-60324890D01*
X171273013Y-60251547D01*
X171340894Y-60087666D01*
X171341004Y-60087117D01*
X171370339Y-59939635D01*
X171375500Y-59913691D01*
X171375500Y-59736309D01*
X171375500Y-59736306D01*
X171375499Y-59736304D01*
X171340896Y-59562341D01*
X171340893Y-59562332D01*
X171273016Y-59398459D01*
X171273009Y-59398446D01*
X171174464Y-59250965D01*
X171174461Y-59250961D01*
X171049038Y-59125538D01*
X171049034Y-59125535D01*
X170901553Y-59026990D01*
X170901540Y-59026983D01*
X170737667Y-58959106D01*
X170737658Y-58959103D01*
X170563694Y-58924500D01*
X170563691Y-58924500D01*
X170386309Y-58924500D01*
X170337190Y-58934270D01*
X170267599Y-58928041D01*
X170212422Y-58885178D01*
X170189178Y-58819288D01*
X170189000Y-58812652D01*
X170189000Y-57986003D01*
X170186978Y-57978458D01*
X170150565Y-57842559D01*
X170126693Y-57801212D01*
X170076313Y-57713951D01*
X169971304Y-57608942D01*
X169971303Y-57608941D01*
X169966973Y-57604611D01*
X169966962Y-57604601D01*
X169560819Y-57198458D01*
X169527334Y-57137135D01*
X169524500Y-57110777D01*
X169524500Y-54027236D01*
X169544185Y-53960197D01*
X169596989Y-53914442D01*
X169666147Y-53904498D01*
X169729703Y-53933523D01*
G37*
%TD.AperFunction*%
%TA.AperFunction,Conductor*%
G36*
X179320626Y-59175008D02*
G01*
X179346181Y-59188086D01*
X179398453Y-59223013D01*
X179398455Y-59223014D01*
X179398459Y-59223016D01*
X179521363Y-59273923D01*
X179562334Y-59290894D01*
X179562336Y-59290894D01*
X179562341Y-59290896D01*
X179736304Y-59325499D01*
X179736307Y-59325500D01*
X179919783Y-59325500D01*
X179919783Y-59326754D01*
X179981993Y-59338554D01*
X180032703Y-59386619D01*
X180049500Y-59448937D01*
X180049500Y-60050638D01*
X180029815Y-60117677D01*
X180013181Y-60138319D01*
X180000538Y-60150961D01*
X180000535Y-60150965D01*
X179901990Y-60298446D01*
X179901983Y-60298459D01*
X179834106Y-60462332D01*
X179834103Y-60462341D01*
X179799500Y-60636304D01*
X179799500Y-60813695D01*
X179834103Y-60987658D01*
X179834106Y-60987667D01*
X179901983Y-61151540D01*
X179901990Y-61151553D01*
X180000535Y-61299034D01*
X180000538Y-61299038D01*
X180125961Y-61424461D01*
X180125965Y-61424464D01*
X180273446Y-61523009D01*
X180273459Y-61523016D01*
X180396363Y-61573923D01*
X180437334Y-61590894D01*
X180437336Y-61590894D01*
X180437341Y-61590896D01*
X180611304Y-61625499D01*
X180611307Y-61625500D01*
X180611309Y-61625500D01*
X180788693Y-61625500D01*
X180788694Y-61625499D01*
X180846682Y-61613964D01*
X180962658Y-61590896D01*
X180962661Y-61590894D01*
X180962666Y-61590894D01*
X181126547Y-61523013D01*
X181274035Y-61424464D01*
X181399464Y-61299035D01*
X181498013Y-61151547D01*
X181565894Y-60987666D01*
X181568038Y-60976890D01*
X181600499Y-60813695D01*
X181600500Y-60813693D01*
X181600500Y-60799716D01*
X181620185Y-60732677D01*
X181672989Y-60686922D01*
X181742147Y-60676978D01*
X181748692Y-60678099D01*
X181861306Y-60700500D01*
X182044783Y-60700500D01*
X182044783Y-60702044D01*
X182105982Y-60713646D01*
X182156697Y-60761706D01*
X182173500Y-60824035D01*
X182173500Y-62517267D01*
X182153815Y-62584306D01*
X182137181Y-62604948D01*
X181527948Y-63214181D01*
X181466625Y-63247666D01*
X181440267Y-63250500D01*
X178799500Y-63250500D01*
X178732461Y-63230815D01*
X178686706Y-63178011D01*
X178675500Y-63126500D01*
X178675500Y-63061306D01*
X178675499Y-63061304D01*
X178640896Y-62887341D01*
X178640893Y-62887332D01*
X178573016Y-62723459D01*
X178573009Y-62723446D01*
X178474464Y-62575965D01*
X178474461Y-62575961D01*
X178349038Y-62450538D01*
X178349034Y-62450535D01*
X178201553Y-62351990D01*
X178201540Y-62351983D01*
X178037667Y-62284106D01*
X178037659Y-62284104D01*
X177924726Y-62261640D01*
X177862815Y-62229255D01*
X177828241Y-62168539D01*
X177824918Y-62140023D01*
X177824918Y-62086888D01*
X177824917Y-62086886D01*
X177790314Y-61912923D01*
X177790311Y-61912914D01*
X177787409Y-61905909D01*
X177757097Y-61832726D01*
X177722434Y-61749041D01*
X177722427Y-61749028D01*
X177623882Y-61601547D01*
X177623879Y-61601543D01*
X177498456Y-61476120D01*
X177498452Y-61476117D01*
X177350971Y-61377572D01*
X177350958Y-61377565D01*
X177187085Y-61309688D01*
X177187076Y-61309685D01*
X177013112Y-61275082D01*
X177013109Y-61275082D01*
X176893403Y-61275082D01*
X176826364Y-61255397D01*
X176805722Y-61238763D01*
X176415928Y-60848969D01*
X176382443Y-60787646D01*
X176387427Y-60717954D01*
X176429299Y-60662021D01*
X176494763Y-60637604D01*
X176535696Y-60641512D01*
X176625721Y-60665634D01*
X176778043Y-60665634D01*
X177411705Y-60665634D01*
X177413440Y-60665634D01*
X177489268Y-60665634D01*
X177565429Y-60665678D01*
X177565594Y-60665634D01*
X177975944Y-60665634D01*
X178128266Y-60665634D01*
X178275398Y-60626210D01*
X178407312Y-60550049D01*
X178515020Y-60442341D01*
X178573570Y-60383791D01*
X178573578Y-60383781D01*
X178912769Y-60044593D01*
X178988930Y-59912678D01*
X179028353Y-59765547D01*
X179028353Y-59613225D01*
X179028353Y-59416131D01*
X179036998Y-59386687D01*
X179043521Y-59356705D01*
X179047275Y-59351689D01*
X179048038Y-59349092D01*
X179064666Y-59328455D01*
X179189615Y-59203506D01*
X179250934Y-59170024D01*
X179320626Y-59175008D01*
G37*
%TD.AperFunction*%
%TA.AperFunction,Conductor*%
G36*
X186249075Y-59007993D02*
G01*
X186314901Y-59122007D01*
X186407993Y-59215099D01*
X186522007Y-59280925D01*
X186585590Y-59297962D01*
X185915370Y-59968181D01*
X185854047Y-60001666D01*
X185827698Y-60004500D01*
X185817134Y-60004500D01*
X185817123Y-60004501D01*
X185757516Y-60010908D01*
X185622671Y-60061202D01*
X185622664Y-60061206D01*
X185507455Y-60147452D01*
X185507452Y-60147455D01*
X185421206Y-60262664D01*
X185421203Y-60262669D01*
X185372189Y-60394083D01*
X185330317Y-60450016D01*
X185264853Y-60474433D01*
X185196580Y-60459581D01*
X185168326Y-60438430D01*
X185054786Y-60324890D01*
X184882817Y-60199949D01*
X184873504Y-60195204D01*
X184822707Y-60147230D01*
X184805912Y-60079409D01*
X184828449Y-60013274D01*
X184873507Y-59974232D01*
X184882555Y-59969622D01*
X184936716Y-59930270D01*
X184936717Y-59930270D01*
X184304409Y-59297962D01*
X184367993Y-59280925D01*
X184482007Y-59215099D01*
X184575099Y-59122007D01*
X184640925Y-59007993D01*
X184657962Y-58944408D01*
X185290270Y-59576717D01*
X185290270Y-59576716D01*
X185329622Y-59522554D01*
X185334514Y-59512954D01*
X185382488Y-59462157D01*
X185450308Y-59445361D01*
X185516444Y-59467897D01*
X185555486Y-59512954D01*
X185560375Y-59522550D01*
X185599728Y-59576716D01*
X186232037Y-58944408D01*
X186249075Y-59007993D01*
G37*
%TD.AperFunction*%
%TA.AperFunction,Conductor*%
G36*
X173351444Y-51253999D02*
G01*
X173390484Y-51299054D01*
X173391755Y-51301547D01*
X173394951Y-51307820D01*
X173519890Y-51479786D01*
X173670213Y-51630109D01*
X173842179Y-51755048D01*
X173842181Y-51755049D01*
X173842184Y-51755051D01*
X174031588Y-51851557D01*
X174233757Y-51917246D01*
X174443713Y-51950500D01*
X174443714Y-51950500D01*
X174656286Y-51950500D01*
X174656287Y-51950500D01*
X174813890Y-51925538D01*
X174871055Y-51916484D01*
X174871315Y-51918128D01*
X174933852Y-51921250D01*
X174980711Y-51950657D01*
X177302388Y-54272333D01*
X177335873Y-54333656D01*
X177338707Y-54360014D01*
X177338707Y-58008594D01*
X177319022Y-58075633D01*
X177283600Y-58111695D01*
X177268845Y-58121554D01*
X177268841Y-58121557D01*
X177143420Y-58246978D01*
X177143417Y-58246982D01*
X177044872Y-58394463D01*
X177044865Y-58394476D01*
X176976988Y-58558349D01*
X176976985Y-58558358D01*
X176942382Y-58732321D01*
X176942382Y-58909712D01*
X176976985Y-59083675D01*
X176976988Y-59083684D01*
X177044865Y-59247557D01*
X177044872Y-59247570D01*
X177079259Y-59299033D01*
X177100137Y-59365710D01*
X177081653Y-59433091D01*
X177029674Y-59479781D01*
X176960704Y-59490957D01*
X176896640Y-59463072D01*
X176888476Y-59455605D01*
X175780489Y-58347618D01*
X175747004Y-58286295D01*
X175751988Y-58216603D01*
X175793860Y-58160670D01*
X175820708Y-58145380D01*
X175949905Y-58091866D01*
X176097393Y-57993317D01*
X176222822Y-57867888D01*
X176321371Y-57720400D01*
X176389252Y-57556519D01*
X176390432Y-57550591D01*
X176416592Y-57419071D01*
X176423858Y-57382544D01*
X176423858Y-57205162D01*
X176423858Y-57205159D01*
X176423857Y-57205157D01*
X176389254Y-57031194D01*
X176389251Y-57031185D01*
X176321374Y-56867312D01*
X176321367Y-56867299D01*
X176222822Y-56719818D01*
X176222819Y-56719814D01*
X176097396Y-56594391D01*
X176097392Y-56594388D01*
X175949911Y-56495843D01*
X175949898Y-56495836D01*
X175786025Y-56427959D01*
X175786016Y-56427956D01*
X175612052Y-56393353D01*
X175612049Y-56393353D01*
X175434667Y-56393353D01*
X175434664Y-56393353D01*
X175260699Y-56427956D01*
X175260690Y-56427959D01*
X175096817Y-56495836D01*
X175096804Y-56495843D01*
X174949323Y-56594388D01*
X174949319Y-56594391D01*
X174823896Y-56719814D01*
X174823893Y-56719818D01*
X174725348Y-56867299D01*
X174725341Y-56867312D01*
X174671834Y-56996493D01*
X174627993Y-57050897D01*
X174561699Y-57072962D01*
X174494000Y-57055683D01*
X174469592Y-57036722D01*
X171816157Y-54383287D01*
X171782672Y-54321964D01*
X171787656Y-54252272D01*
X171829528Y-54196339D01*
X171894992Y-54171922D01*
X171928030Y-54173989D01*
X172061306Y-54200500D01*
X172061309Y-54200500D01*
X172238693Y-54200500D01*
X172238694Y-54200499D01*
X172296682Y-54188964D01*
X172412658Y-54165896D01*
X172412661Y-54165894D01*
X172412666Y-54165894D01*
X172576547Y-54098013D01*
X172724035Y-53999464D01*
X172849464Y-53874035D01*
X172948013Y-53726547D01*
X173015894Y-53562666D01*
X173020535Y-53539337D01*
X173050499Y-53388695D01*
X173050500Y-53388693D01*
X173050500Y-53211306D01*
X173050499Y-53211304D01*
X173015896Y-53037341D01*
X173015893Y-53037332D01*
X172948016Y-52873459D01*
X172948009Y-52873446D01*
X172849464Y-52725965D01*
X172849461Y-52725961D01*
X172724038Y-52600538D01*
X172724034Y-52600535D01*
X172576553Y-52501990D01*
X172576540Y-52501983D01*
X172412667Y-52434106D01*
X172412658Y-52434103D01*
X172238694Y-52399500D01*
X172238691Y-52399500D01*
X172098479Y-52399500D01*
X172031440Y-52379815D01*
X172010798Y-52363181D01*
X171809681Y-52162064D01*
X171776196Y-52100741D01*
X171781180Y-52031049D01*
X171823052Y-51975116D01*
X171888516Y-51950699D01*
X171898841Y-51950737D01*
X171898841Y-51950500D01*
X172116286Y-51950500D01*
X172116287Y-51950500D01*
X172326243Y-51917246D01*
X172528412Y-51851557D01*
X172717816Y-51755051D01*
X172759866Y-51724500D01*
X172889786Y-51630109D01*
X172889788Y-51630106D01*
X172889792Y-51630104D01*
X173040104Y-51479792D01*
X173040106Y-51479788D01*
X173040109Y-51479786D01*
X173165048Y-51307820D01*
X173165050Y-51307817D01*
X173165051Y-51307816D01*
X173169514Y-51299054D01*
X173217488Y-51248259D01*
X173285308Y-51231463D01*
X173351444Y-51253999D01*
G37*
%TD.AperFunction*%
%TA.AperFunction,Conductor*%
G36*
X185516440Y-56928998D02*
G01*
X185555481Y-56974051D01*
X185559946Y-56982813D01*
X185559948Y-56982816D01*
X185684890Y-57154787D01*
X185835213Y-57305110D01*
X186007179Y-57430049D01*
X186007181Y-57430050D01*
X186007184Y-57430052D01*
X186016487Y-57434792D01*
X186016495Y-57434796D01*
X186067291Y-57482770D01*
X186084086Y-57550591D01*
X186061549Y-57616726D01*
X186016501Y-57655763D01*
X186007440Y-57660380D01*
X185953282Y-57699727D01*
X185953282Y-57699728D01*
X186585591Y-58332037D01*
X186522007Y-58349075D01*
X186407993Y-58414901D01*
X186314901Y-58507993D01*
X186249075Y-58622007D01*
X186232037Y-58685590D01*
X185599728Y-58053282D01*
X185599727Y-58053282D01*
X185560380Y-58107440D01*
X185555483Y-58117051D01*
X185507506Y-58167845D01*
X185439684Y-58184638D01*
X185373550Y-58162098D01*
X185334516Y-58117048D01*
X185329626Y-58107452D01*
X185290270Y-58053282D01*
X185290269Y-58053282D01*
X184657962Y-58685590D01*
X184640925Y-58622007D01*
X184575099Y-58507993D01*
X184482007Y-58414901D01*
X184367993Y-58349075D01*
X184304407Y-58332036D01*
X184936716Y-57699728D01*
X184882547Y-57660373D01*
X184882547Y-57660372D01*
X184873500Y-57655763D01*
X184822706Y-57607788D01*
X184805912Y-57539966D01*
X184828451Y-57473832D01*
X184873508Y-57434793D01*
X184882816Y-57430051D01*
X184962007Y-57372515D01*
X185054786Y-57305109D01*
X185054788Y-57305106D01*
X185054792Y-57305104D01*
X185205104Y-57154792D01*
X185205108Y-57154787D01*
X185205109Y-57154786D01*
X185330048Y-56982820D01*
X185330050Y-56982817D01*
X185330051Y-56982816D01*
X185334512Y-56974058D01*
X185382483Y-56923262D01*
X185450303Y-56906464D01*
X185516440Y-56928998D01*
G37*
%TD.AperFunction*%
%TA.AperFunction,Conductor*%
G36*
X170917561Y-52869185D02*
G01*
X170938202Y-52885818D01*
X171213182Y-53160798D01*
X171246666Y-53222120D01*
X171249500Y-53248478D01*
X171249500Y-53388695D01*
X171276010Y-53521970D01*
X171269783Y-53591561D01*
X171226920Y-53646739D01*
X171161030Y-53669983D01*
X171093033Y-53653915D01*
X171066712Y-53633842D01*
X170561819Y-53128949D01*
X170547115Y-53102021D01*
X170530523Y-53076203D01*
X170529631Y-53070002D01*
X170528334Y-53067626D01*
X170525500Y-53041268D01*
X170525500Y-52973500D01*
X170545185Y-52906461D01*
X170597989Y-52860706D01*
X170649500Y-52849500D01*
X170850522Y-52849500D01*
X170917561Y-52869185D01*
G37*
%TD.AperFunction*%
%TA.AperFunction,Conductor*%
G36*
X160651444Y-48713999D02*
G01*
X160690486Y-48759056D01*
X160694951Y-48767820D01*
X160819890Y-48939786D01*
X160970213Y-49090109D01*
X161142179Y-49215048D01*
X161142181Y-49215049D01*
X161142184Y-49215051D01*
X161151493Y-49219794D01*
X161202290Y-49267766D01*
X161219087Y-49335587D01*
X161196552Y-49401722D01*
X161151505Y-49440760D01*
X161142446Y-49445376D01*
X161142440Y-49445380D01*
X161088282Y-49484727D01*
X161088282Y-49484728D01*
X161720591Y-50117037D01*
X161657007Y-50134075D01*
X161542993Y-50199901D01*
X161449901Y-50292993D01*
X161384075Y-50407007D01*
X161367037Y-50470591D01*
X160696818Y-49800372D01*
X160663333Y-49739049D01*
X160660499Y-49712691D01*
X160660499Y-49702129D01*
X160660498Y-49702123D01*
X160658469Y-49683250D01*
X160654091Y-49642517D01*
X160626551Y-49568679D01*
X160603797Y-49507671D01*
X160603793Y-49507664D01*
X160517547Y-49392455D01*
X160517544Y-49392452D01*
X160402335Y-49306206D01*
X160402328Y-49306202D01*
X160270917Y-49257189D01*
X160214983Y-49215318D01*
X160190566Y-49149853D01*
X160205418Y-49081580D01*
X160226563Y-49053332D01*
X160340104Y-48939792D01*
X160465051Y-48767816D01*
X160469514Y-48759054D01*
X160517488Y-48708259D01*
X160585308Y-48691463D01*
X160651444Y-48713999D01*
G37*
%TD.AperFunction*%
%TA.AperFunction,Conductor*%
G36*
X163191444Y-48713999D02*
G01*
X163230486Y-48759056D01*
X163234951Y-48767820D01*
X163359890Y-48939786D01*
X163510213Y-49090109D01*
X163682179Y-49215048D01*
X163682181Y-49215049D01*
X163682184Y-49215051D01*
X163690942Y-49219513D01*
X163741739Y-49267487D01*
X163758535Y-49335307D01*
X163735999Y-49401443D01*
X163690952Y-49440480D01*
X163682180Y-49444950D01*
X163510212Y-49569890D01*
X163359889Y-49720213D01*
X163234949Y-49892181D01*
X163230200Y-49901501D01*
X163182222Y-49952294D01*
X163114401Y-49969086D01*
X163048267Y-49946545D01*
X163009231Y-49901491D01*
X163004624Y-49892449D01*
X162965270Y-49838282D01*
X162965269Y-49838282D01*
X162332962Y-50470590D01*
X162315925Y-50407007D01*
X162250099Y-50292993D01*
X162157007Y-50199901D01*
X162042993Y-50134075D01*
X161979409Y-50117037D01*
X162611716Y-49484728D01*
X162557547Y-49445373D01*
X162557547Y-49445372D01*
X162548500Y-49440763D01*
X162497706Y-49392788D01*
X162480912Y-49324966D01*
X162503451Y-49258832D01*
X162548508Y-49219793D01*
X162557816Y-49215051D01*
X162647554Y-49149853D01*
X162729786Y-49090109D01*
X162729788Y-49090106D01*
X162729792Y-49090104D01*
X162880104Y-48939792D01*
X162880106Y-48939788D01*
X162880109Y-48939786D01*
X163005048Y-48767820D01*
X163005047Y-48767820D01*
X163005051Y-48767816D01*
X163009514Y-48759054D01*
X163057488Y-48708259D01*
X163125308Y-48691463D01*
X163191444Y-48713999D01*
G37*
%TD.AperFunction*%
%TA.AperFunction,Conductor*%
G36*
X185002910Y-45932615D02*
G01*
X185363311Y-45949277D01*
X185374701Y-45950333D01*
X185729240Y-45999789D01*
X185740484Y-46001891D01*
X186088946Y-46083848D01*
X186099936Y-46086975D01*
X186439362Y-46200739D01*
X186450029Y-46204872D01*
X186777495Y-46349462D01*
X186787748Y-46354567D01*
X187100457Y-46528745D01*
X187110195Y-46534774D01*
X187365264Y-46709500D01*
X187405512Y-46737070D01*
X187414649Y-46743970D01*
X187568206Y-46871481D01*
X187690048Y-46972656D01*
X187698512Y-46980373D01*
X187951620Y-47233481D01*
X187959336Y-47241945D01*
X188091062Y-47400576D01*
X188188018Y-47517334D01*
X188194908Y-47526457D01*
X188397220Y-47821794D01*
X188403241Y-47831519D01*
X188577427Y-48144241D01*
X188582532Y-48154493D01*
X188727119Y-48481949D01*
X188731257Y-48492629D01*
X188845015Y-48832033D01*
X188848149Y-48843050D01*
X188930103Y-49191490D01*
X188932208Y-49202748D01*
X188981663Y-49557275D01*
X188982720Y-49568679D01*
X188993650Y-49805061D01*
X188998747Y-49915297D01*
X188999368Y-49928715D01*
X188999500Y-49934412D01*
X188999500Y-49997875D01*
X188999515Y-49997934D01*
X188999518Y-50006128D01*
X188999516Y-50006133D01*
X188999518Y-50006159D01*
X188999518Y-80925936D01*
X188999500Y-80926215D01*
X188999500Y-80997128D01*
X188999368Y-81002855D01*
X188982703Y-81363303D01*
X188981646Y-81374707D01*
X188932192Y-81729231D01*
X188930087Y-81740490D01*
X188848135Y-82088931D01*
X188845001Y-82099947D01*
X188731243Y-82439355D01*
X188727105Y-82450035D01*
X188582523Y-82777482D01*
X188577418Y-82787735D01*
X188403234Y-83100452D01*
X188397205Y-83110190D01*
X188194906Y-83405512D01*
X188188003Y-83414652D01*
X187959328Y-83690035D01*
X187951612Y-83698499D01*
X187698499Y-83951612D01*
X187690035Y-83959328D01*
X187414652Y-84188003D01*
X187405512Y-84194906D01*
X187110190Y-84397205D01*
X187100452Y-84403234D01*
X186787735Y-84577418D01*
X186777482Y-84582523D01*
X186450035Y-84727105D01*
X186439355Y-84731243D01*
X186099947Y-84845001D01*
X186088931Y-84848135D01*
X185740490Y-84930087D01*
X185729231Y-84932192D01*
X185374707Y-84981646D01*
X185363303Y-84982703D01*
X185005483Y-84999246D01*
X184994498Y-84999266D01*
X184666361Y-84985339D01*
X184655882Y-84984448D01*
X184329859Y-84942734D01*
X184319493Y-84940958D01*
X183998191Y-84871771D01*
X183988014Y-84869124D01*
X183673703Y-84772953D01*
X183663786Y-84769452D01*
X183358773Y-84647001D01*
X183349205Y-84642680D01*
X183055637Y-84494809D01*
X183046473Y-84489695D01*
X182809806Y-84344123D01*
X182808977Y-84343609D01*
X182800217Y-84338125D01*
X182798344Y-84336165D01*
X182754022Y-84309207D01*
X182753312Y-84308763D01*
X182753242Y-84308685D01*
X182749722Y-84306428D01*
X182707416Y-84277865D01*
X182702145Y-84275234D01*
X182684642Y-84267009D01*
X177183439Y-80921105D01*
X177014261Y-80818209D01*
X181299500Y-80818209D01*
X181299500Y-81181790D01*
X181335137Y-81543630D01*
X181406064Y-81900212D01*
X181406067Y-81900223D01*
X181511614Y-82248165D01*
X181650754Y-82584078D01*
X181650756Y-82584083D01*
X181822140Y-82904720D01*
X181822151Y-82904738D01*
X182024140Y-83207035D01*
X182024150Y-83207049D01*
X182254807Y-83488106D01*
X182511893Y-83745192D01*
X182511898Y-83745196D01*
X182511899Y-83745197D01*
X182792956Y-83975854D01*
X183095268Y-84177853D01*
X183095277Y-84177858D01*
X183095279Y-84177859D01*
X183415916Y-84349243D01*
X183415918Y-84349243D01*
X183415924Y-84349247D01*
X183751836Y-84488386D01*
X184099767Y-84593930D01*
X184099773Y-84593931D01*
X184099776Y-84593932D01*
X184099787Y-84593935D01*
X184456369Y-84664862D01*
X184818206Y-84700500D01*
X184818209Y-84700500D01*
X185181791Y-84700500D01*
X185181794Y-84700500D01*
X185543631Y-84664862D01*
X185643274Y-84645042D01*
X185900212Y-84593935D01*
X185900223Y-84593932D01*
X185900223Y-84593931D01*
X185900233Y-84593930D01*
X186248164Y-84488386D01*
X186584076Y-84349247D01*
X186904732Y-84177853D01*
X187207044Y-83975854D01*
X187488101Y-83745197D01*
X187745197Y-83488101D01*
X187975854Y-83207044D01*
X188177853Y-82904732D01*
X188349247Y-82584076D01*
X188488386Y-82248164D01*
X188593930Y-81900233D01*
X188593932Y-81900223D01*
X188593935Y-81900212D01*
X188664862Y-81543630D01*
X188700500Y-81181794D01*
X188700500Y-80818206D01*
X188664862Y-80456369D01*
X188593935Y-80099787D01*
X188593932Y-80099776D01*
X188593931Y-80099773D01*
X188593930Y-80099767D01*
X188488386Y-79751836D01*
X188349247Y-79415924D01*
X188177853Y-79095268D01*
X187975854Y-78792956D01*
X187745197Y-78511899D01*
X187745196Y-78511898D01*
X187745192Y-78511893D01*
X187488106Y-78254807D01*
X187207049Y-78024150D01*
X187207048Y-78024149D01*
X187207044Y-78024146D01*
X186904732Y-77822147D01*
X186904727Y-77822144D01*
X186904720Y-77822140D01*
X186584083Y-77650756D01*
X186584078Y-77650754D01*
X186248165Y-77511614D01*
X185900223Y-77406067D01*
X185900212Y-77406064D01*
X185543630Y-77335137D01*
X185271111Y-77308296D01*
X185181794Y-77299500D01*
X184818206Y-77299500D01*
X184735679Y-77307628D01*
X184456369Y-77335137D01*
X184099787Y-77406064D01*
X184099776Y-77406067D01*
X183751834Y-77511614D01*
X183415921Y-77650754D01*
X183415916Y-77650756D01*
X183095279Y-77822140D01*
X183095261Y-77822151D01*
X182792964Y-78024140D01*
X182792950Y-78024150D01*
X182511893Y-78254807D01*
X182254807Y-78511893D01*
X182024150Y-78792950D01*
X182024140Y-78792964D01*
X181822151Y-79095261D01*
X181822140Y-79095279D01*
X181650756Y-79415916D01*
X181650754Y-79415921D01*
X181511614Y-79751834D01*
X181406067Y-80099776D01*
X181406064Y-80099787D01*
X181335137Y-80456369D01*
X181299500Y-80818209D01*
X177014261Y-80818209D01*
X161425618Y-71336992D01*
X161335878Y-71282411D01*
X163235356Y-71282411D01*
X163341399Y-71388454D01*
X163341420Y-71388473D01*
X163421451Y-71453669D01*
X163421457Y-71453673D01*
X163578134Y-71532359D01*
X163748736Y-71572793D01*
X163924056Y-71572793D01*
X164094657Y-71532359D01*
X164251336Y-71453673D01*
X164303346Y-71411304D01*
X181174500Y-71411304D01*
X181174500Y-71588695D01*
X181209103Y-71762658D01*
X181209106Y-71762667D01*
X181276983Y-71926540D01*
X181276990Y-71926553D01*
X181375535Y-72074034D01*
X181375538Y-72074038D01*
X181500961Y-72199461D01*
X181500965Y-72199464D01*
X181648446Y-72298009D01*
X181648459Y-72298016D01*
X181771363Y-72348923D01*
X181812334Y-72365894D01*
X181812336Y-72365894D01*
X181812341Y-72365896D01*
X181986304Y-72400499D01*
X181986307Y-72400500D01*
X181986309Y-72400500D01*
X182163693Y-72400500D01*
X182163694Y-72400499D01*
X182221682Y-72388964D01*
X182337658Y-72365896D01*
X182337661Y-72365894D01*
X182337666Y-72365894D01*
X182501547Y-72298013D01*
X182649035Y-72199464D01*
X182774464Y-72074035D01*
X182873013Y-71926547D01*
X182940894Y-71762666D01*
X182975500Y-71588691D01*
X182975500Y-71411309D01*
X182975500Y-71411306D01*
X182975499Y-71411304D01*
X182940896Y-71237341D01*
X182940893Y-71237332D01*
X182873016Y-71073459D01*
X182873009Y-71073446D01*
X182774464Y-70925965D01*
X182774461Y-70925961D01*
X182649038Y-70800538D01*
X182649034Y-70800535D01*
X182501553Y-70701990D01*
X182501540Y-70701983D01*
X182337667Y-70634106D01*
X182337658Y-70634103D01*
X182163694Y-70599500D01*
X182163691Y-70599500D01*
X181986309Y-70599500D01*
X181986306Y-70599500D01*
X181812341Y-70634103D01*
X181812332Y-70634106D01*
X181648459Y-70701983D01*
X181648446Y-70701990D01*
X181500965Y-70800535D01*
X181500961Y-70800538D01*
X181375538Y-70925961D01*
X181375535Y-70925965D01*
X181276990Y-71073446D01*
X181276983Y-71073459D01*
X181209106Y-71237332D01*
X181209103Y-71237341D01*
X181174500Y-71411304D01*
X164303346Y-71411304D01*
X164331380Y-71388467D01*
X164331388Y-71388460D01*
X164402312Y-71317536D01*
X164508147Y-71211699D01*
X163907107Y-70610660D01*
X163235356Y-71282411D01*
X161335878Y-71282411D01*
X152090019Y-65658958D01*
X152000277Y-65604376D01*
X152649175Y-65604376D01*
X152843617Y-65798817D01*
X152843628Y-65798827D01*
X152923659Y-65864023D01*
X152923672Y-65864032D01*
X153080339Y-65942713D01*
X153250944Y-65983148D01*
X153426264Y-65983148D01*
X153596868Y-65942713D01*
X153753544Y-65864028D01*
X153833582Y-65798827D01*
X153833589Y-65798821D01*
X153930806Y-65701604D01*
X153241376Y-65012176D01*
X153241375Y-65012176D01*
X152649175Y-65604376D01*
X152000277Y-65604376D01*
X150303634Y-64572455D01*
X150141322Y-64473735D01*
X151916852Y-64473735D01*
X151916852Y-64649056D01*
X151957286Y-64819660D01*
X152035967Y-64976327D01*
X152035972Y-64976334D01*
X152101174Y-65056376D01*
X152101188Y-65056391D01*
X152295622Y-65250824D01*
X152295623Y-65250824D01*
X152887823Y-64658624D01*
X152887823Y-64658622D01*
X152198395Y-63969194D01*
X152101182Y-64066408D01*
X152101172Y-64066419D01*
X152035976Y-64146450D01*
X152035967Y-64146463D01*
X151957286Y-64303131D01*
X151916852Y-64473735D01*
X150141322Y-64473735D01*
X145092153Y-61402764D01*
X144391948Y-60976890D01*
X131595450Y-53193892D01*
X131580808Y-53183462D01*
X131309011Y-52958432D01*
X131300213Y-52950405D01*
X131118451Y-52767834D01*
X131037612Y-52686635D01*
X131029627Y-52677804D01*
X131022122Y-52668657D01*
X130885379Y-52501990D01*
X130793541Y-52390055D01*
X130786438Y-52380496D01*
X130579045Y-52071427D01*
X130572892Y-52061231D01*
X130522380Y-51967646D01*
X130396101Y-51733684D01*
X130390962Y-51722963D01*
X130246410Y-51379967D01*
X130242317Y-51368783D01*
X130199421Y-51231462D01*
X130131335Y-51013501D01*
X130128337Y-51001984D01*
X130123186Y-50977421D01*
X130051950Y-50637692D01*
X130050070Y-50625938D01*
X130044299Y-50573978D01*
X130008984Y-50256009D01*
X130008240Y-50244132D01*
X130002831Y-49871952D01*
X130003229Y-49860075D01*
X130006651Y-49818206D01*
X130299500Y-49818206D01*
X130299500Y-50181794D01*
X130309543Y-50283757D01*
X130335137Y-50543630D01*
X130406064Y-50900212D01*
X130406067Y-50900223D01*
X130511614Y-51248165D01*
X130598485Y-51457890D01*
X130646770Y-51574461D01*
X130650754Y-51584078D01*
X130650756Y-51584083D01*
X130822140Y-51904720D01*
X130822151Y-51904738D01*
X131024140Y-52207035D01*
X131024150Y-52207049D01*
X131254807Y-52488106D01*
X131511893Y-52745192D01*
X131511898Y-52745196D01*
X131511899Y-52745197D01*
X131792956Y-52975854D01*
X132095268Y-53177853D01*
X132095277Y-53177858D01*
X132095279Y-53177859D01*
X132415916Y-53349243D01*
X132415918Y-53349243D01*
X132415924Y-53349247D01*
X132751836Y-53488386D01*
X133099767Y-53593930D01*
X133099773Y-53593931D01*
X133099776Y-53593932D01*
X133099787Y-53593935D01*
X133443650Y-53662332D01*
X133456369Y-53664862D01*
X133818206Y-53700500D01*
X133818209Y-53700500D01*
X134181791Y-53700500D01*
X134181794Y-53700500D01*
X134543631Y-53664862D01*
X134645516Y-53644596D01*
X134900212Y-53593935D01*
X134900223Y-53593932D01*
X134900223Y-53593931D01*
X134900233Y-53593930D01*
X135248164Y-53488386D01*
X135584076Y-53349247D01*
X135904732Y-53177853D01*
X136207044Y-52975854D01*
X136488101Y-52745197D01*
X136745197Y-52488101D01*
X136975854Y-52207044D01*
X137177853Y-51904732D01*
X137349247Y-51584076D01*
X137488386Y-51248164D01*
X137553955Y-51032014D01*
X139750000Y-51032014D01*
X139750000Y-51267985D01*
X139780799Y-51501914D01*
X139841870Y-51729837D01*
X139932160Y-51947819D01*
X139932165Y-51947828D01*
X140050144Y-52152171D01*
X140050145Y-52152172D01*
X140112721Y-52233723D01*
X140948958Y-51397487D01*
X140973978Y-51457890D01*
X141045112Y-51564351D01*
X141135649Y-51654888D01*
X141242110Y-51726022D01*
X141302511Y-51751041D01*
X140466275Y-52587277D01*
X140547827Y-52649854D01*
X140547828Y-52649855D01*
X140752171Y-52767834D01*
X140752180Y-52767839D01*
X140970163Y-52858129D01*
X140970161Y-52858129D01*
X141198085Y-52919200D01*
X141432014Y-52949999D01*
X141432029Y-52950000D01*
X141667971Y-52950000D01*
X141667985Y-52949999D01*
X141901914Y-52919200D01*
X142129837Y-52858129D01*
X142347819Y-52767839D01*
X142347828Y-52767834D01*
X142552181Y-52649850D01*
X142633723Y-52587279D01*
X142633723Y-52587276D01*
X141797487Y-51751041D01*
X141857890Y-51726022D01*
X141964351Y-51654888D01*
X142054888Y-51564351D01*
X142126022Y-51457890D01*
X142151041Y-51397487D01*
X142987276Y-52233723D01*
X142987279Y-52233723D01*
X143049850Y-52152181D01*
X143167834Y-51947828D01*
X143167839Y-51947819D01*
X143258129Y-51729837D01*
X143319200Y-51501914D01*
X143349999Y-51267985D01*
X143350000Y-51267971D01*
X143350000Y-51032028D01*
X143349999Y-51032014D01*
X143319200Y-50798085D01*
X143258129Y-50570162D01*
X143167839Y-50352180D01*
X143167834Y-50352171D01*
X143049855Y-50147828D01*
X143049848Y-50147817D01*
X143030286Y-50122324D01*
X143030283Y-50122321D01*
X142987277Y-50066275D01*
X142151041Y-50902511D01*
X142126022Y-50842110D01*
X142054888Y-50735649D01*
X141964351Y-50645112D01*
X141857890Y-50573978D01*
X141797488Y-50548958D01*
X142296462Y-50049983D01*
X144829499Y-50049983D01*
X144829499Y-52250001D01*
X144829500Y-52250018D01*
X144839999Y-52352796D01*
X144840000Y-52352799D01*
X144884835Y-52488101D01*
X144895185Y-52519334D01*
X144987287Y-52668656D01*
X145111343Y-52792712D01*
X145260665Y-52884814D01*
X145427202Y-52939999D01*
X145518102Y-52949285D01*
X145582793Y-52975681D01*
X145622944Y-53032861D01*
X145629499Y-53072642D01*
X145629499Y-54015980D01*
X145629499Y-54015982D01*
X145629498Y-54015982D01*
X145667946Y-54209268D01*
X145667949Y-54209278D01*
X145743363Y-54391346D01*
X145743370Y-54391359D01*
X145852858Y-54555219D01*
X145852859Y-54555220D01*
X145852860Y-54555221D01*
X145992217Y-54694578D01*
X145992218Y-54694578D01*
X145999285Y-54701645D01*
X145999284Y-54701645D01*
X145999287Y-54701647D01*
X150464041Y-59166402D01*
X150497525Y-59227723D01*
X150500359Y-59254081D01*
X150500359Y-59403834D01*
X150500360Y-59403845D01*
X150540819Y-59574550D01*
X150540820Y-59574551D01*
X150570025Y-59632706D01*
X150582521Y-59701449D01*
X150555867Y-59766035D01*
X150539747Y-59782644D01*
X150510910Y-59807273D01*
X150510910Y-60768198D01*
X150506516Y-60763804D01*
X150415304Y-60711143D01*
X150313571Y-60683884D01*
X150208249Y-60683884D01*
X150106516Y-60711143D01*
X150015304Y-60763804D01*
X150010910Y-60768198D01*
X150010910Y-59807274D01*
X149956496Y-59815893D01*
X149761880Y-59879128D01*
X149579560Y-59972024D01*
X149414015Y-60092301D01*
X149414014Y-60092301D01*
X149269327Y-60236988D01*
X149269327Y-60236989D01*
X149149050Y-60402534D01*
X149056154Y-60584854D01*
X148992919Y-60779470D01*
X148984301Y-60833884D01*
X149945224Y-60833884D01*
X149940830Y-60838278D01*
X149888169Y-60929490D01*
X149860910Y-61031223D01*
X149860910Y-61136545D01*
X149888169Y-61238278D01*
X149940830Y-61329490D01*
X149945224Y-61333884D01*
X148984301Y-61333884D01*
X148992919Y-61388297D01*
X149056154Y-61582913D01*
X149149050Y-61765233D01*
X149269327Y-61930778D01*
X149269327Y-61930779D01*
X149414014Y-62075466D01*
X149579560Y-62195743D01*
X149761878Y-62288638D01*
X149956488Y-62351872D01*
X150010910Y-62360491D01*
X150010910Y-61399570D01*
X150015304Y-61403964D01*
X150106516Y-61456625D01*
X150208249Y-61483884D01*
X150313571Y-61483884D01*
X150415304Y-61456625D01*
X150506516Y-61403964D01*
X150510910Y-61399570D01*
X150510910Y-62360490D01*
X150565331Y-62351872D01*
X150759941Y-62288638D01*
X150942259Y-62195743D01*
X151107804Y-62075466D01*
X151107805Y-62075466D01*
X151252492Y-61930779D01*
X151252492Y-61930778D01*
X151372769Y-61765233D01*
X151465665Y-61582913D01*
X151528900Y-61388297D01*
X151537519Y-61333884D01*
X150576596Y-61333884D01*
X150580990Y-61329490D01*
X150633651Y-61238278D01*
X150660910Y-61136545D01*
X150660910Y-61031223D01*
X150633651Y-60929490D01*
X150580990Y-60838278D01*
X150576596Y-60833884D01*
X151537518Y-60833884D01*
X151562147Y-60805047D01*
X151620653Y-60766854D01*
X151690521Y-60766354D01*
X151712089Y-60774768D01*
X151770243Y-60803974D01*
X151854885Y-60824035D01*
X151940956Y-60844435D01*
X151940959Y-60844435D01*
X152116395Y-60844435D01*
X152116398Y-60844435D01*
X152287110Y-60803974D01*
X152443892Y-60725237D01*
X152523999Y-60659980D01*
X152853802Y-60330175D01*
X152915125Y-60296691D01*
X152984816Y-60301675D01*
X153029164Y-60330176D01*
X154400699Y-61701711D01*
X154434184Y-61763034D01*
X154429200Y-61832726D01*
X154387328Y-61888659D01*
X154355442Y-61905909D01*
X154352964Y-61906811D01*
X154196185Y-61985548D01*
X154196179Y-61985552D01*
X154116082Y-62050799D01*
X154116067Y-62050813D01*
X153568062Y-62598820D01*
X153568043Y-62598841D01*
X153502802Y-62678927D01*
X153502793Y-62678940D01*
X153424058Y-62835715D01*
X153383599Y-63006421D01*
X153383598Y-63006432D01*
X153383598Y-63181867D01*
X153383599Y-63181876D01*
X153384496Y-63185662D01*
X153384354Y-63188337D01*
X153384437Y-63189046D01*
X153384315Y-63189060D01*
X153380799Y-63255434D01*
X153339968Y-63312131D01*
X153274966Y-63337753D01*
X153235242Y-63334911D01*
X153231812Y-63334098D01*
X153056490Y-63334098D01*
X152885885Y-63374532D01*
X152729209Y-63453217D01*
X152649166Y-63518422D01*
X152649157Y-63518430D01*
X152551947Y-63615640D01*
X153418154Y-64481846D01*
X154284357Y-65348051D01*
X154284358Y-65348051D01*
X154381567Y-65250842D01*
X154381576Y-65250832D01*
X154446777Y-65170795D01*
X154446786Y-65170782D01*
X154525467Y-65014114D01*
X154565902Y-64843510D01*
X154565902Y-64668190D01*
X154565090Y-64664765D01*
X154565218Y-64662336D01*
X154565064Y-64661015D01*
X154565289Y-64660988D01*
X154568780Y-64594993D01*
X154609605Y-64538292D01*
X154674605Y-64512664D01*
X154714344Y-64515504D01*
X154718129Y-64516402D01*
X154718132Y-64516402D01*
X154893568Y-64516402D01*
X154893571Y-64516402D01*
X155064284Y-64475941D01*
X155187743Y-64413937D01*
X155190083Y-64413512D01*
X155191882Y-64411954D01*
X155224276Y-64407296D01*
X155256484Y-64401441D01*
X155258683Y-64402348D01*
X155261040Y-64402010D01*
X155290815Y-64415607D01*
X155321071Y-64428093D01*
X155322431Y-64430046D01*
X155324596Y-64431035D01*
X155342295Y-64458576D01*
X155360995Y-64485433D01*
X155361483Y-64488433D01*
X155362370Y-64489813D01*
X155367393Y-64524748D01*
X155367393Y-64585689D01*
X155347708Y-64652728D01*
X155331074Y-64673370D01*
X154961167Y-65043278D01*
X154961158Y-65043288D01*
X154895904Y-65123390D01*
X154817166Y-65280172D01*
X154776708Y-65450875D01*
X154776707Y-65450886D01*
X154776707Y-65626321D01*
X154776708Y-65626332D01*
X154817166Y-65797034D01*
X154843413Y-65849297D01*
X154895905Y-65953818D01*
X154895907Y-65953821D01*
X154895909Y-65953824D01*
X154961152Y-66033914D01*
X154961162Y-66033926D01*
X155526860Y-66599622D01*
X155606968Y-66664881D01*
X155763749Y-66743618D01*
X155763751Y-66743619D01*
X155864646Y-66767532D01*
X155934461Y-66784079D01*
X155934464Y-66784079D01*
X156066921Y-66784079D01*
X156133960Y-66803764D01*
X156179715Y-66856568D01*
X156190921Y-66908079D01*
X156190921Y-67040535D01*
X156190922Y-67040546D01*
X156231380Y-67211248D01*
X156237478Y-67223390D01*
X156310119Y-67368032D01*
X156310121Y-67368035D01*
X156310123Y-67368038D01*
X156375366Y-67448128D01*
X156375376Y-67448140D01*
X156941074Y-68013836D01*
X157021182Y-68079095D01*
X157177963Y-68157832D01*
X157177965Y-68157833D01*
X157320510Y-68191617D01*
X157348675Y-68198293D01*
X157348678Y-68198293D01*
X157524114Y-68198293D01*
X157524117Y-68198293D01*
X157616515Y-68176393D01*
X157694827Y-68157833D01*
X157694828Y-68157832D01*
X157694830Y-68157832D01*
X157851611Y-68079095D01*
X157931718Y-68013838D01*
X158301629Y-67643925D01*
X158362952Y-67610441D01*
X158389310Y-67607607D01*
X159161590Y-67607607D01*
X159255884Y-67588849D01*
X159301753Y-67579726D01*
X159433786Y-67525036D01*
X159476586Y-67496438D01*
X159516564Y-67469725D01*
X159583237Y-67448848D01*
X159650618Y-67467331D01*
X159673134Y-67485147D01*
X160381108Y-68193120D01*
X160381117Y-68193128D01*
X160470948Y-68262059D01*
X160470954Y-68262062D01*
X160581473Y-68307840D01*
X160621702Y-68334720D01*
X161140388Y-68853406D01*
X161173873Y-68914729D01*
X161176707Y-68941087D01*
X161176707Y-69001321D01*
X161176708Y-69001332D01*
X161217166Y-69172034D01*
X161217168Y-69172037D01*
X161295905Y-69328818D01*
X161295907Y-69328821D01*
X161295909Y-69328824D01*
X161361152Y-69408914D01*
X161361162Y-69408926D01*
X161926860Y-69974622D01*
X162006968Y-70039881D01*
X162154227Y-70113836D01*
X162163751Y-70118619D01*
X162306296Y-70152403D01*
X162334461Y-70159079D01*
X162334464Y-70159079D01*
X162467421Y-70159079D01*
X162534460Y-70178764D01*
X162580215Y-70231568D01*
X162591421Y-70283079D01*
X162591421Y-70415478D01*
X162631854Y-70586079D01*
X162710540Y-70742756D01*
X162775739Y-70822793D01*
X162775743Y-70822798D01*
X162881802Y-70928857D01*
X163642649Y-70168011D01*
X163703972Y-70134526D01*
X163773664Y-70139510D01*
X163818011Y-70168011D01*
X163907106Y-70257106D01*
X163996201Y-70168011D01*
X164057524Y-70134526D01*
X164127216Y-70139510D01*
X164171564Y-70168011D01*
X164861699Y-70858147D01*
X165038459Y-70681388D01*
X165038468Y-70681378D01*
X165103669Y-70601341D01*
X165103673Y-70601335D01*
X165182359Y-70444657D01*
X165222793Y-70274056D01*
X165222793Y-70258066D01*
X165242478Y-70191027D01*
X165295282Y-70145272D01*
X165364440Y-70135328D01*
X165425110Y-70161929D01*
X165432576Y-70168011D01*
X165445775Y-70178764D01*
X165446182Y-70179095D01*
X165601517Y-70257106D01*
X165602965Y-70257833D01*
X165709484Y-70283079D01*
X165773675Y-70298293D01*
X165773678Y-70298293D01*
X165949114Y-70298293D01*
X165949117Y-70298293D01*
X166062238Y-70271482D01*
X166119827Y-70257833D01*
X166119828Y-70257832D01*
X166119830Y-70257832D01*
X166186946Y-70224125D01*
X166255687Y-70211630D01*
X166320274Y-70238283D01*
X166348090Y-70271824D01*
X166348603Y-70271482D01*
X166351904Y-70276423D01*
X166351950Y-70276478D01*
X166351985Y-70276543D01*
X166351987Y-70276547D01*
X166417982Y-70375315D01*
X166450535Y-70424034D01*
X166450538Y-70424038D01*
X166575961Y-70549461D01*
X166575965Y-70549464D01*
X166723446Y-70648009D01*
X166723459Y-70648016D01*
X166804004Y-70681378D01*
X166887334Y-70715894D01*
X166887336Y-70715894D01*
X166887341Y-70715896D01*
X167061304Y-70750499D01*
X167061307Y-70750500D01*
X167061309Y-70750500D01*
X167238693Y-70750500D01*
X167238694Y-70750499D01*
X167296682Y-70738964D01*
X167412658Y-70715896D01*
X167412661Y-70715894D01*
X167412666Y-70715894D01*
X167576547Y-70648013D01*
X167724035Y-70549464D01*
X167849464Y-70424035D01*
X167948013Y-70276547D01*
X168015894Y-70112666D01*
X168050500Y-69938691D01*
X168050500Y-69761309D01*
X168050500Y-69761306D01*
X168050499Y-69761304D01*
X168015896Y-69587341D01*
X168015893Y-69587332D01*
X167948016Y-69423459D01*
X167948009Y-69423446D01*
X167849464Y-69275965D01*
X167849461Y-69275961D01*
X167724038Y-69150538D01*
X167724034Y-69150535D01*
X167576553Y-69051990D01*
X167576540Y-69051983D01*
X167412670Y-68984107D01*
X167412661Y-68984104D01*
X167348100Y-68971262D01*
X167286190Y-68938876D01*
X167251616Y-68878160D01*
X167248293Y-68849645D01*
X167248293Y-68823678D01*
X167248293Y-68823675D01*
X167241617Y-68795510D01*
X167207833Y-68652965D01*
X167207832Y-68652963D01*
X167129095Y-68496182D01*
X167129091Y-68496177D01*
X167129090Y-68496175D01*
X167063847Y-68416085D01*
X167063846Y-68416084D01*
X167063838Y-68416074D01*
X166498140Y-67850378D01*
X166418032Y-67785119D01*
X166339290Y-67745574D01*
X166261248Y-67706380D01*
X166090546Y-67665922D01*
X166090541Y-67665921D01*
X166090539Y-67665921D01*
X165958079Y-67665921D01*
X165891040Y-67646236D01*
X165845285Y-67593432D01*
X165834079Y-67541921D01*
X165834079Y-67409464D01*
X165834079Y-67409461D01*
X165824260Y-67368032D01*
X165793619Y-67238751D01*
X165793618Y-67238749D01*
X165714881Y-67081968D01*
X165714877Y-67081963D01*
X165714876Y-67081961D01*
X165649633Y-67001871D01*
X165649632Y-67001870D01*
X165649624Y-67001860D01*
X165083926Y-66436164D01*
X165003818Y-66370905D01*
X164895115Y-66316313D01*
X164844042Y-66268636D01*
X164826852Y-66200914D01*
X164849004Y-66134649D01*
X164863080Y-66117828D01*
X165274191Y-65706718D01*
X165339449Y-65626610D01*
X165418187Y-65469829D01*
X165458648Y-65299117D01*
X165458648Y-65123675D01*
X165432681Y-65014114D01*
X165418187Y-64952961D01*
X165339451Y-64796185D01*
X165339449Y-64796181D01*
X165274193Y-64716074D01*
X164726172Y-64168055D01*
X164726164Y-64168048D01*
X164726158Y-64168043D01*
X164646072Y-64102802D01*
X164646059Y-64102793D01*
X164489284Y-64024058D01*
X164318578Y-63983599D01*
X164318573Y-63983598D01*
X164318571Y-63983598D01*
X164143129Y-63983598D01*
X164143127Y-63983598D01*
X164143120Y-63983599D01*
X164139881Y-63984367D01*
X164137591Y-63984245D01*
X164135954Y-63984437D01*
X164135921Y-63984157D01*
X164070109Y-63980670D01*
X164013412Y-63939838D01*
X163987791Y-63874836D01*
X163990634Y-63835108D01*
X163991402Y-63831871D01*
X163991402Y-63656429D01*
X163975532Y-63589472D01*
X163950941Y-63485715D01*
X163872205Y-63328939D01*
X163872203Y-63328935D01*
X163843869Y-63294153D01*
X163806954Y-63248836D01*
X163806940Y-63248821D01*
X163258933Y-62700816D01*
X163258926Y-62700809D01*
X163258918Y-62700802D01*
X163258912Y-62700797D01*
X163178826Y-62635556D01*
X163178813Y-62635547D01*
X163022038Y-62556812D01*
X162851332Y-62516353D01*
X162851327Y-62516352D01*
X162851325Y-62516352D01*
X162675883Y-62516352D01*
X162675881Y-62516352D01*
X162675875Y-62516353D01*
X162505171Y-62556812D01*
X162505170Y-62556812D01*
X162348391Y-62635549D01*
X162348390Y-62635550D01*
X162268285Y-62700803D01*
X162268269Y-62700818D01*
X161914532Y-63054558D01*
X161887604Y-63069261D01*
X161861786Y-63085854D01*
X161855585Y-63086745D01*
X161853209Y-63088043D01*
X161826851Y-63090877D01*
X161678607Y-63090877D01*
X161611568Y-63071192D01*
X161590926Y-63054558D01*
X161512525Y-62976157D01*
X161479040Y-62914834D01*
X161484024Y-62845142D01*
X161512525Y-62800795D01*
X162144781Y-62168539D01*
X162889838Y-61423483D01*
X162927458Y-61376801D01*
X162987246Y-61245885D01*
X163007728Y-61103428D01*
X162987246Y-60960970D01*
X162927458Y-60830054D01*
X162914273Y-60813693D01*
X162889842Y-60783376D01*
X162889836Y-60783369D01*
X158791631Y-56685165D01*
X158791621Y-56685156D01*
X158744947Y-56647542D01*
X158679478Y-56617643D01*
X158626675Y-56571887D01*
X158606991Y-56504848D01*
X158620181Y-56449197D01*
X158675468Y-56339112D01*
X158715902Y-56168510D01*
X158715902Y-55993190D01*
X158715090Y-55989765D01*
X158715218Y-55987336D01*
X158715064Y-55986015D01*
X158715289Y-55985988D01*
X158718780Y-55919993D01*
X158759605Y-55863292D01*
X158824605Y-55837664D01*
X158846242Y-55837607D01*
X158855399Y-55838384D01*
X158868129Y-55841402D01*
X158890914Y-55841402D01*
X158896152Y-55841847D01*
X158924017Y-55852666D01*
X158952695Y-55861087D01*
X158959194Y-55866324D01*
X158961285Y-55867136D01*
X158962822Y-55869248D01*
X158973337Y-55877721D01*
X160535038Y-57439423D01*
X160535039Y-57439424D01*
X160679422Y-57535897D01*
X160823717Y-57595665D01*
X160839842Y-57602344D01*
X160839846Y-57602344D01*
X160839847Y-57602345D01*
X161010142Y-57636220D01*
X161010145Y-57636220D01*
X161010146Y-57636220D01*
X161528391Y-57636220D01*
X161595430Y-57655905D01*
X161616072Y-57672539D01*
X162719498Y-58775964D01*
X163808372Y-59864838D01*
X163808376Y-59864841D01*
X163808378Y-59864843D01*
X163855053Y-59902458D01*
X163915953Y-59930270D01*
X163985970Y-59962246D01*
X164128428Y-59982728D01*
X164270885Y-59962246D01*
X164401801Y-59902458D01*
X164448483Y-59864839D01*
X165930398Y-58382923D01*
X165968018Y-58336241D01*
X166027806Y-58205325D01*
X166048288Y-58062868D01*
X166027806Y-57920410D01*
X165985722Y-57828259D01*
X165968019Y-57789496D01*
X165968016Y-57789491D01*
X165930402Y-57742816D01*
X165930396Y-57742809D01*
X161832191Y-53644605D01*
X161832181Y-53644596D01*
X161785506Y-53606981D01*
X161654589Y-53547193D01*
X161532613Y-53529656D01*
X161512132Y-53526712D01*
X161512131Y-53526712D01*
X161369675Y-53547193D01*
X161238761Y-53606980D01*
X161238756Y-53606983D01*
X161192081Y-53644597D01*
X161192074Y-53644603D01*
X160365109Y-54471568D01*
X160303786Y-54505053D01*
X160234094Y-54500069D01*
X160178161Y-54458197D01*
X160156771Y-54412486D01*
X160143187Y-54355171D01*
X160143186Y-54355169D01*
X160143186Y-54355168D01*
X160064450Y-54198391D01*
X160064449Y-54198390D01*
X159999196Y-54118285D01*
X159999181Y-54118269D01*
X159256725Y-53375816D01*
X159256718Y-53375809D01*
X159193689Y-53324464D01*
X159176612Y-53310552D01*
X159176604Y-53310547D01*
X159019828Y-53231812D01*
X158849124Y-53191353D01*
X158849119Y-53191352D01*
X158849117Y-53191352D01*
X158849114Y-53191352D01*
X158831591Y-53191352D01*
X158764552Y-53171667D01*
X158743910Y-53155033D01*
X158720549Y-53131672D01*
X158576166Y-53035199D01*
X158415751Y-52968754D01*
X158415741Y-52968751D01*
X158245446Y-52934877D01*
X158245444Y-52934877D01*
X158245443Y-52934877D01*
X157672516Y-52934877D01*
X157605477Y-52915192D01*
X157559722Y-52862388D01*
X157549998Y-52794763D01*
X157549903Y-52794754D01*
X157549941Y-52794365D01*
X157549778Y-52793230D01*
X157550425Y-52789446D01*
X157550500Y-52788692D01*
X157550500Y-52611306D01*
X157550499Y-52611304D01*
X157515896Y-52437341D01*
X157515893Y-52437332D01*
X157448016Y-52273459D01*
X157448009Y-52273446D01*
X157349464Y-52125965D01*
X157349461Y-52125961D01*
X157224038Y-52000538D01*
X157124861Y-51934269D01*
X157080057Y-51880656D01*
X157071350Y-51811331D01*
X157101505Y-51748304D01*
X157146297Y-51716608D01*
X157251547Y-51673013D01*
X157399035Y-51574464D01*
X157455681Y-51517817D01*
X157517002Y-51484334D01*
X157543361Y-51481500D01*
X157851474Y-51481500D01*
X157918513Y-51501185D01*
X157964268Y-51553989D01*
X157967656Y-51562167D01*
X158016202Y-51692328D01*
X158016206Y-51692335D01*
X158102452Y-51807544D01*
X158102455Y-51807547D01*
X158217664Y-51893793D01*
X158217671Y-51893797D01*
X158352517Y-51944091D01*
X158352516Y-51944091D01*
X158359444Y-51944835D01*
X158412127Y-51950500D01*
X160207872Y-51950499D01*
X160267483Y-51944091D01*
X160402331Y-51893796D01*
X160517546Y-51807546D01*
X160603796Y-51692331D01*
X160654091Y-51557483D01*
X160660500Y-51497873D01*
X160660499Y-51473979D01*
X160663330Y-51460963D01*
X160673940Y-51441525D01*
X160680179Y-51420275D01*
X160696803Y-51399643D01*
X160696808Y-51399636D01*
X160696811Y-51399634D01*
X160696818Y-51399626D01*
X161367037Y-50729408D01*
X161384075Y-50792993D01*
X161449901Y-50907007D01*
X161542993Y-51000099D01*
X161657007Y-51065925D01*
X161720590Y-51082962D01*
X161088282Y-51715269D01*
X161088282Y-51715270D01*
X161142449Y-51754624D01*
X161331782Y-51851095D01*
X161533870Y-51916757D01*
X161743754Y-51950000D01*
X161956246Y-51950000D01*
X162166127Y-51916757D01*
X162166130Y-51916757D01*
X162368217Y-51851095D01*
X162557554Y-51754622D01*
X162611716Y-51715270D01*
X162611717Y-51715270D01*
X161979408Y-51082962D01*
X162042993Y-51065925D01*
X162157007Y-51000099D01*
X162250099Y-50907007D01*
X162315925Y-50792993D01*
X162332962Y-50729408D01*
X162965270Y-51361717D01*
X162965270Y-51361716D01*
X163004623Y-51307553D01*
X163009230Y-51298511D01*
X163057201Y-51247712D01*
X163125021Y-51230912D01*
X163191157Y-51253446D01*
X163230201Y-51298501D01*
X163234948Y-51307817D01*
X163359889Y-51479786D01*
X163510212Y-51630109D01*
X163682178Y-51755048D01*
X163682180Y-51755049D01*
X163682183Y-51755051D01*
X163871587Y-51851557D01*
X164073756Y-51917246D01*
X164283712Y-51950500D01*
X164283713Y-51950500D01*
X164496285Y-51950500D01*
X164496286Y-51950500D01*
X164706242Y-51917246D01*
X164908411Y-51851557D01*
X165097815Y-51755051D01*
X165139865Y-51724500D01*
X165269785Y-51630109D01*
X165269787Y-51630106D01*
X165269791Y-51630104D01*
X165420103Y-51479792D01*
X165420105Y-51479788D01*
X165420108Y-51479786D01*
X165545047Y-51307821D01*
X165545184Y-51307553D01*
X165549512Y-51299056D01*
X165597483Y-51248260D01*
X165665303Y-51231462D01*
X165731439Y-51253996D01*
X165770483Y-51299052D01*
X165774949Y-51307817D01*
X165899890Y-51479786D01*
X166050213Y-51630109D01*
X166222179Y-51755048D01*
X166222181Y-51755049D01*
X166222184Y-51755051D01*
X166411588Y-51851557D01*
X166613757Y-51917246D01*
X166823713Y-51950500D01*
X166823714Y-51950500D01*
X167036286Y-51950500D01*
X167036287Y-51950500D01*
X167246243Y-51917246D01*
X167448412Y-51851557D01*
X167637816Y-51755051D01*
X167679866Y-51724500D01*
X167809786Y-51630109D01*
X167809788Y-51630106D01*
X167809792Y-51630104D01*
X167960104Y-51479792D01*
X167960106Y-51479788D01*
X167960109Y-51479786D01*
X168085048Y-51307820D01*
X168085050Y-51307817D01*
X168085051Y-51307816D01*
X168089514Y-51299054D01*
X168137488Y-51248259D01*
X168205308Y-51231463D01*
X168271444Y-51253999D01*
X168310484Y-51299054D01*
X168311755Y-51301547D01*
X168314951Y-51307820D01*
X168439890Y-51479786D01*
X168590213Y-51630109D01*
X168762179Y-51755048D01*
X168762181Y-51755049D01*
X168762184Y-51755051D01*
X168822368Y-51785716D01*
X168873164Y-51833690D01*
X168889959Y-51901511D01*
X168867422Y-51967646D01*
X168853754Y-51983882D01*
X168607129Y-52230508D01*
X168607126Y-52230510D01*
X168607127Y-52230511D01*
X168509184Y-52328454D01*
X168473948Y-52389484D01*
X168473944Y-52389492D01*
X168468554Y-52398830D01*
X168434935Y-52457059D01*
X168396769Y-52599500D01*
X168396500Y-52600503D01*
X168396500Y-52601637D01*
X168396500Y-56935627D01*
X168376815Y-57002666D01*
X168324011Y-57048421D01*
X168296693Y-57057244D01*
X168287338Y-57059104D01*
X168287329Y-57059107D01*
X168123459Y-57126983D01*
X168123446Y-57126990D01*
X167975965Y-57225535D01*
X167975961Y-57225538D01*
X167850538Y-57350961D01*
X167850535Y-57350965D01*
X167751990Y-57498446D01*
X167751983Y-57498459D01*
X167684106Y-57662332D01*
X167684103Y-57662341D01*
X167649500Y-57836304D01*
X167649500Y-58013695D01*
X167684103Y-58187658D01*
X167684106Y-58187667D01*
X167751983Y-58351540D01*
X167751990Y-58351553D01*
X167850535Y-58499034D01*
X167850538Y-58499038D01*
X167975961Y-58624461D01*
X167975965Y-58624464D01*
X168123446Y-58723009D01*
X168123459Y-58723016D01*
X168194849Y-58752586D01*
X168287334Y-58790894D01*
X168287336Y-58790894D01*
X168287341Y-58790896D01*
X168461304Y-58825499D01*
X168461307Y-58825500D01*
X168461309Y-58825500D01*
X168638693Y-58825500D01*
X168638694Y-58825499D01*
X168698425Y-58813618D01*
X168812658Y-58790896D01*
X168812660Y-58790895D01*
X168812666Y-58790894D01*
X168889550Y-58759047D01*
X168959016Y-58751579D01*
X169021496Y-58782854D01*
X169057148Y-58842943D01*
X169061000Y-58873609D01*
X169061000Y-60414138D01*
X169041315Y-60481177D01*
X169024681Y-60501819D01*
X168925538Y-60600961D01*
X168925535Y-60600965D01*
X168826990Y-60748446D01*
X168826983Y-60748459D01*
X168759106Y-60912332D01*
X168759103Y-60912341D01*
X168724500Y-61086304D01*
X168724500Y-61263695D01*
X168759103Y-61437658D01*
X168759106Y-61437667D01*
X168826983Y-61601540D01*
X168826990Y-61601553D01*
X168925535Y-61749034D01*
X168925538Y-61749038D01*
X169050961Y-61874461D01*
X169050965Y-61874464D01*
X169198446Y-61973009D01*
X169198459Y-61973016D01*
X169319146Y-62023005D01*
X169362334Y-62040894D01*
X169362336Y-62040894D01*
X169362341Y-62040896D01*
X169536304Y-62075499D01*
X169536307Y-62075500D01*
X169536309Y-62075500D01*
X169713693Y-62075500D01*
X169770587Y-62064182D01*
X169873603Y-62043691D01*
X169943192Y-62049918D01*
X169985474Y-62077627D01*
X172447374Y-64539528D01*
X172447381Y-64539534D01*
X172566203Y-64618928D01*
X172566208Y-64618930D01*
X172698239Y-64673619D01*
X172698243Y-64673619D01*
X172698244Y-64673620D01*
X172838401Y-64701500D01*
X172838404Y-64701500D01*
X181863598Y-64701500D01*
X181964428Y-64681443D01*
X182003761Y-64673619D01*
X182135794Y-64618929D01*
X182158370Y-64603844D01*
X182254621Y-64539532D01*
X183413576Y-63380575D01*
X183474897Y-63347092D01*
X183525444Y-63346641D01*
X183575008Y-63356500D01*
X185510457Y-63356500D01*
X185618988Y-63334911D01*
X185650620Y-63328619D01*
X185782653Y-63273929D01*
X185817717Y-63250500D01*
X185820208Y-63248836D01*
X185847178Y-63230815D01*
X185901480Y-63194532D01*
X186354193Y-62741817D01*
X186415516Y-62708333D01*
X186441874Y-62705499D01*
X187612871Y-62705499D01*
X187612872Y-62705499D01*
X187672483Y-62699091D01*
X187807331Y-62648796D01*
X187922546Y-62562546D01*
X188008796Y-62447331D01*
X188059091Y-62312483D01*
X188065500Y-62252873D01*
X188065499Y-60457128D01*
X188059091Y-60397517D01*
X188057810Y-60394083D01*
X188008797Y-60262671D01*
X188008793Y-60262664D01*
X187922547Y-60147455D01*
X187922544Y-60147452D01*
X187807335Y-60061206D01*
X187807328Y-60061202D01*
X187672482Y-60010908D01*
X187672483Y-60010908D01*
X187612883Y-60004501D01*
X187612881Y-60004500D01*
X187612873Y-60004500D01*
X187612865Y-60004500D01*
X187602309Y-60004500D01*
X187535270Y-59984815D01*
X187514628Y-59968181D01*
X186844408Y-59297962D01*
X186907993Y-59280925D01*
X187022007Y-59215099D01*
X187115099Y-59122007D01*
X187180925Y-59007993D01*
X187197962Y-58944408D01*
X187830270Y-59576717D01*
X187830270Y-59576716D01*
X187869622Y-59522554D01*
X187966095Y-59333217D01*
X188031757Y-59131130D01*
X188031757Y-59131127D01*
X188065000Y-58921246D01*
X188065000Y-58708753D01*
X188031757Y-58498872D01*
X188031757Y-58498869D01*
X187966095Y-58296782D01*
X187869624Y-58107449D01*
X187830270Y-58053282D01*
X187830269Y-58053282D01*
X187197962Y-58685590D01*
X187180925Y-58622007D01*
X187115099Y-58507993D01*
X187022007Y-58414901D01*
X186907993Y-58349075D01*
X186844409Y-58332037D01*
X187476716Y-57699728D01*
X187422547Y-57660373D01*
X187422548Y-57660373D01*
X187413505Y-57655766D01*
X187362708Y-57607792D01*
X187345913Y-57539971D01*
X187368450Y-57473836D01*
X187413506Y-57434795D01*
X187422816Y-57430052D01*
X187481614Y-57387333D01*
X187594786Y-57305110D01*
X187594788Y-57305107D01*
X187594792Y-57305105D01*
X187745104Y-57154793D01*
X187745106Y-57154789D01*
X187745109Y-57154787D01*
X187870048Y-56982821D01*
X187870049Y-56982820D01*
X187870051Y-56982817D01*
X187966557Y-56793413D01*
X188032246Y-56591244D01*
X188065500Y-56381288D01*
X188065500Y-56168714D01*
X188032246Y-55958758D01*
X187966557Y-55756589D01*
X187870051Y-55567185D01*
X187870049Y-55567182D01*
X187870048Y-55567180D01*
X187745109Y-55395214D01*
X187594786Y-55244891D01*
X187422819Y-55119952D01*
X187422818Y-55119951D01*
X187422816Y-55119950D01*
X187325972Y-55070606D01*
X187264993Y-55039535D01*
X187214197Y-54991560D01*
X187197402Y-54923739D01*
X187219939Y-54857604D01*
X187274655Y-54814153D01*
X187344176Y-54807181D01*
X187345480Y-54807433D01*
X187436306Y-54825500D01*
X187436309Y-54825500D01*
X187613693Y-54825500D01*
X187613694Y-54825499D01*
X187671682Y-54813964D01*
X187787658Y-54790896D01*
X187787661Y-54790894D01*
X187787666Y-54790894D01*
X187951547Y-54723013D01*
X188099035Y-54624464D01*
X188224464Y-54499035D01*
X188323013Y-54351547D01*
X188390894Y-54187666D01*
X188395225Y-54165896D01*
X188425044Y-54015982D01*
X188425500Y-54013691D01*
X188425500Y-53836309D01*
X188425500Y-53836306D01*
X188425499Y-53836304D01*
X188390896Y-53662341D01*
X188390893Y-53662332D01*
X188323016Y-53498459D01*
X188323009Y-53498446D01*
X188224464Y-53350965D01*
X188224461Y-53350961D01*
X188099038Y-53225538D01*
X188099034Y-53225535D01*
X187951553Y-53126990D01*
X187951540Y-53126983D01*
X187787667Y-53059106D01*
X187787658Y-53059103D01*
X187613694Y-53024500D01*
X187613691Y-53024500D01*
X187494326Y-53024500D01*
X187427287Y-53004815D01*
X187381532Y-52952011D01*
X187371588Y-52882853D01*
X187400613Y-52819297D01*
X187415661Y-52804647D01*
X187435103Y-52788691D01*
X187488101Y-52745197D01*
X187745197Y-52488101D01*
X187975854Y-52207044D01*
X188177853Y-51904732D01*
X188349247Y-51584076D01*
X188488386Y-51248164D01*
X188593930Y-50900233D01*
X188593932Y-50900223D01*
X188593935Y-50900212D01*
X188664862Y-50543630D01*
X188666699Y-50524979D01*
X188700500Y-50181794D01*
X188700500Y-49818206D01*
X188664862Y-49456369D01*
X188661702Y-49440480D01*
X188593935Y-49099787D01*
X188593932Y-49099776D01*
X188593931Y-49099773D01*
X188593930Y-49099767D01*
X188488386Y-48751836D01*
X188349247Y-48415924D01*
X188331457Y-48382642D01*
X188177859Y-48095279D01*
X188177858Y-48095277D01*
X188177853Y-48095268D01*
X187975854Y-47792956D01*
X187745197Y-47511899D01*
X187745196Y-47511898D01*
X187745192Y-47511893D01*
X187488106Y-47254807D01*
X187207049Y-47024150D01*
X187207048Y-47024149D01*
X187207044Y-47024146D01*
X186904732Y-46822147D01*
X186904727Y-46822144D01*
X186904720Y-46822140D01*
X186584083Y-46650756D01*
X186584078Y-46650754D01*
X186248165Y-46511614D01*
X185900223Y-46406067D01*
X185900212Y-46406064D01*
X185543630Y-46335137D01*
X185271111Y-46308296D01*
X185181794Y-46299500D01*
X184818206Y-46299500D01*
X184735679Y-46307628D01*
X184456369Y-46335137D01*
X184099787Y-46406064D01*
X184099776Y-46406067D01*
X183751834Y-46511614D01*
X183415921Y-46650754D01*
X183415916Y-46650756D01*
X183095279Y-46822140D01*
X183095261Y-46822151D01*
X182792964Y-47024140D01*
X182792950Y-47024150D01*
X182511893Y-47254807D01*
X182254807Y-47511893D01*
X182024150Y-47792950D01*
X182024140Y-47792964D01*
X181822151Y-48095261D01*
X181822140Y-48095279D01*
X181650756Y-48415916D01*
X181650754Y-48415921D01*
X181511614Y-48751834D01*
X181406067Y-49099776D01*
X181406064Y-49099787D01*
X181335137Y-49456369D01*
X181308665Y-49725156D01*
X181299500Y-49818206D01*
X181299500Y-50181794D01*
X181309543Y-50283757D01*
X181335137Y-50543630D01*
X181406064Y-50900212D01*
X181406067Y-50900223D01*
X181511614Y-51248165D01*
X181598485Y-51457890D01*
X181646770Y-51574461D01*
X181650754Y-51584078D01*
X181650756Y-51584083D01*
X181822140Y-51904720D01*
X181822151Y-51904738D01*
X182024140Y-52207035D01*
X182024150Y-52207049D01*
X182254807Y-52488106D01*
X182511893Y-52745192D01*
X182511898Y-52745196D01*
X182511899Y-52745197D01*
X182792956Y-52975854D01*
X183095268Y-53177853D01*
X183095277Y-53177858D01*
X183095279Y-53177859D01*
X183415916Y-53349243D01*
X183415918Y-53349243D01*
X183415924Y-53349247D01*
X183751836Y-53488386D01*
X184099767Y-53593930D01*
X184099773Y-53593931D01*
X184099776Y-53593932D01*
X184099787Y-53593935D01*
X184443650Y-53662332D01*
X184456369Y-53664862D01*
X184818206Y-53700500D01*
X184818209Y-53700500D01*
X185181791Y-53700500D01*
X185181794Y-53700500D01*
X185543631Y-53664862D01*
X185645516Y-53644596D01*
X185900212Y-53593935D01*
X185900223Y-53593932D01*
X185900223Y-53593931D01*
X185900233Y-53593930D01*
X186248164Y-53488386D01*
X186554616Y-53361449D01*
X186624081Y-53353981D01*
X186686561Y-53385256D01*
X186722213Y-53445345D01*
X186719720Y-53515170D01*
X186716627Y-53523462D01*
X186659105Y-53662337D01*
X186659103Y-53662341D01*
X186624500Y-53836304D01*
X186624500Y-54013695D01*
X186659103Y-54187658D01*
X186659106Y-54187667D01*
X186726983Y-54351540D01*
X186726990Y-54351553D01*
X186825535Y-54499034D01*
X186825538Y-54499038D01*
X186950961Y-54624461D01*
X186950965Y-54624464D01*
X187098450Y-54723012D01*
X187101706Y-54724752D01*
X187103091Y-54726113D01*
X187103518Y-54726398D01*
X187103464Y-54726478D01*
X187151552Y-54773713D01*
X187167014Y-54841851D01*
X187143184Y-54907531D01*
X187087628Y-54949901D01*
X187023858Y-54956585D01*
X186887992Y-54935066D01*
X186821287Y-54924501D01*
X186608713Y-54924501D01*
X186560042Y-54932209D01*
X186398760Y-54957754D01*
X186196585Y-55023445D01*
X186007179Y-55119952D01*
X185835213Y-55244891D01*
X185684890Y-55395214D01*
X185559948Y-55567184D01*
X185555482Y-55575950D01*
X185507506Y-55626743D01*
X185439684Y-55643536D01*
X185373550Y-55620996D01*
X185334516Y-55575946D01*
X185330050Y-55567182D01*
X185205109Y-55395213D01*
X185054786Y-55244890D01*
X184882820Y-55119951D01*
X184693414Y-55023444D01*
X184693413Y-55023443D01*
X184693412Y-55023443D01*
X184491243Y-54957754D01*
X184491241Y-54957753D01*
X184491240Y-54957753D01*
X184304212Y-54928131D01*
X184281287Y-54924500D01*
X184068713Y-54924500D01*
X184045788Y-54928131D01*
X183858760Y-54957753D01*
X183656585Y-55023444D01*
X183467179Y-55119951D01*
X183295213Y-55244890D01*
X183144890Y-55395213D01*
X183019951Y-55567179D01*
X182923444Y-55756585D01*
X182857753Y-55958760D01*
X182824500Y-56168713D01*
X182824500Y-56381292D01*
X182844450Y-56507249D01*
X182835496Y-56576542D01*
X182809658Y-56614328D01*
X182337472Y-57086514D01*
X182337466Y-57086521D01*
X182291850Y-57154792D01*
X182291850Y-57154793D01*
X182258074Y-57205341D01*
X182258069Y-57205349D01*
X182203381Y-57337379D01*
X182203379Y-57337385D01*
X182175500Y-57477542D01*
X182175500Y-58350417D01*
X182173905Y-58366604D01*
X182174097Y-58366623D01*
X182173500Y-58372685D01*
X182173500Y-58775964D01*
X182153815Y-58843003D01*
X182101011Y-58888758D01*
X182044783Y-58898130D01*
X182044783Y-58899500D01*
X181861306Y-58899500D01*
X181687341Y-58934103D01*
X181687332Y-58934106D01*
X181521952Y-59002608D01*
X181452482Y-59010077D01*
X181390003Y-58978801D01*
X181354352Y-58918712D01*
X181350500Y-58888047D01*
X181350500Y-54145928D01*
X181325502Y-54020261D01*
X181325501Y-54020260D01*
X181325501Y-54020256D01*
X181276465Y-53901873D01*
X181257864Y-53874035D01*
X181205276Y-53795330D01*
X181205274Y-53795328D01*
X181205272Y-53795325D01*
X181205271Y-53795324D01*
X175900657Y-48490711D01*
X175867172Y-48429388D01*
X175867689Y-48381245D01*
X175866484Y-48381055D01*
X175900500Y-48166286D01*
X175900500Y-47953713D01*
X175881146Y-47831519D01*
X175867246Y-47743757D01*
X175801557Y-47541588D01*
X175705051Y-47352184D01*
X175705049Y-47352181D01*
X175705048Y-47352179D01*
X175580109Y-47180213D01*
X175429786Y-47029890D01*
X175257820Y-46904951D01*
X175068414Y-46808444D01*
X175068413Y-46808443D01*
X175068412Y-46808443D01*
X174866243Y-46742754D01*
X174866241Y-46742753D01*
X174866240Y-46742753D01*
X174704957Y-46717208D01*
X174656287Y-46709500D01*
X174443713Y-46709500D01*
X174395042Y-46717208D01*
X174233760Y-46742753D01*
X174031585Y-46808444D01*
X173842179Y-46904951D01*
X173670213Y-47029890D01*
X173519890Y-47180213D01*
X173394949Y-47352182D01*
X173390484Y-47360946D01*
X173342509Y-47411742D01*
X173274688Y-47428536D01*
X173208553Y-47405998D01*
X173169516Y-47360946D01*
X173165050Y-47352182D01*
X173040109Y-47180213D01*
X172889786Y-47029890D01*
X172717820Y-46904951D01*
X172528414Y-46808444D01*
X172528413Y-46808443D01*
X172528412Y-46808443D01*
X172326243Y-46742754D01*
X172326241Y-46742753D01*
X172326240Y-46742753D01*
X172164957Y-46717208D01*
X172116287Y-46709500D01*
X171903713Y-46709500D01*
X171855042Y-46717208D01*
X171693760Y-46742753D01*
X171491585Y-46808444D01*
X171302179Y-46904951D01*
X171130213Y-47029890D01*
X170979890Y-47180213D01*
X170854949Y-47352182D01*
X170850484Y-47360946D01*
X170802509Y-47411742D01*
X170734688Y-47428536D01*
X170668553Y-47405998D01*
X170629516Y-47360946D01*
X170625050Y-47352182D01*
X170500109Y-47180213D01*
X170349786Y-47029890D01*
X170177820Y-46904951D01*
X169988414Y-46808444D01*
X169988413Y-46808443D01*
X169988412Y-46808443D01*
X169786243Y-46742754D01*
X169786241Y-46742753D01*
X169786240Y-46742753D01*
X169624957Y-46717208D01*
X169576287Y-46709500D01*
X169363713Y-46709500D01*
X169315042Y-46717208D01*
X169153760Y-46742753D01*
X168951585Y-46808444D01*
X168762179Y-46904951D01*
X168590213Y-47029890D01*
X168439890Y-47180213D01*
X168314949Y-47352182D01*
X168310484Y-47360946D01*
X168262509Y-47411742D01*
X168194688Y-47428536D01*
X168128553Y-47405998D01*
X168089516Y-47360946D01*
X168085050Y-47352182D01*
X167960109Y-47180213D01*
X167809786Y-47029890D01*
X167637820Y-46904951D01*
X167448414Y-46808444D01*
X167448413Y-46808443D01*
X167448412Y-46808443D01*
X167246243Y-46742754D01*
X167246241Y-46742753D01*
X167246240Y-46742753D01*
X167084957Y-46717208D01*
X167036287Y-46709500D01*
X166823713Y-46709500D01*
X166775042Y-46717208D01*
X166613760Y-46742753D01*
X166411585Y-46808444D01*
X166222179Y-46904951D01*
X166050213Y-47029890D01*
X165899890Y-47180213D01*
X165774949Y-47352182D01*
X165770484Y-47360946D01*
X165722509Y-47411742D01*
X165654688Y-47428536D01*
X165588553Y-47405998D01*
X165549516Y-47360946D01*
X165545050Y-47352182D01*
X165420109Y-47180213D01*
X165269786Y-47029890D01*
X165097820Y-46904951D01*
X164908414Y-46808444D01*
X164908413Y-46808443D01*
X164908412Y-46808443D01*
X164706243Y-46742754D01*
X164706241Y-46742753D01*
X164706240Y-46742753D01*
X164544957Y-46717208D01*
X164496287Y-46709500D01*
X164283713Y-46709500D01*
X164235042Y-46717208D01*
X164073760Y-46742753D01*
X163871585Y-46808444D01*
X163682179Y-46904951D01*
X163510213Y-47029890D01*
X163359890Y-47180213D01*
X163234949Y-47352182D01*
X163230484Y-47360946D01*
X163182509Y-47411742D01*
X163114688Y-47428536D01*
X163048553Y-47405998D01*
X163009516Y-47360946D01*
X163005050Y-47352182D01*
X162880109Y-47180213D01*
X162729786Y-47029890D01*
X162557820Y-46904951D01*
X162368414Y-46808444D01*
X162368413Y-46808443D01*
X162368412Y-46808443D01*
X162166243Y-46742754D01*
X162166241Y-46742753D01*
X162166240Y-46742753D01*
X162004957Y-46717208D01*
X161956287Y-46709500D01*
X161743713Y-46709500D01*
X161695042Y-46717208D01*
X161533760Y-46742753D01*
X161331585Y-46808444D01*
X161142179Y-46904951D01*
X160970213Y-47029890D01*
X160819890Y-47180213D01*
X160694949Y-47352182D01*
X160690484Y-47360946D01*
X160642509Y-47411742D01*
X160574688Y-47428536D01*
X160508553Y-47405998D01*
X160469516Y-47360946D01*
X160465050Y-47352182D01*
X160340109Y-47180213D01*
X160189786Y-47029890D01*
X160017820Y-46904951D01*
X159828414Y-46808444D01*
X159828413Y-46808443D01*
X159828412Y-46808443D01*
X159626243Y-46742754D01*
X159626241Y-46742753D01*
X159626240Y-46742753D01*
X159464957Y-46717208D01*
X159416287Y-46709500D01*
X159203713Y-46709500D01*
X159155042Y-46717208D01*
X158993760Y-46742753D01*
X158791585Y-46808444D01*
X158602179Y-46904951D01*
X158430213Y-47029890D01*
X158279890Y-47180213D01*
X158154951Y-47352179D01*
X158058444Y-47541585D01*
X157992753Y-47743760D01*
X157959500Y-47953713D01*
X157959500Y-48166287D01*
X157992754Y-48376243D01*
X158030570Y-48492629D01*
X158058444Y-48578414D01*
X158154951Y-48767820D01*
X158279890Y-48939786D01*
X158393430Y-49053326D01*
X158426915Y-49114649D01*
X158421931Y-49184341D01*
X158380059Y-49240274D01*
X158349083Y-49257189D01*
X158217669Y-49306203D01*
X158217664Y-49306206D01*
X158102455Y-49392452D01*
X158102452Y-49392455D01*
X158016206Y-49507664D01*
X158016202Y-49507671D01*
X157967656Y-49637833D01*
X157925785Y-49693767D01*
X157860321Y-49718184D01*
X157851474Y-49718500D01*
X157013174Y-49718500D01*
X156842883Y-49752373D01*
X156842875Y-49752375D01*
X156729440Y-49799362D01*
X156682455Y-49818823D01*
X156572665Y-49892183D01*
X156538078Y-49915293D01*
X156538073Y-49915297D01*
X156340572Y-50112795D01*
X156321785Y-50128214D01*
X156250967Y-50175534D01*
X156125534Y-50300966D01*
X156026990Y-50448446D01*
X156026983Y-50448459D01*
X155959106Y-50612332D01*
X155959103Y-50612341D01*
X155924500Y-50786304D01*
X155924500Y-50963695D01*
X155959103Y-51137658D01*
X155959106Y-51137667D01*
X156026983Y-51301540D01*
X156026990Y-51301553D01*
X156125535Y-51449034D01*
X156125538Y-51449038D01*
X156250961Y-51574461D01*
X156250965Y-51574464D01*
X156350137Y-51640730D01*
X156394942Y-51694343D01*
X156403649Y-51763668D01*
X156373494Y-51826695D01*
X156328698Y-51858393D01*
X156223459Y-51901983D01*
X156223446Y-51901990D01*
X156071169Y-52003739D01*
X156004491Y-52024617D01*
X155978087Y-52022254D01*
X155863695Y-51999500D01*
X155863691Y-51999500D01*
X155686309Y-51999500D01*
X155686306Y-51999500D01*
X155615099Y-52013664D01*
X155545508Y-52007437D01*
X155503226Y-51979727D01*
X155449038Y-51925538D01*
X155449034Y-51925535D01*
X155301553Y-51826990D01*
X155301540Y-51826983D01*
X155137667Y-51759106D01*
X155137658Y-51759103D01*
X154963694Y-51724500D01*
X154963691Y-51724500D01*
X154786309Y-51724500D01*
X154786306Y-51724500D01*
X154612341Y-51759103D01*
X154612332Y-51759106D01*
X154448459Y-51826983D01*
X154448446Y-51826990D01*
X154300965Y-51925535D01*
X154300961Y-51925538D01*
X154175538Y-52050961D01*
X154175535Y-52050965D01*
X154076990Y-52198446D01*
X154076983Y-52198459D01*
X154009106Y-52362332D01*
X154009103Y-52362341D01*
X153974500Y-52536304D01*
X153974500Y-52713695D01*
X154009103Y-52887658D01*
X154009106Y-52887667D01*
X154076983Y-53051540D01*
X154076990Y-53051553D01*
X154175535Y-53199034D01*
X154175538Y-53199038D01*
X154300964Y-53324464D01*
X154371787Y-53371786D01*
X154390577Y-53387207D01*
X154789851Y-53786481D01*
X154823336Y-53847804D01*
X154818352Y-53917496D01*
X154776480Y-53973429D01*
X154730768Y-53994819D01*
X154710887Y-53999531D01*
X154554209Y-54078217D01*
X154474166Y-54143422D01*
X154474157Y-54143430D01*
X154376947Y-54240640D01*
X155243154Y-55106846D01*
X156113601Y-55977294D01*
X156147086Y-56038617D01*
X156142102Y-56108309D01*
X156113601Y-56152656D01*
X156112071Y-56154185D01*
X156112071Y-56154188D01*
X156185968Y-56301327D01*
X156185972Y-56301334D01*
X156251174Y-56381376D01*
X156251188Y-56381391D01*
X156445622Y-56575824D01*
X156445623Y-56575824D01*
X157126919Y-55894527D01*
X157188242Y-55861042D01*
X157257933Y-55866026D01*
X157302281Y-55894527D01*
X157480472Y-56072718D01*
X157513957Y-56134041D01*
X157508973Y-56203733D01*
X157480472Y-56248080D01*
X156799175Y-56929376D01*
X156993617Y-57123817D01*
X156993628Y-57123827D01*
X157073659Y-57189023D01*
X157073672Y-57189032D01*
X157230339Y-57267713D01*
X157287898Y-57281355D01*
X157348591Y-57315969D01*
X157380935Y-57377901D01*
X157374662Y-57447489D01*
X157346983Y-57489694D01*
X156669605Y-58167073D01*
X156669596Y-58167083D01*
X156631981Y-58213758D01*
X156572193Y-58344675D01*
X156551712Y-58487132D01*
X156572193Y-58629589D01*
X156631980Y-58760503D01*
X156631983Y-58760508D01*
X156656470Y-58790894D01*
X156669601Y-58807188D01*
X157457872Y-59595459D01*
X157650733Y-59788319D01*
X157684218Y-59849642D01*
X157679234Y-59919333D01*
X157637362Y-59975267D01*
X157571898Y-59999684D01*
X157563052Y-60000000D01*
X157325000Y-60000000D01*
X157325000Y-60963500D01*
X157305315Y-61030539D01*
X157252511Y-61076294D01*
X157201000Y-61087500D01*
X156949000Y-61087500D01*
X156881961Y-61067815D01*
X156836206Y-61015011D01*
X156825000Y-60963500D01*
X156825000Y-60000000D01*
X156550029Y-60000000D01*
X156550012Y-60000001D01*
X156447302Y-60010494D01*
X156280880Y-60065641D01*
X156280875Y-60065643D01*
X156131654Y-60157684D01*
X156007684Y-60281654D01*
X155915643Y-60430875D01*
X155915641Y-60430880D01*
X155860494Y-60597302D01*
X155860493Y-60597309D01*
X155850000Y-60700013D01*
X155850000Y-60799625D01*
X155830315Y-60866664D01*
X155777511Y-60912419D01*
X155708353Y-60922363D01*
X155644797Y-60893338D01*
X155638319Y-60887306D01*
X153503599Y-58752586D01*
X153437997Y-58708753D01*
X153384770Y-58673188D01*
X153279516Y-58629590D01*
X153252735Y-58618497D01*
X153252731Y-58618496D01*
X153186649Y-58605351D01*
X153124738Y-58572965D01*
X153123160Y-58571415D01*
X152524002Y-57972259D01*
X152523992Y-57972250D01*
X152491853Y-57946068D01*
X152443892Y-57906997D01*
X152443890Y-57906996D01*
X152443889Y-57906995D01*
X152287109Y-57828259D01*
X152116405Y-57787800D01*
X152116400Y-57787799D01*
X152116398Y-57787799D01*
X151966642Y-57787799D01*
X151899603Y-57768114D01*
X151878961Y-57751480D01*
X150356857Y-56229376D01*
X154474175Y-56229376D01*
X154668617Y-56423817D01*
X154668628Y-56423827D01*
X154748659Y-56489023D01*
X154748672Y-56489032D01*
X154905339Y-56567713D01*
X155075944Y-56608148D01*
X155251264Y-56608148D01*
X155421868Y-56567713D01*
X155578544Y-56489028D01*
X155658582Y-56423827D01*
X155658589Y-56423821D01*
X155755806Y-56326604D01*
X155066376Y-55637176D01*
X155066375Y-55637176D01*
X154474175Y-56229376D01*
X150356857Y-56229376D01*
X149226216Y-55098735D01*
X153741852Y-55098735D01*
X153741852Y-55274056D01*
X153782286Y-55444660D01*
X153860967Y-55601327D01*
X153860972Y-55601334D01*
X153926174Y-55681376D01*
X153926188Y-55681391D01*
X154120622Y-55875824D01*
X154120623Y-55875824D01*
X154712823Y-55283624D01*
X154712823Y-55283622D01*
X154023395Y-54594194D01*
X153926182Y-54691408D01*
X153926172Y-54691419D01*
X153860976Y-54771450D01*
X153860967Y-54771463D01*
X153782286Y-54928131D01*
X153741852Y-55098735D01*
X149226216Y-55098735D01*
X147666818Y-53539337D01*
X147633333Y-53478014D01*
X147630499Y-53451656D01*
X147630499Y-53072642D01*
X147650184Y-53005603D01*
X147702988Y-52959848D01*
X147741896Y-52949284D01*
X147832796Y-52939999D01*
X147999333Y-52884814D01*
X148148655Y-52792712D01*
X148272711Y-52668656D01*
X148364813Y-52519334D01*
X148419998Y-52352797D01*
X148430499Y-52250009D01*
X148430498Y-50049992D01*
X148429549Y-50040706D01*
X148419998Y-49947203D01*
X148419997Y-49947200D01*
X148404854Y-49901501D01*
X148364813Y-49780666D01*
X148272711Y-49631344D01*
X148148655Y-49507288D01*
X147999333Y-49415186D01*
X147832796Y-49360001D01*
X147832794Y-49360000D01*
X147730009Y-49349500D01*
X145529997Y-49349500D01*
X145529980Y-49349501D01*
X145427202Y-49360000D01*
X145427199Y-49360001D01*
X145260667Y-49415185D01*
X145260662Y-49415187D01*
X145111341Y-49507289D01*
X144987288Y-49631342D01*
X144895186Y-49780663D01*
X144895184Y-49780668D01*
X144888655Y-49800372D01*
X144840000Y-49947203D01*
X144840000Y-49947204D01*
X144839999Y-49947204D01*
X144829499Y-50049983D01*
X142296462Y-50049983D01*
X142633723Y-49712721D01*
X142552172Y-49650145D01*
X142552171Y-49650144D01*
X142347828Y-49532165D01*
X142347819Y-49532160D01*
X142129836Y-49441870D01*
X142129838Y-49441870D01*
X141901914Y-49380799D01*
X141667985Y-49350000D01*
X141432014Y-49350000D01*
X141198085Y-49380799D01*
X140970162Y-49441870D01*
X140752180Y-49532160D01*
X140752171Y-49532165D01*
X140547828Y-49650144D01*
X140547818Y-49650150D01*
X140466275Y-49712720D01*
X140466275Y-49712721D01*
X141302512Y-50548958D01*
X141242110Y-50573978D01*
X141135649Y-50645112D01*
X141045112Y-50735649D01*
X140973978Y-50842110D01*
X140948958Y-50902512D01*
X140112721Y-50066275D01*
X140112720Y-50066275D01*
X140050150Y-50147818D01*
X140050144Y-50147828D01*
X139932165Y-50352171D01*
X139932160Y-50352180D01*
X139841870Y-50570162D01*
X139780799Y-50798085D01*
X139750000Y-51032014D01*
X137553955Y-51032014D01*
X137593930Y-50900233D01*
X137593932Y-50900223D01*
X137593935Y-50900212D01*
X137664862Y-50543630D01*
X137666699Y-50524979D01*
X137700500Y-50181794D01*
X137700500Y-49818206D01*
X137664862Y-49456369D01*
X137661702Y-49440480D01*
X137593935Y-49099787D01*
X137593932Y-49099776D01*
X137593931Y-49099773D01*
X137593930Y-49099767D01*
X137488386Y-48751836D01*
X137349247Y-48415924D01*
X137331457Y-48382642D01*
X137177859Y-48095279D01*
X137177858Y-48095277D01*
X137177853Y-48095268D01*
X136975854Y-47792956D01*
X136745197Y-47511899D01*
X136745196Y-47511898D01*
X136745192Y-47511893D01*
X136488106Y-47254807D01*
X136207049Y-47024150D01*
X136207048Y-47024149D01*
X136207044Y-47024146D01*
X135904732Y-46822147D01*
X135904727Y-46822144D01*
X135904720Y-46822140D01*
X135584083Y-46650756D01*
X135584078Y-46650754D01*
X135248165Y-46511614D01*
X134900223Y-46406067D01*
X134900212Y-46406064D01*
X134543630Y-46335137D01*
X134271111Y-46308296D01*
X134181794Y-46299500D01*
X133818206Y-46299500D01*
X133735679Y-46307628D01*
X133456369Y-46335137D01*
X133099787Y-46406064D01*
X133099776Y-46406067D01*
X132751834Y-46511614D01*
X132415921Y-46650754D01*
X132415916Y-46650756D01*
X132095279Y-46822140D01*
X132095261Y-46822151D01*
X131792964Y-47024140D01*
X131792950Y-47024150D01*
X131511893Y-47254807D01*
X131254807Y-47511893D01*
X131024150Y-47792950D01*
X131024140Y-47792964D01*
X130822151Y-48095261D01*
X130822140Y-48095279D01*
X130650756Y-48415916D01*
X130650754Y-48415921D01*
X130511614Y-48751834D01*
X130406067Y-49099776D01*
X130406064Y-49099787D01*
X130335137Y-49456369D01*
X130308665Y-49725156D01*
X130299500Y-49818206D01*
X130006651Y-49818206D01*
X130033551Y-49489088D01*
X130035089Y-49477288D01*
X130100859Y-49110926D01*
X130103517Y-49099348D01*
X130204133Y-48740971D01*
X130207890Y-48729702D01*
X130342423Y-48382628D01*
X130347244Y-48371771D01*
X130514443Y-48039224D01*
X130520296Y-48028856D01*
X130718628Y-47713877D01*
X130725440Y-47704132D01*
X130953083Y-47409623D01*
X130960788Y-47400588D01*
X131215627Y-47129281D01*
X131224164Y-47121025D01*
X131503880Y-46875397D01*
X131513162Y-46868005D01*
X131815124Y-46650363D01*
X131825100Y-46643878D01*
X132146547Y-46456208D01*
X132157094Y-46450711D01*
X132495060Y-46294746D01*
X132506085Y-46290287D01*
X132857452Y-46167463D01*
X132868857Y-46164081D01*
X133230395Y-46075530D01*
X133242070Y-46073259D01*
X133610413Y-46019802D01*
X133622264Y-46018660D01*
X133997026Y-46000643D01*
X134002344Y-46000502D01*
X134002733Y-46000500D01*
X134065892Y-46000500D01*
X134067126Y-46000168D01*
X134076267Y-46000122D01*
X134076349Y-46000145D01*
X134076732Y-46000120D01*
X184997093Y-45932484D01*
X185002910Y-45932615D01*
G37*
%TD.AperFunction*%
%TD*%
M02*
