M48
; DRILL file {KiCad 9.0.3} date 2026-04-11T21:11:11-0400
; FORMAT={-:-/ absolute / metric / decimal}
; #@! TF.CreationDate,2026-04-11T21:11:11-04:00
; #@! TF.GenerationSoftware,Kicad,Pcbnew,9.0.3
; #@! TF.FileFunction,Plated,1,4,PTH
FMAT,2
METRIC
; #@! TA.AperFunction,Plated,PTH,ViaDrill
T1C0.400
; #@! TA.AperFunction,Plated,PTH,ComponentDrill
T2C0.800
; #@! TA.AperFunction,Plated,PTH,ComponentDrill
T3C1.000
; #@! TA.AperFunction,Plated,PTH,ComponentDrill
T4C1.300
; #@! TA.AperFunction,Plated,PTH,ComponentDrill
T5C3.200
%
G90
G05
T1
X151.7Y-62.225
X152.0Y-63.575
X153.225Y-56.725
X154.875Y-52.625
X154.975Y-58.05
X155.775Y-52.9
X156.075Y-59.35
X156.65Y-52.7
X156.825Y-50.875
X159.375Y-63.225
X161.0Y-52.9
X165.475Y-71.475
X167.15Y-69.85
X167.9Y-56.3
X168.55Y-57.925
X169.625Y-52.95
X169.625Y-61.175
X170.475Y-59.825
X170.925Y-53.35
X171.55Y-60.95
X172.15Y-53.3
X172.85Y-62.4
X173.575Y-54.95
X174.262Y-59.513
X175.075Y-56.4
X175.523Y-57.294
X176.505Y-57.483
X176.9Y-58.225
X176.924Y-62.176
X177.775Y-63.15
X177.843Y-58.821
X178.739Y-57.65
X178.9Y-68.2
X179.444Y-60.769
X179.825Y-58.425
X180.225Y-69.675
X180.65Y-61.9
X180.7Y-60.725
X181.5Y-63.1
X181.95Y-59.8
X182.075Y-58.1
X182.075Y-71.5
X183.525Y-64.65
X183.675Y-69.1
X184.825Y-71.575
X184.95Y-66.075
X186.0Y-70.325
X186.3Y-67.5
X187.525Y-53.925
T2
X150.261Y-61.084
X152.029Y-59.316
T3
X159.31Y-48.06
X159.31Y-50.6
X161.85Y-48.06
X161.85Y-50.6
X164.39Y-50.6
X164.39Y-48.06
X166.93Y-48.06
X166.93Y-50.6
X169.47Y-48.06
X169.47Y-50.6
X172.01Y-48.06
X172.01Y-50.6
X174.55Y-48.06
X174.55Y-50.6
X184.175Y-56.275
X184.175Y-58.815
X184.175Y-61.355
X186.715Y-56.275
X186.715Y-58.815
X186.715Y-61.355
T4
X141.55Y-51.15
X146.63Y-51.15
T5
X134.0Y-50.0
X185.0Y-50.0
X185.0Y-81.0
M30
