%TF.GenerationSoftware,KiCad,Pcbnew,9.0.3*%
%TF.CreationDate,2026-04-11T21:11:08-04:00*%
%TF.ProjectId,TouchScreenModule_Rev1,546f7563-6853-4637-9265-656e4d6f6475,rev?*%
%TF.SameCoordinates,Original*%
%TF.FileFunction,Copper,L4,Bot*%
%TF.FilePolarity,Positive*%
%FSLAX46Y46*%
G04 Gerber Fmt 4.6, Leading zero omitted, Abs format (unit mm)*
G04 Created by KiCad (PCBNEW 9.0.3) date 2026-04-11 21:11:08*
%MOMM*%
%LPD*%
G01*
G04 APERTURE LIST*
G04 Aperture macros list*
%AMRoundRect*
0 Rectangle with rounded corners*
0 $1 Rounding radius*
0 $2 $3 $4 $5 $6 $7 $8 $9 X,Y pos of 4 corners*
0 Add a 4 corners polygon primitive as box body*
4,1,4,$2,$3,$4,$5,$6,$7,$8,$9,$2,$3,0*
0 Add four circle primitives for the rounded corners*
1,1,$1+$1,$2,$3*
1,1,$1+$1,$4,$5*
1,1,$1+$1,$6,$7*
1,1,$1+$1,$8,$9*
0 Add four rect primitives between the rounded corners*
20,1,$1+$1,$2,$3,$4,$5,0*
20,1,$1+$1,$4,$5,$6,$7,0*
20,1,$1+$1,$6,$7,$8,$9,0*
20,1,$1+$1,$8,$9,$2,$3,0*%
%AMRotRect*
0 Rectangle, with rotation*
0 The origin of the aperture is its center*
0 $1 length*
0 $2 width*
0 $3 Rotation angle, in degrees counterclockwise*
0 Add horizontal line*
21,1,$1,$2,0,0,$3*%
G04 Aperture macros list end*
%TA.AperFunction,ComponentPad*%
%ADD10C,3.600000*%
%TD*%
%TA.AperFunction,ComponentPad*%
%ADD11R,1.700000X1.700000*%
%TD*%
%TA.AperFunction,ComponentPad*%
%ADD12C,1.700000*%
%TD*%
%TA.AperFunction,ComponentPad*%
%ADD13RoundRect,0.250000X1.050000X1.050000X-1.050000X1.050000X-1.050000X-1.050000X1.050000X-1.050000X0*%
%TD*%
%TA.AperFunction,ComponentPad*%
%ADD14C,2.600000*%
%TD*%
%TA.AperFunction,ComponentPad*%
%ADD15RoundRect,0.250000X0.000000X0.777817X-0.777817X0.000000X0.000000X-0.777817X0.777817X0.000000X0*%
%TD*%
%TA.AperFunction,ComponentPad*%
%ADD16C,1.600000*%
%TD*%
%TA.AperFunction,SMDPad,CuDef*%
%ADD17RotRect,0.190000X0.875000X135.000000*%
%TD*%
%TA.AperFunction,SMDPad,CuDef*%
%ADD18RotRect,0.195000X0.875000X135.000000*%
%TD*%
%TA.AperFunction,SMDPad,CuDef*%
%ADD19RotRect,0.190000X0.865000X135.000000*%
%TD*%
%TA.AperFunction,SMDPad,CuDef*%
%ADD20RotRect,0.205000X0.875000X135.000000*%
%TD*%
%TA.AperFunction,SMDPad,CuDef*%
%ADD21RotRect,0.330000X0.875000X135.000000*%
%TD*%
%TA.AperFunction,SMDPad,CuDef*%
%ADD22RotRect,0.320000X0.875000X135.000000*%
%TD*%
%TA.AperFunction,SMDPad,CuDef*%
%ADD23RotRect,0.350000X0.875000X135.000000*%
%TD*%
%TA.AperFunction,ViaPad*%
%ADD24C,0.800000*%
%TD*%
%TA.AperFunction,Conductor*%
%ADD25C,0.762000*%
%TD*%
%TA.AperFunction,Conductor*%
%ADD26C,0.156000*%
%TD*%
%TA.AperFunction,Conductor*%
%ADD27C,0.450000*%
%TD*%
%TA.AperFunction,Conductor*%
%ADD28C,0.127000*%
%TD*%
%TA.AperFunction,Conductor*%
%ADD29C,0.254000*%
%TD*%
G04 APERTURE END LIST*
D10*
%TO.P,H1,1*%
%TO.N,N/C*%
X185000000Y-50000000D03*
%TD*%
%TO.P,H3,1*%
%TO.N,N/C*%
X185000000Y-81000000D03*
%TD*%
D11*
%TO.P,J1,1,Pin_1*%
%TO.N,+5V*%
X159310000Y-50600000D03*
D12*
%TO.P,J1,2,Pin_2*%
%TO.N,+3V3*%
X159310000Y-48060000D03*
%TO.P,J1,3,Pin_3*%
%TO.N,GND*%
X161850000Y-50600000D03*
%TO.P,J1,4,Pin_4*%
%TO.N,Net-(J1-Pin_12)*%
X161850000Y-48060000D03*
%TO.P,J1,5,Pin_5*%
%TO.N,Net-(J1-Pin_5)*%
X164389999Y-50600000D03*
%TO.P,J1,6,Pin_6*%
%TO.N,Net-(J1-Pin_13)*%
X164390000Y-48060000D03*
%TO.P,J1,7,Pin_7*%
%TO.N,Net-(J1-Pin_7)*%
X166930000Y-50600000D03*
%TO.P,J1,8,Pin_8*%
%TO.N,Net-(J1-Pin_8)*%
X166930000Y-48060000D03*
%TO.P,J1,9,Pin_9*%
%TO.N,Net-(J1-Pin_9)*%
X169470000Y-50600000D03*
%TO.P,J1,10,Pin_10*%
%TO.N,Net-(J1-Pin_10)*%
X169470000Y-48060000D03*
%TO.P,J1,11,Pin_11*%
X172010000Y-50600000D03*
%TO.P,J1,12,Pin_12*%
%TO.N,Net-(J1-Pin_12)*%
X172010000Y-48060000D03*
%TO.P,J1,13,Pin_13*%
%TO.N,Net-(J1-Pin_13)*%
X174550000Y-50600000D03*
%TO.P,J1,14,Pin_14*%
%TO.N,Net-(J1-Pin_14)*%
X174550000Y-48060000D03*
%TD*%
D11*
%TO.P,J4,1,Pin_1*%
%TO.N,/Motors/PWM_01*%
X186715000Y-61355000D03*
D12*
%TO.P,J4,2,Pin_2*%
%TO.N,+5V*%
X184175000Y-61355000D03*
%TO.P,J4,3,Pin_3*%
%TO.N,GND*%
X186715000Y-58815000D03*
%TO.P,J4,4,Pin_4*%
X184175000Y-58815000D03*
%TO.P,J4,5,Pin_5*%
%TO.N,+5V*%
X186715000Y-56275001D03*
%TO.P,J4,6,Pin_6*%
%TO.N,/Motors/PWM_01*%
X184175000Y-56275000D03*
%TD*%
D13*
%TO.P,J3,1,Pin_1*%
%TO.N,+12V*%
X146629999Y-51150000D03*
D14*
%TO.P,J3,2,Pin_2*%
%TO.N,GND*%
X141550000Y-51150000D03*
%TD*%
D15*
%TO.P,C6,1*%
%TO.N,+12V*%
X152028677Y-59316117D03*
D16*
%TO.P,C6,2*%
%TO.N,GND*%
X150260910Y-61083884D03*
%TD*%
D10*
%TO.P,H2,1*%
%TO.N,N/C*%
X134000000Y-50000000D03*
%TD*%
D17*
%TO.P,J2,1,1*%
%TO.N,+5V*%
X183237518Y-70708695D03*
D18*
%TO.P,J2,2,2*%
%TO.N,GND*%
X185307573Y-68642175D03*
%TO.P,J2,3,3*%
%TO.N,+5V*%
X182956443Y-70427620D03*
%TO.P,J2,4,4*%
%TO.N,unconnected-(J2-Pad4)*%
X185024731Y-68359332D03*
%TO.P,J2,5,5*%
%TO.N,GND*%
X182673601Y-70144777D03*
%TO.P,J2,6,6*%
%TO.N,unconnected-(J2-Pad6)*%
X184741888Y-68076490D03*
D17*
%TO.P,J2,7,7*%
%TO.N,unconnected-(J2-Pad7)*%
X182388990Y-69860167D03*
D18*
%TO.P,J2,8,8*%
%TO.N,unconnected-(J2-Pad8)*%
X184459045Y-67793647D03*
D17*
%TO.P,J2,9,9*%
%TO.N,unconnected-(J2-Pad9)*%
X182106148Y-69577324D03*
D18*
%TO.P,J2,10,10*%
%TO.N,unconnected-(J2-Pad10)*%
X184176203Y-67510804D03*
D17*
%TO.P,J2,11,11*%
%TO.N,unconnected-(J2-Pad11)*%
X181823305Y-69294481D03*
D18*
%TO.P,J2,12,12*%
%TO.N,GND*%
X183893360Y-67227962D03*
%TO.P,J2,13,13*%
%TO.N,unconnected-(J2-Pad13)*%
X181542230Y-69013406D03*
%TO.P,J2,14,14*%
%TO.N,unconnected-(J2-Pad14)*%
X183610517Y-66945119D03*
%TO.P,J2,15,15*%
%TO.N,GND*%
X181259387Y-68730564D03*
%TO.P,J2,16,16*%
%TO.N,unconnected-(J2-Pad16)*%
X183327675Y-66662276D03*
D17*
%TO.P,J2,17,17*%
%TO.N,unconnected-(J2-Pad17)*%
X180974777Y-68445953D03*
D18*
%TO.P,J2,18,18*%
%TO.N,unconnected-(J2-Pad18)*%
X183044832Y-66379433D03*
%TO.P,J2,19,19*%
%TO.N,unconnected-(J2-Pad19)*%
X180693702Y-68164878D03*
%TO.P,J2,20,20*%
%TO.N,unconnected-(J2-Pad20)*%
X182761989Y-66096591D03*
%TO.P,J2,21,21*%
%TO.N,unconnected-(J2-Pad21)*%
X180410859Y-67882035D03*
%TO.P,J2,22,22*%
%TO.N,GND*%
X182479146Y-65813748D03*
%TO.P,J2,23,23*%
%TO.N,+3V3*%
X180128016Y-67599193D03*
%TO.P,J2,24,24*%
X182196304Y-65530905D03*
%TO.P,J2,25,25*%
%TO.N,GND*%
X179845174Y-67316350D03*
%TO.P,J2,26,26*%
%TO.N,unconnected-(J2-Pad26)*%
X181913461Y-65248063D03*
%TO.P,J2,27,27*%
%TO.N,unconnected-(J2-Pad27)*%
X179562331Y-67033507D03*
D17*
%TO.P,J2,28,28*%
%TO.N,unconnected-(J2-Pad28)*%
X181628850Y-64963452D03*
D18*
%TO.P,J2,29,29*%
%TO.N,unconnected-(J2-Pad29)*%
X179279488Y-66750665D03*
%TO.P,J2,30,30*%
%TO.N,unconnected-(J2-Pad30)*%
X181347776Y-64682377D03*
%TO.P,J2,31,31*%
%TO.N,unconnected-(J2-Pad31)*%
X178996645Y-66467822D03*
%TO.P,J2,32,32*%
%TO.N,GND*%
X181064933Y-64399534D03*
%TO.P,J2,33,33*%
%TO.N,unconnected-(J2-Pad33)*%
X178713803Y-66184979D03*
%TO.P,J2,34,34*%
%TO.N,unconnected-(J2-Pad34)*%
X180782090Y-64116692D03*
D17*
%TO.P,J2,35,35*%
%TO.N,GND*%
X178429192Y-65900369D03*
D18*
%TO.P,J2,36,36*%
%TO.N,unconnected-(J2-Pad36)*%
X180499247Y-63833849D03*
%TO.P,J2,37,37*%
%TO.N,GND*%
X178148117Y-65619294D03*
%TO.P,J2,38,38*%
%TO.N,unconnected-(J2-Pad38)*%
X180216405Y-63551006D03*
%TO.P,J2,39,39*%
%TO.N,GND*%
X177865275Y-65336451D03*
%TO.P,J2,40,40*%
%TO.N,unconnected-(J2-Pad40)*%
X179933562Y-63268164D03*
%TO.P,J2,41,41*%
%TO.N,GND*%
X177582432Y-65053608D03*
%TO.P,J2,42,42*%
X179650719Y-62985321D03*
%TO.P,J2,43,43*%
X177299589Y-64770766D03*
%TO.P,J2,44,44*%
%TO.N,unconnected-(J2-Pad44)*%
X179367877Y-62702478D03*
%TO.P,J2,45,45*%
%TO.N,GND*%
X177016746Y-64487923D03*
%TO.P,J2,46,46*%
%TO.N,Net-(J1-Pin_14)*%
X179085034Y-62419635D03*
%TO.P,J2,47,47*%
%TO.N,GND*%
X176733904Y-64205080D03*
%TO.P,J2,48,48*%
%TO.N,Net-(J1-Pin_8)*%
X178802191Y-62136793D03*
D17*
%TO.P,J2,49,49*%
%TO.N,GND*%
X176449293Y-63920470D03*
D18*
%TO.P,J2,50,50*%
%TO.N,Net-(J1-Pin_7)*%
X178519348Y-61853950D03*
D19*
%TO.P,J2,51,51*%
%TO.N,GND*%
X176169986Y-63634091D03*
D18*
%TO.P,J2,52,52*%
X178236506Y-61571107D03*
%TO.P,J2,53,53*%
X175885376Y-63356552D03*
%TO.P,J2,54,54*%
%TO.N,Net-(J1-Pin_9)*%
X177953663Y-61288265D03*
%TO.P,J2,55,55*%
%TO.N,GND*%
X175602533Y-63073709D03*
%TO.P,J2,56,56*%
%TO.N,Net-(J1-Pin_10)*%
X177670820Y-61005422D03*
%TO.P,J2,57,57*%
%TO.N,GND*%
X175319690Y-62790867D03*
%TO.P,J2,58,58*%
%TO.N,Net-(J1-Pin_12)*%
X177387978Y-60722579D03*
D17*
%TO.P,J2,59,59*%
%TO.N,GND*%
X175035080Y-62506256D03*
%TO.P,J2,60,60*%
%TO.N,Net-(J1-Pin_13)*%
X177103367Y-60437969D03*
%TO.P,J2,61,61*%
%TO.N,GND*%
X174752237Y-62223413D03*
D18*
%TO.P,J2,62,62*%
X176822292Y-60156894D03*
%TO.P,J2,63,63*%
X174471162Y-61942338D03*
%TO.P,J2,64,64*%
%TO.N,Net-(J1-Pin_5)*%
X176539449Y-59874051D03*
%TO.P,J2,65,65*%
%TO.N,GND*%
X174188319Y-61659496D03*
%TO.P,J2,66,66*%
%TO.N,unconnected-(J2-Pad66)*%
X176256607Y-59591208D03*
%TO.P,J2,67,67*%
%TO.N,GND*%
X173905477Y-61376653D03*
%TO.P,J2,68,68*%
%TO.N,unconnected-(J2-Pad68)*%
X175973764Y-59308366D03*
%TO.P,J2,69,69*%
%TO.N,GND*%
X173622634Y-61093810D03*
%TO.P,J2,70,70*%
%TO.N,unconnected-(J2-Pad70)*%
X175690921Y-59025523D03*
D17*
%TO.P,J2,71,71*%
%TO.N,GND*%
X173338023Y-60809200D03*
D18*
%TO.P,J2,72,72*%
X175408079Y-58742680D03*
%TO.P,J2,73,73*%
%TO.N,+3V3*%
X173056949Y-60528125D03*
%TO.P,J2,74,74*%
X175125236Y-58459838D03*
%TO.P,J2,75,75*%
%TO.N,GND*%
X172774106Y-60245282D03*
%TO.P,J2,76,76*%
%TO.N,unconnected-(J2-Pad76)*%
X174842393Y-58176995D03*
%TO.P,J2,77,77*%
%TO.N,unconnected-(J2-Pad77)*%
X172491263Y-59962439D03*
%TO.P,J2,78,78*%
%TO.N,unconnected-(J2-Pad78)*%
X174559550Y-57894152D03*
%TO.P,J2,79,79*%
%TO.N,/Motors/PWM_01*%
X172208420Y-59679597D03*
%TO.P,J2,80,80*%
%TO.N,unconnected-(J2-Pad80)*%
X174276708Y-57611309D03*
%TO.P,J2,81,81*%
%TO.N,unconnected-(J2-Pad81)*%
X171925578Y-59396754D03*
%TO.P,J2,82,82*%
%TO.N,GND*%
X173993865Y-57328467D03*
%TO.P,J2,83,83*%
%TO.N,unconnected-(J2-Pad83)*%
X171642735Y-59113911D03*
%TO.P,J2,84,84*%
%TO.N,unconnected-(J2-Pad84)*%
X173711022Y-57045624D03*
%TO.P,J2,85,85*%
%TO.N,unconnected-(J2-Pad85)*%
X171359892Y-58831069D03*
%TO.P,J2,86,86*%
%TO.N,unconnected-(J2-Pad86)*%
X173428180Y-56762781D03*
%TO.P,J2,87,87*%
%TO.N,unconnected-(J2-Pad87)*%
X171077050Y-58548226D03*
%TO.P,J2,88,88*%
%TO.N,unconnected-(J2-Pad88)*%
X173145337Y-56479939D03*
%TO.P,J2,89,89*%
%TO.N,unconnected-(J2-Pad89)*%
X170794207Y-58265383D03*
%TO.P,J2,90,90*%
%TO.N,unconnected-(J2-Pad90)*%
X172862494Y-56197096D03*
%TO.P,J2,91,91*%
%TO.N,unconnected-(J2-Pad91)*%
X170511364Y-57982540D03*
%TO.P,J2,92,92*%
%TO.N,GND*%
X172579651Y-55914253D03*
D17*
%TO.P,J2,93,93*%
%TO.N,unconnected-(J2-Pad93)*%
X170226754Y-57697930D03*
D18*
%TO.P,J2,94,94*%
%TO.N,unconnected-(J2-Pad94)*%
X172296809Y-55631410D03*
%TO.P,J2,95,95*%
%TO.N,unconnected-(J2-Pad95)*%
X169945679Y-57416855D03*
%TO.P,J2,96,96*%
%TO.N,unconnected-(J2-Pad96)*%
X172013966Y-55348568D03*
%TO.P,J2,97,97*%
%TO.N,+5V*%
X169662836Y-57134012D03*
%TO.P,J2,98,98*%
%TO.N,unconnected-(J2-Pad98)*%
X171731123Y-55065725D03*
D20*
%TO.P,J2,99,99*%
%TO.N,+5V*%
X169376458Y-56847634D03*
%TO.P,J2,100,100*%
%TO.N,unconnected-(J2-Pad100)*%
X171444745Y-54779347D03*
D21*
%TO.P,J2,S1,S1*%
%TO.N,GND*%
X183569859Y-71041035D03*
D22*
%TO.P,J2,S2,S2*%
X185641681Y-68976283D03*
D23*
%TO.P,J2,S3,S3*%
X169031743Y-56502919D03*
%TO.P,J2,S4,S4*%
X171100030Y-54434632D03*
%TD*%
D24*
%TO.N,+5V*%
X156825000Y-50875000D03*
X167150000Y-69850000D03*
X154875000Y-52625000D03*
X187525000Y-53925000D03*
X182075000Y-71500000D03*
X155775000Y-52900000D03*
X156650000Y-52700000D03*
X181950000Y-59800000D03*
X168550000Y-57925000D03*
%TO.N,GND*%
X154975000Y-58050000D03*
X186300000Y-67500000D03*
X153225000Y-56725000D03*
X173575000Y-54950000D03*
X183525000Y-64650000D03*
X175075000Y-56400000D03*
X180650000Y-61900000D03*
X152000000Y-63575000D03*
X151700000Y-62225000D03*
X184950000Y-66075000D03*
X176505236Y-57483371D03*
X171550000Y-60950000D03*
X184825000Y-71575000D03*
X186000000Y-70325000D03*
X180225000Y-69675000D03*
X178900000Y-68200000D03*
X181500000Y-63100000D03*
X165475000Y-71475000D03*
X182075000Y-58100000D03*
X176900000Y-58225000D03*
X161000000Y-52900000D03*
X179443941Y-60768941D03*
X172850000Y-62400000D03*
X167900000Y-56300000D03*
X170925000Y-53350000D03*
X183675000Y-69100000D03*
X156075000Y-59350000D03*
X159375000Y-63225000D03*
%TO.N,Net-(J1-Pin_7)*%
X174261918Y-59513082D03*
X176924418Y-62175582D03*
%TO.N,Net-(J1-Pin_13)*%
X177842882Y-58821017D03*
%TO.N,Net-(J1-Pin_10)*%
X178739207Y-57650000D03*
%TO.N,Net-(J1-Pin_8)*%
X177775000Y-63150000D03*
%TO.N,Net-(J1-Pin_14)*%
X180700000Y-60725000D03*
%TO.N,+3V3*%
X175523358Y-57293853D03*
X169625000Y-61175000D03*
X172150000Y-53300000D03*
%TO.N,Net-(J1-Pin_9)*%
X169625000Y-52950000D03*
X179825000Y-58425000D03*
%TO.N,/Motors/PWM_01*%
X170475000Y-59825000D03*
%TD*%
D25*
%TO.N,+5V*%
X155500000Y-52625000D02*
X155775000Y-52900000D01*
D26*
X169726476Y-57045624D02*
X169429376Y-57045624D01*
D27*
X169429376Y-57045624D02*
X168550000Y-57925000D01*
D25*
X154875000Y-52625000D02*
X155500000Y-52625000D01*
D26*
X183302926Y-70622074D02*
X182952926Y-70622074D01*
X169443633Y-56762781D02*
X169726476Y-57045624D01*
X183020083Y-70339231D02*
X183302926Y-70622074D01*
D27*
X182952926Y-70622074D02*
X182075000Y-71500000D01*
D28*
%TO.N,GND*%
X177300000Y-59375000D02*
X177300000Y-59679186D01*
D26*
X178936775Y-68200000D02*
X178900000Y-68200000D01*
X181500000Y-63100000D02*
X181725000Y-63325000D01*
X173905477Y-57392106D02*
X174897583Y-56400000D01*
X176505236Y-57483371D02*
X176351010Y-57637597D01*
X181725000Y-63325000D02*
X181725000Y-63725000D01*
X181323027Y-68642175D02*
X180290202Y-69675000D01*
D29*
X183638801Y-70957950D02*
X184207950Y-70957950D01*
D26*
X172044639Y-60950000D02*
X172837745Y-60156894D01*
D28*
X177300000Y-59679186D02*
X176822292Y-60156894D01*
D26*
X179139841Y-61073041D02*
X178709823Y-61073041D01*
D29*
X184207950Y-70957950D02*
X184825000Y-71575000D01*
D26*
X168026906Y-56426906D02*
X167900000Y-56300000D01*
D29*
X185555061Y-69041690D02*
X185555061Y-69880061D01*
D26*
X180986826Y-64463174D02*
X180976544Y-64463174D01*
X176351010Y-57637597D02*
X176351010Y-57775000D01*
X180650000Y-61961292D02*
X180650000Y-61900000D01*
X180290202Y-69675000D02*
X180225000Y-69675000D01*
X176351010Y-57775000D02*
X175319690Y-58806320D01*
X173969116Y-61288265D02*
X173961735Y-61288265D01*
D28*
X176900000Y-58975000D02*
X177300000Y-59375000D01*
D26*
X173961735Y-61288265D02*
X172850000Y-62400000D01*
X172491263Y-55977893D02*
X173519156Y-54950000D01*
X173519156Y-54950000D02*
X173575000Y-54950000D01*
D28*
X176900000Y-58225000D02*
X176900000Y-58975000D01*
D26*
X179562331Y-63048961D02*
X180650000Y-61961292D01*
X183804972Y-67291601D02*
X184950000Y-66146573D01*
X184950000Y-66146573D02*
X184950000Y-66075000D01*
X178709823Y-61073041D02*
X178148117Y-61634747D01*
X181725000Y-63725000D02*
X180986826Y-64463174D01*
X173403431Y-60722579D02*
X178494600Y-65813748D01*
X179908813Y-67227962D02*
X178936775Y-68200000D01*
X183525000Y-64743146D02*
X183525000Y-64650000D01*
X174897583Y-56400000D02*
X175075000Y-56400000D01*
X171550000Y-60950000D02*
X172044639Y-60950000D01*
X186300000Y-67625000D02*
X186300000Y-67500000D01*
X182390758Y-65877388D02*
X183525000Y-64743146D01*
X171024017Y-53449017D02*
X170925000Y-53350000D01*
X183675000Y-69118629D02*
X183675000Y-69100000D01*
X179443941Y-60768941D02*
X179139841Y-61073041D01*
X177050000Y-59904437D02*
X176733904Y-60220533D01*
X185219185Y-68705815D02*
X186300000Y-67625000D01*
X171024017Y-54510646D02*
X171024017Y-53449017D01*
X182737240Y-70056389D02*
X183675000Y-69118629D01*
X169107757Y-56426906D02*
X168026906Y-56426906D01*
D29*
X185555061Y-69880061D02*
X186000000Y-70325000D01*
D26*
%TO.N,Net-(J1-Pin_12)*%
X177998674Y-60087134D02*
X178087866Y-60087134D01*
D29*
X178650000Y-58945452D02*
X178644000Y-58939451D01*
X173188000Y-53138000D02*
X173188000Y-49238000D01*
D26*
X177299589Y-60786219D02*
X177998674Y-60087134D01*
D29*
X178644000Y-58939451D02*
X178644000Y-58594000D01*
X178644000Y-58594000D02*
X173188000Y-53138000D01*
X161850000Y-48060000D02*
X163028000Y-46882000D01*
X170832000Y-46882000D02*
X172010000Y-48060000D01*
X173188000Y-49238000D02*
X172010000Y-48060000D01*
D26*
X177308073Y-60786219D02*
X177299589Y-60786219D01*
X178087866Y-60087134D02*
X178437500Y-59737500D01*
D29*
X178437500Y-59737500D02*
X178650000Y-59525000D01*
X178650000Y-59525000D02*
X178650000Y-58945452D01*
X163028000Y-46882000D02*
X170832000Y-46882000D01*
D26*
%TO.N,Net-(J1-Pin_7)*%
X177148836Y-62400000D02*
X177575000Y-62400000D01*
X177575000Y-62400000D02*
X177650000Y-62325000D01*
X177650000Y-62325000D02*
X178023550Y-62325000D01*
X174261918Y-59211918D02*
X166930000Y-51880000D01*
X166930000Y-51880000D02*
X166930000Y-50600000D01*
X174261918Y-59513082D02*
X174261918Y-59211918D01*
X178023550Y-62325000D02*
X178430960Y-61917590D01*
X176924418Y-62175582D02*
X177148836Y-62400000D01*
%TO.N,Net-(J1-Pin_5)*%
X164389999Y-50600000D02*
X174038510Y-60248511D01*
X176140241Y-60248511D02*
X176451061Y-59937691D01*
X174038510Y-60248511D02*
X176140241Y-60248511D01*
%TO.N,Net-(J1-Pin_13)*%
X177770853Y-58893046D02*
X177770853Y-59749269D01*
X177770853Y-59749269D02*
X177016746Y-60503376D01*
X177842882Y-58821017D02*
X177770853Y-58893046D01*
%TO.N,Net-(J1-Pin_10)*%
X179056000Y-59693171D02*
X178605670Y-60143500D01*
X179050000Y-58771281D02*
X179056000Y-58777282D01*
X178605670Y-60143500D02*
X178536374Y-60143500D01*
X179050000Y-57960793D02*
X179050000Y-58771281D01*
X178235740Y-60444134D02*
X178207360Y-60444134D01*
X178536374Y-60143500D02*
X178235740Y-60444134D01*
X178739207Y-57650000D02*
X179050000Y-57960793D01*
X178207360Y-60444134D02*
X177582432Y-61069062D01*
X179056000Y-58777282D02*
X179056000Y-59693171D01*
%TO.N,Net-(J1-Pin_8)*%
X177775000Y-63139235D02*
X177775000Y-63150000D01*
X178713803Y-62200432D02*
X177775000Y-63139235D01*
%TO.N,Net-(J1-Pin_14)*%
X180700000Y-60779920D02*
X178996645Y-62483275D01*
X180700000Y-60725000D02*
X180700000Y-60779920D01*
D28*
%TO.N,+3V3*%
X175523358Y-58061716D02*
X175523358Y-57293853D01*
D27*
X155400000Y-56525000D02*
X154975000Y-56525000D01*
D26*
X171830162Y-61730162D02*
X173120588Y-60439736D01*
X178875000Y-69275000D02*
X179650000Y-68500000D01*
D27*
X153450000Y-55000000D02*
X153450000Y-51200000D01*
D28*
X168375000Y-62425000D02*
X168150000Y-62425000D01*
D26*
X179650000Y-68500000D02*
X179650000Y-68052460D01*
D28*
X169625000Y-61175000D02*
X168375000Y-62425000D01*
D27*
X161300000Y-62425000D02*
X155400000Y-56525000D01*
X171135324Y-62425000D02*
X177985324Y-69275000D01*
D26*
X182107915Y-65594545D02*
X181138730Y-66563730D01*
X181138730Y-66563730D02*
X180191656Y-67510804D01*
D27*
X154975000Y-56525000D02*
X153450000Y-55000000D01*
X177985324Y-69275000D02*
X178875000Y-69275000D01*
X156590000Y-48060000D02*
X159310000Y-48060000D01*
D26*
X179650000Y-68052460D02*
X180191656Y-67510804D01*
D27*
X171830162Y-61730162D02*
X171135324Y-62425000D01*
X153450000Y-51200000D02*
X156590000Y-48060000D01*
X171135324Y-62425000D02*
X168150000Y-62425000D01*
D28*
X175050990Y-58534084D02*
X175523358Y-58061716D01*
D27*
X168150000Y-62425000D02*
X161300000Y-62425000D01*
D26*
%TO.N,Net-(J1-Pin_9)*%
X169470000Y-50600000D02*
X169470000Y-52795000D01*
X169470000Y-52795000D02*
X169625000Y-52950000D01*
X177865275Y-61351904D02*
X178501138Y-60716041D01*
X178538004Y-60716041D02*
X179825000Y-59429045D01*
X178501138Y-60716041D02*
X178538004Y-60716041D01*
X179825000Y-59429045D02*
X179825000Y-58425000D01*
%TO.N,/Motors/PWM_01*%
X170750000Y-60100000D02*
X171788017Y-60100000D01*
X171788017Y-60100000D02*
X172284434Y-59603583D01*
X170475000Y-59825000D02*
X170750000Y-60100000D01*
%TD*%
%TA.AperFunction,Conductor*%
%TO.N,GND*%
G36*
X172834054Y-61646902D02*
G01*
X172878402Y-61675403D01*
X173062480Y-61859481D01*
X173062490Y-61859490D01*
X173094919Y-61885624D01*
X173113661Y-61904365D01*
X173139804Y-61936804D01*
X173139805Y-61936806D01*
X173345328Y-62142329D01*
X173377760Y-62168464D01*
X173396506Y-62187211D01*
X173422635Y-62219635D01*
X173422646Y-62219648D01*
X173628170Y-62425172D01*
X173660607Y-62451311D01*
X173679353Y-62470058D01*
X173705478Y-62502477D01*
X173705489Y-62502490D01*
X173911015Y-62708016D01*
X173943448Y-62734152D01*
X173962192Y-62752897D01*
X173988318Y-62785318D01*
X173988332Y-62785333D01*
X174190311Y-62987313D01*
X174190312Y-62987314D01*
X174224710Y-63015033D01*
X174243457Y-63033780D01*
X174271176Y-63068177D01*
X174271179Y-63068181D01*
X174473154Y-63270156D01*
X174473166Y-63270167D01*
X174507549Y-63297874D01*
X174526295Y-63316619D01*
X174554011Y-63351013D01*
X174759541Y-63556543D01*
X174791978Y-63582682D01*
X174810724Y-63601429D01*
X174836849Y-63633848D01*
X174836860Y-63633861D01*
X175042379Y-63839380D01*
X175042389Y-63839389D01*
X175074818Y-63865523D01*
X175093560Y-63884264D01*
X175119703Y-63916703D01*
X175119704Y-63916705D01*
X175325222Y-64122223D01*
X175325229Y-64122229D01*
X175371860Y-64159808D01*
X175376560Y-64162711D01*
X175407943Y-64190400D01*
X175409605Y-64192463D01*
X175409617Y-64192476D01*
X175611600Y-64394459D01*
X175611613Y-64394470D01*
X175616372Y-64398306D01*
X175644055Y-64429683D01*
X175647802Y-64435749D01*
X175685384Y-64482386D01*
X175685388Y-64482390D01*
X175887367Y-64684370D01*
X175887379Y-64684381D01*
X175921767Y-64712092D01*
X175940513Y-64730837D01*
X175968225Y-64765226D01*
X176173755Y-64970756D01*
X176206187Y-64996891D01*
X176224933Y-65015638D01*
X176251062Y-65048062D01*
X176251073Y-65048075D01*
X176456592Y-65253594D01*
X176456602Y-65253603D01*
X176489031Y-65279737D01*
X176507773Y-65298478D01*
X176533916Y-65330917D01*
X176533917Y-65330919D01*
X176739440Y-65536442D01*
X176771877Y-65562581D01*
X176790623Y-65581328D01*
X176816748Y-65613747D01*
X176816759Y-65613760D01*
X177022278Y-65819279D01*
X177022288Y-65819288D01*
X177054717Y-65845422D01*
X177073459Y-65864163D01*
X177099602Y-65896602D01*
X177099603Y-65896604D01*
X177305126Y-66102127D01*
X177337558Y-66128262D01*
X177356304Y-66147009D01*
X177382433Y-66179433D01*
X177382444Y-66179446D01*
X177587970Y-66384972D01*
X177620403Y-66411108D01*
X177639147Y-66429853D01*
X177665273Y-66462274D01*
X177665287Y-66462289D01*
X177867266Y-66664268D01*
X177867275Y-66664276D01*
X177899834Y-66690515D01*
X177918578Y-66709259D01*
X177947741Y-66745449D01*
X178153323Y-66951031D01*
X178153331Y-66951038D01*
X178185729Y-66977146D01*
X178204466Y-66995882D01*
X178230585Y-67028294D01*
X178436173Y-67233881D01*
X178468572Y-67259990D01*
X178487317Y-67278735D01*
X178513426Y-67311135D01*
X178719008Y-67516717D01*
X178719020Y-67516728D01*
X178751415Y-67542833D01*
X178770162Y-67561580D01*
X178796262Y-67593968D01*
X178796273Y-67593981D01*
X179001855Y-67799563D01*
X179001859Y-67799566D01*
X179035214Y-67826446D01*
X179075062Y-67883838D01*
X179077556Y-67953663D01*
X179077183Y-67955089D01*
X179071500Y-67976297D01*
X179071500Y-68209015D01*
X179051815Y-68276054D01*
X179035181Y-68296696D01*
X178818697Y-68513181D01*
X178757374Y-68546666D01*
X178731016Y-68549500D01*
X178337198Y-68549500D01*
X178270159Y-68529815D01*
X178249517Y-68513181D01*
X172249017Y-62512681D01*
X172215532Y-62451358D01*
X172220516Y-62381666D01*
X172249015Y-62337320D01*
X172393694Y-62192642D01*
X172473091Y-62073815D01*
X172527781Y-61941782D01*
X172543067Y-61864929D01*
X172551832Y-61848172D01*
X172555852Y-61829696D01*
X172574596Y-61804654D01*
X172575451Y-61803021D01*
X172576895Y-61801549D01*
X172703045Y-61675399D01*
X172764362Y-61641918D01*
X172834054Y-61646902D01*
G37*
%TD.AperFunction*%
%TA.AperFunction,Conductor*%
G36*
X162965270Y-51361717D02*
G01*
X162965270Y-51361716D01*
X163004623Y-51307553D01*
X163009230Y-51298511D01*
X163057201Y-51247712D01*
X163125021Y-51230912D01*
X163191157Y-51253446D01*
X163230201Y-51298501D01*
X163234948Y-51307817D01*
X163359889Y-51479786D01*
X163510212Y-51630109D01*
X163682178Y-51755048D01*
X163682180Y-51755049D01*
X163682183Y-51755051D01*
X163871587Y-51851557D01*
X164073756Y-51917246D01*
X164283712Y-51950500D01*
X164283713Y-51950500D01*
X164496285Y-51950500D01*
X164496286Y-51950500D01*
X164706242Y-51917246D01*
X164772007Y-51895876D01*
X164841845Y-51893881D01*
X164898004Y-51926127D01*
X168688291Y-55716414D01*
X168721776Y-55777737D01*
X168716792Y-55847429D01*
X168688292Y-55891775D01*
X168678190Y-55901877D01*
X168678190Y-55901879D01*
X168986134Y-56209823D01*
X168990471Y-56217767D01*
X168997720Y-56223193D01*
X169006956Y-56247955D01*
X169019619Y-56271146D01*
X169018973Y-56280174D01*
X169022137Y-56288657D01*
X169016520Y-56314479D01*
X169014635Y-56340838D01*
X169008817Y-56349890D01*
X169007286Y-56356930D01*
X168986135Y-56385185D01*
X168914010Y-56457311D01*
X168852687Y-56490796D01*
X168782995Y-56485812D01*
X168738647Y-56457311D01*
X168430702Y-56149366D01*
X168211270Y-56368797D01*
X168211264Y-56368804D01*
X168173686Y-56415435D01*
X168173685Y-56415437D01*
X168113959Y-56546217D01*
X168093499Y-56688533D01*
X168093499Y-56688535D01*
X168113959Y-56830852D01*
X168113959Y-56830853D01*
X168176137Y-56967003D01*
X168186081Y-57036161D01*
X168157056Y-57099717D01*
X168128041Y-57122889D01*
X168128518Y-57123603D01*
X167975965Y-57225535D01*
X167975961Y-57225538D01*
X167850538Y-57350961D01*
X167850535Y-57350965D01*
X167751990Y-57498446D01*
X167751983Y-57498459D01*
X167684106Y-57662332D01*
X167684103Y-57662341D01*
X167649500Y-57836304D01*
X167649500Y-58013695D01*
X167684103Y-58187658D01*
X167684106Y-58187667D01*
X167751983Y-58351540D01*
X167751990Y-58351553D01*
X167850535Y-58499034D01*
X167850538Y-58499038D01*
X167975961Y-58624461D01*
X167975965Y-58624464D01*
X168123446Y-58723009D01*
X168123459Y-58723016D01*
X168246363Y-58773923D01*
X168287334Y-58790894D01*
X168287336Y-58790894D01*
X168287341Y-58790896D01*
X168461304Y-58825499D01*
X168461307Y-58825500D01*
X168461309Y-58825500D01*
X168638693Y-58825500D01*
X168638694Y-58825499D01*
X168696682Y-58813964D01*
X168812658Y-58790896D01*
X168812661Y-58790894D01*
X168812666Y-58790894D01*
X168976547Y-58723013D01*
X169124035Y-58624464D01*
X169249464Y-58499035D01*
X169346512Y-58353794D01*
X169361616Y-58341170D01*
X169373050Y-58325145D01*
X169387875Y-58319225D01*
X169400124Y-58308989D01*
X169419655Y-58306535D01*
X169437938Y-58299236D01*
X169453610Y-58302271D01*
X169469449Y-58300282D01*
X169487206Y-58308777D01*
X169506534Y-58312521D01*
X169528338Y-58328456D01*
X169532477Y-58330437D01*
X169535265Y-58333019D01*
X169536286Y-58333994D01*
X169664514Y-58462221D01*
X169702943Y-58493188D01*
X169706715Y-58496792D01*
X169708019Y-58499055D01*
X169717617Y-58508654D01*
X169745300Y-58543008D01*
X169745303Y-58543011D01*
X169745304Y-58543012D01*
X169950892Y-58748599D01*
X169950896Y-58748602D01*
X169983291Y-58774708D01*
X169998284Y-58789014D01*
X170000209Y-58791186D01*
X170028147Y-58825855D01*
X170052657Y-58850365D01*
X170055129Y-58853154D01*
X170068474Y-58881533D01*
X170083495Y-58909041D01*
X170083219Y-58912888D01*
X170084862Y-58916381D01*
X170080747Y-58947460D01*
X170078511Y-58978733D01*
X170076198Y-58981822D01*
X170075692Y-58985647D01*
X170055425Y-59009570D01*
X170036639Y-59034666D01*
X170031220Y-59038501D01*
X169900965Y-59125535D01*
X169900961Y-59125538D01*
X169775538Y-59250961D01*
X169775535Y-59250965D01*
X169676990Y-59398446D01*
X169676983Y-59398459D01*
X169609106Y-59562332D01*
X169609103Y-59562341D01*
X169574500Y-59736304D01*
X169574500Y-59913695D01*
X169609103Y-60087658D01*
X169609106Y-60087667D01*
X169617242Y-60107309D01*
X169624709Y-60176779D01*
X169593433Y-60239257D01*
X169533343Y-60274908D01*
X169526872Y-60276376D01*
X169362340Y-60309104D01*
X169362332Y-60309106D01*
X169198459Y-60376983D01*
X169198446Y-60376990D01*
X169050965Y-60475535D01*
X169050961Y-60475538D01*
X168925538Y-60600961D01*
X168925535Y-60600965D01*
X168826990Y-60748446D01*
X168826983Y-60748459D01*
X168759106Y-60912332D01*
X168759103Y-60912341D01*
X168724500Y-61086304D01*
X168724500Y-61226521D01*
X168704815Y-61293560D01*
X168688181Y-61314202D01*
X168339203Y-61663181D01*
X168277880Y-61696666D01*
X168251522Y-61699500D01*
X161651874Y-61699500D01*
X161584835Y-61679815D01*
X161564193Y-61663181D01*
X155862483Y-55961470D01*
X155862482Y-55961469D01*
X155758176Y-55891775D01*
X155743653Y-55882071D01*
X155611620Y-55827381D01*
X155611614Y-55827379D01*
X155471457Y-55799500D01*
X155471455Y-55799500D01*
X155326874Y-55799500D01*
X155259835Y-55779815D01*
X155239193Y-55763181D01*
X154211819Y-54735807D01*
X154178334Y-54674484D01*
X154175500Y-54648126D01*
X154175500Y-53472619D01*
X154195185Y-53405580D01*
X154247989Y-53359825D01*
X154317147Y-53349881D01*
X154368389Y-53369516D01*
X154448453Y-53423013D01*
X154448455Y-53423014D01*
X154448459Y-53423016D01*
X154540585Y-53461175D01*
X154612334Y-53490894D01*
X154612336Y-53490894D01*
X154612341Y-53490896D01*
X154786304Y-53525499D01*
X154786307Y-53525500D01*
X154786309Y-53525500D01*
X154963692Y-53525500D01*
X154975703Y-53523110D01*
X155034901Y-53511335D01*
X155104489Y-53517561D01*
X155146773Y-53545272D01*
X155200961Y-53599461D01*
X155200965Y-53599464D01*
X155348446Y-53698009D01*
X155348459Y-53698016D01*
X155469155Y-53748009D01*
X155512334Y-53765894D01*
X155512336Y-53765894D01*
X155512341Y-53765896D01*
X155686304Y-53800499D01*
X155686307Y-53800500D01*
X155686309Y-53800500D01*
X155863693Y-53800500D01*
X155863694Y-53800499D01*
X155921682Y-53788964D01*
X156037658Y-53765896D01*
X156037661Y-53765894D01*
X156037666Y-53765894D01*
X156201547Y-53698013D01*
X156201552Y-53698009D01*
X156201555Y-53698008D01*
X156238818Y-53673108D01*
X156349035Y-53599464D01*
X156349038Y-53599460D01*
X156353827Y-53596261D01*
X156420504Y-53575382D01*
X156446911Y-53577745D01*
X156561306Y-53600500D01*
X156561309Y-53600500D01*
X156738693Y-53600500D01*
X156738694Y-53600499D01*
X156822778Y-53583774D01*
X156912658Y-53565896D01*
X156912661Y-53565894D01*
X156912666Y-53565894D01*
X157076547Y-53498013D01*
X157224035Y-53399464D01*
X157349464Y-53274035D01*
X157448013Y-53126547D01*
X157515894Y-52962666D01*
X157516737Y-52958432D01*
X157549700Y-52792712D01*
X157550500Y-52788691D01*
X157550500Y-52611309D01*
X157550500Y-52611306D01*
X157550499Y-52611304D01*
X157515896Y-52437341D01*
X157515893Y-52437332D01*
X157510872Y-52425211D01*
X157496311Y-52390055D01*
X157448016Y-52273459D01*
X157448009Y-52273446D01*
X157349464Y-52125965D01*
X157349461Y-52125961D01*
X157224038Y-52000538D01*
X157124861Y-51934269D01*
X157080057Y-51880656D01*
X157071350Y-51811331D01*
X157101505Y-51748304D01*
X157146297Y-51716608D01*
X157251547Y-51673013D01*
X157399035Y-51574464D01*
X157524464Y-51449035D01*
X157623013Y-51301547D01*
X157690894Y-51137666D01*
X157713883Y-51022091D01*
X157746267Y-50960181D01*
X157806983Y-50925607D01*
X157876752Y-50929346D01*
X157933425Y-50970212D01*
X157959006Y-51035230D01*
X157959500Y-51046283D01*
X157959500Y-51497870D01*
X157959501Y-51497876D01*
X157965908Y-51557483D01*
X158016202Y-51692328D01*
X158016206Y-51692335D01*
X158102452Y-51807544D01*
X158102455Y-51807547D01*
X158217664Y-51893793D01*
X158217671Y-51893797D01*
X158352517Y-51944091D01*
X158352516Y-51944091D01*
X158359444Y-51944835D01*
X158412127Y-51950500D01*
X160207872Y-51950499D01*
X160267483Y-51944091D01*
X160402331Y-51893796D01*
X160517546Y-51807546D01*
X160603796Y-51692331D01*
X160654091Y-51557483D01*
X160660500Y-51497873D01*
X160660499Y-51473979D01*
X160663330Y-51460963D01*
X160673940Y-51441525D01*
X160680179Y-51420275D01*
X160696803Y-51399643D01*
X160696808Y-51399636D01*
X160696811Y-51399634D01*
X160696818Y-51399626D01*
X161367037Y-50729408D01*
X161384075Y-50792993D01*
X161449901Y-50907007D01*
X161542993Y-51000099D01*
X161657007Y-51065925D01*
X161720590Y-51082962D01*
X161088282Y-51715269D01*
X161088282Y-51715270D01*
X161142449Y-51754624D01*
X161331782Y-51851095D01*
X161533870Y-51916757D01*
X161743754Y-51950000D01*
X161956246Y-51950000D01*
X162166127Y-51916757D01*
X162166130Y-51916757D01*
X162368217Y-51851095D01*
X162557554Y-51754622D01*
X162611716Y-51715270D01*
X162611717Y-51715270D01*
X161979408Y-51082962D01*
X162042993Y-51065925D01*
X162157007Y-51000099D01*
X162250099Y-50907007D01*
X162315925Y-50792993D01*
X162332962Y-50729408D01*
X162965270Y-51361717D01*
G37*
%TD.AperFunction*%
%TA.AperFunction,Conductor*%
G36*
X171831378Y-60698185D02*
G01*
X171877133Y-60750989D01*
X171887077Y-60820147D01*
X171858052Y-60883703D01*
X171852033Y-60890167D01*
X171789764Y-60952437D01*
X171758880Y-60983321D01*
X171697556Y-61016805D01*
X171695391Y-61017256D01*
X171618547Y-61032541D01*
X171618541Y-61032543D01*
X171486510Y-61087232D01*
X171367679Y-61166631D01*
X171367678Y-61166632D01*
X170871131Y-61663181D01*
X170844203Y-61677884D01*
X170818385Y-61694477D01*
X170812184Y-61695368D01*
X170809808Y-61696666D01*
X170783450Y-61699500D01*
X170568018Y-61699500D01*
X170500979Y-61679815D01*
X170455224Y-61627011D01*
X170445280Y-61557853D01*
X170453457Y-61528048D01*
X170481110Y-61461286D01*
X170490894Y-61437666D01*
X170495478Y-61414624D01*
X170525499Y-61263695D01*
X170525500Y-61263693D01*
X170525500Y-61086306D01*
X170525499Y-61086304D01*
X170490896Y-60912341D01*
X170490893Y-60912332D01*
X170482758Y-60892692D01*
X170480631Y-60872914D01*
X170473650Y-60854289D01*
X170476973Y-60838889D01*
X170475289Y-60823223D01*
X170484192Y-60805436D01*
X170488389Y-60785992D01*
X170499513Y-60774831D01*
X170506565Y-60760744D01*
X170523669Y-60750595D01*
X170537714Y-60736505D01*
X170562794Y-60727381D01*
X170566654Y-60725092D01*
X170570762Y-60724117D01*
X170571918Y-60723863D01*
X170737666Y-60690894D01*
X170754959Y-60683730D01*
X170765695Y-60681377D01*
X170774645Y-60682002D01*
X170792252Y-60678500D01*
X171764339Y-60678500D01*
X171831378Y-60698185D01*
G37*
%TD.AperFunction*%
%TA.AperFunction,Conductor*%
G36*
X179731762Y-60442917D02*
G01*
X179787695Y-60484789D01*
X179812112Y-60550253D01*
X179810046Y-60583289D01*
X179799500Y-60636309D01*
X179799500Y-60810935D01*
X179779815Y-60877974D01*
X179763181Y-60898616D01*
X179414544Y-61247252D01*
X179406599Y-61251589D01*
X179401174Y-61258838D01*
X179376411Y-61268074D01*
X179353221Y-61280737D01*
X179344192Y-61280091D01*
X179335710Y-61283255D01*
X179309890Y-61277638D01*
X179283529Y-61275753D01*
X179274474Y-61269933D01*
X179267437Y-61268403D01*
X179239185Y-61247255D01*
X179119726Y-61127797D01*
X179086243Y-61066477D01*
X179091227Y-60996785D01*
X179119726Y-60952440D01*
X179600750Y-60471416D01*
X179662070Y-60437933D01*
X179731762Y-60442917D01*
G37*
%TD.AperFunction*%
%TA.AperFunction,Conductor*%
G36*
X186249075Y-59007993D02*
G01*
X186314901Y-59122007D01*
X186407993Y-59215099D01*
X186522007Y-59280925D01*
X186585590Y-59297962D01*
X185915370Y-59968181D01*
X185854047Y-60001666D01*
X185827698Y-60004500D01*
X185817134Y-60004500D01*
X185817123Y-60004501D01*
X185757516Y-60010908D01*
X185622671Y-60061202D01*
X185622664Y-60061206D01*
X185507455Y-60147452D01*
X185507452Y-60147455D01*
X185421206Y-60262664D01*
X185421203Y-60262669D01*
X185372189Y-60394083D01*
X185330317Y-60450016D01*
X185264853Y-60474433D01*
X185196580Y-60459581D01*
X185168326Y-60438430D01*
X185054786Y-60324890D01*
X184882817Y-60199949D01*
X184873504Y-60195204D01*
X184822707Y-60147230D01*
X184805912Y-60079409D01*
X184828449Y-60013274D01*
X184873507Y-59974232D01*
X184882555Y-59969622D01*
X184936716Y-59930270D01*
X184936717Y-59930270D01*
X184304408Y-59297962D01*
X184367993Y-59280925D01*
X184482007Y-59215099D01*
X184575099Y-59122007D01*
X184640925Y-59007993D01*
X184657962Y-58944408D01*
X185290270Y-59576717D01*
X185290270Y-59576716D01*
X185329622Y-59522554D01*
X185334514Y-59512954D01*
X185382488Y-59462157D01*
X185450308Y-59445361D01*
X185516444Y-59467897D01*
X185555486Y-59512954D01*
X185560375Y-59522550D01*
X185599728Y-59576716D01*
X186232037Y-58944408D01*
X186249075Y-59007993D01*
G37*
%TD.AperFunction*%
%TA.AperFunction,Conductor*%
G36*
X176561588Y-57416180D02*
G01*
X176608017Y-57445436D01*
X177188809Y-58026228D01*
X177222294Y-58087551D01*
X177217310Y-58157243D01*
X177188809Y-58201590D01*
X177143420Y-58246978D01*
X177143417Y-58246982D01*
X177044872Y-58394463D01*
X177044865Y-58394476D01*
X176976988Y-58558349D01*
X176976986Y-58558357D01*
X176951450Y-58686732D01*
X176919065Y-58748643D01*
X176858349Y-58783217D01*
X176788579Y-58779476D01*
X176742152Y-58750222D01*
X176700683Y-58708753D01*
X176534236Y-58542307D01*
X176501834Y-58516195D01*
X176483090Y-58497450D01*
X176456989Y-58465061D01*
X176456978Y-58465048D01*
X176251400Y-58259471D01*
X176251393Y-58259464D01*
X176217158Y-58231875D01*
X176203658Y-58219223D01*
X176125021Y-58133641D01*
X176110694Y-58104544D01*
X176095163Y-58076101D01*
X176095356Y-58073394D01*
X176094157Y-58070958D01*
X176097834Y-58038744D01*
X176100147Y-58006409D01*
X176101823Y-58003799D01*
X176102082Y-58001539D01*
X176107687Y-57994675D01*
X176128646Y-57962063D01*
X176222822Y-57867888D01*
X176321371Y-57720400D01*
X176389252Y-57556519D01*
X176398719Y-57508924D01*
X176431103Y-57447015D01*
X176491819Y-57412441D01*
X176561588Y-57416180D01*
G37*
%TD.AperFunction*%
%TA.AperFunction,Conductor*%
G36*
X185516440Y-56928998D02*
G01*
X185555481Y-56974051D01*
X185559946Y-56982813D01*
X185559948Y-56982816D01*
X185684890Y-57154787D01*
X185835213Y-57305110D01*
X186007179Y-57430049D01*
X186007181Y-57430050D01*
X186007184Y-57430052D01*
X186016487Y-57434792D01*
X186016495Y-57434796D01*
X186067291Y-57482770D01*
X186084086Y-57550591D01*
X186061549Y-57616726D01*
X186016501Y-57655763D01*
X186007440Y-57660380D01*
X185953282Y-57699727D01*
X185953282Y-57699728D01*
X186585591Y-58332037D01*
X186522007Y-58349075D01*
X186407993Y-58414901D01*
X186314901Y-58507993D01*
X186249075Y-58622007D01*
X186232037Y-58685590D01*
X185599728Y-58053282D01*
X185599727Y-58053282D01*
X185560380Y-58107440D01*
X185555483Y-58117051D01*
X185507506Y-58167845D01*
X185439684Y-58184638D01*
X185373550Y-58162098D01*
X185334516Y-58117048D01*
X185329626Y-58107452D01*
X185290270Y-58053282D01*
X185290269Y-58053282D01*
X184657962Y-58685590D01*
X184640925Y-58622007D01*
X184575099Y-58507993D01*
X184482007Y-58414901D01*
X184367993Y-58349075D01*
X184304409Y-58332037D01*
X184936716Y-57699728D01*
X184882547Y-57660373D01*
X184882547Y-57660372D01*
X184873500Y-57655763D01*
X184822706Y-57607788D01*
X184805912Y-57539966D01*
X184828451Y-57473832D01*
X184873508Y-57434793D01*
X184882816Y-57430051D01*
X184962007Y-57372515D01*
X185054786Y-57305109D01*
X185054788Y-57305106D01*
X185054792Y-57305104D01*
X185205104Y-57154792D01*
X185205108Y-57154787D01*
X185205109Y-57154786D01*
X185330048Y-56982820D01*
X185330050Y-56982817D01*
X185330051Y-56982816D01*
X185334512Y-56974058D01*
X185382483Y-56923262D01*
X185450303Y-56906464D01*
X185516440Y-56928998D01*
G37*
%TD.AperFunction*%
%TA.AperFunction,Conductor*%
G36*
X173030565Y-53867984D02*
G01*
X175371774Y-56209193D01*
X175405259Y-56270516D01*
X175400275Y-56340208D01*
X175358403Y-56396141D01*
X175308286Y-56418491D01*
X175260696Y-56427957D01*
X175260690Y-56427959D01*
X175096817Y-56495836D01*
X175096804Y-56495843D01*
X174949323Y-56594388D01*
X174949319Y-56594391D01*
X174855148Y-56688563D01*
X174848371Y-56692263D01*
X174843877Y-56698542D01*
X174818134Y-56708773D01*
X174793825Y-56722048D01*
X174786123Y-56721497D01*
X174778949Y-56724349D01*
X174751764Y-56719040D01*
X174724133Y-56717064D01*
X174716223Y-56712099D01*
X174710375Y-56710957D01*
X174686143Y-56693217D01*
X174681676Y-56690413D01*
X174515432Y-56531113D01*
X174514132Y-56528849D01*
X174504671Y-56519388D01*
X174477079Y-56485148D01*
X174477077Y-56485146D01*
X174271501Y-56279571D01*
X174271495Y-56279565D01*
X174239094Y-56253455D01*
X174220349Y-56234709D01*
X174211069Y-56223193D01*
X174194240Y-56202309D01*
X174194239Y-56202308D01*
X174194235Y-56202303D01*
X173988659Y-55996728D01*
X173988653Y-55996722D01*
X173956247Y-55970608D01*
X173937502Y-55951862D01*
X173911396Y-55919466D01*
X173874000Y-55882070D01*
X173705809Y-55713880D01*
X173673407Y-55687768D01*
X173654663Y-55669023D01*
X173628562Y-55636634D01*
X173628551Y-55636621D01*
X173422969Y-55431039D01*
X173406499Y-55417767D01*
X173388727Y-55403445D01*
X173369984Y-55384702D01*
X173345327Y-55354104D01*
X173139804Y-55148581D01*
X173139794Y-55148572D01*
X173109200Y-55123917D01*
X173090456Y-55105172D01*
X173063287Y-55071457D01*
X173062869Y-55070938D01*
X173062868Y-55070937D01*
X173062864Y-55070932D01*
X172857288Y-54865357D01*
X172857282Y-54865351D01*
X172824876Y-54839237D01*
X172806131Y-54820491D01*
X172780025Y-54788095D01*
X172734785Y-54742855D01*
X172574438Y-54582509D01*
X172542036Y-54556397D01*
X172530328Y-54545654D01*
X172526636Y-54541803D01*
X172497183Y-54505253D01*
X172362505Y-54370575D01*
X172361588Y-54369619D01*
X172346071Y-54339716D01*
X172329938Y-54310170D01*
X172330035Y-54308811D01*
X172329407Y-54307601D01*
X172332520Y-54274063D01*
X172334922Y-54240478D01*
X172335739Y-54239386D01*
X172335865Y-54238030D01*
X172356617Y-54211497D01*
X172376794Y-54184545D01*
X172378289Y-54183788D01*
X172378910Y-54182995D01*
X172381964Y-54181928D01*
X172407386Y-54169065D01*
X172407038Y-54168225D01*
X172576540Y-54098016D01*
X172576540Y-54098015D01*
X172576547Y-54098013D01*
X172724035Y-53999464D01*
X172778057Y-53945442D01*
X172853772Y-53869728D01*
X172855368Y-53871324D01*
X172904766Y-53837669D01*
X172974610Y-53835792D01*
X173030565Y-53867984D01*
G37*
%TD.AperFunction*%
%TA.AperFunction,Conductor*%
G36*
X170811444Y-51253999D02*
G01*
X170850484Y-51299054D01*
X170851755Y-51301547D01*
X170854951Y-51307820D01*
X170979890Y-51479786D01*
X171130213Y-51630109D01*
X171302179Y-51755048D01*
X171302181Y-51755049D01*
X171302184Y-51755051D01*
X171491588Y-51851557D01*
X171693757Y-51917246D01*
X171903713Y-51950500D01*
X171903714Y-51950500D01*
X172116286Y-51950500D01*
X172116287Y-51950500D01*
X172326243Y-51917246D01*
X172398183Y-51893870D01*
X172468023Y-51891876D01*
X172527856Y-51927956D01*
X172558684Y-51990657D01*
X172560500Y-52011802D01*
X172560500Y-52312417D01*
X172540815Y-52379456D01*
X172488011Y-52425211D01*
X172418853Y-52435155D01*
X172412309Y-52434034D01*
X172238695Y-52399500D01*
X172238691Y-52399500D01*
X172061309Y-52399500D01*
X172061306Y-52399500D01*
X171887341Y-52434103D01*
X171887332Y-52434106D01*
X171723459Y-52501983D01*
X171723446Y-52501990D01*
X171575965Y-52600535D01*
X171575961Y-52600538D01*
X171450538Y-52725961D01*
X171450535Y-52725965D01*
X171351990Y-52873446D01*
X171351983Y-52873459D01*
X171284106Y-53037332D01*
X171284103Y-53037341D01*
X171249500Y-53211304D01*
X171249500Y-53394136D01*
X171229815Y-53461175D01*
X171177011Y-53506930D01*
X171151830Y-53514324D01*
X171151838Y-53514350D01*
X171143326Y-53516848D01*
X171012548Y-53576574D01*
X171012546Y-53576575D01*
X170965915Y-53614153D01*
X170965908Y-53614159D01*
X170746477Y-53833591D01*
X171054422Y-54141536D01*
X171058760Y-54149481D01*
X171066008Y-54154907D01*
X171075242Y-54179666D01*
X171087907Y-54202859D01*
X171087261Y-54211888D01*
X171090425Y-54220371D01*
X171084808Y-54246191D01*
X171082923Y-54272551D01*
X171077104Y-54281604D01*
X171075573Y-54288644D01*
X171054422Y-54316898D01*
X170982296Y-54389024D01*
X170920973Y-54422509D01*
X170851281Y-54417525D01*
X170806934Y-54389024D01*
X170498989Y-54081079D01*
X170311776Y-54268292D01*
X170250453Y-54301777D01*
X170180761Y-54296793D01*
X170136414Y-54268292D01*
X169874887Y-54006765D01*
X169841402Y-53945442D01*
X169846386Y-53875750D01*
X169888258Y-53819817D01*
X169915107Y-53804527D01*
X170051547Y-53748013D01*
X170199035Y-53649464D01*
X170324464Y-53524035D01*
X170423013Y-53376547D01*
X170490894Y-53212666D01*
X170493606Y-53199035D01*
X170525499Y-53038695D01*
X170525500Y-53038693D01*
X170525500Y-52861306D01*
X170525499Y-52861304D01*
X170490896Y-52687341D01*
X170490893Y-52687332D01*
X170482840Y-52667891D01*
X170454942Y-52600538D01*
X170423016Y-52523459D01*
X170423009Y-52523446D01*
X170324464Y-52375965D01*
X170324461Y-52375961D01*
X170199038Y-52250538D01*
X170199034Y-52250535D01*
X170103609Y-52186774D01*
X170098518Y-52180682D01*
X170091297Y-52177385D01*
X170076433Y-52154257D01*
X170058804Y-52133162D01*
X170056852Y-52123787D01*
X170053523Y-52118607D01*
X170048500Y-52083672D01*
X170048500Y-51896927D01*
X170068185Y-51829888D01*
X170116204Y-51786443D01*
X170177816Y-51755051D01*
X170349792Y-51630104D01*
X170500104Y-51479792D01*
X170500106Y-51479788D01*
X170500109Y-51479786D01*
X170625048Y-51307820D01*
X170625050Y-51307817D01*
X170625051Y-51307816D01*
X170629514Y-51299054D01*
X170677488Y-51248259D01*
X170745308Y-51231463D01*
X170811444Y-51253999D01*
G37*
%TD.AperFunction*%
%TA.AperFunction,Conductor*%
G36*
X160651444Y-48713999D02*
G01*
X160690486Y-48759056D01*
X160694951Y-48767820D01*
X160819890Y-48939786D01*
X160970213Y-49090109D01*
X161142179Y-49215048D01*
X161142181Y-49215049D01*
X161142184Y-49215051D01*
X161151493Y-49219794D01*
X161202290Y-49267766D01*
X161219087Y-49335587D01*
X161196552Y-49401722D01*
X161151505Y-49440760D01*
X161142446Y-49445376D01*
X161142440Y-49445380D01*
X161088282Y-49484727D01*
X161088282Y-49484728D01*
X161720591Y-50117037D01*
X161657007Y-50134075D01*
X161542993Y-50199901D01*
X161449901Y-50292993D01*
X161384075Y-50407007D01*
X161367037Y-50470591D01*
X160696818Y-49800372D01*
X160663333Y-49739049D01*
X160660499Y-49712691D01*
X160660499Y-49702129D01*
X160660498Y-49702123D01*
X160660497Y-49702116D01*
X160654091Y-49642517D01*
X160626551Y-49568679D01*
X160603797Y-49507671D01*
X160603793Y-49507664D01*
X160517547Y-49392455D01*
X160517544Y-49392452D01*
X160402335Y-49306206D01*
X160402328Y-49306202D01*
X160270917Y-49257189D01*
X160214983Y-49215318D01*
X160190566Y-49149853D01*
X160205418Y-49081580D01*
X160226563Y-49053332D01*
X160340104Y-48939792D01*
X160465051Y-48767816D01*
X160469514Y-48759054D01*
X160517488Y-48708259D01*
X160585308Y-48691463D01*
X160651444Y-48713999D01*
G37*
%TD.AperFunction*%
%TA.AperFunction,Conductor*%
G36*
X163191444Y-48713999D02*
G01*
X163230486Y-48759056D01*
X163234951Y-48767820D01*
X163359890Y-48939786D01*
X163510213Y-49090109D01*
X163682179Y-49215048D01*
X163682181Y-49215049D01*
X163682184Y-49215051D01*
X163690942Y-49219513D01*
X163741739Y-49267487D01*
X163758535Y-49335307D01*
X163735999Y-49401443D01*
X163690952Y-49440480D01*
X163682180Y-49444950D01*
X163510212Y-49569890D01*
X163359889Y-49720213D01*
X163234949Y-49892181D01*
X163230200Y-49901501D01*
X163182222Y-49952294D01*
X163114401Y-49969086D01*
X163048267Y-49946545D01*
X163009231Y-49901491D01*
X163004624Y-49892449D01*
X162965270Y-49838282D01*
X162965269Y-49838282D01*
X162332962Y-50470590D01*
X162315925Y-50407007D01*
X162250099Y-50292993D01*
X162157007Y-50199901D01*
X162042993Y-50134075D01*
X161979409Y-50117037D01*
X162611716Y-49484728D01*
X162557547Y-49445373D01*
X162557547Y-49445372D01*
X162548500Y-49440763D01*
X162497706Y-49392788D01*
X162480912Y-49324966D01*
X162503451Y-49258832D01*
X162548508Y-49219793D01*
X162557816Y-49215051D01*
X162647554Y-49149853D01*
X162729786Y-49090109D01*
X162729788Y-49090106D01*
X162729792Y-49090104D01*
X162880104Y-48939792D01*
X162880106Y-48939788D01*
X162880109Y-48939786D01*
X163005048Y-48767820D01*
X163005047Y-48767820D01*
X163005051Y-48767816D01*
X163009514Y-48759054D01*
X163057488Y-48708259D01*
X163125308Y-48691463D01*
X163191444Y-48713999D01*
G37*
%TD.AperFunction*%
%TA.AperFunction,Conductor*%
G36*
X185002910Y-45932615D02*
G01*
X185363311Y-45949277D01*
X185374701Y-45950333D01*
X185729240Y-45999789D01*
X185740484Y-46001891D01*
X186088946Y-46083848D01*
X186099936Y-46086975D01*
X186439362Y-46200739D01*
X186450029Y-46204872D01*
X186777495Y-46349462D01*
X186787744Y-46354565D01*
X186859601Y-46394589D01*
X187100457Y-46528745D01*
X187110195Y-46534774D01*
X187365264Y-46709500D01*
X187405512Y-46737070D01*
X187414649Y-46743970D01*
X187568206Y-46871481D01*
X187690048Y-46972656D01*
X187698512Y-46980373D01*
X187951620Y-47233481D01*
X187959336Y-47241945D01*
X188181512Y-47509500D01*
X188188018Y-47517334D01*
X188194908Y-47526457D01*
X188397220Y-47821794D01*
X188403241Y-47831519D01*
X188577427Y-48144241D01*
X188582532Y-48154493D01*
X188727119Y-48481949D01*
X188731257Y-48492629D01*
X188845015Y-48832033D01*
X188848149Y-48843050D01*
X188930103Y-49191490D01*
X188932208Y-49202748D01*
X188981663Y-49557275D01*
X188982720Y-49568679D01*
X188999368Y-49928715D01*
X188999500Y-49934412D01*
X188999500Y-49997875D01*
X188999515Y-49997934D01*
X188999518Y-50006128D01*
X188999516Y-50006133D01*
X188999518Y-50006159D01*
X188999518Y-80925936D01*
X188999500Y-80926215D01*
X188999500Y-80997128D01*
X188999368Y-81002855D01*
X188982703Y-81363303D01*
X188981646Y-81374707D01*
X188932192Y-81729231D01*
X188930087Y-81740490D01*
X188848135Y-82088931D01*
X188845001Y-82099947D01*
X188731243Y-82439355D01*
X188727105Y-82450035D01*
X188582523Y-82777482D01*
X188577418Y-82787735D01*
X188403234Y-83100452D01*
X188397205Y-83110190D01*
X188194906Y-83405512D01*
X188188003Y-83414652D01*
X187959328Y-83690035D01*
X187951612Y-83698499D01*
X187698499Y-83951612D01*
X187690035Y-83959328D01*
X187414652Y-84188003D01*
X187405512Y-84194906D01*
X187110190Y-84397205D01*
X187100452Y-84403234D01*
X186787735Y-84577418D01*
X186777482Y-84582523D01*
X186450035Y-84727105D01*
X186439355Y-84731243D01*
X186099947Y-84845001D01*
X186088931Y-84848135D01*
X185740490Y-84930087D01*
X185729231Y-84932192D01*
X185374707Y-84981646D01*
X185363303Y-84982703D01*
X185005483Y-84999246D01*
X184994498Y-84999266D01*
X184666361Y-84985339D01*
X184655882Y-84984448D01*
X184329859Y-84942734D01*
X184319493Y-84940958D01*
X183998191Y-84871771D01*
X183988014Y-84869124D01*
X183673703Y-84772953D01*
X183663786Y-84769452D01*
X183358773Y-84647001D01*
X183349205Y-84642680D01*
X183055637Y-84494809D01*
X183046473Y-84489695D01*
X182809806Y-84344123D01*
X182808977Y-84343609D01*
X182800217Y-84338125D01*
X182798344Y-84336165D01*
X182754022Y-84309207D01*
X182753312Y-84308763D01*
X182753242Y-84308685D01*
X182749722Y-84306428D01*
X182707416Y-84277865D01*
X182702145Y-84275234D01*
X182684642Y-84267009D01*
X177232757Y-80951101D01*
X177065253Y-80849223D01*
X182699500Y-80849223D01*
X182699500Y-81150776D01*
X182699501Y-81150793D01*
X182738861Y-81449766D01*
X182816913Y-81741060D01*
X182932314Y-82019661D01*
X182932318Y-82019671D01*
X183083099Y-82280831D01*
X183266679Y-82520078D01*
X183266685Y-82520085D01*
X183479914Y-82733314D01*
X183479921Y-82733320D01*
X183719168Y-82916900D01*
X183980328Y-83067681D01*
X183980329Y-83067681D01*
X183980332Y-83067683D01*
X184166072Y-83144619D01*
X184258939Y-83183086D01*
X184258940Y-83183086D01*
X184258942Y-83183087D01*
X184550232Y-83261138D01*
X184849217Y-83300500D01*
X184849224Y-83300500D01*
X185150776Y-83300500D01*
X185150783Y-83300500D01*
X185449768Y-83261138D01*
X185741058Y-83183087D01*
X186019668Y-83067683D01*
X186280832Y-82916900D01*
X186520080Y-82733319D01*
X186733319Y-82520080D01*
X186916900Y-82280832D01*
X187067683Y-82019668D01*
X187183087Y-81741058D01*
X187261138Y-81449768D01*
X187300500Y-81150783D01*
X187300500Y-80849217D01*
X187261138Y-80550232D01*
X187183087Y-80258942D01*
X187067683Y-79980332D01*
X186916900Y-79719168D01*
X186733319Y-79479920D01*
X186733314Y-79479914D01*
X186520085Y-79266685D01*
X186520078Y-79266679D01*
X186280831Y-79083099D01*
X186019671Y-78932318D01*
X186019661Y-78932314D01*
X185741060Y-78816913D01*
X185449766Y-78738861D01*
X185150793Y-78699501D01*
X185150788Y-78699500D01*
X185150783Y-78699500D01*
X184849217Y-78699500D01*
X184849211Y-78699500D01*
X184849206Y-78699501D01*
X184550233Y-78738861D01*
X184258939Y-78816913D01*
X183980338Y-78932314D01*
X183980328Y-78932318D01*
X183719168Y-79083099D01*
X183479921Y-79266679D01*
X183479914Y-79266685D01*
X183266685Y-79479914D01*
X183266679Y-79479921D01*
X183083099Y-79719168D01*
X182932318Y-79980328D01*
X182932314Y-79980338D01*
X182816913Y-80258939D01*
X182738861Y-80550233D01*
X182699501Y-80849206D01*
X182699500Y-80849223D01*
X177065253Y-80849223D01*
X158999114Y-69861160D01*
X158834935Y-69761304D01*
X166249500Y-69761304D01*
X166249500Y-69938695D01*
X166284103Y-70112658D01*
X166284106Y-70112667D01*
X166351983Y-70276540D01*
X166351990Y-70276553D01*
X166450535Y-70424034D01*
X166450538Y-70424038D01*
X166575961Y-70549461D01*
X166575965Y-70549464D01*
X166723446Y-70648009D01*
X166723459Y-70648016D01*
X166807391Y-70682781D01*
X166887334Y-70715894D01*
X166887336Y-70715894D01*
X166887341Y-70715896D01*
X167061304Y-70750499D01*
X167061307Y-70750500D01*
X167061309Y-70750500D01*
X167238693Y-70750500D01*
X167238694Y-70750499D01*
X167296682Y-70738964D01*
X167412658Y-70715896D01*
X167412661Y-70715894D01*
X167412666Y-70715894D01*
X167576547Y-70648013D01*
X167724035Y-70549464D01*
X167849464Y-70424035D01*
X167948013Y-70276547D01*
X168015894Y-70112666D01*
X168017379Y-70105203D01*
X168043751Y-69972618D01*
X168050500Y-69938691D01*
X168050500Y-69761309D01*
X168050500Y-69761306D01*
X168050499Y-69761304D01*
X168015896Y-69587341D01*
X168015893Y-69587332D01*
X168001677Y-69553012D01*
X167988376Y-69520899D01*
X167948016Y-69423459D01*
X167948009Y-69423446D01*
X167849464Y-69275965D01*
X167849461Y-69275961D01*
X167724038Y-69150538D01*
X167724034Y-69150535D01*
X167576553Y-69051990D01*
X167576540Y-69051983D01*
X167412667Y-68984106D01*
X167412658Y-68984103D01*
X167238694Y-68949500D01*
X167238691Y-68949500D01*
X167061309Y-68949500D01*
X167061306Y-68949500D01*
X166887341Y-68984103D01*
X166887332Y-68984106D01*
X166723459Y-69051983D01*
X166723446Y-69051990D01*
X166575965Y-69150535D01*
X166575961Y-69150538D01*
X166450538Y-69275961D01*
X166450535Y-69275965D01*
X166351990Y-69423446D01*
X166351983Y-69423459D01*
X166284106Y-69587332D01*
X166284103Y-69587341D01*
X166249500Y-69761304D01*
X158834935Y-69761304D01*
X145092153Y-61402764D01*
X144391948Y-60976890D01*
X144156823Y-60833884D01*
X148984301Y-60833884D01*
X149945224Y-60833884D01*
X149940830Y-60838278D01*
X149888169Y-60929490D01*
X149860910Y-61031223D01*
X149860910Y-61136545D01*
X149888169Y-61238278D01*
X149940830Y-61329490D01*
X149945224Y-61333884D01*
X148984301Y-61333884D01*
X148992919Y-61388297D01*
X149056154Y-61582913D01*
X149149050Y-61765233D01*
X149269327Y-61930778D01*
X149269327Y-61930779D01*
X149414014Y-62075466D01*
X149579560Y-62195743D01*
X149761878Y-62288638D01*
X149956488Y-62351872D01*
X150010910Y-62360491D01*
X150010910Y-61399570D01*
X150015304Y-61403964D01*
X150106516Y-61456625D01*
X150208249Y-61483884D01*
X150313571Y-61483884D01*
X150415304Y-61456625D01*
X150506516Y-61403964D01*
X150510910Y-61399570D01*
X150510910Y-62360490D01*
X150565331Y-62351872D01*
X150759941Y-62288638D01*
X150942259Y-62195743D01*
X151107804Y-62075466D01*
X151107805Y-62075466D01*
X151252492Y-61930779D01*
X151252492Y-61930778D01*
X151372769Y-61765233D01*
X151465665Y-61582913D01*
X151528900Y-61388297D01*
X151537519Y-61333884D01*
X150576596Y-61333884D01*
X150580990Y-61329490D01*
X150633651Y-61238278D01*
X150660910Y-61136545D01*
X150660910Y-61031223D01*
X150633651Y-60929490D01*
X150580990Y-60838278D01*
X150576596Y-60833884D01*
X151537518Y-60833884D01*
X151562147Y-60805047D01*
X151620653Y-60766854D01*
X151690521Y-60766354D01*
X151712089Y-60774768D01*
X151770243Y-60803974D01*
X151851459Y-60823223D01*
X151940956Y-60844435D01*
X151940959Y-60844435D01*
X152116395Y-60844435D01*
X152116398Y-60844435D01*
X152287110Y-60803974D01*
X152443892Y-60725237D01*
X152523999Y-60659980D01*
X153372538Y-59811439D01*
X153437797Y-59731332D01*
X153516534Y-59574550D01*
X153556995Y-59403838D01*
X153556995Y-59228396D01*
X153516534Y-59057684D01*
X153437797Y-58900902D01*
X153372540Y-58820795D01*
X152523999Y-57972256D01*
X152523985Y-57972245D01*
X152491853Y-57946068D01*
X152443892Y-57906997D01*
X152443890Y-57906996D01*
X152443889Y-57906995D01*
X152287109Y-57828259D01*
X152116405Y-57787800D01*
X152116400Y-57787799D01*
X152116398Y-57787799D01*
X151940956Y-57787799D01*
X151940954Y-57787799D01*
X151940948Y-57787800D01*
X151770244Y-57828259D01*
X151613462Y-57906996D01*
X151533365Y-57972245D01*
X151533347Y-57972261D01*
X150684819Y-58820791D01*
X150684810Y-58820801D01*
X150619555Y-58900904D01*
X150540819Y-59057684D01*
X150500360Y-59228388D01*
X150500359Y-59228399D01*
X150500359Y-59403834D01*
X150500360Y-59403845D01*
X150540819Y-59574550D01*
X150540820Y-59574551D01*
X150570025Y-59632706D01*
X150582521Y-59701449D01*
X150555867Y-59766035D01*
X150539747Y-59782644D01*
X150510910Y-59807273D01*
X150510910Y-60768198D01*
X150506516Y-60763804D01*
X150415304Y-60711143D01*
X150313571Y-60683884D01*
X150208249Y-60683884D01*
X150106516Y-60711143D01*
X150015304Y-60763804D01*
X150010910Y-60768198D01*
X150010910Y-59807274D01*
X149956496Y-59815893D01*
X149761880Y-59879128D01*
X149579560Y-59972024D01*
X149414015Y-60092301D01*
X149414014Y-60092301D01*
X149269327Y-60236988D01*
X149269327Y-60236989D01*
X149149050Y-60402534D01*
X149056154Y-60584854D01*
X148992919Y-60779470D01*
X148984301Y-60833884D01*
X144156823Y-60833884D01*
X141910921Y-59467897D01*
X135682031Y-55679404D01*
X131595450Y-53193892D01*
X131580808Y-53183462D01*
X131309011Y-52958432D01*
X131300213Y-52950405D01*
X131069906Y-52719073D01*
X131037612Y-52686635D01*
X131029628Y-52677805D01*
X130832330Y-52437332D01*
X130793541Y-52390055D01*
X130786438Y-52380496D01*
X130579045Y-52071427D01*
X130572892Y-52061231D01*
X130530144Y-51982030D01*
X130396101Y-51733684D01*
X130390962Y-51722963D01*
X130246410Y-51379967D01*
X130242317Y-51368783D01*
X130199422Y-51231463D01*
X130131335Y-51013501D01*
X130128337Y-51001984D01*
X130125485Y-50988385D01*
X130051950Y-50637692D01*
X130050070Y-50625938D01*
X130044299Y-50573978D01*
X130008984Y-50256009D01*
X130008240Y-50244132D01*
X130002831Y-49871952D01*
X130003229Y-49860077D01*
X130004116Y-49849223D01*
X131699500Y-49849223D01*
X131699500Y-50150776D01*
X131699501Y-50150793D01*
X131738861Y-50449766D01*
X131816913Y-50741060D01*
X131932314Y-51019661D01*
X131932318Y-51019671D01*
X132083099Y-51280831D01*
X132266679Y-51520078D01*
X132266685Y-51520085D01*
X132479914Y-51733314D01*
X132479921Y-51733320D01*
X132719168Y-51916900D01*
X132980328Y-52067681D01*
X132980329Y-52067681D01*
X132980332Y-52067683D01*
X133166072Y-52144619D01*
X133258939Y-52183086D01*
X133258940Y-52183086D01*
X133258942Y-52183087D01*
X133550232Y-52261138D01*
X133849217Y-52300500D01*
X133849224Y-52300500D01*
X134150776Y-52300500D01*
X134150783Y-52300500D01*
X134449768Y-52261138D01*
X134741058Y-52183087D01*
X135019668Y-52067683D01*
X135280832Y-51916900D01*
X135520080Y-51733319D01*
X135733319Y-51520080D01*
X135916900Y-51280832D01*
X136060555Y-51032014D01*
X139750000Y-51032014D01*
X139750000Y-51267985D01*
X139780799Y-51501914D01*
X139841870Y-51729837D01*
X139932160Y-51947819D01*
X139932165Y-51947828D01*
X140050144Y-52152171D01*
X140050145Y-52152172D01*
X140112721Y-52233723D01*
X140948958Y-51397487D01*
X140973978Y-51457890D01*
X141045112Y-51564351D01*
X141135649Y-51654888D01*
X141242110Y-51726022D01*
X141302511Y-51751041D01*
X140466275Y-52587277D01*
X140547827Y-52649854D01*
X140547828Y-52649855D01*
X140752171Y-52767834D01*
X140752180Y-52767839D01*
X140970163Y-52858129D01*
X140970161Y-52858129D01*
X141198085Y-52919200D01*
X141432014Y-52949999D01*
X141432029Y-52950000D01*
X141667971Y-52950000D01*
X141667985Y-52949999D01*
X141901914Y-52919200D01*
X142129837Y-52858129D01*
X142347819Y-52767839D01*
X142347828Y-52767834D01*
X142552181Y-52649850D01*
X142633723Y-52587279D01*
X142633723Y-52587276D01*
X141797487Y-51751041D01*
X141857890Y-51726022D01*
X141964351Y-51654888D01*
X142054888Y-51564351D01*
X142126022Y-51457890D01*
X142151041Y-51397487D01*
X142987276Y-52233723D01*
X142987279Y-52233723D01*
X143049850Y-52152181D01*
X143167834Y-51947828D01*
X143167839Y-51947819D01*
X143258129Y-51729837D01*
X143319200Y-51501914D01*
X143349999Y-51267985D01*
X143350000Y-51267971D01*
X143350000Y-51032028D01*
X143349999Y-51032014D01*
X143319200Y-50798085D01*
X143258129Y-50570162D01*
X143167839Y-50352180D01*
X143167834Y-50352171D01*
X143049855Y-50147828D01*
X143049848Y-50147817D01*
X143030286Y-50122324D01*
X143030283Y-50122321D01*
X142987277Y-50066275D01*
X142151041Y-50902511D01*
X142126022Y-50842110D01*
X142054888Y-50735649D01*
X141964351Y-50645112D01*
X141857890Y-50573978D01*
X141797488Y-50548958D01*
X142296462Y-50049983D01*
X144829499Y-50049983D01*
X144829499Y-52250001D01*
X144829500Y-52250018D01*
X144839999Y-52352796D01*
X144840000Y-52352799D01*
X144895184Y-52519331D01*
X144895186Y-52519336D01*
X144897729Y-52523459D01*
X144987287Y-52668656D01*
X145111343Y-52792712D01*
X145260665Y-52884814D01*
X145427202Y-52939999D01*
X145529990Y-52950500D01*
X147730007Y-52950499D01*
X147832796Y-52939999D01*
X147999333Y-52884814D01*
X148148655Y-52792712D01*
X148272711Y-52668656D01*
X148364813Y-52519334D01*
X148419998Y-52352797D01*
X148430499Y-52250009D01*
X148430498Y-51128542D01*
X152724500Y-51128542D01*
X152724500Y-55071457D01*
X152739840Y-55148572D01*
X152742846Y-55163684D01*
X152752381Y-55211620D01*
X152807070Y-55343651D01*
X152886469Y-55462482D01*
X154512515Y-57088528D01*
X154512522Y-57088534D01*
X154631344Y-57167928D01*
X154670016Y-57183946D01*
X154763380Y-57222619D01*
X154763384Y-57222619D01*
X154763385Y-57222620D01*
X154903542Y-57250500D01*
X154903545Y-57250500D01*
X155046455Y-57250500D01*
X155048126Y-57250500D01*
X155115165Y-57270185D01*
X155135807Y-57286819D01*
X160837514Y-62988527D01*
X160837517Y-62988530D01*
X160837520Y-62988532D01*
X160910383Y-63037217D01*
X160956347Y-63067929D01*
X161088380Y-63122619D01*
X161088384Y-63122619D01*
X161088385Y-63122620D01*
X161228542Y-63150500D01*
X161228545Y-63150500D01*
X168078545Y-63150500D01*
X170783450Y-63150500D01*
X170850489Y-63170185D01*
X170871131Y-63186819D01*
X177522840Y-69838529D01*
X177522848Y-69838535D01*
X177609711Y-69896575D01*
X177629696Y-69909928D01*
X177641671Y-69917929D01*
X177773704Y-69972619D01*
X177773708Y-69972619D01*
X177773709Y-69972620D01*
X177913866Y-70000500D01*
X177913869Y-70000500D01*
X178946457Y-70000500D01*
X179040751Y-69981742D01*
X179086620Y-69972619D01*
X179218653Y-69917929D01*
X179337479Y-69838532D01*
X179438532Y-69737479D01*
X179517929Y-69618653D01*
X179572619Y-69486620D01*
X179587905Y-69409767D01*
X179620289Y-69347859D01*
X179621782Y-69346338D01*
X180001063Y-68967058D01*
X180062385Y-68933574D01*
X180132077Y-68938558D01*
X180185295Y-68976935D01*
X180210483Y-69008192D01*
X180210484Y-69008193D01*
X180412537Y-69210244D01*
X180428117Y-69222799D01*
X180448728Y-69239409D01*
X180467470Y-69258151D01*
X180493706Y-69290707D01*
X180493715Y-69290717D01*
X180699233Y-69496235D01*
X180699240Y-69496241D01*
X180729838Y-69520899D01*
X180748583Y-69539645D01*
X180776161Y-69573867D01*
X180776172Y-69573880D01*
X180981754Y-69779462D01*
X181014155Y-69805572D01*
X181032901Y-69824318D01*
X181059012Y-69856721D01*
X181059014Y-69856723D01*
X181059015Y-69856724D01*
X181261065Y-70058772D01*
X181261066Y-70058773D01*
X181295422Y-70086460D01*
X181314164Y-70105203D01*
X181341846Y-70139553D01*
X181341855Y-70139564D01*
X181341859Y-70139568D01*
X181341860Y-70139569D01*
X181543900Y-70341608D01*
X181543912Y-70341619D01*
X181578259Y-70369297D01*
X181591041Y-70381173D01*
X181594149Y-70384498D01*
X181624697Y-70422407D01*
X181699600Y-70497309D01*
X181701029Y-70498838D01*
X181715826Y-70528253D01*
X181731608Y-70557155D01*
X181731453Y-70559317D01*
X181732428Y-70561255D01*
X181728972Y-70594004D01*
X181726624Y-70626847D01*
X181725324Y-70628582D01*
X181725097Y-70630739D01*
X181704487Y-70656418D01*
X181684753Y-70682781D01*
X181682131Y-70684273D01*
X181681365Y-70685229D01*
X181679152Y-70685970D01*
X181657900Y-70698073D01*
X181648457Y-70701984D01*
X181648446Y-70701990D01*
X181500965Y-70800535D01*
X181500961Y-70800538D01*
X181375538Y-70925961D01*
X181375535Y-70925965D01*
X181276990Y-71073446D01*
X181276983Y-71073459D01*
X181209106Y-71237332D01*
X181209103Y-71237341D01*
X181174500Y-71411304D01*
X181174500Y-71588695D01*
X181209103Y-71762658D01*
X181209106Y-71762667D01*
X181276983Y-71926540D01*
X181276990Y-71926553D01*
X181375535Y-72074034D01*
X181375538Y-72074038D01*
X181500961Y-72199461D01*
X181500965Y-72199464D01*
X181648446Y-72298009D01*
X181648459Y-72298016D01*
X181771363Y-72348923D01*
X181812334Y-72365894D01*
X181812336Y-72365894D01*
X181812341Y-72365896D01*
X181986304Y-72400499D01*
X181986307Y-72400500D01*
X181986309Y-72400500D01*
X182163693Y-72400500D01*
X182163694Y-72400499D01*
X182221682Y-72388964D01*
X182337658Y-72365896D01*
X182337661Y-72365894D01*
X182337666Y-72365894D01*
X182501547Y-72298013D01*
X182649035Y-72199464D01*
X182774464Y-72074035D01*
X182873013Y-71926547D01*
X182878170Y-71914095D01*
X182922010Y-71859692D01*
X182988304Y-71837626D01*
X183056003Y-71854904D01*
X183070540Y-71864997D01*
X183104072Y-71892020D01*
X183104075Y-71892021D01*
X183234855Y-71951747D01*
X183377172Y-71972208D01*
X183377173Y-71972208D01*
X183519489Y-71951747D01*
X183650269Y-71892021D01*
X183650271Y-71892020D01*
X183696902Y-71854442D01*
X183696909Y-71854436D01*
X183923412Y-71627934D01*
X183629608Y-71334130D01*
X183625269Y-71326184D01*
X183618023Y-71320760D01*
X183608787Y-71296000D01*
X183596123Y-71272807D01*
X183596768Y-71263777D01*
X183593605Y-71255296D01*
X183599221Y-71229473D01*
X183601107Y-71203115D01*
X183606924Y-71194062D01*
X183608456Y-71187023D01*
X183629603Y-71158773D01*
X183687594Y-71100782D01*
X183748913Y-71067299D01*
X183818605Y-71072283D01*
X183862953Y-71100784D01*
X184156757Y-71394588D01*
X184383260Y-71168085D01*
X184383266Y-71168078D01*
X184420844Y-71121447D01*
X184420845Y-71121445D01*
X184480571Y-70990665D01*
X184501032Y-70848349D01*
X184501032Y-70848347D01*
X184480571Y-70706031D01*
X184420845Y-70575251D01*
X184420844Y-70575249D01*
X184383267Y-70528619D01*
X184349443Y-70494795D01*
X184327298Y-70516940D01*
X184315477Y-70523394D01*
X184306658Y-70533573D01*
X184285409Y-70539812D01*
X184265975Y-70550424D01*
X184252541Y-70549463D01*
X184239618Y-70553258D01*
X184218368Y-70547018D01*
X184196283Y-70545439D01*
X184185502Y-70537368D01*
X184172579Y-70533574D01*
X184158078Y-70516839D01*
X184140350Y-70503568D01*
X184134646Y-70489797D01*
X184126824Y-70480770D01*
X184116880Y-70446905D01*
X184102302Y-70345514D01*
X184112246Y-70276356D01*
X184116098Y-70270808D01*
X184116098Y-70261449D01*
X184082274Y-70227626D01*
X184049718Y-70201390D01*
X184030971Y-70182642D01*
X184001813Y-70146457D01*
X183994909Y-70139553D01*
X183799758Y-69944404D01*
X183767356Y-69918292D01*
X183754796Y-69906652D01*
X183751571Y-69903220D01*
X183722503Y-69867148D01*
X183607685Y-69752331D01*
X185091905Y-69752331D01*
X185091905Y-69752332D01*
X185125726Y-69786153D01*
X185172361Y-69823733D01*
X185303140Y-69883459D01*
X185303145Y-69883460D01*
X185445459Y-69903920D01*
X185587772Y-69883460D01*
X185587777Y-69883459D01*
X185718556Y-69823733D01*
X185765191Y-69786153D01*
X185995234Y-69556110D01*
X185995234Y-69556109D01*
X185641682Y-69202557D01*
X185641681Y-69202557D01*
X185091905Y-69752331D01*
X183607685Y-69752331D01*
X183516915Y-69661561D01*
X183482680Y-69633972D01*
X183463937Y-69615229D01*
X183439279Y-69584630D01*
X183233754Y-69379105D01*
X183233746Y-69379098D01*
X183201190Y-69352862D01*
X183182443Y-69334114D01*
X183153285Y-69297929D01*
X182951228Y-69095874D01*
X182916873Y-69068188D01*
X182898128Y-69049442D01*
X182870444Y-69015087D01*
X182839460Y-68984103D01*
X182668388Y-68813033D01*
X182668381Y-68813027D01*
X182634030Y-68785344D01*
X182615286Y-68766600D01*
X182587602Y-68732246D01*
X182587598Y-68732241D01*
X182385545Y-68530190D01*
X182353143Y-68504078D01*
X182334399Y-68485333D01*
X182308298Y-68452944D01*
X182308287Y-68452931D01*
X182102709Y-68247354D01*
X182102702Y-68247347D01*
X182068462Y-68219754D01*
X182049719Y-68201011D01*
X182025065Y-68170417D01*
X181819533Y-67964885D01*
X181786983Y-67938655D01*
X181768237Y-67919908D01*
X181739073Y-67883716D01*
X181707196Y-67851839D01*
X181537017Y-67681662D01*
X181504615Y-67655550D01*
X181485871Y-67636805D01*
X181459770Y-67604416D01*
X181459759Y-67604403D01*
X181371373Y-67516017D01*
X181275648Y-67420293D01*
X181242164Y-67358971D01*
X181247148Y-67289280D01*
X181275649Y-67244932D01*
X181660204Y-66860378D01*
X181660217Y-66860363D01*
X181842045Y-66678535D01*
X181903364Y-66645053D01*
X181973055Y-66650037D01*
X182017403Y-66678538D01*
X182201509Y-66862643D01*
X182201521Y-66862654D01*
X182233916Y-66888759D01*
X182252663Y-66907506D01*
X182261875Y-66918937D01*
X182278772Y-66939905D01*
X182484360Y-67145492D01*
X182516759Y-67171601D01*
X182535504Y-67190346D01*
X182561613Y-67222746D01*
X182767195Y-67428328D01*
X182767203Y-67428335D01*
X182799601Y-67454443D01*
X182818338Y-67473179D01*
X182844457Y-67505591D01*
X182844461Y-67505595D01*
X182844462Y-67505596D01*
X183050041Y-67711175D01*
X183050045Y-67711178D01*
X183084283Y-67738769D01*
X183103024Y-67757510D01*
X183127684Y-67788110D01*
X183127692Y-67788119D01*
X183333206Y-67993633D01*
X183333213Y-67993639D01*
X183363811Y-68018297D01*
X183382556Y-68037043D01*
X183410134Y-68071265D01*
X183410145Y-68071278D01*
X183615723Y-68276856D01*
X183615731Y-68276863D01*
X183648129Y-68302971D01*
X183666866Y-68321707D01*
X183692985Y-68354119D01*
X183898573Y-68559706D01*
X183930972Y-68585815D01*
X183949717Y-68604560D01*
X183975826Y-68636960D01*
X184181408Y-68842542D01*
X184181420Y-68842553D01*
X184213815Y-68868658D01*
X184232562Y-68887405D01*
X184258662Y-68919793D01*
X184258673Y-68919806D01*
X184464255Y-69125388D01*
X184464259Y-69125391D01*
X184498492Y-69152978D01*
X184517234Y-69171720D01*
X184541892Y-69202318D01*
X184541901Y-69202328D01*
X184747419Y-69407846D01*
X184747429Y-69407855D01*
X184783777Y-69437147D01*
X184802521Y-69455891D01*
X184831808Y-69492234D01*
X184865631Y-69526057D01*
X185415408Y-68976282D01*
X185867955Y-68976282D01*
X185867955Y-68976283D01*
X186221507Y-69329836D01*
X186221508Y-69329836D01*
X186451551Y-69099793D01*
X186489131Y-69053158D01*
X186548857Y-68922379D01*
X186548858Y-68922374D01*
X186569318Y-68780061D01*
X186548858Y-68637747D01*
X186548857Y-68637742D01*
X186489131Y-68506963D01*
X186451551Y-68460328D01*
X186417730Y-68426507D01*
X186417729Y-68426507D01*
X185867955Y-68976282D01*
X185415408Y-68976282D01*
X185528544Y-68863146D01*
X185554450Y-68837240D01*
X186191456Y-68200233D01*
X186157632Y-68166410D01*
X186121289Y-68137123D01*
X186102545Y-68118379D01*
X186073253Y-68082031D01*
X186073244Y-68082021D01*
X185867726Y-67876503D01*
X185867716Y-67876494D01*
X185837122Y-67851839D01*
X185818378Y-67833094D01*
X185807248Y-67819282D01*
X185790791Y-67798860D01*
X185790790Y-67798859D01*
X185790786Y-67798854D01*
X185585210Y-67593279D01*
X185585204Y-67593273D01*
X185552798Y-67567159D01*
X185534053Y-67548413D01*
X185507947Y-67516017D01*
X185465117Y-67473187D01*
X185302360Y-67310431D01*
X185269958Y-67284319D01*
X185251214Y-67265574D01*
X185228026Y-67236800D01*
X185225105Y-67233175D01*
X185137418Y-67145488D01*
X185019518Y-67027588D01*
X184987117Y-67001478D01*
X184968372Y-66982732D01*
X184963867Y-66977142D01*
X184942263Y-66950332D01*
X184736675Y-66744745D01*
X184702435Y-66717152D01*
X184683692Y-66698409D01*
X184659038Y-66667815D01*
X184453517Y-66462294D01*
X184453505Y-66462283D01*
X184422909Y-66437626D01*
X184404166Y-66418883D01*
X184376574Y-66384643D01*
X184376572Y-66384641D01*
X184170996Y-66179066D01*
X184170990Y-66179060D01*
X184138589Y-66152950D01*
X184119844Y-66134204D01*
X184093734Y-66101803D01*
X183942060Y-65950130D01*
X183888147Y-65896217D01*
X183855745Y-65870105D01*
X183837001Y-65851360D01*
X183813813Y-65822586D01*
X183810892Y-65818961D01*
X183719674Y-65727743D01*
X183605305Y-65613374D01*
X183572899Y-65587260D01*
X183554154Y-65568514D01*
X183528044Y-65536113D01*
X183322468Y-65330538D01*
X183322464Y-65330534D01*
X183305994Y-65317262D01*
X183288222Y-65302940D01*
X183269479Y-65284197D01*
X183244822Y-65253599D01*
X183039299Y-65048076D01*
X183039289Y-65048067D01*
X183008695Y-65023412D01*
X182989951Y-65004667D01*
X182978821Y-64990855D01*
X182962364Y-64970433D01*
X182962363Y-64970432D01*
X182962359Y-64970427D01*
X182756783Y-64764852D01*
X182756777Y-64764846D01*
X182724371Y-64738732D01*
X182705626Y-64719986D01*
X182679520Y-64687590D01*
X182636692Y-64644762D01*
X182473933Y-64482004D01*
X182473926Y-64481998D01*
X182439575Y-64454315D01*
X182420831Y-64435571D01*
X182406482Y-64417766D01*
X182393143Y-64401212D01*
X182343468Y-64351537D01*
X182191097Y-64199167D01*
X182191091Y-64199161D01*
X182158690Y-64173051D01*
X182139945Y-64154305D01*
X182113831Y-64121899D01*
X181908255Y-63916324D01*
X181908251Y-63916320D01*
X181891781Y-63903048D01*
X181874009Y-63888726D01*
X181855266Y-63869983D01*
X181830609Y-63839385D01*
X181625086Y-63633862D01*
X181625076Y-63633853D01*
X181594477Y-63609194D01*
X181575737Y-63590454D01*
X181548150Y-63556220D01*
X181342562Y-63350633D01*
X181310160Y-63324521D01*
X181291416Y-63305776D01*
X181265315Y-63273387D01*
X181265304Y-63273374D01*
X181059720Y-63067790D01*
X181027319Y-63041680D01*
X181008574Y-63022934D01*
X180982460Y-62990528D01*
X180776884Y-62784953D01*
X180776878Y-62784947D01*
X180744472Y-62758833D01*
X180725727Y-62740087D01*
X180699617Y-62707686D01*
X180494041Y-62502111D01*
X180494037Y-62502107D01*
X180477567Y-62488835D01*
X180459795Y-62474513D01*
X180441052Y-62455770D01*
X180416395Y-62425172D01*
X180232313Y-62241090D01*
X180198828Y-62179767D01*
X180203812Y-62110075D01*
X180232313Y-62065728D01*
X180412418Y-61885624D01*
X180636223Y-61661819D01*
X180697546Y-61628334D01*
X180723904Y-61625500D01*
X180788693Y-61625500D01*
X180788694Y-61625499D01*
X180846682Y-61613964D01*
X180962658Y-61590896D01*
X180962661Y-61590894D01*
X180962666Y-61590894D01*
X181126547Y-61523013D01*
X181274035Y-61424464D01*
X181399464Y-61299035D01*
X181447917Y-61226521D01*
X181482376Y-61174950D01*
X181489048Y-61164962D01*
X181498013Y-61151547D01*
X181565894Y-60987666D01*
X181566759Y-60983321D01*
X181591873Y-60857062D01*
X181600500Y-60813691D01*
X181600500Y-60799716D01*
X181620185Y-60732677D01*
X181672989Y-60686922D01*
X181742147Y-60676978D01*
X181748692Y-60678099D01*
X181861306Y-60700500D01*
X181861309Y-60700500D01*
X182038693Y-60700500D01*
X182038694Y-60700499D01*
X182122225Y-60683884D01*
X182212658Y-60665896D01*
X182212661Y-60665894D01*
X182212666Y-60665894D01*
X182376547Y-60598013D01*
X182524035Y-60499464D01*
X182649464Y-60374035D01*
X182748013Y-60226547D01*
X182815894Y-60062666D01*
X182816185Y-60061206D01*
X182845527Y-59913691D01*
X182850500Y-59888691D01*
X182850500Y-59711309D01*
X182845015Y-59683735D01*
X182851241Y-59614145D01*
X182894103Y-59558967D01*
X182959993Y-59535721D01*
X183027990Y-59551788D01*
X183055468Y-59576381D01*
X183059728Y-59576716D01*
X183692037Y-58944408D01*
X183709075Y-59007993D01*
X183774901Y-59122007D01*
X183867993Y-59215099D01*
X183982007Y-59280925D01*
X184045590Y-59297962D01*
X183413282Y-59930269D01*
X183413282Y-59930270D01*
X183467452Y-59969626D01*
X183467451Y-59969626D01*
X183476495Y-59974234D01*
X183527292Y-60022208D01*
X183544087Y-60090029D01*
X183521550Y-60156164D01*
X183476499Y-60195202D01*
X183467182Y-60199949D01*
X183295213Y-60324890D01*
X183144890Y-60475213D01*
X183019951Y-60647179D01*
X182923444Y-60836585D01*
X182923443Y-60836587D01*
X182923443Y-60836588D01*
X182917710Y-60854233D01*
X182857753Y-61038760D01*
X182824500Y-61248713D01*
X182824500Y-61461286D01*
X182856208Y-61661487D01*
X182857754Y-61671243D01*
X182918919Y-61859490D01*
X182923444Y-61873414D01*
X183019951Y-62062820D01*
X183144890Y-62234786D01*
X183295213Y-62385109D01*
X183467179Y-62510048D01*
X183467181Y-62510049D01*
X183467184Y-62510051D01*
X183656588Y-62606557D01*
X183858757Y-62672246D01*
X184068713Y-62705500D01*
X184068714Y-62705500D01*
X184281286Y-62705500D01*
X184281287Y-62705500D01*
X184491243Y-62672246D01*
X184693412Y-62606557D01*
X184882816Y-62510051D01*
X184999643Y-62425172D01*
X185054784Y-62385110D01*
X185054784Y-62385109D01*
X185054792Y-62385104D01*
X185168329Y-62271566D01*
X185229648Y-62238084D01*
X185299340Y-62243068D01*
X185355274Y-62284939D01*
X185372189Y-62315917D01*
X185421202Y-62447328D01*
X185421206Y-62447335D01*
X185507452Y-62562544D01*
X185507455Y-62562547D01*
X185622664Y-62648793D01*
X185622671Y-62648797D01*
X185757517Y-62699091D01*
X185757516Y-62699091D01*
X185764444Y-62699835D01*
X185817127Y-62705500D01*
X187612872Y-62705499D01*
X187672483Y-62699091D01*
X187807331Y-62648796D01*
X187922546Y-62562546D01*
X188008796Y-62447331D01*
X188059091Y-62312483D01*
X188065500Y-62252873D01*
X188065499Y-60457128D01*
X188059091Y-60397517D01*
X188057810Y-60394083D01*
X188008797Y-60262671D01*
X188008793Y-60262664D01*
X187922547Y-60147455D01*
X187922544Y-60147452D01*
X187807335Y-60061206D01*
X187807328Y-60061202D01*
X187672482Y-60010908D01*
X187672483Y-60010908D01*
X187612883Y-60004501D01*
X187612881Y-60004500D01*
X187612873Y-60004500D01*
X187612865Y-60004500D01*
X187602309Y-60004500D01*
X187535270Y-59984815D01*
X187514628Y-59968181D01*
X186844408Y-59297962D01*
X186907993Y-59280925D01*
X187022007Y-59215099D01*
X187115099Y-59122007D01*
X187180925Y-59007993D01*
X187197962Y-58944408D01*
X187830270Y-59576717D01*
X187830270Y-59576716D01*
X187869622Y-59522554D01*
X187966095Y-59333217D01*
X188031757Y-59131130D01*
X188031757Y-59131127D01*
X188065000Y-58921246D01*
X188065000Y-58708753D01*
X188031757Y-58498872D01*
X188031757Y-58498869D01*
X187966095Y-58296782D01*
X187869624Y-58107449D01*
X187830270Y-58053282D01*
X187830269Y-58053282D01*
X187197962Y-58685590D01*
X187180925Y-58622007D01*
X187115099Y-58507993D01*
X187022007Y-58414901D01*
X186907993Y-58349075D01*
X186844409Y-58332037D01*
X187476716Y-57699728D01*
X187422547Y-57660373D01*
X187422548Y-57660373D01*
X187413505Y-57655766D01*
X187362708Y-57607792D01*
X187345913Y-57539971D01*
X187368450Y-57473836D01*
X187413506Y-57434795D01*
X187422816Y-57430052D01*
X187481614Y-57387333D01*
X187594786Y-57305110D01*
X187594788Y-57305107D01*
X187594792Y-57305105D01*
X187745104Y-57154793D01*
X187745106Y-57154789D01*
X187745109Y-57154787D01*
X187870048Y-56982821D01*
X187870049Y-56982820D01*
X187870051Y-56982817D01*
X187966557Y-56793413D01*
X188032246Y-56591244D01*
X188065500Y-56381288D01*
X188065500Y-56168714D01*
X188032246Y-55958758D01*
X187966557Y-55756589D01*
X187870051Y-55567185D01*
X187870049Y-55567182D01*
X187870048Y-55567180D01*
X187745109Y-55395214D01*
X187594786Y-55244891D01*
X187422819Y-55119952D01*
X187422818Y-55119951D01*
X187422816Y-55119950D01*
X187325972Y-55070606D01*
X187264993Y-55039535D01*
X187214197Y-54991560D01*
X187197402Y-54923739D01*
X187219939Y-54857604D01*
X187274655Y-54814153D01*
X187344176Y-54807181D01*
X187345480Y-54807433D01*
X187436306Y-54825500D01*
X187436309Y-54825500D01*
X187613693Y-54825500D01*
X187613694Y-54825499D01*
X187671682Y-54813964D01*
X187787658Y-54790896D01*
X187787661Y-54790894D01*
X187787666Y-54790894D01*
X187951547Y-54723013D01*
X188099035Y-54624464D01*
X188224464Y-54499035D01*
X188323013Y-54351547D01*
X188390894Y-54187666D01*
X188391666Y-54183788D01*
X188425499Y-54013695D01*
X188425500Y-54013693D01*
X188425500Y-53836306D01*
X188425499Y-53836304D01*
X188390896Y-53662341D01*
X188390893Y-53662332D01*
X188323016Y-53498459D01*
X188323009Y-53498446D01*
X188224464Y-53350965D01*
X188224461Y-53350961D01*
X188099038Y-53225538D01*
X188099034Y-53225535D01*
X187951553Y-53126990D01*
X187951540Y-53126983D01*
X187787667Y-53059106D01*
X187787658Y-53059103D01*
X187613694Y-53024500D01*
X187613691Y-53024500D01*
X187436309Y-53024500D01*
X187436306Y-53024500D01*
X187262341Y-53059103D01*
X187262332Y-53059106D01*
X187098459Y-53126983D01*
X187098446Y-53126990D01*
X186950965Y-53225535D01*
X186950961Y-53225538D01*
X186825538Y-53350961D01*
X186825535Y-53350965D01*
X186726990Y-53498446D01*
X186726983Y-53498459D01*
X186659106Y-53662332D01*
X186659103Y-53662341D01*
X186624500Y-53836304D01*
X186624500Y-54013695D01*
X186659103Y-54187658D01*
X186659106Y-54187667D01*
X186726983Y-54351540D01*
X186726990Y-54351553D01*
X186825535Y-54499034D01*
X186825538Y-54499038D01*
X186950961Y-54624461D01*
X186950965Y-54624464D01*
X187098450Y-54723012D01*
X187101706Y-54724752D01*
X187103091Y-54726113D01*
X187103518Y-54726398D01*
X187103464Y-54726478D01*
X187151552Y-54773713D01*
X187167014Y-54841851D01*
X187143184Y-54907531D01*
X187087628Y-54949901D01*
X187023858Y-54956585D01*
X186887992Y-54935066D01*
X186821287Y-54924501D01*
X186608713Y-54924501D01*
X186560042Y-54932209D01*
X186398760Y-54957754D01*
X186196585Y-55023445D01*
X186007179Y-55119952D01*
X185835213Y-55244891D01*
X185684890Y-55395214D01*
X185559948Y-55567184D01*
X185555482Y-55575950D01*
X185507506Y-55626743D01*
X185439684Y-55643536D01*
X185373550Y-55620996D01*
X185334516Y-55575946D01*
X185330050Y-55567182D01*
X185205109Y-55395213D01*
X185054786Y-55244890D01*
X184882820Y-55119951D01*
X184693414Y-55023444D01*
X184693413Y-55023443D01*
X184693412Y-55023443D01*
X184491243Y-54957754D01*
X184491241Y-54957753D01*
X184491240Y-54957753D01*
X184329957Y-54932208D01*
X184281287Y-54924500D01*
X184068713Y-54924500D01*
X184020042Y-54932208D01*
X183858760Y-54957753D01*
X183656585Y-55023444D01*
X183467179Y-55119951D01*
X183295213Y-55244890D01*
X183144890Y-55395213D01*
X183019951Y-55567179D01*
X182923444Y-55756585D01*
X182857753Y-55958760D01*
X182851740Y-55996728D01*
X182824500Y-56168713D01*
X182824500Y-56381287D01*
X182826411Y-56393353D01*
X182857753Y-56591239D01*
X182857753Y-56591241D01*
X182857754Y-56591243D01*
X182920419Y-56784106D01*
X182923444Y-56793414D01*
X183019951Y-56982820D01*
X183144890Y-57154786D01*
X183295213Y-57305109D01*
X183467179Y-57430048D01*
X183467181Y-57430049D01*
X183467184Y-57430051D01*
X183476493Y-57434794D01*
X183527290Y-57482766D01*
X183544087Y-57550587D01*
X183521552Y-57616722D01*
X183476505Y-57655760D01*
X183467446Y-57660376D01*
X183467440Y-57660380D01*
X183413282Y-57699727D01*
X183413282Y-57699728D01*
X184045591Y-58332037D01*
X183982007Y-58349075D01*
X183867993Y-58414901D01*
X183774901Y-58507993D01*
X183709075Y-58622007D01*
X183692037Y-58685591D01*
X183059728Y-58053282D01*
X183059727Y-58053282D01*
X183020380Y-58107439D01*
X182923904Y-58296782D01*
X182858242Y-58498869D01*
X182858242Y-58498872D01*
X182825000Y-58708753D01*
X182825000Y-58921246D01*
X182855679Y-59114946D01*
X182846724Y-59184240D01*
X182801728Y-59237692D01*
X182734977Y-59258331D01*
X182667663Y-59239606D01*
X182645525Y-59222025D01*
X182524038Y-59100538D01*
X182524034Y-59100535D01*
X182376553Y-59001990D01*
X182376540Y-59001983D01*
X182212667Y-58934106D01*
X182212658Y-58934103D01*
X182038694Y-58899500D01*
X182038691Y-58899500D01*
X181861309Y-58899500D01*
X181861306Y-58899500D01*
X181687341Y-58934103D01*
X181687332Y-58934106D01*
X181523459Y-59001983D01*
X181523446Y-59001990D01*
X181375965Y-59100535D01*
X181375961Y-59100538D01*
X181250538Y-59225961D01*
X181250535Y-59225965D01*
X181151990Y-59373446D01*
X181151983Y-59373459D01*
X181084106Y-59537332D01*
X181084103Y-59537341D01*
X181049500Y-59711304D01*
X181049500Y-59725283D01*
X181029815Y-59792322D01*
X180977011Y-59838077D01*
X180907853Y-59848021D01*
X180901309Y-59846900D01*
X180788695Y-59824500D01*
X180788691Y-59824500D01*
X180611309Y-59824500D01*
X180611306Y-59824500D01*
X180488121Y-59849003D01*
X180418530Y-59842776D01*
X180363352Y-59799913D01*
X180340108Y-59734023D01*
X180356176Y-59666026D01*
X180356544Y-59665385D01*
X180364073Y-59652343D01*
X180364074Y-59652342D01*
X180364074Y-59652340D01*
X180364076Y-59652338D01*
X180403500Y-59505206D01*
X180403500Y-59171361D01*
X180423185Y-59104322D01*
X180439814Y-59083684D01*
X180524464Y-58999035D01*
X180623013Y-58851547D01*
X180690894Y-58687666D01*
X180703467Y-58624461D01*
X180716615Y-58558357D01*
X180725500Y-58513691D01*
X180725500Y-58336309D01*
X180725500Y-58336306D01*
X180725499Y-58336304D01*
X180690896Y-58162341D01*
X180690893Y-58162332D01*
X180623016Y-57998459D01*
X180623009Y-57998446D01*
X180524464Y-57850965D01*
X180524461Y-57850961D01*
X180399038Y-57725538D01*
X180399034Y-57725535D01*
X180251553Y-57626990D01*
X180251540Y-57626983D01*
X180087667Y-57559106D01*
X180087658Y-57559103D01*
X179913694Y-57524500D01*
X179913691Y-57524500D01*
X179736309Y-57524500D01*
X179734149Y-57524500D01*
X179667110Y-57504815D01*
X179621355Y-57452011D01*
X179612531Y-57424690D01*
X179605101Y-57387334D01*
X179552887Y-57261277D01*
X179537223Y-57223459D01*
X179537216Y-57223446D01*
X179438671Y-57075965D01*
X179438668Y-57075961D01*
X179313245Y-56950538D01*
X179313241Y-56950535D01*
X179165760Y-56851990D01*
X179165747Y-56851983D01*
X179001874Y-56784106D01*
X179001865Y-56784103D01*
X178827901Y-56749500D01*
X178827898Y-56749500D01*
X178650516Y-56749500D01*
X178650513Y-56749500D01*
X178476548Y-56784103D01*
X178476539Y-56784106D01*
X178312666Y-56851983D01*
X178312653Y-56851990D01*
X178165172Y-56950535D01*
X178165168Y-56950538D01*
X178114244Y-57001463D01*
X178052921Y-57034948D01*
X177983229Y-57029964D01*
X177938882Y-57001463D01*
X173851819Y-52914400D01*
X173818334Y-52853077D01*
X173815500Y-52826719D01*
X173815500Y-51943804D01*
X173835185Y-51876765D01*
X173887989Y-51831010D01*
X173957147Y-51821066D01*
X173995795Y-51833319D01*
X173997947Y-51834416D01*
X174031583Y-51851555D01*
X174031585Y-51851555D01*
X174031588Y-51851557D01*
X174233757Y-51917246D01*
X174443713Y-51950500D01*
X174443714Y-51950500D01*
X174656286Y-51950500D01*
X174656287Y-51950500D01*
X174866243Y-51917246D01*
X175068412Y-51851557D01*
X175257816Y-51755051D01*
X175299866Y-51724500D01*
X175429786Y-51630109D01*
X175429788Y-51630106D01*
X175429792Y-51630104D01*
X175580104Y-51479792D01*
X175580106Y-51479788D01*
X175580109Y-51479786D01*
X175705048Y-51307820D01*
X175705050Y-51307817D01*
X175705051Y-51307816D01*
X175801557Y-51118412D01*
X175867246Y-50916243D01*
X175900500Y-50706287D01*
X175900500Y-50493713D01*
X175867246Y-50283757D01*
X175801557Y-50081588D01*
X175725318Y-49931961D01*
X175709774Y-49901453D01*
X175705049Y-49892180D01*
X175673839Y-49849223D01*
X182699500Y-49849223D01*
X182699500Y-50150776D01*
X182699501Y-50150793D01*
X182738861Y-50449766D01*
X182816913Y-50741060D01*
X182932314Y-51019661D01*
X182932318Y-51019671D01*
X183083099Y-51280831D01*
X183266679Y-51520078D01*
X183266685Y-51520085D01*
X183479914Y-51733314D01*
X183479921Y-51733320D01*
X183719168Y-51916900D01*
X183980328Y-52067681D01*
X183980329Y-52067681D01*
X183980332Y-52067683D01*
X184166072Y-52144619D01*
X184258939Y-52183086D01*
X184258940Y-52183086D01*
X184258942Y-52183087D01*
X184550232Y-52261138D01*
X184849217Y-52300500D01*
X184849224Y-52300500D01*
X185150776Y-52300500D01*
X185150783Y-52300500D01*
X185449768Y-52261138D01*
X185741058Y-52183087D01*
X186019668Y-52067683D01*
X186280832Y-51916900D01*
X186520080Y-51733319D01*
X186733319Y-51520080D01*
X186916900Y-51280832D01*
X187067683Y-51019668D01*
X187183087Y-50741058D01*
X187261138Y-50449768D01*
X187300500Y-50150783D01*
X187300500Y-49849217D01*
X187261138Y-49550232D01*
X187183087Y-49258942D01*
X187183041Y-49258832D01*
X187097918Y-49053326D01*
X187067683Y-48980332D01*
X186916900Y-48719168D01*
X186808896Y-48578414D01*
X186733320Y-48479921D01*
X186733314Y-48479914D01*
X186520085Y-48266685D01*
X186520078Y-48266679D01*
X186280831Y-48083099D01*
X186019671Y-47932318D01*
X186019661Y-47932314D01*
X185741060Y-47816913D01*
X185449766Y-47738861D01*
X185150793Y-47699501D01*
X185150788Y-47699500D01*
X185150783Y-47699500D01*
X184849217Y-47699500D01*
X184849211Y-47699500D01*
X184849206Y-47699501D01*
X184550233Y-47738861D01*
X184258939Y-47816913D01*
X183980338Y-47932314D01*
X183980328Y-47932318D01*
X183719168Y-48083099D01*
X183479921Y-48266679D01*
X183479914Y-48266685D01*
X183266685Y-48479914D01*
X183266679Y-48479921D01*
X183083099Y-48719168D01*
X182932318Y-48980328D01*
X182932314Y-48980338D01*
X182816913Y-49258939D01*
X182738861Y-49550233D01*
X182699501Y-49849206D01*
X182699500Y-49849223D01*
X175673839Y-49849223D01*
X175580109Y-49720213D01*
X175429786Y-49569890D01*
X175257820Y-49444951D01*
X175249600Y-49440763D01*
X175249054Y-49440485D01*
X175198259Y-49392512D01*
X175181463Y-49324692D01*
X175203999Y-49258556D01*
X175249054Y-49219515D01*
X175257816Y-49215051D01*
X175347554Y-49149853D01*
X175429786Y-49090109D01*
X175429788Y-49090106D01*
X175429792Y-49090104D01*
X175580104Y-48939792D01*
X175580106Y-48939788D01*
X175580109Y-48939786D01*
X175705048Y-48767820D01*
X175705047Y-48767820D01*
X175705051Y-48767816D01*
X175801557Y-48578412D01*
X175867246Y-48376243D01*
X175900500Y-48166287D01*
X175900500Y-47953713D01*
X175867246Y-47743757D01*
X175801557Y-47541588D01*
X175705051Y-47352184D01*
X175705049Y-47352181D01*
X175705048Y-47352179D01*
X175580109Y-47180213D01*
X175429786Y-47029890D01*
X175257820Y-46904951D01*
X175068414Y-46808444D01*
X175068413Y-46808443D01*
X175068412Y-46808443D01*
X174866243Y-46742754D01*
X174866241Y-46742753D01*
X174866240Y-46742753D01*
X174702863Y-46716877D01*
X174656287Y-46709500D01*
X174443713Y-46709500D01*
X174397137Y-46716877D01*
X174233760Y-46742753D01*
X174031585Y-46808444D01*
X173842179Y-46904951D01*
X173670213Y-47029890D01*
X173519890Y-47180213D01*
X173394949Y-47352182D01*
X173390484Y-47360946D01*
X173342509Y-47411742D01*
X173274688Y-47428536D01*
X173208553Y-47405998D01*
X173169516Y-47360946D01*
X173165050Y-47352182D01*
X173040109Y-47180213D01*
X172889786Y-47029890D01*
X172717820Y-46904951D01*
X172528414Y-46808444D01*
X172528413Y-46808443D01*
X172528412Y-46808443D01*
X172326243Y-46742754D01*
X172326241Y-46742753D01*
X172326240Y-46742753D01*
X172162863Y-46716877D01*
X172116287Y-46709500D01*
X171903713Y-46709500D01*
X171857137Y-46716877D01*
X171693755Y-46742754D01*
X171680293Y-46747128D01*
X171610451Y-46749122D01*
X171554296Y-46716877D01*
X171232011Y-46394591D01*
X171232006Y-46394587D01*
X171195748Y-46370361D01*
X171167932Y-46351775D01*
X171129233Y-46325917D01*
X171095784Y-46312062D01*
X171089608Y-46309504D01*
X171089605Y-46309502D01*
X171015035Y-46278614D01*
X171015027Y-46278612D01*
X170893807Y-46254500D01*
X170893803Y-46254500D01*
X163089804Y-46254500D01*
X162966197Y-46254500D01*
X162966192Y-46254500D01*
X162844973Y-46278611D01*
X162844973Y-46278612D01*
X162844970Y-46278613D01*
X162844966Y-46278614D01*
X162778070Y-46306323D01*
X162778068Y-46306323D01*
X162730769Y-46325915D01*
X162730764Y-46325918D01*
X162692067Y-46351775D01*
X162676156Y-46362407D01*
X162627989Y-46394590D01*
X162305702Y-46716877D01*
X162244379Y-46750362D01*
X162179707Y-46747128D01*
X162166245Y-46742754D01*
X162166240Y-46742753D01*
X162002863Y-46716877D01*
X161956287Y-46709500D01*
X161743713Y-46709500D01*
X161697137Y-46716877D01*
X161533760Y-46742753D01*
X161331585Y-46808444D01*
X161142179Y-46904951D01*
X160970213Y-47029890D01*
X160819890Y-47180213D01*
X160694949Y-47352182D01*
X160690484Y-47360946D01*
X160642509Y-47411742D01*
X160574688Y-47428536D01*
X160508553Y-47405998D01*
X160469516Y-47360946D01*
X160465050Y-47352182D01*
X160340109Y-47180213D01*
X160189786Y-47029890D01*
X160017820Y-46904951D01*
X159828414Y-46808444D01*
X159828413Y-46808443D01*
X159828412Y-46808443D01*
X159626243Y-46742754D01*
X159626241Y-46742753D01*
X159626240Y-46742753D01*
X159462863Y-46716877D01*
X159416287Y-46709500D01*
X159203713Y-46709500D01*
X159157137Y-46716877D01*
X158993760Y-46742753D01*
X158791585Y-46808444D01*
X158602179Y-46904951D01*
X158430213Y-47029890D01*
X158279892Y-47180211D01*
X158204935Y-47283384D01*
X158149605Y-47326051D01*
X158104616Y-47334500D01*
X156518543Y-47334500D01*
X156378385Y-47362379D01*
X156378379Y-47362381D01*
X156246344Y-47417071D01*
X156127522Y-47496465D01*
X156127515Y-47496471D01*
X152886469Y-50737517D01*
X152807070Y-50856348D01*
X152752381Y-50988379D01*
X152752379Y-50988385D01*
X152724500Y-51128542D01*
X148430498Y-51128542D01*
X148430498Y-50049992D01*
X148426321Y-50009106D01*
X148419998Y-49947203D01*
X148419997Y-49947200D01*
X148404854Y-49901501D01*
X148364813Y-49780666D01*
X148272711Y-49631344D01*
X148148655Y-49507288D01*
X147999333Y-49415186D01*
X147832796Y-49360001D01*
X147832794Y-49360000D01*
X147730009Y-49349500D01*
X145529997Y-49349500D01*
X145529980Y-49349501D01*
X145427202Y-49360000D01*
X145427199Y-49360001D01*
X145260667Y-49415185D01*
X145260662Y-49415187D01*
X145111341Y-49507289D01*
X144987288Y-49631342D01*
X144895186Y-49780663D01*
X144895185Y-49780666D01*
X144840000Y-49947203D01*
X144840000Y-49947204D01*
X144839999Y-49947204D01*
X144829499Y-50049983D01*
X142296462Y-50049983D01*
X142633723Y-49712721D01*
X142552172Y-49650145D01*
X142552171Y-49650144D01*
X142347828Y-49532165D01*
X142347819Y-49532160D01*
X142129836Y-49441870D01*
X142129838Y-49441870D01*
X141901914Y-49380799D01*
X141667985Y-49350000D01*
X141432014Y-49350000D01*
X141198085Y-49380799D01*
X140970162Y-49441870D01*
X140752180Y-49532160D01*
X140752171Y-49532165D01*
X140547828Y-49650144D01*
X140547818Y-49650150D01*
X140466275Y-49712720D01*
X140466275Y-49712721D01*
X141302512Y-50548958D01*
X141242110Y-50573978D01*
X141135649Y-50645112D01*
X141045112Y-50735649D01*
X140973978Y-50842110D01*
X140948958Y-50902512D01*
X140112721Y-50066275D01*
X140112720Y-50066275D01*
X140050150Y-50147818D01*
X140050144Y-50147828D01*
X139932165Y-50352171D01*
X139932160Y-50352180D01*
X139841870Y-50570162D01*
X139780799Y-50798085D01*
X139750000Y-51032014D01*
X136060555Y-51032014D01*
X136067683Y-51019668D01*
X136088133Y-50970299D01*
X136159738Y-50797428D01*
X136183087Y-50741058D01*
X136261138Y-50449768D01*
X136300500Y-50150783D01*
X136300500Y-49849217D01*
X136261138Y-49550232D01*
X136183087Y-49258942D01*
X136183041Y-49258832D01*
X136097918Y-49053326D01*
X136067683Y-48980332D01*
X135916900Y-48719168D01*
X135808896Y-48578414D01*
X135733320Y-48479921D01*
X135733314Y-48479914D01*
X135520085Y-48266685D01*
X135520078Y-48266679D01*
X135280831Y-48083099D01*
X135019671Y-47932318D01*
X135019661Y-47932314D01*
X134741060Y-47816913D01*
X134449766Y-47738861D01*
X134150793Y-47699501D01*
X134150788Y-47699500D01*
X134150783Y-47699500D01*
X133849217Y-47699500D01*
X133849211Y-47699500D01*
X133849206Y-47699501D01*
X133550233Y-47738861D01*
X133258939Y-47816913D01*
X132980338Y-47932314D01*
X132980328Y-47932318D01*
X132719168Y-48083099D01*
X132479921Y-48266679D01*
X132479914Y-48266685D01*
X132266685Y-48479914D01*
X132266679Y-48479921D01*
X132083099Y-48719168D01*
X131932318Y-48980328D01*
X131932314Y-48980338D01*
X131816913Y-49258939D01*
X131738861Y-49550233D01*
X131699501Y-49849206D01*
X131699500Y-49849223D01*
X130004116Y-49849223D01*
X130033551Y-49489088D01*
X130035089Y-49477288D01*
X130100859Y-49110926D01*
X130103517Y-49099348D01*
X130204133Y-48740971D01*
X130207890Y-48729702D01*
X130342423Y-48382628D01*
X130347244Y-48371771D01*
X130514443Y-48039224D01*
X130520296Y-48028856D01*
X130718628Y-47713877D01*
X130725440Y-47704132D01*
X130953083Y-47409623D01*
X130960788Y-47400588D01*
X131215627Y-47129281D01*
X131224164Y-47121025D01*
X131503880Y-46875397D01*
X131513162Y-46868005D01*
X131815124Y-46650363D01*
X131825100Y-46643878D01*
X132146547Y-46456208D01*
X132157094Y-46450711D01*
X132495060Y-46294746D01*
X132506085Y-46290287D01*
X132857452Y-46167463D01*
X132868857Y-46164081D01*
X133230395Y-46075530D01*
X133242070Y-46073259D01*
X133610413Y-46019802D01*
X133622264Y-46018660D01*
X133997026Y-46000643D01*
X134002344Y-46000502D01*
X134002733Y-46000500D01*
X134065892Y-46000500D01*
X134067126Y-46000168D01*
X134076267Y-46000122D01*
X134076349Y-46000145D01*
X134076732Y-46000120D01*
X184997093Y-45932484D01*
X185002910Y-45932615D01*
G37*
%TD.AperFunction*%
%TD*%
M02*
