%TF.GenerationSoftware,KiCad,Pcbnew,9.0.3*%
%TF.CreationDate,2026-04-11T21:11:08-04:00*%
%TF.ProjectId,TouchScreenModule_Rev1,546f7563-6853-4637-9265-656e4d6f6475,rev?*%
%TF.SameCoordinates,Original*%
%TF.FileFunction,Soldermask,Top*%
%TF.FilePolarity,Negative*%
%FSLAX46Y46*%
G04 Gerber Fmt 4.6, Leading zero omitted, Abs format (unit mm)*
G04 Created by KiCad (PCBNEW 9.0.3) date 2026-04-11 21:11:08*
%MOMM*%
%LPD*%
G01*
G04 APERTURE LIST*
G04 Aperture macros list*
%AMRoundRect*
0 Rectangle with rounded corners*
0 $1 Rounding radius*
0 $2 $3 $4 $5 $6 $7 $8 $9 X,Y pos of 4 corners*
0 Add a 4 corners polygon primitive as box body*
4,1,4,$2,$3,$4,$5,$6,$7,$8,$9,$2,$3,0*
0 Add four circle primitives for the rounded corners*
1,1,$1+$1,$2,$3*
1,1,$1+$1,$4,$5*
1,1,$1+$1,$6,$7*
1,1,$1+$1,$8,$9*
0 Add four rect primitives between the rounded corners*
20,1,$1+$1,$2,$3,$4,$5,0*
20,1,$1+$1,$4,$5,$6,$7,0*
20,1,$1+$1,$6,$7,$8,$9,0*
20,1,$1+$1,$8,$9,$2,$3,0*%
G04 Aperture macros list end*
%ADD10RoundRect,0.250000X0.565685X0.070711X0.070711X0.565685X-0.565685X-0.070711X-0.070711X-0.565685X0*%
%ADD11C,3.600000*%
%ADD12C,6.400000*%
%ADD13RoundRect,0.250000X-0.565685X-0.070711X-0.070711X-0.565685X0.565685X0.070711X0.070711X0.565685X0*%
%ADD14R,1.700000X1.700000*%
%ADD15C,1.700000*%
%ADD16RoundRect,0.250000X0.574524X0.097227X0.097227X0.574524X-0.574524X-0.097227X-0.097227X-0.574524X0*%
%ADD17RoundRect,0.250000X-0.097227X0.574524X-0.574524X0.097227X0.097227X-0.574524X0.574524X-0.097227X0*%
%ADD18RoundRect,0.250000X0.475000X-0.337500X0.475000X0.337500X-0.475000X0.337500X-0.475000X-0.337500X0*%
%ADD19RoundRect,0.099250X-0.725138X0.304056X0.304056X-0.725138X0.725138X-0.304056X-0.304056X0.725138X0*%
%ADD20RoundRect,0.250000X1.050000X1.050000X-1.050000X1.050000X-1.050000X-1.050000X1.050000X-1.050000X0*%
%ADD21C,2.600000*%
%ADD22RoundRect,0.102000X-1.308148X2.722361X-2.722361X1.308148X1.308148X-2.722361X2.722361X-1.308148X0*%
%ADD23RoundRect,0.250000X0.000000X0.777817X-0.777817X0.000000X0.000000X-0.777817X0.777817X0.000000X0*%
%ADD24C,1.600000*%
G04 APERTURE END LIST*
D10*
%TO.C,R2*%
X165932107Y-68982107D03*
X164517893Y-67567893D03*
%TD*%
D11*
%TO.C,H1*%
X185000000Y-50000000D03*
D12*
X185000000Y-50000000D03*
%TD*%
D13*
%TO.C,R1*%
X162492893Y-68842893D03*
X163907107Y-70257107D03*
%TD*%
D11*
%TO.C,H3*%
X185000000Y-81000000D03*
D12*
X185000000Y-81000000D03*
%TD*%
D14*
%TO.C,J1*%
X159310000Y-50600000D03*
D15*
X159310000Y-48060000D03*
X161850000Y-50600000D03*
X161850000Y-48060000D03*
X164389999Y-50600000D03*
X164390000Y-48060000D03*
X166930000Y-50600000D03*
X166930000Y-48060000D03*
X169470000Y-50600000D03*
X169470000Y-48060000D03*
X172010000Y-50600000D03*
X172010000Y-48060000D03*
X174550000Y-50600000D03*
X174550000Y-48060000D03*
%TD*%
D16*
%TO.C,C4*%
X164133623Y-65308623D03*
X162666377Y-63841377D03*
%TD*%
D17*
%TO.C,C3*%
X156533623Y-53816377D03*
X155066377Y-55283623D03*
%TD*%
D18*
%TO.C,C2*%
X157075000Y-63162500D03*
X157075000Y-61087500D03*
%TD*%
D14*
%TO.C,J4*%
X186715000Y-61355000D03*
D15*
X184175000Y-61355000D03*
X186715000Y-58815000D03*
X184175000Y-58815000D03*
X186715000Y-56275001D03*
X184175000Y-56275000D03*
%TD*%
D19*
%TO.C,U1*%
X160166583Y-64166583D03*
X159494832Y-64838335D03*
X158823080Y-65510086D03*
X160456497Y-67143503D03*
X161128248Y-66471751D03*
X161800000Y-65800000D03*
%TD*%
D17*
%TO.C,C1*%
X158858623Y-54516377D03*
X157391377Y-55983623D03*
%TD*%
D20*
%TO.C,J3*%
X146629999Y-51150000D03*
D21*
X141550000Y-51150000D03*
%TD*%
D17*
%TO.C,C5*%
X154708623Y-63191377D03*
X153241377Y-64658623D03*
%TD*%
D22*
%TO.C,L1*%
X162820280Y-56754720D03*
X159779720Y-59795280D03*
%TD*%
D23*
%TO.C,C6*%
X152028677Y-59316117D03*
D24*
X150260910Y-61083884D03*
%TD*%
D11*
%TO.C,H2*%
X134000000Y-50000000D03*
D12*
X134000000Y-50000000D03*
%TD*%
D13*
%TO.C,R3*%
X156092893Y-65467893D03*
X157507107Y-66882107D03*
%TD*%
M02*
