%TF.GenerationSoftware,KiCad,Pcbnew,9.0.3*%
%TF.CreationDate,2026-04-11T21:08:59-04:00*%
%TF.ProjectId,ComputerVisionModule_Rev1,436f6d70-7574-4657-9256-6973696f6e4d,rev?*%
%TF.SameCoordinates,Original*%
%TF.FileFunction,Copper,L1,Top*%
%TF.FilePolarity,Positive*%
%FSLAX46Y46*%
G04 Gerber Fmt 4.6, Leading zero omitted, Abs format (unit mm)*
G04 Created by KiCad (PCBNEW 9.0.3) date 2026-04-11 21:08:59*
%MOMM*%
%LPD*%
G01*
G04 APERTURE LIST*
G04 Aperture macros list*
%AMRoundRect*
0 Rectangle with rounded corners*
0 $1 Rounding radius*
0 $2 $3 $4 $5 $6 $7 $8 $9 X,Y pos of 4 corners*
0 Add a 4 corners polygon primitive as box body*
4,1,4,$2,$3,$4,$5,$6,$7,$8,$9,$2,$3,0*
0 Add four circle primitives for the rounded corners*
1,1,$1+$1,$2,$3*
1,1,$1+$1,$4,$5*
1,1,$1+$1,$6,$7*
1,1,$1+$1,$8,$9*
0 Add four rect primitives between the rounded corners*
20,1,$1+$1,$2,$3,$4,$5,0*
20,1,$1+$1,$4,$5,$6,$7,0*
20,1,$1+$1,$6,$7,$8,$9,0*
20,1,$1+$1,$8,$9,$2,$3,0*%
G04 Aperture macros list end*
%TA.AperFunction,ComponentPad*%
%ADD10C,3.600000*%
%TD*%
%TA.AperFunction,ConnectorPad*%
%ADD11C,6.400000*%
%TD*%
%TA.AperFunction,SMDPad,CuDef*%
%ADD12RoundRect,0.250000X-0.525000X-0.400000X0.525000X-0.400000X0.525000X0.400000X-0.525000X0.400000X0*%
%TD*%
%TA.AperFunction,ComponentPad*%
%ADD13C,1.600000*%
%TD*%
%TA.AperFunction,ComponentPad*%
%ADD14RoundRect,0.250000X1.050000X1.050000X-1.050000X1.050000X-1.050000X-1.050000X1.050000X-1.050000X0*%
%TD*%
%TA.AperFunction,ComponentPad*%
%ADD15C,2.600000*%
%TD*%
%TA.AperFunction,ViaPad*%
%ADD16C,0.800000*%
%TD*%
%TA.AperFunction,Conductor*%
%ADD17C,0.450000*%
%TD*%
%TA.AperFunction,Conductor*%
%ADD18C,0.750000*%
%TD*%
G04 APERTURE END LIST*
D10*
%TO.P,H1,1*%
%TO.N,N/C*%
X99675000Y-110975000D03*
D11*
X99675000Y-110975000D03*
%TD*%
D12*
%TO.P,SW1,1,1*%
%TO.N,Net-(U1-RST)*%
X118790000Y-92850000D03*
X126750000Y-92850000D03*
%TO.P,SW1,2,2*%
%TO.N,GND*%
X118790000Y-97350000D03*
X126750000Y-97350000D03*
%TD*%
D13*
%TO.P,U1,1,3V3*%
%TO.N,+3V3*%
X105560000Y-143755000D03*
%TO.P,U1,2,TX*%
%TO.N,Net-(U1-TX)*%
X105560000Y-136135000D03*
%TO.P,U1,3,GND*%
%TO.N,GND*%
X137050000Y-143755000D03*
%TO.P,U1,4,RX*%
%TO.N,Net-(U1-RX)*%
X105560000Y-138675000D03*
%TO.P,U1,5,GND*%
%TO.N,GND*%
X132740000Y-138675000D03*
%TO.P,U1,6,RST*%
%TO.N,Net-(U1-RST)*%
X137050000Y-125975000D03*
%TO.P,U1,7,3V3*%
%TO.N,+3V3*%
X132740000Y-136135000D03*
%TO.P,U1,8,F1*%
%TO.N,unconnected-(U1-F1-Pad8)*%
X105560000Y-125975000D03*
%TO.P,U1,9,F2*%
%TO.N,unconnected-(U1-F2-Pad9)*%
X105560000Y-128515000D03*
%TO.P,U1,10,F3*%
%TO.N,unconnected-(U1-F3-Pad10)*%
X105560000Y-131055000D03*
%TO.P,U1,11,F4*%
%TO.N,unconnected-(U1-F4-Pad11)*%
X105560000Y-133595000D03*
%TO.P,U1,12,F5*%
%TO.N,unconnected-(U1-F5-Pad12)*%
X105560000Y-141215000D03*
%TO.P,U1,13,F6*%
%TO.N,unconnected-(U1-F6-Pad13)*%
X132740000Y-128515000D03*
%TO.P,U1,14,F7*%
%TO.N,unconnected-(U1-F7-Pad14)*%
X132740000Y-131055000D03*
%TO.P,U1,15,F8*%
%TO.N,unconnected-(U1-F8-Pad15)*%
X132740000Y-133595000D03*
%TO.P,U1,16,F9*%
%TO.N,unconnected-(U1-F9-Pad16)*%
X137050000Y-128515000D03*
%TO.P,U1,17,F10*%
%TO.N,unconnected-(U1-F10-Pad17)*%
X137050000Y-131055000D03*
%TO.P,U1,18,F11*%
%TO.N,unconnected-(U1-F11-Pad18)*%
X137050000Y-133595000D03*
%TO.P,U1,19,F12*%
%TO.N,unconnected-(U1-F12-Pad19)*%
X137050000Y-136135000D03*
%TO.P,U1,20,F13*%
%TO.N,unconnected-(U1-F13-Pad20)*%
X137050000Y-138675000D03*
%TO.P,U1,21,F14*%
%TO.N,unconnected-(U1-F14-Pad21)*%
X137050000Y-141215000D03*
%TD*%
D10*
%TO.P,H3,1*%
%TO.N,N/C*%
X142675000Y-110975000D03*
D11*
X142675000Y-110975000D03*
%TD*%
D10*
%TO.P,H2,1*%
%TO.N,N/C*%
X122675000Y-87975000D03*
D11*
X122675000Y-87975000D03*
%TD*%
D14*
%TO.P,J2,1,Pin_1*%
%TO.N,+3V3*%
X121100000Y-140050000D03*
D15*
%TO.P,J2,2,Pin_2*%
%TO.N,Net-(J2-Pin_2)*%
X116020001Y-140050000D03*
%TD*%
D16*
%TO.N,GND*%
X108645200Y-105679800D03*
X107300000Y-110750000D03*
X114550000Y-115700000D03*
X114500000Y-129275000D03*
X121600000Y-97550000D03*
X113750000Y-106700000D03*
X115375000Y-110150000D03*
X128875000Y-97600000D03*
X114575000Y-109200000D03*
X111625000Y-114975000D03*
X108592891Y-111992891D03*
X110200000Y-113550000D03*
X106325000Y-109750000D03*
X121925000Y-128150000D03*
X116700000Y-113700000D03*
%TO.N,+3V3*%
X120750000Y-136975000D03*
X111475000Y-110600000D03*
X121400000Y-136900000D03*
X124625000Y-95475000D03*
X130575000Y-136025000D03*
X109300000Y-112700000D03*
X113675000Y-108400000D03*
X107675000Y-143350000D03*
%TO.N,Net-(U1-TX)*%
X110250000Y-109400000D03*
%TO.N,Net-(U1-RX)*%
X112175000Y-106400000D03*
%TO.N,Net-(U1-RST)*%
X124575000Y-93100000D03*
%TD*%
D17*
%TO.N,GND*%
X126750000Y-97350000D02*
X128625000Y-97350000D01*
X118790000Y-97350000D02*
X121400000Y-97350000D01*
X121400000Y-97350000D02*
X121600000Y-97550000D01*
X128625000Y-97350000D02*
X128875000Y-97600000D01*
D18*
%TO.N,+3V3*%
X121325000Y-136975000D02*
X121400000Y-136900000D01*
X120750000Y-136975000D02*
X121325000Y-136975000D01*
D17*
%TO.N,Net-(U1-RST)*%
X124325000Y-92850000D02*
X124575000Y-93100000D01*
X137050000Y-125975000D02*
X137050000Y-103150000D01*
X126750000Y-92850000D02*
X124825000Y-92850000D01*
X124825000Y-92850000D02*
X124575000Y-93100000D01*
X137050000Y-103150000D02*
X126750000Y-92850000D01*
X118790000Y-92850000D02*
X124325000Y-92850000D01*
%TD*%
%TA.AperFunction,Conductor*%
%TO.N,GND*%
G36*
X122702876Y-83475755D02*
G01*
X123085179Y-83494407D01*
X123095953Y-83495406D01*
X123475136Y-83547389D01*
X123485782Y-83549326D01*
X123858949Y-83634238D01*
X123869400Y-83637101D01*
X124233730Y-83754299D01*
X124243895Y-83758068D01*
X124596577Y-83906647D01*
X124606369Y-83911286D01*
X124644968Y-83931687D01*
X124944720Y-84090117D01*
X124954078Y-84095599D01*
X125275509Y-84303311D01*
X125284352Y-84309590D01*
X125586400Y-84544592D01*
X125594660Y-84551620D01*
X125867326Y-84804969D01*
X125876518Y-84814472D01*
X137250030Y-97902697D01*
X146323983Y-108344674D01*
X146333620Y-108357317D01*
X146512988Y-108626883D01*
X146518044Y-108635167D01*
X146684867Y-108934223D01*
X146689259Y-108942877D01*
X146832178Y-109254049D01*
X146835880Y-109263019D01*
X146954028Y-109584416D01*
X146957018Y-109593649D01*
X147049672Y-109923315D01*
X147051930Y-109932753D01*
X147118520Y-110268648D01*
X147120033Y-110278234D01*
X147160149Y-110618303D01*
X147160908Y-110627978D01*
X147173515Y-110949898D01*
X147173054Y-110966480D01*
X143951638Y-144867284D01*
X143909480Y-145310938D01*
X143903272Y-145334108D01*
X143903272Y-145376268D01*
X143902716Y-145382120D01*
X143902716Y-145382122D01*
X143899283Y-145418246D01*
X143899283Y-145418249D01*
X143899640Y-145420367D01*
X143901246Y-145446383D01*
X143885230Y-145813227D01*
X143884287Y-145824003D01*
X143831007Y-146228704D01*
X143829129Y-146239358D01*
X143740774Y-146637897D01*
X143737974Y-146648345D01*
X143615227Y-147037651D01*
X143611527Y-147047817D01*
X143455313Y-147424951D01*
X143450741Y-147434755D01*
X143262258Y-147796828D01*
X143256850Y-147806196D01*
X143037516Y-148150481D01*
X143031311Y-148159342D01*
X142782813Y-148483191D01*
X142775859Y-148491478D01*
X142500083Y-148792434D01*
X142492434Y-148800083D01*
X142191478Y-149075859D01*
X142183191Y-149082813D01*
X141859342Y-149331311D01*
X141850481Y-149337516D01*
X141506196Y-149556850D01*
X141496828Y-149562258D01*
X141134755Y-149750741D01*
X141124951Y-149755313D01*
X140747817Y-149911527D01*
X140737651Y-149915227D01*
X140348345Y-150037974D01*
X140337897Y-150040774D01*
X139939358Y-150129129D01*
X139928704Y-150131007D01*
X139524003Y-150184287D01*
X139513227Y-150185230D01*
X139102708Y-150203153D01*
X139097286Y-150203271D01*
X103398257Y-150199507D01*
X103398256Y-150199507D01*
X103383717Y-150199505D01*
X103376699Y-150197836D01*
X103317956Y-150199498D01*
X103316182Y-150199498D01*
X103316181Y-150199497D01*
X103297009Y-150199496D01*
X103295313Y-150199484D01*
X102912102Y-150194201D01*
X102901684Y-150193619D01*
X102509997Y-150155129D01*
X102499667Y-150153672D01*
X102112636Y-150082399D01*
X102102464Y-150080080D01*
X101722782Y-149976521D01*
X101712840Y-149973354D01*
X101343192Y-149838237D01*
X101333553Y-149834247D01*
X100976588Y-149668543D01*
X100967318Y-149663756D01*
X100625537Y-149468627D01*
X100616702Y-149463077D01*
X100292546Y-149239914D01*
X100284209Y-149233642D01*
X99979949Y-148984010D01*
X99972169Y-148977059D01*
X99689970Y-148702734D01*
X99682817Y-148695170D01*
X99424662Y-148398075D01*
X99418169Y-148389934D01*
X99185918Y-148072210D01*
X99180121Y-148063536D01*
X98975406Y-147727421D01*
X98970358Y-147718290D01*
X98794617Y-147366146D01*
X98790355Y-147356623D01*
X98644835Y-146990942D01*
X98641398Y-146981122D01*
X98527131Y-146604495D01*
X98524527Y-146594398D01*
X98442333Y-146209530D01*
X98440585Y-146199245D01*
X98392278Y-145818633D01*
X98391031Y-145808811D01*
X98390155Y-145798423D01*
X98383151Y-145632094D01*
X98375364Y-145447148D01*
X98375298Y-145445241D01*
X98374975Y-145433077D01*
X98377327Y-145419315D01*
X98373529Y-145378432D01*
X98373421Y-145374343D01*
X98373513Y-145373992D01*
X98373378Y-145371061D01*
X98373378Y-145334111D01*
X98373378Y-145334108D01*
X98370026Y-145321600D01*
X98366334Y-145300979D01*
X98366299Y-145300603D01*
X96561557Y-125872648D01*
X104259500Y-125872648D01*
X104259500Y-126077351D01*
X104291522Y-126279534D01*
X104354781Y-126474223D01*
X104447715Y-126656613D01*
X104568028Y-126822213D01*
X104712786Y-126966971D01*
X104867749Y-127079556D01*
X104878390Y-127087287D01*
X104969840Y-127133883D01*
X104971080Y-127134515D01*
X105021876Y-127182490D01*
X105038671Y-127250311D01*
X105016134Y-127316446D01*
X104971080Y-127355485D01*
X104878386Y-127402715D01*
X104712786Y-127523028D01*
X104568028Y-127667786D01*
X104447715Y-127833386D01*
X104354781Y-128015776D01*
X104291522Y-128210465D01*
X104259500Y-128412648D01*
X104259500Y-128617351D01*
X104291522Y-128819534D01*
X104354781Y-129014223D01*
X104447715Y-129196613D01*
X104568028Y-129362213D01*
X104712786Y-129506971D01*
X104867749Y-129619556D01*
X104878390Y-129627287D01*
X104969840Y-129673883D01*
X104971080Y-129674515D01*
X105021876Y-129722490D01*
X105038671Y-129790311D01*
X105016134Y-129856446D01*
X104971080Y-129895485D01*
X104878386Y-129942715D01*
X104712786Y-130063028D01*
X104568028Y-130207786D01*
X104447715Y-130373386D01*
X104354781Y-130555776D01*
X104291522Y-130750465D01*
X104259500Y-130952648D01*
X104259500Y-131157351D01*
X104291522Y-131359534D01*
X104354781Y-131554223D01*
X104447715Y-131736613D01*
X104568028Y-131902213D01*
X104712786Y-132046971D01*
X104867749Y-132159556D01*
X104878390Y-132167287D01*
X104969840Y-132213883D01*
X104971080Y-132214515D01*
X105021876Y-132262490D01*
X105038671Y-132330311D01*
X105016134Y-132396446D01*
X104971080Y-132435485D01*
X104878386Y-132482715D01*
X104712786Y-132603028D01*
X104568028Y-132747786D01*
X104447715Y-132913386D01*
X104354781Y-133095776D01*
X104291522Y-133290465D01*
X104259500Y-133492648D01*
X104259500Y-133697351D01*
X104291522Y-133899534D01*
X104354781Y-134094223D01*
X104447715Y-134276613D01*
X104568028Y-134442213D01*
X104712786Y-134586971D01*
X104867749Y-134699556D01*
X104878390Y-134707287D01*
X104969840Y-134753883D01*
X104971080Y-134754515D01*
X105021876Y-134802490D01*
X105038671Y-134870311D01*
X105016134Y-134936446D01*
X104971080Y-134975485D01*
X104878386Y-135022715D01*
X104712786Y-135143028D01*
X104568028Y-135287786D01*
X104447715Y-135453386D01*
X104354781Y-135635776D01*
X104291522Y-135830465D01*
X104259500Y-136032648D01*
X104259500Y-136237351D01*
X104291522Y-136439534D01*
X104354781Y-136634223D01*
X104400762Y-136724464D01*
X104445010Y-136811306D01*
X104447715Y-136816613D01*
X104568028Y-136982213D01*
X104712786Y-137126971D01*
X104865137Y-137237658D01*
X104878390Y-137247287D01*
X104969840Y-137293883D01*
X104971080Y-137294515D01*
X105021876Y-137342490D01*
X105038671Y-137410311D01*
X105016134Y-137476446D01*
X104971080Y-137515485D01*
X104878386Y-137562715D01*
X104712786Y-137683028D01*
X104568028Y-137827786D01*
X104447715Y-137993386D01*
X104354781Y-138175776D01*
X104291522Y-138370465D01*
X104259500Y-138572648D01*
X104259500Y-138777351D01*
X104291522Y-138979534D01*
X104354781Y-139174223D01*
X104394382Y-139251943D01*
X104447585Y-139356359D01*
X104447715Y-139356613D01*
X104568028Y-139522213D01*
X104712786Y-139666971D01*
X104833226Y-139754474D01*
X104878390Y-139787287D01*
X104969840Y-139833883D01*
X104971080Y-139834515D01*
X105021876Y-139882490D01*
X105038671Y-139950311D01*
X105016134Y-140016446D01*
X104971080Y-140055485D01*
X104878386Y-140102715D01*
X104712786Y-140223028D01*
X104568028Y-140367786D01*
X104447715Y-140533386D01*
X104354781Y-140715776D01*
X104291522Y-140910465D01*
X104259500Y-141112648D01*
X104259500Y-141317351D01*
X104291522Y-141519534D01*
X104354781Y-141714223D01*
X104447715Y-141896613D01*
X104568028Y-142062213D01*
X104712786Y-142206971D01*
X104867749Y-142319556D01*
X104878390Y-142327287D01*
X104969840Y-142373883D01*
X104971080Y-142374515D01*
X105021876Y-142422490D01*
X105038671Y-142490311D01*
X105016134Y-142556446D01*
X104971080Y-142595485D01*
X104878386Y-142642715D01*
X104712786Y-142763028D01*
X104568028Y-142907786D01*
X104447715Y-143073386D01*
X104354781Y-143255776D01*
X104291522Y-143450465D01*
X104259500Y-143652648D01*
X104259500Y-143857351D01*
X104291522Y-144059534D01*
X104354781Y-144254223D01*
X104418691Y-144379653D01*
X104447585Y-144436359D01*
X104447715Y-144436613D01*
X104568028Y-144602213D01*
X104712786Y-144746971D01*
X104833226Y-144834474D01*
X104878390Y-144867287D01*
X104994607Y-144926503D01*
X105060776Y-144960218D01*
X105060778Y-144960218D01*
X105060781Y-144960220D01*
X105165137Y-144994127D01*
X105255465Y-145023477D01*
X105356557Y-145039488D01*
X105457648Y-145055500D01*
X105457649Y-145055500D01*
X105662351Y-145055500D01*
X105662352Y-145055500D01*
X105864534Y-145023477D01*
X106059219Y-144960220D01*
X106241610Y-144867287D01*
X106334590Y-144799732D01*
X106407213Y-144746971D01*
X106407215Y-144746968D01*
X106407219Y-144746966D01*
X106551966Y-144602219D01*
X106551968Y-144602215D01*
X106551971Y-144602213D01*
X106604732Y-144529590D01*
X106672287Y-144436610D01*
X106765220Y-144254219D01*
X106828477Y-144059534D01*
X106829039Y-144055981D01*
X106858964Y-143992848D01*
X106918273Y-143955913D01*
X106988136Y-143956907D01*
X107039194Y-143987694D01*
X107100961Y-144049461D01*
X107100965Y-144049464D01*
X107248446Y-144148009D01*
X107248459Y-144148016D01*
X107371363Y-144198923D01*
X107412334Y-144215894D01*
X107412336Y-144215894D01*
X107412341Y-144215896D01*
X107586304Y-144250499D01*
X107586307Y-144250500D01*
X107586309Y-144250500D01*
X107763693Y-144250500D01*
X107763694Y-144250499D01*
X107821682Y-144238964D01*
X107937658Y-144215896D01*
X107937661Y-144215894D01*
X107937666Y-144215894D01*
X108101547Y-144148013D01*
X108249035Y-144049464D01*
X108374464Y-143924035D01*
X108473013Y-143776547D01*
X108540894Y-143612666D01*
X108575500Y-143438691D01*
X108575500Y-143261309D01*
X108575500Y-143261306D01*
X108575499Y-143261304D01*
X108540896Y-143087341D01*
X108540893Y-143087332D01*
X108535116Y-143073386D01*
X108502162Y-142993826D01*
X108473016Y-142923459D01*
X108473009Y-142923446D01*
X108374464Y-142775965D01*
X108374461Y-142775961D01*
X108249038Y-142650538D01*
X108249034Y-142650535D01*
X108101553Y-142551990D01*
X108101540Y-142551983D01*
X107937667Y-142484106D01*
X107937658Y-142484103D01*
X107763694Y-142449500D01*
X107763691Y-142449500D01*
X107586309Y-142449500D01*
X107586306Y-142449500D01*
X107412341Y-142484103D01*
X107412332Y-142484106D01*
X107248459Y-142551983D01*
X107248446Y-142551990D01*
X107100965Y-142650535D01*
X107100961Y-142650538D01*
X106975538Y-142775961D01*
X106975535Y-142775965D01*
X106876990Y-142923446D01*
X106876985Y-142923456D01*
X106847837Y-142993826D01*
X106803996Y-143048229D01*
X106737701Y-143070294D01*
X106670002Y-143053015D01*
X106632957Y-143019257D01*
X106551969Y-142907784D01*
X106407213Y-142763028D01*
X106241614Y-142642715D01*
X106235006Y-142639348D01*
X106148917Y-142595483D01*
X106098123Y-142547511D01*
X106081328Y-142479690D01*
X106103865Y-142413555D01*
X106148917Y-142374516D01*
X106241610Y-142327287D01*
X106262770Y-142311913D01*
X106407213Y-142206971D01*
X106407215Y-142206968D01*
X106407219Y-142206966D01*
X106551966Y-142062219D01*
X106551968Y-142062215D01*
X106551971Y-142062213D01*
X106604732Y-141989590D01*
X106672287Y-141896610D01*
X106765220Y-141714219D01*
X106828477Y-141519534D01*
X106860500Y-141317352D01*
X106860500Y-141112648D01*
X106828477Y-140910466D01*
X106808196Y-140848049D01*
X106765218Y-140715776D01*
X106721509Y-140629993D01*
X106672287Y-140533390D01*
X106664556Y-140522749D01*
X106551971Y-140367786D01*
X106407213Y-140223028D01*
X106241614Y-140102715D01*
X106235006Y-140099348D01*
X106148917Y-140055483D01*
X106139764Y-140046838D01*
X106128099Y-140042104D01*
X106114847Y-140023306D01*
X106098123Y-140007511D01*
X106095096Y-139995288D01*
X106087842Y-139984998D01*
X106086856Y-139962017D01*
X106081328Y-139939690D01*
X106083950Y-139931995D01*
X114219501Y-139931995D01*
X114219501Y-140168004D01*
X114219502Y-140168020D01*
X114250307Y-140402010D01*
X114311395Y-140629993D01*
X114401715Y-140848045D01*
X114401720Y-140848056D01*
X114437753Y-140910466D01*
X114519728Y-141052450D01*
X114519730Y-141052453D01*
X114519731Y-141052454D01*
X114663407Y-141239697D01*
X114663413Y-141239704D01*
X114830296Y-141406587D01*
X114830303Y-141406593D01*
X114846910Y-141419336D01*
X115017551Y-141550273D01*
X115148919Y-141626118D01*
X115221944Y-141668280D01*
X115221949Y-141668282D01*
X115221952Y-141668284D01*
X115440008Y-141758606D01*
X115667987Y-141819693D01*
X115901990Y-141850500D01*
X115901997Y-141850500D01*
X116138005Y-141850500D01*
X116138012Y-141850500D01*
X116372015Y-141819693D01*
X116599994Y-141758606D01*
X116818050Y-141668284D01*
X117022451Y-141550273D01*
X117209700Y-141406592D01*
X117376593Y-141239699D01*
X117520274Y-141052450D01*
X117638285Y-140848049D01*
X117728607Y-140629993D01*
X117789694Y-140402014D01*
X117820501Y-140168011D01*
X117820501Y-139931989D01*
X117789694Y-139697986D01*
X117728607Y-139470007D01*
X117638285Y-139251951D01*
X117638283Y-139251948D01*
X117638281Y-139251943D01*
X117536179Y-139075099D01*
X117520274Y-139047550D01*
X117445415Y-138949992D01*
X117445408Y-138949983D01*
X119299500Y-138949983D01*
X119299500Y-141150001D01*
X119299501Y-141150018D01*
X119310000Y-141252796D01*
X119310001Y-141252799D01*
X119331392Y-141317351D01*
X119365186Y-141419334D01*
X119457288Y-141568656D01*
X119581344Y-141692712D01*
X119730666Y-141784814D01*
X119897203Y-141839999D01*
X119999991Y-141850500D01*
X122200008Y-141850499D01*
X122302797Y-141839999D01*
X122469334Y-141784814D01*
X122618656Y-141692712D01*
X122742712Y-141568656D01*
X122834814Y-141419334D01*
X122889999Y-141252797D01*
X122900500Y-141150009D01*
X122900499Y-138949992D01*
X122889999Y-138847203D01*
X122834814Y-138680666D01*
X122834810Y-138680660D01*
X122834809Y-138680657D01*
X122805360Y-138632913D01*
X122805359Y-138632912D01*
X122790717Y-138609174D01*
X122742712Y-138531344D01*
X122618656Y-138407288D01*
X122469334Y-138315186D01*
X122302797Y-138260001D01*
X122302795Y-138260000D01*
X122200010Y-138249500D01*
X119999998Y-138249500D01*
X119999981Y-138249501D01*
X119897203Y-138260000D01*
X119897200Y-138260001D01*
X119730668Y-138315185D01*
X119730663Y-138315187D01*
X119581342Y-138407289D01*
X119457289Y-138531342D01*
X119365187Y-138680663D01*
X119365185Y-138680668D01*
X119360962Y-138693412D01*
X119310001Y-138847203D01*
X119310001Y-138847204D01*
X119310000Y-138847204D01*
X119299500Y-138949983D01*
X117445408Y-138949983D01*
X117376594Y-138860302D01*
X117376588Y-138860295D01*
X117209705Y-138693412D01*
X117209698Y-138693406D01*
X117022455Y-138549730D01*
X117022454Y-138549729D01*
X117022451Y-138549727D01*
X116905157Y-138482007D01*
X116818057Y-138431719D01*
X116818046Y-138431714D01*
X116599994Y-138341394D01*
X116372011Y-138280306D01*
X116138021Y-138249501D01*
X116138018Y-138249500D01*
X116138012Y-138249500D01*
X115901990Y-138249500D01*
X115901984Y-138249500D01*
X115901980Y-138249501D01*
X115667990Y-138280306D01*
X115440007Y-138341394D01*
X115221955Y-138431714D01*
X115221944Y-138431719D01*
X115017546Y-138549730D01*
X114830303Y-138693406D01*
X114830296Y-138693412D01*
X114663413Y-138860295D01*
X114663407Y-138860302D01*
X114519731Y-139047545D01*
X114401720Y-139251943D01*
X114401715Y-139251954D01*
X114311395Y-139470006D01*
X114250307Y-139697989D01*
X114219502Y-139931979D01*
X114219501Y-139931995D01*
X106083950Y-139931995D01*
X106085389Y-139927772D01*
X106084850Y-139915192D01*
X106096445Y-139895326D01*
X106103865Y-139873555D01*
X106114568Y-139864280D01*
X106120073Y-139854850D01*
X106148916Y-139834516D01*
X106241610Y-139787287D01*
X106286774Y-139754474D01*
X106407213Y-139666971D01*
X106407215Y-139666968D01*
X106407219Y-139666966D01*
X106551966Y-139522219D01*
X106551968Y-139522215D01*
X106551971Y-139522213D01*
X106604732Y-139449590D01*
X106672287Y-139356610D01*
X106765220Y-139174219D01*
X106828477Y-138979534D01*
X106860500Y-138777352D01*
X106860500Y-138572648D01*
X106834309Y-138407288D01*
X106828477Y-138370465D01*
X106776038Y-138209075D01*
X106765220Y-138175781D01*
X106765218Y-138175778D01*
X106765218Y-138175776D01*
X106672419Y-137993650D01*
X106672287Y-137993390D01*
X106640092Y-137949077D01*
X106551971Y-137827786D01*
X106407213Y-137683028D01*
X106241614Y-137562715D01*
X106214763Y-137549034D01*
X106148917Y-137515483D01*
X106098123Y-137467511D01*
X106081328Y-137399690D01*
X106103865Y-137333555D01*
X106148917Y-137294516D01*
X106241610Y-137247287D01*
X106262770Y-137231913D01*
X106407213Y-137126971D01*
X106407215Y-137126968D01*
X106407219Y-137126966D01*
X106551966Y-136982219D01*
X106551968Y-136982215D01*
X106551971Y-136982213D01*
X106621651Y-136886304D01*
X119849500Y-136886304D01*
X119849500Y-137063695D01*
X119884103Y-137237658D01*
X119884106Y-137237667D01*
X119951983Y-137401540D01*
X119951990Y-137401553D01*
X120050535Y-137549034D01*
X120050538Y-137549038D01*
X120175961Y-137674461D01*
X120175965Y-137674464D01*
X120323446Y-137773009D01*
X120323459Y-137773016D01*
X120446363Y-137823923D01*
X120487334Y-137840894D01*
X120487336Y-137840894D01*
X120487341Y-137840896D01*
X120661304Y-137875499D01*
X120661307Y-137875500D01*
X120661309Y-137875500D01*
X120838693Y-137875500D01*
X120917203Y-137859882D01*
X120952394Y-137852882D01*
X120976585Y-137850500D01*
X121411231Y-137850500D01*
X121411232Y-137850499D01*
X121580374Y-137816855D01*
X121739705Y-137750858D01*
X121795993Y-137713245D01*
X121817433Y-137701787D01*
X121826547Y-137698013D01*
X121974035Y-137599464D01*
X122099464Y-137474035D01*
X122198013Y-137326547D01*
X122265894Y-137162666D01*
X122272995Y-137126971D01*
X122300499Y-136988695D01*
X122300500Y-136988693D01*
X122300500Y-136811306D01*
X122300499Y-136811304D01*
X122265896Y-136637341D01*
X122265893Y-136637332D01*
X122198016Y-136473459D01*
X122198009Y-136473446D01*
X122099464Y-136325965D01*
X122099461Y-136325961D01*
X121974038Y-136200538D01*
X121974034Y-136200535D01*
X121826553Y-136101990D01*
X121826540Y-136101983D01*
X121688434Y-136044779D01*
X121688433Y-136044779D01*
X121662666Y-136034106D01*
X121662662Y-136034105D01*
X121662658Y-136034103D01*
X121488694Y-135999500D01*
X121488691Y-135999500D01*
X121311309Y-135999500D01*
X121311306Y-135999500D01*
X121137341Y-136034103D01*
X121137332Y-136034106D01*
X121009315Y-136087132D01*
X120939845Y-136094601D01*
X120937672Y-136094188D01*
X120838694Y-136074500D01*
X120838691Y-136074500D01*
X120661309Y-136074500D01*
X120661306Y-136074500D01*
X120487341Y-136109103D01*
X120487332Y-136109106D01*
X120323459Y-136176983D01*
X120323446Y-136176990D01*
X120175965Y-136275535D01*
X120175961Y-136275538D01*
X120050538Y-136400961D01*
X120050535Y-136400965D01*
X119951990Y-136548446D01*
X119951983Y-136548459D01*
X119884106Y-136712332D01*
X119884103Y-136712341D01*
X119849500Y-136886304D01*
X106621651Y-136886304D01*
X106628445Y-136876953D01*
X106672287Y-136816610D01*
X106765220Y-136634219D01*
X106828477Y-136439534D01*
X106860500Y-136237352D01*
X106860500Y-136032648D01*
X106845240Y-135936304D01*
X129674500Y-135936304D01*
X129674500Y-136113695D01*
X129709103Y-136287658D01*
X129709106Y-136287667D01*
X129776983Y-136451540D01*
X129776990Y-136451553D01*
X129875535Y-136599034D01*
X129875538Y-136599038D01*
X130000961Y-136724461D01*
X130000965Y-136724464D01*
X130148446Y-136823009D01*
X130148459Y-136823016D01*
X130271363Y-136873923D01*
X130312334Y-136890894D01*
X130312336Y-136890894D01*
X130312341Y-136890896D01*
X130486304Y-136925499D01*
X130486307Y-136925500D01*
X130486309Y-136925500D01*
X130663693Y-136925500D01*
X130663694Y-136925499D01*
X130721682Y-136913964D01*
X130837658Y-136890896D01*
X130837661Y-136890894D01*
X130837666Y-136890894D01*
X131001547Y-136823013D01*
X131149035Y-136724464D01*
X131274464Y-136599035D01*
X131299887Y-136560985D01*
X131353496Y-136516183D01*
X131422821Y-136507474D01*
X131485849Y-136537628D01*
X131520919Y-136591559D01*
X131534781Y-136634222D01*
X131574581Y-136712332D01*
X131625010Y-136811306D01*
X131627715Y-136816613D01*
X131748028Y-136982213D01*
X131892786Y-137126971D01*
X132058385Y-137247284D01*
X132058387Y-137247285D01*
X132058390Y-137247287D01*
X132151080Y-137294515D01*
X132151630Y-137294795D01*
X132202426Y-137342770D01*
X132219221Y-137410591D01*
X132196684Y-137476725D01*
X132151630Y-137515765D01*
X132058644Y-137563143D01*
X132014077Y-137595523D01*
X132014077Y-137595524D01*
X132610591Y-138192037D01*
X132547007Y-138209075D01*
X132432993Y-138274901D01*
X132339901Y-138367993D01*
X132274075Y-138482007D01*
X132257037Y-138545590D01*
X131660524Y-137949077D01*
X131660523Y-137949077D01*
X131628143Y-137993644D01*
X131535244Y-138175968D01*
X131472009Y-138370582D01*
X131440000Y-138572682D01*
X131440000Y-138777317D01*
X131472009Y-138979417D01*
X131535244Y-139174031D01*
X131628141Y-139356350D01*
X131628147Y-139356359D01*
X131660523Y-139400921D01*
X131660524Y-139400922D01*
X132257037Y-138804409D01*
X132274075Y-138867993D01*
X132339901Y-138982007D01*
X132432993Y-139075099D01*
X132547007Y-139140925D01*
X132610590Y-139157962D01*
X132014076Y-139754474D01*
X132058650Y-139786859D01*
X132240968Y-139879755D01*
X132435582Y-139942990D01*
X132637683Y-139975000D01*
X132842317Y-139975000D01*
X133044417Y-139942990D01*
X133239031Y-139879755D01*
X133421349Y-139786859D01*
X133465921Y-139754474D01*
X132869409Y-139157962D01*
X132932993Y-139140925D01*
X133047007Y-139075099D01*
X133140099Y-138982007D01*
X133205925Y-138867993D01*
X133222962Y-138804409D01*
X133819474Y-139400921D01*
X133851859Y-139356349D01*
X133944755Y-139174031D01*
X134007990Y-138979417D01*
X134040000Y-138777317D01*
X134040000Y-138572682D01*
X134007990Y-138370582D01*
X133944755Y-138175968D01*
X133851859Y-137993650D01*
X133819474Y-137949077D01*
X133819474Y-137949076D01*
X133222962Y-138545589D01*
X133205925Y-138482007D01*
X133140099Y-138367993D01*
X133047007Y-138274901D01*
X132932993Y-138209075D01*
X132869408Y-138192037D01*
X133465922Y-137595524D01*
X133465921Y-137595523D01*
X133421359Y-137563147D01*
X133421350Y-137563141D01*
X133328369Y-137515765D01*
X133277573Y-137467790D01*
X133260778Y-137399969D01*
X133283315Y-137333835D01*
X133328370Y-137294795D01*
X133328920Y-137294515D01*
X133421610Y-137247287D01*
X133471144Y-137211298D01*
X133587213Y-137126971D01*
X133587215Y-137126968D01*
X133587219Y-137126966D01*
X133731966Y-136982219D01*
X133731968Y-136982215D01*
X133731971Y-136982213D01*
X133784732Y-136909590D01*
X133852287Y-136816610D01*
X133945220Y-136634219D01*
X134008477Y-136439534D01*
X134040500Y-136237352D01*
X134040500Y-136032648D01*
X134008477Y-135830466D01*
X133945220Y-135635781D01*
X133945218Y-135635778D01*
X133945218Y-135635776D01*
X133911503Y-135569607D01*
X133852287Y-135453390D01*
X133844556Y-135442749D01*
X133731971Y-135287786D01*
X133587213Y-135143028D01*
X133421614Y-135022715D01*
X133415006Y-135019348D01*
X133328917Y-134975483D01*
X133278123Y-134927511D01*
X133261328Y-134859690D01*
X133283865Y-134793555D01*
X133328917Y-134754516D01*
X133421610Y-134707287D01*
X133442770Y-134691913D01*
X133587213Y-134586971D01*
X133587215Y-134586968D01*
X133587219Y-134586966D01*
X133731966Y-134442219D01*
X133731968Y-134442215D01*
X133731971Y-134442213D01*
X133784732Y-134369590D01*
X133852287Y-134276610D01*
X133945220Y-134094219D01*
X134008477Y-133899534D01*
X134040500Y-133697352D01*
X134040500Y-133492648D01*
X134008477Y-133290466D01*
X133945220Y-133095781D01*
X133945218Y-133095778D01*
X133945218Y-133095776D01*
X133911503Y-133029607D01*
X133852287Y-132913390D01*
X133844556Y-132902749D01*
X133731971Y-132747786D01*
X133587213Y-132603028D01*
X133421614Y-132482715D01*
X133415006Y-132479348D01*
X133328917Y-132435483D01*
X133278123Y-132387511D01*
X133261328Y-132319690D01*
X133283865Y-132253555D01*
X133328917Y-132214516D01*
X133421610Y-132167287D01*
X133442770Y-132151913D01*
X133587213Y-132046971D01*
X133587215Y-132046968D01*
X133587219Y-132046966D01*
X133731966Y-131902219D01*
X133731968Y-131902215D01*
X133731971Y-131902213D01*
X133784732Y-131829590D01*
X133852287Y-131736610D01*
X133945220Y-131554219D01*
X134008477Y-131359534D01*
X134040500Y-131157352D01*
X134040500Y-130952648D01*
X134008477Y-130750466D01*
X133945220Y-130555781D01*
X133945218Y-130555778D01*
X133945218Y-130555776D01*
X133911503Y-130489607D01*
X133852287Y-130373390D01*
X133844556Y-130362749D01*
X133731971Y-130207786D01*
X133587213Y-130063028D01*
X133421614Y-129942715D01*
X133415006Y-129939348D01*
X133328917Y-129895483D01*
X133278123Y-129847511D01*
X133261328Y-129779690D01*
X133283865Y-129713555D01*
X133328917Y-129674516D01*
X133421610Y-129627287D01*
X133442770Y-129611913D01*
X133587213Y-129506971D01*
X133587215Y-129506968D01*
X133587219Y-129506966D01*
X133731966Y-129362219D01*
X133731968Y-129362215D01*
X133731971Y-129362213D01*
X133784732Y-129289590D01*
X133852287Y-129196610D01*
X133945220Y-129014219D01*
X134008477Y-128819534D01*
X134040500Y-128617352D01*
X134040500Y-128412648D01*
X134008477Y-128210466D01*
X133945220Y-128015781D01*
X133945218Y-128015778D01*
X133945218Y-128015776D01*
X133911503Y-127949607D01*
X133852287Y-127833390D01*
X133844556Y-127822749D01*
X133731971Y-127667786D01*
X133587213Y-127523028D01*
X133421613Y-127402715D01*
X133421612Y-127402714D01*
X133421610Y-127402713D01*
X133364653Y-127373691D01*
X133239223Y-127309781D01*
X133044534Y-127246522D01*
X132869995Y-127218878D01*
X132842352Y-127214500D01*
X132637648Y-127214500D01*
X132613329Y-127218351D01*
X132435465Y-127246522D01*
X132240776Y-127309781D01*
X132058386Y-127402715D01*
X131892786Y-127523028D01*
X131748028Y-127667786D01*
X131627715Y-127833386D01*
X131534781Y-128015776D01*
X131471522Y-128210465D01*
X131439500Y-128412648D01*
X131439500Y-128617351D01*
X131471522Y-128819534D01*
X131534781Y-129014223D01*
X131627715Y-129196613D01*
X131748028Y-129362213D01*
X131892786Y-129506971D01*
X132047749Y-129619556D01*
X132058390Y-129627287D01*
X132149840Y-129673883D01*
X132151080Y-129674515D01*
X132201876Y-129722490D01*
X132218671Y-129790311D01*
X132196134Y-129856446D01*
X132151080Y-129895485D01*
X132058386Y-129942715D01*
X131892786Y-130063028D01*
X131748028Y-130207786D01*
X131627715Y-130373386D01*
X131534781Y-130555776D01*
X131471522Y-130750465D01*
X131439500Y-130952648D01*
X131439500Y-131157351D01*
X131471522Y-131359534D01*
X131534781Y-131554223D01*
X131627715Y-131736613D01*
X131748028Y-131902213D01*
X131892786Y-132046971D01*
X132047749Y-132159556D01*
X132058390Y-132167287D01*
X132149840Y-132213883D01*
X132151080Y-132214515D01*
X132201876Y-132262490D01*
X132218671Y-132330311D01*
X132196134Y-132396446D01*
X132151080Y-132435485D01*
X132058386Y-132482715D01*
X131892786Y-132603028D01*
X131748028Y-132747786D01*
X131627715Y-132913386D01*
X131534781Y-133095776D01*
X131471522Y-133290465D01*
X131439500Y-133492648D01*
X131439500Y-133697351D01*
X131471522Y-133899534D01*
X131534781Y-134094223D01*
X131627715Y-134276613D01*
X131748028Y-134442213D01*
X131892786Y-134586971D01*
X132047749Y-134699556D01*
X132058390Y-134707287D01*
X132149840Y-134753883D01*
X132151080Y-134754515D01*
X132201876Y-134802490D01*
X132218671Y-134870311D01*
X132196134Y-134936446D01*
X132151080Y-134975485D01*
X132058386Y-135022715D01*
X131892786Y-135143028D01*
X131748028Y-135287786D01*
X131627713Y-135453388D01*
X131571630Y-135563456D01*
X131523656Y-135614251D01*
X131455834Y-135631046D01*
X131389700Y-135608508D01*
X131358044Y-135576051D01*
X131349628Y-135563456D01*
X131328751Y-135532212D01*
X131274464Y-135450964D01*
X131149038Y-135325538D01*
X131149034Y-135325535D01*
X131001553Y-135226990D01*
X131001540Y-135226983D01*
X130837667Y-135159106D01*
X130837658Y-135159103D01*
X130663694Y-135124500D01*
X130663691Y-135124500D01*
X130486309Y-135124500D01*
X130486306Y-135124500D01*
X130312341Y-135159103D01*
X130312332Y-135159106D01*
X130148459Y-135226983D01*
X130148446Y-135226990D01*
X130000965Y-135325535D01*
X130000961Y-135325538D01*
X129875538Y-135450961D01*
X129875535Y-135450965D01*
X129776990Y-135598446D01*
X129776983Y-135598459D01*
X129709106Y-135762332D01*
X129709103Y-135762341D01*
X129674500Y-135936304D01*
X106845240Y-135936304D01*
X106828477Y-135830466D01*
X106765220Y-135635781D01*
X106765218Y-135635778D01*
X106765218Y-135635776D01*
X106731503Y-135569607D01*
X106672287Y-135453390D01*
X106664556Y-135442749D01*
X106551971Y-135287786D01*
X106407213Y-135143028D01*
X106241614Y-135022715D01*
X106235006Y-135019348D01*
X106148917Y-134975483D01*
X106098123Y-134927511D01*
X106081328Y-134859690D01*
X106103865Y-134793555D01*
X106148917Y-134754516D01*
X106241610Y-134707287D01*
X106262770Y-134691913D01*
X106407213Y-134586971D01*
X106407215Y-134586968D01*
X106407219Y-134586966D01*
X106551966Y-134442219D01*
X106551968Y-134442215D01*
X106551971Y-134442213D01*
X106604732Y-134369590D01*
X106672287Y-134276610D01*
X106765220Y-134094219D01*
X106828477Y-133899534D01*
X106860500Y-133697352D01*
X106860500Y-133492648D01*
X106828477Y-133290466D01*
X106765220Y-133095781D01*
X106765218Y-133095778D01*
X106765218Y-133095776D01*
X106731503Y-133029607D01*
X106672287Y-132913390D01*
X106664556Y-132902749D01*
X106551971Y-132747786D01*
X106407213Y-132603028D01*
X106241614Y-132482715D01*
X106235006Y-132479348D01*
X106148917Y-132435483D01*
X106098123Y-132387511D01*
X106081328Y-132319690D01*
X106103865Y-132253555D01*
X106148917Y-132214516D01*
X106241610Y-132167287D01*
X106262770Y-132151913D01*
X106407213Y-132046971D01*
X106407215Y-132046968D01*
X106407219Y-132046966D01*
X106551966Y-131902219D01*
X106551968Y-131902215D01*
X106551971Y-131902213D01*
X106604732Y-131829590D01*
X106672287Y-131736610D01*
X106765220Y-131554219D01*
X106828477Y-131359534D01*
X106860500Y-131157352D01*
X106860500Y-130952648D01*
X106828477Y-130750466D01*
X106765220Y-130555781D01*
X106765218Y-130555778D01*
X106765218Y-130555776D01*
X106731503Y-130489607D01*
X106672287Y-130373390D01*
X106664556Y-130362749D01*
X106551971Y-130207786D01*
X106407213Y-130063028D01*
X106241614Y-129942715D01*
X106235006Y-129939348D01*
X106148917Y-129895483D01*
X106098123Y-129847511D01*
X106081328Y-129779690D01*
X106103865Y-129713555D01*
X106148917Y-129674516D01*
X106241610Y-129627287D01*
X106262770Y-129611913D01*
X106407213Y-129506971D01*
X106407215Y-129506968D01*
X106407219Y-129506966D01*
X106551966Y-129362219D01*
X106551968Y-129362215D01*
X106551971Y-129362213D01*
X106604732Y-129289590D01*
X106672287Y-129196610D01*
X106765220Y-129014219D01*
X106828477Y-128819534D01*
X106860500Y-128617352D01*
X106860500Y-128412648D01*
X106828477Y-128210466D01*
X106765220Y-128015781D01*
X106765218Y-128015778D01*
X106765218Y-128015776D01*
X106731503Y-127949607D01*
X106672287Y-127833390D01*
X106664556Y-127822749D01*
X106551971Y-127667786D01*
X106407213Y-127523028D01*
X106241614Y-127402715D01*
X106235006Y-127399348D01*
X106148917Y-127355483D01*
X106098123Y-127307511D01*
X106081328Y-127239690D01*
X106103865Y-127173555D01*
X106148917Y-127134516D01*
X106241610Y-127087287D01*
X106262770Y-127071913D01*
X106407213Y-126966971D01*
X106407215Y-126966968D01*
X106407219Y-126966966D01*
X106551966Y-126822219D01*
X106551968Y-126822215D01*
X106551971Y-126822213D01*
X106604732Y-126749590D01*
X106672287Y-126656610D01*
X106765220Y-126474219D01*
X106828477Y-126279534D01*
X106860500Y-126077352D01*
X106860500Y-125872648D01*
X106828477Y-125670466D01*
X106765220Y-125475781D01*
X106765218Y-125475778D01*
X106765218Y-125475776D01*
X106731503Y-125409607D01*
X106672287Y-125293390D01*
X106664556Y-125282749D01*
X106551971Y-125127786D01*
X106407213Y-124983028D01*
X106241613Y-124862715D01*
X106241612Y-124862714D01*
X106241610Y-124862713D01*
X106180192Y-124831419D01*
X106059223Y-124769781D01*
X105864534Y-124706522D01*
X105689995Y-124678878D01*
X105662352Y-124674500D01*
X105457648Y-124674500D01*
X105433329Y-124678351D01*
X105255465Y-124706522D01*
X105060776Y-124769781D01*
X104878386Y-124862715D01*
X104712786Y-124983028D01*
X104568028Y-125127786D01*
X104447715Y-125293386D01*
X104354781Y-125475776D01*
X104291522Y-125670465D01*
X104259500Y-125872648D01*
X96561557Y-125872648D01*
X95176896Y-110966841D01*
X95176461Y-110950520D01*
X95182643Y-110793206D01*
X95974500Y-110793206D01*
X95974500Y-111156794D01*
X95985337Y-111266829D01*
X96010137Y-111518630D01*
X96081064Y-111875212D01*
X96081067Y-111875223D01*
X96186614Y-112223165D01*
X96325754Y-112559078D01*
X96325756Y-112559083D01*
X96497140Y-112879720D01*
X96497151Y-112879738D01*
X96699140Y-113182035D01*
X96699150Y-113182049D01*
X96929807Y-113463106D01*
X97186893Y-113720192D01*
X97186898Y-113720196D01*
X97186899Y-113720197D01*
X97467956Y-113950854D01*
X97770268Y-114152853D01*
X97770277Y-114152858D01*
X97770279Y-114152859D01*
X98090916Y-114324243D01*
X98090918Y-114324243D01*
X98090924Y-114324247D01*
X98426836Y-114463386D01*
X98774767Y-114568930D01*
X98774773Y-114568931D01*
X98774776Y-114568932D01*
X98774787Y-114568935D01*
X99131369Y-114639862D01*
X99493206Y-114675500D01*
X99493209Y-114675500D01*
X99856791Y-114675500D01*
X99856794Y-114675500D01*
X100218631Y-114639862D01*
X100288045Y-114626054D01*
X100575212Y-114568935D01*
X100575223Y-114568932D01*
X100575223Y-114568931D01*
X100575233Y-114568930D01*
X100923164Y-114463386D01*
X101259076Y-114324247D01*
X101579732Y-114152853D01*
X101882044Y-113950854D01*
X102163101Y-113720197D01*
X102420197Y-113463101D01*
X102650854Y-113182044D01*
X102852853Y-112879732D01*
X102996331Y-112611304D01*
X108399500Y-112611304D01*
X108399500Y-112788695D01*
X108434103Y-112962658D01*
X108434106Y-112962667D01*
X108501983Y-113126540D01*
X108501990Y-113126553D01*
X108600535Y-113274034D01*
X108600538Y-113274038D01*
X108725961Y-113399461D01*
X108725965Y-113399464D01*
X108873446Y-113498009D01*
X108873459Y-113498016D01*
X108996363Y-113548923D01*
X109037334Y-113565894D01*
X109037336Y-113565894D01*
X109037341Y-113565896D01*
X109211304Y-113600499D01*
X109211307Y-113600500D01*
X109211309Y-113600500D01*
X109388693Y-113600500D01*
X109388694Y-113600499D01*
X109446682Y-113588964D01*
X109562658Y-113565896D01*
X109562661Y-113565894D01*
X109562666Y-113565894D01*
X109726547Y-113498013D01*
X109874035Y-113399464D01*
X109999464Y-113274035D01*
X110098013Y-113126547D01*
X110165894Y-112962666D01*
X110200500Y-112788691D01*
X110200500Y-112611309D01*
X110200500Y-112611306D01*
X110200499Y-112611304D01*
X110165896Y-112437341D01*
X110165893Y-112437332D01*
X110098016Y-112273459D01*
X110098009Y-112273446D01*
X109999464Y-112125965D01*
X109999461Y-112125961D01*
X109874038Y-112000538D01*
X109874034Y-112000535D01*
X109726553Y-111901990D01*
X109726540Y-111901983D01*
X109562667Y-111834106D01*
X109562658Y-111834103D01*
X109388694Y-111799500D01*
X109388691Y-111799500D01*
X109211309Y-111799500D01*
X109211306Y-111799500D01*
X109037341Y-111834103D01*
X109037332Y-111834106D01*
X108873459Y-111901983D01*
X108873446Y-111901990D01*
X108725965Y-112000535D01*
X108725961Y-112000538D01*
X108600538Y-112125961D01*
X108600535Y-112125965D01*
X108501990Y-112273446D01*
X108501983Y-112273459D01*
X108434106Y-112437332D01*
X108434103Y-112437341D01*
X108399500Y-112611304D01*
X102996331Y-112611304D01*
X103024247Y-112559076D01*
X103163386Y-112223164D01*
X103268930Y-111875233D01*
X103268932Y-111875223D01*
X103268935Y-111875212D01*
X103339862Y-111518630D01*
X103345056Y-111465893D01*
X103375500Y-111156794D01*
X103375500Y-110793206D01*
X103339862Y-110431369D01*
X103321159Y-110337341D01*
X103268935Y-110074787D01*
X103268932Y-110074776D01*
X103268931Y-110074773D01*
X103268930Y-110074767D01*
X103163386Y-109726836D01*
X103024247Y-109390924D01*
X103009678Y-109363668D01*
X103009678Y-109363666D01*
X102981690Y-109311304D01*
X109349500Y-109311304D01*
X109349500Y-109488695D01*
X109384103Y-109662658D01*
X109384106Y-109662667D01*
X109451983Y-109826540D01*
X109451990Y-109826553D01*
X109550535Y-109974034D01*
X109550538Y-109974038D01*
X109675961Y-110099461D01*
X109675965Y-110099464D01*
X109823446Y-110198009D01*
X109823459Y-110198016D01*
X109946363Y-110248923D01*
X109987334Y-110265894D01*
X109987336Y-110265894D01*
X109987341Y-110265896D01*
X110161304Y-110300499D01*
X110161307Y-110300500D01*
X110161309Y-110300500D01*
X110338692Y-110300500D01*
X110359544Y-110296351D01*
X110445861Y-110279182D01*
X110515451Y-110285409D01*
X110570629Y-110328271D01*
X110593874Y-110394161D01*
X110591669Y-110424990D01*
X110574500Y-110511304D01*
X110574500Y-110688695D01*
X110609103Y-110862658D01*
X110609106Y-110862667D01*
X110676983Y-111026540D01*
X110676990Y-111026553D01*
X110775535Y-111174034D01*
X110775538Y-111174038D01*
X110900961Y-111299461D01*
X110900965Y-111299464D01*
X111048446Y-111398009D01*
X111048459Y-111398016D01*
X111171363Y-111448923D01*
X111212334Y-111465894D01*
X111212336Y-111465894D01*
X111212341Y-111465896D01*
X111386304Y-111500499D01*
X111386307Y-111500500D01*
X111386309Y-111500500D01*
X111563693Y-111500500D01*
X111563694Y-111500499D01*
X111621682Y-111488964D01*
X111737658Y-111465896D01*
X111737661Y-111465894D01*
X111737666Y-111465894D01*
X111901547Y-111398013D01*
X112049035Y-111299464D01*
X112174464Y-111174035D01*
X112273013Y-111026547D01*
X112340894Y-110862666D01*
X112375500Y-110688691D01*
X112375500Y-110511309D01*
X112375500Y-110511306D01*
X112375499Y-110511304D01*
X112340896Y-110337341D01*
X112340893Y-110337332D01*
X112337895Y-110330095D01*
X112311303Y-110265894D01*
X112273016Y-110173459D01*
X112273009Y-110173446D01*
X112174464Y-110025965D01*
X112174461Y-110025961D01*
X112049038Y-109900538D01*
X112049034Y-109900535D01*
X111901553Y-109801990D01*
X111901540Y-109801983D01*
X111737667Y-109734106D01*
X111737658Y-109734103D01*
X111563694Y-109699500D01*
X111563691Y-109699500D01*
X111386309Y-109699500D01*
X111386306Y-109699500D01*
X111279138Y-109720817D01*
X111209547Y-109714590D01*
X111154369Y-109671727D01*
X111131125Y-109605837D01*
X111133330Y-109575008D01*
X111150500Y-109488693D01*
X111150500Y-109311306D01*
X111150499Y-109311304D01*
X111115896Y-109137341D01*
X111115893Y-109137332D01*
X111048016Y-108973459D01*
X111048009Y-108973446D01*
X110949464Y-108825965D01*
X110949461Y-108825961D01*
X110824038Y-108700538D01*
X110824034Y-108700535D01*
X110676553Y-108601990D01*
X110676540Y-108601983D01*
X110512667Y-108534106D01*
X110512658Y-108534103D01*
X110338694Y-108499500D01*
X110338691Y-108499500D01*
X110161309Y-108499500D01*
X110161306Y-108499500D01*
X109987341Y-108534103D01*
X109987332Y-108534106D01*
X109823459Y-108601983D01*
X109823446Y-108601990D01*
X109675965Y-108700535D01*
X109675961Y-108700538D01*
X109550538Y-108825961D01*
X109550535Y-108825965D01*
X109451990Y-108973446D01*
X109451983Y-108973459D01*
X109384106Y-109137332D01*
X109384103Y-109137341D01*
X109349500Y-109311304D01*
X102981690Y-109311304D01*
X102852859Y-109070279D01*
X102852858Y-109070277D01*
X102852853Y-109070268D01*
X102650854Y-108767956D01*
X102420197Y-108486899D01*
X102420196Y-108486898D01*
X102420192Y-108486893D01*
X102244603Y-108311304D01*
X112774500Y-108311304D01*
X112774500Y-108488695D01*
X112809103Y-108662658D01*
X112809106Y-108662667D01*
X112876983Y-108826540D01*
X112876990Y-108826553D01*
X112975535Y-108974034D01*
X112975538Y-108974038D01*
X113100961Y-109099461D01*
X113100965Y-109099464D01*
X113248446Y-109198009D01*
X113248459Y-109198016D01*
X113370288Y-109248478D01*
X113412334Y-109265894D01*
X113412336Y-109265894D01*
X113412341Y-109265896D01*
X113586304Y-109300499D01*
X113586307Y-109300500D01*
X113586309Y-109300500D01*
X113763693Y-109300500D01*
X113763694Y-109300499D01*
X113821682Y-109288964D01*
X113937658Y-109265896D01*
X113937661Y-109265894D01*
X113937666Y-109265894D01*
X114101547Y-109198013D01*
X114249035Y-109099464D01*
X114374464Y-108974035D01*
X114473013Y-108826547D01*
X114540894Y-108662666D01*
X114547208Y-108630927D01*
X114575499Y-108488695D01*
X114575500Y-108488693D01*
X114575500Y-108311306D01*
X114575499Y-108311304D01*
X114540896Y-108137341D01*
X114540893Y-108137332D01*
X114473016Y-107973459D01*
X114473009Y-107973446D01*
X114374464Y-107825965D01*
X114374461Y-107825961D01*
X114249038Y-107700538D01*
X114249034Y-107700535D01*
X114101553Y-107601990D01*
X114101540Y-107601983D01*
X113937667Y-107534106D01*
X113937658Y-107534103D01*
X113763694Y-107499500D01*
X113763691Y-107499500D01*
X113586309Y-107499500D01*
X113586306Y-107499500D01*
X113412341Y-107534103D01*
X113412332Y-107534106D01*
X113248459Y-107601983D01*
X113248446Y-107601990D01*
X113100965Y-107700535D01*
X113100961Y-107700538D01*
X112975538Y-107825961D01*
X112975535Y-107825965D01*
X112876990Y-107973446D01*
X112876983Y-107973459D01*
X112809106Y-108137332D01*
X112809103Y-108137341D01*
X112774500Y-108311304D01*
X102244603Y-108311304D01*
X102163106Y-108229807D01*
X101882049Y-107999150D01*
X101882048Y-107999149D01*
X101882044Y-107999146D01*
X101579732Y-107797147D01*
X101579727Y-107797144D01*
X101579720Y-107797140D01*
X101259083Y-107625756D01*
X101259078Y-107625754D01*
X100923165Y-107486614D01*
X100575223Y-107381067D01*
X100575212Y-107381064D01*
X100218630Y-107310137D01*
X99946111Y-107283296D01*
X99856794Y-107274500D01*
X99493206Y-107274500D01*
X99410679Y-107282628D01*
X99131369Y-107310137D01*
X98774787Y-107381064D01*
X98774776Y-107381067D01*
X98426834Y-107486614D01*
X98090921Y-107625754D01*
X98090916Y-107625756D01*
X97770279Y-107797140D01*
X97770261Y-107797151D01*
X97467964Y-107999140D01*
X97467950Y-107999150D01*
X97186893Y-108229807D01*
X96929807Y-108486893D01*
X96699150Y-108767950D01*
X96699140Y-108767964D01*
X96497151Y-109070261D01*
X96497140Y-109070279D01*
X96325756Y-109390916D01*
X96325754Y-109390921D01*
X96186614Y-109726834D01*
X96081067Y-110074776D01*
X96081064Y-110074787D01*
X96010137Y-110431369D01*
X95984794Y-110688691D01*
X95974500Y-110793206D01*
X95182643Y-110793206D01*
X95189183Y-110626782D01*
X95189944Y-110617107D01*
X95230339Y-110275858D01*
X95231857Y-110266277D01*
X95298905Y-109929246D01*
X95301178Y-109919784D01*
X95394458Y-109589082D01*
X95397456Y-109579854D01*
X95516407Y-109257470D01*
X95520133Y-109248478D01*
X95571375Y-109137341D01*
X95664008Y-108936432D01*
X95668409Y-108927796D01*
X95836350Y-108627963D01*
X95841408Y-108619712D01*
X96011034Y-108365889D01*
X96026286Y-108347271D01*
X98054742Y-106311304D01*
X111274500Y-106311304D01*
X111274500Y-106488695D01*
X111309103Y-106662658D01*
X111309106Y-106662667D01*
X111376983Y-106826540D01*
X111376990Y-106826553D01*
X111475535Y-106974034D01*
X111475538Y-106974038D01*
X111600961Y-107099461D01*
X111600965Y-107099464D01*
X111748446Y-107198009D01*
X111748459Y-107198016D01*
X111871363Y-107248923D01*
X111912334Y-107265894D01*
X111912336Y-107265894D01*
X111912341Y-107265896D01*
X112086304Y-107300499D01*
X112086307Y-107300500D01*
X112086309Y-107300500D01*
X112263693Y-107300500D01*
X112263694Y-107300499D01*
X112321682Y-107288964D01*
X112437658Y-107265896D01*
X112437661Y-107265894D01*
X112437666Y-107265894D01*
X112601547Y-107198013D01*
X112749035Y-107099464D01*
X112874464Y-106974035D01*
X112973013Y-106826547D01*
X113040894Y-106662666D01*
X113075500Y-106488691D01*
X113075500Y-106311309D01*
X113075500Y-106311306D01*
X113075499Y-106311304D01*
X113040896Y-106137341D01*
X113040893Y-106137332D01*
X112973016Y-105973459D01*
X112973009Y-105973446D01*
X112874464Y-105825965D01*
X112874461Y-105825961D01*
X112749038Y-105700538D01*
X112749034Y-105700535D01*
X112601553Y-105601990D01*
X112601540Y-105601983D01*
X112437667Y-105534106D01*
X112437658Y-105534103D01*
X112263694Y-105499500D01*
X112263691Y-105499500D01*
X112086309Y-105499500D01*
X112086306Y-105499500D01*
X111912341Y-105534103D01*
X111912332Y-105534106D01*
X111748459Y-105601983D01*
X111748446Y-105601990D01*
X111600965Y-105700535D01*
X111600961Y-105700538D01*
X111475538Y-105825961D01*
X111475535Y-105825965D01*
X111376990Y-105973446D01*
X111376983Y-105973459D01*
X111309106Y-106137332D01*
X111309103Y-106137341D01*
X111274500Y-106311304D01*
X98054742Y-106311304D01*
X105994331Y-98342315D01*
X106534659Y-97799986D01*
X117515001Y-97799986D01*
X117525494Y-97902697D01*
X117580641Y-98069119D01*
X117580643Y-98069124D01*
X117672684Y-98218345D01*
X117796654Y-98342315D01*
X117945875Y-98434356D01*
X117945880Y-98434358D01*
X118112302Y-98489505D01*
X118112309Y-98489506D01*
X118215019Y-98499999D01*
X118539999Y-98499999D01*
X119040000Y-98499999D01*
X119364972Y-98499999D01*
X119364986Y-98499998D01*
X119467697Y-98489505D01*
X119634119Y-98434358D01*
X119634124Y-98434356D01*
X119783345Y-98342315D01*
X119907315Y-98218345D01*
X119999356Y-98069124D01*
X119999358Y-98069119D01*
X120054505Y-97902697D01*
X120054506Y-97902690D01*
X120064999Y-97799986D01*
X125475001Y-97799986D01*
X125485494Y-97902697D01*
X125540641Y-98069119D01*
X125540643Y-98069124D01*
X125632684Y-98218345D01*
X125756654Y-98342315D01*
X125905875Y-98434356D01*
X125905880Y-98434358D01*
X126072302Y-98489505D01*
X126072309Y-98489506D01*
X126175019Y-98499999D01*
X126499999Y-98499999D01*
X127000000Y-98499999D01*
X127324972Y-98499999D01*
X127324986Y-98499998D01*
X127427697Y-98489505D01*
X127594119Y-98434358D01*
X127594124Y-98434356D01*
X127743345Y-98342315D01*
X127867315Y-98218345D01*
X127959356Y-98069124D01*
X127959358Y-98069119D01*
X128014505Y-97902697D01*
X128014506Y-97902690D01*
X128024999Y-97799986D01*
X128025000Y-97799973D01*
X128025000Y-97600000D01*
X127000000Y-97600000D01*
X127000000Y-98499999D01*
X126499999Y-98499999D01*
X126500000Y-98499998D01*
X126500000Y-97600000D01*
X125475001Y-97600000D01*
X125475001Y-97799986D01*
X120064999Y-97799986D01*
X120065000Y-97799973D01*
X120065000Y-97600000D01*
X119040000Y-97600000D01*
X119040000Y-98499999D01*
X118539999Y-98499999D01*
X118540000Y-98499998D01*
X118540000Y-97600000D01*
X117515001Y-97600000D01*
X117515001Y-97799986D01*
X106534659Y-97799986D01*
X106872276Y-97461119D01*
X107431312Y-96900013D01*
X117515000Y-96900013D01*
X117515000Y-97100000D01*
X118540000Y-97100000D01*
X119040000Y-97100000D01*
X120064999Y-97100000D01*
X120064999Y-96900029D01*
X120064998Y-96900013D01*
X125475000Y-96900013D01*
X125475000Y-97100000D01*
X126500000Y-97100000D01*
X127000000Y-97100000D01*
X128024999Y-97100000D01*
X128024999Y-96900028D01*
X128024998Y-96900013D01*
X128014505Y-96797302D01*
X127959358Y-96630880D01*
X127959356Y-96630875D01*
X127867315Y-96481654D01*
X127743345Y-96357684D01*
X127594124Y-96265643D01*
X127594119Y-96265641D01*
X127427697Y-96210494D01*
X127427690Y-96210493D01*
X127324986Y-96200000D01*
X127000000Y-96200000D01*
X127000000Y-97100000D01*
X126500000Y-97100000D01*
X126500000Y-96200000D01*
X126175028Y-96200000D01*
X126175012Y-96200001D01*
X126072302Y-96210494D01*
X125905880Y-96265641D01*
X125905875Y-96265643D01*
X125756654Y-96357684D01*
X125632684Y-96481654D01*
X125540643Y-96630875D01*
X125540641Y-96630880D01*
X125485494Y-96797302D01*
X125485493Y-96797309D01*
X125475000Y-96900013D01*
X120064998Y-96900013D01*
X120064998Y-96900012D01*
X120054505Y-96797302D01*
X119999358Y-96630880D01*
X119999356Y-96630875D01*
X119907315Y-96481654D01*
X119783345Y-96357684D01*
X119634124Y-96265643D01*
X119634119Y-96265641D01*
X119467697Y-96210494D01*
X119467690Y-96210493D01*
X119364986Y-96200000D01*
X119040000Y-96200000D01*
X119040000Y-97100000D01*
X118540000Y-97100000D01*
X118540000Y-96200000D01*
X118215028Y-96200000D01*
X118215012Y-96200001D01*
X118112302Y-96210494D01*
X117945880Y-96265641D01*
X117945875Y-96265643D01*
X117796654Y-96357684D01*
X117672684Y-96481654D01*
X117580643Y-96630875D01*
X117580641Y-96630880D01*
X117525494Y-96797302D01*
X117525493Y-96797309D01*
X117515000Y-96900013D01*
X107431312Y-96900013D01*
X107521645Y-96809345D01*
X108939436Y-95386304D01*
X123724500Y-95386304D01*
X123724500Y-95563695D01*
X123759103Y-95737658D01*
X123759106Y-95737667D01*
X123826983Y-95901540D01*
X123826990Y-95901553D01*
X123925535Y-96049034D01*
X123925538Y-96049038D01*
X124050961Y-96174461D01*
X124050965Y-96174464D01*
X124198446Y-96273009D01*
X124198459Y-96273016D01*
X124321363Y-96323923D01*
X124362334Y-96340894D01*
X124362336Y-96340894D01*
X124362341Y-96340896D01*
X124536304Y-96375499D01*
X124536307Y-96375500D01*
X124536309Y-96375500D01*
X124713693Y-96375500D01*
X124713694Y-96375499D01*
X124803258Y-96357684D01*
X124887658Y-96340896D01*
X124887661Y-96340894D01*
X124887666Y-96340894D01*
X125051547Y-96273013D01*
X125199035Y-96174464D01*
X125324464Y-96049035D01*
X125423013Y-95901547D01*
X125490894Y-95737666D01*
X125525500Y-95563691D01*
X125525500Y-95386309D01*
X125525500Y-95386306D01*
X125525499Y-95386304D01*
X125490896Y-95212341D01*
X125490893Y-95212332D01*
X125423016Y-95048459D01*
X125423009Y-95048446D01*
X125324464Y-94900965D01*
X125324461Y-94900961D01*
X125199038Y-94775538D01*
X125199034Y-94775535D01*
X125051553Y-94676990D01*
X125051540Y-94676983D01*
X124887667Y-94609106D01*
X124887658Y-94609103D01*
X124713694Y-94574500D01*
X124713691Y-94574500D01*
X124536309Y-94574500D01*
X124536306Y-94574500D01*
X124362341Y-94609103D01*
X124362332Y-94609106D01*
X124198459Y-94676983D01*
X124198446Y-94676990D01*
X124050965Y-94775535D01*
X124050961Y-94775538D01*
X123925538Y-94900961D01*
X123925535Y-94900965D01*
X123826990Y-95048446D01*
X123826983Y-95048459D01*
X123759106Y-95212332D01*
X123759103Y-95212341D01*
X123724500Y-95386304D01*
X108939436Y-95386304D01*
X109032697Y-95292698D01*
X111914740Y-92399983D01*
X117514500Y-92399983D01*
X117514500Y-93300001D01*
X117514501Y-93300019D01*
X117525000Y-93402796D01*
X117525001Y-93402799D01*
X117580185Y-93569331D01*
X117580186Y-93569334D01*
X117672288Y-93718656D01*
X117796344Y-93842712D01*
X117945666Y-93934814D01*
X118112203Y-93989999D01*
X118214991Y-94000500D01*
X119365008Y-94000499D01*
X119467797Y-93989999D01*
X119634334Y-93934814D01*
X119783656Y-93842712D01*
X119907712Y-93718656D01*
X119959680Y-93634402D01*
X120011627Y-93587679D01*
X120065218Y-93575500D01*
X123743417Y-93575500D01*
X123810456Y-93595185D01*
X123846519Y-93630609D01*
X123875535Y-93674034D01*
X123875538Y-93674038D01*
X124000961Y-93799461D01*
X124000965Y-93799464D01*
X124148446Y-93898009D01*
X124148459Y-93898016D01*
X124237299Y-93934814D01*
X124312334Y-93965894D01*
X124312336Y-93965894D01*
X124312341Y-93965896D01*
X124486304Y-94000499D01*
X124486307Y-94000500D01*
X124486309Y-94000500D01*
X124663693Y-94000500D01*
X124663694Y-94000499D01*
X124721682Y-93988964D01*
X124837658Y-93965896D01*
X124837661Y-93965894D01*
X124837666Y-93965894D01*
X125001547Y-93898013D01*
X125149035Y-93799464D01*
X125274464Y-93674035D01*
X125288989Y-93652295D01*
X125303481Y-93630609D01*
X125309571Y-93625518D01*
X125312870Y-93618297D01*
X125336000Y-93603431D01*
X125357094Y-93585804D01*
X125366467Y-93583852D01*
X125371648Y-93580523D01*
X125406583Y-93575500D01*
X125474782Y-93575500D01*
X125541821Y-93595185D01*
X125580319Y-93634401D01*
X125632288Y-93718656D01*
X125756344Y-93842712D01*
X125905666Y-93934814D01*
X126072203Y-93989999D01*
X126174991Y-94000500D01*
X126823125Y-94000499D01*
X126890164Y-94020183D01*
X126910806Y-94036818D01*
X136288181Y-103414193D01*
X136321666Y-103475516D01*
X136324500Y-103501874D01*
X136324500Y-124831419D01*
X136304815Y-124898458D01*
X136273387Y-124931735D01*
X136220963Y-124969823D01*
X136202778Y-124983036D01*
X136058028Y-125127786D01*
X135937715Y-125293386D01*
X135844781Y-125475776D01*
X135781522Y-125670465D01*
X135749500Y-125872648D01*
X135749500Y-126077351D01*
X135781522Y-126279534D01*
X135844781Y-126474223D01*
X135937715Y-126656613D01*
X136058028Y-126822213D01*
X136202786Y-126966971D01*
X136357749Y-127079556D01*
X136368390Y-127087287D01*
X136459840Y-127133883D01*
X136461080Y-127134515D01*
X136511876Y-127182490D01*
X136528671Y-127250311D01*
X136506134Y-127316446D01*
X136461080Y-127355485D01*
X136368386Y-127402715D01*
X136202786Y-127523028D01*
X136058028Y-127667786D01*
X135937715Y-127833386D01*
X135844781Y-128015776D01*
X135781522Y-128210465D01*
X135749500Y-128412648D01*
X135749500Y-128617351D01*
X135781522Y-128819534D01*
X135844781Y-129014223D01*
X135937715Y-129196613D01*
X136058028Y-129362213D01*
X136202786Y-129506971D01*
X136357749Y-129619556D01*
X136368390Y-129627287D01*
X136459840Y-129673883D01*
X136461080Y-129674515D01*
X136511876Y-129722490D01*
X136528671Y-129790311D01*
X136506134Y-129856446D01*
X136461080Y-129895485D01*
X136368386Y-129942715D01*
X136202786Y-130063028D01*
X136058028Y-130207786D01*
X135937715Y-130373386D01*
X135844781Y-130555776D01*
X135781522Y-130750465D01*
X135749500Y-130952648D01*
X135749500Y-131157351D01*
X135781522Y-131359534D01*
X135844781Y-131554223D01*
X135937715Y-131736613D01*
X136058028Y-131902213D01*
X136202786Y-132046971D01*
X136357749Y-132159556D01*
X136368390Y-132167287D01*
X136459840Y-132213883D01*
X136461080Y-132214515D01*
X136511876Y-132262490D01*
X136528671Y-132330311D01*
X136506134Y-132396446D01*
X136461080Y-132435485D01*
X136368386Y-132482715D01*
X136202786Y-132603028D01*
X136058028Y-132747786D01*
X135937715Y-132913386D01*
X135844781Y-133095776D01*
X135781522Y-133290465D01*
X135749500Y-133492648D01*
X135749500Y-133697351D01*
X135781522Y-133899534D01*
X135844781Y-134094223D01*
X135937715Y-134276613D01*
X136058028Y-134442213D01*
X136202786Y-134586971D01*
X136357749Y-134699556D01*
X136368390Y-134707287D01*
X136459840Y-134753883D01*
X136461080Y-134754515D01*
X136511876Y-134802490D01*
X136528671Y-134870311D01*
X136506134Y-134936446D01*
X136461080Y-134975485D01*
X136368386Y-135022715D01*
X136202786Y-135143028D01*
X136058028Y-135287786D01*
X135937715Y-135453386D01*
X135844781Y-135635776D01*
X135781522Y-135830465D01*
X135749500Y-136032648D01*
X135749500Y-136237351D01*
X135781522Y-136439534D01*
X135844781Y-136634223D01*
X135890762Y-136724464D01*
X135935010Y-136811306D01*
X135937715Y-136816613D01*
X136058028Y-136982213D01*
X136202786Y-137126971D01*
X136355137Y-137237658D01*
X136368390Y-137247287D01*
X136459840Y-137293883D01*
X136461080Y-137294515D01*
X136511876Y-137342490D01*
X136528671Y-137410311D01*
X136506134Y-137476446D01*
X136461080Y-137515485D01*
X136368386Y-137562715D01*
X136202786Y-137683028D01*
X136058028Y-137827786D01*
X135937715Y-137993386D01*
X135844781Y-138175776D01*
X135781522Y-138370465D01*
X135749500Y-138572648D01*
X135749500Y-138777351D01*
X135781522Y-138979534D01*
X135844781Y-139174223D01*
X135884382Y-139251943D01*
X135937585Y-139356359D01*
X135937715Y-139356613D01*
X136058028Y-139522213D01*
X136202786Y-139666971D01*
X136323226Y-139754474D01*
X136368390Y-139787287D01*
X136459840Y-139833883D01*
X136461080Y-139834515D01*
X136511876Y-139882490D01*
X136528671Y-139950311D01*
X136506134Y-140016446D01*
X136461080Y-140055485D01*
X136368386Y-140102715D01*
X136202786Y-140223028D01*
X136058028Y-140367786D01*
X135937715Y-140533386D01*
X135844781Y-140715776D01*
X135781522Y-140910465D01*
X135749500Y-141112648D01*
X135749500Y-141317351D01*
X135781522Y-141519534D01*
X135844781Y-141714223D01*
X135937715Y-141896613D01*
X136058028Y-142062213D01*
X136202786Y-142206971D01*
X136368385Y-142327284D01*
X136368387Y-142327285D01*
X136368390Y-142327287D01*
X136461080Y-142374515D01*
X136461630Y-142374795D01*
X136512426Y-142422770D01*
X136529221Y-142490591D01*
X136506684Y-142556725D01*
X136461630Y-142595765D01*
X136368644Y-142643143D01*
X136324077Y-142675523D01*
X136324077Y-142675524D01*
X136920591Y-143272037D01*
X136857007Y-143289075D01*
X136742993Y-143354901D01*
X136649901Y-143447993D01*
X136584075Y-143562007D01*
X136567037Y-143625590D01*
X135970524Y-143029077D01*
X135970523Y-143029077D01*
X135938143Y-143073644D01*
X135845244Y-143255968D01*
X135782009Y-143450582D01*
X135750000Y-143652682D01*
X135750000Y-143857317D01*
X135782009Y-144059417D01*
X135845244Y-144254031D01*
X135938141Y-144436350D01*
X135938147Y-144436359D01*
X135970523Y-144480921D01*
X135970524Y-144480922D01*
X136567037Y-143884409D01*
X136584075Y-143947993D01*
X136649901Y-144062007D01*
X136742993Y-144155099D01*
X136857007Y-144220925D01*
X136920590Y-144237962D01*
X136324076Y-144834474D01*
X136368650Y-144866859D01*
X136550968Y-144959755D01*
X136745582Y-145022990D01*
X136947683Y-145055000D01*
X137152317Y-145055000D01*
X137354417Y-145022990D01*
X137549031Y-144959755D01*
X137731349Y-144866859D01*
X137775921Y-144834474D01*
X137179409Y-144237962D01*
X137242993Y-144220925D01*
X137357007Y-144155099D01*
X137450099Y-144062007D01*
X137515925Y-143947993D01*
X137532962Y-143884409D01*
X138129474Y-144480921D01*
X138161859Y-144436349D01*
X138254755Y-144254031D01*
X138317990Y-144059417D01*
X138350000Y-143857317D01*
X138350000Y-143652682D01*
X138317990Y-143450582D01*
X138254755Y-143255968D01*
X138161859Y-143073650D01*
X138129474Y-143029077D01*
X138129474Y-143029076D01*
X137532962Y-143625589D01*
X137515925Y-143562007D01*
X137450099Y-143447993D01*
X137357007Y-143354901D01*
X137242993Y-143289075D01*
X137179408Y-143272037D01*
X137775922Y-142675524D01*
X137775921Y-142675523D01*
X137731359Y-142643147D01*
X137731350Y-142643141D01*
X137638369Y-142595765D01*
X137587573Y-142547790D01*
X137570778Y-142479969D01*
X137593315Y-142413835D01*
X137638370Y-142374795D01*
X137638920Y-142374515D01*
X137731610Y-142327287D01*
X137781144Y-142291298D01*
X137897213Y-142206971D01*
X137897215Y-142206968D01*
X137897219Y-142206966D01*
X138041966Y-142062219D01*
X138041968Y-142062215D01*
X138041971Y-142062213D01*
X138094732Y-141989590D01*
X138162287Y-141896610D01*
X138255220Y-141714219D01*
X138318477Y-141519534D01*
X138350500Y-141317352D01*
X138350500Y-141112648D01*
X138318477Y-140910466D01*
X138298196Y-140848049D01*
X138255218Y-140715776D01*
X138211509Y-140629993D01*
X138162287Y-140533390D01*
X138154556Y-140522749D01*
X138041971Y-140367786D01*
X137897213Y-140223028D01*
X137731614Y-140102715D01*
X137725006Y-140099348D01*
X137638917Y-140055483D01*
X137588123Y-140007511D01*
X137571328Y-139939690D01*
X137593865Y-139873555D01*
X137638917Y-139834516D01*
X137731610Y-139787287D01*
X137776774Y-139754474D01*
X137897213Y-139666971D01*
X137897215Y-139666968D01*
X137897219Y-139666966D01*
X138041966Y-139522219D01*
X138041968Y-139522215D01*
X138041971Y-139522213D01*
X138094732Y-139449590D01*
X138162287Y-139356610D01*
X138255220Y-139174219D01*
X138318477Y-138979534D01*
X138350500Y-138777352D01*
X138350500Y-138572648D01*
X138324309Y-138407288D01*
X138318477Y-138370465D01*
X138266038Y-138209075D01*
X138255220Y-138175781D01*
X138255218Y-138175778D01*
X138255218Y-138175776D01*
X138162419Y-137993650D01*
X138162287Y-137993390D01*
X138130092Y-137949077D01*
X138041971Y-137827786D01*
X137897213Y-137683028D01*
X137731614Y-137562715D01*
X137704763Y-137549034D01*
X137638917Y-137515483D01*
X137588123Y-137467511D01*
X137571328Y-137399690D01*
X137593865Y-137333555D01*
X137638917Y-137294516D01*
X137731610Y-137247287D01*
X137752770Y-137231913D01*
X137897213Y-137126971D01*
X137897215Y-137126968D01*
X137897219Y-137126966D01*
X138041966Y-136982219D01*
X138041968Y-136982215D01*
X138041971Y-136982213D01*
X138094732Y-136909590D01*
X138162287Y-136816610D01*
X138255220Y-136634219D01*
X138318477Y-136439534D01*
X138350500Y-136237352D01*
X138350500Y-136032648D01*
X138318477Y-135830466D01*
X138255220Y-135635781D01*
X138255218Y-135635778D01*
X138255218Y-135635776D01*
X138221503Y-135569607D01*
X138162287Y-135453390D01*
X138154556Y-135442749D01*
X138041971Y-135287786D01*
X137897213Y-135143028D01*
X137731614Y-135022715D01*
X137725006Y-135019348D01*
X137638917Y-134975483D01*
X137588123Y-134927511D01*
X137571328Y-134859690D01*
X137593865Y-134793555D01*
X137638917Y-134754516D01*
X137731610Y-134707287D01*
X137752770Y-134691913D01*
X137897213Y-134586971D01*
X137897215Y-134586968D01*
X137897219Y-134586966D01*
X138041966Y-134442219D01*
X138041968Y-134442215D01*
X138041971Y-134442213D01*
X138094732Y-134369590D01*
X138162287Y-134276610D01*
X138255220Y-134094219D01*
X138318477Y-133899534D01*
X138350500Y-133697352D01*
X138350500Y-133492648D01*
X138318477Y-133290466D01*
X138255220Y-133095781D01*
X138255218Y-133095778D01*
X138255218Y-133095776D01*
X138221503Y-133029607D01*
X138162287Y-132913390D01*
X138154556Y-132902749D01*
X138041971Y-132747786D01*
X137897213Y-132603028D01*
X137731614Y-132482715D01*
X137725006Y-132479348D01*
X137638917Y-132435483D01*
X137588123Y-132387511D01*
X137571328Y-132319690D01*
X137593865Y-132253555D01*
X137638917Y-132214516D01*
X137731610Y-132167287D01*
X137752770Y-132151913D01*
X137897213Y-132046971D01*
X137897215Y-132046968D01*
X137897219Y-132046966D01*
X138041966Y-131902219D01*
X138041968Y-131902215D01*
X138041971Y-131902213D01*
X138094732Y-131829590D01*
X138162287Y-131736610D01*
X138255220Y-131554219D01*
X138318477Y-131359534D01*
X138350500Y-131157352D01*
X138350500Y-130952648D01*
X138318477Y-130750466D01*
X138255220Y-130555781D01*
X138255218Y-130555778D01*
X138255218Y-130555776D01*
X138221503Y-130489607D01*
X138162287Y-130373390D01*
X138154556Y-130362749D01*
X138041971Y-130207786D01*
X137897213Y-130063028D01*
X137731614Y-129942715D01*
X137725006Y-129939348D01*
X137638917Y-129895483D01*
X137588123Y-129847511D01*
X137571328Y-129779690D01*
X137593865Y-129713555D01*
X137638917Y-129674516D01*
X137731610Y-129627287D01*
X137752770Y-129611913D01*
X137897213Y-129506971D01*
X137897215Y-129506968D01*
X137897219Y-129506966D01*
X138041966Y-129362219D01*
X138041968Y-129362215D01*
X138041971Y-129362213D01*
X138094732Y-129289590D01*
X138162287Y-129196610D01*
X138255220Y-129014219D01*
X138318477Y-128819534D01*
X138350500Y-128617352D01*
X138350500Y-128412648D01*
X138318477Y-128210466D01*
X138255220Y-128015781D01*
X138255218Y-128015778D01*
X138255218Y-128015776D01*
X138221503Y-127949607D01*
X138162287Y-127833390D01*
X138154556Y-127822749D01*
X138041971Y-127667786D01*
X137897213Y-127523028D01*
X137731614Y-127402715D01*
X137725006Y-127399348D01*
X137638917Y-127355483D01*
X137588123Y-127307511D01*
X137571328Y-127239690D01*
X137593865Y-127173555D01*
X137638917Y-127134516D01*
X137731610Y-127087287D01*
X137752770Y-127071913D01*
X137897213Y-126966971D01*
X137897215Y-126966968D01*
X137897219Y-126966966D01*
X138041966Y-126822219D01*
X138041968Y-126822215D01*
X138041971Y-126822213D01*
X138094732Y-126749590D01*
X138162287Y-126656610D01*
X138255220Y-126474219D01*
X138318477Y-126279534D01*
X138350500Y-126077352D01*
X138350500Y-125872648D01*
X138318477Y-125670466D01*
X138255220Y-125475781D01*
X138255218Y-125475778D01*
X138255218Y-125475776D01*
X138221503Y-125409607D01*
X138162287Y-125293390D01*
X138154556Y-125282749D01*
X138041971Y-125127786D01*
X137897221Y-124983036D01*
X137897219Y-124983034D01*
X137826613Y-124931735D01*
X137783949Y-124876407D01*
X137775500Y-124831419D01*
X137775500Y-110793206D01*
X138974500Y-110793206D01*
X138974500Y-111156794D01*
X138985337Y-111266829D01*
X139010137Y-111518630D01*
X139081064Y-111875212D01*
X139081067Y-111875223D01*
X139186614Y-112223165D01*
X139325754Y-112559078D01*
X139325756Y-112559083D01*
X139497140Y-112879720D01*
X139497151Y-112879738D01*
X139699140Y-113182035D01*
X139699150Y-113182049D01*
X139929807Y-113463106D01*
X140186893Y-113720192D01*
X140186898Y-113720196D01*
X140186899Y-113720197D01*
X140467956Y-113950854D01*
X140770268Y-114152853D01*
X140770277Y-114152858D01*
X140770279Y-114152859D01*
X141090916Y-114324243D01*
X141090918Y-114324243D01*
X141090924Y-114324247D01*
X141426836Y-114463386D01*
X141774767Y-114568930D01*
X141774773Y-114568931D01*
X141774776Y-114568932D01*
X141774787Y-114568935D01*
X142131369Y-114639862D01*
X142493206Y-114675500D01*
X142493209Y-114675500D01*
X142856791Y-114675500D01*
X142856794Y-114675500D01*
X143218631Y-114639862D01*
X143288045Y-114626054D01*
X143575212Y-114568935D01*
X143575223Y-114568932D01*
X143575223Y-114568931D01*
X143575233Y-114568930D01*
X143923164Y-114463386D01*
X144259076Y-114324247D01*
X144579732Y-114152853D01*
X144882044Y-113950854D01*
X145163101Y-113720197D01*
X145420197Y-113463101D01*
X145650854Y-113182044D01*
X145852853Y-112879732D01*
X146024247Y-112559076D01*
X146163386Y-112223164D01*
X146268930Y-111875233D01*
X146268932Y-111875223D01*
X146268935Y-111875212D01*
X146339862Y-111518630D01*
X146345056Y-111465893D01*
X146375500Y-111156794D01*
X146375500Y-110793206D01*
X146339862Y-110431369D01*
X146321159Y-110337341D01*
X146268935Y-110074787D01*
X146268932Y-110074776D01*
X146268931Y-110074773D01*
X146268930Y-110074767D01*
X146163386Y-109726836D01*
X146024247Y-109390924D01*
X146009679Y-109363670D01*
X145852859Y-109070279D01*
X145852858Y-109070277D01*
X145852853Y-109070268D01*
X145650854Y-108767956D01*
X145420197Y-108486899D01*
X145420196Y-108486898D01*
X145420192Y-108486893D01*
X145163106Y-108229807D01*
X144882049Y-107999150D01*
X144882048Y-107999149D01*
X144882044Y-107999146D01*
X144579732Y-107797147D01*
X144579727Y-107797144D01*
X144579720Y-107797140D01*
X144259083Y-107625756D01*
X144259078Y-107625754D01*
X143923165Y-107486614D01*
X143575223Y-107381067D01*
X143575212Y-107381064D01*
X143218630Y-107310137D01*
X142946111Y-107283296D01*
X142856794Y-107274500D01*
X142493206Y-107274500D01*
X142410679Y-107282628D01*
X142131369Y-107310137D01*
X141774787Y-107381064D01*
X141774776Y-107381067D01*
X141426834Y-107486614D01*
X141090921Y-107625754D01*
X141090916Y-107625756D01*
X140770279Y-107797140D01*
X140770261Y-107797151D01*
X140467964Y-107999140D01*
X140467950Y-107999150D01*
X140186893Y-108229807D01*
X139929807Y-108486893D01*
X139699150Y-108767950D01*
X139699140Y-108767964D01*
X139497151Y-109070261D01*
X139497140Y-109070279D01*
X139325756Y-109390916D01*
X139325754Y-109390921D01*
X139186614Y-109726834D01*
X139081067Y-110074776D01*
X139081064Y-110074787D01*
X139010137Y-110431369D01*
X138984794Y-110688691D01*
X138974500Y-110793206D01*
X137775500Y-110793206D01*
X137775500Y-103078542D01*
X137747620Y-102938385D01*
X137747619Y-102938384D01*
X137747619Y-102938380D01*
X137692929Y-102806347D01*
X137692928Y-102806344D01*
X137613534Y-102687522D01*
X137613528Y-102687515D01*
X128061818Y-93135805D01*
X128028333Y-93074482D01*
X128025499Y-93048124D01*
X128025499Y-92399998D01*
X128025498Y-92399981D01*
X128014999Y-92297203D01*
X128014998Y-92297200D01*
X127972277Y-92168278D01*
X127959814Y-92130666D01*
X127867712Y-91981344D01*
X127743656Y-91857288D01*
X127594334Y-91765186D01*
X127427797Y-91710001D01*
X127427795Y-91710000D01*
X127325010Y-91699500D01*
X126174998Y-91699500D01*
X126174981Y-91699501D01*
X126072203Y-91710000D01*
X126072200Y-91710001D01*
X125905668Y-91765185D01*
X125905663Y-91765187D01*
X125756342Y-91857289D01*
X125632289Y-91981342D01*
X125580321Y-92065597D01*
X125528373Y-92112321D01*
X125474782Y-92124500D01*
X124753543Y-92124500D01*
X124613373Y-92152381D01*
X124610986Y-92153106D01*
X124609675Y-92153117D01*
X124607406Y-92153569D01*
X124607320Y-92153138D01*
X124541119Y-92153725D01*
X124539014Y-92153106D01*
X124536626Y-92152381D01*
X124396457Y-92124500D01*
X124396455Y-92124500D01*
X120065218Y-92124500D01*
X119998179Y-92104815D01*
X119959679Y-92065597D01*
X119907712Y-91981344D01*
X119783656Y-91857288D01*
X119634334Y-91765186D01*
X119467797Y-91710001D01*
X119467795Y-91710000D01*
X119365010Y-91699500D01*
X118214998Y-91699500D01*
X118214981Y-91699501D01*
X118112203Y-91710000D01*
X118112200Y-91710001D01*
X117945668Y-91765185D01*
X117945663Y-91765187D01*
X117796342Y-91857289D01*
X117672289Y-91981342D01*
X117580187Y-92130663D01*
X117580185Y-92130668D01*
X117552349Y-92214670D01*
X117525001Y-92297203D01*
X117525001Y-92297204D01*
X117525000Y-92297204D01*
X117514500Y-92399983D01*
X111914740Y-92399983D01*
X112005073Y-92309315D01*
X112455432Y-91857288D01*
X116504517Y-87793209D01*
X118974500Y-87793209D01*
X118974500Y-88156790D01*
X119010137Y-88518630D01*
X119081064Y-88875212D01*
X119081067Y-88875223D01*
X119186614Y-89223165D01*
X119325754Y-89559078D01*
X119325756Y-89559083D01*
X119497140Y-89879720D01*
X119497151Y-89879738D01*
X119699140Y-90182035D01*
X119699150Y-90182049D01*
X119929807Y-90463106D01*
X120186893Y-90720192D01*
X120186898Y-90720196D01*
X120186899Y-90720197D01*
X120467956Y-90950854D01*
X120770268Y-91152853D01*
X120770277Y-91152858D01*
X120770279Y-91152859D01*
X121090916Y-91324243D01*
X121090918Y-91324243D01*
X121090924Y-91324247D01*
X121426836Y-91463386D01*
X121774767Y-91568930D01*
X121774773Y-91568931D01*
X121774776Y-91568932D01*
X121774787Y-91568935D01*
X122131369Y-91639862D01*
X122493206Y-91675500D01*
X122493209Y-91675500D01*
X122856791Y-91675500D01*
X122856794Y-91675500D01*
X123218631Y-91639862D01*
X123288045Y-91626054D01*
X123575212Y-91568935D01*
X123575223Y-91568932D01*
X123575223Y-91568931D01*
X123575233Y-91568930D01*
X123923164Y-91463386D01*
X124259076Y-91324247D01*
X124579732Y-91152853D01*
X124882044Y-90950854D01*
X125163101Y-90720197D01*
X125420197Y-90463101D01*
X125650854Y-90182044D01*
X125852853Y-89879732D01*
X126024247Y-89559076D01*
X126163386Y-89223164D01*
X126268930Y-88875233D01*
X126268932Y-88875223D01*
X126268935Y-88875212D01*
X126339862Y-88518630D01*
X126375500Y-88156790D01*
X126375500Y-87793209D01*
X126339862Y-87431369D01*
X126268935Y-87074787D01*
X126268932Y-87074776D01*
X126268931Y-87074773D01*
X126268930Y-87074767D01*
X126163386Y-86726836D01*
X126024247Y-86390924D01*
X125852853Y-86070268D01*
X125650854Y-85767956D01*
X125420197Y-85486899D01*
X125420196Y-85486898D01*
X125420192Y-85486893D01*
X125163106Y-85229807D01*
X124882049Y-84999150D01*
X124882048Y-84999149D01*
X124882044Y-84999146D01*
X124579732Y-84797147D01*
X124579727Y-84797144D01*
X124579720Y-84797140D01*
X124259083Y-84625756D01*
X124259078Y-84625754D01*
X123923165Y-84486614D01*
X123575223Y-84381067D01*
X123575212Y-84381064D01*
X123218630Y-84310137D01*
X122946111Y-84283296D01*
X122856794Y-84274500D01*
X122493206Y-84274500D01*
X122410679Y-84282628D01*
X122131369Y-84310137D01*
X121774787Y-84381064D01*
X121774776Y-84381067D01*
X121426834Y-84486614D01*
X121090921Y-84625754D01*
X121090916Y-84625756D01*
X120770279Y-84797140D01*
X120770261Y-84797151D01*
X120467964Y-84999140D01*
X120467950Y-84999150D01*
X120186893Y-85229807D01*
X119929807Y-85486893D01*
X119699150Y-85767950D01*
X119699140Y-85767964D01*
X119497151Y-86070261D01*
X119497140Y-86070279D01*
X119325756Y-86390916D01*
X119325754Y-86390921D01*
X119186614Y-86726834D01*
X119081067Y-87074776D01*
X119081064Y-87074787D01*
X119010137Y-87431369D01*
X118974500Y-87793209D01*
X116504517Y-87793209D01*
X119491356Y-84795309D01*
X119495442Y-84791392D01*
X119780644Y-84530199D01*
X119788960Y-84523230D01*
X120093917Y-84289630D01*
X120102828Y-84283406D01*
X120297251Y-84159922D01*
X120427101Y-84077449D01*
X120436508Y-84072039D01*
X120777616Y-83895308D01*
X120787452Y-83890748D01*
X121142734Y-83744621D01*
X121152953Y-83740933D01*
X121519686Y-83626529D01*
X121530171Y-83623758D01*
X121905516Y-83541960D01*
X121916216Y-83540116D01*
X122297277Y-83491556D01*
X122308121Y-83490656D01*
X122692038Y-83475703D01*
X122702876Y-83475755D01*
G37*
%TD.AperFunction*%
%TD*%
M02*
