%TF.GenerationSoftware,KiCad,Pcbnew,9.0.3*%
%TF.CreationDate,2026-04-11T21:09:00-04:00*%
%TF.ProjectId,ComputerVisionModule_Rev1,436f6d70-7574-4657-9256-6973696f6e4d,rev?*%
%TF.SameCoordinates,Original*%
%TF.FileFunction,Copper,L4,Bot*%
%TF.FilePolarity,Positive*%
%FSLAX46Y46*%
G04 Gerber Fmt 4.6, Leading zero omitted, Abs format (unit mm)*
G04 Created by KiCad (PCBNEW 9.0.3) date 2026-04-11 21:09:00*
%MOMM*%
%LPD*%
G01*
G04 APERTURE LIST*
G04 Aperture macros list*
%AMRoundRect*
0 Rectangle with rounded corners*
0 $1 Rounding radius*
0 $2 $3 $4 $5 $6 $7 $8 $9 X,Y pos of 4 corners*
0 Add a 4 corners polygon primitive as box body*
4,1,4,$2,$3,$4,$5,$6,$7,$8,$9,$2,$3,0*
0 Add four circle primitives for the rounded corners*
1,1,$1+$1,$2,$3*
1,1,$1+$1,$4,$5*
1,1,$1+$1,$6,$7*
1,1,$1+$1,$8,$9*
0 Add four rect primitives between the rounded corners*
20,1,$1+$1,$2,$3,$4,$5,0*
20,1,$1+$1,$4,$5,$6,$7,0*
20,1,$1+$1,$6,$7,$8,$9,0*
20,1,$1+$1,$8,$9,$2,$3,0*%
%AMRotRect*
0 Rectangle, with rotation*
0 The origin of the aperture is its center*
0 $1 length*
0 $2 width*
0 $3 Rotation angle, in degrees counterclockwise*
0 Add horizontal line*
21,1,$1,$2,0,0,$3*%
G04 Aperture macros list end*
%TA.AperFunction,ComponentPad*%
%ADD10C,3.600000*%
%TD*%
%TA.AperFunction,ComponentPad*%
%ADD11C,1.600000*%
%TD*%
%TA.AperFunction,ComponentPad*%
%ADD12RoundRect,0.250000X1.050000X1.050000X-1.050000X1.050000X-1.050000X-1.050000X1.050000X-1.050000X0*%
%TD*%
%TA.AperFunction,ComponentPad*%
%ADD13C,2.600000*%
%TD*%
%TA.AperFunction,SMDPad,CuDef*%
%ADD14RotRect,0.205000X0.875000X315.000000*%
%TD*%
%TA.AperFunction,SMDPad,CuDef*%
%ADD15RotRect,0.200000X0.875000X315.000000*%
%TD*%
%TA.AperFunction,SMDPad,CuDef*%
%ADD16RotRect,0.195000X0.875000X315.000000*%
%TD*%
%TA.AperFunction,SMDPad,CuDef*%
%ADD17RotRect,0.190000X0.875000X315.000000*%
%TD*%
%TA.AperFunction,SMDPad,CuDef*%
%ADD18RotRect,0.195000X0.870000X315.000000*%
%TD*%
%TA.AperFunction,SMDPad,CuDef*%
%ADD19RotRect,0.195000X0.880000X315.000000*%
%TD*%
%TA.AperFunction,SMDPad,CuDef*%
%ADD20RotRect,0.350000X0.875000X315.000000*%
%TD*%
%TA.AperFunction,SMDPad,CuDef*%
%ADD21RotRect,0.340000X0.875000X315.000000*%
%TD*%
%TA.AperFunction,SMDPad,CuDef*%
%ADD22RotRect,0.320000X0.875000X315.000000*%
%TD*%
%TA.AperFunction,SMDPad,CuDef*%
%ADD23RoundRect,0.250000X-0.450000X0.350000X-0.450000X-0.350000X0.450000X-0.350000X0.450000X0.350000X0*%
%TD*%
%TA.AperFunction,SMDPad,CuDef*%
%ADD24RoundRect,0.250000X0.350000X0.450000X-0.350000X0.450000X-0.350000X-0.450000X0.350000X-0.450000X0*%
%TD*%
%TA.AperFunction,SMDPad,CuDef*%
%ADD25RoundRect,0.250000X0.450000X-0.350000X0.450000X0.350000X-0.450000X0.350000X-0.450000X-0.350000X0*%
%TD*%
%TA.AperFunction,SMDPad,CuDef*%
%ADD26R,0.609600X1.574800*%
%TD*%
%TA.AperFunction,ViaPad*%
%ADD27C,0.800000*%
%TD*%
%TA.AperFunction,Conductor*%
%ADD28C,0.750000*%
%TD*%
%TA.AperFunction,Conductor*%
%ADD29C,0.156000*%
%TD*%
%TA.AperFunction,Conductor*%
%ADD30C,0.450000*%
%TD*%
%TA.AperFunction,Conductor*%
%ADD31C,0.254000*%
%TD*%
G04 APERTURE END LIST*
D10*
%TO.P,H1,1*%
%TO.N,N/C*%
X99675000Y-110975000D03*
%TD*%
D11*
%TO.P,U1,1,3V3*%
%TO.N,+3V3*%
X105560000Y-143755000D03*
%TO.P,U1,2,TX*%
%TO.N,Net-(U1-TX)*%
X105560000Y-136135000D03*
%TO.P,U1,3,GND*%
%TO.N,GND*%
X137050000Y-143755000D03*
%TO.P,U1,4,RX*%
%TO.N,Net-(U1-RX)*%
X105560000Y-138675000D03*
%TO.P,U1,5,GND*%
%TO.N,GND*%
X132740000Y-138675000D03*
%TO.P,U1,6,RST*%
%TO.N,Net-(U1-RST)*%
X137050000Y-125975000D03*
%TO.P,U1,7,3V3*%
%TO.N,+3V3*%
X132740000Y-136135000D03*
%TO.P,U1,8,F1*%
%TO.N,unconnected-(U1-F1-Pad8)*%
X105560000Y-125975000D03*
%TO.P,U1,9,F2*%
%TO.N,unconnected-(U1-F2-Pad9)*%
X105560000Y-128515000D03*
%TO.P,U1,10,F3*%
%TO.N,unconnected-(U1-F3-Pad10)*%
X105560000Y-131055000D03*
%TO.P,U1,11,F4*%
%TO.N,unconnected-(U1-F4-Pad11)*%
X105560000Y-133595000D03*
%TO.P,U1,12,F5*%
%TO.N,unconnected-(U1-F5-Pad12)*%
X105560000Y-141215000D03*
%TO.P,U1,13,F6*%
%TO.N,unconnected-(U1-F6-Pad13)*%
X132740000Y-128515000D03*
%TO.P,U1,14,F7*%
%TO.N,unconnected-(U1-F7-Pad14)*%
X132740000Y-131055000D03*
%TO.P,U1,15,F8*%
%TO.N,unconnected-(U1-F8-Pad15)*%
X132740000Y-133595000D03*
%TO.P,U1,16,F9*%
%TO.N,unconnected-(U1-F9-Pad16)*%
X137050000Y-128515000D03*
%TO.P,U1,17,F10*%
%TO.N,unconnected-(U1-F10-Pad17)*%
X137050000Y-131055000D03*
%TO.P,U1,18,F11*%
%TO.N,unconnected-(U1-F11-Pad18)*%
X137050000Y-133595000D03*
%TO.P,U1,19,F12*%
%TO.N,unconnected-(U1-F12-Pad19)*%
X137050000Y-136135000D03*
%TO.P,U1,20,F13*%
%TO.N,unconnected-(U1-F13-Pad20)*%
X137050000Y-138675000D03*
%TO.P,U1,21,F14*%
%TO.N,unconnected-(U1-F14-Pad21)*%
X137050000Y-141215000D03*
%TD*%
D10*
%TO.P,H3,1*%
%TO.N,N/C*%
X142675000Y-110975000D03*
%TD*%
%TO.P,H2,1*%
%TO.N,N/C*%
X122675000Y-87975000D03*
%TD*%
D12*
%TO.P,J2,1,Pin_1*%
%TO.N,+3V3*%
X121100000Y-140050000D03*
D13*
%TO.P,J2,2,Pin_2*%
%TO.N,Net-(J2-Pin_2)*%
X116020001Y-140050000D03*
%TD*%
D14*
%TO.P,J1,1,1*%
%TO.N,GND*%
X109955027Y-106989628D03*
D15*
%TO.P,J1,2,2*%
%TO.N,unconnected-(J1-Pad2)*%
X107884972Y-109056148D03*
D16*
%TO.P,J1,3,3*%
%TO.N,unconnected-(J1-Pad3)*%
X110241405Y-107276007D03*
D17*
%TO.P,J1,4,4*%
%TO.N,unconnected-(J1-Pad4)*%
X108171350Y-109342526D03*
%TO.P,J1,5,5*%
%TO.N,unconnected-(J1-Pad5)*%
X110522480Y-107557082D03*
D16*
%TO.P,J1,6,6*%
%TO.N,GND*%
X108455960Y-109627137D03*
D18*
%TO.P,J1,7,7*%
%TO.N,Net-(U1-RX)*%
X110808858Y-107839924D03*
D16*
%TO.P,J1,8,8*%
%TO.N,unconnected-(J1-Pad8)*%
X108738803Y-109909979D03*
%TO.P,J1,9,9*%
%TO.N,Net-(U1-TX)*%
X111089933Y-108124535D03*
%TO.P,J1,10,10*%
%TO.N,unconnected-(J1-Pad10)*%
X109021646Y-110192822D03*
D17*
%TO.P,J1,11,11*%
%TO.N,GND*%
X111371008Y-108405610D03*
D16*
%TO.P,J1,12,12*%
%TO.N,Net-(J1-Pad12)*%
X109304488Y-110475665D03*
D17*
%TO.P,J1,13,13*%
%TO.N,unconnected-(J1-Pad13)*%
X111653851Y-108688452D03*
D16*
%TO.P,J1,14,14*%
%TO.N,unconnected-(J1-Pad14)*%
X109587331Y-110758508D03*
D17*
%TO.P,J1,15,15*%
%TO.N,unconnected-(J1-Pad15)*%
X111936693Y-108971295D03*
D16*
%TO.P,J1,16,16*%
%TO.N,GND*%
X109870174Y-111041350D03*
%TO.P,J1,17,17*%
%TO.N,unconnected-(J1-Pad17)*%
X112221304Y-109255906D03*
%TO.P,J1,18,18*%
%TO.N,unconnected-(J1-Pad18)*%
X110153017Y-111324193D03*
%TO.P,J1,19,19*%
%TO.N,+3V3*%
X112504147Y-109538748D03*
D17*
%TO.P,J1,20,20*%
X110434092Y-111605268D03*
D16*
%TO.P,J1,21,21*%
%TO.N,GND*%
X112786989Y-109821591D03*
D17*
%TO.P,J1,22,22*%
%TO.N,unconnected-(J1-Pad22)*%
X110716934Y-111888111D03*
D16*
%TO.P,J1,23,23*%
%TO.N,unconnected-(J1-Pad23)*%
X113069832Y-110104434D03*
%TO.P,J1,24,24*%
%TO.N,unconnected-(J1-Pad24)*%
X111001545Y-112172721D03*
%TO.P,J1,25,25*%
%TO.N,unconnected-(J1-Pad25)*%
X113352675Y-110387276D03*
%TO.P,J1,26,26*%
%TO.N,GND*%
X111284387Y-112455564D03*
%TO.P,J1,27,27*%
%TO.N,unconnected-(J1-Pad27)*%
X113635518Y-110670119D03*
%TO.P,J1,28,28*%
%TO.N,unconnected-(J1-Pad28)*%
X111567230Y-112738407D03*
D18*
%TO.P,J1,29,29*%
%TO.N,unconnected-(J1-Pad29)*%
X113920128Y-110951194D03*
D16*
%TO.P,J1,30,30*%
%TO.N,unconnected-(J1-Pad30)*%
X111850073Y-113021249D03*
%TO.P,J1,31,31*%
%TO.N,GND*%
X114201203Y-111235805D03*
%TO.P,J1,32,32*%
%TO.N,unconnected-(J1-Pad32)*%
X112132916Y-113304092D03*
%TO.P,J1,33,33*%
%TO.N,unconnected-(J1-Pad33)*%
X114484046Y-111518647D03*
%TO.P,J1,34,34*%
%TO.N,unconnected-(J1-Pad34)*%
X112415758Y-113586935D03*
%TO.P,J1,35,35*%
%TO.N,unconnected-(J1-Pad35)*%
X114766888Y-111801490D03*
%TO.P,J1,36,36*%
%TO.N,GND*%
X112698601Y-113869777D03*
%TO.P,J1,37,37*%
%TO.N,unconnected-(J1-Pad37)*%
X115049731Y-112084333D03*
%TO.P,J1,38,38*%
%TO.N,unconnected-(J1-Pad38)*%
X112981444Y-114152620D03*
D19*
%TO.P,J1,39,39*%
%TO.N,unconnected-(J1-Pad39)*%
X115330806Y-112368943D03*
D17*
%TO.P,J1,40,40*%
%TO.N,unconnected-(J1-Pad40)*%
X113262519Y-114433695D03*
D20*
%TO.P,J1,S1,SHIELD*%
%TO.N,GND*%
X109610312Y-106644914D03*
%TO.P,J1,S2,SHIELD__1*%
X107542025Y-108713201D03*
D21*
%TO.P,J1,S3,SHIELD__2*%
X115666682Y-112701283D03*
D22*
%TO.P,J1,S4,SHIELD__3*%
X113591323Y-114762500D03*
%TD*%
D23*
%TO.P,R2,1*%
%TO.N,Net-(J1-Pad12)*%
X117575000Y-122825000D03*
%TO.P,R2,2*%
%TO.N,Net-(U2-G)*%
X117575000Y-124825000D03*
%TD*%
D24*
%TO.P,R3,1*%
%TO.N,Net-(U2-G)*%
X115975000Y-127475000D03*
%TO.P,R3,2*%
%TO.N,GND*%
X113975000Y-127475000D03*
%TD*%
D25*
%TO.P,R1,1*%
%TO.N,+3V3*%
X122770000Y-95200000D03*
%TO.P,R1,2*%
%TO.N,Net-(U1-RST)*%
X122770000Y-93200000D03*
%TD*%
D26*
%TO.P,U2,1,G*%
%TO.N,Net-(U2-G)*%
X118122500Y-130240600D03*
%TO.P,U2,2,S*%
%TO.N,GND*%
X120027500Y-130240600D03*
%TO.P,U2,3,D*%
%TO.N,Net-(J2-Pin_2)*%
X119075000Y-132425000D03*
%TD*%
D27*
%TO.N,GND*%
X108645200Y-105679800D03*
X107300000Y-110750000D03*
X114550000Y-115700000D03*
X114500000Y-129275000D03*
X121600000Y-97550000D03*
X113750000Y-106700000D03*
X115375000Y-110150000D03*
X128875000Y-97600000D03*
X114575000Y-109200000D03*
X111625000Y-114975000D03*
X108592891Y-111992891D03*
X110200000Y-113550000D03*
X106325000Y-109750000D03*
X121925000Y-128150000D03*
X116700000Y-113700000D03*
%TO.N,+3V3*%
X120750000Y-136975000D03*
X111475000Y-110600000D03*
X121400000Y-136900000D03*
X124625000Y-95475000D03*
X130575000Y-136025000D03*
X109300000Y-112700000D03*
X113675000Y-108400000D03*
X107675000Y-143350000D03*
%TO.N,Net-(U1-TX)*%
X110250000Y-109400000D03*
%TO.N,Net-(U1-RX)*%
X112175000Y-106400000D03*
%TO.N,Net-(U1-RST)*%
X124575000Y-93100000D03*
%TD*%
D28*
%TO.N,GND*%
X113975000Y-127475000D02*
X113975000Y-128750000D01*
D29*
X107361799Y-108713201D02*
X106325000Y-109750000D01*
D28*
X120027500Y-130047500D02*
X121925000Y-128150000D01*
D29*
X115666682Y-112701283D02*
X115701283Y-112701283D01*
X111284387Y-112465613D02*
X110200000Y-113550000D01*
X112786989Y-109821591D02*
X113408580Y-109200000D01*
D28*
X113975000Y-128750000D02*
X114500000Y-129275000D01*
D29*
X112501618Y-107275000D02*
X111371008Y-108405610D01*
X113612500Y-114762500D02*
X114550000Y-115700000D01*
X108422863Y-109627137D02*
X107300000Y-110750000D01*
X111284387Y-112455564D02*
X111284387Y-112465613D01*
X115701283Y-112701283D02*
X116700000Y-113700000D01*
X108455960Y-109627137D02*
X108422863Y-109627137D01*
X107542025Y-108713201D02*
X107361799Y-108713201D01*
X112698601Y-113901399D02*
X111625000Y-114975000D01*
D28*
X120027500Y-130240600D02*
X120027500Y-130047500D01*
D29*
X108540400Y-105575000D02*
X108645200Y-105679800D01*
X113175000Y-107275000D02*
X112501618Y-107275000D01*
X113591323Y-114762500D02*
X113612500Y-114762500D01*
X108500000Y-105575000D02*
X108540400Y-105575000D01*
X108918633Y-111992891D02*
X108592891Y-111992891D01*
X114201203Y-111235805D02*
X115287008Y-110150000D01*
X113408580Y-109200000D02*
X114575000Y-109200000D01*
X115287008Y-110150000D02*
X115375000Y-110150000D01*
X112698601Y-113869777D02*
X112698601Y-113901399D01*
X109955027Y-106989628D02*
X108645200Y-105679800D01*
X109870174Y-111041350D02*
X108918633Y-111992891D01*
X113750000Y-106700000D02*
X113175000Y-107275000D01*
%TO.N,+3V3*%
X112504147Y-109538748D02*
X112536252Y-109538748D01*
X110434092Y-111605268D02*
X109339360Y-112700000D01*
X110434092Y-111605268D02*
X110469732Y-111605268D01*
X112536252Y-109538748D02*
X113675000Y-108400000D01*
D30*
X122770000Y-95200000D02*
X124350000Y-95200000D01*
X124350000Y-95200000D02*
X124625000Y-95475000D01*
D29*
X112504147Y-109570853D02*
X111475000Y-110600000D01*
X112504147Y-109538748D02*
X112504147Y-109570853D01*
X109339360Y-112700000D02*
X109300000Y-112700000D01*
X110469732Y-111605268D02*
X111475000Y-110600000D01*
%TO.N,Net-(U1-TX)*%
X110250000Y-108964468D02*
X110250000Y-109400000D01*
X111089933Y-108124535D02*
X110250000Y-108964468D01*
%TO.N,Net-(U1-RX)*%
X111575000Y-107073782D02*
X111575000Y-106575000D01*
X111750000Y-106400000D02*
X112175000Y-106400000D01*
X110808858Y-107839924D02*
X111575000Y-107073782D01*
X111575000Y-106575000D02*
X111750000Y-106400000D01*
D30*
%TO.N,Net-(U1-RST)*%
X122870000Y-93100000D02*
X122770000Y-93200000D01*
X124575000Y-93100000D02*
X122870000Y-93100000D01*
D31*
%TO.N,Net-(J1-Pad12)*%
X106925000Y-114750000D02*
X106925000Y-113100000D01*
D29*
X108742172Y-110883358D02*
X108896795Y-110883358D01*
X106925000Y-112700530D02*
X108742172Y-110883358D01*
D30*
X115000000Y-122825000D02*
X107100000Y-114925000D01*
D31*
X107100000Y-114925000D02*
X106925000Y-114750000D01*
D29*
X106925000Y-113100000D02*
X106925000Y-112700530D01*
D30*
X117575000Y-122825000D02*
X115000000Y-122825000D01*
D29*
X108896795Y-110883358D02*
X109304488Y-110475665D01*
D28*
%TO.N,Net-(J2-Pin_2)*%
X119075000Y-132425000D02*
X119075000Y-136995001D01*
X119075000Y-136995001D02*
X116020001Y-140050000D01*
%TO.N,Net-(U2-G)*%
X115975000Y-126425000D02*
X117575000Y-124825000D01*
X118122500Y-129622500D02*
X115975000Y-127475000D01*
X118122500Y-130240600D02*
X118122500Y-129622500D01*
X115975000Y-127475000D02*
X115975000Y-126425000D01*
%TD*%
%TA.AperFunction,Conductor*%
%TO.N,GND*%
G36*
X122702876Y-83475755D02*
G01*
X123085179Y-83494407D01*
X123095953Y-83495406D01*
X123475136Y-83547389D01*
X123485782Y-83549326D01*
X123858949Y-83634238D01*
X123869400Y-83637101D01*
X124233730Y-83754299D01*
X124243895Y-83758068D01*
X124596577Y-83906647D01*
X124606369Y-83911286D01*
X124644968Y-83931687D01*
X124944720Y-84090117D01*
X124954078Y-84095599D01*
X125275509Y-84303311D01*
X125284352Y-84309590D01*
X125586400Y-84544592D01*
X125594660Y-84551620D01*
X125867326Y-84804969D01*
X125876518Y-84814472D01*
X135892841Y-96340894D01*
X146323983Y-108344674D01*
X146333620Y-108357317D01*
X146512988Y-108626883D01*
X146518044Y-108635167D01*
X146684867Y-108934223D01*
X146689259Y-108942877D01*
X146832178Y-109254049D01*
X146835880Y-109263019D01*
X146954028Y-109584416D01*
X146957018Y-109593649D01*
X147049672Y-109923315D01*
X147051930Y-109932753D01*
X147118520Y-110268648D01*
X147120033Y-110278234D01*
X147160149Y-110618303D01*
X147160908Y-110627978D01*
X147173515Y-110949898D01*
X147173054Y-110966480D01*
X143951638Y-144867284D01*
X143909480Y-145310938D01*
X143903272Y-145334108D01*
X143903272Y-145376268D01*
X143902716Y-145382120D01*
X143902716Y-145382122D01*
X143899283Y-145418246D01*
X143899283Y-145418249D01*
X143899640Y-145420367D01*
X143901246Y-145446383D01*
X143885230Y-145813227D01*
X143884287Y-145824003D01*
X143831007Y-146228704D01*
X143829129Y-146239358D01*
X143740774Y-146637897D01*
X143737974Y-146648345D01*
X143615227Y-147037651D01*
X143611527Y-147047817D01*
X143455313Y-147424951D01*
X143450741Y-147434755D01*
X143262258Y-147796828D01*
X143256850Y-147806196D01*
X143037516Y-148150481D01*
X143031311Y-148159342D01*
X142782813Y-148483191D01*
X142775859Y-148491478D01*
X142500083Y-148792434D01*
X142492434Y-148800083D01*
X142191478Y-149075859D01*
X142183191Y-149082813D01*
X141859342Y-149331311D01*
X141850481Y-149337516D01*
X141506196Y-149556850D01*
X141496828Y-149562258D01*
X141134755Y-149750741D01*
X141124951Y-149755313D01*
X140747817Y-149911527D01*
X140737651Y-149915227D01*
X140348345Y-150037974D01*
X140337897Y-150040774D01*
X139939358Y-150129129D01*
X139928704Y-150131007D01*
X139524003Y-150184287D01*
X139513227Y-150185230D01*
X139102708Y-150203153D01*
X139097286Y-150203271D01*
X103398257Y-150199507D01*
X103398256Y-150199507D01*
X103383717Y-150199505D01*
X103376699Y-150197836D01*
X103317956Y-150199498D01*
X103316182Y-150199498D01*
X103316181Y-150199497D01*
X103297009Y-150199496D01*
X103295313Y-150199484D01*
X102912102Y-150194201D01*
X102901684Y-150193619D01*
X102509997Y-150155129D01*
X102499667Y-150153672D01*
X102112636Y-150082399D01*
X102102464Y-150080080D01*
X101722782Y-149976521D01*
X101712840Y-149973354D01*
X101343192Y-149838237D01*
X101333553Y-149834247D01*
X100976588Y-149668543D01*
X100967318Y-149663756D01*
X100625537Y-149468627D01*
X100616702Y-149463077D01*
X100292546Y-149239914D01*
X100284209Y-149233642D01*
X99979949Y-148984010D01*
X99972169Y-148977059D01*
X99689970Y-148702734D01*
X99682817Y-148695170D01*
X99424662Y-148398075D01*
X99418169Y-148389934D01*
X99185918Y-148072210D01*
X99180121Y-148063536D01*
X98975406Y-147727421D01*
X98970358Y-147718290D01*
X98794617Y-147366146D01*
X98790355Y-147356623D01*
X98644835Y-146990942D01*
X98641398Y-146981122D01*
X98527131Y-146604495D01*
X98524527Y-146594398D01*
X98442333Y-146209530D01*
X98440585Y-146199245D01*
X98392278Y-145818633D01*
X98391031Y-145808811D01*
X98390155Y-145798423D01*
X98383151Y-145632094D01*
X98375364Y-145447148D01*
X98375298Y-145445241D01*
X98374975Y-145433077D01*
X98377327Y-145419315D01*
X98373529Y-145378432D01*
X98373421Y-145374343D01*
X98373513Y-145373992D01*
X98373378Y-145371061D01*
X98373378Y-145334111D01*
X98373378Y-145334108D01*
X98370026Y-145321600D01*
X98366334Y-145300979D01*
X98366299Y-145300603D01*
X96561557Y-125872648D01*
X104259500Y-125872648D01*
X104259500Y-126077351D01*
X104291522Y-126279534D01*
X104354781Y-126474223D01*
X104447715Y-126656613D01*
X104568028Y-126822213D01*
X104712786Y-126966971D01*
X104867749Y-127079556D01*
X104878390Y-127087287D01*
X104969840Y-127133883D01*
X104971080Y-127134515D01*
X105021876Y-127182490D01*
X105038671Y-127250311D01*
X105016134Y-127316446D01*
X104971080Y-127355485D01*
X104878386Y-127402715D01*
X104712786Y-127523028D01*
X104568028Y-127667786D01*
X104447715Y-127833386D01*
X104354781Y-128015776D01*
X104291522Y-128210465D01*
X104259500Y-128412648D01*
X104259500Y-128617351D01*
X104291522Y-128819534D01*
X104354781Y-129014223D01*
X104447715Y-129196613D01*
X104568028Y-129362213D01*
X104712786Y-129506971D01*
X104867749Y-129619556D01*
X104878390Y-129627287D01*
X104969840Y-129673883D01*
X104971080Y-129674515D01*
X105021876Y-129722490D01*
X105038671Y-129790311D01*
X105016134Y-129856446D01*
X104971080Y-129895485D01*
X104878386Y-129942715D01*
X104712786Y-130063028D01*
X104568028Y-130207786D01*
X104447715Y-130373386D01*
X104354781Y-130555776D01*
X104291522Y-130750465D01*
X104259500Y-130952648D01*
X104259500Y-131157351D01*
X104291522Y-131359534D01*
X104354781Y-131554223D01*
X104447715Y-131736613D01*
X104568028Y-131902213D01*
X104712786Y-132046971D01*
X104867749Y-132159556D01*
X104878390Y-132167287D01*
X104969840Y-132213883D01*
X104971080Y-132214515D01*
X105021876Y-132262490D01*
X105038671Y-132330311D01*
X105016134Y-132396446D01*
X104971080Y-132435485D01*
X104878386Y-132482715D01*
X104712786Y-132603028D01*
X104568028Y-132747786D01*
X104447715Y-132913386D01*
X104354781Y-133095776D01*
X104291522Y-133290465D01*
X104259500Y-133492648D01*
X104259500Y-133697351D01*
X104291522Y-133899534D01*
X104354781Y-134094223D01*
X104447715Y-134276613D01*
X104568028Y-134442213D01*
X104712786Y-134586971D01*
X104867749Y-134699556D01*
X104878390Y-134707287D01*
X104969840Y-134753883D01*
X104971080Y-134754515D01*
X105021876Y-134802490D01*
X105038671Y-134870311D01*
X105016134Y-134936446D01*
X104971080Y-134975485D01*
X104878386Y-135022715D01*
X104712786Y-135143028D01*
X104568028Y-135287786D01*
X104447715Y-135453386D01*
X104354781Y-135635776D01*
X104291522Y-135830465D01*
X104259500Y-136032648D01*
X104259500Y-136237351D01*
X104291522Y-136439534D01*
X104354781Y-136634223D01*
X104400762Y-136724464D01*
X104445010Y-136811306D01*
X104447715Y-136816613D01*
X104568028Y-136982213D01*
X104712786Y-137126971D01*
X104867749Y-137239556D01*
X104878390Y-137247287D01*
X104949564Y-137283552D01*
X104971080Y-137294515D01*
X105021876Y-137342490D01*
X105038671Y-137410311D01*
X105016134Y-137476446D01*
X104971080Y-137515485D01*
X104878386Y-137562715D01*
X104712786Y-137683028D01*
X104568028Y-137827786D01*
X104447715Y-137993386D01*
X104354781Y-138175776D01*
X104291522Y-138370465D01*
X104259500Y-138572648D01*
X104259500Y-138777351D01*
X104291522Y-138979534D01*
X104354781Y-139174223D01*
X104394382Y-139251943D01*
X104447585Y-139356359D01*
X104447715Y-139356613D01*
X104568028Y-139522213D01*
X104712786Y-139666971D01*
X104833226Y-139754474D01*
X104878390Y-139787287D01*
X104969840Y-139833883D01*
X104971080Y-139834515D01*
X105021876Y-139882490D01*
X105038671Y-139950311D01*
X105016134Y-140016446D01*
X104971080Y-140055485D01*
X104878386Y-140102715D01*
X104712786Y-140223028D01*
X104568028Y-140367786D01*
X104447715Y-140533386D01*
X104354781Y-140715776D01*
X104291522Y-140910465D01*
X104259500Y-141112648D01*
X104259500Y-141317351D01*
X104291522Y-141519534D01*
X104354781Y-141714223D01*
X104447715Y-141896613D01*
X104568028Y-142062213D01*
X104712786Y-142206971D01*
X104867749Y-142319556D01*
X104878390Y-142327287D01*
X104969840Y-142373883D01*
X104971080Y-142374515D01*
X105021876Y-142422490D01*
X105038671Y-142490311D01*
X105016134Y-142556446D01*
X104971080Y-142595485D01*
X104878386Y-142642715D01*
X104712786Y-142763028D01*
X104568028Y-142907786D01*
X104447715Y-143073386D01*
X104354781Y-143255776D01*
X104291522Y-143450465D01*
X104259500Y-143652648D01*
X104259500Y-143857351D01*
X104291522Y-144059534D01*
X104354781Y-144254223D01*
X104418691Y-144379653D01*
X104447585Y-144436359D01*
X104447715Y-144436613D01*
X104568028Y-144602213D01*
X104712786Y-144746971D01*
X104833226Y-144834474D01*
X104878390Y-144867287D01*
X104994607Y-144926503D01*
X105060776Y-144960218D01*
X105060778Y-144960218D01*
X105060781Y-144960220D01*
X105165137Y-144994127D01*
X105255465Y-145023477D01*
X105356557Y-145039488D01*
X105457648Y-145055500D01*
X105457649Y-145055500D01*
X105662351Y-145055500D01*
X105662352Y-145055500D01*
X105864534Y-145023477D01*
X106059219Y-144960220D01*
X106241610Y-144867287D01*
X106334590Y-144799732D01*
X106407213Y-144746971D01*
X106407215Y-144746968D01*
X106407219Y-144746966D01*
X106551966Y-144602219D01*
X106551968Y-144602215D01*
X106551971Y-144602213D01*
X106604732Y-144529590D01*
X106672287Y-144436610D01*
X106765220Y-144254219D01*
X106828477Y-144059534D01*
X106829039Y-144055981D01*
X106858964Y-143992848D01*
X106918273Y-143955913D01*
X106988136Y-143956907D01*
X107039194Y-143987694D01*
X107100961Y-144049461D01*
X107100965Y-144049464D01*
X107248446Y-144148009D01*
X107248459Y-144148016D01*
X107371363Y-144198923D01*
X107412334Y-144215894D01*
X107412336Y-144215894D01*
X107412341Y-144215896D01*
X107586304Y-144250499D01*
X107586307Y-144250500D01*
X107586309Y-144250500D01*
X107763693Y-144250500D01*
X107763694Y-144250499D01*
X107821682Y-144238964D01*
X107937658Y-144215896D01*
X107937661Y-144215894D01*
X107937666Y-144215894D01*
X108101547Y-144148013D01*
X108249035Y-144049464D01*
X108374464Y-143924035D01*
X108473013Y-143776547D01*
X108540894Y-143612666D01*
X108575500Y-143438691D01*
X108575500Y-143261309D01*
X108575500Y-143261306D01*
X108575499Y-143261304D01*
X108540896Y-143087341D01*
X108540893Y-143087332D01*
X108535116Y-143073386D01*
X108502162Y-142993826D01*
X108473016Y-142923459D01*
X108473009Y-142923446D01*
X108374464Y-142775965D01*
X108374461Y-142775961D01*
X108249038Y-142650538D01*
X108249034Y-142650535D01*
X108101553Y-142551990D01*
X108101540Y-142551983D01*
X107937667Y-142484106D01*
X107937658Y-142484103D01*
X107763694Y-142449500D01*
X107763691Y-142449500D01*
X107586309Y-142449500D01*
X107586306Y-142449500D01*
X107412341Y-142484103D01*
X107412332Y-142484106D01*
X107248459Y-142551983D01*
X107248446Y-142551990D01*
X107100965Y-142650535D01*
X107100961Y-142650538D01*
X106975538Y-142775961D01*
X106975535Y-142775965D01*
X106876990Y-142923446D01*
X106876985Y-142923456D01*
X106847837Y-142993826D01*
X106803996Y-143048229D01*
X106737701Y-143070294D01*
X106670002Y-143053015D01*
X106632957Y-143019257D01*
X106551969Y-142907784D01*
X106407213Y-142763028D01*
X106241614Y-142642715D01*
X106235006Y-142639348D01*
X106148917Y-142595483D01*
X106098123Y-142547511D01*
X106081328Y-142479690D01*
X106103865Y-142413555D01*
X106148917Y-142374516D01*
X106241610Y-142327287D01*
X106262770Y-142311913D01*
X106407213Y-142206971D01*
X106407215Y-142206968D01*
X106407219Y-142206966D01*
X106551966Y-142062219D01*
X106551968Y-142062215D01*
X106551971Y-142062213D01*
X106604732Y-141989590D01*
X106672287Y-141896610D01*
X106765220Y-141714219D01*
X106828477Y-141519534D01*
X106860500Y-141317352D01*
X106860500Y-141112648D01*
X106828477Y-140910466D01*
X106808196Y-140848049D01*
X106765218Y-140715776D01*
X106721509Y-140629993D01*
X106672287Y-140533390D01*
X106664556Y-140522749D01*
X106551971Y-140367786D01*
X106407213Y-140223028D01*
X106241614Y-140102715D01*
X106235006Y-140099348D01*
X106148917Y-140055483D01*
X106098123Y-140007511D01*
X106081328Y-139939690D01*
X106103865Y-139873555D01*
X106148917Y-139834516D01*
X106241610Y-139787287D01*
X106286774Y-139754474D01*
X106407213Y-139666971D01*
X106407215Y-139666968D01*
X106407219Y-139666966D01*
X106551966Y-139522219D01*
X106551968Y-139522215D01*
X106551971Y-139522213D01*
X106604732Y-139449590D01*
X106672287Y-139356610D01*
X106765220Y-139174219D01*
X106828477Y-138979534D01*
X106860500Y-138777352D01*
X106860500Y-138572648D01*
X106834309Y-138407288D01*
X106828477Y-138370465D01*
X106776038Y-138209075D01*
X106765220Y-138175781D01*
X106765218Y-138175778D01*
X106765218Y-138175776D01*
X106672419Y-137993650D01*
X106672287Y-137993390D01*
X106640092Y-137949077D01*
X106551971Y-137827786D01*
X106407213Y-137683028D01*
X106241614Y-137562715D01*
X106214763Y-137549034D01*
X106148917Y-137515483D01*
X106098123Y-137467511D01*
X106081328Y-137399690D01*
X106103865Y-137333555D01*
X106148917Y-137294516D01*
X106241610Y-137247287D01*
X106262770Y-137231913D01*
X106407213Y-137126971D01*
X106407215Y-137126968D01*
X106407219Y-137126966D01*
X106551966Y-136982219D01*
X106551968Y-136982215D01*
X106551971Y-136982213D01*
X106604732Y-136909590D01*
X106672287Y-136816610D01*
X106765220Y-136634219D01*
X106828477Y-136439534D01*
X106860500Y-136237352D01*
X106860500Y-136032648D01*
X106828477Y-135830466D01*
X106765220Y-135635781D01*
X106765218Y-135635778D01*
X106765218Y-135635776D01*
X106731503Y-135569607D01*
X106672287Y-135453390D01*
X106664556Y-135442749D01*
X106551971Y-135287786D01*
X106407213Y-135143028D01*
X106241614Y-135022715D01*
X106235006Y-135019348D01*
X106148917Y-134975483D01*
X106098123Y-134927511D01*
X106081328Y-134859690D01*
X106103865Y-134793555D01*
X106148917Y-134754516D01*
X106241610Y-134707287D01*
X106262770Y-134691913D01*
X106407213Y-134586971D01*
X106407215Y-134586968D01*
X106407219Y-134586966D01*
X106551966Y-134442219D01*
X106551968Y-134442215D01*
X106551971Y-134442213D01*
X106604732Y-134369590D01*
X106672287Y-134276610D01*
X106765220Y-134094219D01*
X106828477Y-133899534D01*
X106860500Y-133697352D01*
X106860500Y-133492648D01*
X106828477Y-133290466D01*
X106765220Y-133095781D01*
X106765218Y-133095778D01*
X106765218Y-133095776D01*
X106731503Y-133029607D01*
X106672287Y-132913390D01*
X106664556Y-132902749D01*
X106551971Y-132747786D01*
X106407213Y-132603028D01*
X106241614Y-132482715D01*
X106235006Y-132479348D01*
X106148917Y-132435483D01*
X106098123Y-132387511D01*
X106081328Y-132319690D01*
X106103865Y-132253555D01*
X106148917Y-132214516D01*
X106241610Y-132167287D01*
X106262770Y-132151913D01*
X106407213Y-132046971D01*
X106407215Y-132046968D01*
X106407219Y-132046966D01*
X106551966Y-131902219D01*
X106551968Y-131902215D01*
X106551971Y-131902213D01*
X106604732Y-131829590D01*
X106672287Y-131736610D01*
X106765220Y-131554219D01*
X106828477Y-131359534D01*
X106860500Y-131157352D01*
X106860500Y-130952648D01*
X106828477Y-130750466D01*
X106765220Y-130555781D01*
X106765218Y-130555778D01*
X106765218Y-130555776D01*
X106702144Y-130431988D01*
X106672287Y-130373390D01*
X106638459Y-130326829D01*
X106551971Y-130207786D01*
X106407213Y-130063028D01*
X106241614Y-129942715D01*
X106235006Y-129939348D01*
X106148917Y-129895483D01*
X106098123Y-129847511D01*
X106081328Y-129779690D01*
X106103865Y-129713555D01*
X106148917Y-129674516D01*
X106241610Y-129627287D01*
X106366884Y-129536271D01*
X106407213Y-129506971D01*
X106407215Y-129506968D01*
X106407219Y-129506966D01*
X106551966Y-129362219D01*
X106551968Y-129362215D01*
X106551971Y-129362213D01*
X106604732Y-129289590D01*
X106672287Y-129196610D01*
X106765220Y-129014219D01*
X106828477Y-128819534D01*
X106860500Y-128617352D01*
X106860500Y-128412648D01*
X106828477Y-128210466D01*
X106765220Y-128015781D01*
X106765218Y-128015778D01*
X106765218Y-128015776D01*
X106744434Y-127974986D01*
X112875001Y-127974986D01*
X112885494Y-128077697D01*
X112940641Y-128244119D01*
X112940643Y-128244124D01*
X113032684Y-128393345D01*
X113156654Y-128517315D01*
X113305875Y-128609356D01*
X113305880Y-128609358D01*
X113472302Y-128664505D01*
X113472309Y-128664506D01*
X113575019Y-128674999D01*
X113724999Y-128674999D01*
X113725000Y-128674998D01*
X113725000Y-127725000D01*
X112875001Y-127725000D01*
X112875001Y-127974986D01*
X106744434Y-127974986D01*
X106672287Y-127833390D01*
X106609175Y-127746523D01*
X106609174Y-127746520D01*
X106551971Y-127667787D01*
X106551967Y-127667782D01*
X106407213Y-127523028D01*
X106241614Y-127402715D01*
X106235006Y-127399348D01*
X106148917Y-127355483D01*
X106098123Y-127307511D01*
X106081328Y-127239690D01*
X106103865Y-127173555D01*
X106148917Y-127134516D01*
X106241610Y-127087287D01*
X106262770Y-127071913D01*
X106396144Y-126975013D01*
X112875000Y-126975013D01*
X112875000Y-127225000D01*
X113725000Y-127225000D01*
X113725000Y-126275000D01*
X113575027Y-126275000D01*
X113575012Y-126275001D01*
X113472302Y-126285494D01*
X113305880Y-126340641D01*
X113305875Y-126340643D01*
X113156654Y-126432684D01*
X113032684Y-126556654D01*
X112940643Y-126705875D01*
X112940641Y-126705880D01*
X112885494Y-126872302D01*
X112885493Y-126872309D01*
X112875000Y-126975013D01*
X106396144Y-126975013D01*
X106407213Y-126966971D01*
X106407215Y-126966968D01*
X106407219Y-126966966D01*
X106551966Y-126822219D01*
X106551968Y-126822215D01*
X106551971Y-126822213D01*
X106626102Y-126720179D01*
X106672287Y-126656610D01*
X106765220Y-126474219D01*
X106828477Y-126279534D01*
X106860500Y-126077352D01*
X106860500Y-125872648D01*
X106828477Y-125670466D01*
X106765220Y-125475781D01*
X106765218Y-125475778D01*
X106765218Y-125475776D01*
X106689817Y-125327795D01*
X106672287Y-125293390D01*
X106622606Y-125225009D01*
X106551971Y-125127786D01*
X106407213Y-124983028D01*
X106241613Y-124862715D01*
X106241612Y-124862714D01*
X106241610Y-124862713D01*
X106164992Y-124823674D01*
X106059223Y-124769781D01*
X105864534Y-124706522D01*
X105689995Y-124678878D01*
X105662352Y-124674500D01*
X105457648Y-124674500D01*
X105433329Y-124678351D01*
X105255465Y-124706522D01*
X105060776Y-124769781D01*
X104878386Y-124862715D01*
X104712786Y-124983028D01*
X104568028Y-125127786D01*
X104447715Y-125293386D01*
X104354781Y-125475776D01*
X104291522Y-125670465D01*
X104259500Y-125872648D01*
X96561557Y-125872648D01*
X95176896Y-110966841D01*
X95176461Y-110950520D01*
X95181424Y-110824223D01*
X97374500Y-110824223D01*
X97374500Y-111125776D01*
X97374501Y-111125793D01*
X97413861Y-111424766D01*
X97491913Y-111716060D01*
X97607314Y-111994661D01*
X97607318Y-111994671D01*
X97758099Y-112255831D01*
X97941679Y-112495078D01*
X97941685Y-112495085D01*
X98154914Y-112708314D01*
X98154921Y-112708320D01*
X98394168Y-112891900D01*
X98655328Y-113042681D01*
X98655329Y-113042681D01*
X98655332Y-113042683D01*
X98803596Y-113104096D01*
X98933939Y-113158086D01*
X98933940Y-113158086D01*
X98933942Y-113158087D01*
X99225232Y-113236138D01*
X99524217Y-113275500D01*
X99524224Y-113275500D01*
X99825776Y-113275500D01*
X99825783Y-113275500D01*
X100124768Y-113236138D01*
X100416058Y-113158087D01*
X100694668Y-113042683D01*
X100702438Y-113038197D01*
X106297500Y-113038197D01*
X106297500Y-113047082D01*
X106297500Y-114811807D01*
X106321612Y-114933027D01*
X106321614Y-114933035D01*
X106343886Y-114986804D01*
X106347670Y-114995938D01*
X106368917Y-115047233D01*
X106377547Y-115060148D01*
X106396060Y-115104845D01*
X106402379Y-115136614D01*
X106402381Y-115136620D01*
X106457070Y-115268651D01*
X106536469Y-115387482D01*
X114537517Y-123388530D01*
X114537520Y-123388532D01*
X114656347Y-123467929D01*
X114788380Y-123522619D01*
X114788384Y-123522619D01*
X114788385Y-123522620D01*
X114928542Y-123550500D01*
X114928545Y-123550500D01*
X116405622Y-123550500D01*
X116472661Y-123570185D01*
X116498647Y-123592510D01*
X116505622Y-123600424D01*
X116532288Y-123643656D01*
X116628716Y-123740084D01*
X116631295Y-123743010D01*
X116644493Y-123771276D01*
X116659436Y-123798642D01*
X116659148Y-123802663D01*
X116660855Y-123806318D01*
X116656676Y-123837227D01*
X116654452Y-123868334D01*
X116651944Y-123872236D01*
X116651495Y-123875558D01*
X116644629Y-123883617D01*
X116625951Y-123912681D01*
X116532289Y-124006342D01*
X116440187Y-124155663D01*
X116440186Y-124155666D01*
X116385001Y-124322203D01*
X116385001Y-124322204D01*
X116385000Y-124322204D01*
X116374500Y-124424983D01*
X116374500Y-124735993D01*
X116354815Y-124803032D01*
X116338180Y-124823674D01*
X115416901Y-125744955D01*
X115355927Y-125805929D01*
X115294953Y-125866902D01*
X115199145Y-126010288D01*
X115199138Y-126010301D01*
X115133146Y-126169621D01*
X115133143Y-126169633D01*
X115099500Y-126338766D01*
X115099500Y-126437770D01*
X115090844Y-126467246D01*
X115084297Y-126497261D01*
X115080571Y-126502231D01*
X115079815Y-126504809D01*
X115063134Y-126525497D01*
X115062328Y-126526304D01*
X115062276Y-126526356D01*
X115000933Y-126559805D01*
X114931244Y-126554779D01*
X114886965Y-126526304D01*
X114793345Y-126432684D01*
X114644124Y-126340643D01*
X114644119Y-126340641D01*
X114477697Y-126285494D01*
X114477690Y-126285493D01*
X114374986Y-126275000D01*
X114225000Y-126275000D01*
X114225000Y-128674999D01*
X114374972Y-128674999D01*
X114374986Y-128674998D01*
X114477697Y-128664505D01*
X114644119Y-128609358D01*
X114644124Y-128609356D01*
X114793342Y-128517317D01*
X114886964Y-128423695D01*
X114948287Y-128390210D01*
X115017979Y-128395194D01*
X115062327Y-128423695D01*
X115156344Y-128517712D01*
X115305666Y-128609814D01*
X115472203Y-128664999D01*
X115574991Y-128675500D01*
X115885993Y-128675499D01*
X115953032Y-128695183D01*
X115973674Y-128711818D01*
X117210681Y-129948825D01*
X117244166Y-130010148D01*
X117247000Y-130036506D01*
X117247000Y-130326833D01*
X117280642Y-130495966D01*
X117280645Y-130495974D01*
X117305417Y-130555781D01*
X117307761Y-130561438D01*
X117317200Y-130608890D01*
X117317200Y-131075870D01*
X117317201Y-131075876D01*
X117323608Y-131135483D01*
X117373902Y-131270328D01*
X117373906Y-131270335D01*
X117460152Y-131385544D01*
X117460155Y-131385547D01*
X117575364Y-131471793D01*
X117575371Y-131471797D01*
X117620318Y-131488561D01*
X117710217Y-131522091D01*
X117769827Y-131528500D01*
X118145700Y-131528499D01*
X118212739Y-131548183D01*
X118258494Y-131600987D01*
X118269700Y-131652499D01*
X118269700Y-132056709D01*
X118260261Y-132104161D01*
X118233145Y-132169624D01*
X118233142Y-132169633D01*
X118199500Y-132338766D01*
X118199500Y-136580994D01*
X118179815Y-136648033D01*
X118163181Y-136668675D01*
X116564231Y-138267624D01*
X116502908Y-138301109D01*
X116444457Y-138299718D01*
X116420905Y-138293407D01*
X116372013Y-138280306D01*
X116138021Y-138249501D01*
X116138018Y-138249500D01*
X116138012Y-138249500D01*
X115901990Y-138249500D01*
X115901984Y-138249500D01*
X115901980Y-138249501D01*
X115667990Y-138280306D01*
X115440007Y-138341394D01*
X115221955Y-138431714D01*
X115221944Y-138431719D01*
X115017546Y-138549730D01*
X114830303Y-138693406D01*
X114830296Y-138693412D01*
X114663413Y-138860295D01*
X114663407Y-138860302D01*
X114519731Y-139047545D01*
X114401720Y-139251943D01*
X114401715Y-139251954D01*
X114311395Y-139470006D01*
X114250307Y-139697989D01*
X114219502Y-139931979D01*
X114219501Y-139931995D01*
X114219501Y-140168004D01*
X114219502Y-140168020D01*
X114250307Y-140402010D01*
X114311395Y-140629993D01*
X114401715Y-140848045D01*
X114401720Y-140848056D01*
X114437753Y-140910466D01*
X114519728Y-141052450D01*
X114519730Y-141052453D01*
X114519731Y-141052454D01*
X114663407Y-141239697D01*
X114663413Y-141239704D01*
X114830296Y-141406587D01*
X114830303Y-141406593D01*
X114846910Y-141419336D01*
X115017551Y-141550273D01*
X115148919Y-141626118D01*
X115221944Y-141668280D01*
X115221949Y-141668282D01*
X115221952Y-141668284D01*
X115440008Y-141758606D01*
X115667987Y-141819693D01*
X115901990Y-141850500D01*
X115901997Y-141850500D01*
X116138005Y-141850500D01*
X116138012Y-141850500D01*
X116372015Y-141819693D01*
X116599994Y-141758606D01*
X116818050Y-141668284D01*
X117022451Y-141550273D01*
X117209700Y-141406592D01*
X117376593Y-141239699D01*
X117520274Y-141052450D01*
X117638285Y-140848049D01*
X117728607Y-140629993D01*
X117789694Y-140402014D01*
X117820501Y-140168011D01*
X117820501Y-139931989D01*
X117789694Y-139697986D01*
X117770282Y-139625540D01*
X117771945Y-139555692D01*
X117802374Y-139505769D01*
X118358161Y-138949983D01*
X119299500Y-138949983D01*
X119299500Y-141150001D01*
X119299501Y-141150018D01*
X119310000Y-141252796D01*
X119310001Y-141252799D01*
X119331392Y-141317351D01*
X119365186Y-141419334D01*
X119457288Y-141568656D01*
X119581344Y-141692712D01*
X119730666Y-141784814D01*
X119897203Y-141839999D01*
X119999991Y-141850500D01*
X122200008Y-141850499D01*
X122302797Y-141839999D01*
X122469334Y-141784814D01*
X122618656Y-141692712D01*
X122742712Y-141568656D01*
X122834814Y-141419334D01*
X122889999Y-141252797D01*
X122900500Y-141150009D01*
X122900499Y-138949992D01*
X122889999Y-138847203D01*
X122834814Y-138680666D01*
X122834810Y-138680660D01*
X122834809Y-138680657D01*
X122805360Y-138632913D01*
X122805359Y-138632912D01*
X122790717Y-138609174D01*
X122742712Y-138531344D01*
X122618656Y-138407288D01*
X122469334Y-138315186D01*
X122302797Y-138260001D01*
X122302795Y-138260000D01*
X122200010Y-138249500D01*
X119999998Y-138249500D01*
X119999981Y-138249501D01*
X119897203Y-138260000D01*
X119897200Y-138260001D01*
X119730668Y-138315185D01*
X119730663Y-138315187D01*
X119581342Y-138407289D01*
X119457289Y-138531342D01*
X119365187Y-138680663D01*
X119365185Y-138680668D01*
X119360962Y-138693412D01*
X119310001Y-138847203D01*
X119310001Y-138847204D01*
X119310000Y-138847204D01*
X119299500Y-138949983D01*
X118358161Y-138949983D01*
X119755045Y-137553100D01*
X119801046Y-137484253D01*
X119854657Y-137439450D01*
X119923982Y-137430742D01*
X119987010Y-137460896D01*
X120007250Y-137484254D01*
X120050535Y-137549034D01*
X120050538Y-137549038D01*
X120175961Y-137674461D01*
X120175965Y-137674464D01*
X120323446Y-137773009D01*
X120323459Y-137773016D01*
X120389813Y-137800500D01*
X120487334Y-137840894D01*
X120487336Y-137840894D01*
X120487341Y-137840896D01*
X120661304Y-137875499D01*
X120661307Y-137875500D01*
X120661309Y-137875500D01*
X120838693Y-137875500D01*
X120838694Y-137875499D01*
X121012666Y-137840894D01*
X121140686Y-137787866D01*
X121210152Y-137780398D01*
X121212292Y-137780804D01*
X121247799Y-137787867D01*
X121311307Y-137800500D01*
X121311309Y-137800500D01*
X121488693Y-137800500D01*
X121488694Y-137800499D01*
X121587674Y-137780811D01*
X121662658Y-137765896D01*
X121662661Y-137765894D01*
X121662666Y-137765894D01*
X121826547Y-137698013D01*
X121974035Y-137599464D01*
X122099464Y-137474035D01*
X122198013Y-137326547D01*
X122265894Y-137162666D01*
X122272995Y-137126971D01*
X122300499Y-136988695D01*
X122300500Y-136988693D01*
X122300500Y-136811306D01*
X122300499Y-136811304D01*
X122265896Y-136637341D01*
X122265893Y-136637332D01*
X122198016Y-136473459D01*
X122198009Y-136473446D01*
X122099464Y-136325965D01*
X122099461Y-136325961D01*
X121974038Y-136200538D01*
X121974034Y-136200535D01*
X121826553Y-136101990D01*
X121826540Y-136101983D01*
X121688434Y-136044779D01*
X121688433Y-136044779D01*
X121662666Y-136034106D01*
X121662662Y-136034105D01*
X121662658Y-136034103D01*
X121488694Y-135999500D01*
X121488691Y-135999500D01*
X121311309Y-135999500D01*
X121311306Y-135999500D01*
X121137336Y-136034104D01*
X121137332Y-136034106D01*
X121009311Y-136087132D01*
X120939841Y-136094599D01*
X120937669Y-136094187D01*
X120838695Y-136074500D01*
X120838691Y-136074500D01*
X120661309Y-136074500D01*
X120661306Y-136074500D01*
X120487341Y-136109103D01*
X120487332Y-136109106D01*
X120323459Y-136176983D01*
X120323446Y-136176990D01*
X120175965Y-136275535D01*
X120175961Y-136275538D01*
X120162181Y-136289319D01*
X120100858Y-136322804D01*
X120031166Y-136317820D01*
X119975233Y-136275948D01*
X119950816Y-136210484D01*
X119950500Y-136201638D01*
X119950500Y-135936304D01*
X129674500Y-135936304D01*
X129674500Y-136113695D01*
X129709103Y-136287658D01*
X129709106Y-136287667D01*
X129776983Y-136451540D01*
X129776990Y-136451553D01*
X129875535Y-136599034D01*
X129875538Y-136599038D01*
X130000961Y-136724461D01*
X130000965Y-136724464D01*
X130148446Y-136823009D01*
X130148459Y-136823016D01*
X130271363Y-136873923D01*
X130312334Y-136890894D01*
X130312336Y-136890894D01*
X130312341Y-136890896D01*
X130486304Y-136925499D01*
X130486307Y-136925500D01*
X130486309Y-136925500D01*
X130663693Y-136925500D01*
X130663694Y-136925499D01*
X130721682Y-136913964D01*
X130837658Y-136890896D01*
X130837661Y-136890894D01*
X130837666Y-136890894D01*
X131001547Y-136823013D01*
X131149035Y-136724464D01*
X131274464Y-136599035D01*
X131299887Y-136560985D01*
X131353496Y-136516183D01*
X131422821Y-136507474D01*
X131485849Y-136537628D01*
X131520919Y-136591559D01*
X131534781Y-136634222D01*
X131552336Y-136668675D01*
X131625010Y-136811306D01*
X131627715Y-136816613D01*
X131748028Y-136982213D01*
X131892786Y-137126971D01*
X132058385Y-137247284D01*
X132058387Y-137247285D01*
X132058390Y-137247287D01*
X132151080Y-137294515D01*
X132151630Y-137294795D01*
X132202426Y-137342770D01*
X132219221Y-137410591D01*
X132196684Y-137476725D01*
X132151630Y-137515765D01*
X132058644Y-137563143D01*
X132014077Y-137595523D01*
X132014077Y-137595524D01*
X132610591Y-138192037D01*
X132547007Y-138209075D01*
X132432993Y-138274901D01*
X132339901Y-138367993D01*
X132274075Y-138482007D01*
X132257037Y-138545590D01*
X131660524Y-137949077D01*
X131660523Y-137949077D01*
X131628143Y-137993644D01*
X131535244Y-138175968D01*
X131472009Y-138370582D01*
X131440000Y-138572682D01*
X131440000Y-138777317D01*
X131472009Y-138979417D01*
X131535244Y-139174031D01*
X131628141Y-139356350D01*
X131628147Y-139356359D01*
X131660523Y-139400921D01*
X131660524Y-139400922D01*
X132257037Y-138804409D01*
X132274075Y-138867993D01*
X132339901Y-138982007D01*
X132432993Y-139075099D01*
X132547007Y-139140925D01*
X132610590Y-139157962D01*
X132014076Y-139754474D01*
X132058650Y-139786859D01*
X132240968Y-139879755D01*
X132435582Y-139942990D01*
X132637683Y-139975000D01*
X132842317Y-139975000D01*
X133044417Y-139942990D01*
X133239031Y-139879755D01*
X133421349Y-139786859D01*
X133465921Y-139754474D01*
X132869409Y-139157962D01*
X132932993Y-139140925D01*
X133047007Y-139075099D01*
X133140099Y-138982007D01*
X133205925Y-138867993D01*
X133222962Y-138804409D01*
X133819474Y-139400921D01*
X133851859Y-139356349D01*
X133944755Y-139174031D01*
X134007990Y-138979417D01*
X134040000Y-138777317D01*
X134040000Y-138572682D01*
X134007990Y-138370582D01*
X133944755Y-138175968D01*
X133851859Y-137993650D01*
X133819474Y-137949077D01*
X133819474Y-137949076D01*
X133222962Y-138545589D01*
X133205925Y-138482007D01*
X133140099Y-138367993D01*
X133047007Y-138274901D01*
X132932993Y-138209075D01*
X132869408Y-138192037D01*
X133465922Y-137595524D01*
X133465921Y-137595523D01*
X133421359Y-137563147D01*
X133421350Y-137563141D01*
X133328369Y-137515765D01*
X133277573Y-137467790D01*
X133260778Y-137399969D01*
X133283315Y-137333835D01*
X133328370Y-137294795D01*
X133328920Y-137294515D01*
X133421610Y-137247287D01*
X133471144Y-137211298D01*
X133587213Y-137126971D01*
X133587215Y-137126968D01*
X133587219Y-137126966D01*
X133731966Y-136982219D01*
X133731968Y-136982215D01*
X133731971Y-136982213D01*
X133784732Y-136909590D01*
X133852287Y-136816610D01*
X133945220Y-136634219D01*
X134008477Y-136439534D01*
X134040500Y-136237352D01*
X134040500Y-136032648D01*
X134008477Y-135830466D01*
X133945220Y-135635781D01*
X133945218Y-135635778D01*
X133945218Y-135635776D01*
X133911503Y-135569607D01*
X133852287Y-135453390D01*
X133844556Y-135442749D01*
X133731971Y-135287786D01*
X133587213Y-135143028D01*
X133421614Y-135022715D01*
X133415006Y-135019348D01*
X133328917Y-134975483D01*
X133278123Y-134927511D01*
X133261328Y-134859690D01*
X133283865Y-134793555D01*
X133328917Y-134754516D01*
X133421610Y-134707287D01*
X133442770Y-134691913D01*
X133587213Y-134586971D01*
X133587215Y-134586968D01*
X133587219Y-134586966D01*
X133731966Y-134442219D01*
X133731968Y-134442215D01*
X133731971Y-134442213D01*
X133784732Y-134369590D01*
X133852287Y-134276610D01*
X133945220Y-134094219D01*
X134008477Y-133899534D01*
X134040500Y-133697352D01*
X134040500Y-133492648D01*
X134008477Y-133290466D01*
X133945220Y-133095781D01*
X133945218Y-133095778D01*
X133945218Y-133095776D01*
X133911503Y-133029607D01*
X133852287Y-132913390D01*
X133844556Y-132902749D01*
X133731971Y-132747786D01*
X133587213Y-132603028D01*
X133421614Y-132482715D01*
X133415006Y-132479348D01*
X133328917Y-132435483D01*
X133278123Y-132387511D01*
X133261328Y-132319690D01*
X133283865Y-132253555D01*
X133328917Y-132214516D01*
X133421610Y-132167287D01*
X133442770Y-132151913D01*
X133587213Y-132046971D01*
X133587215Y-132046968D01*
X133587219Y-132046966D01*
X133731966Y-131902219D01*
X133731968Y-131902215D01*
X133731971Y-131902213D01*
X133784732Y-131829590D01*
X133852287Y-131736610D01*
X133945220Y-131554219D01*
X134008477Y-131359534D01*
X134040500Y-131157352D01*
X134040500Y-130952648D01*
X134008477Y-130750466D01*
X133945220Y-130555781D01*
X133945218Y-130555778D01*
X133945218Y-130555776D01*
X133882144Y-130431988D01*
X133852287Y-130373390D01*
X133818459Y-130326829D01*
X133731971Y-130207786D01*
X133587213Y-130063028D01*
X133421614Y-129942715D01*
X133415006Y-129939348D01*
X133328917Y-129895483D01*
X133278123Y-129847511D01*
X133261328Y-129779690D01*
X133283865Y-129713555D01*
X133328917Y-129674516D01*
X133421610Y-129627287D01*
X133546884Y-129536271D01*
X133587213Y-129506971D01*
X133587215Y-129506968D01*
X133587219Y-129506966D01*
X133731966Y-129362219D01*
X133731968Y-129362215D01*
X133731971Y-129362213D01*
X133784732Y-129289590D01*
X133852287Y-129196610D01*
X133945220Y-129014219D01*
X134008477Y-128819534D01*
X134040500Y-128617352D01*
X134040500Y-128412648D01*
X134008477Y-128210466D01*
X133945220Y-128015781D01*
X133945218Y-128015778D01*
X133945218Y-128015776D01*
X133911503Y-127949607D01*
X133852287Y-127833390D01*
X133844556Y-127822749D01*
X133731971Y-127667786D01*
X133587213Y-127523028D01*
X133421613Y-127402715D01*
X133421612Y-127402714D01*
X133421610Y-127402713D01*
X133364618Y-127373674D01*
X133239223Y-127309781D01*
X133044534Y-127246522D01*
X132869995Y-127218878D01*
X132842352Y-127214500D01*
X132637648Y-127214500D01*
X132613329Y-127218351D01*
X132435465Y-127246522D01*
X132240776Y-127309781D01*
X132058386Y-127402715D01*
X131892786Y-127523028D01*
X131748028Y-127667786D01*
X131627715Y-127833386D01*
X131534781Y-128015776D01*
X131471522Y-128210465D01*
X131439500Y-128412648D01*
X131439500Y-128617351D01*
X131471522Y-128819534D01*
X131534781Y-129014223D01*
X131627715Y-129196613D01*
X131748028Y-129362213D01*
X131892786Y-129506971D01*
X132047749Y-129619556D01*
X132058390Y-129627287D01*
X132149840Y-129673883D01*
X132151080Y-129674515D01*
X132201876Y-129722490D01*
X132218671Y-129790311D01*
X132196134Y-129856446D01*
X132151080Y-129895485D01*
X132058386Y-129942715D01*
X131892786Y-130063028D01*
X131748028Y-130207786D01*
X131627715Y-130373386D01*
X131534781Y-130555776D01*
X131471522Y-130750465D01*
X131439500Y-130952648D01*
X131439500Y-131157351D01*
X131471522Y-131359534D01*
X131534781Y-131554223D01*
X131627715Y-131736613D01*
X131748028Y-131902213D01*
X131892786Y-132046971D01*
X132047749Y-132159556D01*
X132058390Y-132167287D01*
X132149840Y-132213883D01*
X132151080Y-132214515D01*
X132201876Y-132262490D01*
X132218671Y-132330311D01*
X132196134Y-132396446D01*
X132151080Y-132435485D01*
X132058386Y-132482715D01*
X131892786Y-132603028D01*
X131748028Y-132747786D01*
X131627715Y-132913386D01*
X131534781Y-133095776D01*
X131471522Y-133290465D01*
X131439500Y-133492648D01*
X131439500Y-133697351D01*
X131471522Y-133899534D01*
X131534781Y-134094223D01*
X131627715Y-134276613D01*
X131748028Y-134442213D01*
X131892786Y-134586971D01*
X132047749Y-134699556D01*
X132058390Y-134707287D01*
X132149840Y-134753883D01*
X132151080Y-134754515D01*
X132201876Y-134802490D01*
X132218671Y-134870311D01*
X132196134Y-134936446D01*
X132151080Y-134975485D01*
X132058386Y-135022715D01*
X131892786Y-135143028D01*
X131748028Y-135287786D01*
X131627713Y-135453388D01*
X131571630Y-135563456D01*
X131523656Y-135614251D01*
X131455834Y-135631046D01*
X131389700Y-135608508D01*
X131358044Y-135576051D01*
X131349628Y-135563456D01*
X131328751Y-135532212D01*
X131274464Y-135450964D01*
X131149038Y-135325538D01*
X131149034Y-135325535D01*
X131001553Y-135226990D01*
X131001540Y-135226983D01*
X130837667Y-135159106D01*
X130837658Y-135159103D01*
X130663694Y-135124500D01*
X130663691Y-135124500D01*
X130486309Y-135124500D01*
X130486306Y-135124500D01*
X130312341Y-135159103D01*
X130312332Y-135159106D01*
X130148459Y-135226983D01*
X130148446Y-135226990D01*
X130000965Y-135325535D01*
X130000961Y-135325538D01*
X129875538Y-135450961D01*
X129875535Y-135450965D01*
X129776990Y-135598446D01*
X129776983Y-135598459D01*
X129709106Y-135762332D01*
X129709103Y-135762341D01*
X129674500Y-135936304D01*
X119950500Y-135936304D01*
X119950500Y-132338768D01*
X119950499Y-132338766D01*
X119934875Y-132260220D01*
X119916855Y-132169626D01*
X119889739Y-132104161D01*
X119889738Y-132104158D01*
X119880299Y-132056706D01*
X119880299Y-131589729D01*
X119880298Y-131589723D01*
X119873891Y-131530116D01*
X119873102Y-131528000D01*
X120277500Y-131528000D01*
X120380128Y-131528000D01*
X120380144Y-131527999D01*
X120439672Y-131521598D01*
X120439679Y-131521596D01*
X120574386Y-131471354D01*
X120574393Y-131471350D01*
X120689487Y-131385190D01*
X120689490Y-131385187D01*
X120775650Y-131270093D01*
X120775654Y-131270086D01*
X120825896Y-131135379D01*
X120825898Y-131135372D01*
X120832299Y-131075844D01*
X120832300Y-131075827D01*
X120832300Y-130490600D01*
X120277500Y-130490600D01*
X120277500Y-131528000D01*
X119873102Y-131528000D01*
X119823597Y-131395271D01*
X119823593Y-131395264D01*
X119802233Y-131366730D01*
X119777816Y-131301265D01*
X119777500Y-131292420D01*
X119777500Y-129990600D01*
X120277500Y-129990600D01*
X120832300Y-129990600D01*
X120832300Y-129405372D01*
X120832299Y-129405355D01*
X120825898Y-129345827D01*
X120825896Y-129345820D01*
X120775654Y-129211113D01*
X120775650Y-129211106D01*
X120689490Y-129096012D01*
X120689487Y-129096009D01*
X120574393Y-129009849D01*
X120574386Y-129009845D01*
X120439679Y-128959603D01*
X120439672Y-128959601D01*
X120380144Y-128953200D01*
X120277500Y-128953200D01*
X120277500Y-129990600D01*
X119777500Y-129990600D01*
X119777500Y-128953200D01*
X119674855Y-128953200D01*
X119615327Y-128959601D01*
X119615320Y-128959603D01*
X119480613Y-129009845D01*
X119480606Y-129009849D01*
X119365512Y-129096009D01*
X119365509Y-129096012D01*
X119279349Y-129211106D01*
X119279345Y-129211113D01*
X119229103Y-129345820D01*
X119229101Y-129345827D01*
X119222700Y-129405355D01*
X119222700Y-129406920D01*
X119222598Y-129407265D01*
X119222523Y-129408679D01*
X119222344Y-129408669D01*
X119222344Y-129408675D01*
X119222240Y-129408663D01*
X119222188Y-129408661D01*
X119203015Y-129473959D01*
X119150211Y-129519714D01*
X119081053Y-129529658D01*
X119017497Y-129500633D01*
X118979723Y-129441855D01*
X118977083Y-129431111D01*
X118964356Y-129367133D01*
X118964355Y-129367126D01*
X118964353Y-129367121D01*
X118898361Y-129207801D01*
X118898354Y-129207788D01*
X118802546Y-129064402D01*
X118747989Y-129009845D01*
X118680599Y-128942455D01*
X117111818Y-127373674D01*
X117078333Y-127312351D01*
X117075499Y-127285993D01*
X117075499Y-126974998D01*
X117075498Y-126974981D01*
X117064999Y-126872203D01*
X117064998Y-126872200D01*
X117014623Y-126720179D01*
X117012221Y-126650351D01*
X117044646Y-126593496D01*
X117676325Y-125961818D01*
X117737648Y-125928333D01*
X117764006Y-125925499D01*
X118075002Y-125925499D01*
X118075008Y-125925499D01*
X118177797Y-125914999D01*
X118305604Y-125872648D01*
X135749500Y-125872648D01*
X135749500Y-126077351D01*
X135781522Y-126279534D01*
X135844781Y-126474223D01*
X135937715Y-126656613D01*
X136058028Y-126822213D01*
X136202786Y-126966971D01*
X136357749Y-127079556D01*
X136368390Y-127087287D01*
X136459840Y-127133883D01*
X136461080Y-127134515D01*
X136511876Y-127182490D01*
X136528671Y-127250311D01*
X136506134Y-127316446D01*
X136461080Y-127355485D01*
X136368386Y-127402715D01*
X136202786Y-127523028D01*
X136058028Y-127667786D01*
X135937715Y-127833386D01*
X135844781Y-128015776D01*
X135781522Y-128210465D01*
X135749500Y-128412648D01*
X135749500Y-128617351D01*
X135781522Y-128819534D01*
X135844781Y-129014223D01*
X135937715Y-129196613D01*
X136058028Y-129362213D01*
X136202786Y-129506971D01*
X136357749Y-129619556D01*
X136368390Y-129627287D01*
X136459840Y-129673883D01*
X136461080Y-129674515D01*
X136511876Y-129722490D01*
X136528671Y-129790311D01*
X136506134Y-129856446D01*
X136461080Y-129895485D01*
X136368386Y-129942715D01*
X136202786Y-130063028D01*
X136058028Y-130207786D01*
X135937715Y-130373386D01*
X135844781Y-130555776D01*
X135781522Y-130750465D01*
X135749500Y-130952648D01*
X135749500Y-131157351D01*
X135781522Y-131359534D01*
X135844781Y-131554223D01*
X135937715Y-131736613D01*
X136058028Y-131902213D01*
X136202786Y-132046971D01*
X136357749Y-132159556D01*
X136368390Y-132167287D01*
X136459840Y-132213883D01*
X136461080Y-132214515D01*
X136511876Y-132262490D01*
X136528671Y-132330311D01*
X136506134Y-132396446D01*
X136461080Y-132435485D01*
X136368386Y-132482715D01*
X136202786Y-132603028D01*
X136058028Y-132747786D01*
X135937715Y-132913386D01*
X135844781Y-133095776D01*
X135781522Y-133290465D01*
X135749500Y-133492648D01*
X135749500Y-133697351D01*
X135781522Y-133899534D01*
X135844781Y-134094223D01*
X135937715Y-134276613D01*
X136058028Y-134442213D01*
X136202786Y-134586971D01*
X136357749Y-134699556D01*
X136368390Y-134707287D01*
X136459840Y-134753883D01*
X136461080Y-134754515D01*
X136511876Y-134802490D01*
X136528671Y-134870311D01*
X136506134Y-134936446D01*
X136461080Y-134975485D01*
X136368386Y-135022715D01*
X136202786Y-135143028D01*
X136058028Y-135287786D01*
X135937715Y-135453386D01*
X135844781Y-135635776D01*
X135781522Y-135830465D01*
X135749500Y-136032648D01*
X135749500Y-136237351D01*
X135781522Y-136439534D01*
X135844781Y-136634223D01*
X135890762Y-136724464D01*
X135935010Y-136811306D01*
X135937715Y-136816613D01*
X136058028Y-136982213D01*
X136202786Y-137126971D01*
X136357749Y-137239556D01*
X136368390Y-137247287D01*
X136439564Y-137283552D01*
X136461080Y-137294515D01*
X136511876Y-137342490D01*
X136528671Y-137410311D01*
X136506134Y-137476446D01*
X136461080Y-137515485D01*
X136368386Y-137562715D01*
X136202786Y-137683028D01*
X136058028Y-137827786D01*
X135937715Y-137993386D01*
X135844781Y-138175776D01*
X135781522Y-138370465D01*
X135749500Y-138572648D01*
X135749500Y-138777351D01*
X135781522Y-138979534D01*
X135844781Y-139174223D01*
X135884382Y-139251943D01*
X135937585Y-139356359D01*
X135937715Y-139356613D01*
X136058028Y-139522213D01*
X136202786Y-139666971D01*
X136323226Y-139754474D01*
X136368390Y-139787287D01*
X136459840Y-139833883D01*
X136461080Y-139834515D01*
X136511876Y-139882490D01*
X136528671Y-139950311D01*
X136506134Y-140016446D01*
X136461080Y-140055485D01*
X136368386Y-140102715D01*
X136202786Y-140223028D01*
X136058028Y-140367786D01*
X135937715Y-140533386D01*
X135844781Y-140715776D01*
X135781522Y-140910465D01*
X135749500Y-141112648D01*
X135749500Y-141317351D01*
X135781522Y-141519534D01*
X135844781Y-141714223D01*
X135937715Y-141896613D01*
X136058028Y-142062213D01*
X136202786Y-142206971D01*
X136368385Y-142327284D01*
X136368387Y-142327285D01*
X136368390Y-142327287D01*
X136461080Y-142374515D01*
X136461630Y-142374795D01*
X136512426Y-142422770D01*
X136529221Y-142490591D01*
X136506684Y-142556725D01*
X136461630Y-142595765D01*
X136368644Y-142643143D01*
X136324077Y-142675523D01*
X136324077Y-142675524D01*
X136920591Y-143272037D01*
X136857007Y-143289075D01*
X136742993Y-143354901D01*
X136649901Y-143447993D01*
X136584075Y-143562007D01*
X136567037Y-143625590D01*
X135970524Y-143029077D01*
X135970523Y-143029077D01*
X135938143Y-143073644D01*
X135845244Y-143255968D01*
X135782009Y-143450582D01*
X135750000Y-143652682D01*
X135750000Y-143857317D01*
X135782009Y-144059417D01*
X135845244Y-144254031D01*
X135938141Y-144436350D01*
X135938147Y-144436359D01*
X135970523Y-144480921D01*
X135970524Y-144480922D01*
X136567037Y-143884409D01*
X136584075Y-143947993D01*
X136649901Y-144062007D01*
X136742993Y-144155099D01*
X136857007Y-144220925D01*
X136920590Y-144237962D01*
X136324076Y-144834474D01*
X136368650Y-144866859D01*
X136550968Y-144959755D01*
X136745582Y-145022990D01*
X136947683Y-145055000D01*
X137152317Y-145055000D01*
X137354417Y-145022990D01*
X137549031Y-144959755D01*
X137731349Y-144866859D01*
X137775921Y-144834474D01*
X137179409Y-144237962D01*
X137242993Y-144220925D01*
X137357007Y-144155099D01*
X137450099Y-144062007D01*
X137515925Y-143947993D01*
X137532962Y-143884409D01*
X138129474Y-144480921D01*
X138161859Y-144436349D01*
X138254755Y-144254031D01*
X138317990Y-144059417D01*
X138350000Y-143857317D01*
X138350000Y-143652682D01*
X138317990Y-143450582D01*
X138254755Y-143255968D01*
X138161859Y-143073650D01*
X138129474Y-143029077D01*
X138129474Y-143029076D01*
X137532962Y-143625589D01*
X137515925Y-143562007D01*
X137450099Y-143447993D01*
X137357007Y-143354901D01*
X137242993Y-143289075D01*
X137179408Y-143272037D01*
X137775922Y-142675524D01*
X137775921Y-142675523D01*
X137731359Y-142643147D01*
X137731350Y-142643141D01*
X137638369Y-142595765D01*
X137587573Y-142547790D01*
X137570778Y-142479969D01*
X137593315Y-142413835D01*
X137638370Y-142374795D01*
X137638920Y-142374515D01*
X137731610Y-142327287D01*
X137781144Y-142291298D01*
X137897213Y-142206971D01*
X137897215Y-142206968D01*
X137897219Y-142206966D01*
X138041966Y-142062219D01*
X138041968Y-142062215D01*
X138041971Y-142062213D01*
X138094732Y-141989590D01*
X138162287Y-141896610D01*
X138255220Y-141714219D01*
X138318477Y-141519534D01*
X138350500Y-141317352D01*
X138350500Y-141112648D01*
X138318477Y-140910466D01*
X138298196Y-140848049D01*
X138255218Y-140715776D01*
X138211509Y-140629993D01*
X138162287Y-140533390D01*
X138154556Y-140522749D01*
X138041971Y-140367786D01*
X137897213Y-140223028D01*
X137731614Y-140102715D01*
X137725006Y-140099348D01*
X137638917Y-140055483D01*
X137588123Y-140007511D01*
X137571328Y-139939690D01*
X137593865Y-139873555D01*
X137638917Y-139834516D01*
X137731610Y-139787287D01*
X137776774Y-139754474D01*
X137897213Y-139666971D01*
X137897215Y-139666968D01*
X137897219Y-139666966D01*
X138041966Y-139522219D01*
X138041968Y-139522215D01*
X138041971Y-139522213D01*
X138094732Y-139449590D01*
X138162287Y-139356610D01*
X138255220Y-139174219D01*
X138318477Y-138979534D01*
X138350500Y-138777352D01*
X138350500Y-138572648D01*
X138324309Y-138407288D01*
X138318477Y-138370465D01*
X138266038Y-138209075D01*
X138255220Y-138175781D01*
X138255218Y-138175778D01*
X138255218Y-138175776D01*
X138162419Y-137993650D01*
X138162287Y-137993390D01*
X138130092Y-137949077D01*
X138041971Y-137827786D01*
X137897213Y-137683028D01*
X137731614Y-137562715D01*
X137704763Y-137549034D01*
X137638917Y-137515483D01*
X137588123Y-137467511D01*
X137571328Y-137399690D01*
X137593865Y-137333555D01*
X137638917Y-137294516D01*
X137731610Y-137247287D01*
X137752770Y-137231913D01*
X137897213Y-137126971D01*
X137897215Y-137126968D01*
X137897219Y-137126966D01*
X138041966Y-136982219D01*
X138041968Y-136982215D01*
X138041971Y-136982213D01*
X138094732Y-136909590D01*
X138162287Y-136816610D01*
X138255220Y-136634219D01*
X138318477Y-136439534D01*
X138350500Y-136237352D01*
X138350500Y-136032648D01*
X138318477Y-135830466D01*
X138255220Y-135635781D01*
X138255218Y-135635778D01*
X138255218Y-135635776D01*
X138221503Y-135569607D01*
X138162287Y-135453390D01*
X138154556Y-135442749D01*
X138041971Y-135287786D01*
X137897213Y-135143028D01*
X137731614Y-135022715D01*
X137725006Y-135019348D01*
X137638917Y-134975483D01*
X137588123Y-134927511D01*
X137571328Y-134859690D01*
X137593865Y-134793555D01*
X137638917Y-134754516D01*
X137731610Y-134707287D01*
X137752770Y-134691913D01*
X137897213Y-134586971D01*
X137897215Y-134586968D01*
X137897219Y-134586966D01*
X138041966Y-134442219D01*
X138041968Y-134442215D01*
X138041971Y-134442213D01*
X138094732Y-134369590D01*
X138162287Y-134276610D01*
X138255220Y-134094219D01*
X138318477Y-133899534D01*
X138350500Y-133697352D01*
X138350500Y-133492648D01*
X138318477Y-133290466D01*
X138255220Y-133095781D01*
X138255218Y-133095778D01*
X138255218Y-133095776D01*
X138221503Y-133029607D01*
X138162287Y-132913390D01*
X138154556Y-132902749D01*
X138041971Y-132747786D01*
X137897213Y-132603028D01*
X137731614Y-132482715D01*
X137725006Y-132479348D01*
X137638917Y-132435483D01*
X137588123Y-132387511D01*
X137571328Y-132319690D01*
X137593865Y-132253555D01*
X137638917Y-132214516D01*
X137731610Y-132167287D01*
X137752770Y-132151913D01*
X137897213Y-132046971D01*
X137897215Y-132046968D01*
X137897219Y-132046966D01*
X138041966Y-131902219D01*
X138041968Y-131902215D01*
X138041971Y-131902213D01*
X138094732Y-131829590D01*
X138162287Y-131736610D01*
X138255220Y-131554219D01*
X138318477Y-131359534D01*
X138350500Y-131157352D01*
X138350500Y-130952648D01*
X138318477Y-130750466D01*
X138255220Y-130555781D01*
X138255218Y-130555778D01*
X138255218Y-130555776D01*
X138192144Y-130431988D01*
X138162287Y-130373390D01*
X138128459Y-130326829D01*
X138041971Y-130207786D01*
X137897213Y-130063028D01*
X137731614Y-129942715D01*
X137725006Y-129939348D01*
X137638917Y-129895483D01*
X137588123Y-129847511D01*
X137571328Y-129779690D01*
X137593865Y-129713555D01*
X137638917Y-129674516D01*
X137731610Y-129627287D01*
X137856884Y-129536271D01*
X137897213Y-129506971D01*
X137897215Y-129506968D01*
X137897219Y-129506966D01*
X138041966Y-129362219D01*
X138041968Y-129362215D01*
X138041971Y-129362213D01*
X138094732Y-129289590D01*
X138162287Y-129196610D01*
X138255220Y-129014219D01*
X138318477Y-128819534D01*
X138350500Y-128617352D01*
X138350500Y-128412648D01*
X138318477Y-128210466D01*
X138255220Y-128015781D01*
X138255218Y-128015778D01*
X138255218Y-128015776D01*
X138221503Y-127949607D01*
X138162287Y-127833390D01*
X138154556Y-127822749D01*
X138041971Y-127667786D01*
X137897213Y-127523028D01*
X137731614Y-127402715D01*
X137725006Y-127399348D01*
X137638917Y-127355483D01*
X137588123Y-127307511D01*
X137571328Y-127239690D01*
X137593865Y-127173555D01*
X137638917Y-127134516D01*
X137731610Y-127087287D01*
X137752770Y-127071913D01*
X137897213Y-126966971D01*
X137897215Y-126966968D01*
X137897219Y-126966966D01*
X138041966Y-126822219D01*
X138041968Y-126822215D01*
X138041971Y-126822213D01*
X138116102Y-126720179D01*
X138162287Y-126656610D01*
X138255220Y-126474219D01*
X138318477Y-126279534D01*
X138350500Y-126077352D01*
X138350500Y-125872648D01*
X138318477Y-125670466D01*
X138255220Y-125475781D01*
X138255218Y-125475778D01*
X138255218Y-125475776D01*
X138179817Y-125327795D01*
X138162287Y-125293390D01*
X138112606Y-125225009D01*
X138041971Y-125127786D01*
X137897213Y-124983028D01*
X137731613Y-124862715D01*
X137731612Y-124862714D01*
X137731610Y-124862713D01*
X137654992Y-124823674D01*
X137549223Y-124769781D01*
X137354534Y-124706522D01*
X137179995Y-124678878D01*
X137152352Y-124674500D01*
X136947648Y-124674500D01*
X136923329Y-124678351D01*
X136745465Y-124706522D01*
X136550776Y-124769781D01*
X136368386Y-124862715D01*
X136202786Y-124983028D01*
X136058028Y-125127786D01*
X135937715Y-125293386D01*
X135844781Y-125475776D01*
X135781522Y-125670465D01*
X135749500Y-125872648D01*
X118305604Y-125872648D01*
X118344334Y-125859814D01*
X118493656Y-125767712D01*
X118617712Y-125643656D01*
X118709814Y-125494334D01*
X118764999Y-125327797D01*
X118775500Y-125225009D01*
X118775499Y-124424992D01*
X118764999Y-124322203D01*
X118709814Y-124155666D01*
X118617712Y-124006344D01*
X118524049Y-123912681D01*
X118490564Y-123851358D01*
X118495548Y-123781666D01*
X118524049Y-123737319D01*
X118617712Y-123643656D01*
X118709814Y-123494334D01*
X118764999Y-123327797D01*
X118775500Y-123225009D01*
X118775499Y-122424992D01*
X118764999Y-122322203D01*
X118709814Y-122155666D01*
X118617712Y-122006344D01*
X118493656Y-121882288D01*
X118344334Y-121790186D01*
X118177797Y-121735001D01*
X118177795Y-121735000D01*
X118075010Y-121724500D01*
X117074998Y-121724500D01*
X117074980Y-121724501D01*
X116972203Y-121735000D01*
X116972200Y-121735001D01*
X116805668Y-121790185D01*
X116805663Y-121790187D01*
X116656342Y-121882289D01*
X116532289Y-122006342D01*
X116511161Y-122040597D01*
X116459213Y-122087321D01*
X116405622Y-122099500D01*
X115351874Y-122099500D01*
X115284835Y-122079815D01*
X115264193Y-122063181D01*
X107588819Y-114387806D01*
X107555334Y-114326483D01*
X107552500Y-114300125D01*
X107552500Y-113038194D01*
X107541034Y-112980553D01*
X107547261Y-112910961D01*
X107574968Y-112868682D01*
X108295796Y-112147855D01*
X108357116Y-112114372D01*
X108426808Y-112119356D01*
X108482741Y-112161228D01*
X108507158Y-112226692D01*
X108498036Y-112282989D01*
X108434105Y-112437337D01*
X108434103Y-112437341D01*
X108399500Y-112611304D01*
X108399500Y-112788695D01*
X108434103Y-112962658D01*
X108434106Y-112962667D01*
X108501983Y-113126540D01*
X108501990Y-113126553D01*
X108600535Y-113274034D01*
X108600538Y-113274038D01*
X108725961Y-113399461D01*
X108725965Y-113399464D01*
X108873446Y-113498009D01*
X108873459Y-113498016D01*
X108952065Y-113530575D01*
X109037334Y-113565894D01*
X109037336Y-113565894D01*
X109037341Y-113565896D01*
X109211304Y-113600499D01*
X109211307Y-113600500D01*
X109211309Y-113600500D01*
X109388693Y-113600500D01*
X109388694Y-113600499D01*
X109483099Y-113581721D01*
X109562658Y-113565896D01*
X109562661Y-113565894D01*
X109562666Y-113565894D01*
X109726547Y-113498013D01*
X109874035Y-113399464D01*
X109999464Y-113274035D01*
X110098013Y-113126547D01*
X110165894Y-112962666D01*
X110170253Y-112940750D01*
X110173878Y-112933819D01*
X110174143Y-112926001D01*
X110189840Y-112903301D01*
X110202635Y-112878841D01*
X110209434Y-112874968D01*
X110213884Y-112868535D01*
X110239362Y-112857925D01*
X110263350Y-112844265D01*
X110271162Y-112844683D01*
X110278385Y-112841676D01*
X110305557Y-112846526D01*
X110333119Y-112848003D01*
X110341207Y-112852890D01*
X110347168Y-112853954D01*
X110369134Y-112869762D01*
X110376196Y-112874029D01*
X110377931Y-112875638D01*
X110441073Y-112938780D01*
X110478657Y-112969067D01*
X110481824Y-112972005D01*
X110483121Y-112974182D01*
X110494048Y-112985109D01*
X110518706Y-113015707D01*
X110518715Y-113015717D01*
X110724234Y-113221236D01*
X110724244Y-113221245D01*
X110754834Y-113245895D01*
X110773578Y-113264639D01*
X110798247Y-113295252D01*
X110801175Y-113298885D01*
X111006750Y-113504459D01*
X111006762Y-113504470D01*
X111039157Y-113530575D01*
X111057904Y-113549322D01*
X111084004Y-113581710D01*
X111084013Y-113581721D01*
X111289601Y-113787308D01*
X111322000Y-113813417D01*
X111340745Y-113832162D01*
X111366854Y-113864562D01*
X111572436Y-114070144D01*
X111572446Y-114070153D01*
X111582838Y-114078527D01*
X111604842Y-114096259D01*
X111623579Y-114114995D01*
X111649698Y-114147407D01*
X111649702Y-114147411D01*
X111649703Y-114147412D01*
X111855282Y-114352991D01*
X111855286Y-114352994D01*
X111889524Y-114380585D01*
X111908266Y-114399327D01*
X111932920Y-114429920D01*
X111932929Y-114429930D01*
X112138448Y-114635449D01*
X112138458Y-114635458D01*
X112169048Y-114660108D01*
X112187792Y-114678852D01*
X112195323Y-114688197D01*
X112215389Y-114713098D01*
X112420964Y-114918672D01*
X112420968Y-114918676D01*
X112453369Y-114944786D01*
X112472115Y-114963532D01*
X112498226Y-114995935D01*
X112700279Y-115197986D01*
X112746962Y-115235606D01*
X112877878Y-115295394D01*
X112988363Y-115311279D01*
X113051919Y-115340304D01*
X113089693Y-115399083D01*
X113089693Y-115468952D01*
X113058397Y-115521698D01*
X113041547Y-115538548D01*
X113041547Y-115538549D01*
X113075368Y-115572370D01*
X113122003Y-115609950D01*
X113252782Y-115669676D01*
X113252787Y-115669677D01*
X113395101Y-115690137D01*
X113537414Y-115669677D01*
X113537419Y-115669676D01*
X113668198Y-115609950D01*
X113714833Y-115572370D01*
X113944876Y-115342327D01*
X113944876Y-115342326D01*
X113658145Y-115055595D01*
X113653806Y-115047649D01*
X113646559Y-115042224D01*
X113637324Y-115017464D01*
X113624660Y-114994272D01*
X113625305Y-114985242D01*
X113622142Y-114976760D01*
X113627758Y-114950939D01*
X113629644Y-114924580D01*
X113635462Y-114915526D01*
X113636994Y-114908487D01*
X113658145Y-114880233D01*
X113709056Y-114829322D01*
X113770379Y-114795837D01*
X113840071Y-114800821D01*
X113884418Y-114829322D01*
X114171149Y-115116053D01*
X114171150Y-115116053D01*
X114401193Y-114886010D01*
X114438773Y-114839375D01*
X114498499Y-114708596D01*
X114498500Y-114708591D01*
X114518960Y-114566278D01*
X114498500Y-114423964D01*
X114498499Y-114423959D01*
X114438773Y-114293180D01*
X114401193Y-114246545D01*
X114367372Y-114212724D01*
X114367371Y-114212724D01*
X114350522Y-114229573D01*
X114338701Y-114236027D01*
X114329881Y-114246207D01*
X114308633Y-114252445D01*
X114289199Y-114263058D01*
X114275764Y-114262097D01*
X114262841Y-114265892D01*
X114241594Y-114259653D01*
X114219507Y-114258074D01*
X114208724Y-114250002D01*
X114195802Y-114246208D01*
X114181300Y-114229471D01*
X114163574Y-114216202D01*
X114157870Y-114202432D01*
X114150047Y-114193404D01*
X114140103Y-114159539D01*
X114127303Y-114070512D01*
X114137246Y-114001357D01*
X114141098Y-113995809D01*
X114141098Y-113986450D01*
X114107282Y-113952634D01*
X114107266Y-113952620D01*
X114074727Y-113926398D01*
X114055980Y-113907651D01*
X114026819Y-113871463D01*
X114026816Y-113871460D01*
X114026812Y-113871455D01*
X113824759Y-113669404D01*
X113792357Y-113643292D01*
X113773613Y-113624547D01*
X113747512Y-113592158D01*
X113747501Y-113592145D01*
X113541919Y-113386563D01*
X113525449Y-113373291D01*
X113507677Y-113358969D01*
X113488934Y-113340226D01*
X113464277Y-113309628D01*
X113258754Y-113104105D01*
X113258744Y-113104096D01*
X113228145Y-113079437D01*
X113209405Y-113060697D01*
X113181818Y-113026463D01*
X113080073Y-112924718D01*
X112976231Y-112820876D01*
X112943830Y-112794766D01*
X112925085Y-112776020D01*
X112898976Y-112743620D01*
X112693388Y-112538033D01*
X112660986Y-112511921D01*
X112642242Y-112493176D01*
X112616141Y-112460787D01*
X112616130Y-112460774D01*
X112410546Y-112255190D01*
X112378140Y-112229076D01*
X112359395Y-112210330D01*
X112351073Y-112200003D01*
X112333290Y-112177935D01*
X112333289Y-112177934D01*
X112333285Y-112177929D01*
X112127709Y-111972354D01*
X112127705Y-111972350D01*
X112111235Y-111959078D01*
X112093463Y-111944756D01*
X112074720Y-111926013D01*
X112050063Y-111895415D01*
X111844540Y-111689892D01*
X111844530Y-111689883D01*
X111813936Y-111665228D01*
X111795196Y-111646488D01*
X111775622Y-111622198D01*
X111748886Y-111557652D01*
X111761290Y-111488892D01*
X111808900Y-111437754D01*
X111824714Y-111429837D01*
X111901547Y-111398013D01*
X112049035Y-111299464D01*
X112174464Y-111174035D01*
X112273013Y-111026547D01*
X112273014Y-111026544D01*
X112273016Y-111026541D01*
X112317234Y-110919787D01*
X112333816Y-110899208D01*
X112347299Y-110876485D01*
X112355392Y-110872433D01*
X112361074Y-110865383D01*
X112386149Y-110857036D01*
X112409778Y-110845209D01*
X112418778Y-110846176D01*
X112427368Y-110843318D01*
X112452972Y-110849853D01*
X112479247Y-110852678D01*
X112490726Y-110859489D01*
X112495068Y-110860597D01*
X112509599Y-110870685D01*
X112541763Y-110896605D01*
X112560506Y-110915349D01*
X112574827Y-110933120D01*
X112586615Y-110947748D01*
X112792203Y-111153335D01*
X112824602Y-111179444D01*
X112843346Y-111198188D01*
X112869458Y-111230591D01*
X113075046Y-111436178D01*
X113111921Y-111465894D01*
X113125653Y-111476960D01*
X113144395Y-111495702D01*
X113155835Y-111509898D01*
X113155841Y-111509904D01*
X113155842Y-111509905D01*
X113361416Y-111715478D01*
X113361425Y-111715486D01*
X113377447Y-111728398D01*
X113396189Y-111747140D01*
X113435522Y-111795948D01*
X113435531Y-111795958D01*
X113641049Y-112001476D01*
X113641056Y-112001482D01*
X113671654Y-112026140D01*
X113690399Y-112044886D01*
X113717977Y-112079108D01*
X113717988Y-112079121D01*
X113923566Y-112284699D01*
X113923574Y-112284706D01*
X113955972Y-112310814D01*
X113974709Y-112329550D01*
X114000828Y-112361962D01*
X114206416Y-112567549D01*
X114238815Y-112593658D01*
X114257560Y-112612403D01*
X114283669Y-112644803D01*
X114283673Y-112644807D01*
X114489255Y-112850388D01*
X114489262Y-112850395D01*
X114503450Y-112861828D01*
X114522195Y-112880574D01*
X114562969Y-112931173D01*
X114562976Y-112931181D01*
X114562978Y-112931183D01*
X114768566Y-113136770D01*
X114815249Y-113174390D01*
X114946165Y-113234178D01*
X115075199Y-113252729D01*
X115138753Y-113281752D01*
X115176528Y-113340530D01*
X115176528Y-113410400D01*
X115145233Y-113463146D01*
X115123977Y-113484402D01*
X115123977Y-113484403D01*
X115157798Y-113518224D01*
X115204433Y-113555804D01*
X115335212Y-113615530D01*
X115335217Y-113615531D01*
X115477531Y-113635991D01*
X115619844Y-113615531D01*
X115619849Y-113615530D01*
X115750628Y-113555804D01*
X115797263Y-113518224D01*
X116020235Y-113295252D01*
X115722896Y-112997915D01*
X115718556Y-112989967D01*
X115711310Y-112984543D01*
X115702075Y-112959784D01*
X115689411Y-112936591D01*
X115690056Y-112927561D01*
X115686893Y-112919079D01*
X115692509Y-112893258D01*
X115694395Y-112866900D01*
X115700213Y-112857846D01*
X115701745Y-112850806D01*
X115722894Y-112822554D01*
X115787951Y-112757496D01*
X115849274Y-112724012D01*
X115918966Y-112728996D01*
X115963314Y-112757497D01*
X116260651Y-113054835D01*
X116483619Y-112831868D01*
X116483623Y-112831864D01*
X116521203Y-112785229D01*
X116580929Y-112654450D01*
X116580930Y-112654445D01*
X116601390Y-112512132D01*
X116580930Y-112369818D01*
X116580929Y-112369813D01*
X116521203Y-112239034D01*
X116483623Y-112192399D01*
X116449802Y-112158578D01*
X116425010Y-112183370D01*
X116413187Y-112189825D01*
X116404367Y-112200004D01*
X116383120Y-112206242D01*
X116363686Y-112216854D01*
X116350252Y-112215893D01*
X116337328Y-112219688D01*
X116316079Y-112213448D01*
X116293994Y-112211869D01*
X116283212Y-112203798D01*
X116270288Y-112200003D01*
X116255787Y-112183267D01*
X116238061Y-112169998D01*
X116232356Y-112156226D01*
X116224534Y-112147198D01*
X116214592Y-112113339D01*
X116198237Y-111999578D01*
X116208181Y-111930422D01*
X116209386Y-111928686D01*
X116209386Y-111918162D01*
X116175569Y-111884345D01*
X116175562Y-111884339D01*
X116144965Y-111859682D01*
X116126220Y-111840936D01*
X116098629Y-111806697D01*
X115893053Y-111601122D01*
X115893047Y-111601116D01*
X115860641Y-111575002D01*
X115841896Y-111556256D01*
X115815790Y-111523860D01*
X115765728Y-111473798D01*
X115610203Y-111318274D01*
X115577801Y-111292162D01*
X115559057Y-111273417D01*
X115532956Y-111241028D01*
X115532945Y-111241015D01*
X115327361Y-111035431D01*
X115294960Y-111009321D01*
X115281567Y-110996785D01*
X115278790Y-110993771D01*
X115250106Y-110958175D01*
X115116153Y-110824223D01*
X140374500Y-110824223D01*
X140374500Y-111125776D01*
X140374501Y-111125793D01*
X140413861Y-111424766D01*
X140491913Y-111716060D01*
X140607314Y-111994661D01*
X140607318Y-111994671D01*
X140758099Y-112255831D01*
X140941679Y-112495078D01*
X140941685Y-112495085D01*
X141154914Y-112708314D01*
X141154921Y-112708320D01*
X141394168Y-112891900D01*
X141655328Y-113042681D01*
X141655329Y-113042681D01*
X141655332Y-113042683D01*
X141803596Y-113104096D01*
X141933939Y-113158086D01*
X141933940Y-113158086D01*
X141933942Y-113158087D01*
X142225232Y-113236138D01*
X142524217Y-113275500D01*
X142524224Y-113275500D01*
X142825776Y-113275500D01*
X142825783Y-113275500D01*
X143124768Y-113236138D01*
X143416058Y-113158087D01*
X143694668Y-113042683D01*
X143955832Y-112891900D01*
X144195080Y-112708319D01*
X144408319Y-112495080D01*
X144591900Y-112255832D01*
X144742683Y-111994668D01*
X144858087Y-111716058D01*
X144936138Y-111424768D01*
X144975500Y-111125783D01*
X144975500Y-110824217D01*
X144936138Y-110525232D01*
X144858087Y-110233942D01*
X144742683Y-109955332D01*
X144727626Y-109929253D01*
X144591900Y-109694168D01*
X144408320Y-109454921D01*
X144408314Y-109454914D01*
X144195085Y-109241685D01*
X144195078Y-109241679D01*
X143955831Y-109058099D01*
X143694671Y-108907318D01*
X143694661Y-108907314D01*
X143416060Y-108791913D01*
X143124766Y-108713861D01*
X142825793Y-108674501D01*
X142825788Y-108674500D01*
X142825783Y-108674500D01*
X142524217Y-108674500D01*
X142524211Y-108674500D01*
X142524206Y-108674501D01*
X142225233Y-108713861D01*
X141933939Y-108791913D01*
X141655338Y-108907314D01*
X141655328Y-108907318D01*
X141394168Y-109058099D01*
X141154921Y-109241679D01*
X141154914Y-109241685D01*
X140941685Y-109454914D01*
X140941679Y-109454921D01*
X140758099Y-109694168D01*
X140607318Y-109955328D01*
X140607314Y-109955338D01*
X140491913Y-110233939D01*
X140413861Y-110525233D01*
X140374501Y-110824206D01*
X140374500Y-110824223D01*
X115116153Y-110824223D01*
X115044518Y-110752588D01*
X115010278Y-110724995D01*
X114991535Y-110706252D01*
X114966881Y-110675658D01*
X114761356Y-110470133D01*
X114761346Y-110470124D01*
X114730752Y-110445469D01*
X114712008Y-110426724D01*
X114684425Y-110392495D01*
X114684421Y-110392490D01*
X114667565Y-110375634D01*
X114478841Y-110186911D01*
X114478833Y-110186904D01*
X114446433Y-110160794D01*
X114427687Y-110142047D01*
X114401581Y-110109650D01*
X114398744Y-110106813D01*
X114195990Y-109904060D01*
X114163588Y-109877948D01*
X114144844Y-109859203D01*
X114118743Y-109826814D01*
X114118732Y-109826801D01*
X113913148Y-109621217D01*
X113880742Y-109595103D01*
X113867375Y-109582595D01*
X113864583Y-109579566D01*
X113835892Y-109543962D01*
X113783114Y-109491184D01*
X113781391Y-109489315D01*
X113766979Y-109460163D01*
X113751399Y-109431630D01*
X113751585Y-109429024D01*
X113750427Y-109426681D01*
X113754063Y-109394375D01*
X113756383Y-109361938D01*
X113757949Y-109359844D01*
X113758242Y-109357250D01*
X113778764Y-109332040D01*
X113798255Y-109306005D01*
X113800931Y-109304811D01*
X113802353Y-109303065D01*
X113811729Y-109299995D01*
X113848370Y-109283656D01*
X113937666Y-109265894D01*
X114101547Y-109198013D01*
X114249035Y-109099464D01*
X114374464Y-108974035D01*
X114473013Y-108826547D01*
X114540894Y-108662666D01*
X114547208Y-108630927D01*
X114563964Y-108546682D01*
X114575500Y-108488691D01*
X114575500Y-108311309D01*
X114575500Y-108311306D01*
X114575499Y-108311304D01*
X114540896Y-108137341D01*
X114540893Y-108137332D01*
X114533434Y-108119325D01*
X114488989Y-108012023D01*
X114473016Y-107973459D01*
X114473009Y-107973446D01*
X114374464Y-107825965D01*
X114374461Y-107825961D01*
X114249038Y-107700538D01*
X114249034Y-107700535D01*
X114101553Y-107601990D01*
X114101540Y-107601983D01*
X113937667Y-107534106D01*
X113937658Y-107534103D01*
X113763694Y-107499500D01*
X113763691Y-107499500D01*
X113586309Y-107499500D01*
X113586306Y-107499500D01*
X113412341Y-107534103D01*
X113412332Y-107534106D01*
X113248459Y-107601983D01*
X113248446Y-107601990D01*
X113100965Y-107700535D01*
X113100961Y-107700538D01*
X112975538Y-107825961D01*
X112975535Y-107825965D01*
X112876990Y-107973446D01*
X112876983Y-107973459D01*
X112809106Y-108137332D01*
X112809104Y-108137340D01*
X112791344Y-108226626D01*
X112787530Y-108233915D01*
X112787199Y-108242138D01*
X112771574Y-108264419D01*
X112758959Y-108288537D01*
X112751807Y-108292609D01*
X112747084Y-108299345D01*
X112721896Y-108309641D01*
X112698243Y-108323111D01*
X112690026Y-108322670D01*
X112682410Y-108325784D01*
X112655652Y-108320827D01*
X112628474Y-108319371D01*
X112620025Y-108314228D01*
X112613709Y-108313059D01*
X112590644Y-108296346D01*
X112584811Y-108292796D01*
X112583397Y-108291468D01*
X112498933Y-108207004D01*
X112460911Y-108176363D01*
X112457468Y-108173128D01*
X112456159Y-108170898D01*
X112445831Y-108160570D01*
X112418147Y-108126215D01*
X112404092Y-108112160D01*
X112216091Y-107924161D01*
X112216084Y-107924155D01*
X112179891Y-107894988D01*
X112161149Y-107876246D01*
X112134915Y-107843693D01*
X112134907Y-107843684D01*
X111966745Y-107675522D01*
X111965917Y-107674005D01*
X111964421Y-107673136D01*
X111949231Y-107643447D01*
X111933260Y-107614199D01*
X111933383Y-107612473D01*
X111932596Y-107610935D01*
X111935865Y-107577769D01*
X111938244Y-107544507D01*
X111939334Y-107542571D01*
X111939450Y-107541403D01*
X111943114Y-107535866D01*
X111957191Y-107510891D01*
X111961659Y-107505244D01*
X112037915Y-107428990D01*
X112080833Y-107354654D01*
X112086455Y-107347550D01*
X112107877Y-107332393D01*
X112126870Y-107314284D01*
X112136919Y-107311846D01*
X112143492Y-107307196D01*
X112158922Y-107306508D01*
X112183690Y-107300500D01*
X112263693Y-107300500D01*
X112263694Y-107300499D01*
X112321682Y-107288964D01*
X112437658Y-107265896D01*
X112437661Y-107265894D01*
X112437666Y-107265894D01*
X112601547Y-107198013D01*
X112749035Y-107099464D01*
X112874464Y-106974035D01*
X112973013Y-106826547D01*
X113040894Y-106662666D01*
X113061827Y-106557432D01*
X113075499Y-106488695D01*
X113075500Y-106488693D01*
X113075500Y-106311306D01*
X113075499Y-106311304D01*
X113040896Y-106137341D01*
X113040893Y-106137332D01*
X112973016Y-105973459D01*
X112973009Y-105973446D01*
X112874464Y-105825965D01*
X112874461Y-105825961D01*
X112749038Y-105700538D01*
X112749034Y-105700535D01*
X112601553Y-105601990D01*
X112601540Y-105601983D01*
X112437667Y-105534106D01*
X112437658Y-105534103D01*
X112263694Y-105499500D01*
X112263691Y-105499500D01*
X112086309Y-105499500D01*
X112086306Y-105499500D01*
X111912341Y-105534103D01*
X111912332Y-105534106D01*
X111748459Y-105601983D01*
X111748446Y-105601990D01*
X111600965Y-105700535D01*
X111600961Y-105700538D01*
X111475538Y-105825961D01*
X111475535Y-105825965D01*
X111419494Y-105909836D01*
X111399927Y-105930728D01*
X111400538Y-105931339D01*
X111219793Y-106112085D01*
X111112087Y-106219790D01*
X111112085Y-106219793D01*
X111035925Y-106351704D01*
X111008611Y-106453640D01*
X110990406Y-106483505D01*
X110972354Y-106513201D01*
X110972284Y-106513234D01*
X110972245Y-106513300D01*
X110941077Y-106528439D01*
X110909543Y-106543804D01*
X110909466Y-106543794D01*
X110909398Y-106543828D01*
X110875018Y-106539717D01*
X110840158Y-106535591D01*
X110840082Y-106535540D01*
X110840022Y-106535533D01*
X110809999Y-106517257D01*
X110805387Y-106513458D01*
X110801877Y-106509948D01*
X110767154Y-106481966D01*
X110766610Y-106481518D01*
X110766206Y-106480923D01*
X110748895Y-106463612D01*
X110724229Y-106433003D01*
X110511645Y-106220419D01*
X110477246Y-106192699D01*
X110458502Y-106173955D01*
X110430788Y-106139566D01*
X110430780Y-106139557D01*
X110396968Y-106105745D01*
X110396967Y-106105745D01*
X109734056Y-106768658D01*
X109071143Y-107431569D01*
X109071143Y-107431570D01*
X109104955Y-107465382D01*
X109104964Y-107465390D01*
X109139358Y-107493108D01*
X109158102Y-107511852D01*
X109185818Y-107546246D01*
X109398409Y-107758837D01*
X109429006Y-107783492D01*
X109447754Y-107802240D01*
X109475349Y-107836484D01*
X109680925Y-108042059D01*
X109680929Y-108042063D01*
X109713330Y-108068173D01*
X109732076Y-108086919D01*
X109758187Y-108119322D01*
X109908432Y-108269566D01*
X109929924Y-108291057D01*
X109934262Y-108299002D01*
X109941509Y-108304427D01*
X109950744Y-108329186D01*
X109963409Y-108352380D01*
X109962763Y-108361409D01*
X109965927Y-108369891D01*
X109960310Y-108395713D01*
X109958425Y-108422072D01*
X109952607Y-108431124D01*
X109951076Y-108438164D01*
X109929925Y-108466419D01*
X109894793Y-108501552D01*
X109894792Y-108501553D01*
X109787086Y-108609258D01*
X109787083Y-108609262D01*
X109785529Y-108611954D01*
X109782705Y-108614968D01*
X109782141Y-108615704D01*
X109782068Y-108615648D01*
X109747044Y-108653040D01*
X109675963Y-108700537D01*
X109675958Y-108700542D01*
X109550538Y-108825961D01*
X109550535Y-108825965D01*
X109451990Y-108973446D01*
X109451985Y-108973456D01*
X109428079Y-109031171D01*
X109384238Y-109085574D01*
X109317943Y-109107639D01*
X109250244Y-109090360D01*
X109224272Y-109069045D01*
X109223983Y-109069335D01*
X109016106Y-108861458D01*
X108983556Y-108835228D01*
X108964810Y-108816481D01*
X108935646Y-108780289D01*
X108733590Y-108578235D01*
X108699228Y-108550544D01*
X108680490Y-108531805D01*
X108656111Y-108501553D01*
X108652806Y-108497451D01*
X108652797Y-108497441D01*
X108443679Y-108288324D01*
X108443669Y-108288315D01*
X108420404Y-108269566D01*
X108420402Y-108269565D01*
X108396994Y-108250701D01*
X108266078Y-108190913D01*
X108227986Y-108185436D01*
X108227983Y-108185435D01*
X108118496Y-108169695D01*
X108054940Y-108140671D01*
X108017165Y-108081893D01*
X108017165Y-108012023D01*
X108048461Y-107959276D01*
X108081193Y-107926544D01*
X108047369Y-107892721D01*
X108000739Y-107855144D01*
X108000737Y-107855143D01*
X107869957Y-107795417D01*
X107727641Y-107774957D01*
X107727640Y-107774957D01*
X107585323Y-107795417D01*
X107454543Y-107855143D01*
X107454541Y-107855144D01*
X107407910Y-107892722D01*
X107407903Y-107892728D01*
X107188472Y-108112160D01*
X107496417Y-108420105D01*
X107500755Y-108428050D01*
X107508003Y-108433476D01*
X107517237Y-108458235D01*
X107529902Y-108481428D01*
X107529256Y-108490457D01*
X107532420Y-108498940D01*
X107526803Y-108524760D01*
X107524918Y-108551120D01*
X107519099Y-108560173D01*
X107517568Y-108567213D01*
X107496417Y-108595467D01*
X107424291Y-108667593D01*
X107362968Y-108701078D01*
X107293276Y-108696094D01*
X107248929Y-108667593D01*
X106940984Y-108359648D01*
X106721552Y-108579079D01*
X106721546Y-108579086D01*
X106683968Y-108625717D01*
X106683967Y-108625719D01*
X106624241Y-108756499D01*
X106603781Y-108898815D01*
X106603781Y-108898817D01*
X106624241Y-109041133D01*
X106683967Y-109171913D01*
X106683968Y-109171915D01*
X106721545Y-109218545D01*
X106755368Y-109252368D01*
X106788100Y-109219637D01*
X106799921Y-109213181D01*
X106808743Y-109203002D01*
X106829989Y-109196763D01*
X106849423Y-109186152D01*
X106862857Y-109187112D01*
X106875782Y-109183318D01*
X106897027Y-109189556D01*
X106919115Y-109191136D01*
X106929897Y-109199208D01*
X106942822Y-109203003D01*
X106957323Y-109219739D01*
X106975048Y-109233008D01*
X106980751Y-109246777D01*
X106988576Y-109255808D01*
X106998519Y-109289672D01*
X107016651Y-109415792D01*
X107006707Y-109484951D01*
X107002856Y-109490497D01*
X107002856Y-109499856D01*
X107036680Y-109533680D01*
X107069231Y-109559912D01*
X107087974Y-109578655D01*
X107091149Y-109582595D01*
X107117144Y-109614852D01*
X107117150Y-109614858D01*
X107117151Y-109614859D01*
X107326264Y-109823971D01*
X107326271Y-109823978D01*
X107360626Y-109851663D01*
X107379369Y-109870406D01*
X107407057Y-109904766D01*
X107609110Y-110106817D01*
X107641482Y-110132905D01*
X107645301Y-110135982D01*
X107664043Y-110154724D01*
X107690279Y-110187280D01*
X107690288Y-110187290D01*
X107895806Y-110392808D01*
X107895813Y-110392814D01*
X107926411Y-110417472D01*
X107938739Y-110428866D01*
X107942092Y-110432415D01*
X107972743Y-110470451D01*
X108068415Y-110566123D01*
X108069622Y-110567400D01*
X108084728Y-110597036D01*
X108100653Y-110626199D01*
X108100522Y-110628020D01*
X108101353Y-110629649D01*
X108098039Y-110662737D01*
X108095669Y-110695891D01*
X108094545Y-110697639D01*
X108094392Y-110699171D01*
X108090028Y-110704668D01*
X108067168Y-110740238D01*
X106569793Y-112237615D01*
X106462087Y-112345320D01*
X106462085Y-112345323D01*
X106385924Y-112477237D01*
X106346500Y-112624369D01*
X106346500Y-112624371D01*
X106346500Y-112832222D01*
X106345169Y-112838910D01*
X106342934Y-112861746D01*
X106340682Y-112870931D01*
X106321615Y-112916965D01*
X106297500Y-113038197D01*
X100702438Y-113038197D01*
X100833267Y-112962663D01*
X100898990Y-112924718D01*
X100922817Y-112910961D01*
X100955832Y-112891900D01*
X101195080Y-112708319D01*
X101408319Y-112495080D01*
X101591900Y-112255832D01*
X101742683Y-111994668D01*
X101858087Y-111716058D01*
X101936138Y-111424768D01*
X101975500Y-111125783D01*
X101975500Y-110824217D01*
X101936138Y-110525232D01*
X101858087Y-110233942D01*
X101742683Y-109955332D01*
X101727626Y-109929253D01*
X101591900Y-109694168D01*
X101408320Y-109454921D01*
X101408314Y-109454914D01*
X101195085Y-109241685D01*
X101195078Y-109241679D01*
X100955831Y-109058099D01*
X100694671Y-108907318D01*
X100694661Y-108907314D01*
X100416060Y-108791913D01*
X100124766Y-108713861D01*
X99825793Y-108674501D01*
X99825788Y-108674500D01*
X99825783Y-108674500D01*
X99524217Y-108674500D01*
X99524211Y-108674500D01*
X99524206Y-108674501D01*
X99225233Y-108713861D01*
X98933939Y-108791913D01*
X98655338Y-108907314D01*
X98655328Y-108907318D01*
X98394168Y-109058099D01*
X98154921Y-109241679D01*
X98154914Y-109241685D01*
X97941685Y-109454914D01*
X97941679Y-109454921D01*
X97758099Y-109694168D01*
X97607318Y-109955328D01*
X97607314Y-109955338D01*
X97491913Y-110233939D01*
X97413861Y-110525233D01*
X97374501Y-110824206D01*
X97374500Y-110824223D01*
X95181424Y-110824223D01*
X95189183Y-110626782D01*
X95189944Y-110617107D01*
X95230339Y-110275858D01*
X95231857Y-110266277D01*
X95298905Y-109929246D01*
X95301178Y-109919784D01*
X95305414Y-109904766D01*
X95394458Y-109589082D01*
X95397456Y-109579854D01*
X95516407Y-109257470D01*
X95520133Y-109248478D01*
X95536222Y-109213583D01*
X95664008Y-108936432D01*
X95668409Y-108927796D01*
X95836350Y-108627963D01*
X95841408Y-108619712D01*
X96011034Y-108365889D01*
X96026286Y-108347271D01*
X96028874Y-108344674D01*
X97537434Y-106830528D01*
X108672068Y-106830528D01*
X108672068Y-106830530D01*
X108692528Y-106972846D01*
X108752254Y-107103626D01*
X108752255Y-107103628D01*
X108789832Y-107150258D01*
X108823655Y-107184081D01*
X109362824Y-106644914D01*
X109009271Y-106291361D01*
X108789839Y-106510792D01*
X108789833Y-106510799D01*
X108752255Y-106557430D01*
X108752254Y-106557432D01*
X108692528Y-106688212D01*
X108672068Y-106830528D01*
X97537434Y-106830528D01*
X98321187Y-106043873D01*
X109256759Y-106043873D01*
X109610312Y-106397426D01*
X109610313Y-106397426D01*
X110149480Y-105858257D01*
X110115664Y-105824441D01*
X110115657Y-105824435D01*
X110069026Y-105786857D01*
X110069024Y-105786856D01*
X109938244Y-105727130D01*
X109795928Y-105706670D01*
X109795927Y-105706670D01*
X109653610Y-105727130D01*
X109522830Y-105786856D01*
X109522828Y-105786857D01*
X109476197Y-105824435D01*
X109476190Y-105824441D01*
X109256759Y-106043873D01*
X98321187Y-106043873D01*
X108039076Y-96289998D01*
X111516215Y-92799983D01*
X121569500Y-92799983D01*
X121569500Y-93600001D01*
X121569501Y-93600019D01*
X121580000Y-93702796D01*
X121580001Y-93702799D01*
X121635185Y-93869331D01*
X121635187Y-93869336D01*
X121652873Y-93898009D01*
X121716089Y-94000500D01*
X121727289Y-94018657D01*
X121820951Y-94112319D01*
X121854436Y-94173642D01*
X121849452Y-94243334D01*
X121820951Y-94287681D01*
X121727289Y-94381342D01*
X121635187Y-94530663D01*
X121635185Y-94530668D01*
X121607349Y-94614670D01*
X121580001Y-94697203D01*
X121580001Y-94697204D01*
X121580000Y-94697204D01*
X121569500Y-94799983D01*
X121569500Y-95600001D01*
X121569501Y-95600019D01*
X121580000Y-95702796D01*
X121580001Y-95702799D01*
X121635185Y-95869331D01*
X121635186Y-95869334D01*
X121727288Y-96018656D01*
X121851344Y-96142712D01*
X122000666Y-96234814D01*
X122167203Y-96289999D01*
X122269991Y-96300500D01*
X123270008Y-96300499D01*
X123270016Y-96300498D01*
X123270019Y-96300498D01*
X123326302Y-96294748D01*
X123372797Y-96289999D01*
X123539334Y-96234814D01*
X123688656Y-96142712D01*
X123766253Y-96065115D01*
X123827576Y-96031630D01*
X123897268Y-96036614D01*
X123941615Y-96065115D01*
X124050961Y-96174461D01*
X124050965Y-96174464D01*
X124198446Y-96273009D01*
X124198459Y-96273016D01*
X124264813Y-96300500D01*
X124362334Y-96340894D01*
X124362336Y-96340894D01*
X124362341Y-96340896D01*
X124536304Y-96375499D01*
X124536307Y-96375500D01*
X124536309Y-96375500D01*
X124713693Y-96375500D01*
X124713694Y-96375499D01*
X124771682Y-96363964D01*
X124887658Y-96340896D01*
X124887661Y-96340894D01*
X124887666Y-96340894D01*
X125051547Y-96273013D01*
X125199035Y-96174464D01*
X125324464Y-96049035D01*
X125423013Y-95901547D01*
X125490894Y-95737666D01*
X125525500Y-95563691D01*
X125525500Y-95386309D01*
X125525500Y-95386306D01*
X125525499Y-95386304D01*
X125490896Y-95212341D01*
X125490893Y-95212332D01*
X125423016Y-95048459D01*
X125423009Y-95048446D01*
X125324464Y-94900965D01*
X125324461Y-94900961D01*
X125199038Y-94775538D01*
X125199034Y-94775535D01*
X125051553Y-94676990D01*
X125051540Y-94676983D01*
X124887667Y-94609106D01*
X124887659Y-94609104D01*
X124746490Y-94581023D01*
X124701795Y-94562511D01*
X124698562Y-94560351D01*
X124693653Y-94557071D01*
X124561620Y-94502381D01*
X124561614Y-94502379D01*
X124421457Y-94474500D01*
X124421455Y-94474500D01*
X123939378Y-94474500D01*
X123872339Y-94454815D01*
X123846353Y-94432490D01*
X123839377Y-94424575D01*
X123812712Y-94381344D01*
X123716283Y-94284915D01*
X123713705Y-94281990D01*
X123700506Y-94253723D01*
X123685564Y-94226358D01*
X123685851Y-94222336D01*
X123684145Y-94218682D01*
X123688323Y-94187772D01*
X123690548Y-94156666D01*
X123693055Y-94152763D01*
X123693505Y-94149442D01*
X123700370Y-94141382D01*
X123719049Y-94112319D01*
X123812712Y-94018656D01*
X123895519Y-93884402D01*
X123903106Y-93877578D01*
X123907345Y-93868297D01*
X123928644Y-93854608D01*
X123947467Y-93837679D01*
X123959102Y-93835034D01*
X123966123Y-93830523D01*
X124001058Y-93825500D01*
X124002315Y-93825500D01*
X124069354Y-93845185D01*
X124071203Y-93846396D01*
X124148453Y-93898013D01*
X124312334Y-93965894D01*
X124312336Y-93965894D01*
X124312341Y-93965896D01*
X124486304Y-94000499D01*
X124486307Y-94000500D01*
X124486309Y-94000500D01*
X124663693Y-94000500D01*
X124663694Y-94000499D01*
X124721682Y-93988964D01*
X124837658Y-93965896D01*
X124837661Y-93965894D01*
X124837666Y-93965894D01*
X125001547Y-93898013D01*
X125149035Y-93799464D01*
X125274464Y-93674035D01*
X125373013Y-93526547D01*
X125440894Y-93362666D01*
X125475500Y-93188691D01*
X125475500Y-93011309D01*
X125475500Y-93011306D01*
X125475499Y-93011304D01*
X125440896Y-92837341D01*
X125440893Y-92837332D01*
X125373016Y-92673459D01*
X125373009Y-92673446D01*
X125274464Y-92525965D01*
X125274461Y-92525961D01*
X125149038Y-92400538D01*
X125149034Y-92400535D01*
X125001553Y-92301990D01*
X125001540Y-92301983D01*
X124837667Y-92234106D01*
X124837658Y-92234103D01*
X124663694Y-92199500D01*
X124663691Y-92199500D01*
X124486309Y-92199500D01*
X124486306Y-92199500D01*
X124312341Y-92234103D01*
X124312332Y-92234106D01*
X124148452Y-92301987D01*
X124148450Y-92301988D01*
X124071206Y-92353602D01*
X124053159Y-92359252D01*
X124037250Y-92369477D01*
X124006290Y-92373928D01*
X124004529Y-92374480D01*
X124002315Y-92374500D01*
X123857230Y-92374500D01*
X123790191Y-92354815D01*
X123769549Y-92338181D01*
X123688657Y-92257289D01*
X123688656Y-92257288D01*
X123539334Y-92165186D01*
X123372797Y-92110001D01*
X123372795Y-92110000D01*
X123270010Y-92099500D01*
X122269998Y-92099500D01*
X122269980Y-92099501D01*
X122167203Y-92110000D01*
X122167200Y-92110001D01*
X122000668Y-92165185D01*
X122000663Y-92165187D01*
X121851342Y-92257289D01*
X121727289Y-92381342D01*
X121635187Y-92530663D01*
X121635186Y-92530666D01*
X121580001Y-92697203D01*
X121580001Y-92697204D01*
X121580000Y-92697204D01*
X121569500Y-92799983D01*
X111516215Y-92799983D01*
X111606549Y-92709315D01*
X116173161Y-88125793D01*
X116473618Y-87824223D01*
X120374500Y-87824223D01*
X120374500Y-88125776D01*
X120374501Y-88125793D01*
X120413861Y-88424766D01*
X120491913Y-88716060D01*
X120607314Y-88994661D01*
X120607318Y-88994671D01*
X120758099Y-89255831D01*
X120941679Y-89495078D01*
X120941685Y-89495085D01*
X121154914Y-89708314D01*
X121154921Y-89708320D01*
X121394168Y-89891900D01*
X121655328Y-90042681D01*
X121655329Y-90042681D01*
X121655332Y-90042683D01*
X121841072Y-90119619D01*
X121933939Y-90158086D01*
X121933940Y-90158086D01*
X121933942Y-90158087D01*
X122225232Y-90236138D01*
X122524217Y-90275500D01*
X122524224Y-90275500D01*
X122825776Y-90275500D01*
X122825783Y-90275500D01*
X123124768Y-90236138D01*
X123416058Y-90158087D01*
X123694668Y-90042683D01*
X123955832Y-89891900D01*
X124195080Y-89708319D01*
X124408319Y-89495080D01*
X124591900Y-89255832D01*
X124742683Y-88994668D01*
X124858087Y-88716058D01*
X124936138Y-88424768D01*
X124975500Y-88125783D01*
X124975500Y-87824217D01*
X124936138Y-87525232D01*
X124858087Y-87233942D01*
X124742683Y-86955332D01*
X124591900Y-86694168D01*
X124408319Y-86454920D01*
X124408314Y-86454914D01*
X124195085Y-86241685D01*
X124195078Y-86241679D01*
X123955831Y-86058099D01*
X123694671Y-85907318D01*
X123694661Y-85907314D01*
X123416060Y-85791913D01*
X123124766Y-85713861D01*
X122825793Y-85674501D01*
X122825788Y-85674500D01*
X122825783Y-85674500D01*
X122524217Y-85674500D01*
X122524211Y-85674500D01*
X122524206Y-85674501D01*
X122225233Y-85713861D01*
X121933939Y-85791913D01*
X121655338Y-85907314D01*
X121655328Y-85907318D01*
X121394168Y-86058099D01*
X121154921Y-86241679D01*
X121154914Y-86241685D01*
X120941685Y-86454914D01*
X120941679Y-86454921D01*
X120758099Y-86694168D01*
X120607318Y-86955328D01*
X120607314Y-86955338D01*
X120491913Y-87233939D01*
X120413861Y-87525233D01*
X120374501Y-87824206D01*
X120374500Y-87824223D01*
X116473618Y-87824223D01*
X119491356Y-84795309D01*
X119495442Y-84791392D01*
X119780644Y-84530199D01*
X119788960Y-84523230D01*
X120093917Y-84289630D01*
X120102828Y-84283406D01*
X120297251Y-84159922D01*
X120427101Y-84077449D01*
X120436508Y-84072039D01*
X120777616Y-83895308D01*
X120787452Y-83890748D01*
X121142734Y-83744621D01*
X121152953Y-83740933D01*
X121519686Y-83626529D01*
X121530171Y-83623758D01*
X121905516Y-83541960D01*
X121916216Y-83540116D01*
X122297277Y-83491556D01*
X122308121Y-83490656D01*
X122692038Y-83475703D01*
X122702876Y-83475755D01*
G37*
%TD.AperFunction*%
%TD*%
M02*
