M48
; DRILL file {KiCad 9.0.3} date 2026-04-11T21:09:10-0400
; FORMAT={-:-/ absolute / metric / decimal}
; #@! TF.CreationDate,2026-04-11T21:09:10-04:00
; #@! TF.GenerationSoftware,Kicad,Pcbnew,9.0.3
; #@! TF.FileFunction,Plated,1,4,PTH
FMAT,2
METRIC
; #@! TA.AperFunction,Plated,PTH,ViaDrill
T1C0.400
; #@! TA.AperFunction,Plated,PTH,ComponentDrill
T2C1.000
; #@! TA.AperFunction,Plated,PTH,ComponentDrill
T3C1.300
; #@! TA.AperFunction,Plated,PTH,ComponentDrill
T4C3.200
%
G90
G05
T1
X106.325Y-109.75
X107.3Y-110.75
X107.675Y-143.35
X108.593Y-111.993
X108.645Y-105.68
X109.3Y-112.7
X110.2Y-113.55
X110.25Y-109.4
X111.475Y-110.6
X111.625Y-114.975
X112.175Y-106.4
X113.675Y-108.4
X113.75Y-106.7
X114.5Y-129.275
X114.55Y-115.7
X114.575Y-109.2
X115.375Y-110.15
X116.7Y-113.7
X120.75Y-136.975
X121.4Y-136.9
X121.6Y-97.55
X121.925Y-128.15
X124.575Y-93.1
X124.625Y-95.475
X128.875Y-97.6
X130.575Y-136.025
T2
X105.56Y-125.975
X105.56Y-128.515
X105.56Y-131.055
X105.56Y-133.595
X105.56Y-136.135
X105.56Y-138.675
X105.56Y-141.215
X105.56Y-143.755
X132.74Y-128.515
X132.74Y-131.055
X132.74Y-133.595
X132.74Y-136.135
X132.74Y-138.675
X137.05Y-125.975
X137.05Y-128.515
X137.05Y-131.055
X137.05Y-133.595
X137.05Y-136.135
X137.05Y-138.675
X137.05Y-141.215
X137.05Y-143.755
T3
X116.02Y-140.05
X121.1Y-140.05
T4
X99.675Y-110.975
X122.675Y-87.975
X142.675Y-110.975
M30
