%TF.GenerationSoftware,KiCad,Pcbnew,9.0.3*%
%TF.CreationDate,2026-04-11T21:08:59-04:00*%
%TF.ProjectId,ComputerVisionModule_Rev1,436f6d70-7574-4657-9256-6973696f6e4d,rev?*%
%TF.SameCoordinates,Original*%
%TF.FileFunction,Copper,L2,Inr*%
%TF.FilePolarity,Positive*%
%FSLAX46Y46*%
G04 Gerber Fmt 4.6, Leading zero omitted, Abs format (unit mm)*
G04 Created by KiCad (PCBNEW 9.0.3) date 2026-04-11 21:08:59*
%MOMM*%
%LPD*%
G01*
G04 APERTURE LIST*
G04 Aperture macros list*
%AMRoundRect*
0 Rectangle with rounded corners*
0 $1 Rounding radius*
0 $2 $3 $4 $5 $6 $7 $8 $9 X,Y pos of 4 corners*
0 Add a 4 corners polygon primitive as box body*
4,1,4,$2,$3,$4,$5,$6,$7,$8,$9,$2,$3,0*
0 Add four circle primitives for the rounded corners*
1,1,$1+$1,$2,$3*
1,1,$1+$1,$4,$5*
1,1,$1+$1,$6,$7*
1,1,$1+$1,$8,$9*
0 Add four rect primitives between the rounded corners*
20,1,$1+$1,$2,$3,$4,$5,0*
20,1,$1+$1,$4,$5,$6,$7,0*
20,1,$1+$1,$6,$7,$8,$9,0*
20,1,$1+$1,$8,$9,$2,$3,0*%
G04 Aperture macros list end*
%TA.AperFunction,ComponentPad*%
%ADD10C,3.600000*%
%TD*%
%TA.AperFunction,ComponentPad*%
%ADD11C,1.600000*%
%TD*%
%TA.AperFunction,ComponentPad*%
%ADD12RoundRect,0.250000X1.050000X1.050000X-1.050000X1.050000X-1.050000X-1.050000X1.050000X-1.050000X0*%
%TD*%
%TA.AperFunction,ComponentPad*%
%ADD13C,2.600000*%
%TD*%
%TA.AperFunction,ViaPad*%
%ADD14C,0.800000*%
%TD*%
G04 APERTURE END LIST*
D10*
%TO.N,N/C*%
%TO.C,H1*%
X99675000Y-110975000D03*
%TD*%
D11*
%TO.N,+3V3*%
%TO.C,U1*%
X105560000Y-143755000D03*
%TO.N,Net-(U1-TX)*%
X105560000Y-136135000D03*
%TO.N,GND*%
X137050000Y-143755000D03*
%TO.N,Net-(U1-RX)*%
X105560000Y-138675000D03*
%TO.N,GND*%
X132740000Y-138675000D03*
%TO.N,Net-(U1-RST)*%
X137050000Y-125975000D03*
%TO.N,+3V3*%
X132740000Y-136135000D03*
%TO.N,unconnected-(U1-F1-Pad8)*%
X105560000Y-125975000D03*
%TO.N,unconnected-(U1-F2-Pad9)*%
X105560000Y-128515000D03*
%TO.N,unconnected-(U1-F3-Pad10)*%
X105560000Y-131055000D03*
%TO.N,unconnected-(U1-F4-Pad11)*%
X105560000Y-133595000D03*
%TO.N,unconnected-(U1-F5-Pad12)*%
X105560000Y-141215000D03*
%TO.N,unconnected-(U1-F6-Pad13)*%
X132740000Y-128515000D03*
%TO.N,unconnected-(U1-F7-Pad14)*%
X132740000Y-131055000D03*
%TO.N,unconnected-(U1-F8-Pad15)*%
X132740000Y-133595000D03*
%TO.N,unconnected-(U1-F9-Pad16)*%
X137050000Y-128515000D03*
%TO.N,unconnected-(U1-F10-Pad17)*%
X137050000Y-131055000D03*
%TO.N,unconnected-(U1-F11-Pad18)*%
X137050000Y-133595000D03*
%TO.N,unconnected-(U1-F12-Pad19)*%
X137050000Y-136135000D03*
%TO.N,unconnected-(U1-F13-Pad20)*%
X137050000Y-138675000D03*
%TO.N,unconnected-(U1-F14-Pad21)*%
X137050000Y-141215000D03*
%TD*%
D10*
%TO.N,N/C*%
%TO.C,H3*%
X142675000Y-110975000D03*
%TD*%
%TO.N,N/C*%
%TO.C,H2*%
X122675000Y-87975000D03*
%TD*%
D12*
%TO.N,+3V3*%
%TO.C,J2*%
X121100000Y-140050000D03*
D13*
%TO.N,Net-(J2-Pin_2)*%
X116020001Y-140050000D03*
%TD*%
D14*
%TO.N,GND*%
X108645200Y-105679800D03*
X107300000Y-110750000D03*
X114550000Y-115700000D03*
X114500000Y-129275000D03*
X121600000Y-97550000D03*
X113750000Y-106700000D03*
X115375000Y-110150000D03*
X128875000Y-97600000D03*
X114575000Y-109200000D03*
X111625000Y-114975000D03*
X108592891Y-111992891D03*
X110200000Y-113550000D03*
X106325000Y-109750000D03*
X121925000Y-128150000D03*
X116700000Y-113700000D03*
%TO.N,+3V3*%
X120750000Y-136975000D03*
X111475000Y-110600000D03*
X121400000Y-136900000D03*
X124625000Y-95475000D03*
X130575000Y-136025000D03*
X109300000Y-112700000D03*
X113675000Y-108400000D03*
X107675000Y-143350000D03*
%TO.N,Net-(U1-TX)*%
X110250000Y-109400000D03*
%TO.N,Net-(U1-RX)*%
X112175000Y-106400000D03*
%TO.N,Net-(U1-RST)*%
X124575000Y-93100000D03*
%TD*%
%TA.AperFunction,Conductor*%
%TO.N,GND*%
G36*
X122702876Y-83475755D02*
G01*
X123085179Y-83494407D01*
X123095953Y-83495406D01*
X123475136Y-83547389D01*
X123485782Y-83549326D01*
X123858949Y-83634238D01*
X123869400Y-83637101D01*
X124233730Y-83754299D01*
X124243895Y-83758068D01*
X124596577Y-83906647D01*
X124606369Y-83911286D01*
X124644968Y-83931687D01*
X124944720Y-84090117D01*
X124954078Y-84095599D01*
X125275509Y-84303311D01*
X125284352Y-84309590D01*
X125586400Y-84544592D01*
X125594660Y-84551620D01*
X125867326Y-84804969D01*
X125876518Y-84814472D01*
X135892841Y-96340894D01*
X146323983Y-108344674D01*
X146333620Y-108357317D01*
X146512988Y-108626883D01*
X146518044Y-108635167D01*
X146684867Y-108934223D01*
X146689259Y-108942877D01*
X146832178Y-109254049D01*
X146835880Y-109263019D01*
X146954028Y-109584416D01*
X146957018Y-109593649D01*
X147049672Y-109923315D01*
X147051930Y-109932753D01*
X147118520Y-110268648D01*
X147120033Y-110278234D01*
X147160149Y-110618303D01*
X147160908Y-110627978D01*
X147173515Y-110949898D01*
X147173054Y-110966480D01*
X143951638Y-144867284D01*
X143909480Y-145310938D01*
X143903272Y-145334108D01*
X143903272Y-145376268D01*
X143902716Y-145382120D01*
X143902716Y-145382122D01*
X143899283Y-145418246D01*
X143899283Y-145418249D01*
X143899640Y-145420367D01*
X143901246Y-145446383D01*
X143885230Y-145813227D01*
X143884287Y-145824003D01*
X143831007Y-146228704D01*
X143829129Y-146239358D01*
X143740774Y-146637897D01*
X143737974Y-146648345D01*
X143615227Y-147037651D01*
X143611527Y-147047817D01*
X143455313Y-147424951D01*
X143450741Y-147434755D01*
X143262258Y-147796828D01*
X143256850Y-147806196D01*
X143037516Y-148150481D01*
X143031311Y-148159342D01*
X142782813Y-148483191D01*
X142775859Y-148491478D01*
X142500083Y-148792434D01*
X142492434Y-148800083D01*
X142191478Y-149075859D01*
X142183191Y-149082813D01*
X141859342Y-149331311D01*
X141850481Y-149337516D01*
X141506196Y-149556850D01*
X141496828Y-149562258D01*
X141134755Y-149750741D01*
X141124951Y-149755313D01*
X140747817Y-149911527D01*
X140737651Y-149915227D01*
X140348345Y-150037974D01*
X140337897Y-150040774D01*
X139939358Y-150129129D01*
X139928704Y-150131007D01*
X139524003Y-150184287D01*
X139513227Y-150185230D01*
X139102708Y-150203153D01*
X139097286Y-150203271D01*
X103398257Y-150199507D01*
X103398256Y-150199507D01*
X103383717Y-150199505D01*
X103376699Y-150197836D01*
X103317956Y-150199498D01*
X103316182Y-150199498D01*
X103316181Y-150199497D01*
X103297009Y-150199496D01*
X103295313Y-150199484D01*
X102912102Y-150194201D01*
X102901684Y-150193619D01*
X102509997Y-150155129D01*
X102499667Y-150153672D01*
X102112636Y-150082399D01*
X102102464Y-150080080D01*
X101722782Y-149976521D01*
X101712840Y-149973354D01*
X101343192Y-149838237D01*
X101333553Y-149834247D01*
X100976588Y-149668543D01*
X100967318Y-149663756D01*
X100625537Y-149468627D01*
X100616702Y-149463077D01*
X100292546Y-149239914D01*
X100284209Y-149233642D01*
X99979949Y-148984010D01*
X99972169Y-148977059D01*
X99689970Y-148702734D01*
X99682817Y-148695170D01*
X99424662Y-148398075D01*
X99418169Y-148389934D01*
X99185918Y-148072210D01*
X99180121Y-148063536D01*
X98975406Y-147727421D01*
X98970358Y-147718290D01*
X98794617Y-147366146D01*
X98790355Y-147356623D01*
X98644835Y-146990942D01*
X98641398Y-146981122D01*
X98527131Y-146604495D01*
X98524527Y-146594398D01*
X98442333Y-146209530D01*
X98440585Y-146199245D01*
X98392278Y-145818633D01*
X98391031Y-145808811D01*
X98390155Y-145798423D01*
X98383151Y-145632094D01*
X98375364Y-145447148D01*
X98375298Y-145445241D01*
X98374975Y-145433077D01*
X98377327Y-145419315D01*
X98373529Y-145378432D01*
X98373421Y-145374343D01*
X98373513Y-145373992D01*
X98373378Y-145371061D01*
X98373378Y-145334111D01*
X98373378Y-145334108D01*
X98370026Y-145321600D01*
X98366334Y-145300979D01*
X98366299Y-145300603D01*
X96561557Y-125872648D01*
X104259500Y-125872648D01*
X104259500Y-126077351D01*
X104291522Y-126279534D01*
X104354781Y-126474223D01*
X104447715Y-126656613D01*
X104568028Y-126822213D01*
X104712786Y-126966971D01*
X104867749Y-127079556D01*
X104878390Y-127087287D01*
X104969840Y-127133883D01*
X104971080Y-127134515D01*
X105021876Y-127182490D01*
X105038671Y-127250311D01*
X105016134Y-127316446D01*
X104971080Y-127355485D01*
X104878386Y-127402715D01*
X104712786Y-127523028D01*
X104568028Y-127667786D01*
X104447715Y-127833386D01*
X104354781Y-128015776D01*
X104291522Y-128210465D01*
X104259500Y-128412648D01*
X104259500Y-128617351D01*
X104291522Y-128819534D01*
X104354781Y-129014223D01*
X104447715Y-129196613D01*
X104568028Y-129362213D01*
X104712786Y-129506971D01*
X104867749Y-129619556D01*
X104878390Y-129627287D01*
X104969840Y-129673883D01*
X104971080Y-129674515D01*
X105021876Y-129722490D01*
X105038671Y-129790311D01*
X105016134Y-129856446D01*
X104971080Y-129895485D01*
X104878386Y-129942715D01*
X104712786Y-130063028D01*
X104568028Y-130207786D01*
X104447715Y-130373386D01*
X104354781Y-130555776D01*
X104291522Y-130750465D01*
X104259500Y-130952648D01*
X104259500Y-131157351D01*
X104291522Y-131359534D01*
X104354781Y-131554223D01*
X104447715Y-131736613D01*
X104568028Y-131902213D01*
X104712786Y-132046971D01*
X104867749Y-132159556D01*
X104878390Y-132167287D01*
X104969840Y-132213883D01*
X104971080Y-132214515D01*
X105021876Y-132262490D01*
X105038671Y-132330311D01*
X105016134Y-132396446D01*
X104971080Y-132435485D01*
X104878386Y-132482715D01*
X104712786Y-132603028D01*
X104568028Y-132747786D01*
X104447715Y-132913386D01*
X104354781Y-133095776D01*
X104291522Y-133290465D01*
X104259500Y-133492648D01*
X104259500Y-133697351D01*
X104291522Y-133899534D01*
X104354781Y-134094223D01*
X104447715Y-134276613D01*
X104568028Y-134442213D01*
X104712786Y-134586971D01*
X104867749Y-134699556D01*
X104878390Y-134707287D01*
X104969840Y-134753883D01*
X104971080Y-134754515D01*
X105021876Y-134802490D01*
X105038671Y-134870311D01*
X105016134Y-134936446D01*
X104971080Y-134975485D01*
X104878386Y-135022715D01*
X104712786Y-135143028D01*
X104568028Y-135287786D01*
X104447715Y-135453386D01*
X104354781Y-135635776D01*
X104291522Y-135830465D01*
X104259500Y-136032648D01*
X104259500Y-136237351D01*
X104291522Y-136439534D01*
X104354781Y-136634223D01*
X104400762Y-136724464D01*
X104445010Y-136811306D01*
X104447715Y-136816613D01*
X104568028Y-136982213D01*
X104712786Y-137126971D01*
X104865137Y-137237658D01*
X104878390Y-137247287D01*
X104969840Y-137293883D01*
X104971080Y-137294515D01*
X105021876Y-137342490D01*
X105038671Y-137410311D01*
X105016134Y-137476446D01*
X104971080Y-137515485D01*
X104878386Y-137562715D01*
X104712786Y-137683028D01*
X104568028Y-137827786D01*
X104447715Y-137993386D01*
X104354781Y-138175776D01*
X104291522Y-138370465D01*
X104259500Y-138572648D01*
X104259500Y-138777351D01*
X104291522Y-138979534D01*
X104354781Y-139174223D01*
X104394382Y-139251943D01*
X104447585Y-139356359D01*
X104447715Y-139356613D01*
X104568028Y-139522213D01*
X104712786Y-139666971D01*
X104833226Y-139754474D01*
X104878390Y-139787287D01*
X104969840Y-139833883D01*
X104971080Y-139834515D01*
X105021876Y-139882490D01*
X105038671Y-139950311D01*
X105016134Y-140016446D01*
X104971080Y-140055485D01*
X104878386Y-140102715D01*
X104712786Y-140223028D01*
X104568028Y-140367786D01*
X104447715Y-140533386D01*
X104354781Y-140715776D01*
X104291522Y-140910465D01*
X104259500Y-141112648D01*
X104259500Y-141317351D01*
X104291522Y-141519534D01*
X104354781Y-141714223D01*
X104447715Y-141896613D01*
X104568028Y-142062213D01*
X104712786Y-142206971D01*
X104867749Y-142319556D01*
X104878390Y-142327287D01*
X104969840Y-142373883D01*
X104971080Y-142374515D01*
X105021876Y-142422490D01*
X105038671Y-142490311D01*
X105016134Y-142556446D01*
X104971080Y-142595485D01*
X104878386Y-142642715D01*
X104712786Y-142763028D01*
X104568028Y-142907786D01*
X104447715Y-143073386D01*
X104354781Y-143255776D01*
X104291522Y-143450465D01*
X104259500Y-143652648D01*
X104259500Y-143857351D01*
X104291522Y-144059534D01*
X104354781Y-144254223D01*
X104418691Y-144379653D01*
X104447585Y-144436359D01*
X104447715Y-144436613D01*
X104568028Y-144602213D01*
X104712786Y-144746971D01*
X104833226Y-144834474D01*
X104878390Y-144867287D01*
X104994607Y-144926503D01*
X105060776Y-144960218D01*
X105060778Y-144960218D01*
X105060781Y-144960220D01*
X105165137Y-144994127D01*
X105255465Y-145023477D01*
X105356557Y-145039488D01*
X105457648Y-145055500D01*
X105457649Y-145055500D01*
X105662351Y-145055500D01*
X105662352Y-145055500D01*
X105864534Y-145023477D01*
X106059219Y-144960220D01*
X106241610Y-144867287D01*
X106334590Y-144799732D01*
X106407213Y-144746971D01*
X106407215Y-144746968D01*
X106407219Y-144746966D01*
X106551966Y-144602219D01*
X106551968Y-144602215D01*
X106551971Y-144602213D01*
X106604732Y-144529590D01*
X106672287Y-144436610D01*
X106765220Y-144254219D01*
X106828477Y-144059534D01*
X106829039Y-144055981D01*
X106858964Y-143992848D01*
X106918273Y-143955913D01*
X106988136Y-143956907D01*
X107039194Y-143987694D01*
X107100961Y-144049461D01*
X107100965Y-144049464D01*
X107248446Y-144148009D01*
X107248459Y-144148016D01*
X107371363Y-144198923D01*
X107412334Y-144215894D01*
X107412336Y-144215894D01*
X107412341Y-144215896D01*
X107586304Y-144250499D01*
X107586307Y-144250500D01*
X107586309Y-144250500D01*
X107763693Y-144250500D01*
X107763694Y-144250499D01*
X107821682Y-144238964D01*
X107937658Y-144215896D01*
X107937661Y-144215894D01*
X107937666Y-144215894D01*
X108101547Y-144148013D01*
X108249035Y-144049464D01*
X108374464Y-143924035D01*
X108473013Y-143776547D01*
X108540894Y-143612666D01*
X108575500Y-143438691D01*
X108575500Y-143261309D01*
X108575500Y-143261306D01*
X108575499Y-143261304D01*
X108540896Y-143087341D01*
X108540893Y-143087332D01*
X108535116Y-143073386D01*
X108502162Y-142993826D01*
X108473016Y-142923459D01*
X108473009Y-142923446D01*
X108374464Y-142775965D01*
X108374461Y-142775961D01*
X108249038Y-142650538D01*
X108249034Y-142650535D01*
X108101553Y-142551990D01*
X108101540Y-142551983D01*
X107937667Y-142484106D01*
X107937658Y-142484103D01*
X107763694Y-142449500D01*
X107763691Y-142449500D01*
X107586309Y-142449500D01*
X107586306Y-142449500D01*
X107412341Y-142484103D01*
X107412332Y-142484106D01*
X107248459Y-142551983D01*
X107248446Y-142551990D01*
X107100965Y-142650535D01*
X107100961Y-142650538D01*
X106975538Y-142775961D01*
X106975535Y-142775965D01*
X106876990Y-142923446D01*
X106876985Y-142923456D01*
X106847837Y-142993826D01*
X106803996Y-143048229D01*
X106737701Y-143070294D01*
X106670002Y-143053015D01*
X106632957Y-143019257D01*
X106551969Y-142907784D01*
X106407213Y-142763028D01*
X106241614Y-142642715D01*
X106235006Y-142639348D01*
X106148917Y-142595483D01*
X106098123Y-142547511D01*
X106081328Y-142479690D01*
X106103865Y-142413555D01*
X106148917Y-142374516D01*
X106241610Y-142327287D01*
X106262770Y-142311913D01*
X106407213Y-142206971D01*
X106407215Y-142206968D01*
X106407219Y-142206966D01*
X106551966Y-142062219D01*
X106551968Y-142062215D01*
X106551971Y-142062213D01*
X106604732Y-141989590D01*
X106672287Y-141896610D01*
X106765220Y-141714219D01*
X106828477Y-141519534D01*
X106860500Y-141317352D01*
X106860500Y-141112648D01*
X106828477Y-140910466D01*
X106808196Y-140848049D01*
X106765218Y-140715776D01*
X106721509Y-140629993D01*
X106672287Y-140533390D01*
X106664556Y-140522749D01*
X106551971Y-140367786D01*
X106407213Y-140223028D01*
X106241614Y-140102715D01*
X106235006Y-140099348D01*
X106148917Y-140055483D01*
X106139764Y-140046838D01*
X106128099Y-140042104D01*
X106114847Y-140023306D01*
X106098123Y-140007511D01*
X106095096Y-139995288D01*
X106087842Y-139984998D01*
X106086856Y-139962017D01*
X106081328Y-139939690D01*
X106083950Y-139931995D01*
X114219501Y-139931995D01*
X114219501Y-140168004D01*
X114219502Y-140168020D01*
X114250307Y-140402010D01*
X114311395Y-140629993D01*
X114401715Y-140848045D01*
X114401720Y-140848056D01*
X114437753Y-140910466D01*
X114519728Y-141052450D01*
X114519730Y-141052453D01*
X114519731Y-141052454D01*
X114663407Y-141239697D01*
X114663413Y-141239704D01*
X114830296Y-141406587D01*
X114830303Y-141406593D01*
X114846910Y-141419336D01*
X115017551Y-141550273D01*
X115148919Y-141626118D01*
X115221944Y-141668280D01*
X115221949Y-141668282D01*
X115221952Y-141668284D01*
X115440008Y-141758606D01*
X115667987Y-141819693D01*
X115901990Y-141850500D01*
X115901997Y-141850500D01*
X116138005Y-141850500D01*
X116138012Y-141850500D01*
X116372015Y-141819693D01*
X116599994Y-141758606D01*
X116818050Y-141668284D01*
X117022451Y-141550273D01*
X117209700Y-141406592D01*
X117376593Y-141239699D01*
X117520274Y-141052450D01*
X117638285Y-140848049D01*
X117728607Y-140629993D01*
X117789694Y-140402014D01*
X117820501Y-140168011D01*
X117820501Y-139931989D01*
X117789694Y-139697986D01*
X117728607Y-139470007D01*
X117638285Y-139251951D01*
X117638283Y-139251948D01*
X117638281Y-139251943D01*
X117536179Y-139075099D01*
X117520274Y-139047550D01*
X117445415Y-138949992D01*
X117445408Y-138949983D01*
X119299500Y-138949983D01*
X119299500Y-141150001D01*
X119299501Y-141150018D01*
X119310000Y-141252796D01*
X119310001Y-141252799D01*
X119331392Y-141317351D01*
X119365186Y-141419334D01*
X119457288Y-141568656D01*
X119581344Y-141692712D01*
X119730666Y-141784814D01*
X119897203Y-141839999D01*
X119999991Y-141850500D01*
X122200008Y-141850499D01*
X122302797Y-141839999D01*
X122469334Y-141784814D01*
X122618656Y-141692712D01*
X122742712Y-141568656D01*
X122834814Y-141419334D01*
X122889999Y-141252797D01*
X122900500Y-141150009D01*
X122900499Y-138949992D01*
X122889999Y-138847203D01*
X122834814Y-138680666D01*
X122834810Y-138680660D01*
X122834809Y-138680657D01*
X122805360Y-138632913D01*
X122805359Y-138632912D01*
X122790717Y-138609174D01*
X122742712Y-138531344D01*
X122618656Y-138407288D01*
X122469334Y-138315186D01*
X122302797Y-138260001D01*
X122302795Y-138260000D01*
X122200010Y-138249500D01*
X119999998Y-138249500D01*
X119999981Y-138249501D01*
X119897203Y-138260000D01*
X119897200Y-138260001D01*
X119730668Y-138315185D01*
X119730663Y-138315187D01*
X119581342Y-138407289D01*
X119457289Y-138531342D01*
X119365187Y-138680663D01*
X119365185Y-138680668D01*
X119360962Y-138693412D01*
X119310001Y-138847203D01*
X119310001Y-138847204D01*
X119310000Y-138847204D01*
X119299500Y-138949983D01*
X117445408Y-138949983D01*
X117376594Y-138860302D01*
X117376588Y-138860295D01*
X117209705Y-138693412D01*
X117209698Y-138693406D01*
X117022455Y-138549730D01*
X117022454Y-138549729D01*
X117022451Y-138549727D01*
X116905157Y-138482007D01*
X116818057Y-138431719D01*
X116818046Y-138431714D01*
X116599994Y-138341394D01*
X116372011Y-138280306D01*
X116138021Y-138249501D01*
X116138018Y-138249500D01*
X116138012Y-138249500D01*
X115901990Y-138249500D01*
X115901984Y-138249500D01*
X115901980Y-138249501D01*
X115667990Y-138280306D01*
X115440007Y-138341394D01*
X115221955Y-138431714D01*
X115221944Y-138431719D01*
X115017546Y-138549730D01*
X114830303Y-138693406D01*
X114830296Y-138693412D01*
X114663413Y-138860295D01*
X114663407Y-138860302D01*
X114519731Y-139047545D01*
X114401720Y-139251943D01*
X114401715Y-139251954D01*
X114311395Y-139470006D01*
X114250307Y-139697989D01*
X114219502Y-139931979D01*
X114219501Y-139931995D01*
X106083950Y-139931995D01*
X106085389Y-139927772D01*
X106084850Y-139915192D01*
X106096445Y-139895326D01*
X106103865Y-139873555D01*
X106114568Y-139864280D01*
X106120073Y-139854850D01*
X106148916Y-139834516D01*
X106241610Y-139787287D01*
X106286774Y-139754474D01*
X106407213Y-139666971D01*
X106407215Y-139666968D01*
X106407219Y-139666966D01*
X106551966Y-139522219D01*
X106551968Y-139522215D01*
X106551971Y-139522213D01*
X106604732Y-139449590D01*
X106672287Y-139356610D01*
X106765220Y-139174219D01*
X106828477Y-138979534D01*
X106860500Y-138777352D01*
X106860500Y-138572648D01*
X106834309Y-138407288D01*
X106828477Y-138370465D01*
X106776038Y-138209075D01*
X106765220Y-138175781D01*
X106765218Y-138175778D01*
X106765218Y-138175776D01*
X106672419Y-137993650D01*
X106672287Y-137993390D01*
X106640092Y-137949077D01*
X106551971Y-137827786D01*
X106407213Y-137683028D01*
X106241614Y-137562715D01*
X106214763Y-137549034D01*
X106148917Y-137515483D01*
X106098123Y-137467511D01*
X106081328Y-137399690D01*
X106103865Y-137333555D01*
X106148917Y-137294516D01*
X106241610Y-137247287D01*
X106262770Y-137231913D01*
X106407213Y-137126971D01*
X106407215Y-137126968D01*
X106407219Y-137126966D01*
X106551966Y-136982219D01*
X106551968Y-136982215D01*
X106551971Y-136982213D01*
X106621651Y-136886304D01*
X119849500Y-136886304D01*
X119849500Y-137063695D01*
X119884103Y-137237658D01*
X119884106Y-137237667D01*
X119951983Y-137401540D01*
X119951990Y-137401553D01*
X120050535Y-137549034D01*
X120050538Y-137549038D01*
X120175961Y-137674461D01*
X120175965Y-137674464D01*
X120323446Y-137773009D01*
X120323459Y-137773016D01*
X120389813Y-137800500D01*
X120487334Y-137840894D01*
X120487336Y-137840894D01*
X120487341Y-137840896D01*
X120661304Y-137875499D01*
X120661307Y-137875500D01*
X120661309Y-137875500D01*
X120838693Y-137875500D01*
X120838694Y-137875499D01*
X121012666Y-137840894D01*
X121140686Y-137787866D01*
X121210152Y-137780398D01*
X121212292Y-137780804D01*
X121247799Y-137787867D01*
X121311307Y-137800500D01*
X121311309Y-137800500D01*
X121488693Y-137800500D01*
X121488694Y-137800499D01*
X121587674Y-137780811D01*
X121662658Y-137765896D01*
X121662661Y-137765894D01*
X121662666Y-137765894D01*
X121826547Y-137698013D01*
X121974035Y-137599464D01*
X122099464Y-137474035D01*
X122198013Y-137326547D01*
X122265894Y-137162666D01*
X122272995Y-137126971D01*
X122300499Y-136988695D01*
X122300500Y-136988693D01*
X122300500Y-136811306D01*
X122300499Y-136811304D01*
X122265896Y-136637341D01*
X122265893Y-136637332D01*
X122198016Y-136473459D01*
X122198009Y-136473446D01*
X122099464Y-136325965D01*
X122099461Y-136325961D01*
X121974038Y-136200538D01*
X121974034Y-136200535D01*
X121826553Y-136101990D01*
X121826540Y-136101983D01*
X121688434Y-136044779D01*
X121688433Y-136044779D01*
X121662666Y-136034106D01*
X121662662Y-136034105D01*
X121662658Y-136034103D01*
X121488694Y-135999500D01*
X121488691Y-135999500D01*
X121311309Y-135999500D01*
X121311306Y-135999500D01*
X121137336Y-136034104D01*
X121137332Y-136034106D01*
X121009311Y-136087132D01*
X120939841Y-136094599D01*
X120937669Y-136094187D01*
X120838695Y-136074500D01*
X120838691Y-136074500D01*
X120661309Y-136074500D01*
X120661306Y-136074500D01*
X120487341Y-136109103D01*
X120487332Y-136109106D01*
X120323459Y-136176983D01*
X120323446Y-136176990D01*
X120175965Y-136275535D01*
X120175961Y-136275538D01*
X120050538Y-136400961D01*
X120050535Y-136400965D01*
X119951990Y-136548446D01*
X119951983Y-136548459D01*
X119884106Y-136712332D01*
X119884103Y-136712341D01*
X119849500Y-136886304D01*
X106621651Y-136886304D01*
X106628445Y-136876953D01*
X106672287Y-136816610D01*
X106765220Y-136634219D01*
X106828477Y-136439534D01*
X106860500Y-136237352D01*
X106860500Y-136032648D01*
X106845240Y-135936304D01*
X129674500Y-135936304D01*
X129674500Y-136113695D01*
X129709103Y-136287658D01*
X129709106Y-136287667D01*
X129776983Y-136451540D01*
X129776990Y-136451553D01*
X129875535Y-136599034D01*
X129875538Y-136599038D01*
X130000961Y-136724461D01*
X130000965Y-136724464D01*
X130148446Y-136823009D01*
X130148459Y-136823016D01*
X130271363Y-136873923D01*
X130312334Y-136890894D01*
X130312336Y-136890894D01*
X130312341Y-136890896D01*
X130486304Y-136925499D01*
X130486307Y-136925500D01*
X130486309Y-136925500D01*
X130663693Y-136925500D01*
X130663694Y-136925499D01*
X130721682Y-136913964D01*
X130837658Y-136890896D01*
X130837661Y-136890894D01*
X130837666Y-136890894D01*
X131001547Y-136823013D01*
X131149035Y-136724464D01*
X131274464Y-136599035D01*
X131299887Y-136560985D01*
X131353496Y-136516183D01*
X131422821Y-136507474D01*
X131485849Y-136537628D01*
X131520919Y-136591559D01*
X131534781Y-136634222D01*
X131574581Y-136712332D01*
X131625010Y-136811306D01*
X131627715Y-136816613D01*
X131748028Y-136982213D01*
X131892786Y-137126971D01*
X132058385Y-137247284D01*
X132058387Y-137247285D01*
X132058390Y-137247287D01*
X132151080Y-137294515D01*
X132151630Y-137294795D01*
X132202426Y-137342770D01*
X132219221Y-137410591D01*
X132196684Y-137476725D01*
X132151630Y-137515765D01*
X132058644Y-137563143D01*
X132014077Y-137595523D01*
X132014077Y-137595524D01*
X132610591Y-138192037D01*
X132547007Y-138209075D01*
X132432993Y-138274901D01*
X132339901Y-138367993D01*
X132274075Y-138482007D01*
X132257037Y-138545590D01*
X131660524Y-137949077D01*
X131660523Y-137949077D01*
X131628143Y-137993644D01*
X131535244Y-138175968D01*
X131472009Y-138370582D01*
X131440000Y-138572682D01*
X131440000Y-138777317D01*
X131472009Y-138979417D01*
X131535244Y-139174031D01*
X131628141Y-139356350D01*
X131628147Y-139356359D01*
X131660523Y-139400921D01*
X131660524Y-139400922D01*
X132257037Y-138804409D01*
X132274075Y-138867993D01*
X132339901Y-138982007D01*
X132432993Y-139075099D01*
X132547007Y-139140925D01*
X132610590Y-139157962D01*
X132014076Y-139754474D01*
X132058650Y-139786859D01*
X132240968Y-139879755D01*
X132435582Y-139942990D01*
X132637683Y-139975000D01*
X132842317Y-139975000D01*
X133044417Y-139942990D01*
X133239031Y-139879755D01*
X133421349Y-139786859D01*
X133465921Y-139754474D01*
X132869409Y-139157962D01*
X132932993Y-139140925D01*
X133047007Y-139075099D01*
X133140099Y-138982007D01*
X133205925Y-138867993D01*
X133222962Y-138804409D01*
X133819474Y-139400921D01*
X133851859Y-139356349D01*
X133944755Y-139174031D01*
X134007990Y-138979417D01*
X134040000Y-138777317D01*
X134040000Y-138572682D01*
X134007990Y-138370582D01*
X133944755Y-138175968D01*
X133851859Y-137993650D01*
X133819474Y-137949077D01*
X133819474Y-137949076D01*
X133222962Y-138545589D01*
X133205925Y-138482007D01*
X133140099Y-138367993D01*
X133047007Y-138274901D01*
X132932993Y-138209075D01*
X132869408Y-138192037D01*
X133465922Y-137595524D01*
X133465921Y-137595523D01*
X133421359Y-137563147D01*
X133421350Y-137563141D01*
X133328369Y-137515765D01*
X133277573Y-137467790D01*
X133260778Y-137399969D01*
X133283315Y-137333835D01*
X133328370Y-137294795D01*
X133328920Y-137294515D01*
X133421610Y-137247287D01*
X133471144Y-137211298D01*
X133587213Y-137126971D01*
X133587215Y-137126968D01*
X133587219Y-137126966D01*
X133731966Y-136982219D01*
X133731968Y-136982215D01*
X133731971Y-136982213D01*
X133784732Y-136909590D01*
X133852287Y-136816610D01*
X133945220Y-136634219D01*
X134008477Y-136439534D01*
X134040500Y-136237352D01*
X134040500Y-136032648D01*
X134008477Y-135830466D01*
X133945220Y-135635781D01*
X133945218Y-135635778D01*
X133945218Y-135635776D01*
X133911503Y-135569607D01*
X133852287Y-135453390D01*
X133844556Y-135442749D01*
X133731971Y-135287786D01*
X133587213Y-135143028D01*
X133421614Y-135022715D01*
X133415006Y-135019348D01*
X133328917Y-134975483D01*
X133278123Y-134927511D01*
X133261328Y-134859690D01*
X133283865Y-134793555D01*
X133328917Y-134754516D01*
X133421610Y-134707287D01*
X133442770Y-134691913D01*
X133587213Y-134586971D01*
X133587215Y-134586968D01*
X133587219Y-134586966D01*
X133731966Y-134442219D01*
X133731968Y-134442215D01*
X133731971Y-134442213D01*
X133784732Y-134369590D01*
X133852287Y-134276610D01*
X133945220Y-134094219D01*
X134008477Y-133899534D01*
X134040500Y-133697352D01*
X134040500Y-133492648D01*
X134008477Y-133290466D01*
X133945220Y-133095781D01*
X133945218Y-133095778D01*
X133945218Y-133095776D01*
X133911503Y-133029607D01*
X133852287Y-132913390D01*
X133844556Y-132902749D01*
X133731971Y-132747786D01*
X133587213Y-132603028D01*
X133421614Y-132482715D01*
X133415006Y-132479348D01*
X133328917Y-132435483D01*
X133278123Y-132387511D01*
X133261328Y-132319690D01*
X133283865Y-132253555D01*
X133328917Y-132214516D01*
X133421610Y-132167287D01*
X133442770Y-132151913D01*
X133587213Y-132046971D01*
X133587215Y-132046968D01*
X133587219Y-132046966D01*
X133731966Y-131902219D01*
X133731968Y-131902215D01*
X133731971Y-131902213D01*
X133784732Y-131829590D01*
X133852287Y-131736610D01*
X133945220Y-131554219D01*
X134008477Y-131359534D01*
X134040500Y-131157352D01*
X134040500Y-130952648D01*
X134008477Y-130750466D01*
X133945220Y-130555781D01*
X133945218Y-130555778D01*
X133945218Y-130555776D01*
X133911503Y-130489607D01*
X133852287Y-130373390D01*
X133844556Y-130362749D01*
X133731971Y-130207786D01*
X133587213Y-130063028D01*
X133421614Y-129942715D01*
X133415006Y-129939348D01*
X133328917Y-129895483D01*
X133278123Y-129847511D01*
X133261328Y-129779690D01*
X133283865Y-129713555D01*
X133328917Y-129674516D01*
X133421610Y-129627287D01*
X133442770Y-129611913D01*
X133587213Y-129506971D01*
X133587215Y-129506968D01*
X133587219Y-129506966D01*
X133731966Y-129362219D01*
X133731968Y-129362215D01*
X133731971Y-129362213D01*
X133784732Y-129289590D01*
X133852287Y-129196610D01*
X133945220Y-129014219D01*
X134008477Y-128819534D01*
X134040500Y-128617352D01*
X134040500Y-128412648D01*
X134008477Y-128210466D01*
X133945220Y-128015781D01*
X133945218Y-128015778D01*
X133945218Y-128015776D01*
X133911503Y-127949607D01*
X133852287Y-127833390D01*
X133844556Y-127822749D01*
X133731971Y-127667786D01*
X133587213Y-127523028D01*
X133421613Y-127402715D01*
X133421612Y-127402714D01*
X133421610Y-127402713D01*
X133364653Y-127373691D01*
X133239223Y-127309781D01*
X133044534Y-127246522D01*
X132869995Y-127218878D01*
X132842352Y-127214500D01*
X132637648Y-127214500D01*
X132613329Y-127218351D01*
X132435465Y-127246522D01*
X132240776Y-127309781D01*
X132058386Y-127402715D01*
X131892786Y-127523028D01*
X131748028Y-127667786D01*
X131627715Y-127833386D01*
X131534781Y-128015776D01*
X131471522Y-128210465D01*
X131439500Y-128412648D01*
X131439500Y-128617351D01*
X131471522Y-128819534D01*
X131534781Y-129014223D01*
X131627715Y-129196613D01*
X131748028Y-129362213D01*
X131892786Y-129506971D01*
X132047749Y-129619556D01*
X132058390Y-129627287D01*
X132149840Y-129673883D01*
X132151080Y-129674515D01*
X132201876Y-129722490D01*
X132218671Y-129790311D01*
X132196134Y-129856446D01*
X132151080Y-129895485D01*
X132058386Y-129942715D01*
X131892786Y-130063028D01*
X131748028Y-130207786D01*
X131627715Y-130373386D01*
X131534781Y-130555776D01*
X131471522Y-130750465D01*
X131439500Y-130952648D01*
X131439500Y-131157351D01*
X131471522Y-131359534D01*
X131534781Y-131554223D01*
X131627715Y-131736613D01*
X131748028Y-131902213D01*
X131892786Y-132046971D01*
X132047749Y-132159556D01*
X132058390Y-132167287D01*
X132149840Y-132213883D01*
X132151080Y-132214515D01*
X132201876Y-132262490D01*
X132218671Y-132330311D01*
X132196134Y-132396446D01*
X132151080Y-132435485D01*
X132058386Y-132482715D01*
X131892786Y-132603028D01*
X131748028Y-132747786D01*
X131627715Y-132913386D01*
X131534781Y-133095776D01*
X131471522Y-133290465D01*
X131439500Y-133492648D01*
X131439500Y-133697351D01*
X131471522Y-133899534D01*
X131534781Y-134094223D01*
X131627715Y-134276613D01*
X131748028Y-134442213D01*
X131892786Y-134586971D01*
X132047749Y-134699556D01*
X132058390Y-134707287D01*
X132149840Y-134753883D01*
X132151080Y-134754515D01*
X132201876Y-134802490D01*
X132218671Y-134870311D01*
X132196134Y-134936446D01*
X132151080Y-134975485D01*
X132058386Y-135022715D01*
X131892786Y-135143028D01*
X131748028Y-135287786D01*
X131627713Y-135453388D01*
X131571630Y-135563456D01*
X131523656Y-135614251D01*
X131455834Y-135631046D01*
X131389700Y-135608508D01*
X131358044Y-135576051D01*
X131349628Y-135563456D01*
X131328751Y-135532212D01*
X131274464Y-135450964D01*
X131149038Y-135325538D01*
X131149034Y-135325535D01*
X131001553Y-135226990D01*
X131001540Y-135226983D01*
X130837667Y-135159106D01*
X130837658Y-135159103D01*
X130663694Y-135124500D01*
X130663691Y-135124500D01*
X130486309Y-135124500D01*
X130486306Y-135124500D01*
X130312341Y-135159103D01*
X130312332Y-135159106D01*
X130148459Y-135226983D01*
X130148446Y-135226990D01*
X130000965Y-135325535D01*
X130000961Y-135325538D01*
X129875538Y-135450961D01*
X129875535Y-135450965D01*
X129776990Y-135598446D01*
X129776983Y-135598459D01*
X129709106Y-135762332D01*
X129709103Y-135762341D01*
X129674500Y-135936304D01*
X106845240Y-135936304D01*
X106828477Y-135830466D01*
X106765220Y-135635781D01*
X106765218Y-135635778D01*
X106765218Y-135635776D01*
X106731503Y-135569607D01*
X106672287Y-135453390D01*
X106664556Y-135442749D01*
X106551971Y-135287786D01*
X106407213Y-135143028D01*
X106241614Y-135022715D01*
X106235006Y-135019348D01*
X106148917Y-134975483D01*
X106098123Y-134927511D01*
X106081328Y-134859690D01*
X106103865Y-134793555D01*
X106148917Y-134754516D01*
X106241610Y-134707287D01*
X106262770Y-134691913D01*
X106407213Y-134586971D01*
X106407215Y-134586968D01*
X106407219Y-134586966D01*
X106551966Y-134442219D01*
X106551968Y-134442215D01*
X106551971Y-134442213D01*
X106604732Y-134369590D01*
X106672287Y-134276610D01*
X106765220Y-134094219D01*
X106828477Y-133899534D01*
X106860500Y-133697352D01*
X106860500Y-133492648D01*
X106828477Y-133290466D01*
X106765220Y-133095781D01*
X106765218Y-133095778D01*
X106765218Y-133095776D01*
X106731503Y-133029607D01*
X106672287Y-132913390D01*
X106664556Y-132902749D01*
X106551971Y-132747786D01*
X106407213Y-132603028D01*
X106241614Y-132482715D01*
X106235006Y-132479348D01*
X106148917Y-132435483D01*
X106098123Y-132387511D01*
X106081328Y-132319690D01*
X106103865Y-132253555D01*
X106148917Y-132214516D01*
X106241610Y-132167287D01*
X106262770Y-132151913D01*
X106407213Y-132046971D01*
X106407215Y-132046968D01*
X106407219Y-132046966D01*
X106551966Y-131902219D01*
X106551968Y-131902215D01*
X106551971Y-131902213D01*
X106604732Y-131829590D01*
X106672287Y-131736610D01*
X106765220Y-131554219D01*
X106828477Y-131359534D01*
X106860500Y-131157352D01*
X106860500Y-130952648D01*
X106828477Y-130750466D01*
X106765220Y-130555781D01*
X106765218Y-130555778D01*
X106765218Y-130555776D01*
X106731503Y-130489607D01*
X106672287Y-130373390D01*
X106664556Y-130362749D01*
X106551971Y-130207786D01*
X106407213Y-130063028D01*
X106241614Y-129942715D01*
X106235006Y-129939348D01*
X106148917Y-129895483D01*
X106098123Y-129847511D01*
X106081328Y-129779690D01*
X106103865Y-129713555D01*
X106148917Y-129674516D01*
X106241610Y-129627287D01*
X106262770Y-129611913D01*
X106407213Y-129506971D01*
X106407215Y-129506968D01*
X106407219Y-129506966D01*
X106551966Y-129362219D01*
X106551968Y-129362215D01*
X106551971Y-129362213D01*
X106604732Y-129289590D01*
X106672287Y-129196610D01*
X106765220Y-129014219D01*
X106828477Y-128819534D01*
X106860500Y-128617352D01*
X106860500Y-128412648D01*
X106828477Y-128210466D01*
X106765220Y-128015781D01*
X106765218Y-128015778D01*
X106765218Y-128015776D01*
X106731503Y-127949607D01*
X106672287Y-127833390D01*
X106664556Y-127822749D01*
X106551971Y-127667786D01*
X106407213Y-127523028D01*
X106241614Y-127402715D01*
X106235006Y-127399348D01*
X106148917Y-127355483D01*
X106098123Y-127307511D01*
X106081328Y-127239690D01*
X106103865Y-127173555D01*
X106148917Y-127134516D01*
X106241610Y-127087287D01*
X106262770Y-127071913D01*
X106407213Y-126966971D01*
X106407215Y-126966968D01*
X106407219Y-126966966D01*
X106551966Y-126822219D01*
X106551968Y-126822215D01*
X106551971Y-126822213D01*
X106604732Y-126749590D01*
X106672287Y-126656610D01*
X106765220Y-126474219D01*
X106828477Y-126279534D01*
X106860500Y-126077352D01*
X106860500Y-125872648D01*
X135749500Y-125872648D01*
X135749500Y-126077351D01*
X135781522Y-126279534D01*
X135844781Y-126474223D01*
X135937715Y-126656613D01*
X136058028Y-126822213D01*
X136202786Y-126966971D01*
X136357749Y-127079556D01*
X136368390Y-127087287D01*
X136459840Y-127133883D01*
X136461080Y-127134515D01*
X136511876Y-127182490D01*
X136528671Y-127250311D01*
X136506134Y-127316446D01*
X136461080Y-127355485D01*
X136368386Y-127402715D01*
X136202786Y-127523028D01*
X136058028Y-127667786D01*
X135937715Y-127833386D01*
X135844781Y-128015776D01*
X135781522Y-128210465D01*
X135749500Y-128412648D01*
X135749500Y-128617351D01*
X135781522Y-128819534D01*
X135844781Y-129014223D01*
X135937715Y-129196613D01*
X136058028Y-129362213D01*
X136202786Y-129506971D01*
X136357749Y-129619556D01*
X136368390Y-129627287D01*
X136459840Y-129673883D01*
X136461080Y-129674515D01*
X136511876Y-129722490D01*
X136528671Y-129790311D01*
X136506134Y-129856446D01*
X136461080Y-129895485D01*
X136368386Y-129942715D01*
X136202786Y-130063028D01*
X136058028Y-130207786D01*
X135937715Y-130373386D01*
X135844781Y-130555776D01*
X135781522Y-130750465D01*
X135749500Y-130952648D01*
X135749500Y-131157351D01*
X135781522Y-131359534D01*
X135844781Y-131554223D01*
X135937715Y-131736613D01*
X136058028Y-131902213D01*
X136202786Y-132046971D01*
X136357749Y-132159556D01*
X136368390Y-132167287D01*
X136459840Y-132213883D01*
X136461080Y-132214515D01*
X136511876Y-132262490D01*
X136528671Y-132330311D01*
X136506134Y-132396446D01*
X136461080Y-132435485D01*
X136368386Y-132482715D01*
X136202786Y-132603028D01*
X136058028Y-132747786D01*
X135937715Y-132913386D01*
X135844781Y-133095776D01*
X135781522Y-133290465D01*
X135749500Y-133492648D01*
X135749500Y-133697351D01*
X135781522Y-133899534D01*
X135844781Y-134094223D01*
X135937715Y-134276613D01*
X136058028Y-134442213D01*
X136202786Y-134586971D01*
X136357749Y-134699556D01*
X136368390Y-134707287D01*
X136459840Y-134753883D01*
X136461080Y-134754515D01*
X136511876Y-134802490D01*
X136528671Y-134870311D01*
X136506134Y-134936446D01*
X136461080Y-134975485D01*
X136368386Y-135022715D01*
X136202786Y-135143028D01*
X136058028Y-135287786D01*
X135937715Y-135453386D01*
X135844781Y-135635776D01*
X135781522Y-135830465D01*
X135749500Y-136032648D01*
X135749500Y-136237351D01*
X135781522Y-136439534D01*
X135844781Y-136634223D01*
X135890762Y-136724464D01*
X135935010Y-136811306D01*
X135937715Y-136816613D01*
X136058028Y-136982213D01*
X136202786Y-137126971D01*
X136355137Y-137237658D01*
X136368390Y-137247287D01*
X136459840Y-137293883D01*
X136461080Y-137294515D01*
X136511876Y-137342490D01*
X136528671Y-137410311D01*
X136506134Y-137476446D01*
X136461080Y-137515485D01*
X136368386Y-137562715D01*
X136202786Y-137683028D01*
X136058028Y-137827786D01*
X135937715Y-137993386D01*
X135844781Y-138175776D01*
X135781522Y-138370465D01*
X135749500Y-138572648D01*
X135749500Y-138777351D01*
X135781522Y-138979534D01*
X135844781Y-139174223D01*
X135884382Y-139251943D01*
X135937585Y-139356359D01*
X135937715Y-139356613D01*
X136058028Y-139522213D01*
X136202786Y-139666971D01*
X136323226Y-139754474D01*
X136368390Y-139787287D01*
X136459840Y-139833883D01*
X136461080Y-139834515D01*
X136511876Y-139882490D01*
X136528671Y-139950311D01*
X136506134Y-140016446D01*
X136461080Y-140055485D01*
X136368386Y-140102715D01*
X136202786Y-140223028D01*
X136058028Y-140367786D01*
X135937715Y-140533386D01*
X135844781Y-140715776D01*
X135781522Y-140910465D01*
X135749500Y-141112648D01*
X135749500Y-141317351D01*
X135781522Y-141519534D01*
X135844781Y-141714223D01*
X135937715Y-141896613D01*
X136058028Y-142062213D01*
X136202786Y-142206971D01*
X136368385Y-142327284D01*
X136368387Y-142327285D01*
X136368390Y-142327287D01*
X136461080Y-142374515D01*
X136461630Y-142374795D01*
X136512426Y-142422770D01*
X136529221Y-142490591D01*
X136506684Y-142556725D01*
X136461630Y-142595765D01*
X136368644Y-142643143D01*
X136324077Y-142675523D01*
X136324077Y-142675524D01*
X136920591Y-143272037D01*
X136857007Y-143289075D01*
X136742993Y-143354901D01*
X136649901Y-143447993D01*
X136584075Y-143562007D01*
X136567037Y-143625590D01*
X135970524Y-143029077D01*
X135970523Y-143029077D01*
X135938143Y-143073644D01*
X135845244Y-143255968D01*
X135782009Y-143450582D01*
X135750000Y-143652682D01*
X135750000Y-143857317D01*
X135782009Y-144059417D01*
X135845244Y-144254031D01*
X135938141Y-144436350D01*
X135938147Y-144436359D01*
X135970523Y-144480921D01*
X135970524Y-144480922D01*
X136567037Y-143884409D01*
X136584075Y-143947993D01*
X136649901Y-144062007D01*
X136742993Y-144155099D01*
X136857007Y-144220925D01*
X136920590Y-144237962D01*
X136324076Y-144834474D01*
X136368650Y-144866859D01*
X136550968Y-144959755D01*
X136745582Y-145022990D01*
X136947683Y-145055000D01*
X137152317Y-145055000D01*
X137354417Y-145022990D01*
X137549031Y-144959755D01*
X137731349Y-144866859D01*
X137775921Y-144834474D01*
X137179409Y-144237962D01*
X137242993Y-144220925D01*
X137357007Y-144155099D01*
X137450099Y-144062007D01*
X137515925Y-143947993D01*
X137532962Y-143884409D01*
X138129474Y-144480921D01*
X138161859Y-144436349D01*
X138254755Y-144254031D01*
X138317990Y-144059417D01*
X138350000Y-143857317D01*
X138350000Y-143652682D01*
X138317990Y-143450582D01*
X138254755Y-143255968D01*
X138161859Y-143073650D01*
X138129474Y-143029077D01*
X138129474Y-143029076D01*
X137532962Y-143625589D01*
X137515925Y-143562007D01*
X137450099Y-143447993D01*
X137357007Y-143354901D01*
X137242993Y-143289075D01*
X137179408Y-143272037D01*
X137775922Y-142675524D01*
X137775921Y-142675523D01*
X137731359Y-142643147D01*
X137731350Y-142643141D01*
X137638369Y-142595765D01*
X137587573Y-142547790D01*
X137570778Y-142479969D01*
X137593315Y-142413835D01*
X137638370Y-142374795D01*
X137638920Y-142374515D01*
X137731610Y-142327287D01*
X137781144Y-142291298D01*
X137897213Y-142206971D01*
X137897215Y-142206968D01*
X137897219Y-142206966D01*
X138041966Y-142062219D01*
X138041968Y-142062215D01*
X138041971Y-142062213D01*
X138094732Y-141989590D01*
X138162287Y-141896610D01*
X138255220Y-141714219D01*
X138318477Y-141519534D01*
X138350500Y-141317352D01*
X138350500Y-141112648D01*
X138318477Y-140910466D01*
X138298196Y-140848049D01*
X138255218Y-140715776D01*
X138211509Y-140629993D01*
X138162287Y-140533390D01*
X138154556Y-140522749D01*
X138041971Y-140367786D01*
X137897213Y-140223028D01*
X137731614Y-140102715D01*
X137725006Y-140099348D01*
X137638917Y-140055483D01*
X137588123Y-140007511D01*
X137571328Y-139939690D01*
X137593865Y-139873555D01*
X137638917Y-139834516D01*
X137731610Y-139787287D01*
X137776774Y-139754474D01*
X137897213Y-139666971D01*
X137897215Y-139666968D01*
X137897219Y-139666966D01*
X138041966Y-139522219D01*
X138041968Y-139522215D01*
X138041971Y-139522213D01*
X138094732Y-139449590D01*
X138162287Y-139356610D01*
X138255220Y-139174219D01*
X138318477Y-138979534D01*
X138350500Y-138777352D01*
X138350500Y-138572648D01*
X138324309Y-138407288D01*
X138318477Y-138370465D01*
X138266038Y-138209075D01*
X138255220Y-138175781D01*
X138255218Y-138175778D01*
X138255218Y-138175776D01*
X138162419Y-137993650D01*
X138162287Y-137993390D01*
X138130092Y-137949077D01*
X138041971Y-137827786D01*
X137897213Y-137683028D01*
X137731614Y-137562715D01*
X137704763Y-137549034D01*
X137638917Y-137515483D01*
X137588123Y-137467511D01*
X137571328Y-137399690D01*
X137593865Y-137333555D01*
X137638917Y-137294516D01*
X137731610Y-137247287D01*
X137752770Y-137231913D01*
X137897213Y-137126971D01*
X137897215Y-137126968D01*
X137897219Y-137126966D01*
X138041966Y-136982219D01*
X138041968Y-136982215D01*
X138041971Y-136982213D01*
X138094732Y-136909590D01*
X138162287Y-136816610D01*
X138255220Y-136634219D01*
X138318477Y-136439534D01*
X138350500Y-136237352D01*
X138350500Y-136032648D01*
X138318477Y-135830466D01*
X138255220Y-135635781D01*
X138255218Y-135635778D01*
X138255218Y-135635776D01*
X138221503Y-135569607D01*
X138162287Y-135453390D01*
X138154556Y-135442749D01*
X138041971Y-135287786D01*
X137897213Y-135143028D01*
X137731614Y-135022715D01*
X137725006Y-135019348D01*
X137638917Y-134975483D01*
X137588123Y-134927511D01*
X137571328Y-134859690D01*
X137593865Y-134793555D01*
X137638917Y-134754516D01*
X137731610Y-134707287D01*
X137752770Y-134691913D01*
X137897213Y-134586971D01*
X137897215Y-134586968D01*
X137897219Y-134586966D01*
X138041966Y-134442219D01*
X138041968Y-134442215D01*
X138041971Y-134442213D01*
X138094732Y-134369590D01*
X138162287Y-134276610D01*
X138255220Y-134094219D01*
X138318477Y-133899534D01*
X138350500Y-133697352D01*
X138350500Y-133492648D01*
X138318477Y-133290466D01*
X138255220Y-133095781D01*
X138255218Y-133095778D01*
X138255218Y-133095776D01*
X138221503Y-133029607D01*
X138162287Y-132913390D01*
X138154556Y-132902749D01*
X138041971Y-132747786D01*
X137897213Y-132603028D01*
X137731614Y-132482715D01*
X137725006Y-132479348D01*
X137638917Y-132435483D01*
X137588123Y-132387511D01*
X137571328Y-132319690D01*
X137593865Y-132253555D01*
X137638917Y-132214516D01*
X137731610Y-132167287D01*
X137752770Y-132151913D01*
X137897213Y-132046971D01*
X137897215Y-132046968D01*
X137897219Y-132046966D01*
X138041966Y-131902219D01*
X138041968Y-131902215D01*
X138041971Y-131902213D01*
X138094732Y-131829590D01*
X138162287Y-131736610D01*
X138255220Y-131554219D01*
X138318477Y-131359534D01*
X138350500Y-131157352D01*
X138350500Y-130952648D01*
X138318477Y-130750466D01*
X138255220Y-130555781D01*
X138255218Y-130555778D01*
X138255218Y-130555776D01*
X138221503Y-130489607D01*
X138162287Y-130373390D01*
X138154556Y-130362749D01*
X138041971Y-130207786D01*
X137897213Y-130063028D01*
X137731614Y-129942715D01*
X137725006Y-129939348D01*
X137638917Y-129895483D01*
X137588123Y-129847511D01*
X137571328Y-129779690D01*
X137593865Y-129713555D01*
X137638917Y-129674516D01*
X137731610Y-129627287D01*
X137752770Y-129611913D01*
X137897213Y-129506971D01*
X137897215Y-129506968D01*
X137897219Y-129506966D01*
X138041966Y-129362219D01*
X138041968Y-129362215D01*
X138041971Y-129362213D01*
X138094732Y-129289590D01*
X138162287Y-129196610D01*
X138255220Y-129014219D01*
X138318477Y-128819534D01*
X138350500Y-128617352D01*
X138350500Y-128412648D01*
X138318477Y-128210466D01*
X138255220Y-128015781D01*
X138255218Y-128015778D01*
X138255218Y-128015776D01*
X138221503Y-127949607D01*
X138162287Y-127833390D01*
X138154556Y-127822749D01*
X138041971Y-127667786D01*
X137897213Y-127523028D01*
X137731614Y-127402715D01*
X137725006Y-127399348D01*
X137638917Y-127355483D01*
X137588123Y-127307511D01*
X137571328Y-127239690D01*
X137593865Y-127173555D01*
X137638917Y-127134516D01*
X137731610Y-127087287D01*
X137752770Y-127071913D01*
X137897213Y-126966971D01*
X137897215Y-126966968D01*
X137897219Y-126966966D01*
X138041966Y-126822219D01*
X138041968Y-126822215D01*
X138041971Y-126822213D01*
X138094732Y-126749590D01*
X138162287Y-126656610D01*
X138255220Y-126474219D01*
X138318477Y-126279534D01*
X138350500Y-126077352D01*
X138350500Y-125872648D01*
X138318477Y-125670466D01*
X138255220Y-125475781D01*
X138255218Y-125475778D01*
X138255218Y-125475776D01*
X138221503Y-125409607D01*
X138162287Y-125293390D01*
X138154556Y-125282749D01*
X138041971Y-125127786D01*
X137897213Y-124983028D01*
X137731613Y-124862715D01*
X137731612Y-124862714D01*
X137731610Y-124862713D01*
X137674653Y-124833691D01*
X137549223Y-124769781D01*
X137354534Y-124706522D01*
X137179995Y-124678878D01*
X137152352Y-124674500D01*
X136947648Y-124674500D01*
X136923329Y-124678351D01*
X136745465Y-124706522D01*
X136550776Y-124769781D01*
X136368386Y-124862715D01*
X136202786Y-124983028D01*
X136058028Y-125127786D01*
X135937715Y-125293386D01*
X135844781Y-125475776D01*
X135781522Y-125670465D01*
X135749500Y-125872648D01*
X106860500Y-125872648D01*
X106828477Y-125670466D01*
X106765220Y-125475781D01*
X106765218Y-125475778D01*
X106765218Y-125475776D01*
X106731503Y-125409607D01*
X106672287Y-125293390D01*
X106664556Y-125282749D01*
X106551971Y-125127786D01*
X106407213Y-124983028D01*
X106241613Y-124862715D01*
X106241612Y-124862714D01*
X106241610Y-124862713D01*
X106184653Y-124833691D01*
X106059223Y-124769781D01*
X105864534Y-124706522D01*
X105689995Y-124678878D01*
X105662352Y-124674500D01*
X105457648Y-124674500D01*
X105433329Y-124678351D01*
X105255465Y-124706522D01*
X105060776Y-124769781D01*
X104878386Y-124862715D01*
X104712786Y-124983028D01*
X104568028Y-125127786D01*
X104447715Y-125293386D01*
X104354781Y-125475776D01*
X104291522Y-125670465D01*
X104259500Y-125872648D01*
X96561557Y-125872648D01*
X95176896Y-110966841D01*
X95176461Y-110950520D01*
X95181424Y-110824223D01*
X97374500Y-110824223D01*
X97374500Y-111125776D01*
X97374501Y-111125793D01*
X97413861Y-111424766D01*
X97491913Y-111716060D01*
X97607314Y-111994661D01*
X97607318Y-111994671D01*
X97758099Y-112255831D01*
X97941679Y-112495078D01*
X97941685Y-112495085D01*
X98154914Y-112708314D01*
X98154921Y-112708320D01*
X98394168Y-112891900D01*
X98655328Y-113042681D01*
X98655329Y-113042681D01*
X98655332Y-113042683D01*
X98841072Y-113119619D01*
X98933939Y-113158086D01*
X98933940Y-113158086D01*
X98933942Y-113158087D01*
X99225232Y-113236138D01*
X99524217Y-113275500D01*
X99524224Y-113275500D01*
X99825776Y-113275500D01*
X99825783Y-113275500D01*
X100124768Y-113236138D01*
X100416058Y-113158087D01*
X100694668Y-113042683D01*
X100955832Y-112891900D01*
X101195080Y-112708319D01*
X101195085Y-112708314D01*
X101292096Y-112611304D01*
X108399500Y-112611304D01*
X108399500Y-112788695D01*
X108434103Y-112962658D01*
X108434106Y-112962667D01*
X108501983Y-113126540D01*
X108501990Y-113126553D01*
X108600535Y-113274034D01*
X108600538Y-113274038D01*
X108725961Y-113399461D01*
X108725965Y-113399464D01*
X108873446Y-113498009D01*
X108873459Y-113498016D01*
X108996363Y-113548923D01*
X109037334Y-113565894D01*
X109037336Y-113565894D01*
X109037341Y-113565896D01*
X109211304Y-113600499D01*
X109211307Y-113600500D01*
X109211309Y-113600500D01*
X109388693Y-113600500D01*
X109388694Y-113600499D01*
X109446682Y-113588964D01*
X109562658Y-113565896D01*
X109562661Y-113565894D01*
X109562666Y-113565894D01*
X109726547Y-113498013D01*
X109874035Y-113399464D01*
X109999464Y-113274035D01*
X110098013Y-113126547D01*
X110165894Y-112962666D01*
X110200500Y-112788691D01*
X110200500Y-112611309D01*
X110200500Y-112611306D01*
X110200499Y-112611304D01*
X110165896Y-112437341D01*
X110165893Y-112437332D01*
X110098016Y-112273459D01*
X110098009Y-112273446D01*
X109999464Y-112125965D01*
X109999461Y-112125961D01*
X109874038Y-112000538D01*
X109874034Y-112000535D01*
X109726553Y-111901990D01*
X109726540Y-111901983D01*
X109562667Y-111834106D01*
X109562658Y-111834103D01*
X109388694Y-111799500D01*
X109388691Y-111799500D01*
X109211309Y-111799500D01*
X109211306Y-111799500D01*
X109037341Y-111834103D01*
X109037332Y-111834106D01*
X108873459Y-111901983D01*
X108873446Y-111901990D01*
X108725965Y-112000535D01*
X108725961Y-112000538D01*
X108600538Y-112125961D01*
X108600535Y-112125965D01*
X108501990Y-112273446D01*
X108501983Y-112273459D01*
X108434106Y-112437332D01*
X108434103Y-112437341D01*
X108399500Y-112611304D01*
X101292096Y-112611304D01*
X101385864Y-112517536D01*
X101408314Y-112495085D01*
X101408319Y-112495080D01*
X101591900Y-112255832D01*
X101742683Y-111994668D01*
X101858087Y-111716058D01*
X101936138Y-111424768D01*
X101975500Y-111125783D01*
X101975500Y-110824217D01*
X101936138Y-110525232D01*
X101858087Y-110233942D01*
X101742683Y-109955332D01*
X101727626Y-109929253D01*
X101591900Y-109694168D01*
X101408320Y-109454921D01*
X101408314Y-109454914D01*
X101264704Y-109311304D01*
X109349500Y-109311304D01*
X109349500Y-109488695D01*
X109384103Y-109662658D01*
X109384106Y-109662667D01*
X109451983Y-109826540D01*
X109451990Y-109826553D01*
X109550535Y-109974034D01*
X109550538Y-109974038D01*
X109675961Y-110099461D01*
X109675965Y-110099464D01*
X109823446Y-110198009D01*
X109823459Y-110198016D01*
X109910187Y-110233939D01*
X109987334Y-110265894D01*
X109987336Y-110265894D01*
X109987341Y-110265896D01*
X110161304Y-110300499D01*
X110161307Y-110300500D01*
X110161309Y-110300500D01*
X110338692Y-110300500D01*
X110359544Y-110296351D01*
X110445861Y-110279182D01*
X110515451Y-110285409D01*
X110570629Y-110328271D01*
X110593874Y-110394161D01*
X110591669Y-110424990D01*
X110574500Y-110511304D01*
X110574500Y-110688695D01*
X110609103Y-110862658D01*
X110609106Y-110862667D01*
X110676983Y-111026540D01*
X110676990Y-111026553D01*
X110775535Y-111174034D01*
X110775538Y-111174038D01*
X110900961Y-111299461D01*
X110900965Y-111299464D01*
X111048446Y-111398009D01*
X111048459Y-111398016D01*
X111171363Y-111448923D01*
X111212334Y-111465894D01*
X111212336Y-111465894D01*
X111212341Y-111465896D01*
X111386304Y-111500499D01*
X111386307Y-111500500D01*
X111386309Y-111500500D01*
X111563693Y-111500500D01*
X111563694Y-111500499D01*
X111621682Y-111488964D01*
X111737658Y-111465896D01*
X111737661Y-111465894D01*
X111737666Y-111465894D01*
X111901547Y-111398013D01*
X112049035Y-111299464D01*
X112174464Y-111174035D01*
X112273013Y-111026547D01*
X112340894Y-110862666D01*
X112348541Y-110824223D01*
X140374500Y-110824223D01*
X140374500Y-111125776D01*
X140374501Y-111125793D01*
X140413861Y-111424766D01*
X140491913Y-111716060D01*
X140607314Y-111994661D01*
X140607318Y-111994671D01*
X140758099Y-112255831D01*
X140941679Y-112495078D01*
X140941685Y-112495085D01*
X141154914Y-112708314D01*
X141154921Y-112708320D01*
X141394168Y-112891900D01*
X141655328Y-113042681D01*
X141655329Y-113042681D01*
X141655332Y-113042683D01*
X141841072Y-113119619D01*
X141933939Y-113158086D01*
X141933940Y-113158086D01*
X141933942Y-113158087D01*
X142225232Y-113236138D01*
X142524217Y-113275500D01*
X142524224Y-113275500D01*
X142825776Y-113275500D01*
X142825783Y-113275500D01*
X143124768Y-113236138D01*
X143416058Y-113158087D01*
X143694668Y-113042683D01*
X143955832Y-112891900D01*
X144195080Y-112708319D01*
X144408319Y-112495080D01*
X144591900Y-112255832D01*
X144742683Y-111994668D01*
X144858087Y-111716058D01*
X144936138Y-111424768D01*
X144975500Y-111125783D01*
X144975500Y-110824217D01*
X144936138Y-110525232D01*
X144858087Y-110233942D01*
X144742683Y-109955332D01*
X144727626Y-109929253D01*
X144591900Y-109694168D01*
X144408320Y-109454921D01*
X144408314Y-109454914D01*
X144195085Y-109241685D01*
X144195078Y-109241679D01*
X143955831Y-109058099D01*
X143694671Y-108907318D01*
X143694661Y-108907314D01*
X143416060Y-108791913D01*
X143124766Y-108713861D01*
X142825793Y-108674501D01*
X142825788Y-108674500D01*
X142825783Y-108674500D01*
X142524217Y-108674500D01*
X142524211Y-108674500D01*
X142524206Y-108674501D01*
X142225233Y-108713861D01*
X141933939Y-108791913D01*
X141655338Y-108907314D01*
X141655328Y-108907318D01*
X141394168Y-109058099D01*
X141154921Y-109241679D01*
X141154914Y-109241685D01*
X140941685Y-109454914D01*
X140941679Y-109454921D01*
X140758099Y-109694168D01*
X140607318Y-109955328D01*
X140607314Y-109955338D01*
X140491913Y-110233939D01*
X140413861Y-110525233D01*
X140374501Y-110824206D01*
X140374500Y-110824223D01*
X112348541Y-110824223D01*
X112375500Y-110688691D01*
X112375500Y-110511309D01*
X112375500Y-110511306D01*
X112375499Y-110511304D01*
X112340896Y-110337341D01*
X112340893Y-110337332D01*
X112337895Y-110330095D01*
X112311303Y-110265894D01*
X112273016Y-110173459D01*
X112273009Y-110173446D01*
X112174464Y-110025965D01*
X112174461Y-110025961D01*
X112049038Y-109900538D01*
X112049034Y-109900535D01*
X111901553Y-109801990D01*
X111901540Y-109801983D01*
X111737667Y-109734106D01*
X111737658Y-109734103D01*
X111563694Y-109699500D01*
X111563691Y-109699500D01*
X111386309Y-109699500D01*
X111386306Y-109699500D01*
X111279138Y-109720817D01*
X111209547Y-109714590D01*
X111154369Y-109671727D01*
X111131125Y-109605837D01*
X111133330Y-109575008D01*
X111150500Y-109488693D01*
X111150500Y-109311306D01*
X111150499Y-109311304D01*
X111115896Y-109137341D01*
X111115893Y-109137332D01*
X111048016Y-108973459D01*
X111048009Y-108973446D01*
X110949464Y-108825965D01*
X110949461Y-108825961D01*
X110824038Y-108700538D01*
X110824034Y-108700535D01*
X110676553Y-108601990D01*
X110676540Y-108601983D01*
X110512667Y-108534106D01*
X110512658Y-108534103D01*
X110338694Y-108499500D01*
X110338691Y-108499500D01*
X110161309Y-108499500D01*
X110161306Y-108499500D01*
X109987341Y-108534103D01*
X109987332Y-108534106D01*
X109823459Y-108601983D01*
X109823446Y-108601990D01*
X109675965Y-108700535D01*
X109675961Y-108700538D01*
X109550538Y-108825961D01*
X109550535Y-108825965D01*
X109451990Y-108973446D01*
X109451983Y-108973459D01*
X109384106Y-109137332D01*
X109384103Y-109137341D01*
X109349500Y-109311304D01*
X101264704Y-109311304D01*
X101195085Y-109241685D01*
X101195078Y-109241679D01*
X100955831Y-109058099D01*
X100694671Y-108907318D01*
X100694661Y-108907314D01*
X100416060Y-108791913D01*
X100124766Y-108713861D01*
X99825793Y-108674501D01*
X99825788Y-108674500D01*
X99825783Y-108674500D01*
X99524217Y-108674500D01*
X99524211Y-108674500D01*
X99524206Y-108674501D01*
X99225233Y-108713861D01*
X98933939Y-108791913D01*
X98655338Y-108907314D01*
X98655328Y-108907318D01*
X98394168Y-109058099D01*
X98154921Y-109241679D01*
X98154914Y-109241685D01*
X97941685Y-109454914D01*
X97941679Y-109454921D01*
X97758099Y-109694168D01*
X97607318Y-109955328D01*
X97607314Y-109955338D01*
X97491913Y-110233939D01*
X97413861Y-110525233D01*
X97374501Y-110824206D01*
X97374500Y-110824223D01*
X95181424Y-110824223D01*
X95189183Y-110626782D01*
X95189944Y-110617107D01*
X95230339Y-110275858D01*
X95231857Y-110266277D01*
X95298905Y-109929246D01*
X95301178Y-109919784D01*
X95394458Y-109589082D01*
X95397456Y-109579854D01*
X95516407Y-109257470D01*
X95520133Y-109248478D01*
X95571375Y-109137341D01*
X95664008Y-108936432D01*
X95668409Y-108927796D01*
X95836350Y-108627963D01*
X95841408Y-108619712D01*
X96011034Y-108365889D01*
X96026286Y-108347271D01*
X96028874Y-108344674D01*
X96062121Y-108311304D01*
X112774500Y-108311304D01*
X112774500Y-108488695D01*
X112809103Y-108662658D01*
X112809106Y-108662667D01*
X112876983Y-108826540D01*
X112876990Y-108826553D01*
X112975535Y-108974034D01*
X112975538Y-108974038D01*
X113100961Y-109099461D01*
X113100965Y-109099464D01*
X113248446Y-109198009D01*
X113248459Y-109198016D01*
X113370288Y-109248478D01*
X113412334Y-109265894D01*
X113412336Y-109265894D01*
X113412341Y-109265896D01*
X113586304Y-109300499D01*
X113586307Y-109300500D01*
X113586309Y-109300500D01*
X113763693Y-109300500D01*
X113763694Y-109300499D01*
X113821682Y-109288964D01*
X113937658Y-109265896D01*
X113937661Y-109265894D01*
X113937666Y-109265894D01*
X114101547Y-109198013D01*
X114249035Y-109099464D01*
X114374464Y-108974035D01*
X114473013Y-108826547D01*
X114540894Y-108662666D01*
X114547208Y-108630927D01*
X114575499Y-108488695D01*
X114575500Y-108488693D01*
X114575500Y-108311306D01*
X114575499Y-108311304D01*
X114540896Y-108137341D01*
X114540893Y-108137332D01*
X114473016Y-107973459D01*
X114473009Y-107973446D01*
X114374464Y-107825965D01*
X114374461Y-107825961D01*
X114249038Y-107700538D01*
X114249034Y-107700535D01*
X114101553Y-107601990D01*
X114101540Y-107601983D01*
X113937667Y-107534106D01*
X113937658Y-107534103D01*
X113763694Y-107499500D01*
X113763691Y-107499500D01*
X113586309Y-107499500D01*
X113586306Y-107499500D01*
X113412341Y-107534103D01*
X113412332Y-107534106D01*
X113248459Y-107601983D01*
X113248446Y-107601990D01*
X113100965Y-107700535D01*
X113100961Y-107700538D01*
X112975538Y-107825961D01*
X112975535Y-107825965D01*
X112876990Y-107973446D01*
X112876983Y-107973459D01*
X112809106Y-108137332D01*
X112809103Y-108137341D01*
X112774500Y-108311304D01*
X96062121Y-108311304D01*
X98054742Y-106311304D01*
X111274500Y-106311304D01*
X111274500Y-106488695D01*
X111309103Y-106662658D01*
X111309106Y-106662667D01*
X111376983Y-106826540D01*
X111376990Y-106826553D01*
X111475535Y-106974034D01*
X111475538Y-106974038D01*
X111600961Y-107099461D01*
X111600965Y-107099464D01*
X111748446Y-107198009D01*
X111748459Y-107198016D01*
X111871363Y-107248923D01*
X111912334Y-107265894D01*
X111912336Y-107265894D01*
X111912341Y-107265896D01*
X112086304Y-107300499D01*
X112086307Y-107300500D01*
X112086309Y-107300500D01*
X112263693Y-107300500D01*
X112263694Y-107300499D01*
X112321682Y-107288964D01*
X112437658Y-107265896D01*
X112437661Y-107265894D01*
X112437666Y-107265894D01*
X112601547Y-107198013D01*
X112749035Y-107099464D01*
X112874464Y-106974035D01*
X112973013Y-106826547D01*
X113040894Y-106662666D01*
X113075500Y-106488691D01*
X113075500Y-106311309D01*
X113075500Y-106311306D01*
X113075499Y-106311304D01*
X113040896Y-106137341D01*
X113040893Y-106137332D01*
X112973016Y-105973459D01*
X112973009Y-105973446D01*
X112874464Y-105825965D01*
X112874461Y-105825961D01*
X112749038Y-105700538D01*
X112749034Y-105700535D01*
X112601553Y-105601990D01*
X112601540Y-105601983D01*
X112437667Y-105534106D01*
X112437658Y-105534103D01*
X112263694Y-105499500D01*
X112263691Y-105499500D01*
X112086309Y-105499500D01*
X112086306Y-105499500D01*
X111912341Y-105534103D01*
X111912332Y-105534106D01*
X111748459Y-105601983D01*
X111748446Y-105601990D01*
X111600965Y-105700535D01*
X111600961Y-105700538D01*
X111475538Y-105825961D01*
X111475535Y-105825965D01*
X111376990Y-105973446D01*
X111376983Y-105973459D01*
X111309106Y-106137332D01*
X111309103Y-106137341D01*
X111274500Y-106311304D01*
X98054742Y-106311304D01*
X108939435Y-95386304D01*
X123724500Y-95386304D01*
X123724500Y-95563695D01*
X123759103Y-95737658D01*
X123759106Y-95737667D01*
X123826983Y-95901540D01*
X123826990Y-95901553D01*
X123925535Y-96049034D01*
X123925538Y-96049038D01*
X124050961Y-96174461D01*
X124050965Y-96174464D01*
X124198446Y-96273009D01*
X124198459Y-96273016D01*
X124321363Y-96323923D01*
X124362334Y-96340894D01*
X124362336Y-96340894D01*
X124362341Y-96340896D01*
X124536304Y-96375499D01*
X124536307Y-96375500D01*
X124536309Y-96375500D01*
X124713693Y-96375500D01*
X124713694Y-96375499D01*
X124771682Y-96363964D01*
X124887658Y-96340896D01*
X124887661Y-96340894D01*
X124887666Y-96340894D01*
X125051547Y-96273013D01*
X125199035Y-96174464D01*
X125324464Y-96049035D01*
X125423013Y-95901547D01*
X125490894Y-95737666D01*
X125525500Y-95563691D01*
X125525500Y-95386309D01*
X125525500Y-95386306D01*
X125525499Y-95386304D01*
X125490896Y-95212341D01*
X125490893Y-95212332D01*
X125423016Y-95048459D01*
X125423009Y-95048446D01*
X125324464Y-94900965D01*
X125324461Y-94900961D01*
X125199038Y-94775538D01*
X125199034Y-94775535D01*
X125051553Y-94676990D01*
X125051540Y-94676983D01*
X124887667Y-94609106D01*
X124887658Y-94609103D01*
X124713694Y-94574500D01*
X124713691Y-94574500D01*
X124536309Y-94574500D01*
X124536306Y-94574500D01*
X124362341Y-94609103D01*
X124362332Y-94609106D01*
X124198459Y-94676983D01*
X124198446Y-94676990D01*
X124050965Y-94775535D01*
X124050961Y-94775538D01*
X123925538Y-94900961D01*
X123925535Y-94900965D01*
X123826990Y-95048446D01*
X123826983Y-95048459D01*
X123759106Y-95212332D01*
X123759103Y-95212341D01*
X123724500Y-95386304D01*
X108939435Y-95386304D01*
X111305673Y-93011304D01*
X123674500Y-93011304D01*
X123674500Y-93188695D01*
X123709103Y-93362658D01*
X123709106Y-93362667D01*
X123776983Y-93526540D01*
X123776990Y-93526553D01*
X123875535Y-93674034D01*
X123875538Y-93674038D01*
X124000961Y-93799461D01*
X124000965Y-93799464D01*
X124148446Y-93898009D01*
X124148459Y-93898016D01*
X124271363Y-93948923D01*
X124312334Y-93965894D01*
X124312336Y-93965894D01*
X124312341Y-93965896D01*
X124486304Y-94000499D01*
X124486307Y-94000500D01*
X124486309Y-94000500D01*
X124663693Y-94000500D01*
X124663694Y-94000499D01*
X124721682Y-93988964D01*
X124837658Y-93965896D01*
X124837661Y-93965894D01*
X124837666Y-93965894D01*
X125001547Y-93898013D01*
X125149035Y-93799464D01*
X125274464Y-93674035D01*
X125373013Y-93526547D01*
X125440894Y-93362666D01*
X125475500Y-93188691D01*
X125475500Y-93011309D01*
X125475500Y-93011306D01*
X125475499Y-93011304D01*
X125440896Y-92837341D01*
X125440893Y-92837332D01*
X125373016Y-92673459D01*
X125373009Y-92673446D01*
X125274464Y-92525965D01*
X125274461Y-92525961D01*
X125149038Y-92400538D01*
X125149034Y-92400535D01*
X125001553Y-92301990D01*
X125001540Y-92301983D01*
X124837667Y-92234106D01*
X124837658Y-92234103D01*
X124663694Y-92199500D01*
X124663691Y-92199500D01*
X124486309Y-92199500D01*
X124486306Y-92199500D01*
X124312341Y-92234103D01*
X124312332Y-92234106D01*
X124148459Y-92301983D01*
X124148446Y-92301990D01*
X124000965Y-92400535D01*
X124000961Y-92400538D01*
X123875538Y-92525961D01*
X123875535Y-92525965D01*
X123776990Y-92673446D01*
X123776983Y-92673459D01*
X123709106Y-92837332D01*
X123709103Y-92837341D01*
X123674500Y-93011304D01*
X111305673Y-93011304D01*
X116473617Y-87824223D01*
X120374500Y-87824223D01*
X120374500Y-88125776D01*
X120374501Y-88125793D01*
X120413861Y-88424766D01*
X120491913Y-88716060D01*
X120607314Y-88994661D01*
X120607318Y-88994671D01*
X120758099Y-89255831D01*
X120941679Y-89495078D01*
X120941685Y-89495085D01*
X121154914Y-89708314D01*
X121154921Y-89708320D01*
X121394168Y-89891900D01*
X121655328Y-90042681D01*
X121655329Y-90042681D01*
X121655332Y-90042683D01*
X121841072Y-90119619D01*
X121933939Y-90158086D01*
X121933940Y-90158086D01*
X121933942Y-90158087D01*
X122225232Y-90236138D01*
X122524217Y-90275500D01*
X122524224Y-90275500D01*
X122825776Y-90275500D01*
X122825783Y-90275500D01*
X123124768Y-90236138D01*
X123416058Y-90158087D01*
X123694668Y-90042683D01*
X123955832Y-89891900D01*
X124195080Y-89708319D01*
X124408319Y-89495080D01*
X124591900Y-89255832D01*
X124742683Y-88994668D01*
X124858087Y-88716058D01*
X124936138Y-88424768D01*
X124975500Y-88125783D01*
X124975500Y-87824217D01*
X124936138Y-87525232D01*
X124858087Y-87233942D01*
X124742683Y-86955332D01*
X124591900Y-86694168D01*
X124408319Y-86454920D01*
X124408314Y-86454914D01*
X124195085Y-86241685D01*
X124195078Y-86241679D01*
X123955831Y-86058099D01*
X123694671Y-85907318D01*
X123694661Y-85907314D01*
X123416060Y-85791913D01*
X123124766Y-85713861D01*
X122825793Y-85674501D01*
X122825788Y-85674500D01*
X122825783Y-85674500D01*
X122524217Y-85674500D01*
X122524211Y-85674500D01*
X122524206Y-85674501D01*
X122225233Y-85713861D01*
X121933939Y-85791913D01*
X121655338Y-85907314D01*
X121655328Y-85907318D01*
X121394168Y-86058099D01*
X121154921Y-86241679D01*
X121154914Y-86241685D01*
X120941685Y-86454914D01*
X120941679Y-86454921D01*
X120758099Y-86694168D01*
X120607318Y-86955328D01*
X120607314Y-86955338D01*
X120491913Y-87233939D01*
X120413861Y-87525233D01*
X120374501Y-87824206D01*
X120374500Y-87824223D01*
X116473617Y-87824223D01*
X119491356Y-84795309D01*
X119495442Y-84791392D01*
X119780644Y-84530199D01*
X119788960Y-84523230D01*
X120093917Y-84289630D01*
X120102828Y-84283406D01*
X120297251Y-84159922D01*
X120427101Y-84077449D01*
X120436508Y-84072039D01*
X120777616Y-83895308D01*
X120787452Y-83890748D01*
X121142734Y-83744621D01*
X121152953Y-83740933D01*
X121519686Y-83626529D01*
X121530171Y-83623758D01*
X121905516Y-83541960D01*
X121916216Y-83540116D01*
X122297277Y-83491556D01*
X122308121Y-83490656D01*
X122692038Y-83475703D01*
X122702876Y-83475755D01*
G37*
%TD.AperFunction*%
%TD*%
M02*
