%TF.GenerationSoftware,KiCad,Pcbnew,9.0.3*%
%TF.CreationDate,2026-04-11T21:09:00-04:00*%
%TF.ProjectId,ComputerVisionModule_Rev1,436f6d70-7574-4657-9256-6973696f6e4d,rev?*%
%TF.SameCoordinates,Original*%
%TF.FileFunction,Legend,Bot*%
%TF.FilePolarity,Positive*%
%FSLAX46Y46*%
G04 Gerber Fmt 4.6, Leading zero omitted, Abs format (unit mm)*
G04 Created by KiCad (PCBNEW 9.0.3) date 2026-04-11 21:09:00*
%MOMM*%
%LPD*%
G01*
G04 APERTURE LIST*
%ADD10C,0.152400*%
%ADD11C,0.120000*%
%ADD12C,0.127000*%
%ADD13C,0.200000*%
G04 APERTURE END LIST*
D10*
X142900000Y-121075000D02*
X99800000Y-121050000D01*
X138056213Y-120542603D02*
X138056213Y-119729803D01*
X138056213Y-119729803D02*
X137785279Y-120310375D01*
X137785279Y-120310375D02*
X137514346Y-119729803D01*
X137514346Y-119729803D02*
X137514346Y-120542603D01*
X136778956Y-120542603D02*
X136778956Y-120116851D01*
X136778956Y-120116851D02*
X136817661Y-120039441D01*
X136817661Y-120039441D02*
X136895070Y-120000737D01*
X136895070Y-120000737D02*
X137049889Y-120000737D01*
X137049889Y-120000737D02*
X137127299Y-120039441D01*
X136778956Y-120503899D02*
X136856365Y-120542603D01*
X136856365Y-120542603D02*
X137049889Y-120542603D01*
X137049889Y-120542603D02*
X137127299Y-120503899D01*
X137127299Y-120503899D02*
X137166003Y-120426489D01*
X137166003Y-120426489D02*
X137166003Y-120349079D01*
X137166003Y-120349079D02*
X137127299Y-120271670D01*
X137127299Y-120271670D02*
X137049889Y-120232965D01*
X137049889Y-120232965D02*
X136856365Y-120232965D01*
X136856365Y-120232965D02*
X136778956Y-120194260D01*
X136391909Y-120542603D02*
X136391909Y-120000737D01*
X136391909Y-119729803D02*
X136430613Y-119768508D01*
X136430613Y-119768508D02*
X136391909Y-119807213D01*
X136391909Y-119807213D02*
X136353204Y-119768508D01*
X136353204Y-119768508D02*
X136391909Y-119729803D01*
X136391909Y-119729803D02*
X136391909Y-119807213D01*
X136004861Y-120000737D02*
X136004861Y-120542603D01*
X136004861Y-120078146D02*
X135966156Y-120039441D01*
X135966156Y-120039441D02*
X135888746Y-120000737D01*
X135888746Y-120000737D02*
X135772632Y-120000737D01*
X135772632Y-120000737D02*
X135695223Y-120039441D01*
X135695223Y-120039441D02*
X135656518Y-120116851D01*
X135656518Y-120116851D02*
X135656518Y-120542603D01*
X134766309Y-119729803D02*
X134301852Y-119729803D01*
X134534080Y-120542603D02*
X134534080Y-119729803D01*
X133914804Y-120542603D02*
X133992214Y-120503899D01*
X133992214Y-120503899D02*
X134030919Y-120465194D01*
X134030919Y-120465194D02*
X134069623Y-120387784D01*
X134069623Y-120387784D02*
X134069623Y-120155556D01*
X134069623Y-120155556D02*
X134030919Y-120078146D01*
X134030919Y-120078146D02*
X133992214Y-120039441D01*
X133992214Y-120039441D02*
X133914804Y-120000737D01*
X133914804Y-120000737D02*
X133798690Y-120000737D01*
X133798690Y-120000737D02*
X133721281Y-120039441D01*
X133721281Y-120039441D02*
X133682576Y-120078146D01*
X133682576Y-120078146D02*
X133643871Y-120155556D01*
X133643871Y-120155556D02*
X133643871Y-120387784D01*
X133643871Y-120387784D02*
X133682576Y-120465194D01*
X133682576Y-120465194D02*
X133721281Y-120503899D01*
X133721281Y-120503899D02*
X133798690Y-120542603D01*
X133798690Y-120542603D02*
X133914804Y-120542603D01*
X133411643Y-120000737D02*
X133102005Y-120000737D01*
X133295529Y-119729803D02*
X133295529Y-120426489D01*
X133295529Y-120426489D02*
X133256824Y-120503899D01*
X133256824Y-120503899D02*
X133179414Y-120542603D01*
X133179414Y-120542603D02*
X133102005Y-120542603D01*
X132521434Y-120503899D02*
X132598843Y-120542603D01*
X132598843Y-120542603D02*
X132753662Y-120542603D01*
X132753662Y-120542603D02*
X132831072Y-120503899D01*
X132831072Y-120503899D02*
X132869776Y-120426489D01*
X132869776Y-120426489D02*
X132869776Y-120116851D01*
X132869776Y-120116851D02*
X132831072Y-120039441D01*
X132831072Y-120039441D02*
X132753662Y-120000737D01*
X132753662Y-120000737D02*
X132598843Y-120000737D01*
X132598843Y-120000737D02*
X132521434Y-120039441D01*
X132521434Y-120039441D02*
X132482729Y-120116851D01*
X132482729Y-120116851D02*
X132482729Y-120194260D01*
X132482729Y-120194260D02*
X132869776Y-120271670D01*
X132134386Y-120542603D02*
X132134386Y-120000737D01*
X132134386Y-120078146D02*
X132095681Y-120039441D01*
X132095681Y-120039441D02*
X132018271Y-120000737D01*
X132018271Y-120000737D02*
X131902157Y-120000737D01*
X131902157Y-120000737D02*
X131824748Y-120039441D01*
X131824748Y-120039441D02*
X131786043Y-120116851D01*
X131786043Y-120116851D02*
X131786043Y-120542603D01*
X131786043Y-120116851D02*
X131747338Y-120039441D01*
X131747338Y-120039441D02*
X131669929Y-120000737D01*
X131669929Y-120000737D02*
X131553814Y-120000737D01*
X131553814Y-120000737D02*
X131476405Y-120039441D01*
X131476405Y-120039441D02*
X131437700Y-120116851D01*
X131437700Y-120116851D02*
X131437700Y-120542603D01*
X130044329Y-120542603D02*
X130431377Y-120542603D01*
X130431377Y-120542603D02*
X130431377Y-119729803D01*
X129773396Y-120542603D02*
X129773396Y-120000737D01*
X129773396Y-119729803D02*
X129812100Y-119768508D01*
X129812100Y-119768508D02*
X129773396Y-119807213D01*
X129773396Y-119807213D02*
X129734691Y-119768508D01*
X129734691Y-119768508D02*
X129773396Y-119729803D01*
X129773396Y-119729803D02*
X129773396Y-119807213D01*
X129502462Y-120000737D02*
X129192824Y-120000737D01*
X129386348Y-119729803D02*
X129386348Y-120426489D01*
X129386348Y-120426489D02*
X129347643Y-120503899D01*
X129347643Y-120503899D02*
X129270233Y-120542603D01*
X129270233Y-120542603D02*
X129192824Y-120542603D01*
X128612253Y-120503899D02*
X128689662Y-120542603D01*
X128689662Y-120542603D02*
X128844481Y-120542603D01*
X128844481Y-120542603D02*
X128921891Y-120503899D01*
X128921891Y-120503899D02*
X128960595Y-120426489D01*
X128960595Y-120426489D02*
X128960595Y-120116851D01*
X128960595Y-120116851D02*
X128921891Y-120039441D01*
X128921891Y-120039441D02*
X128844481Y-120000737D01*
X128844481Y-120000737D02*
X128689662Y-120000737D01*
X128689662Y-120000737D02*
X128612253Y-120039441D01*
X128612253Y-120039441D02*
X128573548Y-120116851D01*
X128573548Y-120116851D02*
X128573548Y-120194260D01*
X128573548Y-120194260D02*
X128960595Y-120271670D01*
X127605929Y-120542603D02*
X127605929Y-119729803D01*
X127605929Y-119729803D02*
X127296291Y-119729803D01*
X127296291Y-119729803D02*
X127218881Y-119768508D01*
X127218881Y-119768508D02*
X127180176Y-119807213D01*
X127180176Y-119807213D02*
X127141472Y-119884622D01*
X127141472Y-119884622D02*
X127141472Y-120000737D01*
X127141472Y-120000737D02*
X127180176Y-120078146D01*
X127180176Y-120078146D02*
X127218881Y-120116851D01*
X127218881Y-120116851D02*
X127296291Y-120155556D01*
X127296291Y-120155556D02*
X127605929Y-120155556D01*
X126328672Y-120465194D02*
X126367376Y-120503899D01*
X126367376Y-120503899D02*
X126483491Y-120542603D01*
X126483491Y-120542603D02*
X126560900Y-120542603D01*
X126560900Y-120542603D02*
X126677014Y-120503899D01*
X126677014Y-120503899D02*
X126754424Y-120426489D01*
X126754424Y-120426489D02*
X126793129Y-120349079D01*
X126793129Y-120349079D02*
X126831833Y-120194260D01*
X126831833Y-120194260D02*
X126831833Y-120078146D01*
X126831833Y-120078146D02*
X126793129Y-119923327D01*
X126793129Y-119923327D02*
X126754424Y-119845918D01*
X126754424Y-119845918D02*
X126677014Y-119768508D01*
X126677014Y-119768508D02*
X126560900Y-119729803D01*
X126560900Y-119729803D02*
X126483491Y-119729803D01*
X126483491Y-119729803D02*
X126367376Y-119768508D01*
X126367376Y-119768508D02*
X126328672Y-119807213D01*
X125709395Y-120116851D02*
X125593281Y-120155556D01*
X125593281Y-120155556D02*
X125554576Y-120194260D01*
X125554576Y-120194260D02*
X125515872Y-120271670D01*
X125515872Y-120271670D02*
X125515872Y-120387784D01*
X125515872Y-120387784D02*
X125554576Y-120465194D01*
X125554576Y-120465194D02*
X125593281Y-120503899D01*
X125593281Y-120503899D02*
X125670691Y-120542603D01*
X125670691Y-120542603D02*
X125980329Y-120542603D01*
X125980329Y-120542603D02*
X125980329Y-119729803D01*
X125980329Y-119729803D02*
X125709395Y-119729803D01*
X125709395Y-119729803D02*
X125631986Y-119768508D01*
X125631986Y-119768508D02*
X125593281Y-119807213D01*
X125593281Y-119807213D02*
X125554576Y-119884622D01*
X125554576Y-119884622D02*
X125554576Y-119962032D01*
X125554576Y-119962032D02*
X125593281Y-120039441D01*
X125593281Y-120039441D02*
X125631986Y-120078146D01*
X125631986Y-120078146D02*
X125709395Y-120116851D01*
X125709395Y-120116851D02*
X125980329Y-120116851D01*
X124548253Y-120116851D02*
X124277319Y-120116851D01*
X124161205Y-120542603D02*
X124548253Y-120542603D01*
X124548253Y-120542603D02*
X124548253Y-119729803D01*
X124548253Y-119729803D02*
X124161205Y-119729803D01*
X123464520Y-120542603D02*
X123464520Y-119729803D01*
X123464520Y-120503899D02*
X123541929Y-120542603D01*
X123541929Y-120542603D02*
X123696748Y-120542603D01*
X123696748Y-120542603D02*
X123774158Y-120503899D01*
X123774158Y-120503899D02*
X123812863Y-120465194D01*
X123812863Y-120465194D02*
X123851567Y-120387784D01*
X123851567Y-120387784D02*
X123851567Y-120155556D01*
X123851567Y-120155556D02*
X123812863Y-120078146D01*
X123812863Y-120078146D02*
X123774158Y-120039441D01*
X123774158Y-120039441D02*
X123696748Y-120000737D01*
X123696748Y-120000737D02*
X123541929Y-120000737D01*
X123541929Y-120000737D02*
X123464520Y-120039441D01*
X122729130Y-120000737D02*
X122729130Y-120658718D01*
X122729130Y-120658718D02*
X122767835Y-120736127D01*
X122767835Y-120736127D02*
X122806539Y-120774832D01*
X122806539Y-120774832D02*
X122883949Y-120813537D01*
X122883949Y-120813537D02*
X123000063Y-120813537D01*
X123000063Y-120813537D02*
X123077473Y-120774832D01*
X122729130Y-120503899D02*
X122806539Y-120542603D01*
X122806539Y-120542603D02*
X122961358Y-120542603D01*
X122961358Y-120542603D02*
X123038768Y-120503899D01*
X123038768Y-120503899D02*
X123077473Y-120465194D01*
X123077473Y-120465194D02*
X123116177Y-120387784D01*
X123116177Y-120387784D02*
X123116177Y-120155556D01*
X123116177Y-120155556D02*
X123077473Y-120078146D01*
X123077473Y-120078146D02*
X123038768Y-120039441D01*
X123038768Y-120039441D02*
X122961358Y-120000737D01*
X122961358Y-120000737D02*
X122806539Y-120000737D01*
X122806539Y-120000737D02*
X122729130Y-120039441D01*
X122032445Y-120503899D02*
X122109854Y-120542603D01*
X122109854Y-120542603D02*
X122264673Y-120542603D01*
X122264673Y-120542603D02*
X122342083Y-120503899D01*
X122342083Y-120503899D02*
X122380787Y-120426489D01*
X122380787Y-120426489D02*
X122380787Y-120116851D01*
X122380787Y-120116851D02*
X122342083Y-120039441D01*
X122342083Y-120039441D02*
X122264673Y-120000737D01*
X122264673Y-120000737D02*
X122109854Y-120000737D01*
X122109854Y-120000737D02*
X122032445Y-120039441D01*
X122032445Y-120039441D02*
X121993740Y-120116851D01*
X121993740Y-120116851D02*
X121993740Y-120194260D01*
X121993740Y-120194260D02*
X122380787Y-120271670D01*
D11*
%TO.C,J2*%
X113360000Y-134729999D02*
X113360001Y-144770000D01*
X113360001Y-144770000D02*
X120800000Y-144770000D01*
X121400000Y-144770000D02*
X123760000Y-144770000D01*
X123760000Y-134730000D02*
X113360000Y-134729999D01*
X123760000Y-137749999D02*
X113360000Y-137750000D01*
X123760000Y-142650001D02*
X113360000Y-142650000D01*
X123760000Y-144150000D02*
X113360000Y-144150000D01*
X123760000Y-144770000D02*
X123760000Y-134730000D01*
X121540000Y-145380000D02*
X120660000Y-145380000D01*
X121100000Y-144770000D01*
X121540000Y-145380000D01*
G36*
X121540000Y-145380000D02*
G01*
X120660000Y-145380000D01*
X121100000Y-144770000D01*
X121540000Y-145380000D01*
G37*
D12*
%TO.C,J1*%
X108887295Y-106682037D02*
X107579148Y-107990184D01*
X114310805Y-114721841D02*
X115618952Y-113413694D01*
D13*
X110638390Y-106360303D02*
G75*
G02*
X110438390Y-106360303I-100000J0D01*
G01*
X110438390Y-106360303D02*
G75*
G02*
X110638390Y-106360303I100000J0D01*
G01*
D11*
%TO.C,R2*%
X116840000Y-123597936D02*
X116840000Y-124052064D01*
X118310000Y-123597936D02*
X118310000Y-124052064D01*
%TO.C,R3*%
X115202064Y-126740000D02*
X114747936Y-126740000D01*
X115202064Y-128210000D02*
X114747936Y-128210000D01*
%TO.C,R1*%
X122035000Y-94427064D02*
X122035000Y-93972936D01*
X123505000Y-94427064D02*
X123505000Y-93972936D01*
D10*
%TO.C,U2*%
X117424000Y-132158300D02*
X117424000Y-130507300D01*
X118437460Y-132158300D02*
X117424000Y-132158300D01*
X118760040Y-130507300D02*
X119389960Y-130507300D01*
X120726000Y-130507300D02*
X120726000Y-132158300D01*
X120726000Y-132158300D02*
X119712540Y-132158300D01*
X118198700Y-128691200D02*
G75*
G02*
X118046300Y-128691200I-76200J0D01*
G01*
X118046300Y-128691200D02*
G75*
G02*
X118198700Y-128691200I76200J0D01*
G01*
%TD*%
M02*
