%TF.GenerationSoftware,KiCad,Pcbnew,9.0.3*%
%TF.CreationDate,2026-04-11T21:09:00-04:00*%
%TF.ProjectId,ComputerVisionModule_Rev1,436f6d70-7574-4657-9256-6973696f6e4d,rev?*%
%TF.SameCoordinates,Original*%
%TF.FileFunction,Copper,L3,Inr*%
%TF.FilePolarity,Positive*%
%FSLAX46Y46*%
G04 Gerber Fmt 4.6, Leading zero omitted, Abs format (unit mm)*
G04 Created by KiCad (PCBNEW 9.0.3) date 2026-04-11 21:09:00*
%MOMM*%
%LPD*%
G01*
G04 APERTURE LIST*
G04 Aperture macros list*
%AMRoundRect*
0 Rectangle with rounded corners*
0 $1 Rounding radius*
0 $2 $3 $4 $5 $6 $7 $8 $9 X,Y pos of 4 corners*
0 Add a 4 corners polygon primitive as box body*
4,1,4,$2,$3,$4,$5,$6,$7,$8,$9,$2,$3,0*
0 Add four circle primitives for the rounded corners*
1,1,$1+$1,$2,$3*
1,1,$1+$1,$4,$5*
1,1,$1+$1,$6,$7*
1,1,$1+$1,$8,$9*
0 Add four rect primitives between the rounded corners*
20,1,$1+$1,$2,$3,$4,$5,0*
20,1,$1+$1,$4,$5,$6,$7,0*
20,1,$1+$1,$6,$7,$8,$9,0*
20,1,$1+$1,$8,$9,$2,$3,0*%
G04 Aperture macros list end*
%TA.AperFunction,ComponentPad*%
%ADD10C,3.600000*%
%TD*%
%TA.AperFunction,ComponentPad*%
%ADD11C,1.600000*%
%TD*%
%TA.AperFunction,ComponentPad*%
%ADD12RoundRect,0.250000X1.050000X1.050000X-1.050000X1.050000X-1.050000X-1.050000X1.050000X-1.050000X0*%
%TD*%
%TA.AperFunction,ComponentPad*%
%ADD13C,2.600000*%
%TD*%
%TA.AperFunction,ViaPad*%
%ADD14C,0.800000*%
%TD*%
%TA.AperFunction,Conductor*%
%ADD15C,0.750000*%
%TD*%
%TA.AperFunction,Conductor*%
%ADD16C,0.762000*%
%TD*%
%TA.AperFunction,Conductor*%
%ADD17C,0.450000*%
%TD*%
G04 APERTURE END LIST*
D10*
%TO.N,N/C*%
%TO.C,H1*%
X99675000Y-110975000D03*
%TD*%
D11*
%TO.N,+3V3*%
%TO.C,U1*%
X105560000Y-143755000D03*
%TO.N,Net-(U1-TX)*%
X105560000Y-136135000D03*
%TO.N,GND*%
X137050000Y-143755000D03*
%TO.N,Net-(U1-RX)*%
X105560000Y-138675000D03*
%TO.N,GND*%
X132740000Y-138675000D03*
%TO.N,Net-(U1-RST)*%
X137050000Y-125975000D03*
%TO.N,+3V3*%
X132740000Y-136135000D03*
%TO.N,unconnected-(U1-F1-Pad8)*%
X105560000Y-125975000D03*
%TO.N,unconnected-(U1-F2-Pad9)*%
X105560000Y-128515000D03*
%TO.N,unconnected-(U1-F3-Pad10)*%
X105560000Y-131055000D03*
%TO.N,unconnected-(U1-F4-Pad11)*%
X105560000Y-133595000D03*
%TO.N,unconnected-(U1-F5-Pad12)*%
X105560000Y-141215000D03*
%TO.N,unconnected-(U1-F6-Pad13)*%
X132740000Y-128515000D03*
%TO.N,unconnected-(U1-F7-Pad14)*%
X132740000Y-131055000D03*
%TO.N,unconnected-(U1-F8-Pad15)*%
X132740000Y-133595000D03*
%TO.N,unconnected-(U1-F9-Pad16)*%
X137050000Y-128515000D03*
%TO.N,unconnected-(U1-F10-Pad17)*%
X137050000Y-131055000D03*
%TO.N,unconnected-(U1-F11-Pad18)*%
X137050000Y-133595000D03*
%TO.N,unconnected-(U1-F12-Pad19)*%
X137050000Y-136135000D03*
%TO.N,unconnected-(U1-F13-Pad20)*%
X137050000Y-138675000D03*
%TO.N,unconnected-(U1-F14-Pad21)*%
X137050000Y-141215000D03*
%TD*%
D10*
%TO.N,N/C*%
%TO.C,H3*%
X142675000Y-110975000D03*
%TD*%
%TO.N,N/C*%
%TO.C,H2*%
X122675000Y-87975000D03*
%TD*%
D12*
%TO.N,+3V3*%
%TO.C,J2*%
X121100000Y-140050000D03*
D13*
%TO.N,Net-(J2-Pin_2)*%
X116020001Y-140050000D03*
%TD*%
D14*
%TO.N,GND*%
X108645200Y-105679800D03*
X107300000Y-110750000D03*
X114550000Y-115700000D03*
X114500000Y-129275000D03*
X121600000Y-97550000D03*
X113750000Y-106700000D03*
X115375000Y-110150000D03*
X128875000Y-97600000D03*
X114575000Y-109200000D03*
X111625000Y-114975000D03*
X108592891Y-111992891D03*
X110200000Y-113550000D03*
X106325000Y-109750000D03*
X121925000Y-128150000D03*
X116700000Y-113700000D03*
%TO.N,+3V3*%
X120750000Y-136975000D03*
X111475000Y-110600000D03*
X121400000Y-136900000D03*
X124625000Y-95475000D03*
X130575000Y-136025000D03*
X109300000Y-112700000D03*
X113675000Y-108400000D03*
X107675000Y-143350000D03*
%TO.N,Net-(U1-TX)*%
X110250000Y-109400000D03*
%TO.N,Net-(U1-RX)*%
X112175000Y-106400000D03*
%TO.N,Net-(U1-RST)*%
X124575000Y-93100000D03*
%TD*%
D15*
%TO.N,+3V3*%
X121100000Y-140050000D02*
X121100000Y-137325000D01*
D16*
X107270000Y-143755000D02*
X107675000Y-143350000D01*
X132740000Y-136135000D02*
X130685000Y-136135000D01*
X105560000Y-143755000D02*
X107270000Y-143755000D01*
D15*
X121100000Y-137325000D02*
X120750000Y-136975000D01*
D16*
X130685000Y-136135000D02*
X130575000Y-136025000D01*
D17*
%TO.N,Net-(U1-TX)*%
X111026000Y-111319141D02*
X110250000Y-110543141D01*
X110799000Y-114119141D02*
X111026000Y-113892141D01*
X105560000Y-136135000D02*
X110799000Y-130896000D01*
X110250000Y-110543141D02*
X110250000Y-109400000D01*
X111026000Y-113892141D02*
X111026000Y-111319141D01*
X110799000Y-130896000D02*
X110799000Y-114119141D01*
%TO.N,Net-(U1-RX)*%
X112550000Y-106775000D02*
X112175000Y-106400000D01*
X105560000Y-138675000D02*
X112550000Y-131685000D01*
X112550000Y-109525000D02*
X112550000Y-106775000D01*
X112550000Y-131685000D02*
X112550000Y-109525000D01*
%TD*%
%TA.AperFunction,Conductor*%
%TO.N,+3V3*%
G36*
X122702876Y-83475755D02*
G01*
X123085179Y-83494407D01*
X123095953Y-83495406D01*
X123475136Y-83547389D01*
X123485782Y-83549326D01*
X123858949Y-83634238D01*
X123869400Y-83637101D01*
X124233730Y-83754299D01*
X124243895Y-83758068D01*
X124596577Y-83906647D01*
X124606369Y-83911286D01*
X124644968Y-83931687D01*
X124944720Y-84090117D01*
X124954078Y-84095599D01*
X125275509Y-84303311D01*
X125284352Y-84309590D01*
X125586400Y-84544592D01*
X125594660Y-84551620D01*
X125867326Y-84804969D01*
X125876518Y-84814472D01*
X137020613Y-97638693D01*
X146323983Y-108344674D01*
X146333620Y-108357317D01*
X146512988Y-108626883D01*
X146518044Y-108635167D01*
X146684867Y-108934223D01*
X146689259Y-108942877D01*
X146832178Y-109254049D01*
X146835880Y-109263019D01*
X146954028Y-109584416D01*
X146957018Y-109593649D01*
X147049672Y-109923315D01*
X147051930Y-109932753D01*
X147118520Y-110268648D01*
X147120033Y-110278234D01*
X147160149Y-110618303D01*
X147160908Y-110627978D01*
X147173515Y-110949898D01*
X147173054Y-110966480D01*
X143951638Y-144867284D01*
X143909480Y-145310938D01*
X143903272Y-145334108D01*
X143903272Y-145376268D01*
X143902716Y-145382120D01*
X143902716Y-145382122D01*
X143899283Y-145418246D01*
X143899283Y-145418249D01*
X143899640Y-145420367D01*
X143901246Y-145446383D01*
X143885230Y-145813227D01*
X143884287Y-145824003D01*
X143831007Y-146228704D01*
X143829129Y-146239358D01*
X143740774Y-146637897D01*
X143737974Y-146648345D01*
X143615227Y-147037651D01*
X143611527Y-147047817D01*
X143455313Y-147424951D01*
X143450741Y-147434755D01*
X143262258Y-147796828D01*
X143256850Y-147806196D01*
X143037516Y-148150481D01*
X143031311Y-148159342D01*
X142782813Y-148483191D01*
X142775859Y-148491478D01*
X142500083Y-148792434D01*
X142492434Y-148800083D01*
X142191478Y-149075859D01*
X142183191Y-149082813D01*
X141859342Y-149331311D01*
X141850481Y-149337516D01*
X141506196Y-149556850D01*
X141496828Y-149562258D01*
X141134755Y-149750741D01*
X141124951Y-149755313D01*
X140747817Y-149911527D01*
X140737651Y-149915227D01*
X140348345Y-150037974D01*
X140337897Y-150040774D01*
X139939358Y-150129129D01*
X139928704Y-150131007D01*
X139524003Y-150184287D01*
X139513227Y-150185230D01*
X139102708Y-150203153D01*
X139097286Y-150203271D01*
X103398257Y-150199507D01*
X103398256Y-150199507D01*
X103383717Y-150199505D01*
X103376699Y-150197836D01*
X103317956Y-150199498D01*
X103316182Y-150199498D01*
X103316181Y-150199497D01*
X103297009Y-150199496D01*
X103295313Y-150199484D01*
X102912102Y-150194201D01*
X102901684Y-150193619D01*
X102509997Y-150155129D01*
X102499667Y-150153672D01*
X102112636Y-150082399D01*
X102102464Y-150080080D01*
X101722782Y-149976521D01*
X101712840Y-149973354D01*
X101343192Y-149838237D01*
X101333553Y-149834247D01*
X100976588Y-149668543D01*
X100967318Y-149663756D01*
X100625537Y-149468627D01*
X100616702Y-149463077D01*
X100292546Y-149239914D01*
X100284209Y-149233642D01*
X99979949Y-148984010D01*
X99972169Y-148977059D01*
X99689970Y-148702734D01*
X99682817Y-148695170D01*
X99424662Y-148398075D01*
X99418169Y-148389934D01*
X99185918Y-148072210D01*
X99180121Y-148063536D01*
X98975406Y-147727421D01*
X98970358Y-147718290D01*
X98794617Y-147366146D01*
X98790355Y-147356623D01*
X98644835Y-146990942D01*
X98641398Y-146981122D01*
X98527131Y-146604495D01*
X98524527Y-146594398D01*
X98442333Y-146209530D01*
X98440585Y-146199245D01*
X98392278Y-145818633D01*
X98391031Y-145808811D01*
X98390155Y-145798423D01*
X98383151Y-145632094D01*
X98375364Y-145447148D01*
X98375298Y-145445241D01*
X98374975Y-145433077D01*
X98377327Y-145419315D01*
X98373529Y-145378432D01*
X98373421Y-145374343D01*
X98373513Y-145373992D01*
X98373378Y-145371061D01*
X98373378Y-145334111D01*
X98373378Y-145334108D01*
X98370026Y-145321600D01*
X98366334Y-145300979D01*
X98334679Y-144960218D01*
X96561557Y-125872648D01*
X104259500Y-125872648D01*
X104259500Y-126077351D01*
X104291522Y-126279534D01*
X104354781Y-126474223D01*
X104447715Y-126656613D01*
X104568028Y-126822213D01*
X104712786Y-126966971D01*
X104867749Y-127079556D01*
X104878390Y-127087287D01*
X104969840Y-127133883D01*
X104971080Y-127134515D01*
X105021876Y-127182490D01*
X105038671Y-127250311D01*
X105016134Y-127316446D01*
X104971080Y-127355485D01*
X104878386Y-127402715D01*
X104712786Y-127523028D01*
X104568028Y-127667786D01*
X104447715Y-127833386D01*
X104354781Y-128015776D01*
X104291522Y-128210465D01*
X104259500Y-128412648D01*
X104259500Y-128617351D01*
X104291522Y-128819534D01*
X104354781Y-129014223D01*
X104418691Y-129139653D01*
X104442464Y-129186309D01*
X104447715Y-129196613D01*
X104568028Y-129362213D01*
X104712786Y-129506971D01*
X104867749Y-129619556D01*
X104878390Y-129627287D01*
X104969840Y-129673883D01*
X104971080Y-129674515D01*
X105021876Y-129722490D01*
X105038671Y-129790311D01*
X105016134Y-129856446D01*
X104971080Y-129895485D01*
X104878386Y-129942715D01*
X104712786Y-130063028D01*
X104568028Y-130207786D01*
X104447715Y-130373386D01*
X104354781Y-130555776D01*
X104291522Y-130750465D01*
X104259500Y-130952648D01*
X104259500Y-131157351D01*
X104291522Y-131359534D01*
X104354781Y-131554223D01*
X104447715Y-131736613D01*
X104568028Y-131902213D01*
X104712786Y-132046971D01*
X104851132Y-132147483D01*
X104878390Y-132167287D01*
X104969840Y-132213883D01*
X104971080Y-132214515D01*
X105021876Y-132262490D01*
X105038671Y-132330311D01*
X105016134Y-132396446D01*
X104971080Y-132435485D01*
X104878386Y-132482715D01*
X104712786Y-132603028D01*
X104568028Y-132747786D01*
X104447715Y-132913386D01*
X104354781Y-133095776D01*
X104291522Y-133290465D01*
X104259500Y-133492648D01*
X104259500Y-133697351D01*
X104291522Y-133899534D01*
X104354781Y-134094223D01*
X104447715Y-134276613D01*
X104568028Y-134442213D01*
X104712786Y-134586971D01*
X104867749Y-134699556D01*
X104878390Y-134707287D01*
X104969840Y-134753883D01*
X104971080Y-134754515D01*
X105021876Y-134802490D01*
X105038671Y-134870311D01*
X105016134Y-134936446D01*
X104971080Y-134975485D01*
X104878386Y-135022715D01*
X104712786Y-135143028D01*
X104568028Y-135287786D01*
X104447715Y-135453386D01*
X104354781Y-135635776D01*
X104291522Y-135830465D01*
X104259500Y-136032648D01*
X104259500Y-136237351D01*
X104291522Y-136439534D01*
X104354781Y-136634223D01*
X104418691Y-136759653D01*
X104447585Y-136816359D01*
X104447715Y-136816613D01*
X104568028Y-136982213D01*
X104712786Y-137126971D01*
X104833226Y-137214474D01*
X104878390Y-137247287D01*
X104969840Y-137293883D01*
X104971080Y-137294515D01*
X105021876Y-137342490D01*
X105038671Y-137410311D01*
X105016134Y-137476446D01*
X104971080Y-137515485D01*
X104878386Y-137562715D01*
X104712786Y-137683028D01*
X104568028Y-137827786D01*
X104447715Y-137993386D01*
X104354781Y-138175776D01*
X104291522Y-138370465D01*
X104259500Y-138572648D01*
X104259500Y-138777351D01*
X104291522Y-138979534D01*
X104354781Y-139174223D01*
X104447715Y-139356613D01*
X104568028Y-139522213D01*
X104712786Y-139666971D01*
X104867749Y-139779556D01*
X104878390Y-139787287D01*
X104969840Y-139833883D01*
X104971080Y-139834515D01*
X105021876Y-139882490D01*
X105038671Y-139950311D01*
X105016134Y-140016446D01*
X104971080Y-140055485D01*
X104878386Y-140102715D01*
X104712786Y-140223028D01*
X104568028Y-140367786D01*
X104447715Y-140533386D01*
X104354781Y-140715776D01*
X104291522Y-140910465D01*
X104259500Y-141112648D01*
X104259500Y-141317351D01*
X104291522Y-141519534D01*
X104354781Y-141714223D01*
X104408522Y-141819693D01*
X104423963Y-141849999D01*
X104447715Y-141896613D01*
X104568028Y-142062213D01*
X104712786Y-142206971D01*
X104878385Y-142327284D01*
X104878387Y-142327285D01*
X104878390Y-142327287D01*
X104971080Y-142374515D01*
X104971630Y-142374795D01*
X105022426Y-142422770D01*
X105039221Y-142490591D01*
X105016684Y-142556725D01*
X104971630Y-142595765D01*
X104878644Y-142643143D01*
X104834077Y-142675523D01*
X104834077Y-142675524D01*
X105430591Y-143272037D01*
X105367007Y-143289075D01*
X105252993Y-143354901D01*
X105159901Y-143447993D01*
X105094075Y-143562007D01*
X105077037Y-143625590D01*
X104480524Y-143029077D01*
X104480523Y-143029077D01*
X104448143Y-143073644D01*
X104355244Y-143255968D01*
X104292009Y-143450582D01*
X104260000Y-143652682D01*
X104260000Y-143857317D01*
X104292009Y-144059417D01*
X104355244Y-144254031D01*
X104448141Y-144436350D01*
X104448147Y-144436359D01*
X104480523Y-144480921D01*
X104480524Y-144480922D01*
X105077037Y-143884409D01*
X105094075Y-143947993D01*
X105159901Y-144062007D01*
X105252993Y-144155099D01*
X105367007Y-144220925D01*
X105430590Y-144237962D01*
X104834076Y-144834474D01*
X104878650Y-144866859D01*
X105060968Y-144959755D01*
X105255582Y-145022990D01*
X105457683Y-145055000D01*
X105662317Y-145055000D01*
X105864417Y-145022990D01*
X106059031Y-144959755D01*
X106241349Y-144866859D01*
X106285921Y-144834474D01*
X105689409Y-144237962D01*
X105752993Y-144220925D01*
X105867007Y-144155099D01*
X105960099Y-144062007D01*
X106025925Y-143947993D01*
X106042962Y-143884409D01*
X106639474Y-144480921D01*
X106671859Y-144436349D01*
X106764755Y-144254031D01*
X106827990Y-144059417D01*
X106860000Y-143857317D01*
X106860000Y-143652682D01*
X106827990Y-143450582D01*
X106764755Y-143255968D01*
X106671859Y-143073650D01*
X106639474Y-143029077D01*
X106639474Y-143029076D01*
X106042962Y-143625589D01*
X106025925Y-143562007D01*
X105960099Y-143447993D01*
X105867007Y-143354901D01*
X105752993Y-143289075D01*
X105689408Y-143272037D01*
X106285922Y-142675524D01*
X106285921Y-142675523D01*
X106241359Y-142643147D01*
X106241350Y-142643141D01*
X106148369Y-142595765D01*
X106097573Y-142547790D01*
X106080778Y-142479969D01*
X106103315Y-142413835D01*
X106148370Y-142374795D01*
X106148920Y-142374515D01*
X106241610Y-142327287D01*
X106291144Y-142291298D01*
X106407213Y-142206971D01*
X106407215Y-142206968D01*
X106407219Y-142206966D01*
X106551966Y-142062219D01*
X106551968Y-142062215D01*
X106551971Y-142062213D01*
X106604732Y-141989590D01*
X106672287Y-141896610D01*
X106765220Y-141714219D01*
X106828477Y-141519534D01*
X106860500Y-141317352D01*
X106860500Y-141112648D01*
X106828477Y-140910466D01*
X106808196Y-140848049D01*
X106765218Y-140715776D01*
X106719485Y-140626022D01*
X106672287Y-140533390D01*
X106622128Y-140464351D01*
X106551971Y-140367786D01*
X106407213Y-140223028D01*
X106241614Y-140102715D01*
X106235006Y-140099348D01*
X106148917Y-140055483D01*
X106139764Y-140046838D01*
X106128099Y-140042104D01*
X106114847Y-140023306D01*
X106098123Y-140007511D01*
X106095096Y-139995288D01*
X106087842Y-139984998D01*
X106086856Y-139962017D01*
X106081328Y-139939690D01*
X106083950Y-139931995D01*
X114219501Y-139931995D01*
X114219501Y-140168004D01*
X114219502Y-140168020D01*
X114250307Y-140402010D01*
X114311395Y-140629993D01*
X114401715Y-140848045D01*
X114401720Y-140848056D01*
X114437753Y-140910466D01*
X114519728Y-141052450D01*
X114519730Y-141052453D01*
X114519731Y-141052454D01*
X114663407Y-141239697D01*
X114663413Y-141239704D01*
X114830296Y-141406587D01*
X114830303Y-141406593D01*
X114846634Y-141419124D01*
X115017551Y-141550273D01*
X115148919Y-141626118D01*
X115221944Y-141668280D01*
X115221949Y-141668282D01*
X115221952Y-141668284D01*
X115440008Y-141758606D01*
X115667987Y-141819693D01*
X115901990Y-141850500D01*
X115901997Y-141850500D01*
X116138005Y-141850500D01*
X116138012Y-141850500D01*
X116372015Y-141819693D01*
X116599994Y-141758606D01*
X116818050Y-141668284D01*
X117022451Y-141550273D01*
X117209700Y-141406592D01*
X117376593Y-141239699D01*
X117520274Y-141052450D01*
X117638285Y-140848049D01*
X117728607Y-140629993D01*
X117789694Y-140402014D01*
X117820501Y-140168011D01*
X117820501Y-139931989D01*
X117789694Y-139697986D01*
X117728607Y-139470007D01*
X117638285Y-139251951D01*
X117638283Y-139251948D01*
X117638281Y-139251943D01*
X117582511Y-139155348D01*
X117520274Y-139047550D01*
X117445443Y-138950028D01*
X117445431Y-138950013D01*
X119300000Y-138950013D01*
X119300000Y-139800000D01*
X120499999Y-139800000D01*
X120474979Y-139860402D01*
X120450000Y-139985981D01*
X120450000Y-140114019D01*
X120474979Y-140239598D01*
X120499999Y-140300000D01*
X119300001Y-140300000D01*
X119300001Y-141149986D01*
X119310494Y-141252697D01*
X119365641Y-141419119D01*
X119365643Y-141419124D01*
X119457684Y-141568345D01*
X119581654Y-141692315D01*
X119730875Y-141784356D01*
X119730880Y-141784358D01*
X119897302Y-141839505D01*
X119897309Y-141839506D01*
X120000019Y-141849999D01*
X120849999Y-141849999D01*
X120850000Y-141849998D01*
X120850000Y-140650001D01*
X120910402Y-140675021D01*
X121035981Y-140700000D01*
X121164019Y-140700000D01*
X121289598Y-140675021D01*
X121350000Y-140650001D01*
X121350000Y-141849999D01*
X122199972Y-141849999D01*
X122199986Y-141849998D01*
X122302697Y-141839505D01*
X122469119Y-141784358D01*
X122469124Y-141784356D01*
X122618345Y-141692315D01*
X122742315Y-141568345D01*
X122834356Y-141419124D01*
X122834358Y-141419119D01*
X122889505Y-141252697D01*
X122889506Y-141252690D01*
X122899999Y-141149986D01*
X122900000Y-141149973D01*
X122900000Y-140300000D01*
X121700001Y-140300000D01*
X121725021Y-140239598D01*
X121750000Y-140114019D01*
X121750000Y-139985981D01*
X121725021Y-139860402D01*
X121700001Y-139800000D01*
X122899999Y-139800000D01*
X122899999Y-138950028D01*
X122899998Y-138950013D01*
X122889505Y-138847302D01*
X122834358Y-138680880D01*
X122834354Y-138680871D01*
X122804749Y-138632874D01*
X122804748Y-138632873D01*
X122742315Y-138531654D01*
X122618345Y-138407684D01*
X122469124Y-138315643D01*
X122469119Y-138315641D01*
X122302697Y-138260494D01*
X122302690Y-138260493D01*
X122199986Y-138250000D01*
X121350000Y-138250000D01*
X121350000Y-139449998D01*
X121289598Y-139424979D01*
X121164019Y-139400000D01*
X121035981Y-139400000D01*
X120910402Y-139424979D01*
X120850000Y-139449998D01*
X120850000Y-138250000D01*
X120000028Y-138250000D01*
X120000012Y-138250001D01*
X119897302Y-138260494D01*
X119730880Y-138315641D01*
X119730875Y-138315643D01*
X119581654Y-138407684D01*
X119457684Y-138531654D01*
X119365643Y-138680875D01*
X119365641Y-138680880D01*
X119310494Y-138847302D01*
X119310493Y-138847309D01*
X119300000Y-138950013D01*
X117445431Y-138950013D01*
X117376594Y-138860302D01*
X117376588Y-138860295D01*
X117209705Y-138693412D01*
X117209698Y-138693406D01*
X117022455Y-138549730D01*
X117022454Y-138549729D01*
X117022451Y-138549727D01*
X116912854Y-138486451D01*
X116818057Y-138431719D01*
X116818046Y-138431714D01*
X116599994Y-138341394D01*
X116372011Y-138280306D01*
X116138021Y-138249501D01*
X116138018Y-138249500D01*
X116138012Y-138249500D01*
X115901990Y-138249500D01*
X115901984Y-138249500D01*
X115901980Y-138249501D01*
X115667990Y-138280306D01*
X115440007Y-138341394D01*
X115221955Y-138431714D01*
X115221944Y-138431719D01*
X115017546Y-138549730D01*
X114830303Y-138693406D01*
X114830296Y-138693412D01*
X114663413Y-138860295D01*
X114663407Y-138860302D01*
X114519731Y-139047545D01*
X114401720Y-139251943D01*
X114401715Y-139251954D01*
X114311395Y-139470006D01*
X114250307Y-139697989D01*
X114219502Y-139931979D01*
X114219501Y-139931995D01*
X106083950Y-139931995D01*
X106085389Y-139927772D01*
X106084850Y-139915192D01*
X106096445Y-139895326D01*
X106103865Y-139873555D01*
X106114568Y-139864280D01*
X106120073Y-139854850D01*
X106148916Y-139834516D01*
X106241610Y-139787287D01*
X106262770Y-139771913D01*
X106407213Y-139666971D01*
X106407215Y-139666968D01*
X106407219Y-139666966D01*
X106551966Y-139522219D01*
X106551968Y-139522215D01*
X106551971Y-139522213D01*
X106622614Y-139424979D01*
X106672287Y-139356610D01*
X106765220Y-139174219D01*
X106828477Y-138979534D01*
X106860500Y-138777352D01*
X106860500Y-138572648D01*
X106846847Y-138486450D01*
X106855801Y-138417157D01*
X106881636Y-138379374D01*
X113113532Y-132147480D01*
X113192929Y-132028653D01*
X113247619Y-131896620D01*
X113260445Y-131832139D01*
X113275500Y-131756455D01*
X113275500Y-129186304D01*
X113599500Y-129186304D01*
X113599500Y-129363695D01*
X113634103Y-129537658D01*
X113634106Y-129537667D01*
X113701983Y-129701540D01*
X113701990Y-129701553D01*
X113800535Y-129849034D01*
X113800538Y-129849038D01*
X113925961Y-129974461D01*
X113925965Y-129974464D01*
X114073446Y-130073009D01*
X114073459Y-130073016D01*
X114196363Y-130123923D01*
X114237334Y-130140894D01*
X114237336Y-130140894D01*
X114237341Y-130140896D01*
X114411304Y-130175499D01*
X114411307Y-130175500D01*
X114411309Y-130175500D01*
X114588693Y-130175500D01*
X114588694Y-130175499D01*
X114646682Y-130163964D01*
X114762658Y-130140896D01*
X114762661Y-130140894D01*
X114762666Y-130140894D01*
X114926547Y-130073013D01*
X115074035Y-129974464D01*
X115199464Y-129849035D01*
X115298013Y-129701547D01*
X115365894Y-129537666D01*
X115400500Y-129363691D01*
X115400500Y-129186309D01*
X115400500Y-129186306D01*
X115400499Y-129186304D01*
X115365896Y-129012341D01*
X115365893Y-129012332D01*
X115298016Y-128848459D01*
X115298009Y-128848446D01*
X115199464Y-128700965D01*
X115199461Y-128700961D01*
X115074038Y-128575538D01*
X115074034Y-128575535D01*
X114926553Y-128476990D01*
X114926540Y-128476983D01*
X114762667Y-128409106D01*
X114762658Y-128409103D01*
X114588694Y-128374500D01*
X114588691Y-128374500D01*
X114411309Y-128374500D01*
X114411306Y-128374500D01*
X114237341Y-128409103D01*
X114237332Y-128409106D01*
X114073459Y-128476983D01*
X114073446Y-128476990D01*
X113925965Y-128575535D01*
X113925961Y-128575538D01*
X113800538Y-128700961D01*
X113800535Y-128700965D01*
X113701990Y-128848446D01*
X113701983Y-128848459D01*
X113634106Y-129012332D01*
X113634103Y-129012341D01*
X113599500Y-129186304D01*
X113275500Y-129186304D01*
X113275500Y-128061304D01*
X121024500Y-128061304D01*
X121024500Y-128238695D01*
X121059103Y-128412658D01*
X121059106Y-128412667D01*
X121126983Y-128576540D01*
X121126990Y-128576553D01*
X121225535Y-128724034D01*
X121225538Y-128724038D01*
X121350961Y-128849461D01*
X121350965Y-128849464D01*
X121498446Y-128948009D01*
X121498459Y-128948016D01*
X121621363Y-128998923D01*
X121662334Y-129015894D01*
X121662336Y-129015894D01*
X121662341Y-129015896D01*
X121836304Y-129050499D01*
X121836307Y-129050500D01*
X121836309Y-129050500D01*
X122013693Y-129050500D01*
X122013694Y-129050499D01*
X122071682Y-129038964D01*
X122187658Y-129015896D01*
X122187661Y-129015894D01*
X122187666Y-129015894D01*
X122351547Y-128948013D01*
X122499035Y-128849464D01*
X122624464Y-128724035D01*
X122723013Y-128576547D01*
X122790894Y-128412666D01*
X122790898Y-128412648D01*
X131439500Y-128412648D01*
X131439500Y-128617351D01*
X131471522Y-128819534D01*
X131534781Y-129014223D01*
X131598691Y-129139653D01*
X131622464Y-129186309D01*
X131627715Y-129196613D01*
X131748028Y-129362213D01*
X131892786Y-129506971D01*
X132047749Y-129619556D01*
X132058390Y-129627287D01*
X132149840Y-129673883D01*
X132151080Y-129674515D01*
X132201876Y-129722490D01*
X132218671Y-129790311D01*
X132196134Y-129856446D01*
X132151080Y-129895485D01*
X132058386Y-129942715D01*
X131892786Y-130063028D01*
X131748028Y-130207786D01*
X131627715Y-130373386D01*
X131534781Y-130555776D01*
X131471522Y-130750465D01*
X131439500Y-130952648D01*
X131439500Y-131157351D01*
X131471522Y-131359534D01*
X131534781Y-131554223D01*
X131627715Y-131736613D01*
X131748028Y-131902213D01*
X131892786Y-132046971D01*
X132031132Y-132147483D01*
X132058390Y-132167287D01*
X132149840Y-132213883D01*
X132151080Y-132214515D01*
X132201876Y-132262490D01*
X132218671Y-132330311D01*
X132196134Y-132396446D01*
X132151080Y-132435485D01*
X132058386Y-132482715D01*
X131892786Y-132603028D01*
X131748028Y-132747786D01*
X131627715Y-132913386D01*
X131534781Y-133095776D01*
X131471522Y-133290465D01*
X131439500Y-133492648D01*
X131439500Y-133697351D01*
X131471522Y-133899534D01*
X131534781Y-134094223D01*
X131627715Y-134276613D01*
X131748028Y-134442213D01*
X131892786Y-134586971D01*
X132058385Y-134707284D01*
X132058387Y-134707285D01*
X132058390Y-134707287D01*
X132151080Y-134754515D01*
X132151630Y-134754795D01*
X132202426Y-134802770D01*
X132219221Y-134870591D01*
X132196684Y-134936725D01*
X132151630Y-134975765D01*
X132058644Y-135023143D01*
X132014077Y-135055523D01*
X132014077Y-135055524D01*
X132610591Y-135652037D01*
X132547007Y-135669075D01*
X132432993Y-135734901D01*
X132339901Y-135827993D01*
X132274075Y-135942007D01*
X132257037Y-136005590D01*
X131660524Y-135409077D01*
X131660523Y-135409077D01*
X131628143Y-135453644D01*
X131535244Y-135635968D01*
X131472009Y-135830582D01*
X131440000Y-136032682D01*
X131440000Y-136237317D01*
X131472009Y-136439417D01*
X131535244Y-136634031D01*
X131628141Y-136816350D01*
X131628147Y-136816359D01*
X131660523Y-136860921D01*
X131660524Y-136860922D01*
X132257037Y-136264409D01*
X132274075Y-136327993D01*
X132339901Y-136442007D01*
X132432993Y-136535099D01*
X132547007Y-136600925D01*
X132610590Y-136617962D01*
X132014076Y-137214474D01*
X132058652Y-137246861D01*
X132151628Y-137294234D01*
X132202425Y-137342208D01*
X132219220Y-137410029D01*
X132196683Y-137476164D01*
X132151630Y-137515203D01*
X132058388Y-137562713D01*
X131892786Y-137683028D01*
X131748028Y-137827786D01*
X131627715Y-137993386D01*
X131534781Y-138175776D01*
X131471522Y-138370465D01*
X131439500Y-138572648D01*
X131439500Y-138777351D01*
X131471522Y-138979534D01*
X131534781Y-139174223D01*
X131627715Y-139356613D01*
X131748028Y-139522213D01*
X131892786Y-139666971D01*
X132047749Y-139779556D01*
X132058390Y-139787287D01*
X132151080Y-139834515D01*
X132240776Y-139880218D01*
X132240778Y-139880218D01*
X132240781Y-139880220D01*
X132345137Y-139914127D01*
X132435465Y-139943477D01*
X132454697Y-139946523D01*
X132637648Y-139975500D01*
X132637649Y-139975500D01*
X132842351Y-139975500D01*
X132842352Y-139975500D01*
X133044534Y-139943477D01*
X133239219Y-139880220D01*
X133421610Y-139787287D01*
X133514590Y-139719732D01*
X133587213Y-139666971D01*
X133587215Y-139666968D01*
X133587219Y-139666966D01*
X133731966Y-139522219D01*
X133731968Y-139522215D01*
X133731971Y-139522213D01*
X133802614Y-139424979D01*
X133852287Y-139356610D01*
X133945220Y-139174219D01*
X134008477Y-138979534D01*
X134040500Y-138777352D01*
X134040500Y-138572648D01*
X134014372Y-138407684D01*
X134008477Y-138370465D01*
X133972745Y-138260493D01*
X133945220Y-138175781D01*
X133945218Y-138175778D01*
X133945218Y-138175776D01*
X133911503Y-138109607D01*
X133852287Y-137993390D01*
X133844556Y-137982749D01*
X133731971Y-137827786D01*
X133587213Y-137683028D01*
X133421611Y-137562713D01*
X133328369Y-137515203D01*
X133277574Y-137467229D01*
X133260779Y-137399407D01*
X133283317Y-137333273D01*
X133328371Y-137294234D01*
X133421346Y-137246861D01*
X133421347Y-137246861D01*
X133465921Y-137214474D01*
X132869409Y-136617962D01*
X132932993Y-136600925D01*
X133047007Y-136535099D01*
X133140099Y-136442007D01*
X133205925Y-136327993D01*
X133222962Y-136264409D01*
X133819474Y-136860921D01*
X133851859Y-136816349D01*
X133944755Y-136634031D01*
X134007990Y-136439417D01*
X134040000Y-136237317D01*
X134040000Y-136032682D01*
X134007990Y-135830582D01*
X133944755Y-135635968D01*
X133851859Y-135453650D01*
X133819474Y-135409077D01*
X133819474Y-135409076D01*
X133222962Y-136005589D01*
X133205925Y-135942007D01*
X133140099Y-135827993D01*
X133047007Y-135734901D01*
X132932993Y-135669075D01*
X132869408Y-135652037D01*
X133465922Y-135055524D01*
X133465921Y-135055523D01*
X133421359Y-135023147D01*
X133421350Y-135023141D01*
X133328369Y-134975765D01*
X133277573Y-134927790D01*
X133260778Y-134859969D01*
X133283315Y-134793835D01*
X133328370Y-134754795D01*
X133328920Y-134754515D01*
X133421610Y-134707287D01*
X133471144Y-134671298D01*
X133587213Y-134586971D01*
X133587215Y-134586968D01*
X133587219Y-134586966D01*
X133731966Y-134442219D01*
X133731968Y-134442215D01*
X133731971Y-134442213D01*
X133784732Y-134369590D01*
X133852287Y-134276610D01*
X133945220Y-134094219D01*
X134008477Y-133899534D01*
X134040500Y-133697352D01*
X134040500Y-133492648D01*
X134008477Y-133290466D01*
X133945220Y-133095781D01*
X133945218Y-133095778D01*
X133945218Y-133095776D01*
X133911503Y-133029607D01*
X133852287Y-132913390D01*
X133844556Y-132902749D01*
X133731971Y-132747786D01*
X133587213Y-132603028D01*
X133421614Y-132482715D01*
X133415006Y-132479348D01*
X133328917Y-132435483D01*
X133278123Y-132387511D01*
X133261328Y-132319690D01*
X133283865Y-132253555D01*
X133328917Y-132214516D01*
X133421610Y-132167287D01*
X133448868Y-132147483D01*
X133587213Y-132046971D01*
X133587215Y-132046968D01*
X133587219Y-132046966D01*
X133731966Y-131902219D01*
X133731968Y-131902215D01*
X133731971Y-131902213D01*
X133837868Y-131756456D01*
X133852287Y-131736610D01*
X133945220Y-131554219D01*
X134008477Y-131359534D01*
X134040500Y-131157352D01*
X134040500Y-130952648D01*
X134008477Y-130750466D01*
X133945220Y-130555781D01*
X133945218Y-130555778D01*
X133945218Y-130555776D01*
X133911503Y-130489607D01*
X133852287Y-130373390D01*
X133844556Y-130362749D01*
X133731971Y-130207786D01*
X133587213Y-130063028D01*
X133421614Y-129942715D01*
X133415006Y-129939348D01*
X133328917Y-129895483D01*
X133278123Y-129847511D01*
X133261328Y-129779690D01*
X133283865Y-129713555D01*
X133328917Y-129674516D01*
X133421610Y-129627287D01*
X133442770Y-129611913D01*
X133587213Y-129506971D01*
X133587215Y-129506968D01*
X133587219Y-129506966D01*
X133731966Y-129362219D01*
X133731968Y-129362215D01*
X133731971Y-129362213D01*
X133784732Y-129289590D01*
X133852287Y-129196610D01*
X133945220Y-129014219D01*
X134008477Y-128819534D01*
X134040500Y-128617352D01*
X134040500Y-128412648D01*
X134012948Y-128238693D01*
X134008477Y-128210465D01*
X133945218Y-128015776D01*
X133879776Y-127887341D01*
X133852287Y-127833390D01*
X133844556Y-127822749D01*
X133731971Y-127667786D01*
X133587213Y-127523028D01*
X133421613Y-127402715D01*
X133421612Y-127402714D01*
X133421610Y-127402713D01*
X133364653Y-127373691D01*
X133239223Y-127309781D01*
X133044534Y-127246522D01*
X132869995Y-127218878D01*
X132842352Y-127214500D01*
X132637648Y-127214500D01*
X132613329Y-127218351D01*
X132435465Y-127246522D01*
X132240776Y-127309781D01*
X132058386Y-127402715D01*
X131892786Y-127523028D01*
X131748028Y-127667786D01*
X131627715Y-127833386D01*
X131534781Y-128015776D01*
X131471522Y-128210465D01*
X131439500Y-128412648D01*
X122790898Y-128412648D01*
X122791603Y-128409106D01*
X122796679Y-128383585D01*
X122796679Y-128383584D01*
X122825500Y-128238693D01*
X122825500Y-128061306D01*
X122825499Y-128061304D01*
X122790896Y-127887341D01*
X122790893Y-127887332D01*
X122723016Y-127723459D01*
X122723009Y-127723446D01*
X122624464Y-127575965D01*
X122624461Y-127575961D01*
X122499038Y-127450538D01*
X122499034Y-127450535D01*
X122351553Y-127351990D01*
X122351540Y-127351983D01*
X122187667Y-127284106D01*
X122187658Y-127284103D01*
X122013694Y-127249500D01*
X122013691Y-127249500D01*
X121836309Y-127249500D01*
X121836306Y-127249500D01*
X121662341Y-127284103D01*
X121662332Y-127284106D01*
X121498459Y-127351983D01*
X121498446Y-127351990D01*
X121350965Y-127450535D01*
X121350961Y-127450538D01*
X121225538Y-127575961D01*
X121225535Y-127575965D01*
X121126990Y-127723446D01*
X121126983Y-127723459D01*
X121059106Y-127887332D01*
X121059103Y-127887341D01*
X121024500Y-128061304D01*
X113275500Y-128061304D01*
X113275500Y-125872648D01*
X135749500Y-125872648D01*
X135749500Y-126077351D01*
X135781522Y-126279534D01*
X135844781Y-126474223D01*
X135937715Y-126656613D01*
X136058028Y-126822213D01*
X136202786Y-126966971D01*
X136357749Y-127079556D01*
X136368390Y-127087287D01*
X136459840Y-127133883D01*
X136461080Y-127134515D01*
X136511876Y-127182490D01*
X136528671Y-127250311D01*
X136506134Y-127316446D01*
X136461080Y-127355485D01*
X136368386Y-127402715D01*
X136202786Y-127523028D01*
X136058028Y-127667786D01*
X135937715Y-127833386D01*
X135844781Y-128015776D01*
X135781522Y-128210465D01*
X135749500Y-128412648D01*
X135749500Y-128617351D01*
X135781522Y-128819534D01*
X135844781Y-129014223D01*
X135908691Y-129139653D01*
X135932464Y-129186309D01*
X135937715Y-129196613D01*
X136058028Y-129362213D01*
X136202786Y-129506971D01*
X136357749Y-129619556D01*
X136368390Y-129627287D01*
X136459840Y-129673883D01*
X136461080Y-129674515D01*
X136511876Y-129722490D01*
X136528671Y-129790311D01*
X136506134Y-129856446D01*
X136461080Y-129895485D01*
X136368386Y-129942715D01*
X136202786Y-130063028D01*
X136058028Y-130207786D01*
X135937715Y-130373386D01*
X135844781Y-130555776D01*
X135781522Y-130750465D01*
X135749500Y-130952648D01*
X135749500Y-131157351D01*
X135781522Y-131359534D01*
X135844781Y-131554223D01*
X135937715Y-131736613D01*
X136058028Y-131902213D01*
X136202786Y-132046971D01*
X136341132Y-132147483D01*
X136368390Y-132167287D01*
X136459840Y-132213883D01*
X136461080Y-132214515D01*
X136511876Y-132262490D01*
X136528671Y-132330311D01*
X136506134Y-132396446D01*
X136461080Y-132435485D01*
X136368386Y-132482715D01*
X136202786Y-132603028D01*
X136058028Y-132747786D01*
X135937715Y-132913386D01*
X135844781Y-133095776D01*
X135781522Y-133290465D01*
X135749500Y-133492648D01*
X135749500Y-133697351D01*
X135781522Y-133899534D01*
X135844781Y-134094223D01*
X135937715Y-134276613D01*
X136058028Y-134442213D01*
X136202786Y-134586971D01*
X136357749Y-134699556D01*
X136368390Y-134707287D01*
X136459840Y-134753883D01*
X136461080Y-134754515D01*
X136511876Y-134802490D01*
X136528671Y-134870311D01*
X136506134Y-134936446D01*
X136461080Y-134975485D01*
X136368386Y-135022715D01*
X136202786Y-135143028D01*
X136058028Y-135287786D01*
X135937715Y-135453386D01*
X135844781Y-135635776D01*
X135781522Y-135830465D01*
X135749500Y-136032648D01*
X135749500Y-136237351D01*
X135781522Y-136439534D01*
X135844781Y-136634223D01*
X135908691Y-136759653D01*
X135937585Y-136816359D01*
X135937715Y-136816613D01*
X136058028Y-136982213D01*
X136202786Y-137126971D01*
X136323226Y-137214474D01*
X136368390Y-137247287D01*
X136459840Y-137293883D01*
X136461080Y-137294515D01*
X136511876Y-137342490D01*
X136528671Y-137410311D01*
X136506134Y-137476446D01*
X136461080Y-137515485D01*
X136368386Y-137562715D01*
X136202786Y-137683028D01*
X136058028Y-137827786D01*
X135937715Y-137993386D01*
X135844781Y-138175776D01*
X135781522Y-138370465D01*
X135749500Y-138572648D01*
X135749500Y-138777351D01*
X135781522Y-138979534D01*
X135844781Y-139174223D01*
X135937715Y-139356613D01*
X136058028Y-139522213D01*
X136202786Y-139666971D01*
X136357749Y-139779556D01*
X136368390Y-139787287D01*
X136459840Y-139833883D01*
X136461080Y-139834515D01*
X136511876Y-139882490D01*
X136528671Y-139950311D01*
X136506134Y-140016446D01*
X136461080Y-140055485D01*
X136368386Y-140102715D01*
X136202786Y-140223028D01*
X136058028Y-140367786D01*
X135937715Y-140533386D01*
X135844781Y-140715776D01*
X135781522Y-140910465D01*
X135749500Y-141112648D01*
X135749500Y-141317351D01*
X135781522Y-141519534D01*
X135844781Y-141714223D01*
X135898522Y-141819693D01*
X135913963Y-141849999D01*
X135937715Y-141896613D01*
X136058028Y-142062213D01*
X136202786Y-142206971D01*
X136357749Y-142319556D01*
X136368390Y-142327287D01*
X136459840Y-142373883D01*
X136461080Y-142374515D01*
X136511876Y-142422490D01*
X136528671Y-142490311D01*
X136506134Y-142556446D01*
X136461080Y-142595485D01*
X136368386Y-142642715D01*
X136202786Y-142763028D01*
X136058028Y-142907786D01*
X135937715Y-143073386D01*
X135844781Y-143255776D01*
X135781522Y-143450465D01*
X135749500Y-143652648D01*
X135749500Y-143857351D01*
X135781522Y-144059534D01*
X135844781Y-144254223D01*
X135908691Y-144379653D01*
X135937585Y-144436359D01*
X135937715Y-144436613D01*
X136058028Y-144602213D01*
X136202786Y-144746971D01*
X136323226Y-144834474D01*
X136368390Y-144867287D01*
X136484607Y-144926503D01*
X136550776Y-144960218D01*
X136550778Y-144960218D01*
X136550781Y-144960220D01*
X136655137Y-144994127D01*
X136745465Y-145023477D01*
X136846557Y-145039488D01*
X136947648Y-145055500D01*
X136947649Y-145055500D01*
X137152351Y-145055500D01*
X137152352Y-145055500D01*
X137354534Y-145023477D01*
X137549219Y-144960220D01*
X137731610Y-144867287D01*
X137826035Y-144798684D01*
X137897213Y-144746971D01*
X137897215Y-144746968D01*
X137897219Y-144746966D01*
X138041966Y-144602219D01*
X138041968Y-144602215D01*
X138041971Y-144602213D01*
X138094732Y-144529590D01*
X138162287Y-144436610D01*
X138255220Y-144254219D01*
X138318477Y-144059534D01*
X138350500Y-143857352D01*
X138350500Y-143652648D01*
X138336144Y-143562007D01*
X138318477Y-143450465D01*
X138266038Y-143289075D01*
X138255220Y-143255781D01*
X138255218Y-143255778D01*
X138255218Y-143255776D01*
X138162419Y-143073650D01*
X138162287Y-143073390D01*
X138130092Y-143029077D01*
X138041971Y-142907786D01*
X137897213Y-142763028D01*
X137731614Y-142642715D01*
X137725006Y-142639348D01*
X137638917Y-142595483D01*
X137588123Y-142547511D01*
X137571328Y-142479690D01*
X137593865Y-142413555D01*
X137638917Y-142374516D01*
X137731610Y-142327287D01*
X137752770Y-142311913D01*
X137897213Y-142206971D01*
X137897215Y-142206968D01*
X137897219Y-142206966D01*
X138041966Y-142062219D01*
X138041968Y-142062215D01*
X138041971Y-142062213D01*
X138094732Y-141989590D01*
X138162287Y-141896610D01*
X138255220Y-141714219D01*
X138318477Y-141519534D01*
X138350500Y-141317352D01*
X138350500Y-141112648D01*
X138318477Y-140910466D01*
X138298196Y-140848049D01*
X138255218Y-140715776D01*
X138209485Y-140626022D01*
X138162287Y-140533390D01*
X138112128Y-140464351D01*
X138041971Y-140367786D01*
X137897213Y-140223028D01*
X137731614Y-140102715D01*
X137725006Y-140099348D01*
X137638917Y-140055483D01*
X137588123Y-140007511D01*
X137571328Y-139939690D01*
X137593865Y-139873555D01*
X137638917Y-139834516D01*
X137731610Y-139787287D01*
X137752770Y-139771913D01*
X137897213Y-139666971D01*
X137897215Y-139666968D01*
X137897219Y-139666966D01*
X138041966Y-139522219D01*
X138041968Y-139522215D01*
X138041971Y-139522213D01*
X138112614Y-139424979D01*
X138162287Y-139356610D01*
X138255220Y-139174219D01*
X138318477Y-138979534D01*
X138350500Y-138777352D01*
X138350500Y-138572648D01*
X138324372Y-138407684D01*
X138318477Y-138370465D01*
X138282745Y-138260493D01*
X138255220Y-138175781D01*
X138255218Y-138175778D01*
X138255218Y-138175776D01*
X138221503Y-138109607D01*
X138162287Y-137993390D01*
X138154556Y-137982749D01*
X138041971Y-137827786D01*
X137897213Y-137683028D01*
X137731614Y-137562715D01*
X137725006Y-137559348D01*
X137638917Y-137515483D01*
X137588123Y-137467511D01*
X137571328Y-137399690D01*
X137593865Y-137333555D01*
X137638917Y-137294516D01*
X137731610Y-137247287D01*
X137776774Y-137214474D01*
X137897213Y-137126971D01*
X137897215Y-137126968D01*
X137897219Y-137126966D01*
X138041966Y-136982219D01*
X138041968Y-136982215D01*
X138041971Y-136982213D01*
X138094732Y-136909590D01*
X138162287Y-136816610D01*
X138255220Y-136634219D01*
X138318477Y-136439534D01*
X138350500Y-136237352D01*
X138350500Y-136032648D01*
X138324661Y-135869510D01*
X138318477Y-135830465D01*
X138266038Y-135669075D01*
X138255220Y-135635781D01*
X138255218Y-135635778D01*
X138255218Y-135635776D01*
X138162419Y-135453650D01*
X138162287Y-135453390D01*
X138130092Y-135409077D01*
X138041971Y-135287786D01*
X137897213Y-135143028D01*
X137731614Y-135022715D01*
X137725006Y-135019348D01*
X137638917Y-134975483D01*
X137588123Y-134927511D01*
X137571328Y-134859690D01*
X137593865Y-134793555D01*
X137638917Y-134754516D01*
X137731610Y-134707287D01*
X137752770Y-134691913D01*
X137897213Y-134586971D01*
X137897215Y-134586968D01*
X137897219Y-134586966D01*
X138041966Y-134442219D01*
X138041968Y-134442215D01*
X138041971Y-134442213D01*
X138094732Y-134369590D01*
X138162287Y-134276610D01*
X138255220Y-134094219D01*
X138318477Y-133899534D01*
X138350500Y-133697352D01*
X138350500Y-133492648D01*
X138318477Y-133290466D01*
X138255220Y-133095781D01*
X138255218Y-133095778D01*
X138255218Y-133095776D01*
X138221503Y-133029607D01*
X138162287Y-132913390D01*
X138154556Y-132902749D01*
X138041971Y-132747786D01*
X137897213Y-132603028D01*
X137731614Y-132482715D01*
X137725006Y-132479348D01*
X137638917Y-132435483D01*
X137588123Y-132387511D01*
X137571328Y-132319690D01*
X137593865Y-132253555D01*
X137638917Y-132214516D01*
X137731610Y-132167287D01*
X137758868Y-132147483D01*
X137897213Y-132046971D01*
X137897215Y-132046968D01*
X137897219Y-132046966D01*
X138041966Y-131902219D01*
X138041968Y-131902215D01*
X138041971Y-131902213D01*
X138147868Y-131756456D01*
X138162287Y-131736610D01*
X138255220Y-131554219D01*
X138318477Y-131359534D01*
X138350500Y-131157352D01*
X138350500Y-130952648D01*
X138318477Y-130750466D01*
X138255220Y-130555781D01*
X138255218Y-130555778D01*
X138255218Y-130555776D01*
X138221503Y-130489607D01*
X138162287Y-130373390D01*
X138154556Y-130362749D01*
X138041971Y-130207786D01*
X137897213Y-130063028D01*
X137731614Y-129942715D01*
X137725006Y-129939348D01*
X137638917Y-129895483D01*
X137588123Y-129847511D01*
X137571328Y-129779690D01*
X137593865Y-129713555D01*
X137638917Y-129674516D01*
X137731610Y-129627287D01*
X137752770Y-129611913D01*
X137897213Y-129506971D01*
X137897215Y-129506968D01*
X137897219Y-129506966D01*
X138041966Y-129362219D01*
X138041968Y-129362215D01*
X138041971Y-129362213D01*
X138094732Y-129289590D01*
X138162287Y-129196610D01*
X138255220Y-129014219D01*
X138318477Y-128819534D01*
X138350500Y-128617352D01*
X138350500Y-128412648D01*
X138322948Y-128238693D01*
X138318477Y-128210465D01*
X138255218Y-128015776D01*
X138189776Y-127887341D01*
X138162287Y-127833390D01*
X138154556Y-127822749D01*
X138041971Y-127667786D01*
X137897213Y-127523028D01*
X137731614Y-127402715D01*
X137725006Y-127399348D01*
X137638917Y-127355483D01*
X137588123Y-127307511D01*
X137571328Y-127239690D01*
X137593865Y-127173555D01*
X137638917Y-127134516D01*
X137731610Y-127087287D01*
X137752770Y-127071913D01*
X137897213Y-126966971D01*
X137897215Y-126966968D01*
X137897219Y-126966966D01*
X138041966Y-126822219D01*
X138041968Y-126822215D01*
X138041971Y-126822213D01*
X138094732Y-126749590D01*
X138162287Y-126656610D01*
X138255220Y-126474219D01*
X138318477Y-126279534D01*
X138350500Y-126077352D01*
X138350500Y-125872648D01*
X138318477Y-125670466D01*
X138255220Y-125475781D01*
X138255218Y-125475778D01*
X138255218Y-125475776D01*
X138221503Y-125409607D01*
X138162287Y-125293390D01*
X138154556Y-125282749D01*
X138041971Y-125127786D01*
X137897213Y-124983028D01*
X137731613Y-124862715D01*
X137731612Y-124862714D01*
X137731610Y-124862713D01*
X137674653Y-124833691D01*
X137549223Y-124769781D01*
X137354534Y-124706522D01*
X137179995Y-124678878D01*
X137152352Y-124674500D01*
X136947648Y-124674500D01*
X136923329Y-124678351D01*
X136745465Y-124706522D01*
X136550776Y-124769781D01*
X136368386Y-124862715D01*
X136202786Y-124983028D01*
X136058028Y-125127786D01*
X135937715Y-125293386D01*
X135844781Y-125475776D01*
X135781522Y-125670465D01*
X135749500Y-125872648D01*
X113275500Y-125872648D01*
X113275500Y-115611304D01*
X113649500Y-115611304D01*
X113649500Y-115788695D01*
X113684103Y-115962658D01*
X113684106Y-115962667D01*
X113751983Y-116126540D01*
X113751990Y-116126553D01*
X113850535Y-116274034D01*
X113850538Y-116274038D01*
X113975961Y-116399461D01*
X113975965Y-116399464D01*
X114123446Y-116498009D01*
X114123459Y-116498016D01*
X114246363Y-116548923D01*
X114287334Y-116565894D01*
X114287336Y-116565894D01*
X114287341Y-116565896D01*
X114461304Y-116600499D01*
X114461307Y-116600500D01*
X114461309Y-116600500D01*
X114638693Y-116600500D01*
X114638694Y-116600499D01*
X114696682Y-116588964D01*
X114812658Y-116565896D01*
X114812661Y-116565894D01*
X114812666Y-116565894D01*
X114976547Y-116498013D01*
X115124035Y-116399464D01*
X115249464Y-116274035D01*
X115348013Y-116126547D01*
X115415894Y-115962666D01*
X115418814Y-115947989D01*
X115450499Y-115788695D01*
X115450500Y-115788693D01*
X115450500Y-115611306D01*
X115450499Y-115611304D01*
X115415896Y-115437341D01*
X115415893Y-115437332D01*
X115348016Y-115273459D01*
X115348009Y-115273446D01*
X115249464Y-115125965D01*
X115249461Y-115125961D01*
X115124038Y-115000538D01*
X115124034Y-115000535D01*
X114976553Y-114901990D01*
X114976540Y-114901983D01*
X114812667Y-114834106D01*
X114812658Y-114834103D01*
X114638694Y-114799500D01*
X114638691Y-114799500D01*
X114461309Y-114799500D01*
X114461306Y-114799500D01*
X114287341Y-114834103D01*
X114287332Y-114834106D01*
X114123459Y-114901983D01*
X114123446Y-114901990D01*
X113975965Y-115000535D01*
X113975961Y-115000538D01*
X113850538Y-115125961D01*
X113850535Y-115125965D01*
X113751990Y-115273446D01*
X113751983Y-115273459D01*
X113684106Y-115437332D01*
X113684103Y-115437341D01*
X113649500Y-115611304D01*
X113275500Y-115611304D01*
X113275500Y-113611304D01*
X115799500Y-113611304D01*
X115799500Y-113788695D01*
X115834103Y-113962658D01*
X115834106Y-113962667D01*
X115901983Y-114126540D01*
X115901990Y-114126553D01*
X116000535Y-114274034D01*
X116000538Y-114274038D01*
X116125961Y-114399461D01*
X116125965Y-114399464D01*
X116273446Y-114498009D01*
X116273459Y-114498016D01*
X116386270Y-114544743D01*
X116437334Y-114565894D01*
X116437336Y-114565894D01*
X116437341Y-114565896D01*
X116611304Y-114600499D01*
X116611307Y-114600500D01*
X116611309Y-114600500D01*
X116788693Y-114600500D01*
X116788694Y-114600499D01*
X116846682Y-114588964D01*
X116962658Y-114565896D01*
X116962661Y-114565894D01*
X116962666Y-114565894D01*
X117126547Y-114498013D01*
X117274035Y-114399464D01*
X117399464Y-114274035D01*
X117498013Y-114126547D01*
X117499054Y-114124035D01*
X117518323Y-114077513D01*
X117565894Y-113962666D01*
X117600500Y-113788691D01*
X117600500Y-113611309D01*
X117600500Y-113611306D01*
X117600499Y-113611304D01*
X117565896Y-113437341D01*
X117565893Y-113437332D01*
X117498016Y-113273459D01*
X117498009Y-113273446D01*
X117399464Y-113125965D01*
X117399461Y-113125961D01*
X117274038Y-113000538D01*
X117274034Y-113000535D01*
X117126553Y-112901990D01*
X117126540Y-112901983D01*
X116962667Y-112834106D01*
X116962658Y-112834103D01*
X116788694Y-112799500D01*
X116788691Y-112799500D01*
X116611309Y-112799500D01*
X116611306Y-112799500D01*
X116437341Y-112834103D01*
X116437332Y-112834106D01*
X116273459Y-112901983D01*
X116273446Y-112901990D01*
X116125965Y-113000535D01*
X116125961Y-113000538D01*
X116000538Y-113125961D01*
X116000535Y-113125965D01*
X115901990Y-113273446D01*
X115901983Y-113273459D01*
X115834106Y-113437332D01*
X115834103Y-113437341D01*
X115799500Y-113611304D01*
X113275500Y-113611304D01*
X113275500Y-109453545D01*
X113275500Y-109111304D01*
X113674500Y-109111304D01*
X113674500Y-109288695D01*
X113709103Y-109462658D01*
X113709106Y-109462667D01*
X113776983Y-109626540D01*
X113776990Y-109626553D01*
X113875535Y-109774034D01*
X113875538Y-109774038D01*
X114000961Y-109899461D01*
X114000965Y-109899464D01*
X114148446Y-109998009D01*
X114148459Y-109998016D01*
X114271363Y-110048923D01*
X114312334Y-110065894D01*
X114374692Y-110078298D01*
X114436601Y-110110680D01*
X114471176Y-110171396D01*
X114474500Y-110199914D01*
X114474500Y-110238695D01*
X114509103Y-110412658D01*
X114509106Y-110412667D01*
X114576983Y-110576540D01*
X114576990Y-110576553D01*
X114675535Y-110724034D01*
X114675538Y-110724038D01*
X114800961Y-110849461D01*
X114800965Y-110849464D01*
X114948446Y-110948009D01*
X114948459Y-110948016D01*
X115014784Y-110975488D01*
X115112334Y-111015894D01*
X115112336Y-111015894D01*
X115112341Y-111015896D01*
X115286304Y-111050499D01*
X115286307Y-111050500D01*
X115286309Y-111050500D01*
X115463693Y-111050500D01*
X115463694Y-111050499D01*
X115521682Y-111038964D01*
X115637658Y-111015896D01*
X115637661Y-111015894D01*
X115637666Y-111015894D01*
X115801547Y-110948013D01*
X115949035Y-110849464D01*
X115974276Y-110824223D01*
X140374500Y-110824223D01*
X140374500Y-111125776D01*
X140374501Y-111125793D01*
X140413861Y-111424766D01*
X140491913Y-111716060D01*
X140607314Y-111994661D01*
X140607318Y-111994671D01*
X140758099Y-112255831D01*
X140941679Y-112495078D01*
X140941685Y-112495085D01*
X141154914Y-112708314D01*
X141154921Y-112708320D01*
X141394168Y-112891900D01*
X141655328Y-113042681D01*
X141655329Y-113042681D01*
X141655332Y-113042683D01*
X141841072Y-113119619D01*
X141933939Y-113158086D01*
X141933940Y-113158086D01*
X141933942Y-113158087D01*
X142225232Y-113236138D01*
X142524217Y-113275500D01*
X142524224Y-113275500D01*
X142825776Y-113275500D01*
X142825783Y-113275500D01*
X143124768Y-113236138D01*
X143416058Y-113158087D01*
X143694668Y-113042683D01*
X143955832Y-112891900D01*
X144195080Y-112708319D01*
X144408319Y-112495080D01*
X144591900Y-112255832D01*
X144742683Y-111994668D01*
X144858087Y-111716058D01*
X144936138Y-111424768D01*
X144975500Y-111125783D01*
X144975500Y-110824217D01*
X144936138Y-110525232D01*
X144858087Y-110233942D01*
X144840410Y-110191267D01*
X144807030Y-110110680D01*
X144742683Y-109955332D01*
X144740753Y-109951990D01*
X144591900Y-109694168D01*
X144408320Y-109454921D01*
X144408314Y-109454914D01*
X144195085Y-109241685D01*
X144195078Y-109241679D01*
X143955831Y-109058099D01*
X143694671Y-108907318D01*
X143694661Y-108907314D01*
X143416060Y-108791913D01*
X143124766Y-108713861D01*
X142825793Y-108674501D01*
X142825788Y-108674500D01*
X142825783Y-108674500D01*
X142524217Y-108674500D01*
X142524211Y-108674500D01*
X142524206Y-108674501D01*
X142225233Y-108713861D01*
X141933939Y-108791913D01*
X141655338Y-108907314D01*
X141655328Y-108907318D01*
X141394168Y-109058099D01*
X141154921Y-109241679D01*
X141154914Y-109241685D01*
X140941685Y-109454914D01*
X140941679Y-109454921D01*
X140758099Y-109694168D01*
X140607318Y-109955328D01*
X140607314Y-109955338D01*
X140491913Y-110233939D01*
X140413861Y-110525233D01*
X140374501Y-110824206D01*
X140374500Y-110824223D01*
X115974276Y-110824223D01*
X115998957Y-110799542D01*
X116066023Y-110732477D01*
X116074461Y-110724038D01*
X116074464Y-110724035D01*
X116173013Y-110576547D01*
X116240894Y-110412666D01*
X116257319Y-110330095D01*
X116270016Y-110266259D01*
X116275500Y-110238691D01*
X116275500Y-110061309D01*
X116275500Y-110061306D01*
X116275499Y-110061304D01*
X116240896Y-109887341D01*
X116240893Y-109887332D01*
X116173016Y-109723459D01*
X116173009Y-109723446D01*
X116074464Y-109575965D01*
X116074461Y-109575961D01*
X115949038Y-109450538D01*
X115949034Y-109450535D01*
X115801553Y-109351990D01*
X115801540Y-109351983D01*
X115637670Y-109284107D01*
X115637661Y-109284104D01*
X115575307Y-109271701D01*
X115513397Y-109239315D01*
X115478823Y-109178599D01*
X115475500Y-109150084D01*
X115475500Y-109111306D01*
X115475499Y-109111304D01*
X115440896Y-108937341D01*
X115440893Y-108937332D01*
X115440524Y-108936442D01*
X115423923Y-108896363D01*
X115373016Y-108773459D01*
X115373009Y-108773446D01*
X115274464Y-108625965D01*
X115274461Y-108625961D01*
X115149038Y-108500538D01*
X115149034Y-108500535D01*
X115001553Y-108401990D01*
X115001540Y-108401983D01*
X114837667Y-108334106D01*
X114837658Y-108334103D01*
X114663694Y-108299500D01*
X114663691Y-108299500D01*
X114486309Y-108299500D01*
X114486306Y-108299500D01*
X114312341Y-108334103D01*
X114312332Y-108334106D01*
X114148459Y-108401983D01*
X114148446Y-108401990D01*
X114000965Y-108500535D01*
X114000961Y-108500538D01*
X113875538Y-108625961D01*
X113875535Y-108625965D01*
X113776990Y-108773446D01*
X113776983Y-108773459D01*
X113709106Y-108937332D01*
X113709103Y-108937341D01*
X113674500Y-109111304D01*
X113275500Y-109111304D01*
X113275500Y-107663728D01*
X113295185Y-107596689D01*
X113347989Y-107550934D01*
X113417147Y-107540990D01*
X113446947Y-107549165D01*
X113487334Y-107565894D01*
X113487337Y-107565894D01*
X113487341Y-107565896D01*
X113661304Y-107600499D01*
X113661307Y-107600500D01*
X113661309Y-107600500D01*
X113838693Y-107600500D01*
X113838694Y-107600499D01*
X113896682Y-107588964D01*
X114012658Y-107565896D01*
X114012661Y-107565894D01*
X114012666Y-107565894D01*
X114176547Y-107498013D01*
X114324035Y-107399464D01*
X114449464Y-107274035D01*
X114548013Y-107126547D01*
X114615894Y-106962666D01*
X114650500Y-106788691D01*
X114650500Y-106611309D01*
X114650500Y-106611306D01*
X114650499Y-106611304D01*
X114615896Y-106437341D01*
X114615893Y-106437332D01*
X114548016Y-106273459D01*
X114548009Y-106273446D01*
X114449464Y-106125965D01*
X114449461Y-106125961D01*
X114324038Y-106000538D01*
X114324034Y-106000535D01*
X114176553Y-105901990D01*
X114176540Y-105901983D01*
X114012667Y-105834106D01*
X114012658Y-105834103D01*
X113838694Y-105799500D01*
X113838691Y-105799500D01*
X113661309Y-105799500D01*
X113661306Y-105799500D01*
X113487341Y-105834103D01*
X113487332Y-105834106D01*
X113323459Y-105901983D01*
X113323446Y-105901990D01*
X113175965Y-106000535D01*
X113175958Y-106000541D01*
X113171359Y-106005140D01*
X113110034Y-106038622D01*
X113040343Y-106033633D01*
X112984412Y-105991759D01*
X112974321Y-105975900D01*
X112973011Y-105973450D01*
X112874464Y-105825965D01*
X112874461Y-105825961D01*
X112749038Y-105700538D01*
X112749034Y-105700535D01*
X112601553Y-105601990D01*
X112601540Y-105601983D01*
X112437667Y-105534106D01*
X112437658Y-105534103D01*
X112263694Y-105499500D01*
X112263691Y-105499500D01*
X112086309Y-105499500D01*
X112086306Y-105499500D01*
X111912341Y-105534103D01*
X111912332Y-105534106D01*
X111748459Y-105601983D01*
X111748446Y-105601990D01*
X111600965Y-105700535D01*
X111600961Y-105700538D01*
X111475538Y-105825961D01*
X111475535Y-105825965D01*
X111376990Y-105973446D01*
X111376983Y-105973459D01*
X111309106Y-106137332D01*
X111309103Y-106137341D01*
X111274500Y-106311304D01*
X111274500Y-106488695D01*
X111309103Y-106662658D01*
X111309106Y-106662667D01*
X111376983Y-106826540D01*
X111376990Y-106826553D01*
X111475535Y-106974034D01*
X111475538Y-106974038D01*
X111600961Y-107099461D01*
X111600965Y-107099464D01*
X111748449Y-107198011D01*
X111753819Y-107200881D01*
X111753200Y-107202038D01*
X111802348Y-107241635D01*
X111824420Y-107307926D01*
X111824500Y-107312366D01*
X111824500Y-110799542D01*
X111804815Y-110866581D01*
X111752011Y-110912336D01*
X111682853Y-110922280D01*
X111619297Y-110893255D01*
X111610363Y-110884697D01*
X111603193Y-110877108D01*
X111589532Y-110856662D01*
X111488479Y-110755609D01*
X111011819Y-110278948D01*
X110978334Y-110217625D01*
X110975500Y-110191267D01*
X110975500Y-109972684D01*
X110995185Y-109905645D01*
X110996398Y-109903793D01*
X111007391Y-109887341D01*
X111048013Y-109826547D01*
X111115894Y-109662666D01*
X111123078Y-109626553D01*
X111150499Y-109488695D01*
X111150500Y-109488693D01*
X111150500Y-109311306D01*
X111150499Y-109311304D01*
X111115896Y-109137341D01*
X111115893Y-109137332D01*
X111048016Y-108973459D01*
X111048009Y-108973446D01*
X110949464Y-108825965D01*
X110949461Y-108825961D01*
X110824038Y-108700538D01*
X110824034Y-108700535D01*
X110676553Y-108601990D01*
X110676540Y-108601983D01*
X110512667Y-108534106D01*
X110512658Y-108534103D01*
X110338694Y-108499500D01*
X110338691Y-108499500D01*
X110161309Y-108499500D01*
X110161306Y-108499500D01*
X109987341Y-108534103D01*
X109987332Y-108534106D01*
X109823459Y-108601983D01*
X109823446Y-108601990D01*
X109675965Y-108700535D01*
X109675961Y-108700538D01*
X109550538Y-108825961D01*
X109550535Y-108825965D01*
X109451990Y-108973446D01*
X109451983Y-108973459D01*
X109384106Y-109137332D01*
X109384103Y-109137341D01*
X109349500Y-109311304D01*
X109349500Y-109488695D01*
X109384103Y-109662658D01*
X109384106Y-109662667D01*
X109451984Y-109826542D01*
X109451985Y-109826543D01*
X109451987Y-109826547D01*
X109492603Y-109887332D01*
X109503602Y-109903793D01*
X109524480Y-109970470D01*
X109524500Y-109972684D01*
X109524500Y-110614597D01*
X109524996Y-110617090D01*
X109542871Y-110706950D01*
X109552381Y-110754761D01*
X109607071Y-110886794D01*
X109630782Y-110922280D01*
X109686469Y-111005623D01*
X109686470Y-111005624D01*
X110264181Y-111583333D01*
X110297666Y-111644656D01*
X110300500Y-111671014D01*
X110300500Y-112525500D01*
X110280815Y-112592539D01*
X110228011Y-112638294D01*
X110176500Y-112649500D01*
X110111306Y-112649500D01*
X109937341Y-112684103D01*
X109937332Y-112684106D01*
X109773459Y-112751983D01*
X109773446Y-112751990D01*
X109625965Y-112850535D01*
X109625961Y-112850538D01*
X109500538Y-112975961D01*
X109500535Y-112975965D01*
X109401990Y-113123446D01*
X109401983Y-113123459D01*
X109334106Y-113287332D01*
X109334103Y-113287341D01*
X109299500Y-113461304D01*
X109299500Y-113638695D01*
X109334103Y-113812658D01*
X109334106Y-113812667D01*
X109401983Y-113976540D01*
X109401990Y-113976553D01*
X109500535Y-114124034D01*
X109500538Y-114124038D01*
X109625961Y-114249461D01*
X109625965Y-114249464D01*
X109773446Y-114348009D01*
X109773459Y-114348016D01*
X109850106Y-114379763D01*
X109937334Y-114415894D01*
X109973691Y-114423126D01*
X110035602Y-114455510D01*
X110070176Y-114516225D01*
X110073500Y-114544743D01*
X110073500Y-130544125D01*
X110053815Y-130611164D01*
X110037181Y-130631806D01*
X107072181Y-133596806D01*
X107010858Y-133630291D01*
X106941166Y-133625307D01*
X106885233Y-133583435D01*
X106860816Y-133517971D01*
X106860500Y-133509125D01*
X106860500Y-133492648D01*
X106828477Y-133290465D01*
X106765218Y-133095776D01*
X106731503Y-133029607D01*
X106672287Y-132913390D01*
X106664556Y-132902749D01*
X106551971Y-132747786D01*
X106407213Y-132603028D01*
X106241614Y-132482715D01*
X106235006Y-132479348D01*
X106148917Y-132435483D01*
X106098123Y-132387511D01*
X106081328Y-132319690D01*
X106103865Y-132253555D01*
X106148917Y-132214516D01*
X106241610Y-132167287D01*
X106268868Y-132147483D01*
X106407213Y-132046971D01*
X106407215Y-132046968D01*
X106407219Y-132046966D01*
X106551966Y-131902219D01*
X106551968Y-131902215D01*
X106551971Y-131902213D01*
X106657868Y-131756456D01*
X106672287Y-131736610D01*
X106765220Y-131554219D01*
X106828477Y-131359534D01*
X106860500Y-131157352D01*
X106860500Y-130952648D01*
X106828477Y-130750466D01*
X106765220Y-130555781D01*
X106765218Y-130555778D01*
X106765218Y-130555776D01*
X106731503Y-130489607D01*
X106672287Y-130373390D01*
X106664556Y-130362749D01*
X106551971Y-130207786D01*
X106407213Y-130063028D01*
X106241614Y-129942715D01*
X106235006Y-129939348D01*
X106148917Y-129895483D01*
X106098123Y-129847511D01*
X106081328Y-129779690D01*
X106103865Y-129713555D01*
X106148917Y-129674516D01*
X106241610Y-129627287D01*
X106262770Y-129611913D01*
X106407213Y-129506971D01*
X106407215Y-129506968D01*
X106407219Y-129506966D01*
X106551966Y-129362219D01*
X106551968Y-129362215D01*
X106551971Y-129362213D01*
X106604732Y-129289590D01*
X106672287Y-129196610D01*
X106765220Y-129014219D01*
X106828477Y-128819534D01*
X106860500Y-128617352D01*
X106860500Y-128412648D01*
X106832948Y-128238693D01*
X106828477Y-128210465D01*
X106765218Y-128015776D01*
X106699776Y-127887341D01*
X106672287Y-127833390D01*
X106664556Y-127822749D01*
X106551971Y-127667786D01*
X106407213Y-127523028D01*
X106241614Y-127402715D01*
X106235006Y-127399348D01*
X106148917Y-127355483D01*
X106098123Y-127307511D01*
X106081328Y-127239690D01*
X106103865Y-127173555D01*
X106148917Y-127134516D01*
X106241610Y-127087287D01*
X106262770Y-127071913D01*
X106407213Y-126966971D01*
X106407215Y-126966968D01*
X106407219Y-126966966D01*
X106551966Y-126822219D01*
X106551968Y-126822215D01*
X106551971Y-126822213D01*
X106604732Y-126749590D01*
X106672287Y-126656610D01*
X106765220Y-126474219D01*
X106828477Y-126279534D01*
X106860500Y-126077352D01*
X106860500Y-125872648D01*
X106828477Y-125670466D01*
X106765220Y-125475781D01*
X106765218Y-125475778D01*
X106765218Y-125475776D01*
X106731503Y-125409607D01*
X106672287Y-125293390D01*
X106664556Y-125282749D01*
X106551971Y-125127786D01*
X106407213Y-124983028D01*
X106241613Y-124862715D01*
X106241612Y-124862714D01*
X106241610Y-124862713D01*
X106184653Y-124833691D01*
X106059223Y-124769781D01*
X105864534Y-124706522D01*
X105689995Y-124678878D01*
X105662352Y-124674500D01*
X105457648Y-124674500D01*
X105433329Y-124678351D01*
X105255465Y-124706522D01*
X105060776Y-124769781D01*
X104878386Y-124862715D01*
X104712786Y-124983028D01*
X104568028Y-125127786D01*
X104447715Y-125293386D01*
X104354781Y-125475776D01*
X104291522Y-125670465D01*
X104259500Y-125872648D01*
X96561557Y-125872648D01*
X95176896Y-110966841D01*
X95176461Y-110950520D01*
X95181424Y-110824223D01*
X97374500Y-110824223D01*
X97374500Y-111125776D01*
X97374501Y-111125793D01*
X97413861Y-111424766D01*
X97491913Y-111716060D01*
X97607314Y-111994661D01*
X97607318Y-111994671D01*
X97758099Y-112255831D01*
X97941679Y-112495078D01*
X97941685Y-112495085D01*
X98154914Y-112708314D01*
X98154921Y-112708320D01*
X98394168Y-112891900D01*
X98655328Y-113042681D01*
X98655329Y-113042681D01*
X98655332Y-113042683D01*
X98841072Y-113119619D01*
X98933939Y-113158086D01*
X98933940Y-113158086D01*
X98933942Y-113158087D01*
X99225232Y-113236138D01*
X99524217Y-113275500D01*
X99524224Y-113275500D01*
X99825776Y-113275500D01*
X99825783Y-113275500D01*
X100124768Y-113236138D01*
X100416058Y-113158087D01*
X100694668Y-113042683D01*
X100955832Y-112891900D01*
X101195080Y-112708319D01*
X101408319Y-112495080D01*
X101591900Y-112255832D01*
X101742683Y-111994668D01*
X101858087Y-111716058D01*
X101936138Y-111424768D01*
X101975500Y-111125783D01*
X101975500Y-110824217D01*
X101936138Y-110525232D01*
X101858087Y-110233942D01*
X101840410Y-110191267D01*
X101807030Y-110110680D01*
X101742683Y-109955332D01*
X101742681Y-109955328D01*
X101605209Y-109717219D01*
X101605208Y-109717218D01*
X101603983Y-109715097D01*
X101591900Y-109694168D01*
X101566683Y-109661304D01*
X105424500Y-109661304D01*
X105424500Y-109838695D01*
X105459103Y-110012658D01*
X105459106Y-110012667D01*
X105526983Y-110176540D01*
X105526990Y-110176553D01*
X105625535Y-110324034D01*
X105625538Y-110324038D01*
X105750961Y-110449461D01*
X105750965Y-110449464D01*
X105898446Y-110548009D01*
X105898459Y-110548016D01*
X105967355Y-110576553D01*
X106062334Y-110615894D01*
X106062336Y-110615894D01*
X106062341Y-110615896D01*
X106236304Y-110650499D01*
X106236307Y-110650500D01*
X106236309Y-110650500D01*
X106275500Y-110650500D01*
X106342539Y-110670185D01*
X106388294Y-110722989D01*
X106399500Y-110774500D01*
X106399500Y-110838695D01*
X106434103Y-111012658D01*
X106434106Y-111012667D01*
X106501983Y-111176540D01*
X106501990Y-111176553D01*
X106600535Y-111324034D01*
X106600538Y-111324038D01*
X106725961Y-111449461D01*
X106725965Y-111449464D01*
X106873446Y-111548009D01*
X106873459Y-111548016D01*
X106958724Y-111583333D01*
X107037334Y-111615894D01*
X107037336Y-111615894D01*
X107037341Y-111615896D01*
X107211304Y-111650499D01*
X107211307Y-111650500D01*
X107211309Y-111650500D01*
X107388693Y-111650500D01*
X107388694Y-111650499D01*
X107472336Y-111633861D01*
X107562647Y-111615898D01*
X107562649Y-111615897D01*
X107562666Y-111615894D01*
X107562681Y-111615887D01*
X107563755Y-111615562D01*
X107564365Y-111615556D01*
X107568641Y-111614706D01*
X107568802Y-111615515D01*
X107633621Y-111614925D01*
X107692742Y-111652162D01*
X107722345Y-111715450D01*
X107721390Y-111758407D01*
X107692391Y-111904195D01*
X107692391Y-112081586D01*
X107726994Y-112255549D01*
X107726997Y-112255558D01*
X107794874Y-112419431D01*
X107794881Y-112419444D01*
X107893426Y-112566925D01*
X107893429Y-112566929D01*
X108018852Y-112692352D01*
X108018856Y-112692355D01*
X108166337Y-112790900D01*
X108166350Y-112790907D01*
X108270637Y-112834103D01*
X108330225Y-112858785D01*
X108330227Y-112858785D01*
X108330232Y-112858787D01*
X108504195Y-112893390D01*
X108504198Y-112893391D01*
X108504200Y-112893391D01*
X108681584Y-112893391D01*
X108681585Y-112893390D01*
X108739573Y-112881855D01*
X108855549Y-112858787D01*
X108855552Y-112858785D01*
X108855557Y-112858785D01*
X109019438Y-112790904D01*
X109166926Y-112692355D01*
X109292355Y-112566926D01*
X109390904Y-112419438D01*
X109458785Y-112255557D01*
X109493391Y-112081582D01*
X109493391Y-111904200D01*
X109493391Y-111904197D01*
X109493390Y-111904195D01*
X109458787Y-111730232D01*
X109458784Y-111730223D01*
X109390907Y-111566350D01*
X109390900Y-111566337D01*
X109292355Y-111418856D01*
X109292352Y-111418852D01*
X109166929Y-111293429D01*
X109166925Y-111293426D01*
X109019444Y-111194881D01*
X109019431Y-111194874D01*
X108855558Y-111126997D01*
X108855549Y-111126994D01*
X108681585Y-111092391D01*
X108681582Y-111092391D01*
X108504200Y-111092391D01*
X108504197Y-111092391D01*
X108330232Y-111126995D01*
X108329115Y-111127334D01*
X108328500Y-111127339D01*
X108324250Y-111128185D01*
X108324089Y-111127378D01*
X108259248Y-111127959D01*
X108200134Y-111090712D01*
X108170542Y-111027418D01*
X108171500Y-110984482D01*
X108176630Y-110958695D01*
X108185851Y-110912336D01*
X108200500Y-110838693D01*
X108200500Y-110661306D01*
X108200499Y-110661304D01*
X108165896Y-110487341D01*
X108165893Y-110487332D01*
X108098016Y-110323459D01*
X108098009Y-110323446D01*
X107999464Y-110175965D01*
X107999461Y-110175961D01*
X107874038Y-110050538D01*
X107874034Y-110050535D01*
X107726553Y-109951990D01*
X107726540Y-109951983D01*
X107562667Y-109884106D01*
X107562658Y-109884103D01*
X107388694Y-109849500D01*
X107388691Y-109849500D01*
X107349500Y-109849500D01*
X107282461Y-109829815D01*
X107236706Y-109777011D01*
X107225500Y-109725500D01*
X107225500Y-109661306D01*
X107225499Y-109661304D01*
X107190896Y-109487341D01*
X107190893Y-109487332D01*
X107123016Y-109323459D01*
X107123009Y-109323446D01*
X107024464Y-109175965D01*
X107024461Y-109175961D01*
X106899038Y-109050538D01*
X106899034Y-109050535D01*
X106751553Y-108951990D01*
X106751540Y-108951983D01*
X106587667Y-108884106D01*
X106587658Y-108884103D01*
X106413694Y-108849500D01*
X106413691Y-108849500D01*
X106236309Y-108849500D01*
X106236306Y-108849500D01*
X106062341Y-108884103D01*
X106062332Y-108884106D01*
X105898459Y-108951983D01*
X105898446Y-108951990D01*
X105750965Y-109050535D01*
X105750961Y-109050538D01*
X105625538Y-109175961D01*
X105625535Y-109175965D01*
X105526990Y-109323446D01*
X105526983Y-109323459D01*
X105459106Y-109487332D01*
X105459103Y-109487341D01*
X105424500Y-109661304D01*
X101566683Y-109661304D01*
X101469512Y-109534669D01*
X101408320Y-109454921D01*
X101408314Y-109454914D01*
X101195085Y-109241685D01*
X101195078Y-109241679D01*
X100955831Y-109058099D01*
X100694671Y-108907318D01*
X100694661Y-108907314D01*
X100416060Y-108791913D01*
X100124766Y-108713861D01*
X99825793Y-108674501D01*
X99825788Y-108674500D01*
X99825783Y-108674500D01*
X99524217Y-108674500D01*
X99524211Y-108674500D01*
X99524206Y-108674501D01*
X99225233Y-108713861D01*
X98933939Y-108791913D01*
X98655338Y-108907314D01*
X98655328Y-108907318D01*
X98394168Y-109058099D01*
X98154921Y-109241679D01*
X98154914Y-109241685D01*
X97941685Y-109454914D01*
X97941679Y-109454921D01*
X97758099Y-109694168D01*
X97607318Y-109955328D01*
X97607314Y-109955338D01*
X97491913Y-110233939D01*
X97413861Y-110525233D01*
X97374501Y-110824206D01*
X97374500Y-110824223D01*
X95181424Y-110824223D01*
X95189183Y-110626782D01*
X95189944Y-110617107D01*
X95230339Y-110275858D01*
X95231857Y-110266277D01*
X95298905Y-109929246D01*
X95301178Y-109919784D01*
X95305166Y-109905645D01*
X95394458Y-109589082D01*
X95397456Y-109579854D01*
X95516407Y-109257470D01*
X95520133Y-109248478D01*
X95571375Y-109137341D01*
X95664008Y-108936432D01*
X95668409Y-108927796D01*
X95836350Y-108627963D01*
X95841408Y-108619712D01*
X96011034Y-108365889D01*
X96026286Y-108347271D01*
X98772284Y-105591104D01*
X107744700Y-105591104D01*
X107744700Y-105768495D01*
X107779303Y-105942458D01*
X107779306Y-105942467D01*
X107847183Y-106106340D01*
X107847190Y-106106353D01*
X107945735Y-106253834D01*
X107945738Y-106253838D01*
X108071161Y-106379261D01*
X108071165Y-106379264D01*
X108218646Y-106477809D01*
X108218659Y-106477816D01*
X108341563Y-106528723D01*
X108382534Y-106545694D01*
X108382536Y-106545694D01*
X108382541Y-106545696D01*
X108556504Y-106580299D01*
X108556507Y-106580300D01*
X108556509Y-106580300D01*
X108733893Y-106580300D01*
X108733894Y-106580299D01*
X108791882Y-106568764D01*
X108907858Y-106545696D01*
X108907861Y-106545694D01*
X108907866Y-106545694D01*
X109071747Y-106477813D01*
X109219235Y-106379264D01*
X109344664Y-106253835D01*
X109443213Y-106106347D01*
X109511094Y-105942466D01*
X109545700Y-105768491D01*
X109545700Y-105591109D01*
X109545700Y-105591106D01*
X109545699Y-105591104D01*
X109511096Y-105417141D01*
X109511093Y-105417132D01*
X109443216Y-105253259D01*
X109443209Y-105253246D01*
X109344664Y-105105765D01*
X109344661Y-105105761D01*
X109219238Y-104980338D01*
X109219234Y-104980335D01*
X109071753Y-104881790D01*
X109071740Y-104881783D01*
X108907867Y-104813906D01*
X108907858Y-104813903D01*
X108733894Y-104779300D01*
X108733891Y-104779300D01*
X108556509Y-104779300D01*
X108556506Y-104779300D01*
X108382541Y-104813903D01*
X108382532Y-104813906D01*
X108218659Y-104881783D01*
X108218646Y-104881790D01*
X108071165Y-104980335D01*
X108071161Y-104980338D01*
X107945738Y-105105761D01*
X107945735Y-105105765D01*
X107847190Y-105253246D01*
X107847183Y-105253259D01*
X107779306Y-105417132D01*
X107779303Y-105417141D01*
X107744700Y-105591104D01*
X98772284Y-105591104D01*
X106872090Y-97461304D01*
X120699500Y-97461304D01*
X120699500Y-97638695D01*
X120734103Y-97812658D01*
X120734106Y-97812667D01*
X120801983Y-97976540D01*
X120801990Y-97976553D01*
X120900535Y-98124034D01*
X120900538Y-98124038D01*
X121025961Y-98249461D01*
X121025965Y-98249464D01*
X121173446Y-98348009D01*
X121173459Y-98348016D01*
X121294155Y-98398009D01*
X121337334Y-98415894D01*
X121337336Y-98415894D01*
X121337341Y-98415896D01*
X121511304Y-98450499D01*
X121511307Y-98450500D01*
X121511309Y-98450500D01*
X121688693Y-98450500D01*
X121688694Y-98450499D01*
X121746682Y-98438964D01*
X121862658Y-98415896D01*
X121862661Y-98415894D01*
X121862666Y-98415894D01*
X122026547Y-98348013D01*
X122174035Y-98249464D01*
X122299464Y-98124035D01*
X122398013Y-97976547D01*
X122465894Y-97812666D01*
X122500500Y-97638691D01*
X122500500Y-97511304D01*
X127974500Y-97511304D01*
X127974500Y-97688695D01*
X128009103Y-97862658D01*
X128009106Y-97862667D01*
X128076983Y-98026540D01*
X128076990Y-98026553D01*
X128175535Y-98174034D01*
X128175538Y-98174038D01*
X128300961Y-98299461D01*
X128300965Y-98299464D01*
X128448446Y-98398009D01*
X128448459Y-98398016D01*
X128571363Y-98448923D01*
X128612334Y-98465894D01*
X128612336Y-98465894D01*
X128612341Y-98465896D01*
X128786304Y-98500499D01*
X128786307Y-98500500D01*
X128786309Y-98500500D01*
X128963693Y-98500500D01*
X128963694Y-98500499D01*
X129021682Y-98488964D01*
X129137658Y-98465896D01*
X129137661Y-98465894D01*
X129137666Y-98465894D01*
X129301547Y-98398013D01*
X129449035Y-98299464D01*
X129574464Y-98174035D01*
X129673013Y-98026547D01*
X129740894Y-97862666D01*
X129750840Y-97812667D01*
X129775499Y-97688695D01*
X129775500Y-97688693D01*
X129775500Y-97511306D01*
X129775499Y-97511304D01*
X129740896Y-97337341D01*
X129740893Y-97337332D01*
X129673016Y-97173459D01*
X129673009Y-97173446D01*
X129574464Y-97025965D01*
X129574461Y-97025961D01*
X129449038Y-96900538D01*
X129449034Y-96900535D01*
X129301553Y-96801990D01*
X129301540Y-96801983D01*
X129137667Y-96734106D01*
X129137658Y-96734103D01*
X128963694Y-96699500D01*
X128963691Y-96699500D01*
X128786309Y-96699500D01*
X128786306Y-96699500D01*
X128612341Y-96734103D01*
X128612332Y-96734106D01*
X128448459Y-96801983D01*
X128448446Y-96801990D01*
X128300965Y-96900535D01*
X128300961Y-96900538D01*
X128175538Y-97025961D01*
X128175535Y-97025965D01*
X128076990Y-97173446D01*
X128076983Y-97173459D01*
X128009106Y-97337332D01*
X128009103Y-97337341D01*
X127974500Y-97511304D01*
X122500500Y-97511304D01*
X122500500Y-97461309D01*
X122500500Y-97461306D01*
X122500499Y-97461304D01*
X122465896Y-97287341D01*
X122465893Y-97287332D01*
X122398016Y-97123459D01*
X122398009Y-97123446D01*
X122299464Y-96975965D01*
X122299461Y-96975961D01*
X122174038Y-96850538D01*
X122174034Y-96850535D01*
X122026553Y-96751990D01*
X122026540Y-96751983D01*
X121862667Y-96684106D01*
X121862658Y-96684103D01*
X121688694Y-96649500D01*
X121688691Y-96649500D01*
X121511309Y-96649500D01*
X121511306Y-96649500D01*
X121337341Y-96684103D01*
X121337332Y-96684106D01*
X121173459Y-96751983D01*
X121173446Y-96751990D01*
X121025965Y-96850535D01*
X121025961Y-96850538D01*
X120900538Y-96975961D01*
X120900535Y-96975965D01*
X120801990Y-97123446D01*
X120801983Y-97123459D01*
X120734106Y-97287332D01*
X120734103Y-97287341D01*
X120699500Y-97461304D01*
X106872090Y-97461304D01*
X111305673Y-93011304D01*
X123674500Y-93011304D01*
X123674500Y-93188695D01*
X123709103Y-93362658D01*
X123709106Y-93362667D01*
X123776983Y-93526540D01*
X123776990Y-93526553D01*
X123875535Y-93674034D01*
X123875538Y-93674038D01*
X124000961Y-93799461D01*
X124000965Y-93799464D01*
X124148446Y-93898009D01*
X124148459Y-93898016D01*
X124271363Y-93948923D01*
X124312334Y-93965894D01*
X124312336Y-93965894D01*
X124312341Y-93965896D01*
X124486304Y-94000499D01*
X124486307Y-94000500D01*
X124486309Y-94000500D01*
X124663693Y-94000500D01*
X124663694Y-94000499D01*
X124721682Y-93988964D01*
X124837658Y-93965896D01*
X124837661Y-93965894D01*
X124837666Y-93965894D01*
X125001547Y-93898013D01*
X125149035Y-93799464D01*
X125274464Y-93674035D01*
X125373013Y-93526547D01*
X125440894Y-93362666D01*
X125475500Y-93188691D01*
X125475500Y-93011309D01*
X125475500Y-93011306D01*
X125475499Y-93011304D01*
X125440896Y-92837341D01*
X125440893Y-92837332D01*
X125373016Y-92673459D01*
X125373009Y-92673446D01*
X125274464Y-92525965D01*
X125274461Y-92525961D01*
X125149038Y-92400538D01*
X125149034Y-92400535D01*
X125001553Y-92301990D01*
X125001540Y-92301983D01*
X124837667Y-92234106D01*
X124837658Y-92234103D01*
X124663694Y-92199500D01*
X124663691Y-92199500D01*
X124486309Y-92199500D01*
X124486306Y-92199500D01*
X124312341Y-92234103D01*
X124312332Y-92234106D01*
X124148459Y-92301983D01*
X124148446Y-92301990D01*
X124000965Y-92400535D01*
X124000961Y-92400538D01*
X123875538Y-92525961D01*
X123875535Y-92525965D01*
X123776990Y-92673446D01*
X123776983Y-92673459D01*
X123709106Y-92837332D01*
X123709103Y-92837341D01*
X123674500Y-93011304D01*
X111305673Y-93011304D01*
X116473617Y-87824223D01*
X120374500Y-87824223D01*
X120374500Y-88125776D01*
X120374501Y-88125793D01*
X120413861Y-88424766D01*
X120491913Y-88716060D01*
X120607314Y-88994661D01*
X120607318Y-88994671D01*
X120758099Y-89255831D01*
X120941679Y-89495078D01*
X120941685Y-89495085D01*
X121154914Y-89708314D01*
X121154921Y-89708320D01*
X121394168Y-89891900D01*
X121655328Y-90042681D01*
X121655329Y-90042681D01*
X121655332Y-90042683D01*
X121841072Y-90119619D01*
X121933939Y-90158086D01*
X121933940Y-90158086D01*
X121933942Y-90158087D01*
X122225232Y-90236138D01*
X122524217Y-90275500D01*
X122524224Y-90275500D01*
X122825776Y-90275500D01*
X122825783Y-90275500D01*
X123124768Y-90236138D01*
X123416058Y-90158087D01*
X123694668Y-90042683D01*
X123955832Y-89891900D01*
X124195080Y-89708319D01*
X124408319Y-89495080D01*
X124591900Y-89255832D01*
X124742683Y-88994668D01*
X124858087Y-88716058D01*
X124936138Y-88424768D01*
X124975500Y-88125783D01*
X124975500Y-87824217D01*
X124936138Y-87525232D01*
X124858087Y-87233942D01*
X124742683Y-86955332D01*
X124591900Y-86694168D01*
X124408319Y-86454920D01*
X124408314Y-86454914D01*
X124195085Y-86241685D01*
X124195078Y-86241679D01*
X123955831Y-86058099D01*
X123694671Y-85907318D01*
X123694661Y-85907314D01*
X123416060Y-85791913D01*
X123124766Y-85713861D01*
X122825793Y-85674501D01*
X122825788Y-85674500D01*
X122825783Y-85674500D01*
X122524217Y-85674500D01*
X122524211Y-85674500D01*
X122524206Y-85674501D01*
X122225233Y-85713861D01*
X121933939Y-85791913D01*
X121655338Y-85907314D01*
X121655328Y-85907318D01*
X121394168Y-86058099D01*
X121154921Y-86241679D01*
X121154914Y-86241685D01*
X120941685Y-86454914D01*
X120941679Y-86454921D01*
X120758099Y-86694168D01*
X120607318Y-86955328D01*
X120607314Y-86955338D01*
X120491913Y-87233939D01*
X120413861Y-87525233D01*
X120374501Y-87824206D01*
X120374500Y-87824223D01*
X116473617Y-87824223D01*
X119491356Y-84795309D01*
X119495442Y-84791392D01*
X119780644Y-84530199D01*
X119788960Y-84523230D01*
X120093917Y-84289630D01*
X120102828Y-84283406D01*
X120297251Y-84159922D01*
X120427101Y-84077449D01*
X120436508Y-84072039D01*
X120777616Y-83895308D01*
X120787452Y-83890748D01*
X121142734Y-83744621D01*
X121152953Y-83740933D01*
X121519686Y-83626529D01*
X121530171Y-83623758D01*
X121905516Y-83541960D01*
X121916216Y-83540116D01*
X122297277Y-83491556D01*
X122308121Y-83490656D01*
X122692038Y-83475703D01*
X122702876Y-83475755D01*
G37*
%TD.AperFunction*%
%TD*%
M02*
